<svg width="33" height="32" viewBox="0 0 33 32" fill="none" xmlns="http://www.w3.org/2000/svg">
<g clip-path="url(#clip0_1128_5158)">
<path d="M1.6201 9.14005H30.5801V28.9501H32.1001V3.05005H30.5801V7.62005H1.6201V3.05005H0.100098V28.9501H1.6201V9.14005Z" fill="#ffff74"/>
<path d="M30.5801 28.95H1.62012V30.48H30.5801V28.95Z" fill="#ffff74"/>
<path d="M4.6701 12.19V25.91H27.5301V12.19H4.6701ZM13.8101 19.81H12.2901V21.33H10.7701V22.86H9.24011V21.33H10.7701V19.81H12.2901V18.29H10.7701V16.76H9.24011V15.24H10.7701V16.76H12.2901V18.29H13.8101V19.81ZM22.9601 19.81H16.8601V18.29H22.9601V19.81Z" fill="#ffff74"/>
<path d="M10.7701 4.57001H9.24011V6.10001H10.7701V4.57001Z" fill="#ffff74"/>
<path d="M7.72007 4.57001H6.20007V6.10001H7.72007V4.57001Z" fill="#ffff74"/>
<path d="M4.67009 4.57001H3.15009V6.10001H4.67009V4.57001Z" fill="#ffff74"/>
<path d="M30.5801 1.52002H1.62012V3.05002H30.5801V1.52002Z" fill="#ffff74"/>
</g>
<defs>
<clipPath id="clip0_1128_5158">
<rect width="32" height="32" fill="white" transform="translate(0.100098)"/>
</clipPath>
</defs>
</svg>
