<svg width="88" height="90" viewBox="0 0 88 90" fill="none" xmlns="http://www.w3.org/2000/svg">
<g filter="url(#filter0_d_549_2436)">
<rect x="27.5" y="23" width="33" height="44" rx="1" fill="#E8F3FF"/>
<rect x="28" y="23.5" width="32" height="43" rx="0.5" stroke="#555555"/>
</g>
<path d="M32 30.7754H54.5657" stroke="#555555" stroke-linecap="round"/>
<path d="M32 33.7754H54.5657" stroke="#555555" stroke-linecap="round"/>
<path d="M37.7495 39.8428H48.554" stroke="#555555" stroke-linecap="round"/>
<path d="M35.4497 42.8091H50.696" stroke="#555555" stroke-linecap="round"/>
<line x1="37.2373" y1="46.9673" x2="50.1483" y2="46.9673" stroke="#6288D3" stroke-width="0.1"/>
<line x1="37.6663" y1="59.6653" x2="37.6663" y2="46.53" stroke="#6288D3" stroke-width="0.1"/>
<line x1="49.8584" y1="59.6653" x2="49.8584" y2="46.53" stroke="#6288D3" stroke-width="0.1"/>
<line x1="37.2373" y1="59.3711" x2="50.1483" y2="59.3711" stroke="#6288D3" stroke-width="0.1"/>
<rect x="37.1" y="46.6" width="0.995304" height="1.01607" fill="white" stroke="#6288D3" stroke-width="0.2"/>
<rect x="37.1" y="58.7606" width="0.995304" height="1.01607" fill="white" stroke="#6288D3" stroke-width="0.2"/>
<rect x="49.2921" y="46.6" width="0.995304" height="1.01607" fill="white" stroke="#6288D3" stroke-width="0.2"/>
<path d="M49.6203 53.0667C49.6203 56.398 46.9661 59.097 43.6938 59.097C40.4215 59.097 37.7673 56.398 37.7673 53.0667C37.7673 49.7354 40.4215 47.0363 43.6938 47.0363C46.9661 47.0363 49.6203 49.7354 49.6203 53.0667Z" fill="#474747" stroke="#6288D3" stroke-width="0.1"/>
<path d="M49.5703 53.0667C49.5703 56.3712 46.9377 59.047 43.6938 59.047C40.4499 59.047 37.8173 56.3712 37.8173 53.0667C37.8173 49.7622 40.4499 47.0863 43.6938 47.0863C46.9377 47.0863 49.5703 49.7622 49.5703 53.0667Z" fill="#474747" stroke="#6288D3" stroke-width="0.2"/>
<path d="M49.4853 60.5001V57.9312H49.9877V60.5001H49.4853ZM48.4749 59.4702V58.9591H50.9999V59.4702H48.4749Z" fill="#555555"/>
<defs>
<filter id="filter0_d_549_2436" x="26.5" y="23" width="35" height="46" filterUnits="userSpaceOnUse" color-interpolation-filters="sRGB">
<feFlood flood-opacity="0" result="BackgroundImageFix"/>
<feColorMatrix in="SourceAlpha" type="matrix" values="0 0 0 0 0 0 0 0 0 0 0 0 0 0 0 0 0 0 127 0" result="hardAlpha"/>
<feOffset dy="1"/>
<feGaussianBlur stdDeviation="0.5"/>
<feComposite in2="hardAlpha" operator="out"/>
<feColorMatrix type="matrix" values="0 0 0 0 0 0 0 0 0 0 0 0 0 0 0 0 0 0 0.25 0"/>
<feBlend mode="normal" in2="BackgroundImageFix" result="effect1_dropShadow_549_2436"/>
<feBlend mode="normal" in="SourceGraphic" in2="effect1_dropShadow_549_2436" result="shape"/>
</filter>
</defs>
</svg>
