<svg width="88" height="90" viewBox="0 0 88 90" fill="none" xmlns="http://www.w3.org/2000/svg">
<mask id="mask0_549_2437" style="mask-type:alpha" maskUnits="userSpaceOnUse" x="3" y="29" width="24" height="25">
<rect x="3" y="29.5" width="24" height="24" fill="#D9D9D9"/>
</mask>
<g mask="url(#mask0_549_2437)">
<path d="M9 51.5V47.2C8.05 46.3333 7.3125 45.3208 6.7875 44.1625C6.2625 43.0042 6 41.7833 6 40.5C6 38 6.875 35.875 8.625 34.125C10.375 32.375 12.5 31.5 15 31.5C17.0833 31.5 18.9292 32.1125 20.5375 33.3375C22.1458 34.5625 23.1917 36.1583 23.675 38.125L24.975 43.25C25.0583 43.5667 25 43.8542 24.8 44.1125C24.6 44.3708 24.3333 44.5 24 44.5H22V47.5C22 48.05 21.8042 48.5208 21.4125 48.9125C21.0208 49.3042 20.55 49.5 20 49.5H18V51.5H16V47.5H20V42.5H22.7L21.75 38.625C21.3667 37.1083 20.55 35.875 19.3 34.925C18.05 33.975 16.6167 33.5 15 33.5C13.0667 33.5 11.4167 34.175 10.05 35.525C8.68333 36.875 8 38.5167 8 40.45C8 41.45 8.20417 42.4 8.6125 43.3C9.02083 44.2 9.6 45 10.35 45.7L11 46.3V51.5H9ZM15 45.5C15.2833 45.5 15.5208 45.4042 15.7125 45.2125C15.9042 45.0208 16 44.7833 16 44.5C16 44.2167 15.9042 43.9792 15.7125 43.7875C15.5208 43.5958 15.2833 43.5 15 43.5C14.7167 43.5 14.4792 43.5958 14.2875 43.7875C14.0958 43.9792 14 44.2167 14 44.5C14 44.7833 14.0958 45.0208 14.2875 45.2125C14.4792 45.4042 14.7167 45.5 15 45.5ZM14.25 42.3H15.775C15.775 41.8833 15.8292 41.5458 15.9375 41.2875C16.0458 41.0292 16.2667 40.7167 16.6 40.35C16.9 40.0167 17.1917 39.6792 17.475 39.3375C17.7583 38.9958 17.9 38.55 17.9 38C17.9 37.3 17.6292 36.7083 17.0875 36.225C16.5458 35.7417 15.875 35.5 15.075 35.5C14.4083 35.5 13.8042 35.6917 13.2625 36.075C12.7208 36.4583 12.3417 36.9583 12.125 37.575L13.5 38.15C13.6167 37.7833 13.8208 37.4875 14.1125 37.2625C14.4042 37.0375 14.725 36.925 15.075 36.925C15.4417 36.925 15.7458 37.025 15.9875 37.225C16.2292 37.425 16.35 37.6833 16.35 38C16.35 38.35 16.2458 38.6625 16.0375 38.9375C15.8292 39.2125 15.5833 39.4917 15.3 39.775C14.9667 40.125 14.7083 40.475 14.525 40.825C14.3417 41.175 14.25 41.6667 14.25 42.3Z" fill="#FEFEFE"/>
</g>
<mask id="path-3-inside-1_549_2437" fill="white">
<path fill-rule="evenodd" clip-rule="evenodd" d="M73.5 22.7535C79.0228 22.7535 83.5 18.2764 83.5 12.7535C83.5 11.901 83.3933 11.0734 83.1926 10.2834L84.7461 4.0301L78.5404 4.11485C77.0604 3.24948 75.3381 2.75354 73.5 2.75354C67.9772 2.75354 63.5 7.23069 63.5 12.7535C63.5 18.2764 67.9772 22.7535 73.5 22.7535Z"/>
</mask>
<path fill-rule="evenodd" clip-rule="evenodd" d="M73.5 22.7535C79.0228 22.7535 83.5 18.2764 83.5 12.7535C83.5 11.901 83.3933 11.0734 83.1926 10.2834L84.7461 4.0301L78.5404 4.11485C77.0604 3.24948 75.3381 2.75354 73.5 2.75354C67.9772 2.75354 63.5 7.23069 63.5 12.7535C63.5 18.2764 67.9772 22.7535 73.5 22.7535Z" fill="white"/>
<path d="M83.1926 10.2834L81.2516 9.80114L81.1304 10.2888L81.2542 10.7759L83.1926 10.2834ZM84.7461 4.0301L86.6871 4.51231L87.3125 1.99486L84.7188 2.03028L84.7461 4.0301ZM78.5404 4.11485L77.5309 5.84136L78.0113 6.12226L78.5677 6.11466L78.5404 4.11485ZM81.5 12.7535C81.5 17.1718 77.9183 20.7535 73.5 20.7535V24.7535C80.1274 24.7535 85.5 19.381 85.5 12.7535H81.5ZM81.2542 10.7759C81.4143 11.4063 81.5 12.0685 81.5 12.7535H85.5C85.5 11.7336 85.3723 10.7406 85.131 9.79084L81.2542 10.7759ZM82.8051 3.54789L81.2516 9.80114L85.1336 10.7656L86.6871 4.51231L82.8051 3.54789ZM78.5677 6.11466L84.7734 6.02991L84.7188 2.03028L78.5131 2.11504L78.5677 6.11466ZM73.5 4.75354C74.9738 4.75354 76.3489 5.15022 77.5309 5.84136L79.5499 2.38834C77.772 1.34874 75.7025 0.75354 73.5 0.75354V4.75354ZM65.5 12.7535C65.5 8.33526 69.0817 4.75354 73.5 4.75354V0.75354C66.8726 0.75354 61.5 6.12612 61.5 12.7535H65.5ZM73.5 20.7535C69.0817 20.7535 65.5 17.1718 65.5 12.7535H61.5C61.5 19.381 66.8726 24.7535 73.5 24.7535V20.7535Z" fill="#80C25F" mask="url(#path-3-inside-1_549_2437)"/>
<path d="M78.8 10.1535L71.75 17.2035L67.5 12.9535L68.9 11.5535L71.75 14.4035L77.4 8.75354L78.8 10.1535Z" fill="#80C25F"/>
<mask id="mask1_549_2437" style="mask-type:alpha" maskUnits="userSpaceOnUse" x="60" y="63" width="27" height="25">
<rect width="26" height="24" transform="matrix(-1 0 0 1 86.5 63.9978)" fill="#D9D9D9"/>
</mask>
<g mask="url(#mask1_549_2437)">
<path d="M76.3166 77.9978L73.4999 75.3978L70.6833 77.9978L69.1666 76.5978L71.9833 73.9978L69.1666 71.3978L70.6833 69.9978L73.4999 72.5978L76.3166 69.9978L77.8333 71.3978L75.0166 73.9978L77.8333 76.5978L76.3166 77.9978ZM84.3333 85.9978V67.9978C84.3333 67.4478 84.1211 66.977 83.6968 66.5853C83.2725 66.1936 82.7624 65.9978 82.1666 65.9978H64.8333C64.2374 65.9978 63.7274 66.1936 63.303 66.5853C62.8787 66.977 62.6666 67.4478 62.6666 67.9978V79.9978C62.6666 80.5478 62.8787 81.0186 63.303 81.4103C63.7274 81.802 64.2374 81.9978 64.8333 81.9978H79.9999L84.3333 85.9978ZM80.9208 79.9978H64.8333V67.9978H82.1666V81.1228L80.9208 79.9978Z" fill="#D37F7F"/>
</g>
<g filter="url(#filter0_d_549_2437)">
<rect x="27.5" y="23" width="33" height="44" rx="1" fill="#E8F3FF"/>
<rect x="28" y="23.5" width="32" height="43" rx="0.5" stroke="#555555"/>
</g>
<path d="M32 30.7754H54.5657" stroke="#555555" stroke-linecap="round"/>
<path d="M32 33.7754H54.5657" stroke="#555555" stroke-linecap="round"/>
<path d="M37.7495 39.8428H48.554" stroke="#555555" stroke-linecap="round"/>
<path d="M35.4497 42.8091H50.696" stroke="#555555" stroke-linecap="round"/>
<line x1="37.2373" y1="46.9673" x2="50.1483" y2="46.9673" stroke="#6288D3" stroke-width="0.1"/>
<line x1="37.6663" y1="59.6653" x2="37.6663" y2="46.53" stroke="#6288D3" stroke-width="0.1"/>
<line x1="49.8584" y1="59.6653" x2="49.8584" y2="46.53" stroke="#6288D3" stroke-width="0.1"/>
<line x1="37.2373" y1="59.3711" x2="50.1483" y2="59.3711" stroke="#6288D3" stroke-width="0.1"/>
<rect x="37.1" y="46.6" width="0.995304" height="1.01607" fill="white" stroke="#6288D3" stroke-width="0.2"/>
<rect x="37.1" y="58.7606" width="0.995304" height="1.01607" fill="white" stroke="#6288D3" stroke-width="0.2"/>
<rect x="49.2921" y="46.6" width="0.995304" height="1.01607" fill="white" stroke="#6288D3" stroke-width="0.2"/>
<path d="M49.6203 53.0667C49.6203 56.398 46.9661 59.097 43.6938 59.097C40.4215 59.097 37.7673 56.398 37.7673 53.0667C37.7673 49.7354 40.4215 47.0363 43.6938 47.0363C46.9661 47.0363 49.6203 49.7354 49.6203 53.0667Z" fill="#474747" stroke="#6288D3" stroke-width="0.1"/>
<path d="M49.5703 53.0667C49.5703 56.3712 46.9377 59.047 43.6938 59.047C40.4499 59.047 37.8173 56.3712 37.8173 53.0667C37.8173 49.7622 40.4499 47.0863 43.6938 47.0863C46.9377 47.0863 49.5703 49.7622 49.5703 53.0667Z" fill="#474747" stroke="#6288D3" stroke-width="0.2"/>
<path d="M49.4853 60.5001V57.9312H49.9877V60.5001H49.4853ZM48.4749 59.4702V58.9591H50.9999V59.4702H48.4749Z" fill="#555555"/>
<defs>
<filter id="filter0_d_549_2437" x="26.5" y="23" width="35" height="46" filterUnits="userSpaceOnUse" color-interpolation-filters="sRGB">
<feFlood flood-opacity="0" result="BackgroundImageFix"/>
<feColorMatrix in="SourceAlpha" type="matrix" values="0 0 0 0 0 0 0 0 0 0 0 0 0 0 0 0 0 0 127 0" result="hardAlpha"/>
<feOffset dy="1"/>
<feGaussianBlur stdDeviation="0.5"/>
<feComposite in2="hardAlpha" operator="out"/>
<feColorMatrix type="matrix" values="0 0 0 0 0 0 0 0 0 0 0 0 0 0 0 0 0 0 0.25 0"/>
<feBlend mode="normal" in2="BackgroundImageFix" result="effect1_dropShadow_549_2437"/>
<feBlend mode="normal" in="SourceGraphic" in2="effect1_dropShadow_549_2437" result="shape"/>
</filter>
</defs>
</svg>
