<svg width="89" height="90" viewBox="0 0 89 90" fill="none" xmlns="http://www.w3.org/2000/svg">
<g clip-path="url(#clip0_549_2434)">
<g filter="url(#filter0_d_549_2434)">
<rect x="48.4729" y="62.937" width="28" height="24" rx="1" transform="rotate(-25.3851 48.4729 62.937)" fill="#E8E7FF"/>
<rect x="49.139" y="63.1744" width="27" height="23" rx="0.5" transform="rotate(-25.3851 49.139 63.1744)" stroke="#555555"/>
</g>
<line x1="55.7217" y1="66.1386" x2="71.0803" y2="58.8507" stroke="#555555" stroke-linecap="round"/>
<line x1="56.533" y1="70.1811" x2="73.6985" y2="62.0358" stroke="#555555" stroke-linecap="round"/>
<line x1="58.2479" y1="73.7949" x2="75.4134" y2="65.6496" stroke="#555555" stroke-linecap="round"/>
<line x1="62.5645" y1="75.9038" x2="74.3093" y2="70.3307" stroke="#555555" stroke-linecap="round"/>
<rect x="9.35107" y="25.9289" width="27" height="23" rx="0.5" transform="rotate(15.5731 9.35107 25.9289)" fill="#E7FFE9" stroke="#555555"/>
<line x1="11.8478" y1="33.5913" x2="30.1503" y2="38.6922" stroke="#555555" stroke-linecap="round"/>
<line x1="10.7741" y1="37.4446" x2="29.0766" y2="42.5455" stroke="#555555" stroke-linecap="round"/>
<mask id="path-10-inside-1_549_2434" fill="white">
<path fill-rule="evenodd" clip-rule="evenodd" d="M81.6735 23.0187C81.5416 22.784 81.5128 22.5068 81.5753 22.2449C81.8187 21.2238 81.8716 20.1392 81.6999 19.0378C80.9924 14.5005 76.7407 11.3959 72.2035 12.1034C67.6662 12.8109 64.5616 17.0626 65.269 21.5998C65.9765 26.1371 70.2282 29.2417 74.7655 28.5342C76.4614 28.2698 77.9572 27.5102 79.1286 26.4256C79.3178 26.2504 79.5605 26.1411 79.8182 26.1331L81.7128 26.0741C82.4633 26.0507 82.9213 25.2393 82.5534 24.5847L81.6735 23.0187Z"/>
</mask>
<path fill-rule="evenodd" clip-rule="evenodd" d="M81.6735 23.0187C81.5416 22.784 81.5128 22.5068 81.5753 22.2449C81.8187 21.2238 81.8716 20.1392 81.6999 19.0378C80.9924 14.5005 76.7407 11.3959 72.2035 12.1034C67.6662 12.8109 64.5616 17.0626 65.269 21.5998C65.9765 26.1371 70.2282 29.2417 74.7655 28.5342C76.4614 28.2698 77.9572 27.5102 79.1286 26.4256C79.3178 26.2504 79.5605 26.1411 79.8182 26.1331L81.7128 26.0741C82.4633 26.0507 82.9213 25.2393 82.5534 24.5847L81.6735 23.0187Z" fill="#FCFCFC"/>
<path d="M79.1286 26.4256L79.808 27.1593L79.1286 26.4256ZM79.8182 26.1331L79.8494 27.1326L79.8182 26.1331ZM82.5534 24.5847L81.6817 25.0746L82.5534 24.5847ZM81.5753 22.2449L82.548 22.4768L81.5753 22.2449ZM81.6735 23.0187L80.8017 23.5086L81.6735 23.0187ZM80.7118 19.1919C80.8632 20.1626 80.8164 21.1161 80.6025 22.0129L82.548 22.4768C82.8211 21.3314 82.8801 20.1158 82.688 18.8837L80.7118 19.1919ZM72.3575 13.0914C76.3491 12.4691 80.0894 15.2003 80.7118 19.1919L82.688 18.8837C81.8954 13.8008 77.1323 10.3228 72.0494 11.1153L72.3575 13.0914ZM66.2571 21.4458C65.6347 17.4542 68.366 13.7138 72.3575 13.0914L72.0494 11.1153C66.9665 11.9079 63.4884 16.6709 64.281 21.7539L66.2571 21.4458ZM74.6114 27.5462C70.6199 28.1686 66.8795 25.4373 66.2571 21.4458L64.281 21.7539C65.0736 26.8368 69.8366 30.3149 74.9196 29.5223L74.6114 27.5462ZM78.4492 25.6918C77.4192 26.6455 76.1048 27.3133 74.6114 27.5462L74.9196 29.5223C76.8181 29.2263 78.4953 28.3748 79.808 27.1593L78.4492 25.6918ZM81.6817 25.0746L79.7871 25.1336L79.8494 27.1326L81.7439 27.0736L81.6817 25.0746ZM80.8017 23.5086L81.6817 25.0746L83.4252 24.0948L82.5453 22.5289L80.8017 23.5086ZM79.808 27.1593C79.8226 27.1458 79.8354 27.1385 79.8434 27.135C79.8508 27.1318 79.8527 27.1325 79.8494 27.1326L79.7871 25.1336C79.2637 25.1499 78.7964 25.3703 78.4492 25.6918L79.808 27.1593ZM81.7439 27.0736C83.245 27.0269 84.1609 25.4041 83.4252 24.0948L81.6817 25.0746L81.6817 25.0746L81.7439 27.0736ZM80.6025 22.0129C80.4881 22.4929 80.5337 23.0318 80.8017 23.5086L82.5453 22.5289C82.5469 22.5319 82.5453 22.5306 82.5443 22.5221C82.5432 22.5129 82.5431 22.4973 82.548 22.4768L80.6025 22.0129Z" fill="#474747" mask="url(#path-10-inside-1_549_2434)"/>
<path d="M69.3599 17.9658L76.6006 16.8368" stroke="#474747" stroke-linecap="round"/>
<path d="M69.822 20.9299L77.0628 19.8009" stroke="#474747" stroke-linecap="round"/>
<path d="M70.2842 23.8943L77.5249 22.7653" stroke="#474747" stroke-linecap="round"/>
<mask id="path-15-inside-2_549_2434" fill="white">
<path fill-rule="evenodd" clip-rule="evenodd" d="M9.3015 14.9765C9.38947 14.7318 9.3751 14.4638 9.28371 14.2203C9.02895 13.5416 8.88914 12.8032 8.88914 12.0309C8.88914 8.70012 11.4894 6 14.697 6C17.9046 6 20.5049 8.70012 20.5049 12.0309C20.5049 15.3616 17.9046 18.0618 14.697 18.0618C13.5444 18.0618 12.4702 17.7131 11.5669 17.1118C11.3457 16.9646 11.0818 16.8888 10.8182 16.9228L10.1164 17.0133C9.37489 17.1089 8.79453 16.3867 9.04745 15.6832L9.3015 14.9765Z"/>
</mask>
<path fill-rule="evenodd" clip-rule="evenodd" d="M9.3015 14.9765C9.38947 14.7318 9.3751 14.4638 9.28371 14.2203C9.02895 13.5416 8.88914 12.8032 8.88914 12.0309C8.88914 8.70012 11.4894 6 14.697 6C17.9046 6 20.5049 8.70012 20.5049 12.0309C20.5049 15.3616 17.9046 18.0618 14.697 18.0618C13.5444 18.0618 12.4702 17.7131 11.5669 17.1118C11.3457 16.9646 11.0818 16.8888 10.8182 16.9228L10.1164 17.0133C9.37489 17.1089 8.79453 16.3867 9.04745 15.6832L9.3015 14.9765Z" fill="#FCFCFC"/>
<path d="M11.5669 17.1118L12.121 16.2794L11.5669 17.1118ZM10.8182 16.9228L10.9461 17.9146L10.8182 16.9228ZM10.1164 17.0133L10.2443 18.0051L10.1164 17.0133ZM9.04745 15.6832L8.10641 15.3449L9.04745 15.6832ZM9.3015 14.9765L8.36046 14.6382L9.3015 14.9765ZM9.88914 12.0309C9.88914 12.6819 10.0069 13.3013 10.2199 13.8689L8.3475 14.5717C8.05102 13.7819 7.88914 12.9245 7.88914 12.0309H9.88914ZM14.697 7C12.0769 7 9.88914 9.21655 9.88914 12.0309H7.88914C7.88914 8.18368 10.9019 5 14.697 5V7ZM19.5049 12.0309C19.5049 9.21655 17.3171 7 14.697 7V5C18.4921 5 21.5049 8.18368 21.5049 12.0309H19.5049ZM14.697 17.0618C17.3171 17.0618 19.5049 14.8452 19.5049 12.0309H21.5049C21.5049 15.8781 18.4921 19.0618 14.697 19.0618V17.0618ZM12.121 16.2794C12.8671 16.776 13.7498 17.0618 14.697 17.0618V19.0618C13.339 19.0618 12.0733 18.6502 11.0128 17.9443L12.121 16.2794ZM9.98849 16.0215L10.6904 15.931L10.9461 17.9146L10.2443 18.0051L9.98849 16.0215ZM10.2425 15.3148L9.98849 16.0215L8.10641 15.3449L8.36046 14.6382L10.2425 15.3148ZM11.0128 17.9443C10.9882 17.9279 10.9679 17.9201 10.9554 17.9168C10.9437 17.9137 10.9413 17.9152 10.9461 17.9146L10.6904 15.931C11.2288 15.8616 11.7314 16.02 12.121 16.2794L11.0128 17.9443ZM10.2443 18.0051C8.76129 18.1963 7.60057 16.752 8.10641 15.3449L9.98849 16.0215V16.0215L10.2443 18.0051ZM10.2199 13.8689C10.3821 14.3009 10.4221 14.8154 10.2425 15.3148L8.36046 14.6382C8.35892 14.6425 8.36071 14.6406 8.36036 14.6293C8.35998 14.6174 8.35712 14.5974 8.3475 14.5717L10.2199 13.8689Z" fill="#474747" mask="url(#path-15-inside-2_549_2434)"/>
<path d="M13.0367 11.0324C12.9619 11.006 12.9583 10.9252 13.0259 10.7899C13.091 10.6639 13.2334 10.5323 13.453 10.3951C13.6749 10.256 13.9971 10.1864 14.4193 10.1864C14.9381 10.1864 15.3193 10.2832 15.563 10.4768C15.8067 10.6686 15.9286 10.9252 15.9286 11.2467C15.9286 11.5155 15.7271 11.8238 15.3242 12.1716C14.9236 12.5175 14.7233 12.8202 14.7233 13.0796V13.1444C14.7233 13.229 14.6691 13.2713 14.5605 13.2713H14.2492C14.1406 13.2713 14.0863 13.229 14.0863 13.1444V13.0401C14.0863 12.7224 14.2745 12.3962 14.651 12.0616C15.0298 11.7251 15.2192 11.4478 15.2192 11.2298C15.2192 11.0004 15.1504 10.8397 15.0129 10.7476C14.8754 10.6554 14.6859 10.6094 14.4447 10.6094C14.1792 10.6094 13.979 10.647 13.8438 10.7222C13.7111 10.7974 13.6098 10.8998 13.5398 11.0295C13.4843 11.1311 13.4059 11.164 13.3046 11.1282L13.0367 11.0324ZM14.1985 14.3147C14.09 14.3147 14.0357 14.2724 14.0357 14.1878V13.8438C14.0357 13.7592 14.09 13.7169 14.1985 13.7169H14.6039C14.7125 13.7169 14.7668 13.7592 14.7668 13.8438V14.1878C14.7668 14.2724 14.7125 14.3147 14.6039 14.3147H14.1985Z" fill="#474747"/>
<mask id="path-18-inside-3_549_2434" fill="white">
<path fill-rule="evenodd" clip-rule="evenodd" d="M12.6784 17.7805C12.9039 17.651 13.0666 17.4375 13.1547 17.1928C13.4002 16.5107 13.7719 15.8575 14.2721 15.2691C16.4295 12.7314 20.1595 12.3584 22.6033 14.436C25.0472 16.5136 25.2794 20.255 23.1221 22.7927C20.9648 25.3303 17.2348 25.7033 14.7909 23.6258C13.9127 22.8792 13.3201 21.9178 13.0214 20.8747C12.9482 20.6192 12.7962 20.3905 12.5734 20.2457L11.9801 19.8601C11.3532 19.4527 11.3788 18.5265 12.0271 18.1543L12.6784 17.7805Z"/>
</mask>
<path fill-rule="evenodd" clip-rule="evenodd" d="M12.6784 17.7805C12.9039 17.651 13.0666 17.4375 13.1547 17.1928C13.4002 16.5107 13.7719 15.8575 14.2721 15.2691C16.4295 12.7314 20.1595 12.3584 22.6033 14.436C25.0472 16.5136 25.2794 20.255 23.1221 22.7927C20.9648 25.3303 17.2348 25.7033 14.7909 23.6258C13.9127 22.8792 13.3201 21.9178 13.0214 20.8747C12.9482 20.6192 12.7962 20.3905 12.5734 20.2457L11.9801 19.8601C11.3532 19.4527 11.3788 18.5265 12.0271 18.1543L12.6784 17.7805Z" fill="#FCFCFC"/>
<path d="M13.0214 20.8747L13.9827 20.5993L13.0214 20.8747ZM12.5734 20.2457L13.1184 19.4072L12.5734 20.2457ZM11.9801 19.8601L11.4351 20.6985L11.9801 19.8601ZM12.0271 18.1543L12.525 19.0216L12.0271 18.1543ZM13.1547 17.1928L14.0956 17.5314L13.1547 17.1928ZM12.6784 17.7805L13.1763 18.6477L12.6784 17.7805ZM15.034 15.9168C14.6124 16.4128 14.3009 16.961 14.0956 17.5314L12.2137 16.8542C12.4994 16.0604 12.9314 15.3023 13.5102 14.6214L15.034 15.9168ZM21.9556 15.1979C19.9594 13.5008 16.8569 13.7726 15.034 15.9168L13.5102 14.6214C16.0021 11.6903 20.3596 11.216 23.251 13.6741L21.9556 15.1979ZM22.3602 22.1449C24.1831 20.0007 23.9519 16.8949 21.9556 15.1979L23.251 13.6741C26.1425 16.1322 26.3758 20.5092 23.884 23.4404L22.3602 22.1449ZM15.4386 22.8639C17.4349 24.561 20.5374 24.2892 22.3602 22.1449L23.884 23.4404C21.3922 26.3715 17.0346 26.8457 14.1432 24.3877L15.4386 22.8639ZM13.9827 20.5993C14.2295 21.461 14.7169 22.2503 15.4386 22.8639L14.1432 24.3877C13.1086 23.5081 12.4108 22.3747 12.06 21.15L13.9827 20.5993ZM12.525 19.0216L13.1184 19.4072L12.0285 21.0842L11.4351 20.6985L12.525 19.0216ZM13.1763 18.6477L12.525 19.0216L11.5293 17.2871L12.1806 16.9132L13.1763 18.6477ZM12.06 21.15C12.0519 21.1216 12.0415 21.1025 12.0341 21.0919C12.0272 21.082 12.0244 21.0815 12.0285 21.0842L13.1184 19.4072C13.5736 19.7031 13.8538 20.1493 13.9827 20.5993L12.06 21.15ZM11.4351 20.6985C10.1814 19.8837 10.2325 18.0315 11.5293 17.2871L12.525 19.0216L12.525 19.0216L11.4351 20.6985ZM14.0956 17.5314C13.9393 17.9656 13.6365 18.3835 13.1763 18.6477L12.1806 16.9132C12.1766 16.9155 12.1792 16.9151 12.1862 16.9064C12.1937 16.897 12.2045 16.8799 12.2137 16.8542L14.0956 17.5314Z" fill="#474747" mask="url(#path-18-inside-3_549_2434)"/>
<path d="M17.0367 18.0325C16.9619 18.0062 16.9583 17.9253 17.0259 17.79C17.091 17.664 17.2334 17.5324 17.453 17.3952C17.6749 17.2561 17.9971 17.1865 18.4193 17.1865C18.9381 17.1865 19.3193 17.2833 19.563 17.477C19.8067 17.6687 19.9286 17.9253 19.9286 18.2468C19.9286 18.5156 19.7271 18.8239 19.3242 19.1717C18.9236 19.5176 18.7233 19.8203 18.7233 20.0797V20.1446C18.7233 20.2292 18.6691 20.2715 18.5605 20.2715H18.2492C18.1406 20.2715 18.0863 20.2292 18.0863 20.1446V20.0402C18.0863 19.7225 18.2745 19.3964 18.651 19.0617C19.0298 18.7252 19.2192 18.4479 19.2192 18.2299C19.2192 18.0005 19.1504 17.8398 19.0129 17.7477C18.8754 17.6556 18.6859 17.6095 18.4447 17.6095C18.1792 17.6095 17.979 17.6471 17.8438 17.7223C17.7111 17.7975 17.6098 17.9 17.5398 18.0297C17.4843 18.1312 17.4059 18.1641 17.3046 18.1284L17.0367 18.0325ZM18.1985 21.3148C18.09 21.3148 18.0357 21.2725 18.0357 21.1879V20.8439C18.0357 20.7593 18.09 20.717 18.1985 20.717H18.6039C18.7125 20.717 18.7668 20.7593 18.7668 20.8439V21.1879C18.7668 21.2725 18.7125 21.3148 18.6039 21.3148H18.1985Z" fill="#474747"/>
<mask id="path-21-inside-4_549_2434" fill="white">
<path fill-rule="evenodd" clip-rule="evenodd" d="M17.3015 13.9765C17.3895 13.7318 17.3751 13.4638 17.2837 13.2203C17.0289 12.5416 16.8891 11.8032 16.8891 11.0309C16.8891 7.70012 19.4894 5 22.697 5C25.9046 5 28.5049 7.70012 28.5049 11.0309C28.5049 14.3616 25.9046 17.0618 22.697 17.0618C21.5444 17.0618 20.4702 16.7131 19.5669 16.1118C19.3457 15.9646 19.0818 15.8888 18.8182 15.9228L18.1164 16.0133C17.3749 16.1089 16.7945 15.3867 17.0475 14.6832L17.3015 13.9765Z"/>
</mask>
<path fill-rule="evenodd" clip-rule="evenodd" d="M17.3015 13.9765C17.3895 13.7318 17.3751 13.4638 17.2837 13.2203C17.0289 12.5416 16.8891 11.8032 16.8891 11.0309C16.8891 7.70012 19.4894 5 22.697 5C25.9046 5 28.5049 7.70012 28.5049 11.0309C28.5049 14.3616 25.9046 17.0618 22.697 17.0618C21.5444 17.0618 20.4702 16.7131 19.5669 16.1118C19.3457 15.9646 19.0818 15.8888 18.8182 15.9228L18.1164 16.0133C17.3749 16.1089 16.7945 15.3867 17.0475 14.6832L17.3015 13.9765Z" fill="#FCFCFC"/>
<path d="M19.5669 16.1118L20.121 15.2794L19.5669 16.1118ZM18.8182 15.9228L18.9461 16.9146L18.8182 15.9228ZM18.1164 16.0133L18.2443 17.0051L18.1164 16.0133ZM17.0475 14.6832L16.1064 14.3449L17.0475 14.6832ZM17.3015 13.9765L16.3605 13.6382L17.3015 13.9765ZM17.8891 11.0309C17.8891 11.6819 18.0069 12.3013 18.2199 12.8689L16.3475 13.5717C16.051 12.7819 15.8891 11.9245 15.8891 11.0309H17.8891ZM22.697 6C20.0769 6 17.8891 8.21655 17.8891 11.0309H15.8891C15.8891 7.18368 18.9019 4 22.697 4V6ZM27.5049 11.0309C27.5049 8.21655 25.3171 6 22.697 6V4C26.4921 4 29.5049 7.18368 29.5049 11.0309H27.5049ZM22.697 16.0618C25.3171 16.0618 27.5049 13.8452 27.5049 11.0309H29.5049C29.5049 14.8781 26.4921 18.0618 22.697 18.0618V16.0618ZM20.121 15.2794C20.8671 15.776 21.7498 16.0618 22.697 16.0618V18.0618C21.339 18.0618 20.0733 17.6502 19.0128 16.9443L20.121 15.2794ZM17.9885 15.0215L18.6904 14.931L18.9461 16.9146L18.2443 17.0051L17.9885 15.0215ZM18.2425 14.3148L17.9885 15.0215L16.1064 14.3449L16.3605 13.6382L18.2425 14.3148ZM19.0128 16.9443C18.9882 16.9279 18.9679 16.9201 18.9554 16.9168C18.9437 16.9137 18.9413 16.9152 18.9461 16.9146L18.6904 14.931C19.2288 14.8616 19.7314 15.02 20.121 15.2794L19.0128 16.9443ZM18.2443 17.0051C16.7613 17.1963 15.6006 15.752 16.1064 14.3449L17.9885 15.0215V15.0215L18.2443 17.0051ZM18.2199 12.8689C18.3821 13.3009 18.4221 13.8154 18.2425 14.3148L16.3605 13.6382C16.3589 13.6425 16.3607 13.6406 16.3604 13.6293C16.36 13.6174 16.3571 13.5974 16.3475 13.5717L18.2199 12.8689Z" fill="#474747" mask="url(#path-21-inside-4_549_2434)"/>
<path d="M21.0367 10.0324C20.9619 10.006 20.9583 9.92521 21.0259 9.78985C21.091 9.6639 21.2334 9.53231 21.453 9.39507C21.6749 9.25596 21.9971 9.1864 22.4193 9.1864C22.9381 9.1864 23.3193 9.28322 23.563 9.47685C23.8067 9.6686 23.9286 9.92521 23.9286 10.2467C23.9286 10.5155 23.7271 10.8238 23.3242 11.1716C22.9236 11.5175 22.7233 11.8202 22.7233 12.0796V12.1444C22.7233 12.229 22.6691 12.2713 22.5605 12.2713H22.2492C22.1406 12.2713 22.0863 12.229 22.0863 12.1444V12.0401C22.0863 11.7224 22.2745 11.3962 22.651 11.0616C23.0298 10.7251 23.2192 10.4478 23.2192 10.2298C23.2192 10.0004 23.1504 9.83967 23.0129 9.74756C22.8754 9.65544 22.6859 9.60938 22.4447 9.60938C22.1792 9.60938 21.979 9.64698 21.8438 9.72218C21.7111 9.79737 21.6098 9.89983 21.5398 10.0295C21.4843 10.1311 21.4059 10.164 21.3046 10.1282L21.0367 10.0324ZM22.1985 13.3147C22.09 13.3147 22.0357 13.2724 22.0357 13.1878V12.8438C22.0357 12.7592 22.09 12.7169 22.1985 12.7169H22.6039C22.7125 12.7169 22.7668 12.7592 22.7668 12.8438V13.1878C22.7668 13.2724 22.7125 13.3147 22.6039 13.3147H22.1985Z" fill="#474747"/>
<mask id="path-24-inside-5_549_2434" fill="white">
<path fill-rule="evenodd" clip-rule="evenodd" d="M82.7316 33.8315C82.5617 33.56 82.5082 33.2282 82.6097 32.9245L83.103 31.4487C83.3766 30.63 82.5541 29.8726 81.7607 30.2125L80.3004 30.8382C80.0103 30.9625 79.6802 30.939 79.398 30.7976C78.2786 30.2366 77.0151 29.9209 75.6777 29.9209C71.0857 29.9209 67.363 33.6435 67.363 38.2356C67.363 42.8277 71.0857 46.5503 75.6777 46.5503C80.2698 46.5503 83.9924 42.8277 83.9924 38.2356C83.9924 36.6181 83.5306 35.1086 82.7316 33.8315Z"/>
</mask>
<path fill-rule="evenodd" clip-rule="evenodd" d="M82.7316 33.8315C82.5617 33.56 82.5082 33.2282 82.6097 32.9245L83.103 31.4487C83.3766 30.63 82.5541 29.8726 81.7607 30.2125L80.3004 30.8382C80.0103 30.9625 79.6802 30.939 79.398 30.7976C78.2786 30.2366 77.0151 29.9209 75.6777 29.9209C71.0857 29.9209 67.363 33.6435 67.363 38.2356C67.363 42.8277 71.0857 46.5503 75.6777 46.5503C80.2698 46.5503 83.9924 42.8277 83.9924 38.2356C83.9924 36.6181 83.5306 35.1086 82.7316 33.8315Z" fill="#FCFCFC"/>
<path d="M80.3004 30.8382L79.9066 29.919L80.3004 30.8382ZM79.398 30.7976L78.95 31.6916L79.398 30.7976ZM82.6097 32.9245L81.6613 32.6075L82.6097 32.9245ZM82.7316 33.8315L83.5793 33.3011L82.7316 33.8315ZM83.103 31.4487L82.1545 31.1317L83.103 31.4487ZM82.1545 31.1317L81.6613 32.6075L83.5582 33.2415L84.0514 31.7657L82.1545 31.1317ZM80.6942 31.7574L82.1545 31.1317L81.3669 29.2933L79.9066 29.919L80.6942 31.7574ZM75.6777 30.9209C76.856 30.9209 77.9665 31.1988 78.95 31.6916L79.846 29.9036C78.5908 29.2745 77.1741 28.9209 75.6777 28.9209V30.9209ZM68.363 38.2356C68.363 34.1958 71.6379 30.9209 75.6777 30.9209V28.9209C70.5334 28.9209 66.363 33.0912 66.363 38.2356H68.363ZM75.6777 45.5503C71.6379 45.5503 68.363 42.2754 68.363 38.2356H66.363C66.363 43.38 70.5334 47.5503 75.6777 47.5503V45.5503ZM82.9924 38.2356C82.9924 42.2754 79.7175 45.5503 75.6777 45.5503V47.5503C80.8221 47.5503 84.9924 43.38 84.9924 38.2356H82.9924ZM81.8838 34.3619C82.5863 35.4846 82.9924 36.8111 82.9924 38.2356H84.9924C84.9924 36.4252 84.4749 34.7325 83.5793 33.3011L81.8838 34.3619ZM79.9066 29.919C79.9101 29.9175 79.9085 29.9194 79.8982 29.9189C79.8869 29.9183 79.8682 29.9147 79.846 29.9036L78.95 31.6916C79.4657 31.9501 80.1043 32.0101 80.6942 31.7574L79.9066 29.919ZM81.6613 32.6075C81.4549 33.225 81.5734 33.8658 81.8838 34.3619L83.5793 33.3011C83.566 33.2798 83.5606 33.2613 83.559 33.2499C83.5576 33.2396 83.5594 33.2378 83.5582 33.2415L81.6613 32.6075ZM84.0514 31.7657C84.5986 30.1284 82.9537 28.6135 81.3669 29.2933L82.1545 31.1317L82.1545 31.1317L84.0514 31.7657Z" fill="#474747" mask="url(#path-24-inside-5_549_2434)"/>
<path d="M71.9624 37.4956H77.0307" stroke="#474747" stroke-linecap="round"/>
<path d="M71.9648 42.2754H79.2931" stroke="#474747" stroke-linecap="round"/>
<path d="M71.9648 35.2754H79.2931" stroke="#474747" stroke-linecap="round"/>
<path d="M71.9648 39.9421L77.958 39.8622" stroke="#474747" stroke-linecap="round"/>
<path d="M66.7399 32.078C67.0958 31.6558 67.0421 31.0249 66.6198 30.6689C66.1975 30.313 65.5666 30.3667 65.2107 30.789L66.7399 32.078ZM61.1901 38.6616L66.7399 32.078L65.2107 30.789L59.6609 37.3726L61.1901 38.6616Z" fill="#D37F7F"/>
<path d="M59.7818 39.3474L59.2516 38.9005L59.6743 37.3838L61.2125 38.6805L59.7818 39.3474Z" fill="#D9D9D9"/>
<path d="M59.6496 39.4761C59.5287 39.6195 59.3144 39.6378 59.1709 39.5169C59.0275 39.396 59.0092 39.1816 59.1302 39.0382L59.2528 38.8927L59.7723 39.3306L59.6496 39.4761Z" fill="#D37F7F"/>
<g filter="url(#filter1_d_549_2434)">
<path d="M30.5 26.5C30.5 25.9477 30.9477 25.5 31.5 25.5H57.5C58.0523 25.5 58.5 25.9477 58.5 26.5V63.5C58.5 64.0523 58.0523 64.5 57.5 64.5H31.5C30.9477 64.5 30.5 64.0523 30.5 63.5V26.5Z" fill="#E8F3FF"/>
<path d="M31 26.5C31 26.2239 31.2239 26 31.5 26H57.5C57.7761 26 58 26.2239 58 26.5V63.5C58 63.7761 57.7761 64 57.5 64H31.5C31.2239 64 31 63.7761 31 63.5V26.5Z" stroke="#555555"/>
</g>
<line x1="34.6765" y1="30.5" x2="53.6765" y2="30.5" stroke="#555555" stroke-linecap="round"/>
<line x1="34.6765" y1="34.5" x2="53.6765" y2="34.5" stroke="#555555" stroke-linecap="round"/>
<line x1="39.6765" y1="38.5" x2="48.6765" y2="38.5" stroke="#555555" stroke-linecap="round"/>
<line x1="37.6763" y1="42.5" x2="51.6763" y2="42.5" stroke="#555555" stroke-linecap="round"/>
<line x1="35.6763" y1="46.5" x2="52.6763" y2="46.5" stroke="#555555" stroke-linecap="round"/>
<line x1="34.6763" y1="50.5" x2="53.6763" y2="50.5" stroke="#555555" stroke-linecap="round"/>
<line x1="34.6763" y1="54.5" x2="53.6763" y2="54.5" stroke="#555555" stroke-linecap="round"/>
<line x1="37.6719" y1="58.2559" x2="50.6719" y2="58.2559" stroke="#555555" stroke-linecap="round"/>
<rect x="32.9526" y="33.1526" width="17.2493" height="2.74207" fill="#F0F87F" fill-opacity="0.4"/>
<rect x="36.9526" y="41.1526" width="17.2493" height="2.74207" fill="#F0F87F" fill-opacity="0.4"/>
<path d="M42.3716 40.1563L42.3716 40.1563L46.5179 36.8437L46.3255 36.6841L46.5181 36.8434L46.518 36.8436C46.5506 36.8043 46.584 36.7577 46.6073 36.7056C46.6291 36.6568 46.657 36.5695 46.6255 36.4704C46.5905 36.3601 46.505 36.3032 46.4393 36.278C46.3782 36.2547 46.3157 36.25 46.267 36.25H45.8675C45.6986 36.25 45.5487 36.3192 45.443 36.455C45.4429 36.4552 45.4428 36.4553 45.4426 36.4555L44.5 37.6593L43.5574 36.4555C43.5572 36.4553 43.5571 36.4552 43.557 36.455C43.4513 36.3192 43.3014 36.25 43.1325 36.25H42.733C42.6843 36.25 42.6218 36.2547 42.5607 36.278C42.495 36.3032 42.4095 36.3601 42.3745 36.4704C42.343 36.5695 42.3709 36.6568 42.3927 36.7056C42.4159 36.7576 42.4494 36.8043 42.4819 36.8435C42.482 36.8436 42.482 36.8436 42.4821 36.8437L43.7986 38.4356L42.3716 40.1563ZM45.2014 38.4356L45.0692 38.2763L44.8768 38.4358L45.0694 38.5952L45.2014 38.4356ZM46.271 36.75C46.2773 36.7502 46.2802 36.7505 46.2801 36.7506C46.2801 36.7506 46.2772 36.7502 46.272 36.7488L46.271 36.75ZM46.1516 36.5C46.1517 36.4996 46.1518 36.4994 46.1518 36.4994C46.1518 36.4994 46.1517 36.4996 46.1514 36.5H46.1516ZM42.8484 36.5H42.8486C42.8483 36.4996 42.8482 36.4994 42.8482 36.4994C42.8482 36.4994 42.8483 36.4996 42.8484 36.5ZM42.728 36.7488C42.7228 36.7502 42.7199 36.7506 42.7199 36.7506C42.7198 36.7505 42.7227 36.7502 42.729 36.75L42.728 36.7488ZM42.6177 40.2513L42.6187 40.25C42.6123 40.2499 42.6094 40.2495 42.6094 40.2494C42.6094 40.2494 42.6124 40.2498 42.6177 40.2513ZM42.738 40.5C42.7378 40.5004 42.7377 40.5006 42.7377 40.5006C42.7378 40.5006 42.7379 40.5004 42.7381 40.5H42.738ZM44.6591 39.0089L44.5 38.8068L44.3409 39.0089L44.5 39.211L44.6591 39.0089ZM45.7473 40.3912L45.5498 40.5445C45.55 40.5448 45.5502 40.545 45.5504 40.5453L45.5509 40.5459L45.7473 40.3912ZM43.4502 40.5445L43.2527 40.3912L43.4491 40.5459L43.4496 40.5453C43.4498 40.545 43.45 40.5448 43.4502 40.5445ZM46.262 40.5H46.2619C46.2621 40.5004 46.2622 40.5006 46.2623 40.5006C46.2623 40.5006 46.2622 40.5004 46.262 40.5ZM46.3813 40.25L46.3823 40.2513C46.3875 40.2498 46.3905 40.2494 46.3906 40.2494C46.3906 40.2495 46.3878 40.2498 46.3813 40.25ZM44.5 38.0649L44.6588 37.8621L44.5 38.0649Z" fill="#D37F7F" stroke="#D37F7F" stroke-width="0.5"/>
<path d="M42.3716 52.1563L42.3716 52.1563L46.5179 48.8437L46.3255 48.6841L46.5181 48.8434L46.518 48.8436C46.5506 48.8043 46.584 48.7577 46.6073 48.7056C46.6291 48.6568 46.657 48.5695 46.6255 48.4704C46.5905 48.3601 46.505 48.3032 46.4393 48.278C46.3782 48.2547 46.3157 48.25 46.267 48.25H45.8675C45.6986 48.25 45.5487 48.3192 45.443 48.455C45.4429 48.4552 45.4428 48.4553 45.4426 48.4555L44.5 49.6593L43.5574 48.4555C43.5572 48.4553 43.5571 48.4552 43.557 48.455C43.4513 48.3192 43.3014 48.25 43.1325 48.25H42.733C42.6843 48.25 42.6218 48.2547 42.5607 48.278C42.495 48.3032 42.4095 48.3601 42.3745 48.4704C42.343 48.5695 42.3709 48.6568 42.3927 48.7056C42.4159 48.7576 42.4494 48.8043 42.4819 48.8435C42.482 48.8436 42.482 48.8436 42.4821 48.8437L43.7986 50.4356L42.3716 52.1563ZM45.2014 50.4356L45.0692 50.2763L44.8768 50.4358L45.0694 50.5952L45.2014 50.4356ZM46.271 48.75C46.2773 48.7502 46.2802 48.7505 46.2801 48.7506C46.2801 48.7506 46.2772 48.7502 46.272 48.7488L46.271 48.75ZM46.1516 48.5C46.1517 48.4996 46.1518 48.4994 46.1518 48.4994C46.1518 48.4994 46.1517 48.4996 46.1514 48.5H46.1516ZM42.8484 48.5H42.8486C42.8483 48.4996 42.8482 48.4994 42.8482 48.4994C42.8482 48.4994 42.8483 48.4996 42.8484 48.5ZM42.728 48.7488C42.7228 48.7502 42.7199 48.7506 42.7199 48.7506C42.7198 48.7505 42.7227 48.7502 42.729 48.75L42.728 48.7488ZM42.6177 52.2513L42.6187 52.25C42.6123 52.2499 42.6094 52.2495 42.6094 52.2494C42.6094 52.2494 42.6124 52.2498 42.6177 52.2513ZM42.738 52.5C42.7378 52.5004 42.7377 52.5006 42.7377 52.5006C42.7378 52.5006 42.7379 52.5004 42.7381 52.5H42.738ZM44.6591 51.0089L44.5 50.8068L44.3409 51.0089L44.5 51.211L44.6591 51.0089ZM45.7473 52.3912L45.5498 52.5445C45.55 52.5448 45.5502 52.545 45.5504 52.5453L45.5509 52.5459L45.7473 52.3912ZM43.4502 52.5445L43.2527 52.3912L43.4491 52.5459L43.4496 52.5453C43.4498 52.545 43.45 52.5448 43.4502 52.5445ZM46.262 52.5H46.2619C46.2621 52.5004 46.2622 52.5006 46.2623 52.5006C46.2623 52.5006 46.2622 52.5004 46.262 52.5ZM46.3813 52.25L46.3823 52.2513C46.3875 52.2498 46.3905 52.2494 46.3906 52.2494C46.3906 52.2495 46.3878 52.2498 46.3813 52.25ZM44.5 50.0649L44.6588 49.8621L44.5 50.0649Z" fill="#D37F7F" stroke="#D37F7F" stroke-width="0.5"/>
<g filter="url(#filter2_d_549_2434)">
<rect x="19.9392" y="32.4644" width="8.23376" height="6.24231" transform="rotate(12.0234 19.9392 32.4644)" fill="#FCF5B6"/>
</g>
<path d="M20.3609 30.1781L28.6144 31.9359C27.7796 35.8625 27.2243 38.7138 26.5901 40.2633L18.4384 38.5272C18.4384 38.5272 18.741 37.7562 18.9574 36.9179C19.1737 36.0796 20.3609 30.1781 20.3609 30.1781Z" fill="#FCF5B6"/>
<line x1="21.7849" y1="32.762" x2="26.8662" y2="33.8373" stroke="#777777" stroke-width="0.5" stroke-linecap="round"/>
<line x1="21.3671" y1="34.7178" x2="26.4485" y2="35.7931" stroke="#777777" stroke-width="0.5" stroke-linecap="round"/>
<line x1="20.9513" y1="36.6769" x2="23.242" y2="37.1877" stroke="#777777" stroke-width="0.5" stroke-linecap="round"/>
<g filter="url(#filter3_d_549_2434)">
<path d="M67.4953 50.0797C68.0198 50.0641 68.4575 50.4766 68.4731 51.001L68.5325 53.0002C68.5481 53.5246 68.1355 53.9624 67.6111 53.9779L57.6655 54.2733L57.5497 50.375L67.4953 50.0797Z" fill="#F0F87F" stroke="#E0E875" stroke-width="0.1"/>
<path d="M54.2676 51.7962L53.5868 52.956C54.0941 53.0824 54.6061 53.0867 55.1904 53.019L55.1533 51.7701L54.2676 51.7962Z" fill="#F0F87F"/>
<path fill-rule="evenodd" clip-rule="evenodd" d="M54.9915 52.9975L57.6168 54.3246L57.4981 50.3265L54.9562 51.8071L54.9915 52.9975Z" fill="#474747"/>
<g filter="url(#filter4_d_549_2434)">
<path d="M53.934 58.7908C53.3649 59.7374 53.671 60.9662 54.6177 61.5353C55.5644 62.1044 56.7932 61.7983 57.3622 60.8516L58.8073 58.4477L55.3791 56.3868L53.934 58.7908Z" fill="#F0F87F"/>
<path d="M53.9768 58.8165C53.422 59.7395 53.7204 60.9376 54.6435 61.4925C55.5665 62.0473 56.7645 61.7489 57.3194 60.8258L58.7387 58.4648L55.3962 56.4554L53.9768 58.8165Z" stroke="#E0E875" stroke-width="0.1"/>
</g>
</g>
<rect x="6.60596" y="63.0743" width="17.1685" height="18.4337" rx="0.5" transform="rotate(-7.47514 6.60596 63.0743)" fill="#F2F2F2" stroke="#555555"/>
<path d="M12.5692 66.1688C12.5692 67.0383 11.7984 67.777 10.8041 67.777C9.80985 67.777 9.03906 67.0383 9.03906 66.1688C9.03906 65.2993 9.80985 64.5605 10.8041 64.5605C11.7984 64.5605 12.5692 65.2993 12.5692 66.1688Z" stroke="#555555" stroke-width="0.5"/>
<path d="M21.5692 65.1688C21.5692 66.0383 20.7984 66.777 19.8041 66.777C18.8099 66.777 18.0391 66.0383 18.0391 65.1688C18.0391 64.2993 18.8099 63.5605 19.8041 63.5605C20.7984 63.5605 21.5692 64.2993 21.5692 65.1688Z" stroke="#555555" stroke-width="0.5"/>
<path d="M15.816 64.2754C15.9475 64.4232 16.21 64.8449 16.424 64.906C16.5338 64.9374 16.3029 65.1019 16.2227 65.1833C16.0511 65.3574 15.8151 65.5343 15.7051 65.7543" stroke="#555555" stroke-width="0.5" stroke-linecap="round"/>
<path d="M17.5444 69.775C18.3835 69.5978 19.1971 69.3665 20.056 69.4851C20.2956 69.5182 20.5353 69.5568 20.7702 69.609" stroke="#555555" stroke-width="0.5" stroke-linecap="round"/>
<path d="M22.2643 68.2332L22.1458 69.2056" stroke="#555555" stroke-width="0.5" stroke-linecap="round"/>
<path d="M21.9798 70.1068C21.9589 70.1665 21.9655 70.0837 21.9561 70.0581C21.9266 69.9783 21.8516 69.9485 21.7848 70.0199C21.6691 70.1434 21.7763 70.3181 21.8612 70.4152" stroke="#555555" stroke-width="0.5" stroke-linecap="round"/>
<path d="M17.1472 68.4186C18.1578 68.2701 19.2308 68.0197 20.2607 68.0883" stroke="#555555" stroke-width="0.5" stroke-linecap="round"/>
<path d="M13.1943 65.003C13.5335 65.1302 14.1405 64.9503 14.4943 64.9087C14.6139 64.8946 14.7637 64.8848 14.8821 64.851C15.1388 64.7777 15.4283 64.8143 15.6946 64.8143" stroke="#555555" stroke-width="0.5" stroke-linecap="round"/>
<path d="M12.2878 70.2012C12.1859 70.151 12.1439 70.0277 12.1941 69.9258C12.2443 69.8239 12.3675 69.7819 12.4695 69.8321L12.8879 70.038L12.7062 70.4071L12.2878 70.2012Z" fill="#474747"/>
<path d="M13.5306 71.6313L14.3659 69.934L24.3189 74.8323C24.7876 75.063 24.9805 75.6299 24.7499 76.0986C24.5192 76.5673 23.9523 76.7602 23.4836 76.5296L13.5306 71.6313Z" fill="#474747" stroke="#DFDFDF" stroke-width="0.1"/>
<path d="M12.5886 70.362L12.7797 69.9736L14.343 69.867L13.4636 71.654L12.5886 70.362Z" fill="#A1A1A1"/>
<rect x="46.2993" y="10.605" width="17.1685" height="13.8573" rx="0.5" transform="rotate(6.19621 46.2993 10.605)" fill="#F2F2F2" stroke="#555555"/>
<mask id="path-70-inside-6_549_2434" fill="white">
<path fill-rule="evenodd" clip-rule="evenodd" d="M50.8333 17.6099C52.122 17.6099 53.1667 16.5779 53.1667 15.3049C53.1667 15.1084 53.1418 14.9177 53.0949 14.7356L53.4574 13.2942L52.0094 13.3138C51.6641 13.1143 51.2622 13 50.8333 13C49.5447 13 48.5 14.032 48.5 15.3049C48.5 16.5779 49.5447 17.6099 50.8333 17.6099Z"/>
</mask>
<path fill-rule="evenodd" clip-rule="evenodd" d="M50.8333 17.6099C52.122 17.6099 53.1667 16.5779 53.1667 15.3049C53.1667 15.1084 53.1418 14.9177 53.0949 14.7356L53.4574 13.2942L52.0094 13.3138C51.6641 13.1143 51.2622 13 50.8333 13C49.5447 13 48.5 14.032 48.5 15.3049C48.5 16.5779 49.5447 17.6099 50.8333 17.6099Z" fill="#FCFCFC"/>
<path d="M53.0949 14.7356L52.61 14.6136L52.579 14.737L52.6107 14.8601L53.0949 14.7356ZM53.4574 13.2942L53.9423 13.4162L54.1009 12.7855L53.4507 12.7943L53.4574 13.2942ZM52.0094 13.3138L51.7593 13.7467L51.8785 13.8156L52.0162 13.8137L52.0094 13.3138ZM52.6667 15.3049C52.6667 16.296 51.8516 17.1099 50.8333 17.1099V18.1099C52.3923 18.1099 53.6667 16.8598 53.6667 15.3049H52.6667ZM52.6107 14.8601C52.6472 15.0019 52.6667 15.1508 52.6667 15.3049H53.6667C53.6667 15.066 53.6364 14.8334 53.5792 14.611L52.6107 14.8601ZM52.9725 13.1723L52.61 14.6136L53.5798 14.8575L53.9423 13.4162L52.9725 13.1723ZM52.0162 13.8137L53.4642 13.7942L53.4507 12.7943L52.0027 12.8138L52.0162 13.8137ZM50.8333 13.5C51.1724 13.5 51.4882 13.5901 51.7593 13.7467L52.2595 12.8808C51.84 12.6385 51.3521 12.5 50.8333 12.5V13.5ZM49 15.3049C49 14.3138 49.815 13.5 50.8333 13.5V12.5C49.2743 12.5 48 13.7501 48 15.3049H49ZM50.8333 17.1099C49.815 17.1099 49 16.296 49 15.3049H48C48 16.8598 49.2743 18.1099 50.8333 18.1099V17.1099Z" fill="#80C25F" mask="url(#path-70-inside-6_549_2434)"/>
<g clip-path="url(#clip1_549_2434)">
<path d="M52.07 14.7057L50.425 16.3307L49.4333 15.3511L49.76 15.0284L50.425 15.6853L51.7433 14.3831L52.07 14.7057Z" fill="#80C25F"/>
</g>
<mask id="mask0_549_2434" style="mask-type:alpha" maskUnits="userSpaceOnUse" x="55" y="19" width="7" height="6">
<rect width="5" height="4.61538" transform="matrix(-0.972343 -0.233556 -0.233556 0.972343 61.304 20.2727)" fill="#D9D9D9"/>
</mask>
<g mask="url(#mask0_549_2434)">
<path d="M58.7711 22.4331L58.3612 21.8204L57.7177 22.1801L57.497 21.8502L58.1404 21.4905L57.7305 20.8779L58.077 20.6842L58.4869 21.2969L59.1304 20.9372L59.3511 21.2671L58.7076 21.6268L59.1176 22.2395L58.7711 22.4331ZM59.9108 24.2891L60.7193 20.9233C60.744 20.8205 60.7254 20.7229 60.6637 20.6306C60.6019 20.5383 60.5154 20.4788 60.4039 20.452L57.1628 19.6735C57.0514 19.6467 56.9472 19.6604 56.8503 19.7146C56.7533 19.7688 56.6925 19.8473 56.6678 19.9501L56.1288 22.194C56.1041 22.2969 56.1227 22.3944 56.1844 22.4867C56.2462 22.579 56.3327 22.6385 56.4442 22.6653L59.2802 23.3465L59.9108 24.2891ZM59.5422 23.0139L56.534 22.2913L57.073 20.0475L60.3141 20.826L59.7246 23.2802L59.5422 23.0139Z" fill="#D37F7F"/>
</g>
</g>
<defs>
<filter id="filter0_d_549_2434" x="40.8049" y="45.2654" width="50.9214" height="49.0225" filterUnits="userSpaceOnUse" color-interpolation-filters="sRGB">
<feFlood flood-opacity="0" result="BackgroundImageFix"/>
<feColorMatrix in="SourceAlpha" type="matrix" values="0 0 0 0 0 0 0 0 0 0 0 0 0 0 0 0 0 0 127 0" result="hardAlpha"/>
<feOffset dy="2"/>
<feGaussianBlur stdDeviation="4"/>
<feComposite in2="hardAlpha" operator="out"/>
<feColorMatrix type="matrix" values="0 0 0 0 0 0 0 0 0 0 0 0 0 0 0 0 0 0 0.25 0"/>
<feBlend mode="normal" in2="BackgroundImageFix" result="effect1_dropShadow_549_2434"/>
<feBlend mode="normal" in="SourceGraphic" in2="effect1_dropShadow_549_2434" result="shape"/>
</filter>
<filter id="filter1_d_549_2434" x="29.5" y="25.5" width="30" height="41" filterUnits="userSpaceOnUse" color-interpolation-filters="sRGB">
<feFlood flood-opacity="0" result="BackgroundImageFix"/>
<feColorMatrix in="SourceAlpha" type="matrix" values="0 0 0 0 0 0 0 0 0 0 0 0 0 0 0 0 0 0 127 0" result="hardAlpha"/>
<feOffset dy="1"/>
<feGaussianBlur stdDeviation="0.5"/>
<feComposite in2="hardAlpha" operator="out"/>
<feColorMatrix type="matrix" values="0 0 0 0 0 0 0 0 0 0 0 0 0 0 0 0 0 0 0.25 0"/>
<feBlend mode="normal" in2="BackgroundImageFix" result="effect1_dropShadow_549_2434"/>
<feBlend mode="normal" in="SourceGraphic" in2="effect1_dropShadow_549_2434" result="shape"/>
</filter>
<filter id="filter2_d_549_2434" x="17.6389" y="31.9644" width="11.3535" height="9.82056" filterUnits="userSpaceOnUse" color-interpolation-filters="sRGB">
<feFlood flood-opacity="0" result="BackgroundImageFix"/>
<feColorMatrix in="SourceAlpha" type="matrix" values="0 0 0 0 0 0 0 0 0 0 0 0 0 0 0 0 0 0 127 0" result="hardAlpha"/>
<feOffset dy="0.5"/>
<feGaussianBlur stdDeviation="0.5"/>
<feComposite in2="hardAlpha" operator="out"/>
<feColorMatrix type="matrix" values="0 0 0 0 0 0 0 0 0 0 0 0 0 0 0 0 0 0 0.2 0"/>
<feBlend mode="normal" in2="BackgroundImageFix" result="effect1_dropShadow_549_2434"/>
<feBlend mode="normal" in="SourceGraphic" in2="effect1_dropShadow_549_2434" result="shape"/>
</filter>
<filter id="filter3_d_549_2434" x="52.5125" y="50" width="17.0996" height="13.8215" filterUnits="userSpaceOnUse" color-interpolation-filters="sRGB">
<feFlood flood-opacity="0" result="BackgroundImageFix"/>
<feColorMatrix in="SourceAlpha" type="matrix" values="0 0 0 0 0 0 0 0 0 0 0 0 0 0 0 0 0 0 127 0" result="hardAlpha"/>
<feOffset dy="1"/>
<feGaussianBlur stdDeviation="0.5"/>
<feComposite in2="hardAlpha" operator="out"/>
<feColorMatrix type="matrix" values="0 0 0 0 0 0 0 0 0 0 0 0 0 0 0 0 0 0 0.4 0"/>
<feBlend mode="normal" in2="BackgroundImageFix" result="effect1_dropShadow_549_2434"/>
<feBlend mode="normal" in="SourceGraphic" in2="effect1_dropShadow_549_2434" result="shape"/>
</filter>
<filter id="filter4_d_549_2434" x="52.6477" y="56.3867" width="7.15967" height="7.43481" filterUnits="userSpaceOnUse" color-interpolation-filters="sRGB">
<feFlood flood-opacity="0" result="BackgroundImageFix"/>
<feColorMatrix in="SourceAlpha" type="matrix" values="0 0 0 0 0 0 0 0 0 0 0 0 0 0 0 0 0 0 127 0" result="hardAlpha"/>
<feOffset dy="1"/>
<feGaussianBlur stdDeviation="0.5"/>
<feComposite in2="hardAlpha" operator="out"/>
<feColorMatrix type="matrix" values="0 0 0 0 0 0 0 0 0 0 0 0 0 0 0 0 0 0 0.4 0"/>
<feBlend mode="normal" in2="BackgroundImageFix" result="effect1_dropShadow_549_2434"/>
<feBlend mode="normal" in="SourceGraphic" in2="effect1_dropShadow_549_2434" result="shape"/>
</filter>
<clipPath id="clip0_549_2434">
<rect width="88" height="90" fill="white" transform="translate(0.5)"/>
</clipPath>
<clipPath id="clip1_549_2434">
<rect width="2.66667" height="2" fill="white" transform="translate(49.5 14.3334)"/>
</clipPath>
</defs>
</svg>
