<svg width="88" height="90" viewBox="0 0 88 90" fill="none" xmlns="http://www.w3.org/2000/svg">
<g filter="url(#filter0_d_549_2436)">
<rect x="22.5" y="16.5" width="43" height="57" rx="1.09091" fill="#C8E2FF"/>
<rect x="23.0455" y="17.0455" width="41.9091" height="55.9091" rx="0.545455" stroke="#393939" stroke-width="1.09091"/>
</g>
<path d="M28.1816 24.4822H57.9273" stroke="#393939" stroke-width="1.09091" stroke-linecap="round"/>
<path d="M28.1816 27.7549H57.9273" stroke="#393939" stroke-width="1.09091" stroke-linecap="round"/>
<path d="M35.7607 34.374H50.003" stroke="#393939" stroke-width="1.09091" stroke-linecap="round"/>
<path d="M32.729 37.6099H52.8263" stroke="#393939" stroke-width="1.09091" stroke-linecap="round"/>
<line x1="32.9338" y1="43.31" x2="54.061" y2="43.31" stroke="#6288D3" stroke-width="0.163636"/>
<line x1="33.636" y1="64.0886" x2="33.636" y2="42.5945" stroke="#6288D3" stroke-width="0.163636"/>
<line x1="53.5866" y1="64.0886" x2="53.5866" y2="42.5945" stroke="#6288D3" stroke-width="0.163636"/>
<line x1="32.9338" y1="63.6074" x2="54.061" y2="63.6074" stroke="#6288D3" stroke-width="0.163636"/>
<rect x="32.709" y="42.709" width="1.62868" height="1.66266" fill="white" stroke="#6288D3" stroke-width="0.327273"/>
<rect x="32.709" y="62.6082" width="1.62868" height="1.66266" fill="white" stroke="#6288D3" stroke-width="0.327273"/>
<rect x="52.6597" y="42.7088" width="1.62868" height="1.66266" fill="white" stroke="#6288D3" stroke-width="0.327273"/>
<path d="M53.1965 53.291C53.1965 58.7422 48.8532 63.1588 43.4985 63.1588C38.1438 63.1588 33.8006 58.7422 33.8006 53.291C33.8006 47.8398 38.1438 43.4231 43.4985 43.4231C48.8532 43.4231 53.1965 47.8398 53.1965 53.291Z" fill="#474747" stroke="#6288D3" stroke-width="0.163636"/>
<path d="M53.1149 53.291C53.1149 58.6983 48.8069 63.077 43.4988 63.077C38.1906 63.077 33.8826 58.6983 33.8826 53.291C33.8826 47.8836 38.1906 43.5049 43.4988 43.5049C48.8069 43.5049 53.1149 47.8836 53.1149 53.291Z" fill="#474747" stroke="#6288D3" stroke-width="0.327273"/>
<path d="M52.9759 65.4545V61.2507H53.798V65.4545H52.9759ZM51.3225 63.7692V62.9328H55.4545V63.7692H51.3225Z" fill="#393939"/>
<defs>
<filter id="filter0_d_549_2436" x="21.4091" y="16.5" width="45.1818" height="59.1818" filterUnits="userSpaceOnUse" color-interpolation-filters="sRGB">
<feFlood flood-opacity="0" result="BackgroundImageFix"/>
<feColorMatrix in="SourceAlpha" type="matrix" values="0 0 0 0 0 0 0 0 0 0 0 0 0 0 0 0 0 0 127 0" result="hardAlpha"/>
<feOffset dy="1.09091"/>
<feGaussianBlur stdDeviation="0.545455"/>
<feComposite in2="hardAlpha" operator="out"/>
<feColorMatrix type="matrix" values="0 0 0 0 0 0 0 0 0 0 0 0 0 0 0 0 0 0 0.25 0"/>
<feBlend mode="normal" in2="BackgroundImageFix" result="effect1_dropShadow_549_2436"/>
<feBlend mode="normal" in="SourceGraphic" in2="effect1_dropShadow_549_2436" result="shape"/>
</filter>
</defs>
</svg>
