<svg width="87" height="93" viewBox="0 0 87 93" fill="none" xmlns="http://www.w3.org/2000/svg">
<g clip-path="url(#clip0_577_3497)">
<path d="M15.7539 38.4583C15.819 38.5002 15.8835 38.543 15.9473 38.5872V40.219H17.6436C18.62 41.5035 19.2463 43.141 19.3467 44.9456H19.3398L18.6924 44.8635L18.7861 45.509L19.2949 49.0149L16.6426 49.3694L16.3545 49.4075L16.2471 49.678L15.25 52.177L11.2871 50.761L11.251 50.7483L11.2139 50.7405L11.0059 50.7073C10.5216 50.6417 10.0538 50.6696 9.62305 50.7239C9.37715 50.7549 9.13677 50.7952 8.91211 50.8333C8.68398 50.8719 8.47397 50.9079 8.27148 50.9338C7.86183 50.9864 7.53778 50.9901 7.26758 50.9133C7.10043 50.8658 6.93936 50.7821 6.7832 50.634L7.87207 49.2659L8.14844 48.9192L7.83398 48.6057L6.41406 47.1897L7.05273 45.6252L7.14746 45.3928L7.0166 45.179L5.50586 42.7063C5.68639 42.1463 5.92012 41.6158 6.2002 41.1223L8.66504 40.595L9.13086 40.4944L9.05078 40.0256L8.78711 38.4875L12.1592 39.592L12.3184 39.6448L12.4766 39.5901L15.7539 38.4583Z" fill="#D4EFD7" stroke="#393939" stroke-width="0.992957"/>
<line y1="-0.310299" x2="4.06892" y2="-0.310299" transform="matrix(0.991826 -0.127596 0.102093 0.994775 13.6077 41.396)" stroke="#393939" stroke-width="0.620598"/>
<line y1="-0.310299" x2="5.70961" y2="-0.310299" transform="matrix(0.927868 0.372908 -0.305309 0.952253 6.2749 41.396)" stroke="#393939" stroke-width="0.620598"/>
<line y1="-0.620598" x2="5.80166" y2="-0.620598" transform="matrix(0.938104 0.346354 -0.282537 0.959256 6.13013 42.771)" stroke="white" stroke-opacity="0.4" stroke-width="1.2412"/>
<line y1="-0.620598" x2="2.97862" y2="-0.620598" transform="matrix(0.327222 -0.944947 0.917308 0.398179 8.24609 47.595)" stroke="white" stroke-opacity="0.4" stroke-width="1.2412"/>
<line y1="-0.620598" x2="3.51648" y2="-0.620598" transform="matrix(0.986016 -0.16665 0.133623 0.991032 13.907 42.771)" stroke="white" stroke-opacity="0.4" stroke-width="1.2412"/>
<line y1="-0.620598" x2="2.80355" y2="-0.620598" transform="matrix(0.94379 0.330547 -0.269095 0.963113 10.0938 40.8767)" stroke="white" stroke-opacity="0.4" stroke-width="1.2412"/>
<line y1="-0.620598" x2="1.97806" y2="-0.620598" transform="matrix(0.96767 0.252219 -0.203578 0.979059 15.9585 45.2083)" stroke="white" stroke-opacity="0.4" stroke-width="1.2412"/>
<line y1="-0.620598" x2="1.37793" y2="-0.620598" transform="matrix(-0.999814 -0.019299 0.015397 -0.999881 14.9851 43.9661)" stroke="white" stroke-opacity="0.4" stroke-width="1.2412"/>
<line y1="-0.620598" x2="4.0916" y2="-0.620598" transform="matrix(0.621091 -0.783738 0.709453 0.704752 12.7881 50.4404)" stroke="white" stroke-opacity="0.4" stroke-width="1.2412"/>
<line y1="-0.620598" x2="3.64598" y2="-0.620598" transform="matrix(0.790968 -0.611857 0.525161 0.851002 9.2207 49.6699)" stroke="white" stroke-opacity="0.4" stroke-width="1.2412"/>
<line y1="-0.310299" x2="3.57566" y2="-0.310299" transform="matrix(0.660617 -0.750723 0.671649 0.740869 7.73169 50.6096)" stroke="#393939" stroke-width="0.620598"/>
<line y1="-0.310299" x2="3.94765" y2="-0.310299" transform="matrix(0.59132 -0.806437 0.736247 0.676714 11.5725 50.7786)" stroke="#393939" stroke-width="0.620598"/>
<line y1="-0.310299" x2="2.93252" y2="-0.310299" transform="matrix(-0.99345 0.11427 -0.0913773 -0.995816 17.6433 48.6003)" stroke="#393939" stroke-width="0.620598"/>
<path d="M16.5632 43.8252L19.1821 44.5866" stroke="#393939" stroke-width="0.620598"/>
<path d="M13.3216 45.722L13.4642 43.5753L15.002 43.5754" stroke="#393939" stroke-width="0.620598"/>
<g filter="url(#filter0_d_577_3497)">
<rect x="59.6201" y="31.9568" width="22.3707" height="23.6776" rx="1.2412" fill="#D2D0FE"/>
<rect x="60.2407" y="32.5774" width="21.1295" height="22.4364" rx="0.620598" stroke="#393939" stroke-width="1.2412"/>
</g>
<path d="M65.2659 46.4119H76.35" stroke="#393939" stroke-width="1.2412" stroke-linecap="round"/>
<path d="M65.2659 50.2993H68.5895" stroke="#393939" stroke-width="1.2412" stroke-linecap="round"/>
<path d="M73.021 50.2993H76.3447" stroke="#393939" stroke-width="1.2412" stroke-linecap="round"/>
<ellipse cx="70.8054" cy="40.0015" rx="4.07248" ry="3.77423" fill="#393939"/>
<g filter="url(#filter1_d_577_3497)">
<rect x="30.697" y="-0.0628662" width="22.3707" height="23.6776" rx="1.2412" fill="#EFCCCC"/>
<rect x="31.3176" y="0.557732" width="21.1295" height="22.4364" rx="0.620598" stroke="#393939" stroke-width="1.2412"/>
</g>
<path d="M36.3428 9.81238H47.4269" stroke="#393939" stroke-width="1.2412" stroke-linecap="round"/>
<path d="M36.3428 13.7H39.6664" stroke="#393939" stroke-width="1.2412" stroke-linecap="round"/>
<path d="M44.0979 13.7H47.4216" stroke="#393939" stroke-width="1.2412" stroke-linecap="round"/>
<g filter="url(#filter2_d_577_3497)">
<rect x="30.6968" y="64.6113" width="22.3707" height="23.6776" rx="1.2412" fill="#D4EFD7"/>
<rect x="31.3174" y="65.2319" width="21.1295" height="22.4364" rx="0.620598" stroke="#393939" stroke-width="1.2412"/>
</g>
<path d="M36.3425 70.3782H47.4267" stroke="#393939" stroke-width="1.2412" stroke-linecap="round"/>
<path d="M36.3425 74.2656H39.6662" stroke="#393939" stroke-width="1.2412" stroke-linecap="round"/>
<path d="M44.0977 74.2656H47.4213" stroke="#393939" stroke-width="1.2412" stroke-linecap="round"/>
<ellipse cx="41.8847" cy="80.825" rx="4.07248" ry="3.77423" fill="#393939"/>
<path d="M17.3213 56.7705C19.5964 60.8722 22.8718 64.3413 26.8193 66.8486V69.3105C21.7372 66.387 17.5916 62.0202 14.9385 56.7705H17.3213ZM68.6465 56.7705C65.9934 62.0202 61.8478 66.387 56.7656 69.3105V66.8486C60.7132 64.3413 63.9885 60.8722 66.2637 56.7705H68.6465ZM26.8193 19.6006C22.2928 22.4755 18.6498 26.6159 16.3857 31.5234H14.083C16.65 25.4524 21.1531 20.3991 26.8193 17.1396V19.6006ZM56.7656 17.1396C62.4319 20.3991 66.9349 25.4524 69.502 31.5234H67.1992C64.9351 26.6159 61.2922 22.4755 56.7656 19.6006V17.1396Z" fill="#D9D9D9"/>
</g>
<defs>
<filter id="filter0_d_577_3497" x="49.6906" y="24.5096" width="42.2297" height="43.5366" filterUnits="userSpaceOnUse" color-interpolation-filters="sRGB">
<feFlood flood-opacity="0" result="BackgroundImageFix"/>
<feColorMatrix in="SourceAlpha" type="matrix" values="0 0 0 0 0 0 0 0 0 0 0 0 0 0 0 0 0 0 127 0" result="hardAlpha"/>
<feOffset dy="2.48239"/>
<feGaussianBlur stdDeviation="4.96478"/>
<feComposite in2="hardAlpha" operator="out"/>
<feColorMatrix type="matrix" values="0 0 0 0 0 0 0 0 0 0 0 0 0 0 0 0 0 0 0.25 0"/>
<feBlend mode="normal" in2="BackgroundImageFix" result="effect1_dropShadow_577_3497"/>
<feBlend mode="normal" in="SourceGraphic" in2="effect1_dropShadow_577_3497" result="shape"/>
</filter>
<filter id="filter1_d_577_3497" x="20.7675" y="-7.51004" width="42.2297" height="43.5367" filterUnits="userSpaceOnUse" color-interpolation-filters="sRGB">
<feFlood flood-opacity="0" result="BackgroundImageFix"/>
<feColorMatrix in="SourceAlpha" type="matrix" values="0 0 0 0 0 0 0 0 0 0 0 0 0 0 0 0 0 0 127 0" result="hardAlpha"/>
<feOffset dy="2.48239"/>
<feGaussianBlur stdDeviation="4.96478"/>
<feComposite in2="hardAlpha" operator="out"/>
<feColorMatrix type="matrix" values="0 0 0 0 0 0 0 0 0 0 0 0 0 0 0 0 0 0 0.25 0"/>
<feBlend mode="normal" in2="BackgroundImageFix" result="effect1_dropShadow_577_3497"/>
<feBlend mode="normal" in="SourceGraphic" in2="effect1_dropShadow_577_3497" result="shape"/>
</filter>
<filter id="filter2_d_577_3497" x="20.7672" y="57.1642" width="42.2297" height="43.5366" filterUnits="userSpaceOnUse" color-interpolation-filters="sRGB">
<feFlood flood-opacity="0" result="BackgroundImageFix"/>
<feColorMatrix in="SourceAlpha" type="matrix" values="0 0 0 0 0 0 0 0 0 0 0 0 0 0 0 0 0 0 127 0" result="hardAlpha"/>
<feOffset dy="2.48239"/>
<feGaussianBlur stdDeviation="4.96478"/>
<feComposite in2="hardAlpha" operator="out"/>
<feColorMatrix type="matrix" values="0 0 0 0 0 0 0 0 0 0 0 0 0 0 0 0 0 0 0.25 0"/>
<feBlend mode="normal" in2="BackgroundImageFix" result="effect1_dropShadow_577_3497"/>
<feBlend mode="normal" in="SourceGraphic" in2="effect1_dropShadow_577_3497" result="shape"/>
</filter>
<clipPath id="clip0_577_3497">
<rect width="87" height="93" fill="white"/>
</clipPath>
</defs>
</svg>
