<svg width="96" height="94" viewBox="0 0 96 94" fill="none" xmlns="http://www.w3.org/2000/svg">
<g filter="url(#filter0_d_549_2434)">
<rect x="52.4729" y="61.937" width="28" height="24" rx="1" transform="rotate(-25.3851 52.4729 61.937)" fill="#D2D0FE"/>
<rect x="53.139" y="62.1744" width="27" height="23" rx="0.5" transform="rotate(-25.3851 53.139 62.1744)" stroke="#393939"/>
</g>
<line x1="65.4695" y1="69.1751" x2="79.169" y2="62.3252" stroke="#393939" stroke-width="0.5"/>
<path d="M59.9605 68.8278C59.7948 68.4785 59.9435 68.061 60.2928 67.8952L63.0156 66.6029C63.3648 66.4372 63.7824 66.5859 63.9481 66.9352L65.3712 69.9336C65.4405 70.0796 65.4572 70.2451 65.4183 70.4019L65.2409 71.1186C65.1905 71.3224 65.0512 71.4928 64.8616 71.5828L62.5612 72.6746C62.2119 72.8404 61.7944 72.6916 61.6287 72.3424L59.9605 68.8278Z" fill="#D2D0FE" stroke="#393939" stroke-width="0.6"/>
<path d="M64.348 70.7617L64.7605 71.6308L62.5612 72.6746C62.2119 72.8404 61.7944 72.6916 61.6287 72.3424L59.9605 68.8278C59.7948 68.4785 59.9435 68.061 60.2928 67.8952L63.0156 66.6029C63.3648 66.4372 63.7824 66.5859 63.9481 66.9352L65.3753 69.9421L64.4904 70.3621L64.2194 70.4907L64.348 70.7617Z" fill="#D2D0FE" stroke="#393939" stroke-width="0.6"/>
<rect x="66.1907" y="64.8343" width="5.45981" height="5.69053" rx="0.7" transform="rotate(-25.39 66.1907 64.8343)" fill="#D2D0FE" stroke="#393939" stroke-width="0.6"/>
<rect x="73.4861" y="61.4236" width="6.70176" height="5.4" rx="0.7" transform="rotate(-25.39 73.4861 61.4236)" fill="#D2D0FE" stroke="#393939" stroke-width="0.6"/>
<path d="M77.9667 62.6313L80.0613 59.6475L81.5557 62.796C81.7215 63.1453 81.5727 63.5628 81.2235 63.7285L76.4338 66.0018C76.0845 66.1676 75.667 66.0188 75.5013 65.6696L74.0051 62.5172L77.7016 62.7583L77.8699 62.7692L77.9667 62.6313Z" fill="#D2D0FE" stroke="#393939" stroke-width="0.6"/>
<rect x="14.3511" y="25.9289" width="27" height="23" rx="0.5" transform="rotate(15.5731 14.3511 25.9289)" fill="#D4EFD7" stroke="#393939"/>
<line x1="16.8478" y1="33.5913" x2="35.1503" y2="38.6922" stroke="#393939" stroke-linecap="round"/>
<line x1="15.7741" y1="37.4446" x2="34.0766" y2="42.5455" stroke="#393939" stroke-linecap="round"/>
<mask id="path-12-inside-1_549_2434" fill="white">
<path fill-rule="evenodd" clip-rule="evenodd" d="M86.6735 23.0187C86.5416 22.784 86.5128 22.5068 86.5753 22.2449C86.8187 21.2238 86.8716 20.1392 86.6999 19.0378C85.9924 14.5005 81.7407 11.3959 77.2035 12.1034C72.6662 12.8109 69.5616 17.0626 70.269 21.5998C70.9765 26.1371 75.2282 29.2417 79.7655 28.5342C81.4614 28.2698 82.9572 27.5102 84.1286 26.4256C84.3178 26.2504 84.5605 26.1411 84.8182 26.1331L86.7128 26.0741C87.4633 26.0507 87.9213 25.2393 87.5534 24.5847L86.6735 23.0187Z"/>
</mask>
<path fill-rule="evenodd" clip-rule="evenodd" d="M86.6735 23.0187C86.5416 22.784 86.5128 22.5068 86.5753 22.2449C86.8187 21.2238 86.8716 20.1392 86.6999 19.0378C85.9924 14.5005 81.7407 11.3959 77.2035 12.1034C72.6662 12.8109 69.5616 17.0626 70.269 21.5998C70.9765 26.1371 75.2282 29.2417 79.7655 28.5342C81.4614 28.2698 82.9572 27.5102 84.1286 26.4256C84.3178 26.2504 84.5605 26.1411 84.8182 26.1331L86.7128 26.0741C87.4633 26.0507 87.9213 25.2393 87.5534 24.5847L86.6735 23.0187Z" fill="#FCFCFC"/>
<path d="M84.1286 26.4256L84.808 27.1593L84.1286 26.4256ZM84.8182 26.1331L84.8494 27.1326L84.8182 26.1331ZM87.5534 24.5847L86.6817 25.0746L87.5534 24.5847ZM86.5753 22.2449L87.548 22.4768L86.5753 22.2449ZM86.6735 23.0187L85.8017 23.5086L86.6735 23.0187ZM85.7118 19.1919C85.8632 20.1626 85.8164 21.1161 85.6025 22.0129L87.548 22.4768C87.8211 21.3314 87.8801 20.1158 87.688 18.8837L85.7118 19.1919ZM77.3575 13.0914C81.3491 12.4691 85.0894 15.2003 85.7118 19.1919L87.688 18.8837C86.8954 13.8008 82.1323 10.3228 77.0494 11.1153L77.3575 13.0914ZM71.2571 21.4458C70.6347 17.4542 73.366 13.7138 77.3575 13.0914L77.0494 11.1153C71.9665 11.9079 68.4884 16.6709 69.281 21.7539L71.2571 21.4458ZM79.6114 27.5462C75.6199 28.1686 71.8795 25.4373 71.2571 21.4458L69.281 21.7539C70.0736 26.8368 74.8366 30.3149 79.9196 29.5223L79.6114 27.5462ZM83.4492 25.6918C82.4192 26.6455 81.1048 27.3133 79.6114 27.5462L79.9196 29.5223C81.8181 29.2263 83.4953 28.3748 84.808 27.1593L83.4492 25.6918ZM86.6817 25.0746L84.7871 25.1336L84.8494 27.1326L86.7439 27.0736L86.6817 25.0746ZM85.8017 23.5086L86.6817 25.0746L88.4252 24.0948L87.5453 22.5289L85.8017 23.5086ZM84.808 27.1593C84.8226 27.1458 84.8354 27.1385 84.8434 27.135C84.8508 27.1318 84.8527 27.1325 84.8494 27.1326L84.7871 25.1336C84.2637 25.1499 83.7964 25.3703 83.4492 25.6918L84.808 27.1593ZM86.7439 27.0736C88.245 27.0269 89.1609 25.4041 88.4252 24.0948L86.6817 25.0746L86.6817 25.0746L86.7439 27.0736ZM85.6025 22.0129C85.4881 22.4929 85.5337 23.0318 85.8017 23.5086L87.5453 22.5289C87.5469 22.5319 87.5453 22.5306 87.5443 22.5221C87.5432 22.5129 87.5431 22.4973 87.548 22.4768L85.6025 22.0129Z" fill="#474747" mask="url(#path-12-inside-1_549_2434)"/>
<path d="M74.3599 17.9658L81.6006 16.8368" stroke="#474747" stroke-linecap="round"/>
<path d="M74.822 20.9299L82.0628 19.8009" stroke="#474747" stroke-linecap="round"/>
<path d="M75.2842 23.8943L82.5249 22.7653" stroke="#474747" stroke-linecap="round"/>
<mask id="path-17-inside-2_549_2434" fill="white">
<path fill-rule="evenodd" clip-rule="evenodd" d="M14.3015 14.9765C14.3895 14.7318 14.3751 14.4638 14.2837 14.2203C14.0289 13.5416 13.8891 12.8032 13.8891 12.0309C13.8891 8.70012 16.4894 6 19.697 6C22.9046 6 25.5049 8.70012 25.5049 12.0309C25.5049 15.3616 22.9046 18.0618 19.697 18.0618C18.5444 18.0618 17.4702 17.7131 16.5669 17.1118C16.3457 16.9646 16.0818 16.8888 15.8182 16.9228L15.1164 17.0133C14.3749 17.1089 13.7945 16.3867 14.0475 15.6832L14.3015 14.9765Z"/>
</mask>
<path fill-rule="evenodd" clip-rule="evenodd" d="M14.3015 14.9765C14.3895 14.7318 14.3751 14.4638 14.2837 14.2203C14.0289 13.5416 13.8891 12.8032 13.8891 12.0309C13.8891 8.70012 16.4894 6 19.697 6C22.9046 6 25.5049 8.70012 25.5049 12.0309C25.5049 15.3616 22.9046 18.0618 19.697 18.0618C18.5444 18.0618 17.4702 17.7131 16.5669 17.1118C16.3457 16.9646 16.0818 16.8888 15.8182 16.9228L15.1164 17.0133C14.3749 17.1089 13.7945 16.3867 14.0475 15.6832L14.3015 14.9765Z" fill="#FCFCFC"/>
<path d="M16.5669 17.1118L17.121 16.2794L16.5669 17.1118ZM15.8182 16.9228L15.9461 17.9146L15.8182 16.9228ZM15.1164 17.0133L15.2443 18.0051L15.1164 17.0133ZM14.0475 15.6832L13.1064 15.3449L14.0475 15.6832ZM14.3015 14.9765L13.3605 14.6382L14.3015 14.9765ZM14.8891 12.0309C14.8891 12.6819 15.0069 13.3013 15.2199 13.8689L13.3475 14.5717C13.051 13.7819 12.8891 12.9245 12.8891 12.0309H14.8891ZM19.697 7C17.0769 7 14.8891 9.21655 14.8891 12.0309H12.8891C12.8891 8.18368 15.9019 5 19.697 5V7ZM24.5049 12.0309C24.5049 9.21655 22.3171 7 19.697 7V5C23.4921 5 26.5049 8.18368 26.5049 12.0309H24.5049ZM19.697 17.0618C22.3171 17.0618 24.5049 14.8452 24.5049 12.0309H26.5049C26.5049 15.8781 23.4921 19.0618 19.697 19.0618V17.0618ZM17.121 16.2794C17.8671 16.776 18.7498 17.0618 19.697 17.0618V19.0618C18.339 19.0618 17.0733 18.6502 16.0128 17.9443L17.121 16.2794ZM14.9885 16.0215L15.6904 15.931L15.9461 17.9146L15.2443 18.0051L14.9885 16.0215ZM15.2425 15.3148L14.9885 16.0215L13.1064 15.3449L13.3605 14.6382L15.2425 15.3148ZM16.0128 17.9443C15.9882 17.9279 15.9679 17.9201 15.9554 17.9168C15.9437 17.9137 15.9413 17.9152 15.9461 17.9146L15.6904 15.931C16.2288 15.8616 16.7314 16.02 17.121 16.2794L16.0128 17.9443ZM15.2443 18.0051C13.7613 18.1963 12.6006 16.752 13.1064 15.3449L14.9885 16.0215V16.0215L15.2443 18.0051ZM15.2199 13.8689C15.3821 14.3009 15.4221 14.8154 15.2425 15.3148L13.3605 14.6382C13.3589 14.6425 13.3607 14.6406 13.3604 14.6293C13.36 14.6174 13.3571 14.5974 13.3475 14.5717L15.2199 13.8689Z" fill="#474747" mask="url(#path-17-inside-2_549_2434)"/>
<path d="M18.0367 11.0324C17.9619 11.006 17.9583 10.9252 18.0259 10.7899C18.091 10.6639 18.2334 10.5323 18.453 10.3951C18.6749 10.256 18.9971 10.1864 19.4193 10.1864C19.9381 10.1864 20.3193 10.2832 20.563 10.4768C20.8067 10.6686 20.9286 10.9252 20.9286 11.2467C20.9286 11.5155 20.7271 11.8238 20.3242 12.1716C19.9236 12.5175 19.7233 12.8202 19.7233 13.0796V13.1444C19.7233 13.229 19.6691 13.2713 19.5605 13.2713H19.2492C19.1406 13.2713 19.0863 13.229 19.0863 13.1444V13.0401C19.0863 12.7224 19.2745 12.3962 19.651 12.0616C20.0298 11.7251 20.2192 11.4478 20.2192 11.2298C20.2192 11.0004 20.1504 10.8397 20.0129 10.7476C19.8754 10.6554 19.6859 10.6094 19.4447 10.6094C19.1792 10.6094 18.979 10.647 18.8438 10.7222C18.7111 10.7974 18.6098 10.8998 18.5398 11.0295C18.4843 11.1311 18.4059 11.164 18.3046 11.1282L18.0367 11.0324ZM19.1985 14.3147C19.09 14.3147 19.0357 14.2724 19.0357 14.1878V13.8438C19.0357 13.7592 19.09 13.7169 19.1985 13.7169H19.6039C19.7125 13.7169 19.7668 13.7592 19.7668 13.8438V14.1878C19.7668 14.2724 19.7125 14.3147 19.6039 14.3147H19.1985Z" fill="#474747"/>
<mask id="path-20-inside-3_549_2434" fill="white">
<path fill-rule="evenodd" clip-rule="evenodd" d="M17.6784 17.7805C17.9039 17.651 18.0666 17.4375 18.1547 17.1928C18.4002 16.5107 18.7719 15.8575 19.2721 15.2691C21.4295 12.7314 25.1595 12.3584 27.6033 14.436C30.0472 16.5136 30.2794 20.255 28.1221 22.7927C25.9648 25.3303 22.2348 25.7033 19.7909 23.6258C18.9127 22.8792 18.3201 21.9178 18.0214 20.8747C17.9482 20.6192 17.7962 20.3905 17.5734 20.2457L16.9801 19.8601C16.3532 19.4527 16.3788 18.5265 17.0271 18.1543L17.6784 17.7805Z"/>
</mask>
<path fill-rule="evenodd" clip-rule="evenodd" d="M17.6784 17.7805C17.9039 17.651 18.0666 17.4375 18.1547 17.1928C18.4002 16.5107 18.7719 15.8575 19.2721 15.2691C21.4295 12.7314 25.1595 12.3584 27.6033 14.436C30.0472 16.5136 30.2794 20.255 28.1221 22.7927C25.9648 25.3303 22.2348 25.7033 19.7909 23.6258C18.9127 22.8792 18.3201 21.9178 18.0214 20.8747C17.9482 20.6192 17.7962 20.3905 17.5734 20.2457L16.9801 19.8601C16.3532 19.4527 16.3788 18.5265 17.0271 18.1543L17.6784 17.7805Z" fill="#FCFCFC"/>
<path d="M18.0214 20.8747L18.9827 20.5993L18.0214 20.8747ZM17.5734 20.2457L18.1184 19.4072L17.5734 20.2457ZM16.9801 19.8601L16.4351 20.6985L16.9801 19.8601ZM17.0271 18.1543L17.525 19.0216L17.0271 18.1543ZM18.1547 17.1928L19.0956 17.5314L18.1547 17.1928ZM17.6784 17.7805L18.1763 18.6477L17.6784 17.7805ZM20.034 15.9168C19.6124 16.4128 19.3009 16.961 19.0956 17.5314L17.2137 16.8542C17.4994 16.0604 17.9314 15.3023 18.5102 14.6214L20.034 15.9168ZM26.9556 15.1979C24.9594 13.5008 21.8569 13.7726 20.034 15.9168L18.5102 14.6214C21.0021 11.6903 25.3596 11.216 28.251 13.6741L26.9556 15.1979ZM27.3602 22.1449C29.1831 20.0007 28.9519 16.8949 26.9556 15.1979L28.251 13.6741C31.1425 16.1322 31.3758 20.5092 28.884 23.4404L27.3602 22.1449ZM20.4386 22.8639C22.4349 24.561 25.5374 24.2892 27.3602 22.1449L28.884 23.4404C26.3922 26.3715 22.0346 26.8457 19.1432 24.3877L20.4386 22.8639ZM18.9827 20.5993C19.2295 21.461 19.7169 22.2503 20.4386 22.8639L19.1432 24.3877C18.1086 23.5081 17.4108 22.3747 17.06 21.15L18.9827 20.5993ZM17.525 19.0216L18.1184 19.4072L17.0285 21.0842L16.4351 20.6985L17.525 19.0216ZM18.1763 18.6477L17.525 19.0216L16.5293 17.2871L17.1806 16.9132L18.1763 18.6477ZM17.06 21.15C17.0519 21.1216 17.0415 21.1025 17.0341 21.0919C17.0272 21.082 17.0244 21.0815 17.0285 21.0842L18.1184 19.4072C18.5736 19.7031 18.8538 20.1493 18.9827 20.5993L17.06 21.15ZM16.4351 20.6985C15.1814 19.8837 15.2325 18.0315 16.5293 17.2871L17.525 19.0216L17.525 19.0216L16.4351 20.6985ZM19.0956 17.5314C18.9393 17.9656 18.6365 18.3835 18.1763 18.6477L17.1806 16.9132C17.1766 16.9155 17.1792 16.9151 17.1862 16.9064C17.1937 16.897 17.2045 16.8799 17.2137 16.8542L19.0956 17.5314Z" fill="#474747" mask="url(#path-20-inside-3_549_2434)"/>
<path d="M22.0367 18.0325C21.9619 18.0062 21.9583 17.9253 22.0259 17.79C22.091 17.664 22.2334 17.5324 22.453 17.3952C22.6749 17.2561 22.9971 17.1865 23.4193 17.1865C23.9381 17.1865 24.3193 17.2833 24.563 17.477C24.8067 17.6687 24.9286 17.9253 24.9286 18.2468C24.9286 18.5156 24.7271 18.8239 24.3242 19.1717C23.9236 19.5176 23.7233 19.8203 23.7233 20.0797V20.1446C23.7233 20.2292 23.6691 20.2715 23.5605 20.2715H23.2492C23.1406 20.2715 23.0863 20.2292 23.0863 20.1446V20.0402C23.0863 19.7225 23.2745 19.3964 23.651 19.0617C24.0298 18.7252 24.2192 18.4479 24.2192 18.2299C24.2192 18.0005 24.1504 17.8398 24.0129 17.7477C23.8754 17.6556 23.6859 17.6095 23.4447 17.6095C23.1792 17.6095 22.979 17.6471 22.8438 17.7223C22.7111 17.7975 22.6098 17.9 22.5398 18.0297C22.4843 18.1312 22.4059 18.1641 22.3046 18.1284L22.0367 18.0325ZM23.1985 21.3148C23.09 21.3148 23.0357 21.2725 23.0357 21.1879V20.8439C23.0357 20.7593 23.09 20.717 23.1985 20.717H23.6039C23.7125 20.717 23.7668 20.7593 23.7668 20.8439V21.1879C23.7668 21.2725 23.7125 21.3148 23.6039 21.3148H23.1985Z" fill="#474747"/>
<mask id="path-23-inside-4_549_2434" fill="white">
<path fill-rule="evenodd" clip-rule="evenodd" d="M22.3015 13.9765C22.3895 13.7318 22.3751 13.4638 22.2837 13.2203C22.0289 12.5416 21.8891 11.8032 21.8891 11.0309C21.8891 7.70012 24.4894 5 27.697 5C30.9046 5 33.5049 7.70012 33.5049 11.0309C33.5049 14.3616 30.9046 17.0618 27.697 17.0618C26.5444 17.0618 25.4702 16.7131 24.5669 16.1118C24.3457 15.9646 24.0818 15.8888 23.8182 15.9228L23.1164 16.0133C22.3749 16.1089 21.7945 15.3867 22.0475 14.6832L22.3015 13.9765Z"/>
</mask>
<path fill-rule="evenodd" clip-rule="evenodd" d="M22.3015 13.9765C22.3895 13.7318 22.3751 13.4638 22.2837 13.2203C22.0289 12.5416 21.8891 11.8032 21.8891 11.0309C21.8891 7.70012 24.4894 5 27.697 5C30.9046 5 33.5049 7.70012 33.5049 11.0309C33.5049 14.3616 30.9046 17.0618 27.697 17.0618C26.5444 17.0618 25.4702 16.7131 24.5669 16.1118C24.3457 15.9646 24.0818 15.8888 23.8182 15.9228L23.1164 16.0133C22.3749 16.1089 21.7945 15.3867 22.0475 14.6832L22.3015 13.9765Z" fill="#FCFCFC"/>
<path d="M24.5669 16.1118L25.121 15.2794L24.5669 16.1118ZM23.8182 15.9228L23.9461 16.9146L23.8182 15.9228ZM23.1164 16.0133L23.2443 17.0051L23.1164 16.0133ZM22.0475 14.6832L21.1064 14.3449L22.0475 14.6832ZM22.3015 13.9765L21.3605 13.6382L22.3015 13.9765ZM22.8891 11.0309C22.8891 11.6819 23.0069 12.3013 23.2199 12.8689L21.3475 13.5717C21.051 12.7819 20.8891 11.9245 20.8891 11.0309H22.8891ZM27.697 6C25.0769 6 22.8891 8.21655 22.8891 11.0309H20.8891C20.8891 7.18368 23.9019 4 27.697 4V6ZM32.5049 11.0309C32.5049 8.21655 30.3171 6 27.697 6V4C31.4921 4 34.5049 7.18368 34.5049 11.0309H32.5049ZM27.697 16.0618C30.3171 16.0618 32.5049 13.8452 32.5049 11.0309H34.5049C34.5049 14.8781 31.4921 18.0618 27.697 18.0618V16.0618ZM25.121 15.2794C25.8671 15.776 26.7498 16.0618 27.697 16.0618V18.0618C26.339 18.0618 25.0733 17.6502 24.0128 16.9443L25.121 15.2794ZM22.9885 15.0215L23.6904 14.931L23.9461 16.9146L23.2443 17.0051L22.9885 15.0215ZM23.2425 14.3148L22.9885 15.0215L21.1064 14.3449L21.3605 13.6382L23.2425 14.3148ZM24.0128 16.9443C23.9882 16.9279 23.9679 16.9201 23.9554 16.9168C23.9437 16.9137 23.9413 16.9152 23.9461 16.9146L23.6904 14.931C24.2288 14.8616 24.7314 15.02 25.121 15.2794L24.0128 16.9443ZM23.2443 17.0051C21.7613 17.1963 20.6006 15.752 21.1064 14.3449L22.9885 15.0215V15.0215L23.2443 17.0051ZM23.2199 12.8689C23.3821 13.3009 23.4221 13.8154 23.2425 14.3148L21.3605 13.6382C21.3589 13.6425 21.3607 13.6406 21.3604 13.6293C21.36 13.6174 21.3571 13.5974 21.3475 13.5717L23.2199 12.8689Z" fill="#474747" mask="url(#path-23-inside-4_549_2434)"/>
<path d="M26.0367 10.0324C25.9619 10.006 25.9583 9.92521 26.0259 9.78985C26.091 9.6639 26.2334 9.53231 26.453 9.39507C26.6749 9.25596 26.9971 9.1864 27.4193 9.1864C27.9381 9.1864 28.3193 9.28322 28.563 9.47685C28.8067 9.6686 28.9286 9.92521 28.9286 10.2467C28.9286 10.5155 28.7271 10.8238 28.3242 11.1716C27.9236 11.5175 27.7233 11.8202 27.7233 12.0796V12.1444C27.7233 12.229 27.6691 12.2713 27.5605 12.2713H27.2492C27.1406 12.2713 27.0863 12.229 27.0863 12.1444V12.0401C27.0863 11.7224 27.2745 11.3962 27.651 11.0616C28.0298 10.7251 28.2192 10.4478 28.2192 10.2298C28.2192 10.0004 28.1504 9.83967 28.0129 9.74756C27.8754 9.65544 27.6859 9.60938 27.4447 9.60938C27.1792 9.60938 26.979 9.64698 26.8438 9.72218C26.7111 9.79737 26.6098 9.89983 26.5398 10.0295C26.4843 10.1311 26.4059 10.164 26.3046 10.1282L26.0367 10.0324ZM27.1985 13.3147C27.09 13.3147 27.0357 13.2724 27.0357 13.1878V12.8438C27.0357 12.7592 27.09 12.7169 27.1985 12.7169H27.6039C27.7125 12.7169 27.7668 12.7592 27.7668 12.8438V13.1878C27.7668 13.2724 27.7125 13.3147 27.6039 13.3147H27.1985Z" fill="#474747"/>
<mask id="path-26-inside-5_549_2434" fill="white">
<path fill-rule="evenodd" clip-rule="evenodd" d="M87.7316 33.8315C87.5617 33.56 87.5082 33.2282 87.6097 32.9245L88.103 31.4487C88.3766 30.63 87.5541 29.8726 86.7607 30.2125L85.3004 30.8382C85.0103 30.9625 84.6802 30.939 84.398 30.7976C83.2786 30.2366 82.0151 29.9209 80.6777 29.9209C76.0857 29.9209 72.363 33.6435 72.363 38.2356C72.363 42.8277 76.0857 46.5503 80.6777 46.5503C85.2698 46.5503 88.9924 42.8277 88.9924 38.2356C88.9924 36.6181 88.5306 35.1086 87.7316 33.8315Z"/>
</mask>
<path fill-rule="evenodd" clip-rule="evenodd" d="M87.7316 33.8315C87.5617 33.56 87.5082 33.2282 87.6097 32.9245L88.103 31.4487C88.3766 30.63 87.5541 29.8726 86.7607 30.2125L85.3004 30.8382C85.0103 30.9625 84.6802 30.939 84.398 30.7976C83.2786 30.2366 82.0151 29.9209 80.6777 29.9209C76.0857 29.9209 72.363 33.6435 72.363 38.2356C72.363 42.8277 76.0857 46.5503 80.6777 46.5503C85.2698 46.5503 88.9924 42.8277 88.9924 38.2356C88.9924 36.6181 88.5306 35.1086 87.7316 33.8315Z" fill="#FCFCFC"/>
<path d="M85.3004 30.8382L84.9066 29.919L85.3004 30.8382ZM84.398 30.7976L83.95 31.6916L84.398 30.7976ZM87.6097 32.9245L86.6613 32.6075L87.6097 32.9245ZM87.7316 33.8315L88.5793 33.3011L87.7316 33.8315ZM88.103 31.4487L87.1545 31.1317L88.103 31.4487ZM87.1545 31.1317L86.6613 32.6075L88.5582 33.2415L89.0514 31.7657L87.1545 31.1317ZM85.6942 31.7574L87.1545 31.1317L86.3669 29.2933L84.9066 29.919L85.6942 31.7574ZM80.6777 30.9209C81.856 30.9209 82.9665 31.1988 83.95 31.6916L84.846 29.9036C83.5908 29.2745 82.1741 28.9209 80.6777 28.9209V30.9209ZM73.363 38.2356C73.363 34.1958 76.6379 30.9209 80.6777 30.9209V28.9209C75.5334 28.9209 71.363 33.0912 71.363 38.2356H73.363ZM80.6777 45.5503C76.6379 45.5503 73.363 42.2754 73.363 38.2356H71.363C71.363 43.38 75.5334 47.5503 80.6777 47.5503V45.5503ZM87.9924 38.2356C87.9924 42.2754 84.7175 45.5503 80.6777 45.5503V47.5503C85.8221 47.5503 89.9924 43.38 89.9924 38.2356H87.9924ZM86.8838 34.3619C87.5863 35.4846 87.9924 36.8111 87.9924 38.2356H89.9924C89.9924 36.4252 89.4749 34.7325 88.5793 33.3011L86.8838 34.3619ZM84.9066 29.919C84.9101 29.9175 84.9085 29.9194 84.8982 29.9189C84.8869 29.9183 84.8682 29.9147 84.846 29.9036L83.95 31.6916C84.4657 31.9501 85.1043 32.0101 85.6942 31.7574L84.9066 29.919ZM86.6613 32.6075C86.4549 33.225 86.5734 33.8658 86.8838 34.3619L88.5793 33.3011C88.566 33.2798 88.5606 33.2613 88.559 33.2499C88.5576 33.2396 88.5594 33.2378 88.5582 33.2415L86.6613 32.6075ZM89.0514 31.7657C89.5986 30.1284 87.9537 28.6135 86.3669 29.2933L87.1545 31.1317L87.1545 31.1317L89.0514 31.7657Z" fill="#474747" mask="url(#path-26-inside-5_549_2434)"/>
<path d="M76.9624 37.4956H82.0307" stroke="#474747" stroke-linecap="round"/>
<path d="M76.9648 42.2754H84.2931" stroke="#474747" stroke-linecap="round"/>
<path d="M76.9648 35.2754H84.2931" stroke="#474747" stroke-linecap="round"/>
<path d="M76.9648 39.9421L82.958 39.8622" stroke="#474747" stroke-linecap="round"/>
<path d="M71.7399 32.078C72.0958 31.6558 72.0421 31.0249 71.6198 30.6689C71.1975 30.313 70.5666 30.3667 70.2107 30.789L71.7399 32.078ZM66.1901 38.6616L71.7399 32.078L70.2107 30.789L64.6609 37.3726L66.1901 38.6616Z" fill="#D37F7F"/>
<path d="M64.7818 39.3474L64.2516 38.9005L64.6743 37.3838L66.2125 38.6805L64.7818 39.3474Z" fill="#D9D9D9"/>
<path d="M64.6496 39.4761C64.5287 39.6195 64.3144 39.6378 64.1709 39.5169C64.0275 39.396 64.0092 39.1816 64.1302 39.0382L64.2528 38.8927L64.7723 39.3306L64.6496 39.4761Z" fill="#D37F7F"/>
<g filter="url(#filter1_d_549_2434)">
<path d="M35.5 26.5C35.5 25.9477 35.9477 25.5 36.5 25.5H62.5C63.0523 25.5 63.5 25.9477 63.5 26.5V63.5C63.5 64.0523 63.0523 64.5 62.5 64.5H36.5C35.9477 64.5 35.5 64.0523 35.5 63.5V26.5Z" fill="#C8E2FF"/>
<path d="M36 26.5C36 26.2239 36.2239 26 36.5 26H62.5C62.7761 26 63 26.2239 63 26.5V63.5C63 63.7761 62.7761 64 62.5 64H36.5C36.2239 64 36 63.7761 36 63.5V26.5Z" stroke="#393939"/>
</g>
<line x1="39.6765" y1="30.5" x2="58.6765" y2="30.5" stroke="#393939" stroke-linecap="round"/>
<line x1="39.6765" y1="34.5" x2="58.6765" y2="34.5" stroke="#393939" stroke-linecap="round"/>
<line x1="44.6765" y1="38.5" x2="53.6765" y2="38.5" stroke="#393939" stroke-linecap="round"/>
<line x1="42.6763" y1="42.5" x2="56.6763" y2="42.5" stroke="#393939" stroke-linecap="round"/>
<line x1="40.6763" y1="46.5" x2="57.6763" y2="46.5" stroke="#393939" stroke-linecap="round"/>
<line x1="39.6763" y1="50.5" x2="58.6763" y2="50.5" stroke="#393939" stroke-linecap="round"/>
<line x1="39.6763" y1="54.5" x2="58.6763" y2="54.5" stroke="#393939" stroke-linecap="round"/>
<line x1="42.6719" y1="58.2559" x2="55.6719" y2="58.2559" stroke="#393939" stroke-linecap="round"/>
<rect x="37.9526" y="33.1526" width="17.2493" height="2.74207" fill="#F0F87F" fill-opacity="0.4"/>
<rect x="41.9526" y="41.1526" width="17.2493" height="2.74207" fill="#F0F87F" fill-opacity="0.4"/>
<path d="M47.3716 40.1563L47.3716 40.1563L51.5179 36.8437L51.3255 36.6841L51.5181 36.8434L51.518 36.8436C51.5506 36.8043 51.584 36.7577 51.6073 36.7056C51.6291 36.6568 51.657 36.5695 51.6255 36.4704C51.5905 36.3601 51.505 36.3032 51.4393 36.278C51.3782 36.2547 51.3157 36.25 51.267 36.25H50.8675C50.6986 36.25 50.5487 36.3192 50.443 36.455C50.4429 36.4552 50.4428 36.4553 50.4426 36.4555L49.5 37.6593L48.5574 36.4555C48.5572 36.4553 48.5571 36.4552 48.557 36.455C48.4513 36.3192 48.3014 36.25 48.1325 36.25H47.733C47.6843 36.25 47.6218 36.2547 47.5607 36.278C47.495 36.3032 47.4095 36.3601 47.3745 36.4704C47.343 36.5695 47.3709 36.6568 47.3927 36.7056C47.4159 36.7576 47.4494 36.8043 47.4819 36.8435C47.482 36.8436 47.482 36.8436 47.4821 36.8437L48.7986 38.4356L47.3716 40.1563ZM50.2014 38.4356L50.0692 38.2763L49.8768 38.4358L50.0694 38.5952L50.2014 38.4356ZM51.271 36.75C51.2773 36.7502 51.2802 36.7505 51.2801 36.7506C51.2801 36.7506 51.2772 36.7502 51.272 36.7488L51.271 36.75ZM51.1516 36.5C51.1517 36.4996 51.1518 36.4994 51.1518 36.4994C51.1518 36.4994 51.1517 36.4996 51.1514 36.5H51.1516ZM47.8484 36.5H47.8486C47.8483 36.4996 47.8482 36.4994 47.8482 36.4994C47.8482 36.4994 47.8483 36.4996 47.8484 36.5ZM47.728 36.7488C47.7228 36.7502 47.7199 36.7506 47.7199 36.7506C47.7198 36.7505 47.7227 36.7502 47.729 36.75L47.728 36.7488ZM47.6177 40.2513L47.6187 40.25C47.6123 40.2499 47.6094 40.2495 47.6094 40.2494C47.6094 40.2494 47.6124 40.2498 47.6177 40.2513ZM47.738 40.5C47.7378 40.5004 47.7377 40.5006 47.7377 40.5006C47.7378 40.5006 47.7379 40.5004 47.7381 40.5H47.738ZM49.6591 39.0089L49.5 38.8068L49.3409 39.0089L49.5 39.211L49.6591 39.0089ZM50.7473 40.3912L50.5498 40.5445C50.55 40.5448 50.5502 40.545 50.5504 40.5453L50.5509 40.5459L50.7473 40.3912ZM48.4502 40.5445L48.2527 40.3912L48.4491 40.5459L48.4496 40.5453C48.4498 40.545 48.45 40.5448 48.4502 40.5445ZM51.262 40.5H51.2619C51.2621 40.5004 51.2622 40.5006 51.2623 40.5006C51.2623 40.5006 51.2622 40.5004 51.262 40.5ZM51.3813 40.25L51.3823 40.2513C51.3875 40.2498 51.3905 40.2494 51.3906 40.2494C51.3906 40.2495 51.3878 40.2498 51.3813 40.25ZM49.5 38.0649L49.6588 37.8621L49.5 38.0649Z" fill="#D37F7F" stroke="#D37F7F" stroke-width="0.5"/>
<path d="M47.3716 52.1563L47.3716 52.1563L51.5179 48.8437L51.3255 48.6841L51.5181 48.8434L51.518 48.8436C51.5506 48.8043 51.584 48.7577 51.6073 48.7056C51.6291 48.6568 51.657 48.5695 51.6255 48.4704C51.5905 48.3601 51.505 48.3032 51.4393 48.278C51.3782 48.2547 51.3157 48.25 51.267 48.25H50.8675C50.6986 48.25 50.5487 48.3192 50.443 48.455C50.4429 48.4552 50.4428 48.4553 50.4426 48.4555L49.5 49.6593L48.5574 48.4555C48.5572 48.4553 48.5571 48.4552 48.557 48.455C48.4513 48.3192 48.3014 48.25 48.1325 48.25H47.733C47.6843 48.25 47.6218 48.2547 47.5607 48.278C47.495 48.3032 47.4095 48.3601 47.3745 48.4704C47.343 48.5695 47.3709 48.6568 47.3927 48.7056C47.4159 48.7576 47.4494 48.8043 47.4819 48.8435C47.482 48.8436 47.482 48.8436 47.4821 48.8437L48.7986 50.4356L47.3716 52.1563ZM50.2014 50.4356L50.0692 50.2763L49.8768 50.4358L50.0694 50.5952L50.2014 50.4356ZM51.271 48.75C51.2773 48.7502 51.2802 48.7505 51.2801 48.7506C51.2801 48.7506 51.2772 48.7502 51.272 48.7488L51.271 48.75ZM51.1516 48.5C51.1517 48.4996 51.1518 48.4994 51.1518 48.4994C51.1518 48.4994 51.1517 48.4996 51.1514 48.5H51.1516ZM47.8484 48.5H47.8486C47.8483 48.4996 47.8482 48.4994 47.8482 48.4994C47.8482 48.4994 47.8483 48.4996 47.8484 48.5ZM47.728 48.7488C47.7228 48.7502 47.7199 48.7506 47.7199 48.7506C47.7198 48.7505 47.7227 48.7502 47.729 48.75L47.728 48.7488ZM47.6177 52.2513L47.6187 52.25C47.6123 52.2499 47.6094 52.2495 47.6094 52.2494C47.6094 52.2494 47.6124 52.2498 47.6177 52.2513ZM47.738 52.5C47.7378 52.5004 47.7377 52.5006 47.7377 52.5006C47.7378 52.5006 47.7379 52.5004 47.7381 52.5H47.738ZM49.6591 51.0089L49.5 50.8068L49.3409 51.0089L49.5 51.211L49.6591 51.0089ZM50.7473 52.3912L50.5498 52.5445C50.55 52.5448 50.5502 52.545 50.5504 52.5453L50.5509 52.5459L50.7473 52.3912ZM48.4502 52.5445L48.2527 52.3912L48.4491 52.5459L48.4496 52.5453C48.4498 52.545 48.45 52.5448 48.4502 52.5445ZM51.262 52.5H51.2619C51.2621 52.5004 51.2622 52.5006 51.2623 52.5006C51.2623 52.5006 51.2622 52.5004 51.262 52.5ZM51.3813 52.25L51.3823 52.2513C51.3875 52.2498 51.3905 52.2494 51.3906 52.2494C51.3906 52.2495 51.3878 52.2498 51.3813 52.25ZM49.5 50.0649L49.6588 49.8621L49.5 50.0649Z" fill="#D37F7F" stroke="#D37F7F" stroke-width="0.5"/>
<g filter="url(#filter2_d_549_2434)">
<rect x="24.9392" y="32.4644" width="8.23376" height="6.24231" transform="rotate(12.0234 24.9392 32.4644)" fill="#FCF5B6"/>
</g>
<path d="M25.3609 30.1781L33.6144 31.9359C32.7796 35.8625 32.2243 38.7138 31.5901 40.2633L23.4384 38.5272C23.4384 38.5272 23.741 37.7562 23.9574 36.9179C24.1737 36.0796 25.3609 30.1781 25.3609 30.1781Z" fill="#FCF5B6"/>
<line x1="26.7849" y1="32.762" x2="31.8662" y2="33.8373" stroke="#777777" stroke-width="0.5" stroke-linecap="round"/>
<line x1="26.3671" y1="34.7178" x2="31.4485" y2="35.7931" stroke="#777777" stroke-width="0.5" stroke-linecap="round"/>
<line x1="25.9513" y1="36.6769" x2="28.242" y2="37.1877" stroke="#777777" stroke-width="0.5" stroke-linecap="round"/>
<g filter="url(#filter3_d_549_2434)">
<path d="M72.4953 50.0797C73.0198 50.0641 73.4575 50.4766 73.4731 51.001L73.5325 53.0002C73.5481 53.5246 73.1355 53.9624 72.6111 53.9779L62.6655 54.2733L62.5497 50.375L72.4953 50.0797Z" fill="#F0F87F" stroke="#E0E875" stroke-width="0.1"/>
<path d="M59.2676 51.7962L58.5868 52.956C59.0941 53.0824 59.6061 53.0867 60.1904 53.019L60.1533 51.7701L59.2676 51.7962Z" fill="#F0F87F"/>
<path fill-rule="evenodd" clip-rule="evenodd" d="M59.9915 52.9975L62.6168 54.3246L62.4981 50.3265L59.9562 51.8071L59.9915 52.9975Z" fill="#474747"/>
<g filter="url(#filter4_d_549_2434)">
<path d="M58.934 58.7908C58.3649 59.7374 58.671 60.9662 59.6177 61.5353C60.5644 62.1044 61.7932 61.7983 62.3622 60.8516L63.8073 58.4477L60.3791 56.3868L58.934 58.7908Z" fill="#F0F87F"/>
<path d="M58.9768 58.8165C58.422 59.7395 58.7204 60.9376 59.6435 61.4925C60.5665 62.0473 61.7645 61.7489 62.3194 60.8258L63.7387 58.4648L60.3962 56.4554L58.9768 58.8165Z" stroke="#E0E875" stroke-width="0.1"/>
</g>
</g>
<rect x="11.606" y="63.0743" width="17.1685" height="18.4337" rx="0.5" transform="rotate(-7.47514 11.606 63.0743)" fill="#F2F2F2" stroke="#393939"/>
<path d="M17.5692 66.1688C17.5692 67.0383 16.7984 67.777 15.8041 67.777C14.8099 67.777 14.0391 67.0383 14.0391 66.1688C14.0391 65.2993 14.8099 64.5605 15.8041 64.5605C16.7984 64.5605 17.5692 65.2993 17.5692 66.1688Z" stroke="#393939" stroke-width="0.5"/>
<path d="M26.5692 65.1688C26.5692 66.0383 25.7984 66.777 24.8041 66.777C23.8099 66.777 23.0391 66.0383 23.0391 65.1688C23.0391 64.2993 23.8099 63.5605 24.8041 63.5605C25.7984 63.5605 26.5692 64.2993 26.5692 65.1688Z" stroke="#393939" stroke-width="0.5"/>
<path d="M20.816 64.2754C20.9475 64.4232 21.21 64.8449 21.424 64.906C21.5338 64.9374 21.3029 65.1019 21.2227 65.1833C21.0511 65.3574 20.8151 65.5343 20.7051 65.7543" stroke="#393939" stroke-width="0.5" stroke-linecap="round"/>
<path d="M22.5444 69.775C23.3835 69.5978 24.1971 69.3665 25.056 69.4851C25.2956 69.5182 25.5353 69.5568 25.7702 69.609" stroke="#393939" stroke-width="0.5" stroke-linecap="round"/>
<path d="M27.2643 68.2332L27.1458 69.2056" stroke="#393939" stroke-width="0.5" stroke-linecap="round"/>
<path d="M26.9798 70.1068C26.9589 70.1665 26.9655 70.0837 26.9561 70.0581C26.9266 69.9783 26.8516 69.9485 26.7848 70.0199C26.6691 70.1434 26.7763 70.3181 26.8612 70.4152" stroke="#393939" stroke-width="0.5" stroke-linecap="round"/>
<path d="M22.1472 68.4186C23.1578 68.2701 24.2308 68.0197 25.2607 68.0883" stroke="#393939" stroke-width="0.5" stroke-linecap="round"/>
<path d="M18.1943 65.003C18.5335 65.1302 19.1405 64.9503 19.4943 64.9087C19.6139 64.8946 19.7637 64.8848 19.8821 64.851C20.1388 64.7777 20.4283 64.8143 20.6946 64.8143" stroke="#393939" stroke-width="0.5" stroke-linecap="round"/>
<path d="M17.2878 70.2012C17.1859 70.151 17.1439 70.0277 17.1941 69.9258C17.2443 69.8239 17.3675 69.7819 17.4695 69.8321L17.8879 70.038L17.7062 70.4071L17.2878 70.2012Z" fill="#474747"/>
<path d="M18.5306 71.6313L19.3659 69.934L29.3189 74.8323C29.7876 75.063 29.9805 75.6299 29.7499 76.0986C29.5192 76.5673 28.9523 76.7602 28.4836 76.5296L18.5306 71.6313Z" fill="#474747" stroke="#DFDFDF" stroke-width="0.1"/>
<path d="M17.5886 70.362L17.7797 69.9736L19.343 69.867L18.4636 71.654L17.5886 70.362Z" fill="#A1A1A1"/>
<rect x="51.2993" y="10.605" width="17.1685" height="13.8573" rx="0.5" transform="rotate(6.19621 51.2993 10.605)" fill="#F2F2F2" stroke="#393939"/>
<mask id="path-72-inside-6_549_2434" fill="white">
<path fill-rule="evenodd" clip-rule="evenodd" d="M55.8333 17.6099C57.122 17.6099 58.1667 16.5779 58.1667 15.3049C58.1667 15.1084 58.1418 14.9177 58.0949 14.7356L58.4574 13.2942L57.0094 13.3138C56.6641 13.1143 56.2622 13 55.8333 13C54.5447 13 53.5 14.032 53.5 15.3049C53.5 16.5779 54.5447 17.6099 55.8333 17.6099Z"/>
</mask>
<path fill-rule="evenodd" clip-rule="evenodd" d="M55.8333 17.6099C57.122 17.6099 58.1667 16.5779 58.1667 15.3049C58.1667 15.1084 58.1418 14.9177 58.0949 14.7356L58.4574 13.2942L57.0094 13.3138C56.6641 13.1143 56.2622 13 55.8333 13C54.5447 13 53.5 14.032 53.5 15.3049C53.5 16.5779 54.5447 17.6099 55.8333 17.6099Z" fill="#FCFCFC"/>
<path d="M58.0949 14.7356L57.61 14.6136L57.579 14.737L57.6107 14.8601L58.0949 14.7356ZM58.4574 13.2942L58.9423 13.4162L59.1009 12.7855L58.4507 12.7943L58.4574 13.2942ZM57.0094 13.3138L56.7593 13.7467L56.8785 13.8156L57.0162 13.8137L57.0094 13.3138ZM57.6667 15.3049C57.6667 16.296 56.8516 17.1099 55.8333 17.1099V18.1099C57.3923 18.1099 58.6667 16.8598 58.6667 15.3049H57.6667ZM57.6107 14.8601C57.6472 15.0019 57.6667 15.1508 57.6667 15.3049H58.6667C58.6667 15.066 58.6364 14.8334 58.5792 14.611L57.6107 14.8601ZM57.9725 13.1723L57.61 14.6136L58.5798 14.8575L58.9423 13.4162L57.9725 13.1723ZM57.0162 13.8137L58.4642 13.7942L58.4507 12.7943L57.0027 12.8138L57.0162 13.8137ZM55.8333 13.5C56.1724 13.5 56.4882 13.5901 56.7593 13.7467L57.2595 12.8808C56.84 12.6385 56.3521 12.5 55.8333 12.5V13.5ZM54 15.3049C54 14.3138 54.815 13.5 55.8333 13.5V12.5C54.2743 12.5 53 13.7501 53 15.3049H54ZM55.8333 17.1099C54.815 17.1099 54 16.296 54 15.3049H53C53 16.8598 54.2743 18.1099 55.8333 18.1099V17.1099Z" fill="#72AA57" mask="url(#path-72-inside-6_549_2434)"/>
<g clip-path="url(#clip0_549_2434)">
<path d="M57.07 14.7057L55.425 16.3307L54.4333 15.3511L54.76 15.0284L55.425 15.6853L56.7433 14.3831L57.07 14.7057Z" fill="#72AA57"/>
</g>
<mask id="mask0_549_2434" style="mask-type:alpha" maskUnits="userSpaceOnUse" x="60" y="19" width="7" height="6">
<rect width="5" height="4.61538" transform="matrix(-0.972343 -0.233556 -0.233556 0.972343 66.304 20.2727)" fill="#D9D9D9"/>
</mask>
<g mask="url(#mask0_549_2434)">
<path d="M63.7711 22.4331L63.3612 21.8204L62.7177 22.1801L62.497 21.8502L63.1404 21.4905L62.7305 20.8779L63.077 20.6842L63.4869 21.2969L64.1304 20.9372L64.3511 21.2671L63.7076 21.6268L64.1176 22.2395L63.7711 22.4331ZM64.9108 24.2891L65.7193 20.9233C65.744 20.8205 65.7254 20.7229 65.6637 20.6306C65.6019 20.5383 65.5154 20.4788 65.4039 20.452L62.1628 19.6735C62.0514 19.6467 61.9472 19.6604 61.8503 19.7146C61.7533 19.7688 61.6925 19.8473 61.6678 19.9501L61.1288 22.194C61.1041 22.2969 61.1227 22.3944 61.1844 22.4867C61.2462 22.579 61.3327 22.6385 61.4442 22.6653L64.2802 23.3465L64.9108 24.2891ZM64.5422 23.0139L61.534 22.2913L62.073 20.0475L65.3141 20.826L64.7246 23.2802L64.5422 23.0139Z" fill="#D37F7F"/>
</g>
<defs>
<filter id="filter0_d_549_2434" x="44.8049" y="44.2654" width="50.9214" height="49.0225" filterUnits="userSpaceOnUse" color-interpolation-filters="sRGB">
<feFlood flood-opacity="0" result="BackgroundImageFix"/>
<feColorMatrix in="SourceAlpha" type="matrix" values="0 0 0 0 0 0 0 0 0 0 0 0 0 0 0 0 0 0 127 0" result="hardAlpha"/>
<feOffset dy="2"/>
<feGaussianBlur stdDeviation="4"/>
<feComposite in2="hardAlpha" operator="out"/>
<feColorMatrix type="matrix" values="0 0 0 0 0 0 0 0 0 0 0 0 0 0 0 0 0 0 0.25 0"/>
<feBlend mode="normal" in2="BackgroundImageFix" result="effect1_dropShadow_549_2434"/>
<feBlend mode="normal" in="SourceGraphic" in2="effect1_dropShadow_549_2434" result="shape"/>
</filter>
<filter id="filter1_d_549_2434" x="34.5" y="25.5" width="30" height="41" filterUnits="userSpaceOnUse" color-interpolation-filters="sRGB">
<feFlood flood-opacity="0" result="BackgroundImageFix"/>
<feColorMatrix in="SourceAlpha" type="matrix" values="0 0 0 0 0 0 0 0 0 0 0 0 0 0 0 0 0 0 127 0" result="hardAlpha"/>
<feOffset dy="1"/>
<feGaussianBlur stdDeviation="0.5"/>
<feComposite in2="hardAlpha" operator="out"/>
<feColorMatrix type="matrix" values="0 0 0 0 0 0 0 0 0 0 0 0 0 0 0 0 0 0 0.25 0"/>
<feBlend mode="normal" in2="BackgroundImageFix" result="effect1_dropShadow_549_2434"/>
<feBlend mode="normal" in="SourceGraphic" in2="effect1_dropShadow_549_2434" result="shape"/>
</filter>
<filter id="filter2_d_549_2434" x="22.6389" y="31.9644" width="11.3535" height="9.82056" filterUnits="userSpaceOnUse" color-interpolation-filters="sRGB">
<feFlood flood-opacity="0" result="BackgroundImageFix"/>
<feColorMatrix in="SourceAlpha" type="matrix" values="0 0 0 0 0 0 0 0 0 0 0 0 0 0 0 0 0 0 127 0" result="hardAlpha"/>
<feOffset dy="0.5"/>
<feGaussianBlur stdDeviation="0.5"/>
<feComposite in2="hardAlpha" operator="out"/>
<feColorMatrix type="matrix" values="0 0 0 0 0 0 0 0 0 0 0 0 0 0 0 0 0 0 0.2 0"/>
<feBlend mode="normal" in2="BackgroundImageFix" result="effect1_dropShadow_549_2434"/>
<feBlend mode="normal" in="SourceGraphic" in2="effect1_dropShadow_549_2434" result="shape"/>
</filter>
<filter id="filter3_d_549_2434" x="57.5125" y="50" width="17.0996" height="13.8215" filterUnits="userSpaceOnUse" color-interpolation-filters="sRGB">
<feFlood flood-opacity="0" result="BackgroundImageFix"/>
<feColorMatrix in="SourceAlpha" type="matrix" values="0 0 0 0 0 0 0 0 0 0 0 0 0 0 0 0 0 0 127 0" result="hardAlpha"/>
<feOffset dy="1"/>
<feGaussianBlur stdDeviation="0.5"/>
<feComposite in2="hardAlpha" operator="out"/>
<feColorMatrix type="matrix" values="0 0 0 0 0 0 0 0 0 0 0 0 0 0 0 0 0 0 0.4 0"/>
<feBlend mode="normal" in2="BackgroundImageFix" result="effect1_dropShadow_549_2434"/>
<feBlend mode="normal" in="SourceGraphic" in2="effect1_dropShadow_549_2434" result="shape"/>
</filter>
<filter id="filter4_d_549_2434" x="57.6477" y="56.3867" width="7.15967" height="7.43481" filterUnits="userSpaceOnUse" color-interpolation-filters="sRGB">
<feFlood flood-opacity="0" result="BackgroundImageFix"/>
<feColorMatrix in="SourceAlpha" type="matrix" values="0 0 0 0 0 0 0 0 0 0 0 0 0 0 0 0 0 0 127 0" result="hardAlpha"/>
<feOffset dy="1"/>
<feGaussianBlur stdDeviation="0.5"/>
<feComposite in2="hardAlpha" operator="out"/>
<feColorMatrix type="matrix" values="0 0 0 0 0 0 0 0 0 0 0 0 0 0 0 0 0 0 0.4 0"/>
<feBlend mode="normal" in2="BackgroundImageFix" result="effect1_dropShadow_549_2434"/>
<feBlend mode="normal" in="SourceGraphic" in2="effect1_dropShadow_549_2434" result="shape"/>
</filter>
<clipPath id="clip0_549_2434">
<rect width="2.66667" height="2" fill="white" transform="translate(54.5 14.3334)"/>
</clipPath>
</defs>
</svg>
