<svg width="88" height="90" viewBox="0 0 88 90" fill="none" xmlns="http://www.w3.org/2000/svg">
<g clip-path="url(#clip0_549_2435)">
<g opacity="0.4">
<g filter="url(#filter0_d_549_2435)">
<rect x="6.5" y="-2.88342" width="28" height="97.7491" rx="1" fill="#E8F3FF"/>
<rect x="7" y="-2.38342" width="27" height="96.7491" rx="0.5" stroke="#555555"/>
</g>
<path d="M10.9648 2.27527H30.588" stroke="#555555" stroke-linecap="round"/>
<path d="M10.9648 5.27527H30.588" stroke="#555555" stroke-linecap="round"/>
<path d="M10.9648 38.2754H30.588" stroke="#555555" stroke-linecap="round"/>
<path d="M10.9648 51.2754H30.588" stroke="#555555" stroke-linecap="round"/>
<path d="M10.9648 60.2754H30.588" stroke="#555555" stroke-linecap="round"/>
<path d="M10.9648 69.2754H30.588" stroke="#555555" stroke-linecap="round"/>
<path d="M10.9648 78.2754H30.588" stroke="#555555" stroke-linecap="round"/>
<path d="M10.9648 87.2754H30.588" stroke="#555555" stroke-linecap="round"/>
<path d="M10.9648 8.302H25.8308" stroke="#555555" stroke-linecap="round"/>
<path d="M10.9648 41.302H25.8308" stroke="#555555" stroke-linecap="round"/>
<path d="M10.9648 54.302H25.8308" stroke="#555555" stroke-linecap="round"/>
<path d="M10.9648 63.302H25.8308" stroke="#555555" stroke-linecap="round"/>
<path d="M10.9648 72.302H25.8308" stroke="#555555" stroke-linecap="round"/>
<path d="M10.9648 81.302H25.8308" stroke="#555555" stroke-linecap="round"/>
<path d="M10.9648 90.302H25.8308" stroke="#555555" stroke-linecap="round"/>
<path d="M10.9648 20.302H25.8308" stroke="#555555" stroke-linecap="round"/>
<path d="M10.9648 14.302H25.8308" stroke="#555555" stroke-linecap="round"/>
<path d="M10.9648 26.302H25.8308" stroke="#555555" stroke-linecap="round"/>
<path d="M10.9648 11.3101H18.8352" stroke="#555555" stroke-linecap="round"/>
<path d="M10.9648 44.3101H18.8352" stroke="#555555" stroke-linecap="round"/>
<path d="M10.9648 57.3101H18.8352" stroke="#555555" stroke-linecap="round"/>
<path d="M10.9648 66.3101H18.8352" stroke="#555555" stroke-linecap="round"/>
<path d="M10.9648 75.3101H18.8352" stroke="#555555" stroke-linecap="round"/>
<path d="M10.9648 84.3101H18.8352" stroke="#555555" stroke-linecap="round"/>
<path d="M10.9648 23.3101H18.8352" stroke="#555555" stroke-linecap="round"/>
<path d="M10.9648 17.3101H18.8352" stroke="#555555" stroke-linecap="round"/>
<path d="M10.9648 29.3101H18.8352" stroke="#555555" stroke-linecap="round"/>
</g>
<g opacity="0.4">
<g filter="url(#filter1_d_549_2435)">
<rect x="53.5" y="-2.88342" width="28" height="97.7491" rx="1" fill="#E8F3FF"/>
<rect x="54" y="-2.38342" width="27" height="96.7491" rx="0.5" stroke="#555555"/>
</g>
<path d="M57.9648 2.27527H77.588" stroke="#555555" stroke-linecap="round"/>
<path d="M57.9648 5.27527H77.588" stroke="#555555" stroke-linecap="round"/>
<path d="M57.9648 38.2754H77.588" stroke="#555555" stroke-linecap="round"/>
<path d="M57.9648 51.2754H77.588" stroke="#555555" stroke-linecap="round"/>
<path d="M57.9648 60.2754H77.588" stroke="#555555" stroke-linecap="round"/>
<path d="M57.9648 69.2754H77.588" stroke="#555555" stroke-linecap="round"/>
<path d="M57.9648 78.2754H77.588" stroke="#555555" stroke-linecap="round"/>
<path d="M57.9648 87.2754H77.588" stroke="#555555" stroke-linecap="round"/>
<path d="M57.9648 8.302H72.8308" stroke="#555555" stroke-linecap="round"/>
<path d="M57.9648 41.302H72.8308" stroke="#555555" stroke-linecap="round"/>
<path d="M57.9648 54.302H72.8308" stroke="#555555" stroke-linecap="round"/>
<path d="M57.9648 63.302H72.8308" stroke="#555555" stroke-linecap="round"/>
<path d="M57.9648 72.302H72.8308" stroke="#555555" stroke-linecap="round"/>
<path d="M57.9648 81.302H72.8308" stroke="#555555" stroke-linecap="round"/>
<path d="M57.9648 90.302H72.8308" stroke="#555555" stroke-linecap="round"/>
<path d="M57.9648 20.302H72.8308" stroke="#555555" stroke-linecap="round"/>
<path d="M57.9648 14.302H72.8308" stroke="#555555" stroke-linecap="round"/>
<path d="M57.9648 26.302H72.8308" stroke="#555555" stroke-linecap="round"/>
<path d="M57.9648 11.3101H65.8352" stroke="#555555" stroke-linecap="round"/>
<path d="M57.9648 44.3101H65.8352" stroke="#555555" stroke-linecap="round"/>
<path d="M57.9648 57.3101H65.8352" stroke="#555555" stroke-linecap="round"/>
<path d="M57.9648 66.3101H65.8352" stroke="#555555" stroke-linecap="round"/>
<path d="M57.9648 75.3101H65.8352" stroke="#555555" stroke-linecap="round"/>
<path d="M57.9648 84.3101H65.8352" stroke="#555555" stroke-linecap="round"/>
<path d="M57.9648 23.3101H65.8352" stroke="#555555" stroke-linecap="round"/>
<path d="M57.9648 17.3101H65.8352" stroke="#555555" stroke-linecap="round"/>
<path d="M57.9648 29.3101H65.8352" stroke="#555555" stroke-linecap="round"/>
</g>
<g filter="url(#filter2_d_549_2435)">
<rect x="27.5" y="23" width="33" height="44" rx="1" fill="#E8F3FF"/>
<rect x="28" y="23.5" width="32" height="43" rx="0.5" stroke="#555555"/>
</g>
<path d="M33.5039 30.4834H54.496" stroke="#555555" stroke-linecap="round"/>
<path d="M33.5039 33.7051H54.496" stroke="#555555" stroke-linecap="round"/>
<path d="M33.5039 43.3992H49.407" stroke="#555555" stroke-linecap="round"/>
<path d="M33.5039 56.2861H49.407" stroke="#555555" stroke-linecap="round"/>
<path d="M33.5039 40.186H41.9233" stroke="#555555" stroke-linecap="round"/>
<path d="M33.5039 53.073H41.9233" stroke="#555555" stroke-linecap="round"/>
<path d="M33.5039 46.6208H49.4078" stroke="#555555" stroke-linecap="round"/>
<path d="M33.5039 59.5166H41.9233" stroke="#555555" stroke-linecap="round"/>
</g>
<defs>
<filter id="filter0_d_549_2435" x="5.5" y="-2.88342" width="30" height="99.7491" filterUnits="userSpaceOnUse" color-interpolation-filters="sRGB">
<feFlood flood-opacity="0" result="BackgroundImageFix"/>
<feColorMatrix in="SourceAlpha" type="matrix" values="0 0 0 0 0 0 0 0 0 0 0 0 0 0 0 0 0 0 127 0" result="hardAlpha"/>
<feOffset dy="1"/>
<feGaussianBlur stdDeviation="0.5"/>
<feComposite in2="hardAlpha" operator="out"/>
<feColorMatrix type="matrix" values="0 0 0 0 0 0 0 0 0 0 0 0 0 0 0 0 0 0 0.25 0"/>
<feBlend mode="normal" in2="BackgroundImageFix" result="effect1_dropShadow_549_2435"/>
<feBlend mode="normal" in="SourceGraphic" in2="effect1_dropShadow_549_2435" result="shape"/>
</filter>
<filter id="filter1_d_549_2435" x="52.5" y="-2.88342" width="30" height="99.7491" filterUnits="userSpaceOnUse" color-interpolation-filters="sRGB">
<feFlood flood-opacity="0" result="BackgroundImageFix"/>
<feColorMatrix in="SourceAlpha" type="matrix" values="0 0 0 0 0 0 0 0 0 0 0 0 0 0 0 0 0 0 127 0" result="hardAlpha"/>
<feOffset dy="1"/>
<feGaussianBlur stdDeviation="0.5"/>
<feComposite in2="hardAlpha" operator="out"/>
<feColorMatrix type="matrix" values="0 0 0 0 0 0 0 0 0 0 0 0 0 0 0 0 0 0 0.25 0"/>
<feBlend mode="normal" in2="BackgroundImageFix" result="effect1_dropShadow_549_2435"/>
<feBlend mode="normal" in="SourceGraphic" in2="effect1_dropShadow_549_2435" result="shape"/>
</filter>
<filter id="filter2_d_549_2435" x="26.5" y="23" width="35" height="46" filterUnits="userSpaceOnUse" color-interpolation-filters="sRGB">
<feFlood flood-opacity="0" result="BackgroundImageFix"/>
<feColorMatrix in="SourceAlpha" type="matrix" values="0 0 0 0 0 0 0 0 0 0 0 0 0 0 0 0 0 0 127 0" result="hardAlpha"/>
<feOffset dy="1"/>
<feGaussianBlur stdDeviation="0.5"/>
<feComposite in2="hardAlpha" operator="out"/>
<feColorMatrix type="matrix" values="0 0 0 0 0 0 0 0 0 0 0 0 0 0 0 0 0 0 0.25 0"/>
<feBlend mode="normal" in2="BackgroundImageFix" result="effect1_dropShadow_549_2435"/>
<feBlend mode="normal" in="SourceGraphic" in2="effect1_dropShadow_549_2435" result="shape"/>
</filter>
<clipPath id="clip0_549_2435">
<rect width="88" height="90" fill="white"/>
</clipPath>
</defs>
</svg>
