<svg width="88" height="90" viewBox="0 0 88 90" fill="none" xmlns="http://www.w3.org/2000/svg">
<g clip-path="url(#clip0_549_2437)">
<g filter="url(#filter0_d_549_2437)">
<rect x="22.5" y="16.5" width="43" height="57" rx="1.09091" fill="#C8E2FF"/>
<rect x="23.0455" y="17.0455" width="41.9091" height="55.9091" rx="0.545455" stroke="#393939" stroke-width="1.09091"/>
</g>
<path d="M28.1816 24.4822H57.9273" stroke="#393939" stroke-width="1.09091" stroke-linecap="round"/>
<path d="M28.1816 27.7549H57.9273" stroke="#393939" stroke-width="1.09091" stroke-linecap="round"/>
<path d="M35.7607 34.374H50.003" stroke="#393939" stroke-width="1.09091" stroke-linecap="round"/>
<path d="M32.729 37.6099H52.8263" stroke="#393939" stroke-width="1.09091" stroke-linecap="round"/>
<line x1="32.9338" y1="43.31" x2="54.061" y2="43.31" stroke="#6288D3" stroke-width="0.163636"/>
<line x1="33.636" y1="64.0886" x2="33.636" y2="42.5945" stroke="#6288D3" stroke-width="0.163636"/>
<line x1="53.5866" y1="64.0886" x2="53.5866" y2="42.5945" stroke="#6288D3" stroke-width="0.163636"/>
<line x1="32.9338" y1="63.6074" x2="54.061" y2="63.6074" stroke="#6288D3" stroke-width="0.163636"/>
<rect x="32.709" y="42.709" width="1.62868" height="1.66266" fill="white" stroke="#6288D3" stroke-width="0.327273"/>
<rect x="32.709" y="62.6082" width="1.62868" height="1.66266" fill="white" stroke="#6288D3" stroke-width="0.327273"/>
<rect x="52.6597" y="42.7088" width="1.62868" height="1.66266" fill="white" stroke="#6288D3" stroke-width="0.327273"/>
<path d="M53.1965 53.291C53.1965 58.7422 48.8532 63.1588 43.4985 63.1588C38.1438 63.1588 33.8006 58.7422 33.8006 53.291C33.8006 47.8398 38.1438 43.4231 43.4985 43.4231C48.8532 43.4231 53.1965 47.8398 53.1965 53.291Z" fill="#474747" stroke="#6288D3" stroke-width="0.163636"/>
<path d="M53.1149 53.291C53.1149 58.6983 48.8069 63.077 43.4988 63.077C38.1906 63.077 33.8826 58.6983 33.8826 53.291C33.8826 47.8836 38.1906 43.5049 43.4988 43.5049C48.8069 43.5049 53.1149 47.8836 53.1149 53.291Z" fill="#474747" stroke="#6288D3" stroke-width="0.327273"/>
<path d="M52.9759 65.4545V61.2507H53.798V65.4545H52.9759ZM51.3225 63.7692V62.9328H55.4545V63.7692H51.3225Z" fill="#393939"/>
<mask id="mask0_549_2437" style="mask-type:alpha" maskUnits="userSpaceOnUse" x="0" y="29" width="24" height="25">
<rect y="29.5" width="24" height="24" fill="#D9D9D9"/>
</mask>
<g mask="url(#mask0_549_2437)">
<path d="M6 51.5V47.2C5.05 46.3333 4.3125 45.3208 3.7875 44.1625C3.2625 43.0042 3 41.7833 3 40.5C3 38 3.875 35.875 5.625 34.125C7.375 32.375 9.5 31.5 12 31.5C14.0833 31.5 15.9292 32.1125 17.5375 33.3375C19.1458 34.5625 20.1917 36.1583 20.675 38.125L21.975 43.25C22.0583 43.5667 22 43.8542 21.8 44.1125C21.6 44.3708 21.3333 44.5 21 44.5H19V47.5C19 48.05 18.8042 48.5208 18.4125 48.9125C18.0208 49.3042 17.55 49.5 17 49.5H15V51.5H13V47.5H17V42.5H19.7L18.75 38.625C18.3667 37.1083 17.55 35.875 16.3 34.925C15.05 33.975 13.6167 33.5 12 33.5C10.0667 33.5 8.41667 34.175 7.05 35.525C5.68333 36.875 5 38.5167 5 40.45C5 41.45 5.20417 42.4 5.6125 43.3C6.02083 44.2 6.6 45 7.35 45.7L8 46.3V51.5H6ZM12 45.5C12.2833 45.5 12.5208 45.4042 12.7125 45.2125C12.9042 45.0208 13 44.7833 13 44.5C13 44.2167 12.9042 43.9792 12.7125 43.7875C12.5208 43.5958 12.2833 43.5 12 43.5C11.7167 43.5 11.4792 43.5958 11.2875 43.7875C11.0958 43.9792 11 44.2167 11 44.5C11 44.7833 11.0958 45.0208 11.2875 45.2125C11.4792 45.4042 11.7167 45.5 12 45.5ZM11.25 42.3H12.775C12.775 41.8833 12.8292 41.5458 12.9375 41.2875C13.0458 41.0292 13.2667 40.7167 13.6 40.35C13.9 40.0167 14.1917 39.6792 14.475 39.3375C14.7583 38.9958 14.9 38.55 14.9 38C14.9 37.3 14.6292 36.7083 14.0875 36.225C13.5458 35.7417 12.875 35.5 12.075 35.5C11.4083 35.5 10.8042 35.6917 10.2625 36.075C9.72083 36.4583 9.34167 36.9583 9.125 37.575L10.5 38.15C10.6167 37.7833 10.8208 37.4875 11.1125 37.2625C11.4042 37.0375 11.725 36.925 12.075 36.925C12.4417 36.925 12.7458 37.025 12.9875 37.225C13.2292 37.425 13.35 37.6833 13.35 38C13.35 38.35 13.2458 38.6625 13.0375 38.9375C12.8292 39.2125 12.5833 39.4917 12.3 39.775C11.9667 40.125 11.7083 40.475 11.525 40.825C11.3417 41.175 11.25 41.6667 11.25 42.3Z" fill="#FEFEFE"/>
</g>
<mask id="path-19-inside-1_549_2437" fill="white">
<path fill-rule="evenodd" clip-rule="evenodd" d="M75.5 22.7535C81.0228 22.7535 85.5 18.2764 85.5 12.7535C85.5 11.901 85.3933 11.0734 85.1926 10.2834L86.7461 4.0301L80.5404 4.11485C79.0604 3.24948 77.3381 2.75354 75.5 2.75354C69.9772 2.75354 65.5 7.23069 65.5 12.7535C65.5 18.2764 69.9772 22.7535 75.5 22.7535Z"/>
</mask>
<path d="M85.1926 10.2834L83.2516 9.80114L83.1304 10.2888L83.2542 10.7759L85.1926 10.2834ZM86.7461 4.0301L88.6871 4.51231L89.3125 1.99486L86.7188 2.03028L86.7461 4.0301ZM80.5404 4.11485L79.5309 5.84136L80.0113 6.12226L80.5677 6.11466L80.5404 4.11485ZM83.5 12.7535C83.5 17.1718 79.9183 20.7535 75.5 20.7535V24.7535C82.1274 24.7535 87.5 19.381 87.5 12.7535H83.5ZM83.2542 10.7759C83.4143 11.4063 83.5 12.0685 83.5 12.7535H87.5C87.5 11.7336 87.3723 10.7406 87.131 9.79084L83.2542 10.7759ZM84.8051 3.54789L83.2516 9.80114L87.1336 10.7656L88.6871 4.51231L84.8051 3.54789ZM80.5677 6.11466L86.7734 6.02991L86.7188 2.03028L80.5131 2.11504L80.5677 6.11466ZM75.5 4.75354C76.9738 4.75354 78.3489 5.15022 79.5309 5.84136L81.5499 2.38834C79.772 1.34874 77.7025 0.75354 75.5 0.75354V4.75354ZM67.5 12.7535C67.5 8.33526 71.0817 4.75354 75.5 4.75354V0.75354C68.8726 0.75354 63.5 6.12612 63.5 12.7535H67.5ZM75.5 20.7535C71.0817 20.7535 67.5 17.1718 67.5 12.7535H63.5C63.5 19.381 68.8726 24.7535 75.5 24.7535V20.7535Z" fill="#72AA57" mask="url(#path-19-inside-1_549_2437)"/>
<path d="M80.8 10.1535L73.75 17.2035L69.5 12.9535L70.9 11.5535L73.75 14.4035L79.4 8.75354L80.8 10.1535Z" fill="#72AA57"/>
<mask id="mask1_549_2437" style="mask-type:alpha" maskUnits="userSpaceOnUse" x="63" y="63" width="27" height="25">
<rect width="26" height="24" transform="matrix(-1 0 0 1 89.5 63.9978)" fill="#D9D9D9"/>
</mask>
<g mask="url(#mask1_549_2437)">
<path d="M79.3166 77.9978L76.4999 75.3978L73.6833 77.9978L72.1666 76.5978L74.9833 73.9978L72.1666 71.3978L73.6833 69.9978L76.4999 72.5978L79.3166 69.9978L80.8333 71.3978L78.0166 73.9978L80.8333 76.5978L79.3166 77.9978ZM87.3333 85.9978V67.9978C87.3333 67.4478 87.1211 66.977 86.6968 66.5853C86.2725 66.1936 85.7624 65.9978 85.1666 65.9978H67.8333C67.2374 65.9978 66.7274 66.1936 66.303 66.5853C65.8787 66.977 65.6666 67.4478 65.6666 67.9978V79.9978C65.6666 80.5478 65.8787 81.0186 66.303 81.4103C66.7274 81.802 67.2374 81.9978 67.8333 81.9978H82.9999L87.3333 85.9978ZM83.9208 79.9978H67.8333V67.9978H85.1666V81.1228L83.9208 79.9978Z" fill="#D37F7F"/>
</g>
</g>
<defs>
<filter id="filter0_d_549_2437" x="21.4091" y="16.5" width="45.1818" height="59.1818" filterUnits="userSpaceOnUse" color-interpolation-filters="sRGB">
<feFlood flood-opacity="0" result="BackgroundImageFix"/>
<feColorMatrix in="SourceAlpha" type="matrix" values="0 0 0 0 0 0 0 0 0 0 0 0 0 0 0 0 0 0 127 0" result="hardAlpha"/>
<feOffset dy="1.09091"/>
<feGaussianBlur stdDeviation="0.545455"/>
<feComposite in2="hardAlpha" operator="out"/>
<feColorMatrix type="matrix" values="0 0 0 0 0 0 0 0 0 0 0 0 0 0 0 0 0 0 0.25 0"/>
<feBlend mode="normal" in2="BackgroundImageFix" result="effect1_dropShadow_549_2437"/>
<feBlend mode="normal" in="SourceGraphic" in2="effect1_dropShadow_549_2437" result="shape"/>
</filter>
<clipPath id="clip0_549_2437">
<rect width="88" height="90" fill="white"/>
</clipPath>
</defs>
</svg>
