<svg width="88" height="90" viewBox="0 0 88 90" fill="none" xmlns="http://www.w3.org/2000/svg">
<rect x="29" y="19.5" width="30" height="51" rx="3" fill="#555555" stroke="#555555" stroke-width="2"/>
<rect x="29" y="24.8" width="30" height="41.46" fill="#FCFCFC" stroke="#555555" stroke-width="2"/>
<g opacity="0.7">
<rect x="33.2666" y="33.28" width="21.4667" height="25.56" rx="1" fill="#E8F3FF" stroke="#555555" stroke-width="2"/>
<path d="M38.6665 49.8313H49.3382" stroke="#555555" stroke-width="2" stroke-linecap="round"/>
<path d="M38.6665 54.0713H41.8665" stroke="#555555" stroke-width="2" stroke-linecap="round"/>
<path d="M46.1331 54.0713H49.3331" stroke="#555555" stroke-width="2" stroke-linecap="round"/>
<ellipse cx="44.1308" cy="41.5841" rx="5.46425" ry="5.06406" fill="#555555"/>
</g>
<path d="M38.6667 22.625H49.3334" stroke="#FCFCFC" stroke-linecap="round"/>
<path d="M77.5311 30.7332C71.6332 29.1626 71.7992 34.648 73.1047 35.9052C73.5079 36.2934 74.5152 36.3021 74.9526 36.0591C75.676 35.6573 75.5614 34.1533 75.2654 33.7471C74.688 32.9549 73.1099 32.3975 72.1807 32.3975C71.657 32.3975 71.2584 32.5622 70.829 32.8595C69.7468 33.6087 68.969 34.8863 68.9469 36.2131C70.1279 42.0806 75.2654 36.708 69.473 35.5174C67.9253 35.7496 66.713 36.5428 66.713 38.4033C66.713 39.1341 68.1944 41.3414 68.9469 40.1906C69.3289 39.6062 68.0426 38.5862 67.5857 38.4204C66.7158 38.1047 65.9747 38.7113 65.6929 39.4316C65.5381 39.8271 65.4846 40.9347 65.7891 41.3291" stroke="#F09797" stroke-width="0.5" stroke-linecap="round"/>
<path d="M73.9386 9.32468C67.8355 9.38403 69.4586 14.6265 71.052 15.4899C71.5442 15.7566 72.5174 15.4963 72.8741 15.1454C73.4641 14.5652 72.9525 13.1462 72.5589 12.8337C71.7911 12.2242 70.1215 12.108 69.226 12.3558C68.7212 12.4955 68.381 12.7605 68.0465 13.1616C67.2033 14.1723 66.7944 15.611 67.127 16.8957C69.8302 22.2357 73.3486 15.6874 67.4485 16.0849C66.0188 16.7214 65.062 17.8092 65.5582 19.6023C65.7532 20.3067 67.7696 22.0389 68.1879 20.729C68.4002 20.064 66.8884 19.424 66.4038 19.386C65.4813 19.3138 64.9288 20.0961 64.8493 20.8654C64.8056 21.2879 65.0494 22.3697 65.4481 22.6686" stroke="#E5F854" stroke-width="0.5" stroke-linecap="round"/>
<path d="M12.8783 5.66373C13.0866 11.7636 18.2879 10.013 19.1121 8.39893C19.3667 7.90041 19.0827 6.93388 18.7233 6.58584C18.1288 6.01021 16.7228 6.55625 16.42 6.95736C15.8294 7.73984 15.7539 9.41173 16.0236 10.3009C16.1755 10.8022 16.4488 11.1358 16.8579 11.4605C17.8889 12.2787 19.3372 12.6523 20.6134 12.2885C25.8857 9.45572 19.2535 6.09819 19.7949 11.9868C20.4662 13.4006 21.577 14.3306 23.3575 13.7907C24.0569 13.5786 25.7394 11.5205 24.4197 11.1343C23.7496 10.9383 23.1467 12.4652 23.1206 12.9507C23.0709 13.8747 23.8664 14.4079 24.6375 14.4686C25.0609 14.5019 26.1364 14.2318 26.4255 13.8259" stroke="#F09797" stroke-width="0.5" stroke-linecap="round"/>
<g filter="url(#filter0_d_549_2438)">
<rect x="11.2534" y="15.7495" width="2.34473" height="3.08521" fill="#E5F854"/>
</g>
<g filter="url(#filter1_d_549_2438)">
<rect x="11.7656" y="26.2932" width="2.34473" height="3.08521" transform="rotate(-21.7329 11.7656 26.2932)" fill="#F09797"/>
</g>
<g filter="url(#filter2_d_549_2438)">
<rect x="67.7568" y="71.6873" width="2.34473" height="3.08521" transform="rotate(69.6598 67.7568 71.6873)" fill="#F09797"/>
</g>
<g filter="url(#filter3_d_549_2438)">
<rect x="20.3894" y="19.2251" width="2.34473" height="3.0852" transform="rotate(-22.1798 20.3894 19.2251)" fill="#80C25F"/>
</g>
<g filter="url(#filter4_d_549_2438)">
<rect x="74.6133" y="80.4805" width="2.34473" height="3.0852" transform="rotate(69.213 74.6133 80.4805)" fill="#80C25F"/>
</g>
<g filter="url(#filter5_d_549_2438)">
<rect x="84.6133" y="50.4805" width="2.34473" height="3.0852" transform="rotate(69.213 84.6133 50.4805)" fill="#80C25F"/>
</g>
<g filter="url(#filter6_d_549_2438)">
<rect x="75.0935" y="43.429" width="2.34473" height="3.0852" transform="rotate(88.2582 75.0935 43.429)" fill="#80C25F"/>
</g>
<g filter="url(#filter7_d_549_2438)">
<rect x="81.1309" y="38.7275" width="2.34473" height="3.0852" transform="rotate(-52.7653 81.1309 38.7275)" fill="#F09797"/>
</g>
<g filter="url(#filter8_d_549_2438)">
<rect x="51.2993" y="73.2461" width="2.34473" height="3.0852" transform="rotate(38.6275 51.2993 73.2461)" fill="#F09797"/>
</g>
<g filter="url(#filter9_d_549_2438)">
<rect x="17.4592" y="59.9934" width="2.34473" height="3.0852" transform="rotate(-83.3508 17.4592 59.9934)" fill="#80C25F"/>
</g>
<g filter="url(#filter10_d_549_2438)">
<rect x="33.9282" y="76.5603" width="2.34473" height="3.0852" transform="rotate(8.04198 33.9282 76.5603)" fill="#80C25F"/>
</g>
<g filter="url(#filter11_d_549_2438)">
<rect x="78.9089" y="49.8684" width="2.34473" height="3.0852" transform="rotate(-113.936 78.9089 49.8684)" fill="#E5F854"/>
</g>
<g filter="url(#filter12_d_549_2438)">
<rect x="22.9207" y="79.4961" width="2.34473" height="3.0852" transform="rotate(-113.936 22.9207 79.4961)" fill="#E5F854"/>
</g>
<g filter="url(#filter13_d_549_2438)">
<rect x="21.9207" y="66.4961" width="2.34473" height="2.0852" transform="rotate(-113.936 21.9207 66.4961)" fill="#E5F854"/>
</g>
<g filter="url(#filter14_d_549_2438)">
<rect x="8.39941" y="53.7417" width="2.34473" height="3.0852" transform="rotate(-144.522 8.39941 53.7417)" fill="#80C25F"/>
</g>
<g filter="url(#filter15_d_549_2438)">
<rect x="13.0698" y="71.0557" width="2.34473" height="3.0852" transform="rotate(-175.107 13.0698 71.0557)" fill="#F09797"/>
</g>
<g filter="url(#filter16_d_549_2438)">
<rect x="16.0605" y="52.4731" width="2.34473" height="3.0852" transform="rotate(-83.7145 16.0605 52.4731)" fill="#F09797"/>
</g>
<path d="M72.6011 52.3604V56.0142" stroke="#80C25F" stroke-linecap="round"/>
<path d="M76.759 54.3577L73.9069 56.6415" stroke="#80C25F" stroke-linecap="round"/>
<path d="M77.7991 58.8518L74.2336 58.053" stroke="#80C25F" stroke-linecap="round"/>
<path d="M72.6011 59.3604V63.0142" stroke="#80C25F" stroke-linecap="round"/>
<path d="M71.2949 58.7329L68.4428 61.0167" stroke="#80C25F" stroke-linecap="round"/>
<path d="M70.9683 57.3213L67.4028 56.5225" stroke="#80C25F" stroke-linecap="round"/>
<path d="M45.4526 7.31946L48.9839 8.2577" stroke="#F09797" stroke-linecap="round"/>
<path d="M48.4507 3.8136L49.9256 7.15652" stroke="#F09797" stroke-linecap="round"/>
<path d="M53.0613 3.96265L51.3737 7.20341" stroke="#F09797" stroke-linecap="round"/>
<path d="M52.218 9.11694L55.7493 10.0552" stroke="#F09797" stroke-linecap="round"/>
<path d="M51.2764 10.218L52.7512 13.5609" stroke="#F09797" stroke-linecap="round"/>
<path d="M49.8281 10.1713L48.1406 13.412" stroke="#F09797" stroke-linecap="round"/>
<path d="M16.3999 30.4434L17.8592 33.7931" stroke="#E5F854" stroke-linecap="round"/>
<path d="M21.0095 30.6138L19.3069 33.8466" stroke="#E5F854" stroke-linecap="round"/>
<path d="M23.7578 34.3186L20.1701 35.0103" stroke="#E5F854" stroke-linecap="round"/>
<path d="M19.1956 36.8608L20.6548 40.2106" stroke="#E5F854" stroke-linecap="round"/>
<path d="M17.7476 36.8071L16.0449 40.04" stroke="#E5F854" stroke-linecap="round"/>
<path d="M16.8843 35.6436L13.2965 36.3352" stroke="#E5F854" stroke-linecap="round"/>
<defs>
<filter id="filter0_d_549_2438" x="10.7534" y="15.7495" width="3.34473" height="4.08521" filterUnits="userSpaceOnUse" color-interpolation-filters="sRGB">
<feFlood flood-opacity="0" result="BackgroundImageFix"/>
<feColorMatrix in="SourceAlpha" type="matrix" values="0 0 0 0 0 0 0 0 0 0 0 0 0 0 0 0 0 0 127 0" result="hardAlpha"/>
<feOffset dy="0.5"/>
<feGaussianBlur stdDeviation="0.25"/>
<feComposite in2="hardAlpha" operator="out"/>
<feColorMatrix type="matrix" values="0 0 0 0 0 0 0 0 0 0 0 0 0 0 0 0 0 0 0.3 0"/>
<feBlend mode="normal" in2="BackgroundImageFix" result="effect1_dropShadow_549_2438"/>
<feBlend mode="normal" in="SourceGraphic" in2="effect1_dropShadow_549_2438" result="shape"/>
</filter>
<filter id="filter1_d_549_2438" x="11.2656" y="25.425" width="4.32056" height="4.73413" filterUnits="userSpaceOnUse" color-interpolation-filters="sRGB">
<feFlood flood-opacity="0" result="BackgroundImageFix"/>
<feColorMatrix in="SourceAlpha" type="matrix" values="0 0 0 0 0 0 0 0 0 0 0 0 0 0 0 0 0 0 127 0" result="hardAlpha"/>
<feOffset dy="0.5"/>
<feGaussianBlur stdDeviation="0.25"/>
<feComposite in2="hardAlpha" operator="out"/>
<feColorMatrix type="matrix" values="0 0 0 0 0 0 0 0 0 0 0 0 0 0 0 0 0 0 0.3 0"/>
<feBlend mode="normal" in2="BackgroundImageFix" result="effect1_dropShadow_549_2438"/>
<feBlend mode="normal" in="SourceGraphic" in2="effect1_dropShadow_549_2438" result="shape"/>
</filter>
<filter id="filter2_d_549_2438" x="64.364" y="71.6873" width="4.70776" height="4.271" filterUnits="userSpaceOnUse" color-interpolation-filters="sRGB">
<feFlood flood-opacity="0" result="BackgroundImageFix"/>
<feColorMatrix in="SourceAlpha" type="matrix" values="0 0 0 0 0 0 0 0 0 0 0 0 0 0 0 0 0 0 127 0" result="hardAlpha"/>
<feOffset dy="0.5"/>
<feGaussianBlur stdDeviation="0.25"/>
<feComposite in2="hardAlpha" operator="out"/>
<feColorMatrix type="matrix" values="0 0 0 0 0 0 0 0 0 0 0 0 0 0 0 0 0 0 0.3 0"/>
<feBlend mode="normal" in2="BackgroundImageFix" result="effect1_dropShadow_549_2438"/>
<feBlend mode="normal" in="SourceGraphic" in2="effect1_dropShadow_549_2438" result="shape"/>
</filter>
<filter id="filter3_d_549_2438" x="19.8894" y="18.3398" width="4.33594" height="4.74219" filterUnits="userSpaceOnUse" color-interpolation-filters="sRGB">
<feFlood flood-opacity="0" result="BackgroundImageFix"/>
<feColorMatrix in="SourceAlpha" type="matrix" values="0 0 0 0 0 0 0 0 0 0 0 0 0 0 0 0 0 0 127 0" result="hardAlpha"/>
<feOffset dy="0.5"/>
<feGaussianBlur stdDeviation="0.25"/>
<feComposite in2="hardAlpha" operator="out"/>
<feColorMatrix type="matrix" values="0 0 0 0 0 0 0 0 0 0 0 0 0 0 0 0 0 0 0.3 0"/>
<feBlend mode="normal" in2="BackgroundImageFix" result="effect1_dropShadow_549_2438"/>
<feBlend mode="normal" in="SourceGraphic" in2="effect1_dropShadow_549_2438" result="shape"/>
</filter>
<filter id="filter4_d_549_2438" x="71.229" y="80.4805" width="4.71631" height="4.28711" filterUnits="userSpaceOnUse" color-interpolation-filters="sRGB">
<feFlood flood-opacity="0" result="BackgroundImageFix"/>
<feColorMatrix in="SourceAlpha" type="matrix" values="0 0 0 0 0 0 0 0 0 0 0 0 0 0 0 0 0 0 127 0" result="hardAlpha"/>
<feOffset dy="0.5"/>
<feGaussianBlur stdDeviation="0.25"/>
<feComposite in2="hardAlpha" operator="out"/>
<feColorMatrix type="matrix" values="0 0 0 0 0 0 0 0 0 0 0 0 0 0 0 0 0 0 0.3 0"/>
<feBlend mode="normal" in2="BackgroundImageFix" result="effect1_dropShadow_549_2438"/>
<feBlend mode="normal" in="SourceGraphic" in2="effect1_dropShadow_549_2438" result="shape"/>
</filter>
<filter id="filter5_d_549_2438" x="81.229" y="50.4805" width="4.71631" height="4.28711" filterUnits="userSpaceOnUse" color-interpolation-filters="sRGB">
<feFlood flood-opacity="0" result="BackgroundImageFix"/>
<feColorMatrix in="SourceAlpha" type="matrix" values="0 0 0 0 0 0 0 0 0 0 0 0 0 0 0 0 0 0 127 0" result="hardAlpha"/>
<feOffset dy="0.5"/>
<feGaussianBlur stdDeviation="0.25"/>
<feComposite in2="hardAlpha" operator="out"/>
<feColorMatrix type="matrix" values="0 0 0 0 0 0 0 0 0 0 0 0 0 0 0 0 0 0 0.3 0"/>
<feBlend mode="normal" in2="BackgroundImageFix" result="effect1_dropShadow_549_2438"/>
<feBlend mode="normal" in="SourceGraphic" in2="effect1_dropShadow_549_2438" result="shape"/>
</filter>
<filter id="filter6_d_549_2438" x="71.5098" y="43.429" width="4.15503" height="3.4375" filterUnits="userSpaceOnUse" color-interpolation-filters="sRGB">
<feFlood flood-opacity="0" result="BackgroundImageFix"/>
<feColorMatrix in="SourceAlpha" type="matrix" values="0 0 0 0 0 0 0 0 0 0 0 0 0 0 0 0 0 0 127 0" result="hardAlpha"/>
<feOffset dy="0.5"/>
<feGaussianBlur stdDeviation="0.25"/>
<feComposite in2="hardAlpha" operator="out"/>
<feColorMatrix type="matrix" values="0 0 0 0 0 0 0 0 0 0 0 0 0 0 0 0 0 0 0.3 0"/>
<feBlend mode="normal" in2="BackgroundImageFix" result="effect1_dropShadow_549_2438"/>
<feBlend mode="normal" in="SourceGraphic" in2="effect1_dropShadow_549_2438" result="shape"/>
</filter>
<filter id="filter7_d_549_2438" x="80.6309" y="36.8608" width="4.875" height="4.7334" filterUnits="userSpaceOnUse" color-interpolation-filters="sRGB">
<feFlood flood-opacity="0" result="BackgroundImageFix"/>
<feColorMatrix in="SourceAlpha" type="matrix" values="0 0 0 0 0 0 0 0 0 0 0 0 0 0 0 0 0 0 127 0" result="hardAlpha"/>
<feOffset dy="0.5"/>
<feGaussianBlur stdDeviation="0.25"/>
<feComposite in2="hardAlpha" operator="out"/>
<feColorMatrix type="matrix" values="0 0 0 0 0 0 0 0 0 0 0 0 0 0 0 0 0 0 0.3 0"/>
<feBlend mode="normal" in2="BackgroundImageFix" result="effect1_dropShadow_549_2438"/>
<feBlend mode="normal" in="SourceGraphic" in2="effect1_dropShadow_549_2438" result="shape"/>
</filter>
<filter id="filter8_d_549_2438" x="48.8733" y="73.2461" width="4.75781" height="4.87402" filterUnits="userSpaceOnUse" color-interpolation-filters="sRGB">
<feFlood flood-opacity="0" result="BackgroundImageFix"/>
<feColorMatrix in="SourceAlpha" type="matrix" values="0 0 0 0 0 0 0 0 0 0 0 0 0 0 0 0 0 0 127 0" result="hardAlpha"/>
<feOffset dy="0.5"/>
<feGaussianBlur stdDeviation="0.25"/>
<feComposite in2="hardAlpha" operator="out"/>
<feColorMatrix type="matrix" values="0 0 0 0 0 0 0 0 0 0 0 0 0 0 0 0 0 0 0.3 0"/>
<feBlend mode="normal" in2="BackgroundImageFix" result="effect1_dropShadow_549_2438"/>
<feBlend mode="normal" in="SourceGraphic" in2="effect1_dropShadow_549_2438" result="shape"/>
</filter>
<filter id="filter9_d_549_2438" x="16.9592" y="57.6646" width="4.33594" height="3.68604" filterUnits="userSpaceOnUse" color-interpolation-filters="sRGB">
<feFlood flood-opacity="0" result="BackgroundImageFix"/>
<feColorMatrix in="SourceAlpha" type="matrix" values="0 0 0 0 0 0 0 0 0 0 0 0 0 0 0 0 0 0 127 0" result="hardAlpha"/>
<feOffset dy="0.5"/>
<feGaussianBlur stdDeviation="0.25"/>
<feComposite in2="hardAlpha" operator="out"/>
<feColorMatrix type="matrix" values="0 0 0 0 0 0 0 0 0 0 0 0 0 0 0 0 0 0 0.3 0"/>
<feBlend mode="normal" in2="BackgroundImageFix" result="effect1_dropShadow_549_2438"/>
<feBlend mode="normal" in="SourceGraphic" in2="effect1_dropShadow_549_2438" result="shape"/>
</filter>
<filter id="filter10_d_549_2438" x="32.9966" y="76.5603" width="3.75342" height="4.38281" filterUnits="userSpaceOnUse" color-interpolation-filters="sRGB">
<feFlood flood-opacity="0" result="BackgroundImageFix"/>
<feColorMatrix in="SourceAlpha" type="matrix" values="0 0 0 0 0 0 0 0 0 0 0 0 0 0 0 0 0 0 127 0" result="hardAlpha"/>
<feOffset dy="0.5"/>
<feGaussianBlur stdDeviation="0.25"/>
<feComposite in2="hardAlpha" operator="out"/>
<feColorMatrix type="matrix" values="0 0 0 0 0 0 0 0 0 0 0 0 0 0 0 0 0 0 0.3 0"/>
<feBlend mode="normal" in2="BackgroundImageFix" result="effect1_dropShadow_549_2438"/>
<feBlend mode="normal" in="SourceGraphic" in2="effect1_dropShadow_549_2438" result="shape"/>
</filter>
<filter id="filter11_d_549_2438" x="77.4575" y="46.4736" width="4.77124" height="4.39478" filterUnits="userSpaceOnUse" color-interpolation-filters="sRGB">
<feFlood flood-opacity="0" result="BackgroundImageFix"/>
<feColorMatrix in="SourceAlpha" type="matrix" values="0 0 0 0 0 0 0 0 0 0 0 0 0 0 0 0 0 0 127 0" result="hardAlpha"/>
<feOffset dy="0.5"/>
<feGaussianBlur stdDeviation="0.25"/>
<feComposite in2="hardAlpha" operator="out"/>
<feColorMatrix type="matrix" values="0 0 0 0 0 0 0 0 0 0 0 0 0 0 0 0 0 0 0.3 0"/>
<feBlend mode="normal" in2="BackgroundImageFix" result="effect1_dropShadow_549_2438"/>
<feBlend mode="normal" in="SourceGraphic" in2="effect1_dropShadow_549_2438" result="shape"/>
</filter>
<filter id="filter12_d_549_2438" x="21.4692" y="76.1013" width="4.77124" height="4.39478" filterUnits="userSpaceOnUse" color-interpolation-filters="sRGB">
<feFlood flood-opacity="0" result="BackgroundImageFix"/>
<feColorMatrix in="SourceAlpha" type="matrix" values="0 0 0 0 0 0 0 0 0 0 0 0 0 0 0 0 0 0 127 0" result="hardAlpha"/>
<feOffset dy="0.5"/>
<feGaussianBlur stdDeviation="0.25"/>
<feComposite in2="hardAlpha" operator="out"/>
<feColorMatrix type="matrix" values="0 0 0 0 0 0 0 0 0 0 0 0 0 0 0 0 0 0 0.3 0"/>
<feBlend mode="normal" in2="BackgroundImageFix" result="effect1_dropShadow_549_2438"/>
<feBlend mode="normal" in="SourceGraphic" in2="effect1_dropShadow_549_2438" result="shape"/>
</filter>
<filter id="filter13_d_549_2438" x="20.4692" y="63.5071" width="3.85718" height="3.98901" filterUnits="userSpaceOnUse" color-interpolation-filters="sRGB">
<feFlood flood-opacity="0" result="BackgroundImageFix"/>
<feColorMatrix in="SourceAlpha" type="matrix" values="0 0 0 0 0 0 0 0 0 0 0 0 0 0 0 0 0 0 127 0" result="hardAlpha"/>
<feOffset dy="0.5"/>
<feGaussianBlur stdDeviation="0.25"/>
<feComposite in2="hardAlpha" operator="out"/>
<feColorMatrix type="matrix" values="0 0 0 0 0 0 0 0 0 0 0 0 0 0 0 0 0 0 0.3 0"/>
<feBlend mode="normal" in2="BackgroundImageFix" result="effect1_dropShadow_549_2438"/>
<feBlend mode="normal" in="SourceGraphic" in2="effect1_dropShadow_549_2438" result="shape"/>
</filter>
<filter id="filter14_d_549_2438" x="5.98999" y="49.8684" width="4.69995" height="4.87329" filterUnits="userSpaceOnUse" color-interpolation-filters="sRGB">
<feFlood flood-opacity="0" result="BackgroundImageFix"/>
<feColorMatrix in="SourceAlpha" type="matrix" values="0 0 0 0 0 0 0 0 0 0 0 0 0 0 0 0 0 0 127 0" result="hardAlpha"/>
<feOffset dy="0.5"/>
<feGaussianBlur stdDeviation="0.25"/>
<feComposite in2="hardAlpha" operator="out"/>
<feColorMatrix type="matrix" values="0 0 0 0 0 0 0 0 0 0 0 0 0 0 0 0 0 0 0.3 0"/>
<feBlend mode="normal" in2="BackgroundImageFix" result="effect1_dropShadow_549_2438"/>
<feBlend mode="normal" in="SourceGraphic" in2="effect1_dropShadow_549_2438" result="shape"/>
</filter>
<filter id="filter15_d_549_2438" x="10.2336" y="67.7817" width="3.59937" height="4.27393" filterUnits="userSpaceOnUse" color-interpolation-filters="sRGB">
<feFlood flood-opacity="0" result="BackgroundImageFix"/>
<feColorMatrix in="SourceAlpha" type="matrix" values="0 0 0 0 0 0 0 0 0 0 0 0 0 0 0 0 0 0 127 0" result="hardAlpha"/>
<feOffset dy="0.5"/>
<feGaussianBlur stdDeviation="0.25"/>
<feComposite in2="hardAlpha" operator="out"/>
<feColorMatrix type="matrix" values="0 0 0 0 0 0 0 0 0 0 0 0 0 0 0 0 0 0 0.3 0"/>
<feBlend mode="normal" in2="BackgroundImageFix" result="effect1_dropShadow_549_2438"/>
<feBlend mode="normal" in="SourceGraphic" in2="effect1_dropShadow_549_2438" result="shape"/>
</filter>
<filter id="filter16_d_549_2438" x="15.5605" y="50.1426" width="4.32349" height="3.66846" filterUnits="userSpaceOnUse" color-interpolation-filters="sRGB">
<feFlood flood-opacity="0" result="BackgroundImageFix"/>
<feColorMatrix in="SourceAlpha" type="matrix" values="0 0 0 0 0 0 0 0 0 0 0 0 0 0 0 0 0 0 127 0" result="hardAlpha"/>
<feOffset dy="0.5"/>
<feGaussianBlur stdDeviation="0.25"/>
<feComposite in2="hardAlpha" operator="out"/>
<feColorMatrix type="matrix" values="0 0 0 0 0 0 0 0 0 0 0 0 0 0 0 0 0 0 0.3 0"/>
<feBlend mode="normal" in2="BackgroundImageFix" result="effect1_dropShadow_549_2438"/>
<feBlend mode="normal" in="SourceGraphic" in2="effect1_dropShadow_549_2438" result="shape"/>
</filter>
</defs>
</svg>
