<svg width="148" height="96" viewBox="0 0 148 96" fill="none" xmlns="http://www.w3.org/2000/svg">
<ellipse cx="51.2896" cy="54.8476" rx="7.73684" ry="12.5122" fill="#474747"/>
<ellipse cx="51.2897" cy="34.433" rx="6.44737" ry="6.58537" fill="#474747"/>
<path d="M57.1388 35.1856C57.4045 35.9382 58.0689 35.9382 58.3347 35.1856L58.9327 33.4922C59.1984 32.7396 58.8662 31.7988 58.3347 31.7988H57.1388C56.6072 31.7988 56.275 32.7396 56.5408 33.4922L57.1388 35.1856Z" fill="#D3D2D2"/>
<path d="M44.2442 35.1856C44.51 35.9382 45.1744 35.9382 45.4402 35.1856L46.0381 33.4922C46.3039 32.7396 45.9717 31.7988 45.4402 31.7988H44.2442C43.7127 31.7988 43.3805 32.7396 43.6463 33.4922L44.2442 35.1856Z" fill="#D3D2D2"/>
<path fill-rule="evenodd" clip-rule="evenodd" d="M52.559 35.75C52.4517 36.3668 51.9241 36.8352 51.2894 36.8352C50.6547 36.8352 50.1271 36.3668 50.0198 35.75C48.9649 36.2016 48.7104 37.2027 48.7104 37.7543C48.7104 38.1522 49.1528 38.1522 51.2888 38.1522H51.2894H51.29C53.426 38.1522 53.8683 38.1522 53.8683 37.7543C53.8683 37.2027 53.6138 36.2016 52.559 35.75Z" fill="#D3D2D2"/>
<ellipse cx="72.5655" cy="54.8476" rx="7.73684" ry="12.5122" fill="#474747"/>
<mask id="mask0_395_2896" style="mask-type:alpha" maskUnits="userSpaceOnUse" x="64" y="42" width="17" height="26">
<ellipse cx="72.5655" cy="54.8476" rx="7.73684" ry="12.5122" fill="#474747"/>
</mask>
<g mask="url(#mask0_395_2896)">
<rect x="61.11" y="41.9835" width="22.9105" height="12.0555" fill="#0A427A" stroke="white" stroke-width="0.3"/>
</g>
<ellipse cx="72.5655" cy="34.433" rx="6.44737" ry="6.58537" fill="#474747"/>
<rect width="16.7661" height="6.58426" rx="3.29213" transform="matrix(0.995783 0.0917378 -0.0879634 0.996124 70.5654 42.3354)" fill="#474747"/>
<mask id="mask1_395_2896" style="mask-type:alpha" maskUnits="userSpaceOnUse" x="70" y="42" width="17" height="9">
<rect width="16.7661" height="6.58426" rx="3.29213" transform="matrix(0.995783 0.0917378 -0.0879634 0.996124 70.5654 42.3354)" fill="#474747"/>
</mask>
<g mask="url(#mask1_395_2896)">
<rect x="0.133903" y="0.165127" width="15.1773" height="11.551" transform="matrix(0.994363 0.106027 -0.101677 0.994817 64.2006 37.5824)" fill="#0A427A" stroke="white" stroke-width="0.3"/>
</g>
<path fill-rule="evenodd" clip-rule="evenodd" d="M10.0672 47.3721C4.91256 47.3721 0.733887 51.1847 0.733887 55.8878V74.4173C0.733887 79.1204 4.91256 82.933 10.0672 82.933H14.4762C14.4614 82.6252 14.4539 82.3152 14.4539 82.0034C14.4539 72.1835 21.9128 64.2229 31.1139 64.2229C40.3149 64.2229 47.7739 72.1835 47.7739 82.0034C47.7739 82.3152 47.7663 82.6252 47.7515 82.933H96.7962C96.7814 82.6252 96.7739 82.3152 96.7739 82.0034C96.7739 72.1835 104.233 64.2229 113.434 64.2229C122.635 64.2229 130.094 72.1835 130.094 82.0034C130.094 82.3152 130.086 82.6252 130.071 82.933H138.401C143.555 82.933 147.734 79.1204 147.734 74.4173V55.8878C147.734 51.1847 143.555 47.3721 138.401 47.3721H10.0672Z" fill="#0080FF"/>
<path fill-rule="evenodd" clip-rule="evenodd" d="M31.1139 94.8445C38.0574 94.8445 43.6862 89.0952 43.6862 82.0031C43.6862 74.9109 38.0574 69.1616 31.1139 69.1616C24.1703 69.1616 18.5415 74.9109 18.5415 82.0031C18.5415 89.0952 24.1703 94.8445 31.1139 94.8445ZM113.434 94.8445C120.377 94.8445 126.006 89.0952 126.006 82.0031C126.006 74.9109 120.377 69.1616 113.434 69.1616C106.49 69.1616 100.861 74.9109 100.861 82.0031C100.861 89.0952 106.49 94.8445 113.434 94.8445Z" fill="#474747"/>
<path d="M33.6479 13.7866C28.2888 13.7866 23.9443 17.6323 23.9443 22.3762V52.4399C23.9443 57.1838 28.2888 61.0295 33.6479 61.0295H47.8004C42.462 61.008 38.1418 57.1706 38.1418 52.4399V27.0501C38.1418 25.8641 39.2279 24.9027 40.5677 24.9027H79.9553C80.5943 24.9027 81.2075 25.1259 81.6617 25.5237L99.1108 46.3346C105.262 51.7229 100.97 60.9961 92.3319 61.0295H110.932C119.744 61.0295 123.994 51.4705 117.545 46.1541L87.3861 16.0905C85.5901 14.6098 83.227 13.7866 80.7728 13.7866H33.6479Z" fill="#0080FF"/>
</svg>
