<svg xmlns="http://www.w3.org/2000/svg" style="display: none;">
<symbol id="car1" viewBox="0 0 148 96">
<ellipse cx="72.5655" cy="54.8476" rx="7.73684" ry="12.5122" fill="#474747"/>
<rect x="61.11" y="41.9835" width="22.9105" height="12.0555" fill="#0A427A" stroke="white" stroke-width="0.3"/>
<ellipse cx="72.5655" cy="34.433" rx="6.44737" ry="6.58537" fill="#474747"/>
<rect width="16.7661" height="6.58426" rx="3.29213" transform="matrix(0.995783 0.0917378 -0.0879634 0.996124 70.5654 42.3354)" fill="#474747"/>
<rect x="0.133903" y="0.165127" width="15.1773" height="11.551" transform="matrix(0.994363 0.106027 -0.101677 0.994817 64.2006 37.5824)" fill="#0A427A" stroke="white" stroke-width="0.3"/>
<path fill-rule="evenodd" clip-rule="evenodd" d="M10.0672 47.3721C4.91256 47.3721 0.733887 51.1847 0.733887 55.8878V74.4173C0.733887 79.1204 4.91256 82.933 10.0672 82.933H14.4762C14.4614 82.6252 14.4539 82.3152 14.4539 82.0034C14.4539 72.1835 21.9128 64.2229 31.1139 64.2229C40.3149 64.2229 47.7739 72.1835 47.7739 82.0034C47.7739 82.3152 47.7663 82.6252 47.7515 82.933H96.7962C96.7814 82.6252 96.7739 82.3152 96.7739 82.0034C96.7739 72.1835 104.233 64.2229 113.434 64.2229C122.635 64.2229 130.094 72.1835 130.094 82.0034C130.094 82.3152 130.086 82.6252 130.071 82.933H138.401C143.555 82.933 147.734 79.1204 147.734 74.4173V55.8878C147.734 51.1847 143.555 47.3721 138.401 47.3721H10.0672Z" fill="#0080FF"/>
<path fill-rule="evenodd" clip-rule="evenodd" d="M31.1139 94.8445C38.0574 94.8445 43.6862 89.0952 43.6862 82.0031C43.6862 74.9109 38.0574 69.1616 31.1139 69.1616C24.1703 69.1616 18.5415 74.9109 18.5415 82.0031C18.5415 89.0952 24.1703 94.8445 31.1139 94.8445ZM113.434 94.8445C120.377 94.8445 126.006 89.0952 126.006 82.0031C126.006 74.9109 120.377 69.1616 113.434 69.1616C106.49 69.1616 100.861 74.9109 100.861 82.0031C100.861 89.0952 106.49 94.8445 113.434 94.8445Z" fill="#474747"/>
<path d="M33.6479 13.7866C28.2888 13.7866 23.9443 17.6323 23.9443 22.3762V52.4399C23.9443 57.1838 28.2888 61.0295 33.6479 61.0295H47.8004C42.462 61.008 38.1418 57.1706 38.1418 52.4399V27.0501C38.1418 25.8641 39.2279 24.9027 40.5677 24.9027H79.9553C80.5943 24.9027 81.2075 25.1259 81.6617 25.5237L99.1108 46.3346C105.262 51.7229 100.97 60.9961 92.3319 61.0295H110.932C119.744 61.0295 123.994 51.4705 117.545 46.1541L87.3861 16.0905C85.5901 14.6098 83.227 13.7866 80.7728 13.7866H33.6479Z" fill="#0080FF"/>
</symbol>
<symbol id="car2" viewBox="0 0 148 96">
<ellipse cx="51.2896" cy="54.8476" rx="7.73684" ry="12.5122" fill="#474747"/>
<ellipse cx="51.2897" cy="34.433" rx="6.44737" ry="6.58537" fill="#474747"/>
<path d="M57.1388 35.1856C57.4045 35.9382 58.0689 35.9382 58.3347 35.1856L58.9327 33.4922C59.1984 32.7396 58.8662 31.7988 58.3347 31.7988H57.1388C56.6072 31.7988 56.275 32.7396 56.5408 33.4922L57.1388 35.1856Z" fill="#D3D2D2"/>
<path d="M44.2442 35.1856C44.51 35.9382 45.1744 35.9382 45.4402 35.1856L46.0381 33.4922C46.3039 32.7396 45.9717 31.7988 45.4402 31.7988H44.2442C43.7127 31.7988 43.3805 32.7396 43.6463 33.4922L44.2442 35.1856Z" fill="#D3D2D2"/>
<path fill-rule="evenodd" clip-rule="evenodd" d="M52.559 35.75C52.4517 36.3668 51.9241 36.8352 51.2894 36.8352C50.6547 36.8352 50.1271 36.3668 50.0198 35.75C48.9649 36.2016 48.7104 37.2027 48.7104 37.7543C48.7104 38.1522 49.1528 38.1522 51.2888 38.1522H51.2894H51.29C53.426 38.1522 53.8683 38.1522 53.8683 37.7543C53.8683 37.2027 53.6138 36.2016 52.559 35.75Z" fill="#D3D2D2"/>
<ellipse cx="72.5655" cy="54.8476" rx="7.73684" ry="12.5122" fill="#474747"/>
<ellipse cx="72.5655" cy="34.433" rx="6.44737" ry="6.58537" fill="#474747"/>
<rect width="16.7661" height="6.58426" rx="3.29213" transform="matrix(0.995783 0.0917378 -0.0879634 0.996124 70.5654 42.3354)" fill="#474747"/>
<path fill-rule="evenodd" clip-rule="evenodd" d="M10.0672 47.3721C4.91256 47.3721 0.733887 51.1847 0.733887 55.8878V74.4173C0.733887 79.1204 4.91256 82.933 10.0672 82.933H14.4762C14.4614 82.6252 14.4539 82.3152 14.4539 82.0034C14.4539 72.1835 21.9128 64.2229 31.1139 64.2229C40.3149 64.2229 47.7739 72.1835 47.7739 82.0034C47.7739 82.3152 47.7663 82.6252 47.7515 82.933H96.7962C96.7814 82.6252 96.7739 82.3152 96.7739 82.0034C96.7739 72.1835 104.233 64.2229 113.434 64.2229C122.635 64.2229 130.094 72.1835 130.094 82.0034C130.094 82.3152 130.086 82.6252 130.071 82.933H138.401C143.555 82.933 147.734 79.1204 147.734 74.4173V55.8878C147.734 51.1847 143.555 47.3721 138.401 47.3721H10.0672Z" fill="#0080FF"/>
<path fill-rule="evenodd" clip-rule="evenodd" d="M31.1139 94.8445C38.0574 94.8445 43.6862 89.0952 43.6862 82.0031C43.6862 74.9109 38.0574 69.1616 31.1139 69.1616C24.1703 69.1616 18.5415 74.9109 18.5415 82.0031C18.5415 89.0952 24.1703 94.8445 31.1139 94.8445ZM113.434 94.8445C120.377 94.8445 126.006 89.0952 126.006 82.0031C126.006 74.9109 120.377 69.1616 113.434 69.1616C106.49 69.1616 100.861 74.9109 100.861 82.0031C100.861 89.0952 106.49 94.8445 113.434 94.8445Z" fill="#474747"/>
<path d="M33.6479 13.7866C28.2888 13.7866 23.9443 17.6323 23.9443 22.3762V52.4399C23.9443 57.1838 28.2888 61.0295 33.6479 61.0295H47.8004C42.462 61.008 38.1418 57.1706 38.1418 52.4399V27.0501C38.1418 25.8641 39.2279 24.9027 40.5677 24.9027H79.9553C80.5943 24.9027 81.2075 25.1259 81.6617 25.5237L99.1108 46.3346C105.262 51.7229 100.97 60.9961 92.3319 61.0295H110.932C119.744 61.0295 123.994 51.4705 117.545 46.1541L87.3861 16.0905C85.5901 14.6098 83.227 13.7866 80.7728 13.7866H33.6479Z" fill="#0080FF"/>
</symbol>

<symbol id="car3" viewBox="0 0 148 96">
<svg width="148" height="96" viewBox="0 0 148 96" fill="none" xmlns="http://www.w3.org/2000/svg">
<ellipse cx="72.5655" cy="56.8232" rx="7.73684" ry="12.5122" fill="#474747"/>
<mask id="mask0_395_28951" style="mask-type:alpha" maskUnits="userSpaceOnUse" x="64" y="44" width="17" height="26">
<ellipse cx="72.5655" cy="56.8232" rx="7.73684" ry="12.5122" fill="#474747"/>
</mask>
<g mask="url(#mask0_395_28952)">
<rect x="61.11" y="43.9591" width="22.9105" height="12.0555" fill="#0A427A" stroke="white" stroke-width="0.3"/>
</g>
<ellipse cx="72.5655" cy="36.4086" rx="6.44737" ry="6.58537" fill="#474747"/>
<rect width="16.7661" height="6.58426" rx="3.29213" transform="matrix(0.995783 0.0917378 -0.0879634 0.996124 70.5654 44.311)" fill="#474747"/>
<mask id="mask1_395_2895" style="mask-type:alpha" maskUnits="userSpaceOnUse" x="70" y="44" width="17" height="9">
<rect width="16.7661" height="6.58426" rx="3.29213" transform="matrix(0.995783 0.0917378 -0.0879634 0.996124 70.5654 44.311)" fill="#474747"/>
</mask>
<g mask="url(#mask1_395_28953)">
<rect x="0.133903" y="0.165127" width="15.1773" height="11.551" transform="matrix(0.994363 0.106027 -0.101677 0.994817 64.2006 39.5579)" fill="#0A427A" stroke="white" stroke-width="0.3"/>
</g>
<path fill-rule="evenodd" clip-rule="evenodd" d="M31.1139 94.845C38.0574 94.845 43.6862 89.0957 43.6862 82.0036C43.6862 74.9114 38.0574 69.1621 31.1139 69.1621C24.1703 69.1621 18.5415 74.9114 18.5415 82.0036C18.5415 89.0957 24.1703 94.845 31.1139 94.845ZM113.434 94.845C120.377 94.845 126.006 89.0957 126.006 82.0036C126.006 74.9114 120.377 69.1621 113.434 69.1621C106.49 69.1621 100.861 74.9114 100.861 82.0036C100.861 89.0957 106.49 94.845 113.434 94.845Z" fill="#474747"/>
<path fill-rule="evenodd" clip-rule="evenodd" d="M142.793 15.7459C144.8 14.1169 146.066 11.7342 146.066 9.0797C146.066 4.16975 141.736 0.189453 136.395 0.189453C131.054 0.189453 126.724 4.16975 126.724 9.0797C126.724 12.1706 128.44 14.893 131.043 16.4861C129.565 17.9025 128.658 19.8156 128.658 21.9212C128.658 24.8566 130.421 27.4183 133.038 28.781C132.709 29.4003 132.526 30.0877 132.526 30.8114C132.526 33.0398 134.26 34.9236 136.642 35.5385C136.483 35.9053 136.395 36.3112 136.395 36.7382C136.395 37.3485 136.575 37.9158 136.885 38.3872C136.58 38.7364 136.395 39.1969 136.395 39.7016C136.395 40.7927 137.261 41.6773 138.329 41.6773C139.397 41.6773 140.263 40.7927 140.263 39.7016C140.263 39.6457 140.261 39.5902 140.256 39.5355C141.387 39.1306 142.197 38.0311 142.197 36.7382C142.197 36.0463 141.965 35.4097 141.576 34.9053C143.118 34.0176 144.132 32.5152 144.132 30.8114C144.132 29.7304 143.724 28.7306 143.031 27.9173C144.889 26.468 146.066 24.3193 146.066 21.9212C146.066 19.4221 144.788 17.194 142.793 15.7459Z" fill="#A1A1A1"/>
<path fill-rule="evenodd" clip-rule="evenodd" d="M79.7529 14.0186L73.4343 20.4571L84.0813 18.6007L88.4664 28.6828L90.3124 19.2394L117.545 46.3861C117.927 46.7008 118.271 47.0305 118.579 47.3722H138.401C138.981 47.3722 139.55 47.4206 140.101 47.5132L140.086 50.9374L126.664 54.8811L140.046 59.9463L139.98 74.523L147.734 63.8765V74.4174C147.734 79.1205 143.555 82.9331 138.401 82.9331H130.071C130.086 82.6252 130.094 82.3153 130.094 82.0035C130.094 72.1836 122.635 64.223 113.434 64.223C104.233 64.223 96.7739 72.1836 96.7739 82.0035C96.7739 82.3153 96.7814 82.6252 96.7962 82.9331H47.7515C47.7663 82.6252 47.7739 82.3153 47.7739 82.0035C47.7739 72.1836 40.3149 64.223 31.1139 64.223C21.9128 64.223 14.4539 72.1836 14.4539 82.0035C14.4539 82.3153 14.4614 82.6252 14.4762 82.9331H10.0672C4.91256 82.9331 0.733887 79.1205 0.733887 74.4174V55.8879C0.733887 51.1848 4.91256 47.3722 10.0672 47.3722H23.9444V22.6082C23.9444 17.8643 28.2888 14.0186 33.648 14.0186H79.7529ZM99.929 47.3722H38.1419V27.282C38.1419 26.096 39.228 25.1346 40.5678 25.1346H79.9554C80.5944 25.1346 81.2076 25.3578 81.6618 25.7557L99.1109 46.5665C99.4077 46.8265 99.6801 47.0955 99.929 47.3722Z" fill="#0080FF"/>
</symbol>
</svg>