<svg width="146" height="92" viewBox="0 0 146 92" fill="none" xmlns="http://www.w3.org/2000/svg">
<ellipse cx="50.6052" cy="52.43" rx="7.63158" ry="12.0833" fill="#474747"/>
<ellipse cx="50.6053" cy="32.7151" rx="6.35965" ry="6.35965" fill="#474747"/>
<path d="M56.375 33.4421C56.6371 34.1689 57.2925 34.1689 57.5546 33.4421L58.1445 31.8067C58.4066 31.0799 58.0789 30.1714 57.5546 30.1714H56.375C55.8507 30.1714 55.523 31.0799 55.7851 31.8067L56.375 33.4421Z" fill="#D3D2D2"/>
<path d="M43.6557 33.4421C43.9179 34.1689 44.5732 34.1689 44.8354 33.4421L45.4252 31.8067C45.6874 31.0799 45.3597 30.1714 44.8354 30.1714H43.6557C43.1314 30.1714 42.8037 31.0799 43.0659 31.8067L43.6557 33.4421Z" fill="#D3D2D2"/>
<path fill-rule="evenodd" clip-rule="evenodd" d="M51.8574 33.9868C51.7516 34.5825 51.2312 35.0348 50.6051 35.0348C49.9791 35.0348 49.4587 34.5825 49.3529 33.9868C48.3123 34.4229 48.0613 35.3897 48.0613 35.9224C48.0613 36.3067 48.4976 36.3067 50.6045 36.3067H50.6051H50.6058C52.7126 36.3067 53.149 36.3067 53.149 35.9224C53.149 35.3897 52.898 34.4229 51.8574 33.9868Z" fill="#D3D2D2"/>
<ellipse cx="71.5923" cy="52.43" rx="7.63158" ry="12.0833" fill="#474747"/>
<path d="M79.2136 51.944H79.3686L79.3635 51.7891C79.2583 48.5771 78.3667 45.6872 76.9797 43.5958C75.5937 41.5058 73.6997 40.1967 71.5924 40.1967C69.485 40.1967 67.5911 41.5058 66.2051 43.5958C64.8181 45.6872 63.9265 48.5771 63.8213 51.7891L63.8162 51.944H63.9712H79.2136Z" fill="#0A427A" stroke="white" stroke-width="0.3"/>
<circle cx="71.5923" cy="32.7151" r="6.35965" fill="#474747"/>
<rect x="69.6196" y="40.3467" width="16.5351" height="6.35965" rx="3.17983" transform="rotate(5.15389 69.6196 40.3467)" fill="#474747"/>
<path d="M78.2618 41.1281L78.2776 40.9768L78.126 40.9632L72.8002 40.4828C70.9686 40.3176 69.3499 41.6685 69.1847 43.5C69.0195 45.3316 70.3704 46.9503 72.2019 47.1155L77.4387 47.5879L77.586 47.6012L77.6014 47.454L78.2618 41.1281Z" fill="#0A427A" stroke="white" stroke-width="0.3"/>
<path fill-rule="evenodd" clip-rule="evenodd" d="M9.9439 45.2104C4.85937 45.2104 0.737549 48.8924 0.737549 53.4343V71.3287C0.737549 75.8706 4.85937 79.5526 9.9439 79.5526H14.2929C14.2783 79.2552 14.2709 78.9559 14.2709 78.6547C14.2709 69.1714 21.6283 61.4837 30.7042 61.4837C39.7801 61.4837 47.1375 69.1714 47.1375 78.6547C47.1375 78.9559 47.1301 79.2552 47.1155 79.5526H95.4929C95.4783 79.2552 95.4709 78.9559 95.4709 78.6547C95.4709 69.1714 102.828 61.4837 111.904 61.4837C120.98 61.4837 128.338 69.1714 128.338 78.6547C128.338 78.9559 128.33 79.2552 128.315 79.5526H136.531C141.616 79.5526 145.738 75.8706 145.738 71.3287V53.4343C145.738 48.8924 141.616 45.2104 136.531 45.2104H9.9439Z" fill="#0080FF"/>
<path fill-rule="evenodd" clip-rule="evenodd" d="M30.7043 91.056C37.5534 91.056 43.1056 85.5038 43.1056 78.6547C43.1056 71.8057 37.5534 66.2534 30.7043 66.2534C23.8552 66.2534 18.303 71.8057 18.303 78.6547C18.303 85.5038 23.8552 91.056 30.7043 91.056ZM111.904 91.056C118.753 91.056 124.305 85.5038 124.305 78.6547C124.305 71.8057 118.753 66.2534 111.904 66.2534C105.055 66.2534 99.5029 71.8057 99.5029 78.6547C99.5029 85.5038 105.055 91.056 111.904 91.056Z" fill="#474747"/>
<path d="M33.2039 12.7764C27.9176 12.7764 23.6323 16.4903 23.6323 21.0716V50.1047C23.6323 54.6861 27.9176 58.3999 33.2039 58.3999H47.1638C41.898 58.3793 37.6366 54.6733 37.6366 50.1048V25.5852C37.6366 24.4399 38.7079 23.5114 40.0295 23.5114H78.8812C79.5115 23.5114 80.1164 23.7269 80.5644 24.1112L97.7761 44.2087C103.843 49.4124 99.6101 58.3678 91.0895 58.3999H109.436C118.129 58.3999 122.321 49.1686 115.96 44.0345L86.2109 15.0013C84.4394 13.5714 82.1084 12.7764 79.6876 12.7764H33.2039Z" fill="#0080FF"/>
</svg>
