<svg width="16" height="17" viewBox="0 0 16 17" fill="none" xmlns="http://www.w3.org/2000/svg">
<path d="M2.64534 13.0967C1.96498 13.0967 1.82258 12.8714 2.21814 12.421L6.14603 7.97788L2.68094 4.05316C2.28538 3.60268 2.42778 3.37744 3.10814 3.37744H5.35096C5.70696 3.37744 5.97594 3.50086 6.15789 3.7477L7.99724 6.24693L9.83658 3.7477C10.0185 3.50086 10.2875 3.37744 10.6435 3.37744H12.8863C13.5746 3.37744 13.717 3.60268 13.3135 4.05316L9.82471 7.97788L13.7763 12.421C14.1798 12.8714 14.0374 13.0967 13.3491 13.0967H11.1063C10.7582 13.0967 10.4893 12.9733 10.2994 12.7264L7.99724 9.70883L5.69509 12.7264C5.50522 12.9733 5.23624 13.0967 4.88815 13.0967H2.64534Z" fill="#DD4949"/>
</svg>
