<svg width="45" height="59" viewBox="0 0 45 59" fill="none" xmlns="http://www.w3.org/2000/svg">
<path d="M43.8669 21.7743C43.8669 24.674 42.8755 27.9955 41.2656 31.4652C39.6587 34.9286 37.4528 38.5031 35.0639 41.8992C30.484 48.4098 25.2578 54.2268 22.3662 57.2921C19.4646 54.2276 14.2382 48.4104 9.66095 41.8993C7.27354 38.5033 5.07001 34.9288 3.46496 31.4654C1.85693 27.9957 0.866943 24.6742 0.866943 21.7743C0.866943 10.0554 10.9959 0.518555 22.8908 0.518555C34.7544 0.518555 43.8669 10.0245 43.8669 21.7743Z" fill="#0080FF" stroke="#0080FF"/>
<circle cx="22.3669" cy="22.0186" r="16.9012" fill="white"/>
<g clip-path="url(#clip0_403_3065)">
<rect x="16.3045" y="22.4922" width="2.625" height="12.5263" rx="1.3125" fill="#474747"/>
<rect x="21.5544" y="22.4922" width="2.625" height="12.5263" rx="1.3125" fill="#474747"/>
<path fill-rule="evenodd" clip-rule="evenodd" d="M23.436 15.6519C22.7593 15.9436 22.404 16.7453 22.6423 17.4426L25.1331 24.7279C25.3714 25.4252 26.1133 25.754 26.79 25.4624C27.4667 25.1707 27.8221 24.369 27.5837 23.6717L25.093 16.3863C24.8546 15.689 24.1128 15.3602 23.436 15.6519ZM16.9463 15.6519C16.2696 15.3602 15.5277 15.689 15.2893 16.3863L12.7986 23.6717C12.5602 24.369 12.9156 25.1707 13.5923 25.4624C14.269 25.754 15.0109 25.4252 15.2492 24.7279L17.74 17.4426C17.9784 16.7453 17.623 15.9436 16.9463 15.6519Z" fill="#474747"/>
<ellipse cx="20.2419" cy="10.7028" rx="3.28125" ry="3.68421" fill="#474747"/>
<path fill-rule="evenodd" clip-rule="evenodd" d="M20.8881 11.5693C20.8335 11.9144 20.565 12.1765 20.2419 12.1765C19.9189 12.1765 19.6504 11.9144 19.5958 11.5693C19.059 11.822 18.9294 12.382 18.9294 12.6907C18.9294 12.9133 19.1546 12.9133 20.2416 12.9133H20.2419H20.2423C21.3293 12.9133 21.5544 12.9133 21.5544 12.6907C21.5544 12.382 21.4249 11.822 20.8881 11.5693Z" fill="#D3D2D2"/>
<path d="M23.2189 11.1239C23.3541 11.5449 23.6923 11.5449 23.8275 11.1239L24.1318 10.1765C24.2671 9.75544 24.098 9.22913 23.8275 9.22913H23.2189C22.9484 9.22913 22.7793 9.75544 22.9145 10.1765L23.2189 11.1239Z" fill="#D3D2D2"/>
<path d="M16.6564 11.1239C16.7916 11.5449 17.1298 11.5449 17.265 11.1239L17.5693 10.1765C17.7046 9.75544 17.5355 9.22913 17.265 9.22913H16.6564C16.3859 9.22913 16.2168 9.75544 16.352 10.1765L16.6564 11.1239Z" fill="#D3D2D2"/>
<path d="M15.4358 15.8392C15.5618 15.4148 15.9524 15.1238 16.395 15.1238C19.0723 15.1238 21.1643 15.1238 24.0915 15.1238C24.5329 15.1238 24.9227 15.4132 25.0498 15.8358L26.1482 19.4891L24.1794 20.2817V26.1764H16.3044V20.2817L14.3357 19.5448L15.4358 15.8392Z" fill="#474747"/>
<path fill-rule="evenodd" clip-rule="evenodd" d="M26.7434 26.2217C26.8014 25.3639 27.4071 24.7028 28.1349 24.7028H30.4432C31.171 24.7028 31.7766 25.3639 31.8347 26.2217L32.3182 33.368H31.2823L30.8363 26.8824C30.8166 26.4679 30.5743 26.1461 30.2821 26.1461H28.296C28.0037 26.1461 27.7615 26.4679 27.7417 26.8824L27.1822 35.0185H26.1482L26.7434 26.2217Z" fill="#474747"/>
<rect x="26.8872" y="27.5912" width="4.80363" height="1.23789" fill="#474747"/>
<ellipse cx="31.8756" cy="33.987" rx="0.923775" ry="1.03158" fill="#0080FF"/>
</g>
<defs>
<clipPath id="clip0_403_3065">
<rect width="21" height="28" fill="white" transform="translate(12.3669 7.01855)"/>
</clipPath>
</defs>
</svg>
