<svg width="45" height="59" viewBox="0 0 45 59" fill="none" xmlns="http://www.w3.org/2000/svg">
<path d="M44.3669 21.7842C44.3669 33.7995 27.9827 52.121 22.3669 58.0284C16.7269 52.121 0.366943 33.7995 0.366943 21.7842C0.366943 9.76881 10.7405 0.0284424 22.8908 0.0284424C35.041 0.0284424 44.3669 9.76881 44.3669 21.7842Z" fill="#0080FF"/>
<circle cx="22.3669" cy="22.0284" r="16.9012" fill="white"/>
<path fill-rule="evenodd" clip-rule="evenodd" d="M32.9836 23.5021L30.9836 21.4028V31.6776H13.3836V21.4028L11.3836 23.5021L9.36694 21.7477L22.1836 9.02844L35.3669 21.7477L32.9836 23.5021ZM28.0503 19.4173L22.2356 13.2735L16.3169 19.4286V28.3384H20.9928V22.5021H23.7411V28.3384H28.0503V19.4173Z" fill="#474747"/>
</svg>
