<svg width="45" height="59" viewBox="0 0 45 59" fill="none" xmlns="http://www.w3.org/2000/svg">
<path d="M43.8669 21.7743C43.8669 24.674 42.8755 27.9955 41.2656 31.4652C39.6587 34.9286 37.4528 38.5031 35.0639 41.8992C30.484 48.4098 25.2578 54.2268 22.3662 57.2921C19.4646 54.2276 14.2382 48.4104 9.66095 41.8993C7.27354 38.5033 5.07001 34.9288 3.46496 31.4654C1.85693 27.9957 0.866943 24.6742 0.866943 21.7743C0.866943 10.0554 10.9959 0.518555 22.8908 0.518555C34.7544 0.518555 43.8669 10.0245 43.8669 21.7743Z" fill="#0080FF" stroke="#0080FF"/>
<circle cx="22.3669" cy="22.0186" r="16.9012" fill="white"/>
<mask id="mask0_403_3080" style="mask-type:alpha" maskUnits="userSpaceOnUse" x="10" y="10" width="25" height="25">
<rect x="10.1043" y="10.0186" width="24" height="24" fill="#D9D9D9"/>
</mask>
<g mask="url(#mask0_403_3080)">
<path d="M20.8923 27.2306H23.3163V21.0186H20.8923V27.2306ZM22.1043 19.3011C22.4676 19.3011 22.7722 19.1782 23.0181 18.9323C23.2639 18.6865 23.3868 18.3819 23.3868 18.0186C23.3868 17.6553 23.2639 17.3507 23.0181 17.1048C22.7722 16.859 22.4676 16.7361 22.1043 16.7361C21.741 16.7361 21.4364 16.859 21.1906 17.1048C20.9447 17.3507 20.8218 17.6553 20.8218 18.0186C20.8218 18.3819 20.9447 18.6865 21.1906 18.9323C21.4364 19.1782 21.741 19.3011 22.1043 19.3011ZM22.1043 32.4991C20.6456 32.4991 19.2797 32.2244 18.0066 31.6751C16.7336 31.1258 15.6262 30.3802 14.6846 29.4383C13.7427 28.4967 12.9971 27.3893 12.4478 26.1163C11.8985 24.8432 11.6238 23.4773 11.6238 22.0186C11.6238 20.5599 11.8985 19.194 12.4478 17.9208C12.9971 16.6478 13.7427 15.5405 14.6846 14.5988C15.6262 13.657 16.7336 12.9114 18.0066 12.3621C19.2797 11.8128 20.6456 11.5381 22.1043 11.5381C23.563 11.5381 24.9289 11.8128 26.2021 12.3621C27.4751 12.9114 28.5824 13.657 29.5241 14.5988C30.4659 15.5405 31.2115 16.6478 31.7608 17.9208C32.3101 19.194 32.5848 20.5599 32.5848 22.0186C32.5848 23.4773 32.3101 24.8432 31.7608 26.1163C31.2115 27.3893 30.4659 28.4967 29.5241 29.4383C28.5824 30.3802 27.4751 31.1258 26.2021 31.6751C24.9289 32.2244 23.563 32.4991 22.1043 32.4991ZM22.1043 29.8491C24.3 29.8491 26.154 29.0929 27.6663 27.5806C29.1786 26.0683 29.9348 24.2143 29.9348 22.0186C29.9348 19.8229 29.1786 17.9689 27.6663 16.4566C26.154 14.9443 24.3 14.1881 22.1043 14.1881C19.9086 14.1881 18.0546 14.9443 16.5423 16.4566C15.03 17.9689 14.2738 19.8229 14.2738 22.0186C14.2738 24.2143 15.03 26.0683 16.5423 27.5806C18.0546 29.0929 19.9086 29.8491 22.1043 29.8491Z" fill="#474747"/>
</g>
</svg>
