<svg width="45" height="59" viewBox="0 0 45 59" fill="none" xmlns="http://www.w3.org/2000/svg">
<path d="M43.8669 21.7743C43.8669 24.674 42.8755 27.9955 41.2656 31.4652C39.6587 34.9286 37.4528 38.5031 35.0639 41.8992C30.484 48.4098 25.2578 54.2268 22.3662 57.2921C19.4646 54.2276 14.2382 48.4104 9.66095 41.8993C7.27354 38.5033 5.07001 34.9288 3.46496 31.4654C1.85693 27.9957 0.866943 24.6742 0.866943 21.7743C0.866943 10.0554 10.9959 0.518555 22.8908 0.518555C34.7544 0.518555 43.8669 10.0245 43.8669 21.7743Z" fill="#0080FF" stroke="#0080FF"/>
<circle cx="22.3669" cy="22.0186" r="16.9012" fill="white"/>
<path d="M22.3674 33.0186C0.358418 22.5228 17.3826 6.53694 22.3673 17.3531C28.3666 6.56423 44.379 21.6611 22.3674 33.0186Z" fill="#474747"/>
</svg>
