<svg width="45" height="59" viewBox="0 0 45 59" fill="none" xmlns="http://www.w3.org/2000/svg">
<path d="M44.1169 21.7743C44.1169 24.674 43.1255 27.9955 41.5156 31.4652C39.9087 34.9286 37.7028 38.5031 35.3139 41.8992C30.734 48.4098 25.5078 54.2268 22.6162 57.2921C19.7146 54.2276 14.4882 48.4104 9.91095 41.8993C7.52354 38.5033 5.32001 34.9288 3.71496 31.4654C2.10693 27.9957 1.11694 24.6742 1.11694 21.7743C1.11694 10.0554 11.2459 0.518555 23.1408 0.518555C35.0044 0.518555 44.1169 10.0245 44.1169 21.7743Z" fill="#0080FF" stroke="#0080FF"/>
<circle cx="22.6169" cy="22.0186" r="16.9012" fill="white"/>
<mask id="mask0_403_3086" style="mask-type:alpha" maskUnits="userSpaceOnUse" x="8" y="8" width="29" height="29">
<rect x="8.36694" y="8.01855" width="28" height="28" fill="#D9D9D9"/>
</mask>
<g mask="url(#mask0_403_3086)">
<path d="M14.5821 21.7712L14.2155 19.9389C14.0101 19.8518 13.8176 19.7605 13.638 19.665C13.4583 19.5694 13.2779 19.4548 13.0969 19.3212L11.3393 19.8628L9.97491 17.5333L11.3825 16.317C11.3436 16.1055 11.3242 15.8939 11.3242 15.6823C11.3242 15.4708 11.3436 15.2592 11.3825 15.0477L9.97491 13.8314L11.3393 11.4855L13.0969 12.0435C13.2779 11.9099 13.4583 11.7953 13.638 11.6996C13.8176 11.604 14.0101 11.5127 14.2155 11.4258L14.5821 9.59351H17.3275L17.6939 11.4258C17.8992 11.5127 18.0917 11.604 18.2714 11.6996C18.4512 11.7953 18.6316 11.9099 18.8124 12.0435L20.57 11.4855L21.9344 13.8314L20.5268 15.0477C20.5657 15.2592 20.5852 15.4708 20.5852 15.6823C20.5852 15.8939 20.5657 16.1055 20.5268 16.317L21.9344 17.5333L20.57 19.8628L18.8124 19.3212C18.6316 19.4548 18.4512 19.5694 18.2714 19.665C18.0917 19.7605 17.8992 19.8518 17.6939 19.9389L17.3275 21.7712H14.5821ZM15.95 17.892C16.5563 17.892 17.0769 17.675 17.5119 17.241C17.9468 16.8068 18.1643 16.2849 18.1643 15.6753C18.1643 15.0658 17.9473 14.5463 17.5133 14.117C17.0791 13.6874 16.5572 13.4727 15.9477 13.4727C15.3381 13.4727 14.8186 13.6886 14.3893 14.1205C13.9598 14.5521 13.745 15.0712 13.745 15.6777C13.745 16.2839 13.9609 16.8046 14.3928 17.2395C14.8245 17.6745 15.3435 17.892 15.95 17.892ZM25.7655 35.3628L25.2405 32.9128C24.8331 32.7853 24.4472 32.6169 24.0828 32.4077C23.7184 32.1985 23.3836 31.9484 23.0783 31.6575L20.745 32.4488L19.1117 29.6488L20.9783 28.0155C20.8955 27.5885 20.8541 27.1616 20.8541 26.7348C20.8541 26.3078 20.8955 25.8808 20.9783 25.4538L19.1117 23.8204L20.745 21.0204L23.0783 21.8117C23.3836 21.521 23.7184 21.2711 24.0828 21.0618C24.4472 20.8524 24.8331 20.6839 25.2405 20.5564L25.7655 18.1064H29.0321L29.5571 20.5564C29.9647 20.6839 30.3479 20.8524 30.7069 21.0618C31.0656 21.2711 31.3976 21.521 31.7029 21.8117L34.0363 21.0204L35.6696 23.8204L33.8029 25.4538C33.8858 25.8808 33.9272 26.3078 33.9272 26.7348C33.9272 27.1616 33.8858 27.5885 33.8029 28.0155L35.6696 29.6488L34.0363 32.4488L31.7029 31.6575C31.3976 31.9484 31.0656 32.1985 30.7069 32.4077C30.3479 32.6169 29.9647 32.7853 29.5571 32.9128L29.0321 35.3628H25.7655ZM27.3988 30.0367C28.3162 30.0367 29.0931 29.7157 29.7295 29.0736C30.3661 28.4316 30.6844 27.6519 30.6844 26.7348C30.6844 25.8174 30.365 25.0376 29.7263 24.3956C29.0873 23.7535 28.3115 23.4325 27.3988 23.4325C26.4816 23.4325 25.702 23.7535 25.0599 24.3956C24.4177 25.0376 24.0965 25.8174 24.0965 26.7348C24.0965 27.6519 24.4177 28.4316 25.0599 29.0736C25.702 29.7157 26.4816 30.0367 27.3988 30.0367Z" fill="#474747"/>
</g>
</svg>
