<svg width="37" height="33" viewBox="0 0 37 33" fill="none" xmlns="http://www.w3.org/2000/svg">
<path fill-rule="evenodd" clip-rule="evenodd" d="M16.6262 5.99382C17.6559 5.28643 19.0162 5.29121 20.0409 6.00583L29.1468 12.3561C29.9513 12.9171 30.4308 13.836 30.4308 14.8168V28.9296C30.4308 30.5864 29.0876 31.9296 27.4308 31.9296H9.06152C7.40467 31.9296 6.06152 30.5864 6.06152 28.9296V14.8303C6.06152 13.842 6.54824 12.9171 7.36281 12.3575L16.6262 5.99382ZM26.3692 16.4493C26.3692 15.4618 25.8832 14.5375 25.0696 13.9778L20.006 10.4941C18.9881 9.7938 17.6451 9.78913 16.6224 10.4823L11.4399 13.995C10.6163 14.5532 10.1231 15.4834 10.1231 16.4783V25.2867C10.1231 26.9436 11.4662 28.2867 13.1231 28.2867H23.3692C25.0261 28.2867 26.3692 26.9436 26.3692 25.2867V16.4493Z" fill="#474747"/>
</svg>
