<svg width="1200" height="1200" viewBox="100 100 1000 1100" fill="none" xmlns="http://www.w3.org/2000/svg">
<g clip-path="url(#clip0_1678_3438)">
<path d="M1200 0.4646H0V1199.65H1200V0.4646Z" fill="#F0E0FF"/>
<path d="M842.794 801.852H368.931C367.519 801.852 366.374 803.029 366.374 804.481C366.374 805.933 367.519 807.11 368.931 807.11H842.794C844.207 807.11 845.351 805.933 845.351 804.481C845.351 803.029 844.207 801.852 842.794 801.852Z" fill="#D2CFCF" stroke="#A3A0A0" stroke-width="0.75"/>
<path d="M668.509 656.614H541.797C538.031 656.614 534.979 659.753 534.979 663.626V785.495C534.979 789.367 538.031 792.506 541.797 792.506H668.509C672.274 792.506 675.327 789.367 675.327 785.495V663.626C675.327 659.753 672.274 656.614 668.509 656.614Z" fill="#555555"/>
<path d="M715.589 784.323H494.714C490.478 784.323 487.044 787.854 487.044 792.211V794.265C487.044 798.621 490.478 802.153 494.714 802.153H715.589C719.825 802.153 723.259 798.621 723.259 794.265V792.211C723.259 787.854 719.825 784.323 715.589 784.323Z" fill="#010101" stroke="#DDDDDD" stroke-width="0.75"/>
<path d="M892.125 700.513H896.032V713.751H892.125V700.513Z" fill="white"/>
<path d="M903.409 392.89H296.59C294.237 392.89 292.329 394.852 292.329 397.272V705.771C292.329 708.192 294.237 710.153 296.59 710.153H903.409C905.762 710.153 907.67 708.192 907.67 705.771V397.272C907.67 394.852 905.762 392.89 903.409 392.89Z" stroke="#DDDDDD" stroke-width="0.75"/>
<path d="M903.408 393.766H296.59C294.707 393.766 293.181 395.336 293.181 397.272V705.771C293.181 707.708 294.707 709.277 296.59 709.277H903.408C905.291 709.277 906.817 707.708 906.817 705.771V397.272C906.817 395.336 905.291 393.766 903.408 393.766Z" fill="#010101"/>
<path d="M896.59 400.777H303.408C301.525 400.777 299.999 402.347 299.999 404.283V698.76C299.999 700.696 301.525 702.266 303.408 702.266H896.59C898.473 702.266 899.999 700.696 899.999 698.76V404.283C899.999 402.347 898.473 400.777 896.59 400.777Z" fill="#DDDDDD"/>
<path d="M865.909 400.777H334.091V702.266H865.909V400.777Z" fill="white"/>
<path d="M455.616 572.556V531.763H462.803V566.361H480.274V572.556H455.616ZM499.373 573.152C496.39 573.152 493.813 572.517 491.645 571.241C489.488 569.955 487.828 568.134 486.666 565.784C485.504 563.42 484.923 560.638 484.923 557.438C484.923 554.291 485.504 551.529 486.666 549.152C487.841 546.761 489.481 544.902 491.587 543.575C493.69 542.233 496.165 541.563 499.005 541.563C500.839 541.563 502.567 541.868 504.197 542.479C505.837 543.076 507.282 544.006 508.533 545.267C509.801 546.529 510.793 548.136 511.516 550.088C512.242 552.026 512.604 554.337 512.604 557.019V559.231H488.216V554.37H505.881C505.867 552.989 505.577 551.761 505.008 550.685C504.442 549.597 503.648 548.74 502.629 548.116C501.62 547.492 500.443 547.18 499.1 547.18C497.668 547.18 496.41 547.538 495.323 548.255C494.239 548.959 493.393 549.889 492.787 551.044C492.193 552.186 491.89 553.441 491.876 554.808V559.051C491.876 560.831 492.193 562.358 492.824 563.632C493.458 564.894 494.345 565.863 495.48 566.541C496.615 567.205 497.945 567.537 499.468 567.537C500.491 567.537 501.412 567.39 502.24 567.098C503.065 566.793 503.784 566.348 504.391 565.764C504.998 565.179 505.455 564.456 505.765 563.593L512.31 564.35C511.898 566.129 511.11 567.682 509.948 569.01C508.799 570.326 507.326 571.347 505.533 572.079C503.737 572.794 501.684 573.152 499.373 573.152ZM533.392 541.961V547.538H516.289V541.961H533.392ZM520.509 534.631H527.522V563.354C527.522 564.323 527.665 565.066 527.948 565.585C528.245 566.089 528.633 566.434 529.11 566.62C529.588 566.806 530.116 566.899 530.699 566.899C531.139 566.899 531.538 566.866 531.899 566.8C532.274 566.733 532.557 566.673 532.751 566.62L533.934 572.258C533.559 572.391 533.024 572.535 532.325 572.696C531.64 572.854 530.801 572.949 529.809 572.973C528.05 573.026 526.468 572.756 525.06 572.156C523.656 571.546 522.538 570.603 521.713 569.331C520.898 568.054 520.496 566.461 520.509 564.549V534.631ZM546.585 531.763V535.826C546.585 536.995 546.367 538.21 545.927 539.471C545.501 540.72 544.915 541.915 544.165 543.056C543.415 544.185 542.563 545.155 541.608 545.965L538.356 543.794C539.065 542.691 539.685 541.503 540.214 540.228C540.742 538.94 541.008 537.486 541.008 535.866V531.763H546.585ZM571.932 550.048L565.54 550.765C565.359 550.101 565.042 549.477 564.592 548.893C564.152 548.308 563.559 547.837 562.809 547.478C562.059 547.12 561.142 546.941 560.058 546.941C558.599 546.941 557.372 547.266 556.38 547.917C555.398 548.567 554.914 549.41 554.924 550.446C554.914 551.336 555.227 552.06 555.875 552.617C556.533 553.175 557.617 553.633 559.127 553.992L564.204 555.107C567.02 555.732 569.109 556.721 570.48 558.075C571.86 559.43 572.559 561.202 572.573 563.394C572.559 565.319 572.01 567.019 570.926 568.493C569.852 569.955 568.363 571.094 566.45 571.918C564.538 572.742 562.346 573.152 559.864 573.152C556.223 573.152 553.291 572.37 551.072 570.803C548.849 569.222 547.526 567.025 547.1 564.21L553.939 563.533C554.249 564.914 554.907 565.956 555.913 566.66C556.922 567.364 558.231 567.716 559.847 567.716C561.51 567.716 562.847 567.364 563.856 566.66C564.875 565.956 565.387 565.086 565.387 564.051C565.387 563.174 565.056 562.45 564.398 561.879C563.75 561.309 562.745 560.87 561.374 560.565L556.301 559.469C553.448 558.859 551.334 557.829 549.967 556.382C548.597 554.921 547.918 553.076 547.932 550.845C547.918 548.959 548.416 547.326 549.425 545.945C550.445 544.551 551.859 543.475 553.666 542.718C555.487 541.948 557.587 541.563 559.963 541.563C563.447 541.563 566.191 542.326 568.192 543.853C570.207 545.38 571.455 547.445 571.932 550.048ZM594.964 572.556L591.824 541.961H600.173L601.451 562.517H601.724L609.858 541.961H618.05L619.601 562.398H619.854L627.718 541.961H636.047L623.01 572.556H614.276L612.262 553.315H611.893L603.681 572.556H594.964ZM635.491 572.556L640.448 541.961H648.449L647.576 547.299H647.887C648.739 545.4 649.881 543.966 651.316 542.997C652.762 542.014 654.316 541.523 655.983 541.523C656.396 541.523 656.829 541.549 657.282 541.603C657.746 541.642 658.158 541.709 658.52 541.802L657.282 549.351C656.917 549.218 656.402 549.112 655.731 549.032C655.073 548.939 654.446 548.893 653.852 548.893C652.652 548.893 651.534 549.165 650.501 549.709C649.468 550.241 648.596 550.984 647.887 551.94C647.188 552.896 646.731 553.998 646.509 555.247L643.741 572.556H635.491ZM657.807 572.556L662.767 541.961H671.017L666.06 572.556H657.807ZM667.744 537.977C666.517 537.977 665.505 537.559 664.704 536.722C663.916 535.873 663.592 534.863 663.735 533.695C663.879 532.5 664.434 531.49 665.402 530.667C666.371 529.831 667.468 529.412 668.696 529.412C669.92 529.412 670.922 529.831 671.696 530.667C672.473 531.49 672.793 532.5 672.664 533.695C672.534 534.863 671.985 535.873 671.017 536.722C670.063 537.559 668.972 537.977 667.744 537.977ZM693.452 541.961L692.426 548.335H674.491L675.538 541.961H693.452ZM680.767 534.631H689.017L684.408 563.154C684.279 563.938 684.299 564.549 684.466 564.987C684.633 565.412 684.913 565.71 685.298 565.883C685.7 566.056 686.177 566.142 686.733 566.142C687.118 566.142 687.514 566.109 687.913 566.042C688.315 565.963 688.618 565.903 688.823 565.863L689.133 572.177C688.669 572.325 688.042 572.482 687.255 572.654C686.481 572.829 685.564 572.935 684.504 572.973C682.489 573.054 680.784 572.78 679.39 572.156C677.996 571.522 676.997 570.544 676.39 569.229C675.783 567.915 675.654 566.262 676.001 564.27L680.767 534.631ZM707.031 573.152C703.983 573.152 701.46 572.517 699.459 571.241C697.458 569.955 696.05 568.134 695.235 565.784C694.434 563.42 694.298 560.625 694.83 557.398C695.345 554.251 696.384 551.489 697.949 549.112C699.524 546.735 701.498 544.883 703.874 543.555C706.25 542.227 708.899 541.563 711.817 541.563C713.777 541.563 715.554 541.888 717.142 542.539C718.745 543.176 720.074 544.145 721.134 545.447C722.191 546.735 722.914 548.348 723.302 550.287C723.701 552.226 723.698 554.496 723.282 557.099L722.914 559.43H697.813L698.607 554.171H715.963C716.154 552.949 716.079 551.867 715.727 550.924C715.38 549.981 714.8 549.245 713.985 548.713C713.171 548.169 712.172 547.897 710.982 547.897C709.768 547.897 708.633 548.202 707.573 548.813C706.516 549.424 705.623 550.227 704.9 551.223C704.191 552.206 703.734 553.275 703.526 554.43L702.616 559.649C702.357 561.255 702.408 562.59 702.769 563.652C703.144 564.715 703.792 565.511 704.706 566.042C705.623 566.561 706.785 566.819 708.193 566.819C709.11 566.819 709.969 566.687 710.771 566.421C711.585 566.155 712.308 565.764 712.939 565.246C713.573 564.715 714.088 564.058 714.49 563.274L722.024 563.792C721.325 565.677 720.268 567.324 718.847 568.732C717.429 570.127 715.717 571.213 713.716 571.999C711.725 572.77 709.499 573.152 707.031 573.152ZM738.405 518.616V585.702H731.897V518.616H738.405Z" fill="#010101"/>
</g>
<defs>
<clipPath id="clip0_1678_3438">
<rect width="1200" height="1200" fill="white"/>
</clipPath>
</defs>
</svg>
