<svg width="264" height="201" viewBox="0 0 264 201" fill="none" xmlns="http://www.w3.org/2000/svg">
<g clip-path="url(#clip0_378_2550)">
<rect width="264" height="200" transform="translate(0 0.371094)" fill="white"/>
<g clip-path="url(#clip1_378_2550)">
<rect width="264" height="200" transform="translate(0 0.371094)" fill="white"/>
<path d="M-9.35083 144.655H305.636" stroke="#196EC1" stroke-width="6" stroke-linecap="square"/>
<rect x="71.6011" y="112.53" width="6.63158" height="28.1842" rx="3.31579" fill="#474747"/>
<rect x="84.8643" y="112.53" width="6.63158" height="28.1842" rx="3.31579" fill="#474747"/>
<path fill-rule="evenodd" clip-rule="evenodd" d="M69.3771 117.302L71.6011 111.508V120.819H91.4958V111.201L93.8375 117.302C94.4938 119.011 96.4117 119.865 98.1213 119.209C99.8309 118.553 100.685 116.635 100.029 114.925L93.9319 99.0427C93.369 97.5762 91.8778 96.7394 90.386 96.9452C82.5492 95.6244 79.8045 95.6192 72.6958 96.9296C71.2491 96.7896 69.8289 97.6198 69.2827 99.0427L63.186 114.925C62.5297 116.635 63.3836 118.553 65.0933 119.209C66.8029 119.865 68.7208 119.011 69.3771 117.302Z" fill="#474747"/>
<circle cx="81.5485" cy="86.0033" r="8.28947" fill="#474747"/>
<path d="M78.2632 87.6577C78.2632 89.3156 79.9211 90.9735 81.579 90.9735C83.2369 90.9735 84.8948 89.3156 84.8948 87.6577H78.2632Z" fill="white"/>
<mask id="path-7-inside-1_378_2550" fill="white">
<path d="M69.729 96.5934C69.8762 96.2045 70.2492 95.9473 70.665 95.9473C78.3831 95.9473 84.0192 95.9473 92.4931 95.9473C92.9082 95.9473 93.2816 96.2037 93.4292 96.5917L96.8821 105.667L91.8577 107.552V120.816H71.2998V107.552L66.2959 105.667L69.729 96.5934Z"/>
</mask>
<path d="M69.729 96.5934C69.8762 96.2045 70.2492 95.9473 70.665 95.9473C78.3831 95.9473 84.0192 95.9473 92.4931 95.9473C92.9082 95.9473 93.2816 96.2037 93.4292 96.5917L96.8821 105.667L91.8577 107.552V120.816H71.2998V107.552L66.2959 105.667L69.729 96.5934Z" fill="#0A427A"/>
<path d="M91.8577 120.816V121.116H92.1577V120.816H91.8577ZM71.2998 120.816H70.9998V121.116H71.2998V120.816ZM66.2959 105.667L66.0153 105.561L65.909 105.842L66.1901 105.948L66.2959 105.667ZM71.2998 107.552H71.5998V107.345L71.4056 107.272L71.2998 107.552ZM96.8821 105.667L96.9874 105.948L97.2696 105.842L97.1624 105.56L96.8821 105.667ZM91.8577 107.552L91.7523 107.272L91.5577 107.345V107.552H91.8577ZM92.4931 95.9473L92.4931 96.2473L92.4931 95.9473ZM93.4292 96.5917L93.7096 96.485L93.4292 96.5917ZM69.729 96.5934L70.0096 96.6996L69.729 96.5934ZM70.665 96.2473C78.3831 96.2473 84.0192 96.2473 92.4931 96.2473L92.4931 95.6473C84.0192 95.6473 78.3831 95.6473 70.665 95.6473L70.665 96.2473ZM91.8577 120.516H71.2998V121.116H91.8577V120.516ZM66.5765 105.773L70.0096 96.6996L69.4484 96.4872L66.0153 105.561L66.5765 105.773ZM71.5998 120.816V107.552H70.9998V120.816H71.5998ZM71.4056 107.272L66.4017 105.386L66.1901 105.948L71.194 107.833L71.4056 107.272ZM93.1488 96.6984L96.6017 105.774L97.1624 105.56L93.7096 96.485L93.1488 96.6984ZM96.7767 105.386L91.7523 107.272L91.9631 107.833L96.9874 105.948L96.7767 105.386ZM91.5577 107.552V120.816H92.1577V107.552H91.5577ZM92.4931 96.2473C92.7842 96.2473 93.0457 96.4272 93.1488 96.6984L93.7096 96.485C93.5175 95.9802 93.0323 95.6473 92.4931 95.6473L92.4931 96.2473ZM70.665 95.6473C70.1247 95.6473 69.6398 95.9815 69.4484 96.4872L70.0096 96.6996C70.1125 96.4276 70.3737 96.2473 70.665 96.2473L70.665 95.6473Z" fill="white" mask="url(#path-7-inside-1_378_2550)"/>
<path d="M74.2893 110.869V105.066H75.3669V109.957H78.4009V110.869H74.2893Z" fill="white"/>
<path d="M79.5003 110.869V105.066H82.2193C82.9156 105.066 83.4461 105.204 83.8109 105.48C84.1756 105.751 84.358 106.116 84.358 106.575C84.358 106.884 84.2861 107.149 84.1424 107.37C83.9988 107.586 83.8053 107.754 83.5622 107.876C83.3246 107.992 83.0648 108.05 82.783 108.05L82.9322 107.752C83.2582 107.752 83.5511 107.812 83.8109 107.934C84.0706 108.05 84.2751 108.221 84.4243 108.448C84.579 108.675 84.6564 108.956 84.6564 109.294C84.6564 109.791 84.4657 110.178 84.0844 110.454C83.7031 110.73 83.1367 110.869 82.3851 110.869H79.5003ZM80.578 110.023H82.3188C82.7222 110.023 83.0317 109.957 83.2472 109.824C83.4627 109.691 83.5705 109.479 83.5705 109.186C83.5705 108.898 83.4627 108.688 83.2472 108.556C83.0317 108.418 82.7222 108.349 82.3188 108.349H80.4951V107.511H82.1032C82.479 107.511 82.7664 107.445 82.9653 107.312C83.1698 107.18 83.2721 106.981 83.2721 106.716C83.2721 106.445 83.1698 106.243 82.9653 106.11C82.7664 105.978 82.479 105.911 82.1032 105.911H80.578V110.023Z" fill="white"/>
<path d="M86.9587 110.951C86.5885 110.951 86.2458 110.88 85.9308 110.736C85.6214 110.592 85.3672 110.385 85.1682 110.114L85.7816 109.376C85.9419 109.597 86.116 109.763 86.3039 109.874C86.4973 109.984 86.7073 110.04 86.9339 110.04C87.5362 110.04 87.8374 109.683 87.8374 108.97V105.969H85.7733V105.066H88.915V108.912C88.915 109.597 88.7465 110.109 88.4094 110.446C88.0778 110.783 87.5943 110.951 86.9587 110.951Z" fill="white"/>
<rect x="172.474" y="112.526" width="6.63158" height="28.1842" rx="3.31579" fill="#474747"/>
<rect x="185.737" y="112.526" width="6.63158" height="28.1842" rx="3.31579" fill="#474747"/>
<path fill-rule="evenodd" clip-rule="evenodd" d="M190.49 97.1352C188.781 97.7915 187.927 99.7094 188.583 101.419L194.68 117.301C195.336 119.011 197.254 119.865 198.963 119.209C200.673 118.552 201.527 116.635 200.871 114.925L194.774 99.0425C194.118 97.3328 192.2 96.4789 190.49 97.1352ZM174.095 97.1352C172.385 96.4789 170.468 97.3328 169.811 99.0425L163.715 114.925C163.058 116.635 163.912 118.552 165.622 119.209C167.331 119.865 169.249 119.011 169.906 117.301L176.002 101.419C176.659 99.7094 175.805 97.7915 174.095 97.1352Z" fill="#474747"/>
<ellipse cx="182.421" cy="85.9999" rx="8.28947" ry="8.28947" fill="#474747"/>
<path d="M170.588 96.631C170.724 96.2227 171.107 95.9473 171.537 95.9473C179.231 95.9473 184.86 95.9473 193.307 95.9473C193.736 95.9473 194.119 96.2209 194.256 96.6274L197.342 105.769L192.368 107.552V120.816H172.474V107.552L167.5 105.895L170.588 96.631Z" fill="#474747"/>
<path d="M172.392 113.649C172.438 113.133 172.871 112.738 173.388 112.738H191.455C191.971 112.738 192.403 113.13 192.451 113.644L193.725 127.183C193.78 127.769 193.319 128.276 192.73 128.276H172.179C171.592 128.276 171.131 127.772 171.183 127.187L172.392 113.649Z" fill="#474747"/>
<path d="M176.622 75.9467C178.773 75.246 180.513 74.8976 182.281 74.8946C184.051 74.8915 185.881 75.2343 188.212 75.9557C188.412 76.0177 188.553 76.2069 188.553 76.424V80.3473C186.271 79.6595 184.386 79.3172 182.472 79.323C180.554 79.3287 178.634 79.6842 176.29 80.3577V76.4116C176.29 76.1972 176.426 76.0105 176.622 75.9467Z" fill="white" stroke="#474747"/>
<g clip-path="url(#clip2_378_2550)">
<rect x="115.421" y="112.526" width="6.63158" height="28.1842" rx="3.31579" fill="#474747"/>
<rect x="128.684" y="112.526" width="6.63158" height="28.1842" rx="3.31579" fill="#474747"/>
<path fill-rule="evenodd" clip-rule="evenodd" d="M133.437 97.1357C131.728 97.7919 130.874 99.7099 131.53 101.42L137.627 117.302C138.283 119.012 140.201 119.866 141.911 119.209C143.62 118.553 144.474 116.635 143.818 114.925L137.721 99.043C137.065 97.3333 135.147 96.4794 133.437 97.1357ZM117.042 97.1357C115.333 96.4794 113.415 97.3333 112.759 99.043L106.662 114.925C106.006 116.635 106.859 118.553 108.569 119.209C110.279 119.866 112.197 119.012 112.853 117.302L118.95 101.42C119.606 99.7099 118.752 97.7919 117.042 97.1357Z" fill="#474747"/>
<circle cx="125.368" cy="85.9999" r="8.28947" fill="#474747"/>
<path fill-rule="evenodd" clip-rule="evenodd" d="M127.001 87.9497C126.863 88.7261 126.184 89.3157 125.368 89.3157C124.552 89.3157 123.874 88.7261 123.736 87.9497C122.38 88.5181 122.052 89.7783 122.052 90.4727C122.052 90.9735 122.621 90.9735 125.367 90.9735H125.368H125.369C128.115 90.9735 128.684 90.9735 128.684 90.4727C128.684 89.7783 128.357 88.5181 127.001 87.9497Z" fill="#D3D2D2"/>
<path d="M132.889 86.9472C133.231 87.8946 134.085 87.8946 134.426 86.9472L135.195 84.8157C135.537 83.8683 135.11 82.6841 134.426 82.6841H132.889C132.205 82.6841 131.778 83.8683 132.12 84.8157L132.889 86.9472Z" fill="#D3D2D2"/>
<path d="M116.31 86.9472C116.652 87.8946 117.506 87.8946 117.848 86.9472L118.616 84.8157C118.958 83.8683 118.531 82.6841 117.848 82.6841H116.31C115.627 82.6841 115.199 83.8683 115.541 84.8157L116.31 86.9472Z" fill="#D3D2D2"/>
<path d="M113.535 96.631C113.671 96.2227 114.054 95.9473 114.484 95.9473C122.179 95.9473 127.807 95.9473 136.255 95.9473C136.684 95.9473 137.066 96.2209 137.203 96.6274L140.289 105.769L135.316 107.552V120.816H115.421V107.552L110.447 105.895L113.535 96.631Z" fill="#474747"/>
<path fill-rule="evenodd" clip-rule="evenodd" d="M141.793 120.918C141.94 118.988 143.47 117.5 145.308 117.5H151.14C152.978 117.5 154.509 118.988 154.655 120.918L155.877 136.997H153.26L152.133 122.404C152.083 121.472 151.471 120.748 150.733 120.748H145.715C144.977 120.748 144.365 121.472 144.315 122.404L142.902 140.711H140.289L141.793 120.918Z" fill="#474747"/>
<rect x="142.156" y="123.999" width="12.1355" height="2.78526" fill="#474747"/>
<ellipse cx="154.759" cy="138.389" rx="2.33375" ry="2.32105" fill="#0080FF"/>
</g>
</g>
</g>
<defs>
<clipPath id="clip0_378_2550">
<rect width="264" height="200" fill="white" transform="translate(0 0.371094)"/>
</clipPath>
<clipPath id="clip1_378_2550">
<rect width="264" height="200" fill="white" transform="translate(0 0.371094)"/>
</clipPath>
<clipPath id="clip2_378_2550">
<rect width="53.0526" height="63" fill="white" transform="translate(105.474 77.7104)"/>
</clipPath>
</defs>
</svg>
