<svg width="600" height="418" viewBox="100 50 400 418" fill="none" xmlns="http://www.w3.org/2000/svg">
<g clip-path="url(#clip0_1678_3438)">
<path d="M600 0H0V417.196H600V0Z" fill="#F0E0FF"/>
<path d="M421.398 317.095H184.466C183.76 317.095 183.188 317.62 183.188 318.268C183.188 318.916 183.76 319.442 184.466 319.442H421.398C422.104 319.442 422.676 318.916 422.676 318.268C422.676 317.62 422.104 317.095 421.398 317.095Z" fill="#D2CFCF" stroke="#A3A0A0" stroke-width="0.375"/>
<path d="M334.254 252.28H270.898C269.016 252.28 267.489 253.681 267.489 255.409V309.795C267.489 311.524 269.016 312.924 270.898 312.924H334.254C336.137 312.924 337.664 311.524 337.664 309.795V255.409C337.664 253.681 336.137 252.28 334.254 252.28Z" fill="#555555"/>
<path d="M357.795 309.272H247.358C245.24 309.272 243.522 310.848 243.522 312.793V313.709C243.522 315.653 245.24 317.229 247.358 317.229H357.795C359.913 317.229 361.63 315.653 361.63 313.709V312.793C361.63 310.848 359.913 309.272 357.795 309.272Z" fill="#010101" stroke="#DDDDDD" stroke-width="0.375"/>
<path d="M446.062 271.87H448.016V277.778H446.062V271.87Z" fill="white"/>
<path d="M451.705 134.587H148.296C147.119 134.587 146.165 135.462 146.165 136.542V274.217C146.165 275.297 147.119 276.173 148.296 276.173H451.705C452.882 276.173 453.835 275.297 453.835 274.217V136.542C453.835 135.462 452.882 134.587 451.705 134.587Z" stroke="#DDDDDD" stroke-width="0.375"/>
<path d="M451.704 134.978H148.295C147.354 134.978 146.591 135.678 146.591 136.542V274.217C146.591 275.081 147.354 275.782 148.295 275.782H451.704C452.646 275.782 453.409 275.081 453.409 274.217V136.542C453.409 135.678 452.646 134.978 451.704 134.978Z" fill="#010101"/>
<path d="M448.295 138.107H151.705C150.763 138.107 150 138.807 150 139.671V271.088C150 271.952 150.763 272.652 151.705 272.652H448.295C449.237 272.652 450 271.952 450 271.088V139.671C450 138.807 449.237 138.107 448.295 138.107Z" fill="#DDDDDD"/>
<path d="M432.955 138.107H167.046V272.652H432.955V138.107Z" fill="white"/>
<path d="M227.809 214.767V196.562H231.402V212.002H240.138V214.767H227.809ZM249.687 215.033C248.195 215.033 246.907 214.749 245.823 214.18C244.744 213.606 243.915 212.793 243.334 211.744C242.753 210.689 242.462 209.448 242.462 208.02C242.462 206.615 242.753 205.383 243.334 204.322C243.921 203.255 244.741 202.425 245.794 201.833C246.845 201.234 248.083 200.935 249.503 200.935C250.42 200.935 251.284 201.071 252.099 201.344C252.919 201.611 253.641 202.026 254.267 202.589C254.901 203.152 255.397 203.869 255.759 204.74C256.122 205.605 256.302 206.636 256.302 207.833V208.82H244.108V206.651H252.941C252.934 206.035 252.789 205.486 252.505 205.006C252.222 204.52 251.824 204.138 251.315 203.86C250.81 203.581 250.222 203.442 249.551 203.442C248.835 203.442 248.206 203.602 247.662 203.922C247.12 204.236 246.697 204.651 246.394 205.166C246.097 205.676 245.945 206.236 245.939 206.846V208.74C245.939 209.534 246.097 210.215 246.413 210.784C246.73 211.347 247.173 211.78 247.74 212.082C248.308 212.378 248.973 212.527 249.735 212.527C250.246 212.527 250.706 212.461 251.12 212.331C251.533 212.195 251.893 211.996 252.196 211.735C252.499 211.475 252.728 211.152 252.883 210.767L256.156 211.104C255.949 211.898 255.556 212.592 254.974 213.184C254.4 213.772 253.664 214.227 252.767 214.554C251.869 214.873 250.843 215.033 249.687 215.033ZM266.697 201.113V203.602H258.145V201.113H266.697ZM260.255 197.842H263.761V210.66C263.761 211.092 263.833 211.424 263.974 211.655C264.123 211.881 264.317 212.035 264.556 212.118C264.794 212.201 265.059 212.242 265.35 212.242C265.57 212.242 265.769 212.227 265.95 212.198C266.138 212.168 266.279 212.141 266.376 212.118L266.968 214.634C266.78 214.693 266.513 214.757 266.163 214.829C265.82 214.9 265.401 214.942 264.905 214.953C264.026 214.976 263.235 214.856 262.531 214.588C261.828 214.316 261.269 213.895 260.857 213.327C260.449 212.758 260.248 212.047 260.255 211.193V197.842ZM273.293 196.562V198.375C273.293 198.897 273.184 199.439 272.964 200.002C272.751 200.559 272.458 201.092 272.083 201.602C271.708 202.106 271.282 202.538 270.805 202.9L269.178 201.931C269.533 201.439 269.843 200.908 270.107 200.34C270.372 199.765 270.505 199.116 270.505 198.393V196.562H273.293ZM285.966 204.722L282.77 205.042C282.68 204.746 282.522 204.467 282.297 204.206C282.077 203.946 281.78 203.735 281.405 203.575C281.03 203.415 280.572 203.335 280.03 203.335C279.3 203.335 278.686 203.48 278.19 203.771C277.699 204.061 277.457 204.437 277.463 204.9C277.457 205.297 277.614 205.62 277.938 205.869C278.267 206.118 278.809 206.322 279.564 206.482L282.102 206.98C283.51 207.258 284.555 207.7 285.24 208.304C285.931 208.909 286.28 209.7 286.287 210.678C286.28 211.537 286.006 212.296 285.464 212.953C284.927 213.606 284.182 214.114 283.226 214.482C282.269 214.85 281.173 215.033 279.932 215.033C278.112 215.033 276.646 214.684 275.536 213.984C274.425 213.279 273.764 212.298 273.551 211.042L276.97 210.74C277.125 211.356 277.454 211.821 277.957 212.135C278.461 212.449 279.116 212.607 279.924 212.607C280.756 212.607 281.424 212.449 281.928 212.135C282.438 211.821 282.694 211.433 282.694 210.971C282.694 210.58 282.528 210.257 282.199 210.002C281.876 209.747 281.373 209.552 280.688 209.415L278.151 208.926C276.724 208.654 275.668 208.195 274.984 207.549C274.299 206.897 273.96 206.073 273.966 205.077C273.96 204.236 274.209 203.507 274.713 202.891C275.223 202.269 275.93 201.788 276.834 201.451C277.744 201.107 278.794 200.935 279.982 200.935C281.724 200.935 283.096 201.276 284.097 201.957C285.104 202.639 285.728 203.56 285.966 204.722ZM297.482 214.767L295.913 201.113H300.087L300.726 210.287H300.863L304.93 201.113H309.026L309.801 210.233H309.927L313.86 201.113H318.024L311.506 214.767H307.139L306.131 206.18H305.947L301.841 214.767H297.482ZM317.746 214.767L320.224 201.113H324.225L323.789 203.495H323.944C324.37 202.648 324.941 202.008 325.659 201.575C326.381 201.137 327.159 200.917 327.992 200.917C328.198 200.917 328.415 200.929 328.641 200.953C328.873 200.971 329.08 201 329.26 201.042L328.641 204.411C328.459 204.352 328.202 204.304 327.866 204.269C327.537 204.227 327.223 204.206 326.927 204.206C326.327 204.206 325.768 204.328 325.251 204.571C324.735 204.808 324.298 205.14 323.944 205.566C323.594 205.993 323.366 206.485 323.255 207.042L321.871 214.767H317.746ZM328.904 214.767L331.384 201.113H335.509L333.031 214.767H328.904ZM333.873 199.335C333.259 199.335 332.753 199.148 332.352 198.775C331.959 198.396 331.797 197.945 331.868 197.424C331.94 196.891 332.218 196.44 332.702 196.073C333.186 195.699 333.735 195.513 334.348 195.513C334.96 195.513 335.461 195.699 335.848 196.073C336.237 196.44 336.397 196.891 336.332 197.424C336.268 197.945 335.993 198.396 335.509 198.775C335.032 199.148 334.486 199.335 333.873 199.335ZM346.727 201.113L346.214 203.957H337.246L337.769 201.113H346.727ZM340.384 197.842H344.509L342.205 210.571C342.14 210.921 342.15 211.193 342.234 211.389C342.317 211.578 342.457 211.712 342.649 211.789C342.851 211.866 343.089 211.904 343.367 211.904C343.56 211.904 343.757 211.89 343.957 211.86C344.158 211.824 344.31 211.798 344.412 211.78L344.567 214.598C344.335 214.663 344.022 214.734 343.628 214.81C343.241 214.889 342.782 214.936 342.252 214.953C341.245 214.989 340.393 214.867 339.695 214.588C338.998 214.305 338.499 213.869 338.195 213.282C337.892 212.695 337.827 211.958 338.001 211.069L340.384 197.842ZM353.516 215.033C351.992 215.033 350.731 214.749 349.73 214.18C348.73 213.606 348.026 212.793 347.618 211.744C347.218 210.689 347.149 209.442 347.415 208.002C347.673 206.598 348.193 205.365 348.975 204.304C349.763 203.243 350.749 202.417 351.938 201.824C353.126 201.231 354.45 200.935 355.909 200.935C356.889 200.935 357.777 201.08 358.572 201.371C359.373 201.655 360.038 202.088 360.568 202.668C361.096 203.243 361.457 203.963 361.652 204.829C361.851 205.694 361.849 206.707 361.641 207.869L361.457 208.909H348.907L349.304 206.562H357.982C358.077 206.017 358.04 205.534 357.864 205.113C357.69 204.692 357.401 204.363 356.993 204.126C356.586 203.883 356.086 203.762 355.491 203.762C354.885 203.762 354.317 203.898 353.787 204.171C353.259 204.443 352.812 204.802 352.451 205.246C352.096 205.685 351.868 206.162 351.764 206.677L351.309 209.007C351.179 209.724 351.205 210.319 351.385 210.793C351.573 211.267 351.897 211.623 352.353 211.86C352.812 212.091 353.393 212.207 354.097 212.207C354.556 212.207 354.985 212.147 355.386 212.029C355.793 211.91 356.155 211.735 356.47 211.504C356.787 211.267 357.044 210.974 357.245 210.624L361.013 210.855C360.663 211.697 360.135 212.432 359.424 213.06C358.715 213.682 357.859 214.167 356.859 214.518C355.863 214.862 354.75 215.033 353.516 215.033ZM369.203 190.695V220.633H365.949V190.695H369.203Z" fill="#010101"/>
</g>
<defs>
<clipPath id="clip0_1678_3438">
<rect width="600" height="417.196" fill="white"/>
</clipPath>
</defs>
</svg>
