<svg width="400" height="440" viewBox="0 0 400 440" fill="none" xmlns="http://www.w3.org/2000/svg">
<path d="M72.8629 165.769L159.664 149.181C164.316 148.292 168.411 152.553 167.751 157.598C164.577 181.832 147.07 201.494 124.138 205.877C101.205 210.26 78.5499 198.272 67.9199 176.675C65.7074 172.18 68.2103 166.658 72.8629 165.769Z" fill="#58CC02"/>
<path d="M233.742 88.4212L164.247 146.989C160.522 150.128 160.714 156.266 164.627 159.111C183.427 172.78 208.67 171.886 227.03 156.412C245.391 140.939 252.302 114.735 244.555 91.7519C242.942 86.9685 237.467 85.282 233.742 88.4212Z" fill="#58CC02"/>
<path d="M129.249 243.628C130.616 239.343 134.939 237.064 138.906 238.538L150.222 242.744C154.188 244.217 156.296 248.886 154.929 253.171C153.562 257.455 149.238 259.734 145.272 258.26L133.955 254.055C129.989 252.581 127.882 247.912 129.249 243.628Z" fill="#F49000"/>
<path d="M250.024 185.565C246.163 183.795 241.704 185.743 240.064 189.913L235.385 201.811C233.744 205.983 235.545 210.797 239.405 212.565C243.266 214.335 247.725 212.388 249.365 208.217L254.045 196.318C255.685 192.148 253.885 187.333 250.024 185.565Z" fill="#F49000"/>
<path d="M110.34 105.28C126.971 104.939 137.878 103.522 143.062 101.029C148.212 98.5526 156.35 90.8617 167.477 77.9564C174.912 69.333 187.412 68.8446 195.396 76.8653C197.342 78.82 198.902 81.1787 199.982 83.8003L224.756 143.895C237.935 175.866 224.603 213.332 194.978 227.577C165.353 241.823 130.653 227.454 117.473 195.483L92.6552 135.279C88.2207 124.522 92.7064 111.916 102.674 107.122C105.09 105.961 107.697 105.335 110.34 105.28Z" fill="#58CC02"/>
<path d="M120.071 112.874L144.008 124.037C145.272 124.644 145.62 126.406 144.693 127.516C140.243 132.849 133.007 134.534 126.774 131.541C120.54 128.548 116.859 121.623 117.557 114.488C117.702 113.003 118.806 112.267 120.071 112.874Z" fill="#89E219"/>
<path d="M139.234 122.209C147.271 126.04 157.162 121.25 159.799 112.287C165.981 127.281 175.194 149.631 175.148 149.518C175.117 149.443 168.258 152.741 154.571 159.413C150.009 148.498 144.897 136.097 139.234 122.209Z" fill="#89E219"/>
<path d="M113.856 121.286L137.467 132.622C138.732 133.229 139.08 134.991 138.154 136.101C133.702 141.434 126.462 143.117 120.225 140.122C113.987 137.127 110.302 130.199 110.999 123.064C111.143 121.579 112.59 120.679 113.856 121.286Z" fill="#89E219"/>
<path d="M120.24 123.147L121.817 122.388C132.883 117.067 145.845 122.435 150.768 134.377L156.524 148.338C161.447 160.28 156.467 174.275 145.4 179.597L143.823 180.355C132.757 185.676 119.795 180.308 114.872 168.366L109.117 154.405C104.194 142.463 109.174 128.468 120.24 123.147Z" fill="#89E219"/>
<path d="M165.838 90.8574L157.838 117.396C157.409 118.819 158.387 120.276 159.77 120.275C166.414 120.269 172.414 115.582 174.528 108.571C176.641 101.559 174.343 93.9669 168.972 89.7527C167.853 88.8756 166.267 89.435 165.838 90.8574Z" fill="#89E219"/>
<path d="M175.703 91.5572L167.702 118.096C167.274 119.518 168.252 120.976 169.635 120.975C176.279 120.969 182.279 116.282 184.392 109.271C186.506 102.259 184.208 94.6666 178.836 90.4524C177.718 89.5752 176.132 90.1347 175.703 91.5572Z" fill="#89E219"/>
<path d="M171.787 97.8235L173.364 97.0651C184.43 91.7438 197.392 97.1113 202.315 109.054L208.07 123.014C212.993 134.957 208.013 148.952 196.947 154.273L195.472 154.982C184.468 160.273 171.575 154.998 166.592 143.165L160.735 129.253C155.724 117.353 160.601 103.316 171.628 97.9005C171.681 97.8744 171.734 97.8489 171.787 97.8235Z" fill="#89E219"/>
<path d="M123.767 131.243C131.899 127.333 141.425 131.277 145.043 140.054L148.973 149.588C152.591 158.365 148.932 168.65 140.799 172.56C132.666 176.471 123.141 172.527 119.523 163.75L115.592 154.215C111.974 145.439 115.634 135.154 123.767 131.243Z" fill="white"/>
<path d="M175.922 106.172C184.054 102.261 193.58 106.206 197.198 114.982L201.128 124.517C204.746 133.293 201.086 143.578 192.954 147.488C184.821 151.399 175.296 147.455 171.678 138.678L167.747 129.143C164.129 120.367 167.789 110.082 175.922 106.172Z" fill="white"/>
<path d="M129.824 139.212C133.658 137.368 138.148 139.228 139.854 143.365L143.223 151.538C144.929 155.676 143.203 160.524 139.369 162.367C135.536 164.211 131.045 162.352 129.339 158.214L125.97 150.042C124.264 145.904 125.99 141.055 129.824 139.212Z" fill="#4B4B4B"/>
<path d="M171.13 147.104C169.27 142.59 164.37 140.561 160.188 142.572C156.005 144.583 154.123 149.873 155.984 154.387L161.599 168.009C163.46 172.522 168.359 174.552 172.542 172.54C176.724 170.529 178.607 165.239 176.746 160.725L171.13 147.104Z" fill="#F49000"/>
<path d="M170.009 149.275C168.561 145.764 164.751 144.186 161.498 145.75C158.245 147.315 156.781 151.429 158.228 154.939L161.971 164.021C163.419 167.531 167.229 169.109 170.482 167.545C173.736 165.98 175.2 161.866 173.752 158.356L170.009 149.275Z" fill="#B86D00"/>
<path d="M152.532 154.571C151.276 148.959 154.034 142.81 159.551 140.157C164.466 137.794 170.543 139.694 173.565 144.457L173.836 145.115L164.116 152.105L152.803 155.229L152.532 154.571Z" fill="#FFC200"/>
<path d="M159.365 146.424C158.711 147.105 157.669 147.086 157.038 146.38C156.407 145.674 156.426 144.549 157.08 143.868C158.651 142.231 160.557 141.314 162.735 141.149C163.642 141.079 164.428 141.817 164.492 142.796C164.555 143.775 163.872 144.624 162.965 144.693C161.559 144.8 160.38 145.367 159.365 146.424Z" fill="#FFDE00"/>
<path d="M177.351 116.364C181.185 114.521 185.676 116.38 187.382 120.518L190.751 128.691C192.457 132.828 190.731 137.677 186.897 139.521C183.063 141.364 178.572 139.505 176.867 135.367L173.498 127.194C171.792 123.057 173.517 118.208 177.351 116.364Z" fill="#4B4B4B"/>
<path d="M127.676 151.122C130.116 149.949 131.214 146.863 130.128 144.23C129.043 141.598 126.185 140.414 123.746 141.587C121.306 142.761 120.208 145.846 121.294 148.479C122.379 151.111 125.237 152.295 127.676 151.122Z" fill="white"/>
<path d="M174.363 128.679C176.803 127.506 177.901 124.42 176.816 121.788C175.73 119.155 172.873 117.971 170.433 119.145C167.993 120.318 166.895 123.403 167.981 126.036C169.066 128.669 171.924 129.852 174.363 128.679Z" fill="white"/>
<path d="M118.12 161.313L121.548 176.778C130.116 174.56 140.484 173.366 152.63 173.229L152.484 157.326C139.3 157.475 127.853 158.792 118.12 161.313Z" fill="#89E219"/>
<path d="M201.771 121.096L210.118 134.196C202.859 139.588 195.1 147.111 186.879 156.768L176.033 146.01C184.957 135.528 193.524 127.222 201.771 121.096Z" fill="#89E219"/>
<path d="M159.65 195.618L173.146 189.123C173.869 188.774 174.679 189.249 174.745 190.059C175.062 193.952 172.9 197.787 169.335 199.502C165.769 201.218 161.687 200.39 159.223 197.53C158.71 196.935 158.926 195.966 159.65 195.618Z" fill="#89E219"/>
<path d="M183.204 184.295L196.7 177.8C197.423 177.452 198.233 177.925 198.299 178.736C198.617 182.629 196.455 186.463 192.889 188.18C189.323 189.896 185.241 189.066 182.777 186.206C182.264 185.611 182.48 184.644 183.204 184.295Z" fill="#89E219"/>
<path d="M176.483 202.218L189.979 195.722C190.702 195.374 191.512 195.848 191.578 196.658C191.895 200.551 189.733 204.386 186.168 206.102C182.602 207.818 178.52 206.99 176.056 204.13C175.543 203.534 175.759 202.566 176.483 202.218Z" fill="#89E219"/>
<path d="M191.252 199.944H316.572C319.962 199.944 322.711 202.911 322.711 206.572C322.711 207.027 322.667 207.483 322.581 207.929L303.939 304.179C303.344 307.25 300.836 309.45 297.93 309.45H172.61C169.22 309.45 166.471 306.483 166.471 302.822C166.471 302.366 166.515 301.911 166.601 301.466L185.243 205.216C185.838 202.144 188.346 199.944 191.252 199.944Z" fill="white"/>
<path d="M178.259 268.493H304.641C305.82 268.493 306.776 269.525 306.776 270.798C306.776 270.985 306.755 271.17 306.714 271.352L299.44 303.088C299.204 304.116 298.349 304.839 297.367 304.839H170.985C169.806 304.839 168.85 303.807 168.85 302.533C168.85 302.347 168.871 302.161 168.913 301.98L176.186 270.244C176.422 269.215 177.277 268.493 178.259 268.493Z" fill="#BDFD6C"/>
<path d="M316.572 199.944H191.195L191.001 199.949L190.944 199.952C189.632 200.023 188.387 200.545 187.381 201.428C186.294 202.382 185.534 203.713 185.243 205.216L166.589 301.527L166.553 301.739L166.544 301.801C166.496 302.139 166.471 302.481 166.471 302.822C166.471 304.6 167.128 306.277 168.269 307.509C169.41 308.741 170.964 309.45 172.61 309.45H297.986L298.181 309.445L298.238 309.442C299.549 309.371 300.795 308.849 301.801 307.966C302.888 307.013 303.648 305.681 303.939 304.179L322.593 207.866L322.628 207.655L322.637 207.593C322.686 207.255 322.711 206.913 322.711 206.572C322.711 204.794 322.054 203.117 320.913 201.886C319.772 200.653 318.218 199.944 316.572 199.944ZM312.958 209.742L295.544 299.652H176.223L193.637 209.742H312.958Z" fill="#777777"/>
<path d="M256.424 277.751H286.734C287.914 277.751 288.87 278.783 288.87 280.057C288.87 280.234 288.85 280.411 288.813 280.584L287.682 285.771C287.455 286.813 286.595 287.549 285.604 287.549H255.294C254.115 287.549 253.159 286.516 253.159 285.243C253.159 285.066 253.178 284.888 253.215 284.715L254.346 279.528C254.573 278.486 255.433 277.751 256.424 277.751Z" fill="#89E219"/>
<path d="M279.272 230.202H248.958C247.591 230.202 246.405 231.221 246.097 232.66L245.481 235.541C245.431 235.775 245.406 236.014 245.406 236.254C245.406 238.005 246.721 239.424 248.342 239.424H278.657C280.024 239.424 281.21 238.405 281.517 236.967L282.133 234.086C282.183 233.852 282.208 233.612 282.208 233.373C282.208 231.621 280.894 230.202 279.272 230.202ZM248.958 231.931H279.272C280.01 231.931 280.607 232.577 280.607 233.373C280.607 233.482 280.596 233.589 280.573 233.696L279.957 236.578C279.817 237.231 279.278 237.695 278.657 237.695H248.342C247.605 237.695 247.008 237.05 247.008 236.254C247.008 236.145 247.019 236.036 247.042 235.93L247.658 233.048C247.797 232.395 248.337 231.931 248.958 231.931Z" fill="#D8D8D8"/>
<path d="M274.469 252.104H244.154C242.787 252.104 241.601 253.122 241.294 254.561L240.678 257.442C240.628 257.676 240.603 257.916 240.603 258.155C240.603 259.905 241.917 261.325 243.538 261.325H273.853C275.22 261.325 276.406 260.307 276.714 258.868L277.329 255.986C277.379 255.752 277.405 255.513 277.405 255.274C277.405 253.523 276.09 252.104 274.469 252.104ZM244.154 253.833H274.469C275.206 253.833 275.803 254.478 275.803 255.274C275.803 255.382 275.792 255.491 275.769 255.597L275.153 258.48C275.013 259.133 274.474 259.596 273.853 259.596H243.538C242.801 259.596 242.204 258.951 242.204 258.155C242.204 258.046 242.215 257.937 242.238 257.832L242.854 254.949C242.994 254.295 243.533 253.833 244.154 253.833Z" fill="#D8D8D8"/>
<path d="M276.604 241.153H246.29C244.922 241.153 243.736 242.172 243.429 243.611L242.813 246.492C242.763 246.726 242.738 246.964 242.738 247.205C242.738 248.955 244.052 250.374 245.674 250.374H275.988C277.355 250.374 278.541 249.355 278.849 247.918L279.465 245.036C279.515 244.802 279.54 244.563 279.54 244.323C279.54 242.572 278.225 241.153 276.604 241.153ZM246.29 242.883H276.604C277.341 242.883 277.939 243.528 277.939 244.323C277.939 244.432 277.927 244.541 277.904 244.647L277.288 247.529C277.149 248.182 276.61 248.646 275.988 248.646H245.674C244.937 248.646 244.339 248.001 244.339 247.205C244.339 247.096 244.351 246.987 244.373 246.88L244.989 243.999C245.129 243.345 245.668 242.883 246.29 242.883Z" fill="#47D7FF"/>
<path d="M239.307 230.779H214.306C212.911 230.779 211.709 231.839 211.43 233.314L206.963 256.945C206.924 257.153 206.904 257.365 206.904 257.579C206.904 259.329 208.218 260.748 209.84 260.748H234.84C236.235 260.748 237.438 259.688 237.717 258.212L242.183 234.582C242.223 234.373 242.243 234.161 242.243 233.948C242.243 232.198 240.928 230.779 239.307 230.779ZM214.306 232.508H239.307C240.044 232.508 240.641 233.152 240.641 233.948C240.641 234.045 240.632 234.141 240.614 234.236L236.148 257.867C236.021 258.538 235.474 259.02 234.84 259.02H209.84C209.103 259.02 208.505 258.375 208.505 257.579C208.505 257.482 208.514 257.385 208.532 257.291L212.999 233.66C213.125 232.99 213.672 232.508 214.306 232.508Z" fill="#D8D8D8"/>
<path d="M209.361 282.651C209.361 277.079 205.178 272.564 200.019 272.564C194.86 272.564 190.678 277.079 190.678 282.651C190.678 288.221 194.86 292.736 200.019 292.736C205.178 292.736 209.361 288.221 209.361 282.651Z" fill="white"/>
<path d="M317.112 199.368H190.865L190.725 199.37C189.338 199.409 188.038 199.935 186.992 200.854C185.904 201.808 185.145 203.139 184.855 204.644L166.061 302.047L166.026 302.24C165.962 302.643 165.932 303.02 165.932 303.399C165.932 305.179 166.587 306.852 167.73 308.085C168.872 309.319 170.422 310.027 172.07 310.027H298.318L298.457 310.024C299.844 309.986 301.144 309.459 302.19 308.542C303.278 307.586 304.037 306.255 304.327 304.751L323.121 207.348L323.156 207.154C323.22 206.752 323.25 206.374 323.25 205.996C323.25 204.215 322.595 202.543 321.452 201.309C320.31 200.075 318.761 199.368 317.112 199.368ZM190.885 202.826H317.112C317.902 202.826 318.64 203.163 319.188 203.755C319.736 204.346 320.048 205.143 320.048 205.996C320.048 206.177 320.033 206.357 320.005 206.536L319.981 206.672L301.192 304.046C301.053 304.766 300.691 305.4 300.17 305.858C299.669 306.298 299.049 306.549 298.395 306.567L298.297 306.569H172.07C171.28 306.569 170.542 306.232 169.994 305.641C169.446 305.049 169.134 304.253 169.134 303.399C169.134 303.217 169.149 303.037 169.177 302.858L169.202 302.723L187.99 205.35C188.129 204.628 188.491 203.994 189.012 203.537C189.513 203.097 190.134 202.846 190.787 202.827L190.885 202.826Z" fill="#AFAFAF"/>
<path d="M124.753 296.771H303.309V303.399C303.309 307.059 300.561 310.027 297.171 310.027H124.753C121.363 310.027 118.614 307.059 118.614 303.399C118.614 299.738 121.363 296.771 124.753 296.771Z" fill="#AFAFAF"/>
<path d="M203.254 279.69C203.816 279.177 204.659 279.252 205.135 279.859C205.596 280.447 205.545 281.32 205.03 281.841L204.978 281.89L199.062 287.297C198.522 287.791 197.722 287.741 197.237 287.195L197.191 287.14L194.481 283.759C193.999 283.157 194.06 282.247 194.617 281.726C195.157 281.222 195.966 281.268 196.454 281.82L196.499 281.873L198.345 284.176L203.254 279.69Z" fill="#89E219"/>
<path d="M234.135 276.31C234.872 276.31 235.469 276.955 235.469 277.751C235.469 278.523 234.905 279.154 234.197 279.189L234.135 279.192H213.631C212.894 279.192 212.296 278.547 212.296 277.751C212.296 276.978 212.86 276.347 213.568 276.311L213.631 276.31H234.135Z" fill="#89E219"/>
<path d="M224.307 282.073C225.044 282.073 225.641 282.718 225.641 283.514C225.641 284.287 225.078 284.918 224.37 284.954L224.307 284.955H213.631C212.894 284.955 212.296 284.31 212.296 283.514C212.296 282.741 212.86 282.11 213.568 282.075L213.631 282.073H224.307Z" fill="#89E219"/>
<path d="M299.573 214.746C300.31 214.746 300.907 215.391 300.907 216.187C300.907 216.96 300.343 217.591 299.636 217.627L299.573 217.628H206.691C205.954 217.628 205.357 216.983 205.357 216.187C205.357 215.414 205.921 214.783 206.629 214.748L206.691 214.746H299.573Z" fill="#D8D8D8"/>
<path d="M235.517 214.746C236.254 214.746 236.851 215.391 236.851 216.187C236.851 216.96 236.287 217.591 235.58 217.627L235.517 217.628H206.691C205.954 217.628 205.357 216.983 205.357 216.187C205.357 215.414 205.921 214.783 206.629 214.748L206.691 214.746H235.517Z" fill="#58CC02"/>
<path d="M225.463 238.388C225.55 237.92 225.973 237.617 226.406 237.712C226.823 237.803 227.098 238.228 227.041 238.676L227.033 238.73L224.825 250.546C224.737 251.014 224.315 251.317 223.881 251.222C223.464 251.131 223.189 250.706 223.246 250.258L223.255 250.204L225.463 238.388Z" fill="#979797"/>
<path d="M229.633 241.729C230.075 241.729 230.433 242.117 230.433 242.593C230.433 243.054 230.101 243.429 229.682 243.457L229.633 243.458H225.714C225.272 243.458 224.913 243.071 224.913 242.593C224.913 242.134 225.246 241.758 225.665 241.731L225.714 241.729H229.633Z" fill="#979797"/>
<path d="M217.667 248.788C217.607 248.979 217.564 249.177 217.538 249.377C217.303 251.183 218.468 252.852 220.14 253.105L221.19 253.265C223.096 253.538 224.84 252.095 225.092 250.045L225.374 247.742L222.113 246.468C222.087 246.458 222.061 246.448 222.035 246.439C220.228 245.785 218.272 246.837 217.667 248.788ZM221.526 248.078L221.568 248.094L223.617 248.894L223.504 249.817C223.369 250.922 222.429 251.698 221.407 251.551L220.363 251.394C219.567 251.273 219.012 250.477 219.124 249.618C219.136 249.523 219.157 249.428 219.185 249.337C219.509 248.291 220.558 247.727 221.526 248.078Z" fill="#979797"/>
<path d="M228.938 250.701C228.715 251.113 228.225 251.253 227.843 251.014C226.418 250.12 224.925 249.386 223.363 248.811C222.945 248.658 222.721 248.167 222.863 247.715C223.006 247.263 223.461 247.021 223.879 247.175C225.542 247.786 227.131 248.567 228.648 249.519C229.03 249.758 229.16 250.288 228.938 250.701Z" fill="#979797"/>
<path d="M348.524 155.543C350.327 153.855 353.056 154.065 354.62 156.013C356.161 157.932 355.993 160.825 354.259 162.523L354.185 162.594L351.57 165.042C346.868 169.442 340.234 170.495 334.566 167.755L334.395 167.669C331.994 166.472 329.162 167.014 327.288 169.015L327.204 169.106L324.417 172.194C322.751 174.041 320.016 174.078 318.306 172.281C316.62 170.508 316.562 167.609 318.159 165.759L318.227 165.683L321.014 162.594C325.399 157.735 332.121 156.352 337.845 159.113L338.019 159.198C340.601 160.487 343.636 160.047 345.812 158.081L345.908 157.991L348.524 155.543Z" fill="#FF7878"/>
<path d="M318.959 128.389C319.37 125.85 321.609 124.153 323.96 124.596C326.278 125.034 327.84 127.391 327.488 129.89L327.472 129.996L326.349 136.935C324.605 147.7 317.22 156.375 307.454 159.168L307.157 159.251C300.868 160.963 296.253 166.741 295.595 173.692L295.577 173.904L294.906 182C294.694 184.567 292.594 186.462 290.217 186.232C287.873 186.006 286.134 183.798 286.29 181.275L286.298 181.17L286.968 173.072C287.87 162.186 294.984 153.087 304.746 150.286L305.043 150.203C311.585 148.421 316.561 142.692 317.799 135.545L317.835 135.328L318.959 128.389Z" fill="#CE82FF"/>
<path d="M107.057 270.732C109.618 271.215 111.332 273.847 110.885 276.612C110.443 279.342 108.061 281.181 105.536 280.762L105.438 280.745L100.269 279.77C92.3122 278.27 85.9503 271.811 84.0636 263.349L84.0078 263.092C83.0998 258.792 79.7583 255.601 75.706 255.144L75.5778 255.13L69.5467 254.538C66.9577 254.284 65.0497 251.812 65.2853 249.016C65.5178 246.257 67.7529 244.213 70.3014 244.406L70.3996 244.415L76.4306 245.008C84.518 245.802 91.2274 252.07 93.1304 260.573L93.1866 260.832C94.1472 265.38 97.5157 268.871 101.753 269.73L101.888 269.757L107.057 270.732Z" fill="#47D7FF"/>
<path d="M70.5172 279.29L65.4845 273.856C64.2933 272.57 62.362 272.57 61.1708 273.856L56.138 279.29C54.9468 280.577 54.9468 282.661 56.138 283.948L61.1708 289.381C62.362 290.667 64.2933 290.667 65.4845 289.381L70.5172 283.948C71.7085 282.661 71.7085 280.577 70.5172 279.29Z" fill="#FFAADE"/>
<path d="M348.509 191.272L344.735 187.197C343.742 186.125 342.133 186.125 341.14 187.197L337.366 191.272C336.373 192.344 336.373 194.081 337.366 195.153L341.14 199.229C342.133 200.301 343.742 200.301 344.735 199.229L348.509 195.153C349.502 194.081 349.502 192.344 348.509 191.272Z" fill="#47D7FF"/>
<path d="M351.117 111.463L348.241 108.358C347.347 107.393 345.899 107.393 345.005 108.358L342.13 111.463C341.236 112.427 341.236 113.991 342.13 114.956L345.005 118.061C345.899 119.026 347.347 119.026 348.241 118.061L351.117 114.956C352.01 113.991 352.01 112.427 351.117 111.463Z" fill="#FFAADE"/>
<path d="M49.6468 233.593L46.771 230.489C45.8775 229.523 44.429 229.523 43.5356 230.489L40.6598 233.593C39.7664 234.557 39.7664 236.122 40.6598 237.086L43.5356 240.191C44.429 241.156 45.8776 241.156 46.771 240.191L49.6468 237.086C50.5402 236.122 50.5402 234.557 49.6468 233.593Z" fill="#CE82FF"/>
<path d="M296.567 127.873L291.355 122.245C290.362 121.173 288.752 121.174 287.76 122.245L282.547 127.873C281.555 128.945 281.555 130.683 282.547 131.755L287.76 137.382C288.752 138.454 290.362 138.454 291.355 137.382L296.567 131.755C297.56 130.683 297.56 128.945 296.567 127.873Z" fill="#FFB100"/>
</svg>
