<svg width="264" height="200" viewBox="0 0 264 200" fill="none" xmlns="http://www.w3.org/2000/svg">
<rect width="264" height="200" fill="#F0E0FF"/>
<rect x="63.47" y="166.407" width="140.5" height="1.5" rx="0.75" fill="#D2CFCF" stroke="#A3A0A0" stroke-width="0.5"/>
<rect x="112.927" y="124.978" width="41.1689" height="38.7633" rx="2" fill="#555555"/>
<rect x="98.8662" y="161.407" width="69.2898" height="5.08599" rx="2.25" fill="#010101" stroke="#DDDDDD" stroke-width="0.5"/>
<path d="M217.69 137.5H218.836V141.276H217.69V137.5Z" fill="white"/>
<rect x="41.75" y="49.75" width="180.5" height="90.5" rx="1.25" stroke="#DDDDDD" stroke-width="0.5"/>
<rect x="42" y="50" width="180" height="90" rx="1" fill="#010101"/>
<rect x="44" y="52" width="176" height="86" rx="1" fill="#DDDDDD"/>
<rect width="156" height="86" transform="translate(54 52)" fill="white"/>
<path d="M89.6477 101V89.3636H91.7557V99.233H96.8807V101H89.6477ZM102.483 101.17C101.608 101.17 100.852 100.989 100.216 100.625C99.5833 100.258 99.0966 99.7386 98.7557 99.0682C98.4148 98.3939 98.2443 97.6004 98.2443 96.6875C98.2443 95.7898 98.4148 95.0019 98.7557 94.3239C99.1004 93.642 99.5814 93.1117 100.199 92.733C100.816 92.3504 101.542 92.1591 102.375 92.1591C102.913 92.1591 103.42 92.2462 103.898 92.4205C104.379 92.5909 104.803 92.8561 105.17 93.2159C105.542 93.5758 105.833 94.0341 106.045 94.5909C106.258 95.1439 106.364 95.803 106.364 96.5682V97.1989H99.2102V95.8125H104.392C104.388 95.4186 104.303 95.0682 104.136 94.7614C103.97 94.4508 103.737 94.2064 103.438 94.0284C103.142 93.8504 102.797 93.7614 102.403 93.7614C101.983 93.7614 101.614 93.8636 101.295 94.0682C100.977 94.2689 100.729 94.5341 100.551 94.8636C100.377 95.1894 100.288 95.5473 100.284 95.9375V97.1477C100.284 97.6553 100.377 98.0909 100.562 98.4545C100.748 98.8144 101.008 99.0909 101.341 99.2841C101.674 99.4735 102.064 99.5682 102.511 99.5682C102.811 99.5682 103.081 99.5265 103.324 99.4432C103.566 99.3561 103.777 99.2292 103.955 99.0625C104.133 98.8958 104.267 98.6894 104.358 98.4432L106.278 98.6591C106.157 99.1667 105.926 99.6098 105.585 99.9886C105.248 100.364 104.816 100.655 104.29 100.864C103.763 101.068 103.161 101.17 102.483 101.17ZM112.462 92.2727V93.8636H107.445V92.2727H112.462ZM108.683 90.1818H110.74V98.375C110.74 98.6515 110.782 98.8636 110.865 99.0114C110.952 99.1553 111.066 99.2538 111.206 99.3068C111.346 99.3598 111.501 99.3864 111.672 99.3864C111.801 99.3864 111.918 99.3769 112.024 99.358C112.134 99.339 112.217 99.322 112.274 99.3068L112.621 100.915C112.511 100.953 112.354 100.994 112.149 101.04C111.948 101.085 111.702 101.112 111.411 101.119C110.895 101.134 110.431 101.057 110.018 100.886C109.606 100.712 109.278 100.443 109.036 100.08C108.797 99.7159 108.679 99.2614 108.683 98.7159V90.1818ZM116.332 89.3636V90.5227C116.332 90.8561 116.268 91.2027 116.139 91.5625C116.014 91.9186 115.842 92.2595 115.622 92.5852C115.402 92.9072 115.152 93.1837 114.872 93.4148L113.918 92.7955C114.126 92.4811 114.308 92.142 114.463 91.7784C114.618 91.411 114.696 90.9962 114.696 90.5341V89.3636H116.332ZM123.767 94.5795L121.892 94.7841C121.839 94.5947 121.746 94.4167 121.614 94.25C121.485 94.0833 121.311 93.9489 121.091 93.8466C120.871 93.7443 120.602 93.6932 120.284 93.6932C119.856 93.6932 119.496 93.786 119.205 93.9716C118.917 94.1572 118.775 94.3977 118.778 94.6932C118.775 94.947 118.867 95.1534 119.057 95.3125C119.25 95.4716 119.568 95.6023 120.011 95.7045L121.5 96.0227C122.326 96.2008 122.939 96.483 123.341 96.8693C123.746 97.2557 123.951 97.7614 123.955 98.3864C123.951 98.9356 123.79 99.4205 123.472 99.8409C123.157 100.258 122.72 100.583 122.159 100.818C121.598 101.053 120.955 101.17 120.227 101.17C119.159 101.17 118.299 100.947 117.648 100.5C116.996 100.049 116.608 99.4223 116.483 98.6193L118.489 98.4261C118.58 98.8201 118.773 99.1174 119.068 99.3182C119.364 99.5189 119.748 99.6193 120.222 99.6193C120.71 99.6193 121.102 99.5189 121.398 99.3182C121.697 99.1174 121.847 98.8693 121.847 98.5739C121.847 98.3239 121.75 98.1174 121.557 97.9545C121.367 97.7917 121.072 97.6667 120.67 97.5795L119.182 97.267C118.345 97.0928 117.725 96.7992 117.324 96.3864C116.922 95.9697 116.723 95.4432 116.727 94.8068C116.723 94.2689 116.869 93.803 117.165 93.4091C117.464 93.0114 117.879 92.7045 118.409 92.4886C118.943 92.2689 119.559 92.1591 120.256 92.1591C121.278 92.1591 122.083 92.3769 122.67 92.8125C123.261 93.2481 123.627 93.8371 123.767 94.5795ZM130.523 101L129.602 92.2727H132.051L132.426 98.1364H132.506L134.892 92.2727H137.295L137.75 98.1023H137.824L140.131 92.2727H142.574L138.75 101H136.188L135.597 95.5114H135.489L133.08 101H130.523ZM142.411 101L143.865 92.2727H146.212L145.956 93.7955H146.047C146.297 93.2538 146.632 92.8447 147.053 92.5682C147.477 92.2879 147.933 92.1477 148.422 92.1477C148.543 92.1477 148.67 92.1553 148.803 92.1705C148.939 92.1818 149.06 92.2008 149.166 92.2273L148.803 94.3807C148.696 94.3428 148.545 94.3125 148.348 94.2898C148.155 94.2633 147.971 94.25 147.797 94.25C147.445 94.25 147.117 94.3277 146.814 94.483C146.511 94.6345 146.255 94.8466 146.047 95.1193C145.842 95.392 145.708 95.7064 145.643 96.0625L144.831 101H142.411ZM148.957 101L150.412 92.2727H152.832L151.378 101H148.957ZM151.872 91.1364C151.512 91.1364 151.215 91.017 150.98 90.7784C150.749 90.536 150.654 90.2481 150.696 89.9148C150.738 89.5739 150.901 89.286 151.185 89.0511C151.469 88.8125 151.791 88.6932 152.151 88.6932C152.51 88.6932 152.804 88.8125 153.031 89.0511C153.259 89.286 153.353 89.5739 153.315 89.9148C153.277 90.2481 153.116 90.536 152.832 90.7784C152.552 91.017 152.232 91.1364 151.872 91.1364ZM159.413 92.2727L159.112 94.0909H153.851L154.158 92.2727H159.413ZM155.692 90.1818H158.112L156.76 98.3182C156.722 98.5417 156.728 98.7159 156.777 98.8409C156.826 98.9621 156.908 99.0473 157.021 99.0966C157.139 99.1458 157.279 99.1705 157.442 99.1705C157.555 99.1705 157.671 99.161 157.788 99.142C157.906 99.1193 157.995 99.1023 158.055 99.0909L158.146 100.892C158.01 100.934 157.826 100.979 157.595 101.028C157.368 101.078 157.099 101.108 156.788 101.119C156.197 101.142 155.697 101.064 155.288 100.886C154.879 100.705 154.586 100.426 154.408 100.051C154.23 99.6761 154.192 99.2045 154.294 98.6364L155.692 90.1818ZM163.396 101.17C162.502 101.17 161.762 100.989 161.175 100.625C160.588 100.258 160.175 99.7386 159.936 99.0682C159.701 98.3939 159.661 97.5966 159.817 96.6761C159.968 95.7784 160.273 94.9905 160.732 94.3125C161.194 93.6345 161.773 93.1061 162.47 92.7273C163.167 92.3485 163.944 92.1591 164.8 92.1591C165.375 92.1591 165.896 92.2519 166.362 92.4375C166.832 92.6193 167.222 92.8958 167.533 93.267C167.843 93.6345 168.055 94.0947 168.169 94.6477C168.286 95.2008 168.285 95.8485 168.163 96.5909L168.055 97.2557H160.692L160.925 95.7557H166.016C166.072 95.4072 166.05 95.0985 165.947 94.8295C165.845 94.5606 165.675 94.3504 165.436 94.1989C165.197 94.0436 164.904 93.9659 164.555 93.9659C164.199 93.9659 163.866 94.053 163.555 94.2273C163.245 94.4015 162.983 94.6307 162.771 94.9148C162.563 95.1951 162.429 95.5 162.368 95.8295L162.101 97.3182C162.025 97.7765 162.04 98.1572 162.146 98.4602C162.256 98.7633 162.446 98.9905 162.714 99.142C162.983 99.2898 163.324 99.3636 163.737 99.3636C164.006 99.3636 164.258 99.3258 164.493 99.25C164.732 99.1742 164.944 99.0625 165.129 98.9148C165.315 98.7633 165.466 98.5758 165.584 98.3523L167.794 98.5C167.589 99.0379 167.279 99.5076 166.862 99.9091C166.446 100.307 165.944 100.617 165.357 100.841C164.773 101.061 164.12 101.17 163.396 101.17ZM172.599 85.6136V104.75H170.69V85.6136H172.599Z" fill="#010101"/>
</svg>
