<svg width="293" height="60" viewBox="0 0 293 60" fill="none" xmlns="http://www.w3.org/2000/svg">
<rect width="292" height="60" transform="translate(0.445068)" fill="#75AADB"/>
<path d="M258.487 41.692C256.78 41.692 255.266 41.3187 253.943 40.572C252.62 39.8253 251.575 38.8013 250.807 37.5C250.039 36.1773 249.655 34.684 249.655 33.02C249.655 31.3347 250.039 29.8413 250.807 28.54C251.575 27.2387 252.62 26.2253 253.943 25.5C255.266 24.7533 256.78 24.38 258.487 24.38C260.172 24.38 261.676 24.7533 262.999 25.5C264.343 26.2253 265.388 27.2387 266.135 28.54C266.903 29.82 267.287 31.3133 267.287 33.02C267.287 34.7053 266.903 36.1987 266.135 37.5C265.388 38.8013 264.343 39.8253 262.999 40.572C261.676 41.3187 260.172 41.692 258.487 41.692ZM258.487 39.004C259.575 39.004 260.546 38.7587 261.399 38.268C262.274 37.7773 262.956 37.084 263.447 36.188C263.938 35.2707 264.183 34.2147 264.183 33.02C264.183 31.804 263.938 30.7587 263.447 29.884C262.956 28.988 262.274 28.2947 261.399 27.804C260.546 27.3133 259.575 27.068 258.487 27.068C257.399 27.068 256.428 27.3133 255.575 27.804C254.722 28.2947 254.039 28.988 253.527 29.884C253.015 30.7587 252.759 31.804 252.759 33.02C252.759 34.2147 253.015 35.2707 253.527 36.188C254.039 37.084 254.722 37.7773 255.575 38.268C256.428 38.7587 257.399 39.004 258.487 39.004Z" fill="#010101"/>
<path d="M238.153 41.5V24.54H241.097V29.148L240.809 27.996C241.278 26.8227 242.068 25.9267 243.177 25.308C244.286 24.6893 245.652 24.38 247.273 24.38V27.356C247.145 27.3347 247.017 27.324 246.889 27.324C246.782 27.324 246.676 27.324 246.569 27.324C244.926 27.324 243.625 27.8147 242.665 28.796C241.705 29.7773 241.225 31.196 241.225 33.052V41.5H238.153Z" fill="#010101"/>
<path d="M225.791 41.692C223.978 41.692 222.378 41.3187 220.991 40.572C219.626 39.8253 218.559 38.8013 217.791 37.5C217.045 36.1987 216.671 34.7053 216.671 33.02C216.671 31.3347 217.034 29.8413 217.759 28.54C218.506 27.2387 219.519 26.2253 220.799 25.5C222.101 24.7533 223.562 24.38 225.183 24.38C226.826 24.38 228.277 24.7427 229.535 25.468C230.794 26.1933 231.775 27.2173 232.479 28.54C233.205 29.8413 233.567 31.3667 233.567 33.116C233.567 33.244 233.557 33.3933 233.535 33.564C233.535 33.7347 233.525 33.8947 233.503 34.044H219.071V31.836H231.903L230.655 32.604C230.677 31.516 230.453 30.5453 229.983 29.692C229.514 28.8387 228.863 28.1773 228.031 27.708C227.221 27.2173 226.271 26.972 225.183 26.972C224.117 26.972 223.167 27.2173 222.335 27.708C221.503 28.1773 220.853 28.8493 220.383 29.724C219.914 30.5773 219.679 31.5587 219.679 32.668V33.18C219.679 34.3107 219.935 35.324 220.447 36.22C220.981 37.0947 221.717 37.7773 222.655 38.268C223.594 38.7587 224.671 39.004 225.887 39.004C226.89 39.004 227.797 38.8333 228.607 38.492C229.439 38.1507 230.165 37.6387 230.783 36.956L232.479 38.94C231.711 39.836 230.751 40.5187 229.599 40.988C228.469 41.4573 227.199 41.692 225.791 41.692Z" fill="#010101"/>
<path d="M205.194 24.38C206.581 24.38 207.797 24.6467 208.842 25.18C209.909 25.7133 210.741 26.524 211.338 27.612C211.935 28.7 212.234 30.076 212.234 31.74V41.5H209.162V32.092C209.162 30.4493 208.757 29.212 207.946 28.38C207.157 27.548 206.037 27.132 204.586 27.132C203.498 27.132 202.549 27.3453 201.738 27.772C200.927 28.1987 200.298 28.828 199.85 29.66C199.423 30.492 199.21 31.5267 199.21 32.764V41.5H196.138V24.54H199.082V29.116L198.602 27.9C199.157 26.7907 200.01 25.9267 201.162 25.308C202.314 24.6893 203.658 24.38 205.194 24.38Z" fill="#010101"/>
<path d="M182.912 41.5V24.54H185.856V29.148L185.568 27.996C186.037 26.8227 186.827 25.9267 187.936 25.308C189.045 24.6893 190.411 24.38 192.032 24.38V27.356C191.904 27.3347 191.776 27.324 191.648 27.324C191.541 27.324 191.435 27.324 191.328 27.324C189.685 27.324 188.384 27.8147 187.424 28.796C186.464 29.7773 185.984 31.196 185.984 33.052V41.5H182.912Z" fill="#010101"/>
<path d="M173.995 41.5V37.916L173.835 37.244V31.132C173.835 29.8307 173.451 28.828 172.683 28.124C171.936 27.3987 170.806 27.036 169.291 27.036C168.288 27.036 167.307 27.2067 166.347 27.548C165.387 27.868 164.576 28.3053 163.915 28.86L162.635 26.556C163.51 25.852 164.555 25.3187 165.771 24.956C167.008 24.572 168.299 24.38 169.643 24.38C171.968 24.38 173.76 24.9453 175.019 26.076C176.278 27.2067 176.907 28.9347 176.907 31.26V41.5H173.995ZM168.427 41.692C167.168 41.692 166.059 41.4787 165.099 41.052C164.16 40.6253 163.435 40.0387 162.923 39.292C162.411 38.524 162.155 37.66 162.155 36.7C162.155 35.7827 162.368 34.9507 162.795 34.204C163.243 33.4573 163.958 32.86 164.939 32.412C165.942 31.964 167.286 31.74 168.971 31.74H174.347V33.948H169.099C167.563 33.948 166.528 34.204 165.995 34.716C165.462 35.228 165.195 35.8467 165.195 36.572C165.195 37.404 165.526 38.076 166.187 38.588C166.848 39.0787 167.766 39.324 168.939 39.324C170.091 39.324 171.094 39.068 171.947 38.556C172.822 38.044 173.451 37.2973 173.835 36.316L174.443 38.428C174.038 39.4307 173.323 40.2307 172.299 40.828C171.275 41.404 169.984 41.692 168.427 41.692Z" fill="#010101"/>
<path d="M133.032 41.5V19.1H135.656L145.704 36.028H144.296L154.216 19.1H156.84L156.872 41.5H153.8L153.768 23.932H154.504L145.672 38.78H144.2L135.304 23.932H136.104V41.5H133.032Z" fill="#010101"/>
<path d="M113.553 41.5V38.14L113.233 37.404V31.388C113.233 30.3213 112.902 29.4893 112.241 28.892C111.601 28.2947 110.609 27.996 109.265 27.996C108.347 27.996 107.441 28.1453 106.545 28.444C105.67 28.7213 104.923 29.1053 104.305 29.596L102.513 26.108C103.451 25.4467 104.582 24.9347 105.905 24.572C107.227 24.2093 108.571 24.028 109.937 24.028C112.561 24.028 114.598 24.6467 116.049 25.884C117.499 27.1213 118.225 29.052 118.225 31.676V41.5H113.553ZM108.305 41.756C106.961 41.756 105.809 41.532 104.849 41.084C103.889 40.6147 103.153 39.9853 102.641 39.196C102.129 38.4067 101.873 37.5213 101.873 36.54C101.873 35.516 102.118 34.62 102.609 33.852C103.121 33.084 103.921 32.4867 105.009 32.06C106.097 31.612 107.515 31.388 109.265 31.388H113.841V34.3H109.809C108.635 34.3 107.825 34.492 107.377 34.876C106.95 35.26 106.737 35.74 106.737 36.316C106.737 36.956 106.982 37.468 107.473 37.852C107.985 38.2147 108.678 38.396 109.553 38.396C110.385 38.396 111.131 38.204 111.793 37.82C112.454 37.4147 112.934 36.828 113.233 36.06L114.001 38.364C113.638 39.4733 112.977 40.316 112.017 40.892C111.057 41.468 109.819 41.756 108.305 41.756Z" fill="#010101"/>
<path d="M93.0476 41.5V24.284H98.0396V41.5H93.0476ZM95.5436 21.884C94.6263 21.884 93.8796 21.6173 93.3036 21.084C92.7276 20.5507 92.4396 19.8893 92.4396 19.1C92.4396 18.3107 92.7276 17.6493 93.3036 17.116C93.8796 16.5827 94.6263 16.316 95.5436 16.316C96.4609 16.316 97.2076 16.572 97.7836 17.084C98.3596 17.5747 98.6476 18.2147 98.6476 19.004C98.6476 19.836 98.3596 20.5293 97.7836 21.084C97.2289 21.6173 96.4823 21.884 95.5436 21.884Z" fill="#010101"/>
<path d="M83.1026 41.5V17.756H88.0946V41.5H83.1026Z" fill="#010101"/>
<path d="M73.1576 41.5V24.284H78.1496V41.5H73.1576ZM75.6536 21.884C74.7363 21.884 73.9896 21.6173 73.4136 21.084C72.8376 20.5507 72.5496 19.8893 72.5496 19.1C72.5496 18.3107 72.8376 17.6493 73.4136 17.116C73.9896 16.5827 74.7363 16.316 75.6536 16.316C76.5709 16.316 77.3176 16.572 77.8936 17.084C78.4696 17.5747 78.7576 18.2147 78.7576 19.004C78.7576 19.836 78.4696 20.5293 77.8936 21.084C77.3389 21.6173 76.5923 21.884 75.6536 21.884Z" fill="#010101"/>
<path d="M62.3451 41.756C60.4891 41.756 58.8358 41.3827 57.3851 40.636C55.9344 39.868 54.7931 38.812 53.9611 37.468C53.1504 36.124 52.7451 34.5987 52.7451 32.892C52.7451 31.164 53.1504 29.6387 53.9611 28.316C54.7931 26.972 55.9344 25.9267 57.3851 25.18C58.8358 24.412 60.4891 24.028 62.3451 24.028C64.1584 24.028 65.7371 24.412 67.0811 25.18C68.4251 25.9267 69.4171 27.004 70.0571 28.412L66.1851 30.492C65.7371 29.6813 65.1718 29.084 64.4891 28.7C63.8278 28.316 63.1024 28.124 62.3131 28.124C61.4598 28.124 60.6918 28.316 60.0091 28.7C59.3264 29.084 58.7824 29.628 58.3771 30.332C57.9931 31.036 57.8011 31.8893 57.8011 32.892C57.8011 33.8947 57.9931 34.748 58.3771 35.452C58.7824 36.156 59.3264 36.7 60.0091 37.084C60.6918 37.468 61.4598 37.66 62.3131 37.66C63.1024 37.66 63.8278 37.4787 64.4891 37.116C65.1718 36.732 65.7371 36.124 66.1851 35.292L70.0571 37.404C69.4171 38.7907 68.4251 39.868 67.0811 40.636C65.7371 41.3827 64.1584 41.756 62.3451 41.756Z" fill="#010101"/>
<path d="M42.0616 41.756C40.0989 41.756 38.3709 41.372 36.8776 40.604C35.4056 39.836 34.2643 38.7907 33.4536 37.468C32.6429 36.124 32.2376 34.5987 32.2376 32.892C32.2376 31.164 32.6323 29.6387 33.4216 28.316C34.2323 26.972 35.3309 25.9267 36.7176 25.18C38.1043 24.412 39.6723 24.028 41.4216 24.028C43.1069 24.028 44.6216 24.3907 45.9656 25.116C47.3309 25.82 48.4083 26.844 49.1976 28.188C49.9869 29.5107 50.3816 31.1 50.3816 32.956C50.3816 33.148 50.3709 33.372 50.3496 33.628C50.3283 33.8627 50.3069 34.0867 50.2856 34.3H36.3016V31.388H47.6616L45.7416 32.252C45.7416 31.356 45.5603 30.5773 45.1976 29.916C44.8349 29.2547 44.3336 28.7427 43.6936 28.38C43.0536 27.996 42.3069 27.804 41.4536 27.804C40.6003 27.804 39.8429 27.996 39.1816 28.38C38.5416 28.7427 38.0403 29.2653 37.6776 29.948C37.3149 30.6093 37.1336 31.3987 37.1336 32.316V33.084C37.1336 34.0227 37.3363 34.8547 37.7416 35.58C38.1683 36.284 38.7549 36.828 39.5016 37.212C40.2696 37.5747 41.1656 37.756 42.1896 37.756C43.1069 37.756 43.9069 37.6173 44.5896 37.34C45.2936 37.0627 45.9336 36.6467 46.5096 36.092L49.1656 38.972C48.3763 39.868 47.3843 40.5613 46.1896 41.052C44.9949 41.5213 43.6189 41.756 42.0616 41.756Z" fill="#010101"/>
<path d="M21.3946 41.884C19.6666 41.884 18.0559 41.6067 16.5626 41.052C15.0906 40.476 13.8106 39.6653 12.7226 38.62C11.6346 37.5747 10.7813 36.348 10.1626 34.94C9.56527 33.532 9.2666 31.9853 9.2666 30.3C9.2666 28.6147 9.56527 27.068 10.1626 25.66C10.7813 24.252 11.6346 23.0253 12.7226 21.98C13.8319 20.9347 15.1226 20.1347 16.5946 19.58C18.0666 19.004 19.6773 18.716 21.4266 18.716C23.3679 18.716 25.1173 19.0573 26.6746 19.74C28.2533 20.4013 29.5759 21.3827 30.6426 22.684L27.3146 25.756C26.5466 24.8813 25.6933 24.2307 24.7546 23.804C23.8159 23.356 22.7919 23.132 21.6826 23.132C20.6373 23.132 19.6773 23.3027 18.8026 23.644C17.9279 23.9853 17.1706 24.476 16.5306 25.116C15.8906 25.756 15.3893 26.5133 15.0266 27.388C14.6853 28.2627 14.5146 29.2333 14.5146 30.3C14.5146 31.3667 14.6853 32.3373 15.0266 33.212C15.3893 34.0867 15.8906 34.844 16.5306 35.484C17.1706 36.124 17.9279 36.6147 18.8026 36.956C19.6773 37.2973 20.6373 37.468 21.6826 37.468C22.7919 37.468 23.8159 37.2547 24.7546 36.828C25.6933 36.38 26.5466 35.708 27.3146 34.812L30.6426 37.884C29.5759 39.1853 28.2533 40.1773 26.6746 40.86C25.1173 41.5427 23.3573 41.884 21.3946 41.884Z" fill="#010101"/>
<path d="M274.624 9H279.624V51H274.624V9Z" fill="#010101"/>
</svg>
