<svg width="31" height="31" viewBox="0 0 31 31" fill="none" xmlns="http://www.w3.org/2000/svg">
<path d="M11.3875 20.563C11.0819 20.563 10.8203 20.4542 10.6028 20.2366C10.3852 20.019 10.2764 19.7574 10.2764 19.4519V11.6741C10.2764 11.3685 10.3852 11.107 10.6028 10.8894C10.8203 10.6718 11.0819 10.563 11.3875 10.563H15.2764V11.6741H11.3875V19.4519H19.1653V15.563H20.2764V19.4519C20.2764 19.7574 20.1676 20.019 19.95 20.2366C19.7324 20.4542 19.4708 20.563 19.1653 20.563H11.3875ZM13.9986 17.6185L13.2208 16.8408L18.3875 11.6741H16.3875V10.563H20.2764V14.4519H19.1653V12.4519L13.9986 17.6185Z" fill="#FCBF45"/>
</svg>
