<svg width="30" height="30" viewBox="0 0 30 30" fill="none" xmlns="http://www.w3.org/2000/svg">
<path d="M4.47376 25.9582C3.78248 25.9582 3.19737 25.7335 2.71842 25.2841C2.23947 24.8348 2 24.2858 2 23.6372V9.02094C2 8.37237 2.23947 7.82341 2.71842 7.37405C3.19737 6.92469 3.78248 6.70001 4.47376 6.70001H25.5262C26.2175 6.70001 26.8026 6.92469 27.2816 7.37405C27.7605 7.82341 28 8.37237 28 9.02094V23.6372C28 24.2858 27.7605 24.8348 27.2816 25.2841C26.8026 25.7335 26.2175 25.9582 25.5262 25.9582H4.47376ZM15 17.0452L4.05263 10.4775V23.6372C4.05263 23.7526 4.09209 23.8473 4.171 23.9213C4.24991 23.9953 4.35083 24.0324 4.47376 24.0324H25.5262C25.6492 24.0324 25.7501 23.9953 25.829 23.9213C25.9079 23.8473 25.9474 23.7526 25.9474 23.6372V10.4775L15 17.0452ZM15 15.0452L25.737 8.62583H4.26303L15 15.0452ZM4.05263 10.4775V8.62583V23.6372C4.05263 23.7526 4.09209 23.8473 4.171 23.9213C4.24991 23.9953 4.35083 24.0324 4.47376 24.0324H4.05263V10.4775Z" fill="#FCBF45"/>
</svg>
