<svg width="78" height="78" viewBox="0 0 78 78" fill="none" xmlns="http://www.w3.org/2000/svg">
<path d="M38.9694 40.6877L26.3607 29.2669C19.5081 22.4143 29.5814 9.25741 38.9694 19.9017C48.3575 9.25741 58.3849 22.46 51.578 29.2669L38.9694 40.6877Z" fill="#FFFF74"/>
<path d="M21.6081 62.1065L17.3919 57.0892C16.0362 55.4118 15.2926 53.3222 15.2838 51.1654V40.2665C15.2838 39.4279 15.6169 38.6237 16.21 38.0307C16.803 37.4374 17.6073 37.1044 18.4459 37.1044C19.2846 37.1044 20.0889 37.4374 20.6819 38.0307C21.2749 38.6237 21.6081 39.4279 21.6081 40.2665V48.4249M31.0957 62.1065V55.7822C31.0998 53.9049 30.5418 52.0692 29.4935 50.5119L27.0903 46.8227C26.2405 45.3595 24.2595 44.9238 22.8741 45.8952C21.6568 46.7135 21.2251 48.3576 21.8833 49.6687L24.7292 54.4119M56.3919 62.1065L60.6081 57.0892C61.9638 55.4118 62.7074 53.3222 62.7162 51.1654V40.2665C62.7162 39.4279 62.3831 38.6237 61.7901 38.0307C61.1971 37.4374 60.3927 37.1044 59.5541 37.1044C58.7154 37.1044 57.911 37.4374 57.318 38.0307C56.725 38.6237 56.3919 39.4279 56.3919 40.2665V48.4249M46.9054 62.1065V55.7822C46.9014 53.9049 47.4594 52.0692 48.5076 50.5119L50.9108 46.8227C51.7606 45.3595 53.7416 44.9238 55.127 45.8952C56.3445 46.7135 56.776 48.3576 56.1178 49.6687L53.2719 54.4119M38.9694 40.6877L26.3607 29.2669C19.5081 22.4143 29.5814 9.25741 38.9694 19.9017C48.3575 9.25741 58.3849 22.46 51.578 29.2669L38.9694 40.6877Z" stroke="#FFFF74" stroke-width="2.10811" stroke-linecap="round" stroke-linejoin="round"/>
</svg>
