<svg width="74" height="74" viewBox="0 0 74 74" fill="none" xmlns="http://www.w3.org/2000/svg">
<path d="M42 32.0006V24.0006H20V50.0006H30M48 30.0006V20.0006C48 18.896 47.1046 18.0006 46 18.0006H37.1C36.0128 15.6384 33.6503 14.125 31.05 14.125C28.4497 14.125 26.0872 15.6384 25 18.0006H16C14.8954 18.0006 14 18.896 14 20.0006V54.0006C14 55.1051 14.8954 56.0006 16 56.0006H32M26 30.0006H36M26 36.0006H36M26 42.0006H32M52.24 43.7606L43.76 52.2406M52.24 52.2406L43.76 43.7606M60 48.0006C60 54.628 54.6274 60.0006 48 60.0006C41.3726 60.0006 36 54.628 36 48.0006C36 41.3731 41.3726 36.0006 48 36.0006C54.6274 36.0006 60 41.3731 60 48.0006Z" stroke="#FFFF74" stroke-width="2" stroke-linecap="round" stroke-linejoin="round"/>
</svg>
