<svg width="78" height="78" viewBox="0 0 78 78" fill="none" xmlns="http://www.w3.org/2000/svg">
<path d="M57.5514 61.3457L51.2038 57.5891C50.0674 56.7747 49.4947 55.3837 49.7282 54.0053V50.0884L47.3481 47.7147C46.2386 46.6043 46.2386 44.8049 47.3481 43.6945C47.4803 43.5621 47.6251 43.4428 47.7803 43.3383C48.9079 42.5908 50.4057 42.7397 51.3641 43.6945L54.7075 47.0401M51.3261 32.5743L59.1767 39.531C60.3464 41.1668 60.9752 43.1276 60.9749 45.1386V49.8144C60.973 51.1572 61.5037 52.446 62.4506 53.3982L63.0641 54.0095M23.2925 47.0401L26.636 43.6945C27.5943 42.7397 29.0921 42.5908 30.2197 43.3383C30.375 43.4428 30.5197 43.5621 30.6519 43.6945C31.7614 44.8049 31.7614 46.6043 30.6519 47.7147L28.2803 50.0884V53.9969C28.5137 55.3753 27.941 56.7663 26.8046 57.5806L20.4487 61.3457M14.9296 53.9969L15.5431 53.3855C16.49 52.4334 17.0207 51.1446 17.0188 49.8017V45.128C17.0185 43.117 17.6472 41.1563 18.817 39.5205L26.6739 32.5743M51.3746 43.6945V22.5565C51.3734 21.6687 50.654 20.9492 49.7661 20.948H43.3343C43.3343 18.5799 41.4145 16.6602 39.0464 16.6602C36.6782 16.6602 34.7585 18.5799 34.7585 20.948H28.3288C27.4404 20.948 26.7203 21.6682 26.7203 22.5565V43.6945M28.3288 53.8345H49.7661M39.0464 28.489V32.8789V37.2689M39.0464 41.9896L39.0464 42.8008" stroke="#FFFF74" stroke-width="2" stroke-linecap="round" stroke-linejoin="round"/>
</svg>
