<svg width="78" height="78" viewBox="0 0 78 78" fill="none" xmlns="http://www.w3.org/2000/svg">
<path d="M13.1097 29.7469C11.025 33.2535 9.72974 37.1724 9.31426 41.2307C9.30102 41.5789 9.43015 41.9175 9.67191 42.1684C9.91366 42.4194 10.2472 42.561 10.5956 42.5608H15.6212C15.9697 42.561 16.3032 42.4194 16.545 42.1684C16.7867 41.9175 16.9159 41.5789 16.9026 41.2307C16.4879 37.1726 15.1936 33.2537 13.1097 29.7469Z" fill="#FFFF74"/>
<path d="M13.1097 29.7469C11.025 33.2535 9.72974 37.1724 9.31426 41.2307C9.30102 41.5789 9.43015 41.9175 9.67191 42.1684C9.91366 42.4194 10.2472 42.561 10.5956 42.5608H15.6212C15.9697 42.561 16.3032 42.4194 16.545 42.1684C16.7867 41.9175 16.9159 41.5789 16.9026 41.2307C16.4879 37.1726 15.1936 33.2537 13.1097 29.7469ZM13.1097 29.7469V15.0392M23.3608 34.8725V16.8229M54.114 16.8229V34.8725M23.3608 27.1842C33.3416 30.5132 44.1332 30.5132 54.114 27.1842M34.8932 46.4049C37.0454 48.4564 40.4293 48.4564 42.5815 46.4049M36.1746 36.1539C35.6215 35.2873 34.6369 34.795 33.6119 34.8725C32.5868 34.795 31.6022 35.2873 31.0491 36.1539M46.4257 36.1539C45.8726 35.2873 44.888 34.795 43.8629 34.8725C42.8379 34.795 41.8532 35.2873 41.3002 36.1539M23.4095 34.8725C21.1773 35.9924 21.8718 41.0231 24.6319 42.2763C25.409 42.6304 25.9586 43.3482 26.0978 44.1907C27.2306 50.9641 35.1828 55.3746 38.7374 55.3746C42.2919 55.3746 50.2442 50.9641 51.377 44.1907C51.5161 43.3482 52.0658 42.6304 52.8429 42.2763C55.6055 41.0206 56.2975 35.9924 54.0653 34.8725M68.2092 68.1884C67.3597 64.9432 64.9794 62.317 61.833 61.1536L49.0987 56.9328L39.578 67.1838C39.3356 67.4443 38.9958 67.5922 38.64 67.5922C38.2842 67.5922 37.9444 67.4443 37.702 67.1838L28.23 56.9815L15.6417 61.1536C12.4953 62.317 10.115 64.9432 9.26556 68.1884M22.6099 40.0928C22.1298 43.8003 20.2242 47.1749 17.2973 49.5007C16.92 49.7161 16.6775 50.108 16.6532 50.5418C16.6289 50.9756 16.826 51.3921 17.1768 51.6483C19.3034 53.3042 21.9495 54.1499 24.6422 54.0343M54.8649 40.0928C55.345 43.8003 57.2506 47.1749 60.1775 49.5007C60.5548 49.7161 60.7972 50.108 60.8216 50.5418C60.8459 50.9756 60.6488 51.3921 60.298 51.6483C58.1714 53.3042 55.5253 54.1499 52.8326 54.0343M39.1756 19.4215L64.5803 15.0033C64.8886 14.9512 65.1142 14.6842 65.1142 14.3716C65.1142 14.059 64.8886 13.792 64.5803 13.7399L39.1756 9.32168C38.8855 9.27298 38.5893 9.27298 38.2992 9.32168L12.8944 13.7399C12.5862 13.792 12.3606 14.059 12.3606 14.3716C12.3606 14.6842 12.5862 14.9512 12.8944 15.0033L38.2992 19.4215C38.5893 19.4702 38.8855 19.4702 39.1756 19.4215Z" stroke="#FFFF74" stroke-width="2.11" stroke-linecap="round" stroke-linejoin="round"/>
</svg>
