<svg width="74" height="74" viewBox="0 0 74 74" fill="none" xmlns="http://www.w3.org/2000/svg">
<path d="M54.6 58.2006L48.578 54.6366C47.4999 53.864 46.9565 52.5444 47.178 51.2366V47.5206L44.92 45.2686C43.8674 44.2152 43.8674 42.5081 44.92 41.4546C45.0454 41.329 45.1827 41.2158 45.33 41.1166C46.3998 40.4075 47.8208 40.5488 48.73 41.4546L51.902 44.6286M48.694 30.9046L56.142 37.5046C57.2517 39.0566 57.8483 40.9168 57.848 42.8246V47.2606C57.8462 48.5346 58.3497 49.7573 59.248 50.6606L59.83 51.2406M22.098 44.6286L25.27 41.4546C26.1792 40.5488 27.6002 40.4075 28.67 41.1166C28.8173 41.2158 28.9546 41.329 29.08 41.4546C30.1326 42.5081 30.1326 44.2152 29.08 45.2686L26.83 47.5206V51.2286C27.0515 52.5364 26.5081 53.856 25.43 54.6286L19.4 58.2006M14.164 51.2286L14.746 50.6486C15.6443 49.7453 16.1478 48.5226 16.146 47.2486V42.8146C16.1457 40.9068 16.7423 39.0466 17.852 37.4946L25.306 30.9046M48.74 41.4546V21.4006C48.7389 20.5583 48.0563 19.8757 47.214 19.8746H41.112C41.112 17.6279 39.2907 15.8066 37.044 15.8066C34.7973 15.8066 32.976 17.6279 32.976 19.8746H26.876C26.0332 19.8746 25.35 20.5579 25.35 21.4006V41.4546M26.876 51.0746H47.214M29.354 26.2466H35.834M42.974 26.2466H44.842M29.354 30.9146H35.834M42.974 30.9146H44.842M29.354 36.6826H35.834M42.974 36.6826H44.842" stroke="#FFFF74" stroke-width="2" stroke-linecap="round" stroke-linejoin="round"/>
</svg>
