<svg width="78" height="78" viewBox="0 0 78 78" fill="none" xmlns="http://www.w3.org/2000/svg">
<path d="M29.5136 37.9451H25.2974L18.9731 44.2694V37.9451H16.8649C15.7007 37.9451 14.7568 37.0012 14.7568 35.8369V16.864C14.7568 15.6997 15.7007 14.7559 16.8649 14.7559H42.1622C43.3265 14.7559 44.2704 15.6997 44.2704 16.864V35.8369M48.4866 35.8369H61.1352C62.2995 35.8369 63.2433 36.7808 63.2433 37.9451V54.8099C63.2433 55.9742 62.2995 56.918 61.1352 56.918H59.0271V63.2423L52.7028 56.918H35.8379C34.6736 56.918 33.7298 55.9742 33.7298 54.8099V37.9451C33.7298 36.7808 34.6736 35.8369 35.8379 35.8369H37.946M25.2974 31.6207V22.1342C25.2974 20.3878 26.7131 18.9721 28.4595 18.9721C30.206 18.9721 31.6217 20.3878 31.6217 22.1342V31.6207M25.2974 25.2964H31.6217M50.5947 42.1613V40.0532M44.2704 42.1613H56.919M47.4325 42.1613C47.7163 46.8909 51.2012 50.8114 55.8649 51.6478M53.7568 42.1613C53.4731 46.8909 49.9882 50.8114 45.3244 51.6478" stroke="#FFFF74" stroke-width="2.10811" stroke-linecap="round" stroke-linejoin="round"/>
</svg>
