<svg width="78" height="78" viewBox="0 0 78 78" fill="none" xmlns="http://www.w3.org/2000/svg">
<path fill-rule="evenodd" clip-rule="evenodd" d="M32.3363 44.7761H25.8138H15.2838V58.6686C15.2838 59.8069 16.2071 60.7324 17.3455 60.7324H60.6545C61.7929 60.7324 62.7162 59.8069 62.7162 58.6686V44.7761H50.5023L50.5018 44.7782H44.2871V44.7761H32.3363ZM39 50.9634C40.708 50.9634 42.0926 49.5788 42.0926 47.8708V44.7782H35.9074V47.8708C35.9074 49.5788 37.292 50.9634 39 50.9634Z" fill="#FFFF74"/>
<path d="M32.3363 44.7761L30.2492 33.8983C31.8155 32.9363 33.0516 31.52 33.793 29.8381C34.9174 27.2907 34.8062 24.3674 33.4916 21.9127C32.177 19.4581 29.8053 17.7454 27.0618 17.2695L28.3541 24.0113L25.8138 27.7532L22.0698 25.2129L20.7775 18.4733C17.57 20.4426 15.9163 24.1917 16.6244 27.8883C17.3325 31.5849 20.2546 34.4574 23.9629 35.102L25.8138 44.7761M32.3363 44.7761H25.8138M32.3363 44.7761H44.2871M25.8138 44.7761H15.2838M44.2871 44.7761L47.9637 28.2359L54.0498 29.5893L50.5023 44.7761M44.2871 44.7761V44.7782H50.5018L50.5023 44.7761M15.2838 44.7761V58.6686C15.2838 59.8069 16.2071 60.7324 17.3455 60.7324H60.6545C61.7929 60.7324 62.7162 59.8069 62.7162 58.6686V44.7761H50.5023M15.2838 44.7761H50.5023M48.5413 18.5428C47.911 21.3782 44.5759 23.2692 40.0056 22.2531L39.1138 26.2606L60.4901 31.0123L62.5687 21.6607L48.5413 18.5428ZM42.0926 47.8708C42.0926 49.5788 40.708 50.9634 39 50.9634C37.292 50.9634 35.9074 49.5788 35.9074 47.8708V44.7782H42.0926V47.8708Z" stroke="#FFFF74" stroke-width="2.10811" stroke-linecap="round" stroke-linejoin="round"/>
</svg>
