<svg width="30" height="30" viewBox="0 0 30 30" fill="none" xmlns="http://www.w3.org/2000/svg">
<path d="M16.4622 11.9071L16.2419 11.7889L16.4622 11.9071C17.1356 10.652 18.7746 9.30997 21.2385 9.30997C23.8561 9.30997 25.3494 10.1664 26.2082 11.5304C27.0836 12.9209 27.3321 14.8856 27.3321 17.1718V24.141V24.1416L27.3287 25.5396C27.3277 25.9531 26.9922 26.2878 26.5787 26.2878H23.2931C22.8789 26.2878 22.5431 25.952 22.5431 25.5378V18.2378C22.5431 17.2597 22.5363 16.0805 22.1665 15.1466C21.9787 14.6724 21.693 14.2487 21.258 13.9452C20.8224 13.6414 20.2584 13.473 19.5403 13.473C18.8196 13.473 18.2334 13.6138 17.7619 13.8748C17.2889 14.1367 16.9463 14.5113 16.7018 14.9547C16.2192 15.8298 16.1157 16.9791 16.1157 18.0953V25.5378C16.1157 25.952 15.7799 26.2878 15.3657 26.2878H12.0768C11.6625 26.2878 11.3268 25.952 11.3268 25.5378V10.4875C11.3268 10.0733 11.6625 9.73751 12.0768 9.73751H15.1548C15.569 9.73751 15.9048 10.0733 15.9048 10.4875V11.7671C15.9048 11.9307 16.0374 12.0633 16.201 12.0633C16.3097 12.0633 16.4103 12.0038 16.4622 11.9071ZM7.51019 25.5378C7.51019 25.952 7.1744 26.2878 6.76019 26.2878H3.46554C3.05133 26.2878 2.71554 25.952 2.71554 25.5378V10.4875C2.71554 10.0733 3.05133 9.73751 3.46554 9.73751H6.76019C7.1744 9.73751 7.51019 10.0733 7.51019 10.4875V25.5378ZM5.11001 6.9117C3.55809 6.9117 2.2937 5.62437 2.2937 4.06631C2.2937 3.31938 2.59042 2.60304 3.11858 2.07488C3.64674 1.54672 4.36308 1.25 5.11001 1.25C5.85695 1.25 6.57329 1.54672 7.10145 2.07488C7.62961 2.60304 7.92633 3.31938 7.92633 4.06631C7.92633 5.62434 6.6614 6.9117 5.11001 6.9117Z" fill="#FCBF45" stroke="#010101" stroke-width="0.5"/>
</svg>
