<svg width="78" height="78" viewBox="0 0 78 78" fill="none" xmlns="http://www.w3.org/2000/svg">
<path d="M23.1892 24.2423H31.6216V41.1072H23.1892V24.2423Z" fill="#FFFF74"/>
<path d="M24.2432 60.0801H53.7567M37.9459 55.8639V60.0801M14.7567 47.4315H63.2432M37.9459 25.2963H54.9141M37.9459 32.7232H54.9141M37.9459 40.0531H49.6438M17.9189 17.918H60.0811C60.0811 17.918 63.2432 17.918 63.2432 21.0801V52.7018C63.2432 52.7018 63.2432 55.8639 60.0811 55.8639H17.9189C17.9189 55.8639 14.7567 55.8639 14.7567 52.7018V21.0801C14.7567 21.0801 14.7567 17.918 17.9189 17.918ZM23.1892 24.2423H31.6216V41.1072H23.1892V24.2423Z" stroke="#FFFF74" stroke-width="2" stroke-linecap="round" stroke-linejoin="round"/>
</svg>
