<svg width="78" height="78" viewBox="0 0 78 78" fill="none" xmlns="http://www.w3.org/2000/svg">
<path d="M51.84 51.4947L62.1968 61.6258M28.582 49.263V41.9382C26.9665 40.4417 25.8399 38.4927 25.3492 36.3458C24.8585 34.199 25.0266 31.9541 25.8315 29.9043C26.6364 27.8545 28.0407 26.095 29.861 24.8556C31.6814 23.6163 33.8331 22.9546 36.0353 22.9571C44.382 22.9571 46.1836 29.8294 49.1589 37.5481C49.21 37.6809 49.2279 37.8242 49.2112 37.9657C49.1946 38.1069 49.1438 38.2421 49.0632 38.3595C48.9827 38.4767 48.8748 38.5728 48.7489 38.6392C48.6231 38.7056 48.4829 38.7404 48.3406 38.7406H46.1193V42.2481C46.1193 43.1784 45.7497 44.0704 45.092 44.7283C44.4343 45.386 43.5421 45.7556 42.6118 45.7556H40.8581V49.263M36.6511 58.0722C48.1656 58.0722 57.4999 48.7381 57.4999 37.2236C57.4999 25.7092 48.1656 16.375 36.6511 16.375C25.1368 16.375 15.8026 25.7092 15.8026 37.2236C15.8026 48.7381 25.1368 58.0722 36.6511 58.0722Z" stroke="#FFFF74" stroke-width="2" stroke-linecap="round" stroke-linejoin="round"/>
</svg>
