<svg width="78" height="78" viewBox="0 0 78 78" fill="none" xmlns="http://www.w3.org/2000/svg">
<path d="M45.3243 27.4051C45.2252 23.9542 42.4509 21.1799 39 21.0808C35.5491 21.1799 32.7748 23.9542 32.6757 27.4051C32.7231 29.5976 33.9256 31.6018 35.8378 32.6754V34.7835H42.1622V32.6754C44.0744 31.6018 45.2769 29.5976 45.3243 27.4051Z" fill="#FFFF74"/>
<path d="M22.1351 49.5403C25.628 49.5403 28.4595 52.3718 28.4595 55.8646C28.4595 59.3574 25.628 62.1889 22.1351 62.1889C18.6423 62.1889 15.8108 59.3574 15.8108 55.8646C15.8108 52.3718 18.6423 49.5403 22.1351 49.5403ZM22.1351 49.5403V44.27C22.1351 43.6879 22.6071 43.216 23.1892 43.216H54.8108C55.393 43.216 55.8649 43.6879 55.8649 44.27V49.5403M55.8649 49.5403L49.5405 62.1889H62.1892L55.8649 49.5403ZM42.1622 38.9997H35.8378M39 38.9997V49.5403M39 15.8105V17.9187M47.2005 19.2046L45.7038 20.7014M50.5946 26.3511H48.4865M30.7995 19.2046L32.2962 20.7014M27.4054 26.3511H29.5135M32.6757 49.5403H45.3243V62.1889H32.6757V49.5403ZM45.3243 27.4051C45.2252 23.9542 42.4509 21.1799 39 21.0808C35.5491 21.1799 32.7748 23.9542 32.6757 27.4051C32.7231 29.5976 33.9256 31.6018 35.8378 32.6754V34.7835H42.1622V32.6754C44.0744 31.6018 45.2769 29.5976 45.3243 27.4051Z" stroke="#FFFF74" stroke-width="2.10811" stroke-linecap="round" stroke-linejoin="round"/>
</svg>
