<svg width="78" height="78" viewBox="0 0 78 78" fill="none" xmlns="http://www.w3.org/2000/svg">
<path d="M38.9694 40.6916L26.3607 29.2708C19.5081 22.4182 29.5814 9.26132 38.9694 19.9056C48.3575 9.26132 58.3849 22.4639 51.578 29.2708L38.9694 40.6916Z" fill="#FFFF74"/>
<path d="M21.6081 62.1104L17.3919 57.0931C16.0362 55.4157 15.2926 53.3262 15.2838 51.1693V40.2704C15.2838 39.4318 15.6169 38.6276 16.21 38.0346C16.803 37.4413 17.6073 37.1083 18.4459 37.1083C19.2846 37.1083 20.0889 37.4413 20.6819 38.0346C21.2749 38.6276 21.6081 39.4318 21.6081 40.2704V48.4288M31.0957 62.1104V55.7861C31.0998 53.9088 30.5418 52.0731 29.4935 50.5158L27.0903 46.8266C26.2405 45.3634 24.2595 44.9277 22.8741 45.8991C21.6568 46.7174 21.2251 48.3616 21.8833 49.6726L24.7292 54.4158M56.3919 62.1104L60.6081 57.0931C61.9638 55.4157 62.7074 53.3262 62.7162 51.1693V40.2704C62.7162 39.4318 62.3831 38.6276 61.7901 38.0346C61.1971 37.4413 60.3927 37.1083 59.5541 37.1083C58.7154 37.1083 57.911 37.4413 57.318 38.0346C56.725 38.6276 56.3919 39.4318 56.3919 40.2704V48.4288M46.9054 62.1104V55.7861C46.9014 53.9088 47.4594 52.0731 48.5076 50.5158L50.9108 46.8266C51.7606 45.3634 53.7416 44.9277 55.127 45.8991C56.3445 46.7174 56.776 48.3616 56.1178 49.6726L53.2719 54.4158M38.9694 40.6916L26.3607 29.2708C19.5081 22.4182 29.5814 9.26132 38.9694 19.9056C48.3575 9.26132 58.3849 22.4639 51.578 29.2708L38.9694 40.6916Z" stroke="#FFFF74" stroke-width="2.10811" stroke-linecap="round" stroke-linejoin="round"/>
</svg>
