                                                <svg class="link-icon-new" width="13" height="13" viewBox="-2 0 14 12" xmlns="http://www.w3.org/2000/svg">
                                                    <path d="M1.78665 10.8799C1.48109 10.8799 1.21952 10.7711 1.00193 10.5535C0.784333 10.3359 0.675537 10.0743 0.675537 9.76877V1.99099C0.675537 1.68544 0.784333 1.42386 1.00193 1.20627C1.21952 0.988679 1.48109 0.879883 1.78665 0.879883H5.67554V1.99099H1.78665V9.76877H9.56443V5.87988H10.6755V9.76877C10.6755 10.0743 10.5667 10.3359 10.3491 10.5535C10.1316 10.7711 9.86998 10.8799 9.56443 10.8799H1.78665Z"/>
                                                    <path class="link-icon-new-arrow" d="M3.61987 7.15766L4.39765 7.93544L9.56432 2.76877V4.76877H10.6754V0.879883H6.78654V1.99099H8.78654L3.61987 7.15766Z"/>
                                                </svg>
