<svg width="78" height="78" viewBox="0 0 78 78" fill="none" xmlns="http://www.w3.org/2000/svg">
<path d="M15.4293 57.7097C37.5644 65.088 30.186 65.088 55.4833 52.4394C54.0262 50.4795 51.5006 49.6376 49.159 50.3313L40.0541 53.2131M15.4293 45.9844H21.7536C26.714 45.9844 30.186 50.2006 31.2401 50.2006H38.6184C40.7266 50.2006 40.7266 54.4168 38.6184 54.4168H27.0239" stroke="#FFFF74" stroke-width="2" stroke-linecap="round" stroke-linejoin="round"/>
<path d="M42.1622 13.5137L29.7011 29.0757C29.5016 29.3103 29.4564 29.6394 29.5854 29.9191C29.7143 30.1987 29.994 30.378 30.302 30.3785H35.8378V43.0272L48.2989 27.4672C48.4987 27.2324 48.5437 26.9028 48.4142 26.6229C48.2847 26.3431 48.0043 26.1641 47.6959 26.1644H42.1622V13.5137Z" fill="#FFFF74" stroke="#FFFF74" stroke-width="2" stroke-linecap="round" stroke-linejoin="round"/>
</svg>
