<svg width="78" height="78" viewBox="0 0 78 78" fill="none" xmlns="http://www.w3.org/2000/svg">
<path d="M41.1081 40.0532H51.6487M51.6487 21.0802H50.5946C48.2661 21.0802 46.3784 22.9678 46.3784 25.2964V52.7018C46.3784 55.0304 48.2661 56.918 50.5946 56.918H51.6487M55.8649 22.1342L57.973 24.2423L63.2433 20.0261M55.8649 41.1072L57.973 43.2153L63.2433 38.9991M55.8649 53.7559L62.1892 60.0802M62.1892 53.7559L55.8649 60.0802M30.9997 34.161L26.3514 41.5415L21.703 34.161M18.973 22.1342C18.973 26.2092 22.2764 29.5126 26.3514 29.5126C30.4263 29.5126 33.7297 26.2092 33.7297 22.1342C33.7297 18.0593 30.4263 14.7559 26.3514 14.7559C22.2764 14.7559 18.973 18.0593 18.973 22.1342ZM26.3514 32.6748C30.0623 32.6711 33.29 35.2166 34.1514 38.8262L37.946 52.7018H31.7123L29.4903 63.2423H23.166L20.9441 52.7018H14.7568L18.5619 38.8262C19.4223 35.2204 22.6443 32.676 26.3514 32.6748Z" stroke="#FFFF74" stroke-width="2" stroke-linecap="round" stroke-linejoin="round"/>
<path d="M19.295 20.806C23.363 18.5301 25.7326 16.8699 26.3514 14.7559C26.8484 16.9286 30.0818 19.3038 33.2816 20.806C32.5324 17.8092 30.3832 15.6614 26.3514 14.7559C22.2918 15.6614 20.5437 17.6094 19.295 20.806Z" fill="#FFFF74"/>
<path d="M26.3514 14.7559C25.7326 16.8699 23.363 18.5301 19.295 20.806C20.5437 17.6094 22.2918 15.6614 26.3514 14.7559ZM26.3514 14.7559C26.8484 16.9286 30.0818 19.3038 33.2816 20.806C32.5324 17.8092 30.3832 15.6614 26.3514 14.7559Z" stroke="#FFFF74" stroke-width="2" stroke-linecap="round" stroke-linejoin="round"/>
</svg>
