<svg width="78" height="78" viewBox="0 0 78 78" fill="none" xmlns="http://www.w3.org/2000/svg">
<path d="M56.9189 26.3505C56.8198 22.8995 54.0455 20.1253 50.5946 20.0261C47.1436 20.1253 44.3694 22.8995 44.2703 26.3505C44.3177 28.5429 45.5202 30.5471 47.4324 31.6207V32.6748C47.4324 33.2569 47.9043 33.7288 48.4865 33.7288H52.7027C53.2848 33.7288 53.7567 33.2569 53.7567 32.6748V31.6207C55.669 30.5471 56.8715 28.5429 56.9189 26.3505Z" fill="#FFFF74"/>
<path d="M36.8919 37.6078C35.384 38.5527 33.6327 39.0364 31.8535 38.9991C27.8256 39.0092 24.1576 36.6818 22.4513 33.0332M52.1124 42.1613H49.0767M53.7567 37.9451H47.4324M50.5946 14.7559V16.864M38.5784 27.4045H41.1081M62.1892 27.4045H60.0811M40.054 17.918L42.1622 20.0261M61.1351 17.918L59.027 20.0261M28.4594 54.8099V56.918M15.8108 63.2423C15.679 59.849 16.9692 56.5546 19.3705 54.1534C21.7717 51.7521 25.0661 50.4619 28.4594 50.5937C31.8528 50.4619 35.1472 51.7521 37.5484 54.1534C39.9497 56.5546 41.2399 59.849 41.1081 63.2423H15.8108ZM20.027 38.9991C20.027 43.6562 23.8023 47.4315 28.4594 47.4315C33.1166 47.4315 36.8919 43.6562 36.8919 38.9991C36.8919 34.342 33.1166 30.5667 28.4594 30.5667C23.8023 30.5667 20.027 34.342 20.027 38.9991ZM56.9189 26.3505C56.8198 22.8995 54.0455 20.1253 50.5946 20.0261C47.1436 20.1253 44.3694 22.8995 44.2703 26.3505C44.3177 28.5429 45.5202 30.5471 47.4324 31.6207V32.6748C47.4324 33.2569 47.9043 33.7288 48.4865 33.7288H52.7027C53.2848 33.7288 53.7567 33.2569 53.7567 32.6748V31.6207C55.669 30.5471 56.8715 28.5429 56.9189 26.3505Z" stroke="#FFFF74" stroke-width="2" stroke-linecap="round" stroke-linejoin="round"/>
</svg>
