<svg width="78" height="78" viewBox="0 0 78 78" fill="none" xmlns="http://www.w3.org/2000/svg">
<path d="M29.5135 37.9451H25.2973L18.973 44.2694V37.9451H16.8649C15.7006 37.9451 14.7567 37.0012 14.7567 35.8369V16.864C14.7567 15.6997 15.7006 14.7559 16.8649 14.7559H42.1622C43.3264 14.7559 44.2703 15.6997 44.2703 16.864V35.8369M48.4865 35.8369H61.1351C62.2994 35.8369 63.2432 36.7808 63.2432 37.9451V54.8099C63.2432 55.9742 62.2994 56.918 61.1351 56.918H59.027V63.2423L52.7027 56.918H35.8378C34.6736 56.918 33.7297 55.9742 33.7297 54.8099V37.9451C33.7297 36.7808 34.6736 35.8369 35.8378 35.8369H37.9459M25.2973 31.6207V22.1342C25.2973 20.3878 26.713 18.9721 28.4594 18.9721C30.2059 18.9721 31.6216 20.3878 31.6216 22.1342V31.6207M25.2973 25.2964H31.6216M50.5946 42.1613V40.0532M44.2703 42.1613H56.9189M47.4324 42.1613C47.7162 46.8909 51.2011 50.8114 55.8649 51.6478M53.7567 42.1613C53.473 46.8909 49.9881 50.8114 45.3243 51.6478" stroke="#FFFF74" stroke-width="2.10811" stroke-linecap="round" stroke-linejoin="round"/>
</svg>
