<svg width="78" height="78" viewBox="0 0 78 78" fill="none" xmlns="http://www.w3.org/2000/svg">
<path d="M55.8649 15.8099L51.6486 20.0261L53.7568 23.1883L49.5405 26.3505M22.1351 15.8099L26.3513 20.0261L24.2432 23.1883L28.4595 26.3505M39 14.7559L36.8919 17.918L39 20.0261M31.2843 31.8105C35.5655 36.2962 42.1943 37.627 47.8751 35.1413M39 52.7018V57.9721M30.0405 36.364C30.0405 41.3121 34.0518 45.3234 39 45.3234C43.9482 45.3234 47.9595 41.3121 47.9595 36.364C47.9595 31.4158 43.9482 27.4045 39 27.4045C34.0518 27.4045 30.0405 31.4158 30.0405 36.364ZM24.2432 63.2423C24.2432 55.0924 30.8501 48.4856 39 48.4856C47.1499 48.4856 53.7568 55.0924 53.7568 63.2424L24.2432 63.2423Z" stroke="#FFFF74" stroke-width="2.10811" stroke-linecap="round" stroke-linejoin="round"/>
</svg>
