<svg width="12" height="15" viewBox="0 0 12 15" fill="none" xmlns="http://www.w3.org/2000/svg">
<rect x="9.90222" width="2" height="8" rx="1" transform="rotate(29.195 9.90222 0)" fill="#FC3B9C"/>
<path d="M6 3C6.17906 3 6.35618 3.00905 6.53125 3.02441C4.54302 3.22751 3 4.70578 3 6.5C3 8.433 4.79086 10 7 10C9.20914 10 11 8.433 11 6.5C11 6.11308 10.9264 5.74151 10.7939 5.39355C11.5505 6.39758 12 7.64602 12 9C12 12.3137 9.31371 15 6 15C2.68629 15 0 12.3137 0 9C0 5.68629 2.68629 3 6 3Z" fill="#FC3B9C"/>
</svg>
