<svg width="48" height="50" viewBox="0 0 48 50" fill="none" xmlns="http://www.w3.org/2000/svg">
<path d="M28.7208 8.12166C23.3824 8.12449 18.2735 11.1653 15.8855 16.3293C12.608 23.4171 15.697 31.8203 22.7848 35.0979C29.8725 38.3754 38.2749 35.286 41.5525 28.1983C43.4565 24.0806 43.2121 19.5195 41.283 15.777C45.9061 21.7221 47.1274 29.9812 43.7477 37.2903C38.9266 47.716 26.5693 52.2616 16.1478 47.4425C5.72641 42.6233 1.18717 30.2644 6.00824 19.8387C10.0917 11.0085 19.5803 6.39799 28.7208 8.12166Z" fill="#FC3B9C"/>
<rect x="38.3888" y="1.80609" width="6" height="23.7769" rx="3" transform="rotate(32.4856 38.3888 1.80609)" fill="#fb54a8"/>
<rect x="33.3376" y="5.31467" width="10.4697" height="5.73308" rx="2.86654" transform="rotate(32.4856 33.3376 5.31467)" fill="#fb54a8"/>
</svg>
