<svg width="400" height="408" viewBox="0 0 400 408" fill="none" xmlns="http://www.w3.org/2000/svg">
<path d="M72.8629 153.713L159.664 138.331C164.316 137.507 168.411 141.459 167.751 146.136C164.577 168.608 147.07 186.84 124.138 190.904C101.205 194.968 78.5499 183.852 67.9199 163.826C65.7074 159.658 68.2103 154.537 72.8629 153.713Z" fill="#58CC02"/>
<path d="M233.742 81.9906L164.247 136.298C160.522 139.209 160.714 144.901 164.627 147.539C183.427 160.214 208.67 159.385 227.03 145.037C245.391 130.689 252.302 106.39 244.555 85.0791C242.942 80.6436 237.467 79.0797 233.742 81.9906Z" fill="#58CC02"/>
<path d="M129.249 225.909C130.616 221.936 134.939 219.823 138.906 221.19L150.222 225.09C154.188 226.456 156.296 230.785 154.929 234.758C153.562 238.731 149.238 240.844 145.272 239.477L133.955 235.578C129.989 234.211 127.882 229.882 129.249 225.909Z" fill="#F49000"/>
<path d="M250.024 172.069C246.163 170.428 241.704 172.234 240.064 176.101L235.385 187.134C233.744 191.002 235.545 195.466 239.405 197.106C243.266 198.747 247.725 196.941 249.365 193.074L254.045 182.04C255.685 178.173 253.885 173.709 250.024 172.069Z" fill="#F49000"/>
<path d="M110.34 97.6236C126.971 97.3069 137.878 95.9929 143.062 93.6814C148.212 91.3852 156.35 84.2537 167.477 72.2869C174.912 64.2907 187.412 63.8378 195.396 71.2752C197.342 73.0877 198.902 75.2749 199.982 77.7058L224.756 133.43C237.935 163.076 224.603 197.817 194.978 211.026C165.353 224.236 130.653 210.912 117.473 181.266L92.6552 125.441C88.2207 115.466 92.7064 103.777 102.674 99.3318C105.09 98.2548 107.697 97.6739 110.34 97.6236Z" fill="#58CC02"/>
<path d="M120.071 104.666L144.008 115.017C145.272 115.58 145.62 117.213 144.693 118.242C140.243 123.188 133.007 124.75 126.774 121.975C120.54 119.2 116.859 112.778 117.557 106.162C117.702 104.785 118.806 104.103 120.071 104.666Z" fill="#89E219"/>
<path d="M139.234 113.321C147.271 116.873 157.162 112.432 159.799 104.12C165.981 118.024 175.194 138.749 175.148 138.644C175.117 138.574 168.258 141.632 154.571 147.819C150.009 137.698 144.897 126.199 139.234 113.321Z" fill="#89E219"/>
<path d="M113.856 112.466L137.467 122.977C138.732 123.54 139.08 125.174 138.154 126.203C133.702 131.148 126.462 132.708 120.225 129.931C113.987 127.154 110.302 120.731 110.999 114.114C111.143 112.737 112.59 111.902 113.856 112.466Z" fill="#89E219"/>
<path d="M120.24 114.191L121.817 113.487C132.883 108.553 145.845 113.53 150.768 124.604L156.524 137.55C161.447 148.623 156.467 161.6 145.4 166.535L143.823 167.238C132.757 172.172 119.795 167.195 114.872 156.121L109.117 143.176C104.194 132.102 109.174 119.125 120.24 114.191Z" fill="#89E219"/>
<path d="M165.838 84.2495L157.838 108.858C157.409 110.177 158.387 111.529 159.77 111.528C166.414 111.522 172.414 107.176 174.528 100.675C176.641 94.1731 174.343 87.1328 168.972 83.2251C167.853 82.4118 166.267 82.9305 165.838 84.2495Z" fill="#89E219"/>
<path d="M175.703 84.8985L167.702 109.507C167.274 110.826 168.252 112.178 169.635 112.177C176.279 112.171 182.279 107.825 184.392 101.324C186.506 94.8221 184.208 87.7818 178.836 83.8741C177.718 83.0607 176.132 83.5795 175.703 84.8985Z" fill="#89E219"/>
<path d="M171.787 90.7087L173.364 90.0055C184.43 85.0712 197.392 90.0483 202.315 101.122L208.07 114.068C212.993 125.141 208.013 138.119 196.947 143.053L195.472 143.71C184.468 148.617 171.575 143.725 166.592 132.752L160.735 119.852C155.724 108.818 160.601 95.8019 171.628 90.7801C171.681 90.7559 171.734 90.7323 171.787 90.7087Z" fill="#89E219"/>
<path d="M123.767 121.698C131.899 118.072 141.425 121.73 145.043 129.868L148.973 138.709C152.591 146.847 148.932 156.384 140.799 160.01C132.666 163.637 123.141 159.979 119.523 151.841L115.592 143C111.974 134.862 115.634 125.325 123.767 121.698Z" fill="white"/>
<path d="M175.922 98.4504C184.054 94.8242 193.58 98.4819 197.198 106.62L201.128 115.461C204.746 123.599 201.086 133.136 192.954 136.762C184.821 140.389 175.296 136.731 171.678 128.593L167.747 119.752C164.129 111.614 167.789 102.077 175.922 98.4504Z" fill="white"/>
<path d="M129.824 129.087C133.658 127.378 138.148 129.102 139.854 132.939L143.223 140.517C144.929 144.354 143.203 148.85 139.369 150.559C135.536 152.269 131.045 150.545 129.339 146.708L125.97 139.129C124.264 135.293 125.99 130.797 129.824 129.087Z" fill="#4B4B4B"/>
<path d="M171.13 136.405C169.27 132.22 164.37 130.339 160.188 132.204C156.005 134.069 154.123 138.974 155.984 143.159L161.599 155.79C163.46 159.975 168.359 161.857 172.542 159.992C176.724 158.127 178.607 153.222 176.746 149.036L171.13 136.405Z" fill="#F49000"/>
<path d="M170.009 138.418C168.561 135.163 164.751 133.7 161.498 135.15C158.245 136.601 156.781 140.416 158.228 143.671L161.971 152.092C163.419 155.347 167.229 156.81 170.482 155.36C173.736 153.909 175.2 150.094 173.752 146.839L170.009 138.418Z" fill="#B86D00"/>
<path d="M152.532 143.329C151.276 138.125 154.034 132.424 159.551 129.964C164.466 127.772 170.543 129.535 173.565 133.951L173.836 134.561L164.116 141.042L152.803 143.939L152.532 143.329Z" fill="#FFC200"/>
<path d="M159.365 135.775C158.711 136.407 157.669 136.388 157.038 135.734C156.407 135.079 156.426 134.036 157.08 133.404C158.651 131.887 160.557 131.037 162.735 130.883C163.642 130.819 164.428 131.503 164.492 132.41C164.555 133.318 163.872 134.106 162.965 134.17C161.559 134.269 160.38 134.794 159.365 135.775Z" fill="#FFDE00"/>
<path d="M177.351 107.901C181.185 106.192 185.676 107.916 187.382 111.753L190.751 119.331C192.457 123.168 190.731 127.664 186.897 129.374C183.063 131.083 178.572 129.359 176.867 125.522L173.498 117.944C171.792 114.107 173.517 109.611 177.351 107.901Z" fill="#4B4B4B"/>
<path d="M127.676 140.131C130.116 139.043 131.214 136.182 130.128 133.741C129.043 131.3 126.185 130.202 123.746 131.29C121.306 132.378 120.208 135.239 121.294 137.68C122.379 140.122 125.237 141.219 127.676 140.131Z" fill="white"/>
<path d="M174.363 119.32C176.803 118.232 177.901 115.371 176.816 112.93C175.73 110.489 172.873 109.391 170.433 110.479C167.993 111.567 166.895 114.428 167.981 116.869C169.066 119.311 171.924 120.408 174.363 119.32Z" fill="white"/>
<path d="M118.12 149.581L121.548 163.922C130.116 161.865 140.484 160.758 152.63 160.631L152.484 145.884C139.3 146.022 127.853 147.244 118.12 149.581Z" fill="#89E219"/>
<path d="M201.771 112.289L210.118 124.437C202.859 129.436 195.1 136.412 186.879 145.367L176.033 135.391C184.957 125.671 193.524 117.97 201.771 112.289Z" fill="#89E219"/>
<path d="M159.65 181.391L173.146 175.368C173.869 175.045 174.679 175.485 174.745 176.236C175.062 179.846 172.9 183.402 169.335 184.993C165.769 186.584 161.687 185.816 159.223 183.164C158.71 182.612 158.926 181.714 159.65 181.391Z" fill="#89E219"/>
<path d="M183.204 170.892L196.7 164.869C197.423 164.546 198.233 164.985 198.299 165.737C198.617 169.347 196.455 172.902 192.889 174.494C189.323 176.085 185.241 175.316 182.777 172.664C182.264 172.112 182.48 171.215 183.204 170.892Z" fill="#89E219"/>
<path d="M176.483 187.511L189.979 181.488C190.702 181.165 191.512 181.605 191.578 182.356C191.895 185.966 189.733 189.522 186.168 191.113C182.602 192.704 178.52 191.936 176.056 189.284C175.543 188.732 175.759 187.834 176.483 187.511Z" fill="#89E219"/>
<path d="M191.252 185.403H316.572C319.962 185.403 322.711 188.154 322.711 191.549C322.711 191.971 322.667 192.393 322.581 192.807L303.939 282.057C303.344 284.905 300.836 286.945 297.93 286.945H172.61C169.22 286.945 166.471 284.193 166.471 280.799C166.471 280.376 166.515 279.954 166.601 279.541L185.243 190.291C185.838 187.443 188.346 185.403 191.252 185.403Z" fill="white"/>
<path d="M178.259 248.966H304.641C305.82 248.966 306.776 249.923 306.776 251.104C306.776 251.277 306.755 251.449 306.714 251.617L299.44 281.045C299.204 281.999 298.349 282.669 297.367 282.669H170.985C169.806 282.669 168.85 281.712 168.85 280.531C168.85 280.358 168.871 280.186 168.913 280.018L176.186 250.59C176.422 249.636 177.277 248.966 178.259 248.966Z" fill="#BDFD6C"/>
<path d="M316.572 185.403H191.195L191.001 185.407L190.944 185.41C189.632 185.476 188.387 185.96 187.381 186.779C186.294 187.663 185.534 188.898 185.243 190.291L166.589 279.598L166.553 279.794L166.544 279.852C166.496 280.165 166.471 280.482 166.471 280.799C166.471 282.447 167.128 284.002 168.269 285.145C169.41 286.287 170.964 286.945 172.61 286.945H297.986L298.181 286.94L298.238 286.937C299.549 286.871 300.795 286.387 301.801 285.569C302.888 284.685 303.648 283.45 303.939 282.057L322.593 192.749L322.628 192.553L322.637 192.495C322.686 192.182 322.711 191.865 322.711 191.549C322.711 189.9 322.054 188.345 320.913 187.203C319.772 186.06 318.218 185.403 316.572 185.403ZM312.958 194.488L295.544 277.859H176.223L193.637 194.488H312.958Z" fill="#777777"/>
<path d="M256.424 257.551H286.734C287.914 257.551 288.87 258.508 288.87 259.689C288.87 259.853 288.85 260.018 288.813 260.178L287.682 264.988C287.455 265.954 286.595 266.636 285.604 266.636H255.294C254.115 266.636 253.159 265.679 253.159 264.498C253.159 264.334 253.178 264.169 253.215 264.009L254.346 259.199C254.573 258.233 255.433 257.551 256.424 257.551Z" fill="#89E219"/>
<path d="M279.272 213.46H248.958C247.591 213.46 246.405 214.405 246.097 215.739L245.481 218.411C245.431 218.628 245.406 218.849 245.406 219.072C245.406 220.695 246.721 222.011 248.342 222.011H278.657C280.024 222.011 281.21 221.066 281.517 219.733L282.133 217.061C282.183 216.844 282.208 216.622 282.208 216.4C282.208 214.776 280.894 213.46 279.272 213.46ZM248.958 215.063H279.272C280.01 215.063 280.607 215.662 280.607 216.4C280.607 216.501 280.596 216.601 280.573 216.7L279.957 219.372C279.817 219.978 279.278 220.408 278.657 220.408H248.342C247.605 220.408 247.008 219.81 247.008 219.072C247.008 218.971 247.019 218.87 247.042 218.771L247.658 216.099C247.797 215.493 248.337 215.063 248.958 215.063Z" fill="#D8D8D8"/>
<path d="M274.469 233.769H244.154C242.787 233.769 241.601 234.713 241.294 236.047L240.678 238.719C240.628 238.936 240.603 239.158 240.603 239.38C240.603 241.003 241.917 242.319 243.538 242.319H273.853C275.22 242.319 276.406 241.375 276.714 240.041L277.329 237.369C277.379 237.152 277.405 236.93 277.405 236.708C277.405 235.085 276.09 233.769 274.469 233.769ZM244.154 235.372H274.469C275.206 235.372 275.803 235.97 275.803 236.708C275.803 236.809 275.792 236.91 275.769 237.008L275.153 239.681C275.013 240.287 274.474 240.716 273.853 240.716H243.538C242.801 240.716 242.204 240.118 242.204 239.38C242.204 239.279 242.215 239.178 242.238 239.08L242.854 236.407C242.994 235.801 243.533 235.372 244.154 235.372Z" fill="#D8D8D8"/>
<path d="M276.604 223.614H246.29C244.922 223.614 243.736 224.559 243.429 225.893L242.813 228.565C242.763 228.782 242.738 229.003 242.738 229.226C242.738 230.849 244.052 232.165 245.674 232.165H275.988C277.355 232.165 278.541 231.22 278.849 229.887L279.465 227.215C279.515 226.998 279.54 226.776 279.54 226.554C279.54 224.93 278.225 223.614 276.604 223.614ZM246.29 225.218H276.604C277.341 225.218 277.939 225.816 277.939 226.554C277.939 226.655 277.927 226.756 277.904 226.854L277.288 229.526C277.149 230.132 276.61 230.562 275.988 230.562H245.674C244.937 230.562 244.339 229.964 244.339 229.226C244.339 229.125 244.351 229.024 244.373 228.925L244.989 226.253C245.129 225.647 245.668 225.218 246.29 225.218Z" fill="#47D7FF"/>
<path d="M239.307 213.995H214.306C212.911 213.995 211.709 214.978 211.43 216.346L206.963 238.258C206.924 238.451 206.904 238.648 206.904 238.846C206.904 240.469 208.218 241.785 209.84 241.785H234.84C236.235 241.785 237.438 240.802 237.717 239.433L242.183 217.522C242.223 217.328 242.243 217.131 242.243 216.934C242.243 215.311 240.928 213.995 239.307 213.995ZM214.306 215.598H239.307C240.044 215.598 240.641 216.196 240.641 216.934C240.641 217.024 240.632 217.113 240.614 217.201L236.148 239.113C236.021 239.735 235.474 240.182 234.84 240.182H209.84C209.103 240.182 208.505 239.584 208.505 238.846C208.505 238.756 208.514 238.666 208.532 238.579L212.999 216.667C213.125 216.045 213.672 215.598 214.306 215.598Z" fill="#D8D8D8"/>
<path d="M209.361 262.094C209.361 256.928 205.178 252.741 200.019 252.741C194.86 252.741 190.678 256.928 190.678 262.094C190.678 267.259 194.86 271.446 200.019 271.446C205.178 271.446 209.361 267.259 209.361 262.094Z" fill="white"/>
<path d="M317.112 184.868H190.865L190.725 184.87C189.338 184.906 188.038 185.394 186.992 186.246C185.904 187.131 185.145 188.365 184.855 189.761L166.061 280.08L166.026 280.259C165.962 280.632 165.932 280.982 165.932 281.333C165.932 282.984 166.587 284.535 167.73 285.679C168.872 286.823 170.422 287.479 172.07 287.479H298.318L298.457 287.477C299.844 287.441 301.144 286.953 302.19 286.102C303.278 285.216 304.037 283.982 304.327 282.587L323.121 192.268L323.156 192.088C323.22 191.715 323.25 191.365 323.25 191.014C323.25 189.363 322.595 187.812 321.452 186.668C320.31 185.524 318.761 184.868 317.112 184.868ZM190.885 188.075H317.112C317.902 188.075 318.64 188.387 319.188 188.936C319.736 189.484 320.048 190.223 320.048 191.014C320.048 191.182 320.033 191.349 320.005 191.515L319.981 191.641L301.192 281.933C301.053 282.601 300.691 283.189 300.17 283.614C299.669 284.022 299.049 284.254 298.395 284.271L298.297 284.273H172.07C171.28 284.273 170.542 283.96 169.994 283.412C169.446 282.863 169.134 282.125 169.134 281.333C169.134 281.165 169.149 280.998 169.177 280.832L169.202 280.707L187.99 190.415C188.129 189.746 188.491 189.158 189.012 188.734C189.513 188.326 190.134 188.093 190.787 188.076L190.885 188.075Z" fill="#AFAFAF"/>
<path d="M124.753 275.187H303.309V281.333C303.309 284.727 300.561 287.479 297.171 287.479H124.753C121.363 287.479 118.614 284.727 118.614 281.333C118.614 277.939 121.363 275.187 124.753 275.187Z" fill="#AFAFAF"/>
<path d="M203.254 259.349C203.816 258.873 204.659 258.943 205.135 259.506C205.596 260.051 205.545 260.86 205.03 261.343L204.978 261.389L199.062 266.403C198.522 266.861 197.722 266.814 197.237 266.308L197.191 266.257L194.481 263.122C193.999 262.564 194.06 261.72 194.617 261.237C195.157 260.769 195.966 260.812 196.454 261.324L196.499 261.373L198.345 263.509L203.254 259.349Z" fill="#89E219"/>
<path d="M234.135 256.215C234.872 256.215 235.469 256.813 235.469 257.551C235.469 258.267 234.905 258.852 234.197 258.885L234.135 258.887H213.631C212.894 258.887 212.296 258.289 212.296 257.551C212.296 256.834 212.86 256.249 213.568 256.216L213.631 256.215H234.135Z" fill="#89E219"/>
<path d="M224.307 261.559C225.044 261.559 225.641 262.157 225.641 262.895C225.641 263.612 225.078 264.197 224.37 264.23L224.307 264.231H213.631C212.894 264.231 212.296 263.633 212.296 262.895C212.296 262.178 212.86 261.593 213.568 261.561L213.631 261.559H224.307Z" fill="#89E219"/>
<path d="M299.573 199.128C300.31 199.128 300.907 199.726 300.907 200.464C300.907 201.181 300.343 201.766 299.636 201.799L299.573 201.8H206.691C205.954 201.8 205.357 201.202 205.357 200.464C205.357 199.747 205.921 199.162 206.629 199.13L206.691 199.128H299.573Z" fill="#D8D8D8"/>
<path d="M235.517 199.128C236.254 199.128 236.851 199.726 236.851 200.464C236.851 201.181 236.287 201.766 235.58 201.799L235.517 201.8H206.691C205.954 201.8 205.357 201.202 205.357 200.464C205.357 199.747 205.921 199.162 206.629 199.13L206.691 199.128H235.517Z" fill="#58CC02"/>
<path d="M225.463 221.051C225.55 220.617 225.973 220.336 226.406 220.424C226.823 220.508 227.098 220.902 227.041 221.318L227.033 221.368L224.825 232.324C224.737 232.758 224.315 233.039 223.881 232.951C223.464 232.867 223.189 232.473 223.246 232.057L223.255 232.007L225.463 221.051Z" fill="#979797"/>
<path d="M229.633 224.149C230.075 224.149 230.433 224.508 230.433 224.95C230.433 225.377 230.101 225.725 229.682 225.751L229.633 225.752H225.714C225.272 225.752 224.913 225.393 224.913 224.95C224.913 224.524 225.246 224.175 225.665 224.15L225.714 224.149H229.633Z" fill="#979797"/>
<path d="M217.667 230.695C217.607 230.872 217.564 231.055 217.538 231.241C217.303 232.915 218.468 234.463 220.14 234.698L221.19 234.846C223.096 235.099 224.84 233.761 225.092 231.86L225.374 229.725L222.113 228.543C222.087 228.534 222.061 228.525 222.035 228.516C220.228 227.91 218.272 228.885 217.667 230.695ZM221.526 230.036L221.568 230.051L223.617 230.793L223.504 231.649C223.369 232.673 222.429 233.393 221.407 233.257L220.363 233.111C219.567 232.999 219.012 232.261 219.124 231.464C219.136 231.376 219.157 231.288 219.185 231.204C219.509 230.234 220.558 229.711 221.526 230.036Z" fill="#979797"/>
<path d="M228.938 232.468C228.715 232.85 228.225 232.98 227.843 232.758C226.418 231.929 224.925 231.249 223.363 230.716C222.945 230.574 222.721 230.118 222.863 229.699C223.006 229.28 223.461 229.056 223.879 229.199C225.542 229.765 227.131 230.489 228.648 231.372C229.03 231.594 229.16 232.085 228.938 232.468Z" fill="#979797"/>
<path d="M348.524 144.231C350.327 142.666 353.056 142.86 354.62 144.666C356.161 146.446 355.993 149.128 354.259 150.703L354.185 150.769L351.57 153.039C346.868 157.119 340.234 158.095 334.566 155.554L334.395 155.475C331.994 154.365 329.162 154.867 327.288 156.723L327.204 156.807L324.417 159.671C322.751 161.383 320.016 161.418 318.306 159.751C316.62 158.107 316.562 155.419 318.159 153.704L318.227 153.633L321.014 150.769C325.399 146.263 332.121 144.981 337.845 147.541L338.019 147.62C340.601 148.815 343.636 148.407 345.812 146.584L345.908 146.501L348.524 144.231Z" fill="#FF7878"/>
<path d="M318.959 119.052C319.37 116.698 321.609 115.124 323.96 115.535C326.278 115.941 327.84 118.126 327.488 120.444L327.472 120.542L326.349 126.976C324.605 136.959 317.22 145.002 307.454 147.592L307.157 147.669C300.868 149.257 296.253 154.614 295.595 161.06L295.577 161.256L294.906 168.764C294.694 171.144 292.594 172.901 290.217 172.688C287.873 172.478 286.134 170.431 286.29 168.091L286.298 167.994L286.968 160.485C287.87 150.391 294.984 141.954 304.746 139.356L305.043 139.279C311.585 137.627 316.561 132.315 317.799 125.687L317.835 125.486L318.959 119.052Z" fill="#CE82FF"/>
<path d="M107.057 251.042C109.618 251.49 111.332 253.931 110.885 256.495C110.443 259.026 108.061 260.731 105.536 260.343L105.438 260.327L100.269 259.423C92.3122 258.032 85.9503 252.043 84.0636 244.196L84.0078 243.958C83.0998 239.971 79.7583 237.012 75.706 236.588L75.5778 236.575L69.5467 236.026C66.9577 235.79 65.0497 233.498 65.2853 230.906C65.5178 228.347 67.7529 226.452 70.3014 226.631L70.3996 226.639L76.4306 227.189C84.518 227.925 91.2274 233.737 93.1304 241.622L93.1866 241.862C94.1472 246.079 97.5157 249.317 101.753 250.113L101.888 250.138L107.057 251.042Z" fill="#47D7FF"/>
<path d="M70.5172 258.978L65.4845 253.939C64.2933 252.747 62.362 252.747 61.1708 253.939L56.138 258.978C54.9468 260.171 54.9468 262.104 56.138 263.297L61.1708 268.335C62.362 269.528 64.2933 269.528 65.4845 268.335L70.5172 263.297C71.7085 262.104 71.7085 260.171 70.5172 258.978Z" fill="#FFAADE"/>
<path d="M348.509 177.361L344.735 173.582C343.742 172.588 342.133 172.588 341.14 173.582L337.366 177.361C336.373 178.355 336.373 179.966 337.366 180.96L341.14 184.739C342.133 185.733 343.742 185.733 344.735 184.739L348.509 180.96C349.502 179.966 349.502 178.355 348.509 177.361Z" fill="#47D7FF"/>
<path d="M351.117 103.357L348.241 100.477C347.347 99.583 345.899 99.583 345.005 100.477L342.13 103.357C341.236 104.251 341.236 105.701 342.13 106.596L345.005 109.475C345.899 110.37 347.347 110.37 348.241 109.475L351.117 106.596C352.01 105.701 352.01 104.251 351.117 103.357Z" fill="#FFAADE"/>
<path d="M49.6468 216.605L46.771 213.726C45.8775 212.831 44.429 212.831 43.5356 213.726L40.6598 216.605C39.7664 217.499 39.7664 218.95 40.6598 219.844L43.5356 222.723C44.429 223.618 45.8776 223.618 46.771 222.723L49.6468 219.844C50.5402 218.95 50.5402 217.499 49.6468 216.605Z" fill="#CE82FF"/>
<path d="M296.567 118.573L291.355 113.355C290.362 112.361 288.752 112.361 287.76 113.355L282.547 118.573C281.555 119.567 281.555 121.179 282.547 122.172L287.76 127.391C288.752 128.385 290.362 128.385 291.355 127.391L296.567 122.172C297.56 121.179 297.56 119.567 296.567 118.573Z" fill="#FFB100"/>
</svg>
