<svg width="407" height="523" viewBox="0 0 407 523" fill="none" xmlns="http://www.w3.org/2000/svg">
<path d="M0 226.546C0 159.38 54.4483 0 121.614 0C188.779 0 243.227 159.38 243.227 226.546C243.227 258.8 230.415 289.733 207.608 312.54C184.801 335.347 153.868 348.159 121.614 348.159C89.3598 348.159 58.4268 335.347 35.6198 312.54C12.8128 289.733 4.80622e-07 258.8 0 226.546Z" fill="#63EEFF"/>
<path d="M121.614 522.418C121.349 522.418 121.094 522.313 120.907 522.125C120.719 521.938 120.614 521.683 120.614 521.418V102.134C120.614 101.869 120.719 101.614 120.907 101.427C121.094 101.239 121.349 101.134 121.614 101.134C121.879 101.134 122.133 101.239 122.321 101.427C122.508 101.614 122.614 101.869 122.614 102.134V521.418C122.614 521.683 122.508 521.938 122.321 522.125C122.133 522.313 121.879 522.418 121.614 522.418Z" fill="#7E78BB"/>
<path d="M121.614 183.08C121.482 183.08 121.352 183.054 121.231 183.004C121.109 182.954 120.999 182.88 120.906 182.787L72.7719 134.652C72.6781 134.56 72.6036 134.449 72.5525 134.328C72.5015 134.206 72.475 134.076 72.4746 133.944C72.4742 133.812 72.4999 133.682 72.5501 133.56C72.6004 133.438 72.6743 133.327 72.7676 133.234C72.8608 133.141 72.9715 133.067 73.0934 133.016C73.2154 132.966 73.346 132.94 73.4778 132.941C73.6097 132.941 73.7402 132.968 73.8618 133.019C73.9833 133.07 74.0936 133.145 74.1863 133.238L122.321 181.373C122.461 181.513 122.556 181.691 122.594 181.885C122.633 182.079 122.613 182.28 122.537 182.462C122.462 182.645 122.334 182.801 122.169 182.911C122.005 183.021 121.811 183.08 121.614 183.08Z" fill="#7E78BB"/>
<path d="M121.614 266.41C121.416 266.41 121.223 266.351 121.058 266.241C120.894 266.131 120.766 265.975 120.69 265.792C120.614 265.61 120.594 265.409 120.633 265.215C120.672 265.021 120.767 264.843 120.907 264.703L201.517 184.092C201.609 183.999 201.719 183.924 201.841 183.873C201.963 183.822 202.093 183.795 202.225 183.795C202.357 183.794 202.487 183.82 202.609 183.87C202.731 183.921 202.842 183.995 202.935 184.088C203.028 184.181 203.102 184.292 203.153 184.414C203.203 184.536 203.229 184.666 203.228 184.798C203.228 184.93 203.201 185.06 203.15 185.182C203.099 185.304 203.025 185.414 202.931 185.506L122.321 266.117C122.228 266.21 122.118 266.284 121.997 266.334C121.875 266.384 121.745 266.41 121.614 266.41Z" fill="#7E78BB"/>
<path d="M231.729 308.291C231.729 260.027 270.88 145.5 319.177 145.5C367.473 145.5 406.625 260.027 406.625 308.291C406.609 331.473 397.389 353.701 380.991 370.088C364.593 386.475 342.359 395.68 319.177 395.68C295.994 395.68 273.76 386.475 257.362 370.088C240.964 353.701 231.744 331.473 231.729 308.291Z" fill="#E6E6E6"/>
<path d="M319.177 520.899C319.082 520.899 318.989 520.88 318.901 520.844C318.814 520.808 318.735 520.755 318.668 520.688C318.601 520.622 318.548 520.542 318.512 520.455C318.476 520.368 318.458 520.274 318.458 520.18V218.891C318.458 218.701 318.534 218.519 318.669 218.384C318.804 218.25 318.986 218.175 319.177 218.175C319.367 218.175 319.549 218.25 319.684 218.384C319.819 218.519 319.895 218.701 319.896 218.891V520.18C319.896 520.274 319.877 520.368 319.841 520.455C319.805 520.542 319.752 520.622 319.685 520.688C319.618 520.755 319.539 520.808 319.452 520.844C319.364 520.88 319.271 520.899 319.177 520.899Z" fill="#7E78BB"/>
<path d="M319.176 277.057C319.082 277.057 318.988 277.039 318.901 277.003C318.814 276.967 318.735 276.914 318.668 276.847L284.056 242.258C283.921 242.123 283.846 241.941 283.846 241.75C283.846 241.559 283.922 241.377 284.056 241.242C284.191 241.107 284.374 241.031 284.565 241.031C284.755 241.032 284.938 241.107 285.073 241.242L319.685 275.831C319.785 275.931 319.854 276.059 319.882 276.199C319.909 276.338 319.895 276.482 319.841 276.614C319.786 276.745 319.694 276.857 319.576 276.936C319.458 277.015 319.319 277.057 319.176 277.057Z" fill="#7E78BB"/>
<path d="M319.177 336.937C319.035 336.937 318.896 336.895 318.778 336.816C318.659 336.737 318.567 336.624 318.513 336.493C318.458 336.362 318.444 336.217 318.472 336.078C318.499 335.938 318.568 335.81 318.668 335.71L376.632 277.785C376.699 277.718 376.778 277.665 376.865 277.629C376.953 277.593 377.046 277.574 377.14 277.574C377.235 277.574 377.328 277.593 377.416 277.629C377.503 277.665 377.582 277.718 377.649 277.785C377.716 277.851 377.769 277.93 377.805 278.018C377.841 278.105 377.86 278.198 377.86 278.293C377.86 278.387 377.841 278.481 377.805 278.568C377.769 278.655 377.716 278.734 377.649 278.801L319.685 336.726C319.619 336.793 319.539 336.846 319.452 336.882C319.365 336.918 319.271 336.937 319.177 336.937Z" fill="#7E78BB"/>
</svg>
