<svg width="783" height="523" viewBox="0 0 783 523" fill="none" xmlns="http://www.w3.org/2000/svg">
<g clip-path="url(#clip0_160_623)">
<path d="M0 226.546C0 159.38 54.4483 0 121.614 0C188.779 0 243.227 159.38 243.227 226.546C243.227 258.8 230.415 289.733 207.608 312.54C184.801 335.347 153.868 348.159 121.614 348.159C89.3598 348.159 58.4268 335.347 35.6198 312.54C12.8128 289.733 4.80622e-07 258.8 0 226.546Z" fill="#63EEFF"/>
<path d="M121.614 522.418C121.349 522.418 121.094 522.313 120.907 522.125C120.719 521.938 120.614 521.683 120.614 521.418V102.134C120.614 101.869 120.719 101.614 120.907 101.427C121.094 101.239 121.349 101.134 121.614 101.134C121.879 101.134 122.133 101.239 122.321 101.427C122.508 101.614 122.614 101.869 122.614 102.134V521.418C122.614 521.683 122.508 521.938 122.321 522.125C122.133 522.313 121.879 522.418 121.614 522.418Z" fill="#7E78BB"/>
<path d="M121.614 183.08C121.482 183.08 121.352 183.054 121.231 183.004C121.109 182.954 120.999 182.88 120.906 182.787L72.7719 134.652C72.6781 134.56 72.6036 134.449 72.5525 134.328C72.5015 134.206 72.475 134.076 72.4746 133.944C72.4742 133.812 72.4999 133.682 72.5501 133.56C72.6004 133.438 72.6743 133.327 72.7676 133.234C72.8608 133.141 72.9715 133.067 73.0934 133.016C73.2154 132.966 73.346 132.94 73.4778 132.941C73.6097 132.941 73.7402 132.968 73.8618 133.019C73.9833 133.07 74.0936 133.145 74.1863 133.238L122.321 181.373C122.461 181.513 122.556 181.691 122.594 181.885C122.633 182.079 122.613 182.28 122.537 182.462C122.462 182.645 122.334 182.801 122.169 182.911C122.005 183.021 121.811 183.08 121.614 183.08Z" fill="#7E78BB"/>
<path d="M121.614 266.41C121.416 266.41 121.223 266.351 121.058 266.241C120.894 266.131 120.766 265.975 120.69 265.792C120.614 265.61 120.594 265.409 120.633 265.215C120.672 265.021 120.767 264.843 120.907 264.703L201.517 184.092C201.609 183.999 201.719 183.924 201.841 183.873C201.963 183.822 202.093 183.795 202.225 183.795C202.357 183.794 202.487 183.82 202.609 183.87C202.731 183.921 202.842 183.995 202.935 184.088C203.028 184.181 203.102 184.292 203.153 184.414C203.203 184.536 203.229 184.666 203.228 184.798C203.228 184.93 203.201 185.06 203.15 185.182C203.099 185.304 203.025 185.414 202.931 185.506L122.321 266.117C122.228 266.21 122.118 266.284 121.997 266.334C121.875 266.384 121.745 266.41 121.614 266.41Z" fill="#7E78BB"/>
<path d="M231.729 308.291C231.729 260.027 270.88 145.5 319.177 145.5C367.473 145.5 406.625 260.027 406.625 308.291C406.609 331.473 397.389 353.701 380.991 370.088C364.593 386.475 342.359 395.68 319.177 395.68C295.994 395.68 273.76 386.475 257.362 370.088C240.964 353.701 231.744 331.473 231.729 308.291Z" fill="#E6E6E6"/>
<path d="M319.177 520.899C319.082 520.899 318.989 520.88 318.901 520.844C318.814 520.808 318.735 520.755 318.668 520.688C318.601 520.622 318.548 520.542 318.512 520.455C318.476 520.368 318.458 520.274 318.458 520.18V218.891C318.458 218.701 318.534 218.519 318.669 218.384C318.804 218.25 318.986 218.175 319.177 218.175C319.367 218.175 319.549 218.25 319.684 218.384C319.819 218.519 319.895 218.701 319.896 218.891V520.18C319.896 520.274 319.877 520.368 319.841 520.455C319.805 520.542 319.752 520.622 319.685 520.688C319.618 520.755 319.539 520.808 319.452 520.844C319.364 520.88 319.271 520.899 319.177 520.899Z" fill="#7E78BB"/>
<path d="M319.177 277.057C319.082 277.057 318.989 277.039 318.901 277.003C318.814 276.967 318.735 276.914 318.668 276.847L284.056 242.258C283.922 242.123 283.846 241.941 283.846 241.75C283.846 241.559 283.922 241.377 284.057 241.242C284.192 241.107 284.374 241.031 284.565 241.031C284.756 241.032 284.939 241.107 285.073 241.242L319.685 275.831C319.786 275.931 319.854 276.059 319.882 276.199C319.909 276.338 319.895 276.482 319.841 276.614C319.786 276.745 319.694 276.857 319.576 276.936C319.458 277.015 319.319 277.057 319.177 277.057Z" fill="#7E78BB"/>
<path d="M319.177 336.937C319.035 336.937 318.896 336.895 318.777 336.816C318.659 336.737 318.567 336.624 318.513 336.493C318.458 336.362 318.444 336.217 318.472 336.078C318.499 335.938 318.568 335.81 318.668 335.71L376.632 277.785C376.699 277.718 376.778 277.665 376.865 277.629C376.952 277.593 377.046 277.574 377.14 277.574C377.235 277.574 377.328 277.593 377.415 277.629C377.503 277.665 377.582 277.718 377.649 277.785C377.715 277.851 377.768 277.93 377.805 278.018C377.841 278.105 377.859 278.198 377.859 278.293C377.859 278.387 377.841 278.481 377.805 278.568C377.769 278.655 377.716 278.734 377.649 278.801L319.685 336.726C319.618 336.793 319.539 336.846 319.452 336.882C319.365 336.918 319.271 336.937 319.177 336.937Z" fill="#7E78BB"/>
<path d="M324.396 515.136C323.15 515.135 321.926 514.805 320.848 514.179C319.77 513.553 318.877 512.653 318.258 511.572C317.639 510.49 317.317 509.264 317.323 508.018C317.33 506.771 317.665 505.549 318.295 504.474L328.21 487.545L340.436 494.706L330.521 511.634C329.895 512.702 329 513.587 327.925 514.202C326.851 514.816 325.634 515.138 324.396 515.136Z" fill="#523F28"/>
<path d="M363.304 476.448C368.119 476.448 372.023 472.545 372.023 467.729C372.023 462.914 368.119 459.01 363.304 459.01C358.488 459.01 354.585 462.914 354.585 467.729C354.585 472.545 358.488 476.448 363.304 476.448Z" fill="#523F28"/>
<path d="M286.035 515.136C284.788 515.135 283.564 514.805 282.487 514.179C281.409 513.553 280.515 512.653 279.896 511.572C279.277 510.49 278.955 509.264 278.962 508.017C278.968 506.771 279.304 505.548 279.934 504.473L289.849 487.545L302.074 494.706L292.159 511.634C291.533 512.702 290.638 513.587 289.564 514.201C288.489 514.816 287.273 515.138 286.035 515.136Z" fill="#523F28"/>
<path d="M343.119 503.822H299.188C293.209 503.815 287.477 501.437 283.25 497.21C279.022 492.982 276.644 487.25 276.637 481.272V474.598C276.64 472.522 277.465 470.531 278.933 469.063C280.402 467.595 282.392 466.769 284.468 466.767H343.119C348.033 466.767 352.746 468.719 356.22 472.193C359.695 475.668 361.647 480.381 361.647 485.294C361.647 490.208 359.695 494.921 356.22 498.396C352.746 501.87 348.033 503.822 343.119 503.822Z" fill="#826745"/>
<path d="M341.038 520.902C339.159 520.899 337.359 520.152 336.031 518.824C334.703 517.496 333.955 515.696 333.953 513.817V494.2H348.122V513.817C348.12 515.696 347.373 517.496 346.044 518.824C344.716 520.152 342.916 520.899 341.038 520.902Z" fill="#826745"/>
<path d="M299.925 520.902C298.047 520.899 296.246 520.152 294.918 518.824C293.59 517.496 292.843 515.696 292.841 513.817V494.2H307.009V513.817C307.007 515.696 306.26 517.496 304.932 518.824C303.604 520.152 301.803 520.899 299.925 520.902Z" fill="#826745"/>
<path d="M263.696 454.046L250.1 464.965L235.768 447.121C234.327 445.317 233.661 443.016 233.914 440.721C234.168 438.427 235.321 436.326 237.121 434.881C238.92 433.435 241.22 432.762 243.515 433.01C245.81 433.258 247.914 434.405 249.364 436.201L263.696 454.046Z" fill="#523F28"/>
<path d="M282.922 480.192L260.436 498.252C259.135 499.295 257.474 499.778 255.817 499.598C254.16 499.417 252.642 498.586 251.597 497.288L242.138 485.509C238.818 481.367 237.278 476.077 237.854 470.8C238.43 465.523 241.076 460.691 245.21 457.362L248.798 454.481C252.272 451.697 256.709 450.405 261.135 450.888C265.56 451.371 269.614 453.59 272.406 457.058L283.887 471.354C284.93 472.655 285.413 474.316 285.232 475.973C285.051 477.63 284.221 479.147 282.922 480.192Z" fill="#826745"/>
<path d="M263.696 454.046L254.349 461.553L238.31 441.584C237.315 440.345 236.853 438.76 237.025 437.18C237.198 435.6 237.991 434.152 239.23 433.157C240.47 432.161 242.054 431.699 243.635 431.872C245.215 432.044 246.662 432.837 247.658 434.077L263.696 454.046Z" fill="#826745"/>
<path d="M281.553 481.051L256.91 500.843C255.107 502.284 252.805 502.951 250.51 502.698C248.215 502.445 246.115 501.291 244.669 499.491C243.223 497.691 242.551 495.391 242.798 493.096C243.046 490.801 244.194 488.697 245.991 487.247L270.633 467.456L281.553 481.051Z" fill="#826745"/>
<path d="M247.494 501.739C248.374 501.032 248.056 499.175 246.784 497.591C245.512 496.007 243.768 495.296 242.888 496.003C242.008 496.71 242.326 498.567 243.598 500.151C244.87 501.734 246.614 502.446 247.494 501.739Z" fill="#523F28"/>
<path d="M177.567 509.339C177.567 512.123 176.461 514.794 174.492 516.763C172.523 518.732 169.852 519.839 167.067 519.839C161.268 519.839 161.067 514.589 165.567 509.339C161.067 506.339 161.268 498.839 167.067 498.839C169.852 498.839 172.523 499.945 174.492 501.914C176.461 503.883 177.567 506.554 177.567 509.339Z" fill="#CCCCCC"/>
<path d="M207.568 509.339C207.568 512.123 208.674 514.794 210.643 516.763C212.612 518.732 215.283 519.839 218.068 519.839C223.867 519.839 224.068 514.589 219.568 509.339C224.068 506.339 223.867 498.839 218.068 498.839C215.283 498.839 212.612 499.945 210.643 501.914C208.674 503.883 207.568 506.554 207.568 509.339Z" fill="#CCCCCC"/>
<path d="M213.568 504.089H171.568V514.589H213.568V504.089Z" fill="#CCCCCC"/>
<path d="M604.471 323.48C612.645 323.48 619.271 316.854 619.271 308.68C619.271 300.506 612.645 293.88 604.471 293.88C596.297 293.88 589.671 300.506 589.671 308.68C589.671 316.854 596.297 323.48 604.471 323.48Z" fill="#D8B5B8"/>
<path d="M603.515 391.649C603.229 390.76 603.135 389.82 603.238 388.892C603.341 387.964 603.639 387.068 604.112 386.263C604.586 385.457 605.224 384.761 605.985 384.22C606.747 383.679 607.614 383.305 608.53 383.122C608.82 383.065 609.114 383.029 609.409 383.014L624.998 357.993L610.758 344.455C610.214 343.937 609.778 343.318 609.475 342.631C609.171 341.944 609.007 341.204 608.992 340.453C608.976 339.703 609.109 338.957 609.384 338.258C609.658 337.559 610.068 336.921 610.591 336.382C611.113 335.843 611.737 335.412 612.426 335.115C613.116 334.818 613.857 334.661 614.608 334.652C615.359 334.644 616.104 334.784 616.8 335.064C617.496 335.345 618.13 335.761 618.664 336.288L638.326 355.675L638.366 355.724C638.974 356.649 639.267 357.746 639.203 358.851C639.138 359.957 638.719 361.012 638.007 361.861L616.164 387.695C616.229 387.902 616.284 388.112 616.327 388.325C616.509 389.241 616.496 390.185 616.289 391.096C616.081 392.007 615.683 392.863 615.121 393.609C614.56 394.356 613.846 394.975 613.029 395.426C612.211 395.877 611.307 396.151 610.376 396.229C610.188 396.245 610.001 396.253 609.815 396.253C608.413 396.248 607.05 395.799 605.918 394.972C604.787 394.146 603.946 392.983 603.515 391.649Z" fill="#D8B5B8"/>
<path d="M580.096 514.657H572.708L569.194 486.162L580.097 486.163L580.096 514.657Z" fill="#D8B5B8"/>
<path d="M582.281 522.12L557.858 522.119V521.517C557.858 520.259 558.106 519.015 558.587 517.853C559.068 516.692 559.773 515.636 560.662 514.748C561.551 513.859 562.606 513.154 563.768 512.672C564.929 512.191 566.174 511.944 567.431 511.944L582.281 511.944L582.281 522.12Z" fill="#826745"/>
<path d="M653.523 504.443L647.175 508.223L629.577 485.538L638.946 479.96L653.523 504.443Z" fill="#D8B5B8"/>
<path d="M638.234 522.232L637.925 521.714C636.626 519.532 636.247 516.924 636.871 514.463C637.495 512.002 639.071 509.89 641.253 508.591L654.013 500.994L659.218 509.737L638.234 522.232Z" fill="#826745"/>
<path d="M568.262 502.109C563.313 443.836 560.369 389.701 578.46 367.618L578.6 367.446L609.045 379.625L609.096 379.734C609.198 379.957 619.324 402.23 616.962 417.211L624.471 451.755L648.958 492.755C649.155 493.085 649.279 493.453 649.323 493.835C649.367 494.217 649.33 494.604 649.213 494.97C649.096 495.337 648.903 495.674 648.646 495.96C648.389 496.245 648.074 496.473 647.722 496.628L637.081 501.31C636.48 501.571 635.806 501.608 635.181 501.412C634.556 501.217 634.022 500.803 633.677 500.246L607.041 456.812L591.996 423.498C591.914 423.317 591.775 423.168 591.6 423.074C591.426 422.98 591.225 422.947 591.029 422.978C590.833 423.009 590.653 423.104 590.516 423.248C590.38 423.392 590.294 423.577 590.273 423.775L581.934 502.168C581.864 502.834 581.55 503.451 581.052 503.899C580.553 504.347 579.907 504.594 579.237 504.593H570.965C570.286 504.589 569.633 504.332 569.133 503.873C568.634 503.414 568.323 502.785 568.262 502.109Z" fill="#826745"/>
<path d="M578.563 368.079L578.418 368.01L578.395 367.85C577.258 359.89 578.604 351.046 582.396 341.563C584.265 336.922 587.739 333.106 592.186 330.812C596.632 328.518 601.755 327.897 606.621 329.064C609.423 329.754 612.052 331.019 614.34 332.779C616.629 334.539 618.527 336.754 619.914 339.286C621.283 341.791 622.118 344.554 622.364 347.398C622.61 350.243 622.262 353.108 621.344 355.811C616.563 369.791 610.361 382.871 610.299 383.002L610.169 383.275L578.563 368.079Z" fill="#DDF9FF"/>
<path d="M556.656 401.092C556.446 399.484 556.821 397.855 557.711 396.5C558.602 395.145 559.95 394.155 561.509 393.709L589.978 339.051C590.353 338.438 590.844 337.904 591.426 337.481C592.007 337.057 592.666 336.753 593.365 336.586C594.064 336.418 594.79 336.391 595.499 336.505C596.209 336.618 596.89 336.871 597.501 337.249C598.113 337.627 598.644 338.121 599.064 338.705C599.484 339.289 599.784 339.949 599.948 340.65C600.111 341.35 600.135 342.075 600.017 342.784C599.899 343.493 599.642 344.172 599.261 344.782L570.119 399.059C570.18 399.39 570.216 399.724 570.227 400.06C570.252 400.977 570.091 401.891 569.754 402.745C569.417 403.599 568.91 404.376 568.266 405.03C567.621 405.683 566.85 406.199 566.001 406.548C565.151 406.896 564.24 407.069 563.322 407.057C562.316 407.042 561.325 406.805 560.421 406.362C559.517 405.919 558.722 405.282 558.093 404.496C557.306 403.517 556.808 402.338 556.656 401.092Z" fill="#D8B5B8"/>
<path d="M586.527 300.32H610.027V290.076C604.869 288.027 599.822 286.284 596.77 290.076C594.054 290.076 591.448 291.155 589.527 293.076C587.606 294.997 586.527 297.603 586.527 300.32Z" fill="#826745"/>
<path d="M611.328 288.268C625.377 288.268 629.31 305.878 629.31 315.813C629.31 321.353 626.804 323.335 622.867 324.005L621.476 316.589L618.219 324.324C617.113 324.33 615.951 324.308 614.747 324.286L613.643 322.012L611.18 324.245C601.318 324.26 593.347 325.698 593.347 315.813C593.347 305.878 596.796 288.268 611.328 288.268Z" fill="#826745"/>
</g>
<defs>
<clipPath id="clip0_160_623">
<rect width="782.145" height="522.418" fill="white"/>
</clipPath>
</defs>
</svg>
