<svg width="800" height="256" viewBox="0 0 800 256" fill="none" xmlns="http://www.w3.org/2000/svg">
<g clip-path="url(#clip0_382_2796)">
<rect width="800" height="256" fill="white"/>
<rect width="396" height="189" transform="translate(202 33.5)" fill="white"/>
<path d="M-47.6167 188.514L835.162 188.487" stroke="#196EC1" stroke-width="9" stroke-linecap="square"/>
<rect x="309.402" y="141.238" width="9.94737" height="42.2763" rx="4.97368" fill="#474747"/>
<rect x="329.297" y="141.238" width="9.94737" height="42.2763" rx="4.97369" fill="#474747"/>
<path fill-rule="evenodd" clip-rule="evenodd" d="M306.066 148.396L309.402 139.705V153.672H339.244V139.245L342.756 148.396C343.741 150.96 346.617 152.241 349.182 151.257C351.746 150.272 353.027 147.395 352.043 144.831L342.898 121.007C342.053 118.808 339.817 117.552 337.579 117.861C325.824 115.88 321.707 115.872 311.043 117.838C308.873 117.628 306.743 118.873 305.924 121.007L296.779 144.831C295.795 147.395 297.075 150.272 299.64 151.257C302.204 152.241 305.081 150.96 306.066 148.396Z" fill="#474747"/>
<circle cx="324.323" cy="101.448" r="12.4342" fill="#474747"/>
<path d="M319.395 103.93C319.395 106.417 321.881 108.903 324.368 108.903C326.855 108.903 329.342 106.417 329.342 103.93H319.395Z" fill="white"/>
<mask id="path-7-inside-1_382_2796" fill="white">
<path d="M306.594 117.333C306.814 116.75 307.374 116.364 307.997 116.364C319.575 116.364 328.029 116.364 340.74 116.364C341.362 116.364 341.922 116.748 342.144 117.33L347.323 130.944L339.787 133.772V153.666H308.95V133.772L301.444 130.944L306.594 117.333Z"/>
</mask>
<path d="M306.594 117.333C306.814 116.75 307.374 116.364 307.997 116.364C319.575 116.364 328.029 116.364 340.74 116.364C341.362 116.364 341.922 116.748 342.144 117.33L347.323 130.944L339.787 133.772V153.666H308.95V133.772L301.444 130.944L306.594 117.333Z" fill="#0A427A"/>
<path d="M339.787 153.666V154.116H340.237V153.666H339.787ZM308.95 153.666H308.5V154.116H308.95V153.666ZM301.444 130.944L301.023 130.784L300.864 131.206L301.285 131.365L301.444 130.944ZM308.95 133.772H309.4V133.46L309.108 133.351L308.95 133.772ZM347.323 130.944L347.481 131.365L347.904 131.206L347.744 130.784L347.323 130.944ZM339.787 133.772L339.628 133.35L339.337 133.46V133.772H339.787ZM342.144 117.33L341.723 117.49L342.144 117.33ZM306.594 117.333L307.014 117.492L306.594 117.333ZM307.997 116.814C319.575 116.814 328.029 116.814 340.74 116.814L340.74 115.914C328.029 115.914 319.575 115.914 307.997 115.914L307.997 116.814ZM339.787 153.216H308.95V154.116H339.787V153.216ZM301.865 131.103L307.014 117.492L306.173 117.174L301.023 130.784L301.865 131.103ZM309.4 153.666V133.772H308.5V153.666H309.4ZM309.108 133.351L301.603 130.522L301.285 131.365L308.791 134.193L309.108 133.351ZM341.723 117.49L346.902 131.104L347.744 130.784L342.564 117.17L341.723 117.49ZM347.165 130.522L339.628 133.35L339.945 134.193L347.481 131.365L347.165 130.522ZM339.337 133.772V153.666H340.237V133.772H339.337ZM340.74 116.814C341.176 116.814 341.568 117.084 341.723 117.49L342.564 117.17C342.276 116.413 341.548 115.914 340.74 115.914L340.74 116.814ZM307.997 115.914C307.187 115.914 306.46 116.415 306.173 117.174L307.014 117.492C307.169 117.084 307.561 116.814 307.997 116.814L307.997 115.914Z" fill="white" mask="url(#path-7-inside-1_382_2796)"/>
<path d="M313.434 138.746V130.042H315.051V137.378H319.601V138.746H313.434Z" fill="white"/>
<path d="M321.251 138.746V130.042H325.329C326.374 130.042 327.169 130.249 327.716 130.664C328.264 131.07 328.537 131.617 328.537 132.305C328.537 132.769 328.429 133.167 328.214 133.499C327.998 133.822 327.708 134.075 327.343 134.257C326.987 134.431 326.597 134.518 326.175 134.518L326.398 134.071C326.887 134.071 327.327 134.162 327.716 134.344C328.106 134.518 328.413 134.775 328.637 135.115C328.869 135.455 328.985 135.878 328.985 136.383C328.985 137.129 328.699 137.71 328.127 138.124C327.555 138.539 326.705 138.746 325.578 138.746H321.251ZM322.867 137.478H325.478C326.083 137.478 326.548 137.378 326.871 137.179C327.194 136.98 327.356 136.661 327.356 136.222C327.356 135.791 327.194 135.476 326.871 135.277C326.548 135.07 326.083 134.966 325.478 134.966H322.743V133.71H325.155C325.719 133.71 326.15 133.611 326.448 133.412C326.755 133.213 326.908 132.914 326.908 132.516C326.908 132.11 326.755 131.808 326.448 131.609C326.15 131.41 325.719 131.31 325.155 131.31H322.867V137.478Z" fill="white"/>
<path d="M332.438 138.87C331.883 138.87 331.369 138.763 330.896 138.547C330.432 138.331 330.051 138.021 329.752 137.614L330.673 136.508C330.913 136.839 331.174 137.088 331.456 137.254C331.746 137.42 332.061 137.503 332.401 137.503C333.304 137.503 333.756 136.968 333.756 135.899V131.397H330.66V130.042H335.373V135.811C335.373 136.839 335.12 137.606 334.614 138.112C334.117 138.617 333.392 138.87 332.438 138.87Z" fill="white"/>
<rect x="460.71" y="141.232" width="9.94737" height="42.2763" rx="4.97368" fill="#474747"/>
<rect x="480.605" y="141.232" width="9.94737" height="42.2763" rx="4.97369" fill="#474747"/>
<path fill-rule="evenodd" clip-rule="evenodd" d="M487.735 118.146C485.171 119.131 483.89 122.007 484.874 124.572L494.019 148.396C495.004 150.96 497.88 152.241 500.445 151.256C503.009 150.272 504.29 147.395 503.306 144.831L494.161 121.007C493.176 118.443 490.299 117.162 487.735 118.146ZM463.142 118.146C460.578 117.162 457.701 118.443 456.717 121.007L447.572 144.831C446.587 147.395 447.868 150.272 450.433 151.257C452.997 152.241 455.874 150.96 456.858 148.396L466.003 124.572C466.988 122.008 465.707 119.131 463.142 118.146Z" fill="#474747"/>
<ellipse cx="475.631" cy="101.442" rx="12.4342" ry="12.4342" fill="#474747"/>
<path d="M457.882 117.389C458.086 116.776 458.66 116.363 459.305 116.363C470.847 116.363 479.29 116.363 491.961 116.363C492.604 116.363 493.178 116.774 493.384 117.383L498.013 131.096L490.553 133.771V153.666H460.711V133.771L453.25 131.284L457.882 117.389Z" fill="#474747"/>
<path d="M460.589 142.916C460.658 142.143 461.306 141.55 462.083 141.55H489.183C489.957 141.55 490.604 142.139 490.676 142.909L492.588 163.217C492.671 164.097 491.978 164.857 491.094 164.857H460.269C459.388 164.857 458.696 164.102 458.775 163.224L460.589 142.916Z" fill="#474747"/>
<path d="M466.933 86.3634C470.159 85.3124 472.769 84.7898 475.422 84.7852C478.077 84.7806 480.822 85.2948 484.318 86.3769C484.619 86.47 484.829 86.7537 484.829 87.0793V92.9643C481.407 91.9326 478.578 91.4191 475.708 91.4278C472.83 91.4365 469.952 91.9696 466.434 92.9799V87.0607C466.434 86.7391 466.639 86.4591 466.933 86.3634Z" fill="white" stroke="#474747" stroke-width="1.5"/>
<g clip-path="url(#clip1_382_2796)">
<rect x="375.131" y="141.232" width="9.94737" height="42.2763" rx="4.97368" fill="#474747"/>
<rect x="395.026" y="141.232" width="9.94737" height="42.2763" rx="4.97368" fill="#474747"/>
<path fill-rule="evenodd" clip-rule="evenodd" d="M402.156 118.147C399.591 119.131 398.311 122.008 399.295 124.572L408.44 148.396C409.424 150.961 412.301 152.241 414.866 151.257C417.43 150.273 418.711 147.396 417.727 144.831L408.582 121.008C407.597 118.443 404.72 117.162 402.156 118.147ZM377.563 118.147C374.999 117.162 372.122 118.443 371.138 121.008L361.993 144.831C361.008 147.396 362.289 150.273 364.854 151.257C367.418 152.241 370.295 150.961 371.279 148.396L380.424 124.572C381.409 122.008 380.128 119.131 377.563 118.147Z" fill="#474747"/>
<circle cx="390.052" cy="101.443" r="12.4342" fill="#474747"/>
<path fill-rule="evenodd" clip-rule="evenodd" d="M392.501 104.368C392.294 105.533 391.276 106.417 390.052 106.417C388.829 106.417 387.811 105.533 387.604 104.368C385.569 105.221 385.079 107.111 385.079 108.153C385.079 108.904 385.932 108.904 390.051 108.904H390.052H390.054C394.173 108.904 395.026 108.904 395.026 108.153C395.026 107.111 394.535 105.221 392.501 104.368Z" fill="#D3D2D2"/>
<path d="M401.334 102.864C401.846 104.285 403.128 104.285 403.64 102.864L404.793 99.6666C405.306 98.2456 404.665 96.4692 403.64 96.4692H401.334C400.309 96.4692 399.668 98.2456 400.18 99.6666L401.334 102.864Z" fill="#D3D2D2"/>
<path d="M376.465 102.864C376.978 104.285 378.259 104.285 378.771 102.864L379.925 99.6666C380.437 98.2456 379.797 96.4692 378.771 96.4692H376.465C375.44 96.4692 374.799 98.2456 375.312 99.6666L376.465 102.864Z" fill="#D3D2D2"/>
<path d="M372.303 117.39C372.507 116.777 373.081 116.364 373.726 116.364C385.268 116.364 393.711 116.364 406.382 116.364C407.025 116.364 407.599 116.775 407.805 117.384L412.434 131.097L404.974 133.772V153.667H375.131V133.772L367.671 131.285L372.303 117.39Z" fill="#474747"/>
<path fill-rule="evenodd" clip-rule="evenodd" d="M414.689 153.819C414.909 150.924 417.204 148.693 419.962 148.693H428.71C431.468 148.693 433.763 150.924 433.983 153.819L435.815 177.938H431.889L430.199 156.049C430.125 154.65 429.206 153.564 428.099 153.564H420.573C419.465 153.564 418.547 154.65 418.472 156.049L416.352 183.509H412.434L414.689 153.819Z" fill="#474747"/>
<rect x="415.234" y="158.441" width="18.2032" height="4.17789" fill="#474747"/>
<ellipse cx="434.138" cy="180.027" rx="3.50062" ry="3.48158" fill="#0080FF"/>
</g>
</g>
<defs>
<clipPath id="clip0_382_2796">
<rect width="800" height="256" fill="white"/>
</clipPath>
<clipPath id="clip1_382_2796">
<rect width="79.5789" height="94.5" fill="white" transform="translate(360.21 89.0088)"/>
</clipPath>
</defs>
</svg>
