<svg width="800" height="256" viewBox="0 0 800 256" fill="none" xmlns="http://www.w3.org/2000/svg">
<rect width="800" height="256" fill="#F0E0FF"/>
<rect x="297.205" y="223.611" width="210.75" height="2.25" rx="1.125" fill="#D2CFCF" stroke="#A3A0A0" stroke-width="0.75"/>
<rect x="371.39" y="161.467" width="61.7534" height="58.1449" rx="3" fill="#555555"/>
<rect x="350.299" y="216.111" width="103.935" height="7.62898" rx="3.375" fill="#010101" stroke="#DDDDDD" stroke-width="0.75"/>
<path d="M528.535 180.25H530.254V185.914H528.535V180.25Z" fill="white"/>
<rect x="264.625" y="48.625" width="270.75" height="135.75" rx="1.875" stroke="#DDDDDD" stroke-width="0.75"/>
<rect x="265" y="49" width="270" height="135" rx="1.5" fill="#010101"/>
<rect x="268" y="52" width="264" height="129" rx="1.5" fill="#DDDDDD"/>
<rect width="234" height="129" transform="translate(283 52)" fill="white"/>
<path d="M336.722 125.5V108.045H339.884V122.849H347.571V125.5H336.722ZM355.974 125.756C354.662 125.756 353.528 125.483 352.574 124.938C351.625 124.386 350.895 123.608 350.384 122.602C349.872 121.591 349.616 120.401 349.616 119.031C349.616 117.685 349.872 116.503 350.384 115.486C350.901 114.463 351.622 113.668 352.548 113.099C353.474 112.526 354.562 112.239 355.812 112.239C356.619 112.239 357.381 112.369 358.097 112.631C358.818 112.886 359.455 113.284 360.006 113.824C360.563 114.364 361 115.051 361.318 115.886C361.636 116.716 361.795 117.705 361.795 118.852V119.798H351.065V117.719H358.838C358.832 117.128 358.705 116.602 358.455 116.142C358.205 115.676 357.855 115.31 357.406 115.043C356.963 114.776 356.446 114.642 355.855 114.642C355.224 114.642 354.67 114.795 354.193 115.102C353.716 115.403 353.344 115.801 353.077 116.295C352.815 116.784 352.682 117.321 352.676 117.906V119.722C352.676 120.483 352.815 121.136 353.094 121.682C353.372 122.222 353.761 122.636 354.261 122.926C354.761 123.21 355.347 123.352 356.017 123.352C356.466 123.352 356.872 123.29 357.236 123.165C357.599 123.034 357.915 122.844 358.182 122.594C358.449 122.344 358.651 122.034 358.787 121.665L361.668 121.989C361.486 122.75 361.139 123.415 360.628 123.983C360.122 124.545 359.474 124.983 358.685 125.295C357.895 125.602 356.991 125.756 355.974 125.756ZM370.942 112.409V114.795H363.417V112.409H370.942ZM365.275 109.273H368.36V121.562C368.36 121.977 368.423 122.295 368.548 122.517C368.678 122.733 368.849 122.881 369.059 122.96C369.269 123.04 369.502 123.08 369.758 123.08C369.951 123.08 370.127 123.065 370.286 123.037C370.451 123.009 370.576 122.983 370.661 122.96L371.181 125.372C371.016 125.429 370.781 125.491 370.474 125.56C370.173 125.628 369.803 125.668 369.366 125.679C368.593 125.702 367.897 125.585 367.278 125.33C366.658 125.068 366.167 124.665 365.803 124.119C365.445 123.574 365.269 122.892 365.275 122.074V109.273ZM376.749 108.045V109.784C376.749 110.284 376.652 110.804 376.459 111.344C376.271 111.878 376.013 112.389 375.683 112.878C375.354 113.361 374.979 113.776 374.558 114.122L373.126 113.193C373.439 112.722 373.712 112.213 373.945 111.668C374.178 111.116 374.294 110.494 374.294 109.801V108.045H376.749ZM387.901 115.869L385.088 116.176C385.009 115.892 384.869 115.625 384.67 115.375C384.477 115.125 384.216 114.923 383.886 114.77C383.557 114.616 383.153 114.54 382.676 114.54C382.034 114.54 381.494 114.679 381.057 114.957C380.625 115.236 380.412 115.597 380.418 116.04C380.412 116.42 380.551 116.73 380.835 116.969C381.125 117.207 381.602 117.403 382.267 117.557L384.5 118.034C385.739 118.301 386.659 118.724 387.261 119.304C387.869 119.884 388.176 120.642 388.182 121.58C388.176 122.403 387.935 123.131 387.457 123.761C386.986 124.386 386.33 124.875 385.489 125.227C384.648 125.58 383.682 125.756 382.591 125.756C380.989 125.756 379.699 125.42 378.722 124.75C377.744 124.074 377.162 123.134 376.974 121.929L379.983 121.639C380.119 122.23 380.409 122.676 380.852 122.977C381.295 123.278 381.872 123.429 382.582 123.429C383.315 123.429 383.903 123.278 384.347 122.977C384.795 122.676 385.02 122.304 385.02 121.861C385.02 121.486 384.875 121.176 384.585 120.932C384.301 120.687 383.858 120.5 383.256 120.369L381.023 119.901C379.767 119.639 378.838 119.199 378.236 118.58C377.634 117.955 377.335 117.165 377.341 116.21C377.335 115.403 377.554 114.705 377.997 114.114C378.446 113.517 379.068 113.057 379.864 112.733C380.665 112.403 381.588 112.239 382.634 112.239C384.168 112.239 385.375 112.565 386.256 113.219C387.142 113.872 387.69 114.756 387.901 115.869ZM398.034 125.5L396.653 112.409H400.327L400.889 121.205H401.009L404.588 112.409H408.193L408.875 121.153H408.986L412.446 112.409H416.111L410.375 125.5H406.531L405.645 117.267H405.483L401.869 125.5H398.034ZM415.866 125.5L418.048 112.409H421.567L421.184 114.693H421.32C421.695 113.881 422.198 113.267 422.829 112.852C423.465 112.432 424.15 112.222 424.883 112.222C425.065 112.222 425.255 112.233 425.454 112.256C425.658 112.273 425.84 112.301 425.999 112.341L425.454 115.571C425.295 115.514 425.067 115.469 424.772 115.435C424.482 115.395 424.207 115.375 423.945 115.375C423.417 115.375 422.925 115.491 422.471 115.724C422.016 115.952 421.633 116.27 421.32 116.679C421.013 117.088 420.812 117.56 420.715 118.094L419.496 125.5H415.866ZM425.686 125.5L427.868 112.409H431.499L429.317 125.5H425.686ZM430.058 110.705C429.518 110.705 429.072 110.526 428.72 110.168C428.374 109.804 428.232 109.372 428.294 108.872C428.357 108.361 428.601 107.929 429.027 107.577C429.453 107.219 429.936 107.04 430.476 107.04C431.016 107.04 431.456 107.219 431.797 107.577C432.138 107.929 432.28 108.361 432.223 108.872C432.166 109.372 431.925 109.804 431.499 110.168C431.078 110.526 430.598 110.705 430.058 110.705ZM441.37 112.409L440.918 115.136H433.026L433.487 112.409H441.37ZM435.788 109.273H439.418L437.39 121.477C437.333 121.812 437.342 122.074 437.415 122.261C437.489 122.443 437.612 122.571 437.782 122.645C437.958 122.719 438.168 122.756 438.413 122.756C438.583 122.756 438.756 122.741 438.933 122.713C439.109 122.679 439.242 122.653 439.333 122.636L439.469 125.338C439.265 125.401 438.989 125.469 438.643 125.543C438.302 125.616 437.898 125.662 437.433 125.679C436.546 125.713 435.796 125.597 435.183 125.33C434.569 125.057 434.129 124.639 433.862 124.077C433.594 123.514 433.538 122.807 433.691 121.955L435.788 109.273ZM447.344 125.756C446.004 125.756 444.893 125.483 444.012 124.938C443.131 124.386 442.512 123.608 442.154 122.602C441.802 121.591 441.742 120.395 441.975 119.014C442.202 117.668 442.66 116.486 443.347 115.469C444.04 114.452 444.91 113.659 445.955 113.091C447.001 112.523 448.165 112.239 449.45 112.239C450.313 112.239 451.094 112.378 451.793 112.656C452.498 112.929 453.083 113.344 453.549 113.901C454.015 114.452 454.333 115.142 454.504 115.972C454.68 116.801 454.677 117.773 454.495 118.886L454.333 119.884H443.288L443.637 117.634H451.273C451.359 117.111 451.325 116.648 451.171 116.244C451.018 115.841 450.762 115.526 450.404 115.298C450.046 115.065 449.606 114.949 449.083 114.949C448.549 114.949 448.049 115.08 447.583 115.341C447.117 115.602 446.725 115.946 446.407 116.372C446.094 116.793 445.893 117.25 445.802 117.744L445.401 119.977C445.288 120.665 445.31 121.236 445.469 121.69C445.634 122.145 445.918 122.486 446.322 122.713C446.725 122.935 447.237 123.045 447.856 123.045C448.259 123.045 448.637 122.989 448.989 122.875C449.347 122.761 449.665 122.594 449.944 122.372C450.222 122.145 450.45 121.864 450.626 121.528L453.941 121.75C453.634 122.557 453.168 123.261 452.543 123.864C451.918 124.46 451.165 124.926 450.285 125.261C449.41 125.591 448.43 125.756 447.344 125.756ZM461.149 102.42V131.125H458.286V102.42H461.149Z" fill="#010101"/>
</svg>
