<svg width="79" height="78" viewBox="0 0 79 78" fill="none" xmlns="http://www.w3.org/2000/svg">
<g clip-path="url(#clip0_991_2406)">
<path d="M20.0212 25.0332C23.8624 21.5258 28.8466 19.5324 34.0471 19.4238C43.9664 19.4238 59.2952 51.6849 59.2952 51.6849M24.1381 22.0825C24.1381 22.0825 27.7667 44.4277 31.9742 50.0371C34.221 53.0863 37.691 54.9981 41.4689 55.2681C45.2469 55.5381 48.9535 54.1394 51.6112 51.4407C53.3581 49.6703 54.8907 47.7004 56.1772 45.5718M37.9506 32.9614C37.9506 32.9614 38.4168 41.7793 42.2196 44.0606C49.2325 48.2698 53.9215 41.4771 53.9215 41.4771M36.9039 54.0294L35.3893 58.5749M47.0366 54.3675L45.6347 58.5749M32.8279 23.9967C33.0637 23.9967 33.2548 24.1878 33.2548 24.4236C33.2548 24.6594 33.0637 24.8505 32.8279 24.8505C32.5922 24.8505 32.401 24.6594 32.401 24.4236C32.401 24.1878 32.5922 23.9967 32.8279 23.9967Z" stroke="#D96689" stroke-width="2.5" stroke-linecap="round" stroke-linejoin="round"/>
</g>
<defs>
<clipPath id="clip0_991_2406">
<rect width="78" height="78" fill="white" transform="translate(0.512634)"/>
</clipPath>
</defs>
</svg>
