<svg width="79" height="79" viewBox="0 0 79 79" fill="none" xmlns="http://www.w3.org/2000/svg">
<path d="M18.1154 61.7342L29.1555 63.5156C31.4541 63.8356 33.7932 63.3635 35.7876 62.1769L47.3464 55.3045C48.9636 54.3428 49.495 52.2522 48.5333 50.635C47.5716 49.0178 45.481 48.4864 43.8638 49.4482L34.8348 54.8154M18.1154 52.8696L22.8038 50.0806C24.5391 49.0492 26.5409 48.5548 28.5568 48.6597L33.2242 48.9022C34.0935 48.9062 34.9232 49.2658 35.5205 49.8974C36.1179 50.529 36.4307 51.3775 36.3863 52.2456C36.3022 53.8493 35.0367 55.1391 33.435 55.2539L27.4838 55.2244M30.6059 43.3958V17.1056C30.6059 16.1218 31.4034 15.3242 32.3873 15.3242H49.4629C49.937 15.3226 50.3923 15.51 50.7278 15.8449L60.3703 25.4895C60.7053 25.8251 60.8927 26.2803 60.891 26.7544V54.5097C60.891 55.4936 60.0934 56.2911 59.1096 56.2911L53.8351 56.2911M50.1987 15.4844V24.2289C50.1987 25.2127 50.9962 26.0102 51.98 26.0102H60.7244" stroke="#D96689" stroke-width="2.5" stroke-linecap="round" stroke-linejoin="round"/>
<path d="M45.7913 44.1683L39.2394 37.2205C38.0575 35.9995 37.7687 34.1918 38.5132 32.6762C39.0363 31.5531 40.0951 30.7571 41.3392 30.5518C42.5834 30.3466 43.8505 30.7588 44.7212 31.652L45.7913 32.7392L46.8613 31.652C47.7321 30.7592 48.9989 30.3473 50.2428 30.5525C51.4866 30.7577 52.5453 31.5534 53.0684 32.6762C53.815 34.1927 53.526 36.0027 52.3423 37.2242L45.7913 44.1683Z" stroke="#D96689" stroke-width="2.5" stroke-linecap="round" stroke-linejoin="round"/>
</svg>
