<svg width="79" height="78" viewBox="0 0 79 78" fill="none" xmlns="http://www.w3.org/2000/svg">
<path d="M47.9435 27.7067L33.7183 21.8393C33.4492 21.7281 33.147 21.7281 32.8779 21.8393L27.6221 24.0173C27.2109 24.1875 26.9427 24.5886 26.9427 25.0337C26.9427 25.4787 27.2109 25.8799 27.6221 26.0501L39.9861 31.1651M57.8347 23.4057L27.7673 36.4847L21.6227 33.4047C21.3332 33.2592 20.9944 33.2488 20.6965 33.3761L14.9589 35.8445C14.6237 35.9886 14.3818 36.2895 14.313 36.6478C14.2442 37.0061 14.3576 37.3752 14.6157 37.6331L22.8525 45.8721C23.1643 46.1834 23.6317 46.2786 24.0405 46.1141L39.8673 39.7847L34.2507 54.7623C34.0922 55.1854 34.2086 55.6625 34.5442 55.9651C34.8798 56.2676 35.3663 56.3342 35.7709 56.1329L41.7461 53.1475C41.9582 53.0412 42.1303 52.8691 42.2367 52.6569L50.8739 35.3847L61.2139 31.5347C62.6967 30.9543 63.7503 29.6179 63.9686 28.0405C64.1868 26.4632 63.5358 24.8909 62.2663 23.9296C60.9968 22.9683 59.307 22.7679 57.8479 23.4057H57.8347Z" stroke="#D96689" stroke-width="2.5" stroke-linecap="round" stroke-linejoin="round"/>
</svg>
