<svg width="78" height="79" viewBox="0 0 78 79" fill="none" xmlns="http://www.w3.org/2000/svg">
<path d="M16.1345 47.7193L21.1741 32.6006C21.4325 31.8255 22.1578 31.3027 22.9748 31.3027C23.7918 31.3027 24.5171 31.8255 24.7755 32.6006L29.8151 47.7193M17.9586 42.2471H27.991" stroke="#D96689" stroke-linecap="round" stroke-linejoin="round"/>
<path d="M34.9078 38.8271V31.3027H40.7222C42.8 31.3027 44.4843 32.9871 44.4843 35.0649C44.4843 37.1427 42.8 38.8271 40.7222 38.8271H34.9078ZM34.9078 38.8271V47.7195H41.4061C43.8616 47.7195 45.8523 45.729 45.8523 43.2735C45.8523 40.8178 43.8616 38.8273 41.4061 38.8273L34.9078 38.8271Z" stroke="#D96689" stroke-width="2" stroke-linecap="round" stroke-linejoin="round"/>
<path d="M61.6553 34.0388C61.092 32.4448 59.5716 31.3027 57.7848 31.3027H55.0487C52.782 31.3027 50.9444 33.1402 50.9444 35.4069V43.6152C50.9444 45.8819 52.782 47.7193 55.0487 47.7193H57.7848C59.5716 47.7193 61.092 46.5773 61.6553 44.9832" stroke="#D96689" stroke-width="2.5" stroke-linecap="round" stroke-linejoin="round"/>
</svg>
