<svg width="79" height="79" viewBox="0 0 79 79" fill="none" xmlns="http://www.w3.org/2000/svg">
<path d="M47.0415 19.5984C47.041 19.1438 47.3537 18.7468 47.8012 18.634C49.8375 18.1249 51.9062 17.7509 53.9934 17.5145C54.2809 17.4815 54.5691 17.5714 54.7847 17.7616C55.0003 17.9517 55.1226 18.2238 55.1207 18.5088V33.0741L51.0801 29.0972L47.0395 33.0741L47.0415 19.5984Z" fill="#FFFF74"/>
<path d="M38.9604 27.1087V59.6694M38.9604 27.1087C38.9604 23.4918 29.7539 20.5211 18.8221 20.181C18.2751 20.1638 17.7445 20.3657 17.3515 20.7404C16.9585 21.1152 16.7368 21.6309 16.7371 22.1695V50.9978C16.7366 52.0731 17.6048 52.954 18.6968 52.9863C29.6852 53.3084 38.9604 56.2871 38.9604 59.918C38.9604 56.2871 48.2355 53.3084 59.2219 52.9843C60.3139 52.952 61.1821 52.0712 61.1816 50.9958V22.1635C61.1818 21.6249 60.9601 21.1093 60.5672 20.7345C60.1742 20.3597 59.6436 20.1578 59.0966 20.1751C57.7491 20.2208 56.4117 20.3003 55.1227 20.4196M38.9604 27.1087C38.9604 25.695 40.3746 24.3806 42.7322 23.283M33.9096 31.0856C29.673 29.6559 25.2516 28.8257 20.7777 28.62M33.9096 39.5564C29.673 38.1266 25.2516 37.2964 20.7777 37.0907M33.9096 47.9873C29.673 46.5576 25.2516 45.7274 20.7777 45.5217M44.0111 39.5564C48.2477 38.1268 52.6692 37.2966 57.143 37.0907M44.0111 47.9873C48.2477 46.5578 52.6692 45.7276 57.143 45.5217M47.0415 19.5984C47.041 19.1438 47.3537 18.7468 47.8012 18.634C49.8375 18.1249 51.9062 17.7509 53.9934 17.5145C54.2809 17.4815 54.5691 17.5714 54.7847 17.7616C55.0003 17.9517 55.1226 18.2238 55.1207 18.5088V33.0741L51.0801 29.0972L47.0395 33.0741L47.0415 19.5984Z" stroke="#FFFF74" stroke-width="1.5" stroke-linecap="round" stroke-linejoin="round"/>
</svg>
