<svg width="78" height="78" viewBox="0 0 78 78" fill="none" xmlns="http://www.w3.org/2000/svg">
<path d="M51.028 40C51.0343 34.3024 47.0333 29.386 41.4533 28.2344C35.8734 27.0829 30.2529 30.0138 28.0032 35.2484C25.7534 40.4829 27.4946 46.5778 32.17 49.834C32.7076 50.2079 33.028 50.8212 33.028 51.476V53C33.028 53.5523 33.4757 54 34.028 54H44.028C44.5803 54 45.028 53.5523 45.028 53V51.474C45.028 50.8192 45.3485 50.2059 45.886 49.832C49.1085 47.5961 51.0299 43.9222 51.028 40Z"/>
<path d="M42.028 62H36.028M44.028 58H34.028M39.028 16V22M22.056 23.03L26.3 27.272M55.998 23.03L51.756 27.272M16.028 40H22.028M62.028 40H56.028M51.028 40C51.0343 34.3024 47.0333 29.386 41.4533 28.2344C35.8734 27.0829 30.2529 30.0138 28.0032 35.2484C25.7534 40.4829 27.4946 46.5778 32.17 49.834C32.7076 50.2079 33.028 50.8212 33.028 51.476V53C33.028 53.5523 33.4757 54 34.028 54H44.028C44.5803 54 45.028 53.5523 45.028 53V51.474C45.028 50.8192 45.3485 50.2059 45.886 49.832C49.1085 47.5961 51.0299 43.9222 51.028 40Z" stroke="#D96689" stroke-width="2.5" stroke-linecap="round" stroke-linejoin="round"/>
</svg>
