<svg width="78" height="78" viewBox="0 0 78 78" fill="none" xmlns="http://www.w3.org/2000/svg">
<path d="M46.6989 37.3437L61.8836 30.1037L53.2404 24.3268L62.6575 11.3496L33.9282 19.6074L41.0277 25.5011L35.9165 31.1389C38.0592 33.4201 37.8499 33.1953 37.8712 33.2258C39.0469 31.9889 41.2617 31.6316 42.4392 32.8666L46.6989 37.3437Z" fill="#FFFF74"/>
<path d="M46.6989 37.3437L61.8836 30.1037L53.2404 24.3268L62.6575 11.3496L33.9282 19.6074L41.0277 25.5011L35.9165 31.1389M46.6989 37.3437C48.2087 38.9281 49.0571 41.0781 49.0571 43.32C49.0571 45.5619 48.2087 47.7119 46.6989 49.2963L45.9984 50.03C43.6476 52.503 43.6476 56.5089 45.9984 58.9819L48.5907 62.0224M46.6989 37.3437L42.4392 32.8666C41.2617 31.6316 39.0469 31.9889 37.8712 33.2258M35.9102 31.1459L35.9165 31.1389M21.1911 52.8766C21.7773 53.4935 22.573 53.8402 23.4027 53.8402C24.2325 53.8402 25.0282 53.4935 25.6144 52.8766C26.2016 52.2608 26.5316 51.4249 26.5316 50.5533C26.5316 49.6816 26.2016 48.8458 25.6144 48.2299L22.999 45.5111C22.4254 44.8835 21.6292 44.5347 20.801 44.5483C19.9648 44.5344 19.16 44.8826 18.5757 45.5111C17.9879 46.127 17.6575 46.9634 17.6575 47.8356C17.6575 48.7078 17.9879 49.5441 18.5757 50.16L21.1911 52.8766ZM21.1911 52.8766L30.304 61.9166M37.823 36.8898C37.9364 37.5859 37.593 38.2759 36.984 38.5753C35.796 39.1068 34.421 38.8472 33.4836 37.9143L30.8997 35.1668C30.3026 34.5632 29.9714 33.726 29.9852 32.8556C29.9738 31.9756 30.3075 31.1294 30.908 30.5158C32.1512 29.2888 34.0882 29.2888 35.3313 30.5158C35.5437 30.7419 35.7382 30.9491 35.9165 31.1389M37.8712 33.2258C36.6955 34.4627 37.0042 36.1108 38.1816 37.3459L41.6674 41.0099C37.4035 44.1649 34.8112 48.3599 34.8112 51.5194M37.8712 33.2258C37.8499 33.1953 38.0592 33.4201 35.9165 31.1389M21.1282 43.4819C19.9066 42.1988 19.9065 40.1183 21.128 38.8351C22.3495 37.5519 24.33 37.552 25.5515 38.8353L30.1132 43.6273C30.7002 44.2384 31.0309 45.0704 31.0318 45.9386C31.0307 46.8145 30.7005 47.6545 30.1132 48.2762C28.87 49.5032 26.933 49.5032 25.6899 48.2762L21.1282 43.4819ZM34.4777 43.5634C33.892 44.1814 33.0962 44.5288 32.2661 44.5288C31.436 44.5288 30.6401 44.1814 30.0544 43.5635L25.4927 38.7714C24.9055 38.1555 24.5755 37.3197 24.5755 36.448C24.5755 35.5764 24.9055 34.7405 25.4927 34.1247C26.0719 33.5054 26.8643 33.1575 27.6907 33.1597C28.5249 33.1566 29.3258 33.5032 29.916 34.1225L34.4777 38.9146C35.0666 39.5299 35.3977 40.3665 35.3977 41.239C35.3977 42.1116 35.0666 42.9481 34.4777 43.5634Z" stroke="#FFFF74" stroke-width="1.5" stroke-linecap="round" stroke-linejoin="round"/>
</svg>
