<svg width="79" height="79" viewBox="0 0 79 79" fill="none" xmlns="http://www.w3.org/2000/svg">
<path d="M18.5416 61.537L29.5818 63.3183C31.8804 63.6384 34.2194 63.1662 36.2139 61.9797L47.7727 55.1072C49.3899 54.1456 49.9213 52.0549 48.9595 50.4378C47.9979 48.8206 45.9072 48.2892 44.2901 49.2509L35.261 54.6182M18.5416 52.6724L23.2301 49.8833C24.9653 48.852 26.9672 48.3575 28.9831 48.4625L33.6504 48.7049C34.5197 48.709 35.3495 49.0686 35.9468 49.7001C36.5441 50.3317 36.857 51.1802 36.8126 52.0484C36.7284 53.652 35.463 54.9419 33.8612 55.0566L27.9101 55.0271M31.0322 43.1985V16.9083C31.0322 15.9245 31.8297 15.127 32.8135 15.127H49.8892C50.3633 15.1253 50.8185 15.3127 51.1541 15.6477L60.7965 25.2923C61.1315 25.6278 61.3189 26.083 61.3173 26.5571V54.3125C61.3173 55.2963 60.5197 56.0938 59.5359 56.0938L54.2614 56.0938M50.6249 15.2872V24.0316C50.6249 25.0154 51.4225 25.813 52.4063 25.813H61.1507" stroke="#FFFF74" stroke-width="1.5" stroke-linecap="round" stroke-linejoin="round"/>
<path fill-rule="evenodd" clip-rule="evenodd" d="M46.2176 43.971L39.6656 37.0232C38.4838 35.8023 38.1949 33.9945 38.9395 32.479C39.4625 31.3558 40.5214 30.5598 41.7655 30.3546C43.0096 30.1493 44.2768 30.5615 45.1475 31.4548L46.2176 32.5419L47.2876 31.4548C48.1583 30.5619 49.4252 30.15 50.669 30.3552C51.9129 30.5605 52.9715 31.3562 53.4947 32.479C54.2413 33.9954 53.9523 35.8055 52.7685 37.0269L46.2176 43.971Z" stroke="#FFFF74" stroke-width="1.5" stroke-linecap="round" stroke-linejoin="round"/>
</svg>
