<svg width="78" height="78" viewBox="0 0 78 78" fill="none" xmlns="http://www.w3.org/2000/svg">
<path d="M21.7014 32.8832C20.3003 35.24 19.4298 37.8739 19.1505 40.6014C19.1416 40.8354 19.2284 41.063 19.3909 41.2317C19.5534 41.4003 19.7775 41.4955 20.0117 41.4954H23.3894C23.6236 41.4955 23.8478 41.4003 24.0103 41.2317C24.1728 41.063 24.2595 40.8354 24.2506 40.6014C23.9719 37.874 23.102 35.2401 21.7014 32.8832Z"/>
<path d="M21.7014 32.8832C20.3003 35.24 19.4298 37.8739 19.1505 40.6014C19.1416 40.8354 19.2284 41.063 19.3909 41.2317C19.5534 41.4003 19.7775 41.4955 20.0117 41.4954H23.3894C23.6236 41.4955 23.8478 41.4003 24.0103 41.2317C24.1728 41.063 24.2595 40.8354 24.2506 40.6014C23.9719 37.874 23.102 35.2401 21.7014 32.8832ZM21.7014 32.8832V22.9982M28.5912 36.3281V24.197M49.2604 24.197V36.3281M28.5912 31.1608C35.2993 33.3982 42.5523 33.3982 49.2604 31.1608M36.3421 44.079C37.7886 45.4578 40.0629 45.4578 41.5094 44.079M37.2033 37.1893C36.8316 36.6069 36.1698 36.276 35.4809 36.3281C34.792 36.276 34.1302 36.6069 33.7585 37.1893M44.0931 37.1893C43.7214 36.6069 43.0596 36.276 42.3706 36.3281C41.6817 36.276 41.0199 36.6069 40.6482 37.1893M28.6239 36.3281C27.1237 37.0808 27.5904 40.4619 29.4455 41.3042C29.9678 41.5421 30.3372 42.0246 30.4307 42.5908C31.1921 47.1432 36.5368 50.1075 38.9258 50.1075C41.3148 50.1075 46.6595 47.1432 47.4208 42.5908C47.5144 42.0246 47.8838 41.5421 48.406 41.3042C50.2628 40.4602 50.7279 37.0808 49.2277 36.3281M58.7338 58.7197C58.1628 56.5386 56.563 54.7735 54.4483 53.9916L45.8896 51.1548L39.4907 58.0445C39.3278 58.2195 39.0995 58.319 38.8603 58.319C38.6212 58.319 38.3928 58.2195 38.2299 58.0445L31.8638 51.1875L23.4032 53.9916C21.2885 54.7735 19.6887 56.5386 19.1178 58.7197M28.0865 39.8367C27.7638 42.3285 26.4831 44.5965 24.5159 46.1597C24.2623 46.3045 24.0994 46.5679 24.083 46.8594C24.0667 47.1509 24.1991 47.4309 24.4349 47.6031C25.8642 48.716 28.0865 50.1075 31.8638 48.3007M49.765 39.8367C50.0877 42.3285 51.3685 44.5965 53.3357 46.1597C53.5892 46.3045 53.7522 46.5679 53.7685 46.8594C53.7849 47.1509 53.6524 47.4309 53.4166 47.6031C51.9874 48.716 48.0504 50.1075 45.8896 48.3007M39.2203 25.9435L56.2948 22.974C56.502 22.939 56.6536 22.7596 56.6536 22.5495C56.6536 22.3394 56.502 22.1599 56.2948 22.1249L39.2203 19.1554C39.0253 19.1227 38.8262 19.1227 38.6312 19.1554L21.5568 22.1249C21.3496 22.1599 21.198 22.3394 21.198 22.5495C21.198 22.7596 21.3496 22.939 21.5568 22.974L38.6312 25.9435C38.8262 25.9762 39.0253 25.9762 39.2203 25.9435Z" stroke="#D96689" stroke-width="2.5" stroke-linecap="round" stroke-linejoin="round"/>
</svg>
