<svg width="79" height="78" viewBox="0 0 79 78" fill="none" xmlns="http://www.w3.org/2000/svg">
<path d="M41.1607 45.7598V46.4135C41.1916 46.5027 41.2358 46.5891 41.2938 46.6698L49.4324 58H49.5176L52.7101 55.7068C53.1587 55.3846 53.2611 54.7597 52.9389 54.3112L45.3547 43.7528C45.0325 43.3042 44.4077 43.2018 43.9591 43.524L41.5226 45.2742C41.3479 45.3996 41.2258 45.5709 41.1607 45.7598Z" fill="#FFFF74"/>
<path d="M31.1607 44C31.1607 43.4477 30.713 43 30.1607 43H27.1607C26.6084 43 26.1607 43.4477 26.1607 44V58H31.1607M31.1607 44V58M31.1607 44C31.1607 43.4477 31.6084 43 32.1607 43H35.1607C35.713 43 36.1607 43.4477 36.1607 44M31.1607 58H36.1607M36.1607 44V58M36.1607 44C36.1607 43.4477 36.6084 43 37.1607 43H40.1607C40.713 43 41.1607 43.4477 41.1607 44V45.7598M36.1607 58H41.1607V46.4135M47.1607 35H52.1607V21C52.1607 20.4477 51.713 20 51.1607 20H48.1607C47.6084 20 47.1607 20.4477 47.1607 21M47.1607 35V21M47.1607 35H42.1607V21C42.1607 20.4477 42.6084 20 43.1607 20H46.1607C46.713 20 47.1607 20.4477 47.1607 21M20.1607 35V16M58.1607 35V16M20.1607 58V39M58.1607 58V39M41.1607 45.7598V46.4135M41.1607 45.7598C41.2258 45.5709 41.3479 45.3996 41.5226 45.2742L43.9591 43.524C44.4077 43.2018 45.0325 43.3042 45.3547 43.7528L52.9389 54.3112C53.2611 54.7597 53.1587 55.3846 52.7101 55.7068L49.5176 58M41.1607 45.7598C41.0887 45.9689 41.0866 46.1996 41.1607 46.4135M41.1607 46.4135C41.1916 46.5027 41.2358 46.5891 41.2938 46.6698L49.4324 58M49.4324 58H49.5176M49.4324 58H18.1607C17.0561 58 16.1607 58.8954 16.1607 60C16.1607 61.1046 17.0561 62 18.1607 62H60.1607C61.2653 62 62.1607 61.1046 62.1607 60C62.1607 58.8954 61.2653 58 60.1607 58H49.5176M49.4324 58L49.4614 58.0404L49.5176 58M33.9123 35.0082L30.6636 32.6746C30.215 32.3524 30.1126 31.7276 30.4348 31.2791L38.019 20.7206C38.3412 20.2721 38.966 20.1697 39.4145 20.4919L41.8511 22.2421C42.2997 22.5643 42.4021 23.1891 42.0799 23.6376L33.9123 35.0082ZM62.1607 37C62.1607 38.1046 61.2653 39 60.1607 39H18.1607C17.0561 39 16.1607 38.1046 16.1607 37C16.1607 35.8954 17.0561 35 18.1607 35H60.1607C61.2653 35 62.1607 35.8954 62.1607 37Z" stroke="#D96689" stroke-width="1.5" stroke-linecap="round" stroke-linejoin="round"/>
</svg>
