<svg width="78" height="79" viewBox="0 0 78 79" fill="none" xmlns="http://www.w3.org/2000/svg">
<path d="M39 27.1102V33.4345H45.3244V27.1102H39Z" fill="#FFFF74"/>
<path d="M25.2973 60.8399H52.7027M39 56.6237V60.8399M15.8108 48.1912H62.1892M32.6757 22.894V43.975M39 22.894V27.1102M39 43.975V33.4345M45.3244 22.894V27.1102M45.3244 43.975V33.4345M28.4595 39.7588H49.5406M28.4595 33.4345H39M49.5406 33.4345H45.3244M28.4595 27.1102H39M49.5406 27.1102H45.3244M39 27.1102V33.4345M39 27.1102H45.3244M39 33.4345H45.3244M45.3244 33.4345V27.1102M62.1892 53.2739C62.2412 55.0722 60.8254 56.572 59.0271 56.6237L18.973 56.6237C17.1747 56.572 15.7589 55.0722 15.8108 53.2739V22.0275C15.76 20.2297 17.1752 18.7305 18.973 18.6777H59.0271C60.8248 18.7305 62.24 20.2297 62.1892 22.0275L62.1892 53.2739ZM39 51.8804C39.2911 51.8804 39.5271 52.1164 39.5271 52.4075C39.5271 52.6985 39.2911 52.9345 39 52.9345C38.709 52.9345 38.473 52.6985 38.473 52.4075C38.473 52.1164 38.709 51.8804 39 51.8804Z" stroke="#FFFF74" stroke-width="1.5" stroke-linecap="round" stroke-linejoin="round"/>
</svg>
