<svg width="79" height="78" viewBox="0 0 79 78" fill="none" xmlns="http://www.w3.org/2000/svg">
<path d="M35.957 34.1898C39.4927 40.5615 47.9543 40.3342 50.1842 40.3342M38.8969 62.4909C41.7133 62.499 50.2515 62.4909 50.2515 62.4909L50.2544 35.7687C61.6569 35.7687 60.2137 25.3628 60.2137 25.3628L46.7118 21.0742V15.3377C37.7211 15.0764 40.2892 28.7914 36.7025 33.2793C33.1158 37.7673 24.3932 40.3342 25.6532 58.1568C22.5746 57.6836 20.4412 52.4912 18.4835 50.7109C18.2422 56.1483 18.7671 58.6477 21.6083 61.8232L22.6624 62.4689L36.6859 62.4909C36.6859 62.4909 32.5596 62.4896 38.8969 62.4909ZM38.8969 62.4909C43.8646 58.5834 40.3507 52.3239 36.7025 52.3239" stroke="#D96689" stroke-width="2.5" stroke-linecap="round" stroke-linejoin="round"/>
</svg>
