<svg width="47" height="46" viewBox="0 0 47 46" fill="none" xmlns="http://www.w3.org/2000/svg">
<path d="M14.2301 35.7548C13.3142 35.7548 12.5374 35.463 11.8997 34.8793C11.2619 34.2956 10.943 33.5846 10.943 32.7464V19.5084C10.943 18.6702 11.2619 17.9593 11.8997 17.3756C12.5374 16.7919 13.3142 16.5 14.2301 16.5H33.6559C34.5718 16.5 35.3486 16.7919 35.9863 17.3756C36.6241 17.9593 36.943 18.6702 36.943 19.5084V32.7464C36.943 33.5846 36.6241 34.2956 35.9863 34.8793C35.3486 35.463 34.5718 35.7548 33.6559 35.7548H14.2301ZM23.943 27.9526L14.2301 22.2764V32.7464H33.6559V22.2764L23.943 27.9526ZM23.943 25.1846L33.6559 19.5084H14.2301L23.943 25.1846ZM14.2301 22.2764V19.5084V32.7464V22.2764Z" fill="#222222"/>
</svg>
