<svg width="46" height="46" viewBox="0 0 46 46" fill="none" xmlns="http://www.w3.org/2000/svg">
<path d="M13.2871 34.7548C12.3712 34.7548 11.5944 34.463 10.9567 33.8793C10.3189 33.2956 10 32.5846 10 31.7464V18.5084C10 17.6702 10.3189 16.9593 10.9567 16.3756C11.5944 15.7919 12.3712 15.5 13.2871 15.5H32.7129C33.6288 15.5 34.4056 15.7919 35.0433 16.3756C35.6811 16.9593 36 17.6702 36 18.5084V31.7464C36 32.5846 35.6811 33.2956 35.0433 33.8793C34.4056 34.463 33.6288 34.7548 32.7129 34.7548H13.2871ZM23 26.9526L13.2871 21.2764V31.7464H32.7129V21.2764L23 26.9526ZM23 24.1846L32.7129 18.5084H13.2871L23 24.1846ZM13.2871 21.2764V18.5084V31.7464V21.2764Z" fill="#222222"/>
</svg>
