<svg width="46" height="46" viewBox="0 0 46 46" xmlns="http://www.w3.org/2000/svg">
<path d="M11.4656 17.7373H14.7605C15.1745 17.7375 15.5104 18.0733 15.5105 18.4873V33.5381C15.5103 33.9521 15.1745 34.2879 14.7605 34.2881H11.4656C11.0515 34.2881 10.7157 33.9522 10.7156 33.5381V18.4873C10.7157 18.0732 11.0514 17.7373 11.4656 17.7373ZM29.238 17.3096C31.8555 17.3096 33.349 18.1664 34.2078 19.5303C35.0832 20.9208 35.3318 22.8857 35.3318 25.1719V32.1416L35.3289 33.54C35.3276 33.9533 34.9922 34.288 34.5789 34.2881H31.2927C30.8788 34.2879 30.5429 33.952 30.5427 33.5381V26.2383C30.5427 25.2602 30.5366 24.0804 30.1667 23.1465C29.979 22.6723 29.6926 22.2488 29.2576 21.9453C28.8221 21.6416 28.2585 21.4727 27.5408 21.4727C26.8201 21.4727 26.233 21.614 25.7615 21.875C25.2887 22.1368 24.9464 22.5118 24.7019 22.9551C24.2194 23.8301 24.116 24.9796 24.116 26.0957V33.5381C24.1158 33.9521 23.78 34.2879 23.366 34.2881H20.0769C19.6628 34.2881 19.3271 33.9522 19.3269 33.5381V18.4873C19.327 18.0732 19.6628 17.7373 20.0769 17.7373H23.155C23.5691 17.7374 23.9049 18.0733 23.905 18.4873V19.7676C23.9053 19.9309 24.0375 20.0634 24.2009 20.0635C24.3096 20.0635 24.4097 20.0038 24.4617 19.9072H24.4626C25.1361 18.6522 26.7745 17.3097 29.238 17.3096ZM13.1101 9.25C13.857 9.25002 14.5732 9.54706 15.1013 10.0752C15.6294 10.6033 15.9265 11.3195 15.9265 12.0664C15.9265 13.6244 14.6614 14.9121 13.1101 14.9121C11.5582 14.9121 10.2938 13.6244 10.2937 12.0664L10.3074 11.7881C10.3714 11.1433 10.6567 10.5374 11.1189 10.0752C11.6471 9.54703 12.3632 9.25 13.1101 9.25Z" fill="#222222" stroke="#D96689" stroke-width="0.5"/>
</svg>
