<svg width="147" height="134" viewBox="0 0 147 134" fill="none" xmlns="http://www.w3.org/2000/svg">
<g clip-path="url(#clip0_403_2720)">
<path d="M-57.5 53.3281H342.5" stroke="#D3D2D2" stroke-width="6" stroke-linecap="round" stroke-dasharray="10 10"/>
<path d="M35.9548 53.1616L90.2983 53.4166L142.5 53.6616" stroke="#196EC1" stroke-width="6" stroke-linecap="square"/>
<circle cx="34.0522" cy="53.3281" r="6.5" fill="#196EC1" stroke="#196EC1"/>
</g>
<line x1="27.4766" y1="31.9453" x2="27.4766" y2="101.343" stroke="#388038" stroke-width="2" stroke-dasharray="2 2"/>
<path d="M36.9885 95.3432L36.0568 92.2846H31.3722L30.4406 95.3432H27.5051L32.0402 82.4409H35.3713L39.924 95.3432H36.9885ZM35.4064 89.9995C34.5451 87.228 34.0588 85.6606 33.9474 85.2973C33.842 84.934 33.7658 84.6469 33.7189 84.436C33.5256 85.186 32.9719 87.0405 32.0578 89.9995H35.4064ZM50.9494 95.3432H48.2687V89.6039C48.2687 88.895 48.1427 88.3647 47.8908 88.0131C47.6388 87.6557 47.2374 87.477 46.6867 87.477C45.9367 87.477 45.3947 87.7289 45.0607 88.2328C44.7267 88.7309 44.5597 89.56 44.5597 90.7202V95.3432H41.879V85.517H43.9269L44.2872 86.7739H44.4367C44.7355 86.2993 45.1456 85.9418 45.6671 85.7016C46.1945 85.4555 46.7921 85.3325 47.4601 85.3325C48.6027 85.3325 49.4699 85.643 50.0617 86.2641C50.6535 86.8793 50.9494 87.77 50.9494 88.936V95.3432ZM63.3194 95.3432H60.6388V89.6039C60.6388 88.895 60.5128 88.3647 60.2608 88.0131C60.0089 87.6557 59.6075 87.477 59.0567 87.477C58.3067 87.477 57.7647 87.7289 57.4308 88.2328C57.0968 88.7309 56.9298 89.56 56.9298 90.7202V95.3432H54.2491V85.517H56.297L56.6573 86.7739H56.8067C57.1056 86.2993 57.5157 85.9418 58.0372 85.7016C58.5646 85.4555 59.1622 85.3325 59.8302 85.3325C60.9728 85.3325 61.8399 85.643 62.4317 86.2641C63.0235 86.8793 63.3194 87.77 63.3194 88.936V95.3432ZM68.7549 90.4125C68.7549 91.3852 68.9131 92.1205 69.2295 92.6186C69.5518 93.1166 70.0733 93.3657 70.794 93.3657C71.5088 93.3657 72.0215 93.1196 72.3321 92.6274C72.6485 92.1293 72.8067 91.3911 72.8067 90.4125C72.8067 89.4399 72.6485 88.7104 72.3321 88.2241C72.0157 87.7377 71.4971 87.4946 70.7764 87.4946C70.0616 87.4946 69.546 87.7377 69.2295 88.2241C68.9131 88.7045 68.7549 89.434 68.7549 90.4125ZM75.5489 90.4125C75.5489 92.0121 75.127 93.2631 74.2833 94.1655C73.4395 95.0678 72.2647 95.519 70.7588 95.519C69.8155 95.519 68.9835 95.3139 68.2628 94.9037C67.542 94.4877 66.9883 93.893 66.6016 93.1196C66.2149 92.3461 66.0215 91.4438 66.0215 90.4125C66.0215 88.8071 66.4405 87.559 67.2784 86.6684C68.1163 85.7778 69.294 85.3325 70.8116 85.3325C71.7549 85.3325 72.587 85.5375 73.3077 85.9477C74.0284 86.3578 74.5821 86.9467 74.9688 87.7143C75.3555 88.4819 75.5489 89.3813 75.5489 90.4125ZM82.4434 93.3832C82.9121 93.3832 83.4746 93.2807 84.1309 93.0756V95.0707C83.4629 95.3696 82.6426 95.519 81.6699 95.519C80.5977 95.519 79.8154 95.2495 79.3233 94.7104C78.8369 94.1655 78.5938 93.351 78.5938 92.267V87.5297H77.3106V86.3959L78.7871 85.4995L79.5606 83.4252H81.2744V85.517H84.0254V87.5297H81.2744V92.267C81.2744 92.6479 81.3799 92.9291 81.5908 93.1108C81.8076 93.2924 82.0918 93.3832 82.4434 93.3832ZM92.9062 95.3432L92.3877 94.0073H92.3174C91.8662 94.5756 91.4004 94.9711 90.9199 95.1938C90.4453 95.4106 89.8242 95.519 89.0566 95.519C88.1133 95.519 87.3691 95.2495 86.8242 94.7104C86.2851 94.1713 86.0156 93.4037 86.0156 92.4077C86.0156 91.3647 86.3789 90.5971 87.1054 90.1049C87.8379 89.6069 88.9394 89.3315 90.4101 89.2787L92.1152 89.226V88.7953C92.1152 87.7993 91.6054 87.3012 90.5859 87.3012C89.8008 87.3012 88.8779 87.5385 87.8174 88.0131L86.9297 86.2026C88.0605 85.6108 89.3144 85.3149 90.6914 85.3149C92.0097 85.3149 93.0205 85.602 93.7236 86.1762C94.4267 86.7504 94.7783 87.6235 94.7783 88.7953V95.3432H92.9062ZM92.1152 90.7905L91.0781 90.8256C90.2988 90.8491 89.7187 90.9897 89.3379 91.2475C88.957 91.5053 88.7666 91.8979 88.7666 92.4252C88.7666 93.1811 89.2002 93.559 90.0674 93.559C90.6885 93.559 91.1836 93.3803 91.5527 93.0229C91.9277 92.6655 92.1152 92.1909 92.1152 91.5991V90.7905ZM102.227 93.3832C102.695 93.3832 103.258 93.2807 103.914 93.0756V95.0707C103.246 95.3696 102.426 95.519 101.453 95.519C100.381 95.519 99.5986 95.2495 99.1064 94.7104C98.6201 94.1655 98.3769 93.351 98.3769 92.267V87.5297H97.0937V86.3959L98.5703 85.4995L99.3437 83.4252H101.058V85.517H103.809V87.5297H101.058V92.267C101.058 92.6479 101.163 92.9291 101.374 93.1108C101.591 93.2924 101.875 93.3832 102.227 93.3832ZM106.335 82.977C106.335 82.1039 106.821 81.6674 107.794 81.6674C108.767 81.6674 109.253 82.1039 109.253 82.977C109.253 83.393 109.13 83.7182 108.884 83.9526C108.643 84.1811 108.28 84.2953 107.794 84.2953C106.821 84.2953 106.335 83.8559 106.335 82.977ZM109.13 95.3432H106.449V85.517H109.13V95.3432ZM114.627 90.4125C114.627 91.3852 114.785 92.1205 115.101 92.6186C115.424 93.1166 115.945 93.3657 116.666 93.3657C117.381 93.3657 117.893 93.1196 118.204 92.6274C118.52 92.1293 118.679 91.3911 118.679 90.4125C118.679 89.4399 118.52 88.7104 118.204 88.2241C117.888 87.7377 117.369 87.4946 116.648 87.4946C115.933 87.4946 115.418 87.7377 115.101 88.2241C114.785 88.7045 114.627 89.434 114.627 90.4125ZM121.421 90.4125C121.421 92.0121 120.999 93.2631 120.155 94.1655C119.311 95.0678 118.137 95.519 116.631 95.519C115.687 95.519 114.855 95.3139 114.135 94.9037C113.414 94.4877 112.86 93.893 112.473 93.1196C112.087 92.3461 111.893 91.4438 111.893 90.4125C111.893 88.8071 112.312 87.559 113.15 86.6684C113.988 85.7778 115.166 85.3325 116.683 85.3325C117.627 85.3325 118.459 85.5375 119.18 85.9477C119.9 86.3578 120.454 86.9467 120.841 87.7143C121.227 88.4819 121.421 89.3813 121.421 90.4125ZM133.246 95.3432H130.565V89.6039C130.565 88.895 130.439 88.3647 130.187 88.0131C129.935 87.6557 129.534 87.477 128.983 87.477C128.233 87.477 127.691 87.7289 127.357 88.2328C127.023 88.7309 126.856 89.56 126.856 90.7202V95.3432H124.176V85.517H126.223L126.584 86.7739H126.733C127.032 86.2993 127.442 85.9418 127.964 85.7016C128.491 85.4555 129.089 85.3325 129.757 85.3325C130.899 85.3325 131.766 85.643 132.358 86.2641C132.95 86.8793 133.246 87.77 133.246 88.936V95.3432Z" fill="black"/>
<defs>
<clipPath id="clip0_403_2720">
<rect width="126" height="28" fill="white" transform="translate(7.5 39.6616)"/>
</clipPath>
</defs>
</svg>
