<svg width="147" height="134" viewBox="0 0 147 134" fill="none" xmlns="http://www.w3.org/2000/svg">
<g clip-path="url(#clip0_320_4884)">
<ellipse cx="72.5" cy="64.3285" rx="4" ry="6.33333" fill="#474747"/>
<mask id="mask0_320_4884" style="mask-type:alpha" maskUnits="userSpaceOnUse" x="68" y="57" width="9" height="14">
<ellipse cx="72.5" cy="64.3285" rx="4" ry="6.33333" fill="#474747"/>
</mask>
<g mask="url(#mask0_320_4884)">
<rect x="66.65" y="57.8912" width="11.7" height="5.95403" fill="#0A427A" stroke="white" stroke-width="0.3"/>
</g>
<ellipse cx="72.5001" cy="53.995" rx="3.33333" ry="3.33333" fill="#474747"/>
<rect x="71.4663" y="57.9951" width="8.66667" height="3.33333" rx="1.66667" transform="rotate(5.15389 71.4663 57.9951)" fill="#474747"/>
<mask id="mask1_320_4884" style="mask-type:alpha" maskUnits="userSpaceOnUse" x="71" y="58" width="9" height="4">
<rect x="71.4663" y="57.9951" width="8.66667" height="3.33333" rx="1.66667" transform="rotate(5.15389 71.4663 57.9951)" fill="#474747"/>
</mask>
<g mask="url(#mask1_320_4884)">
<rect x="68.3001" y="55.761" width="7.7" height="5.7" transform="rotate(5.95975 68.3001 55.761)" fill="#0A427A" stroke="white" stroke-width="0.3"/>
</g>
<path fill-rule="evenodd" clip-rule="evenodd" d="M40.1877 60.5444C37.5227 60.5444 35.3623 62.4743 35.3623 64.8549V74.234C35.3623 76.6146 37.5227 78.5444 40.1877 78.5444H42.4672C42.4595 78.3886 42.4556 78.2317 42.4556 78.0739C42.4556 73.1033 46.3119 69.0739 51.069 69.0739C55.826 69.0739 59.6823 73.1033 59.6823 78.0739C59.6823 78.2317 59.6784 78.3886 59.6707 78.5444H85.0272C85.0195 78.3886 85.0156 78.2317 85.0156 78.0739C85.0156 73.1033 88.8719 69.0739 93.629 69.0739C98.386 69.0739 102.242 73.1033 102.242 78.0739C102.242 78.2317 102.238 78.3886 102.231 78.5444H106.537C109.202 78.5444 111.362 76.6146 111.362 74.234V64.8549C111.362 62.4743 109.202 60.5444 106.537 60.5444H40.1877Z" fill="#0080FF"/>
<path fill-rule="evenodd" clip-rule="evenodd" d="M51.0688 84.5737C54.6587 84.5737 57.5688 81.6636 57.5688 78.0737C57.5688 74.4839 54.6587 71.5737 51.0688 71.5737C47.479 71.5737 44.5688 74.4839 44.5688 78.0737C44.5688 81.6636 47.479 84.5737 51.0688 84.5737ZM93.6288 84.5737C97.2186 84.5737 100.129 81.6636 100.129 78.0737C100.129 74.4839 97.2186 71.5737 93.6288 71.5737C90.0389 71.5737 87.1288 74.4839 87.1288 78.0737C87.1288 81.6636 90.0389 84.5737 93.6288 84.5737Z" fill="#474747"/>
<path d="M52.3791 43.5444C49.6084 43.5444 47.3623 45.491 47.3623 47.8923V63.1097C47.3623 65.5109 49.6084 67.4575 52.3791 67.4575H59.6961C56.936 67.4466 54.7025 65.5042 54.7025 63.1097V50.258C54.7025 49.6577 55.264 49.1711 55.9567 49.1711H76.3203C76.6507 49.1711 76.9677 49.284 77.2026 49.4854L86.2239 60.0193C89.404 62.7468 87.1851 67.4406 82.7192 67.4575H92.3354C96.8914 67.4575 99.0885 62.619 95.7545 59.928L80.1621 44.7106C79.2336 43.9611 78.0119 43.5444 76.743 43.5444H52.3791Z" fill="#0080FF"/>
<g clip-path="url(#clip1_320_4884)">
<path d="M-49.5 92.3281H350.5" stroke="#D3D2D2" stroke-width="6" stroke-linecap="round" stroke-dasharray="10 10"/>
<path d="M-20.0452 92.1616L27.1077 92.1616L72.4022 92.1616" stroke="#196EC1" stroke-width="6" stroke-linecap="square"/>
</g>
<path d="M76.5 9.72423L76.5 209.724" stroke="#53B453" stroke-width="2" stroke-dasharray="2 2"/>
</g>
<defs>
<clipPath id="clip0_320_4884">
<rect width="116" height="80" fill="white" transform="translate(15.5 26.6616)"/>
</clipPath>
<clipPath id="clip1_320_4884">
<rect width="208" height="15" fill="white" transform="translate(-49.5 84.6616)"/>
</clipPath>
</defs>
</svg>
