<svg width="147" height="134" viewBox="0 0 147 134" fill="none" xmlns="http://www.w3.org/2000/svg">
<g clip-path="url(#clip0_325_5937)">
<path d="M-57.5 53.3281H342.5" stroke="#D3D2D2" stroke-width="6" stroke-linecap="round" stroke-dasharray="10 10"/>
<path d="M35.9548 53.1616L90.2983 53.4166L142.5 53.6616" stroke="#196EC1" stroke-width="6" stroke-linecap="square"/>
<circle cx="34.0522" cy="53.3281" r="6.5" fill="#196EC1" stroke="#196EC1"/>
</g>
<line x1="27.4766" y1="31.9453" x2="27.4766" y2="101.343" stroke="#53B453" stroke-width="2" stroke-dasharray="2 2"/>
<path d="M36.9885 95.3433L36.0568 92.2847H31.3722L30.4406 95.3433H27.5051L32.0402 82.4409H35.3713L39.924 95.3433H36.9885ZM35.4064 89.9995C34.5451 87.228 34.0588 85.6606 33.9474 85.2974C33.842 84.9341 33.7658 84.647 33.7189 84.436C33.5256 85.186 32.9719 87.0405 32.0578 89.9995H35.4064ZM50.9494 95.3433H48.2687V89.604C48.2687 88.895 48.1427 88.3647 47.8908 88.0132C47.6388 87.6558 47.2374 87.4771 46.6867 87.4771C45.9367 87.4771 45.3947 87.729 45.0607 88.2329C44.7267 88.731 44.5597 89.5601 44.5597 90.7202V95.3433H41.879V85.5171H43.9269L44.2872 86.7739H44.4367C44.7355 86.2993 45.1456 85.9419 45.6671 85.7017C46.1945 85.4556 46.7921 85.3325 47.4601 85.3325C48.6027 85.3325 49.4699 85.6431 50.0617 86.2642C50.6535 86.8794 50.9494 87.77 50.9494 88.936V95.3433ZM63.3194 95.3433H60.6388V89.604C60.6388 88.895 60.5128 88.3647 60.2608 88.0132C60.0089 87.6558 59.6075 87.4771 59.0567 87.4771C58.3067 87.4771 57.7647 87.729 57.4308 88.2329C57.0968 88.731 56.9298 89.5601 56.9298 90.7202V95.3433H54.2491V85.5171H56.297L56.6573 86.7739H56.8067C57.1056 86.2993 57.5157 85.9419 58.0372 85.7017C58.5646 85.4556 59.1622 85.3325 59.8302 85.3325C60.9728 85.3325 61.8399 85.6431 62.4317 86.2642C63.0235 86.8794 63.3194 87.77 63.3194 88.936V95.3433ZM68.7549 90.4126C68.7549 91.3853 68.9131 92.1206 69.2295 92.6187C69.5518 93.1167 70.0733 93.3657 70.794 93.3657C71.5088 93.3657 72.0215 93.1196 72.3321 92.6274C72.6485 92.1294 72.8067 91.3911 72.8067 90.4126C72.8067 89.4399 72.6485 88.7104 72.3321 88.2241C72.0157 87.7378 71.4971 87.4946 70.7764 87.4946C70.0616 87.4946 69.546 87.7378 69.2295 88.2241C68.9131 88.7046 68.7549 89.4341 68.7549 90.4126ZM75.5489 90.4126C75.5489 92.0122 75.127 93.2632 74.2833 94.1655C73.4395 95.0679 72.2647 95.519 70.7588 95.519C69.8155 95.519 68.9835 95.314 68.2628 94.9038C67.542 94.4878 66.9883 93.8931 66.6016 93.1196C66.2149 92.3462 66.0215 91.4438 66.0215 90.4126C66.0215 88.8071 66.4405 87.5591 67.2784 86.6685C68.1163 85.7778 69.294 85.3325 70.8116 85.3325C71.7549 85.3325 72.587 85.5376 73.3077 85.9478C74.0284 86.3579 74.5821 86.9468 74.9688 87.7144C75.3555 88.4819 75.5489 89.3813 75.5489 90.4126ZM82.4434 93.3833C82.9121 93.3833 83.4746 93.2808 84.1309 93.0757V95.0708C83.4629 95.3696 82.6426 95.519 81.6699 95.519C80.5977 95.519 79.8154 95.2495 79.3233 94.7104C78.8369 94.1655 78.5938 93.3511 78.5938 92.2671V87.5298H77.3106V86.396L78.7871 85.4995L79.5606 83.4253H81.2744V85.5171H84.0254V87.5298H81.2744V92.2671C81.2744 92.6479 81.3799 92.9292 81.5908 93.1108C81.8076 93.2925 82.0918 93.3833 82.4434 93.3833ZM92.9062 95.3433L92.3877 94.0073H92.3174C91.8662 94.5757 91.4004 94.9712 90.9199 95.1938C90.4453 95.4106 89.8242 95.519 89.0566 95.519C88.1133 95.519 87.3691 95.2495 86.8242 94.7104C86.2851 94.1714 86.0156 93.4038 86.0156 92.4077C86.0156 91.3647 86.3789 90.5972 87.1054 90.105C87.8379 89.6069 88.9394 89.3315 90.4101 89.2788L92.1152 89.2261V88.7954C92.1152 87.7993 91.6054 87.3013 90.5859 87.3013C89.8008 87.3013 88.8779 87.5386 87.8174 88.0132L86.9297 86.2026C88.0605 85.6108 89.3144 85.3149 90.6914 85.3149C92.0097 85.3149 93.0205 85.6021 93.7236 86.1763C94.4267 86.7505 94.7783 87.6235 94.7783 88.7954V95.3433H92.9062ZM92.1152 90.7905L91.0781 90.8257C90.2988 90.8491 89.7187 90.9897 89.3379 91.2476C88.957 91.5054 88.7666 91.8979 88.7666 92.4253C88.7666 93.1812 89.2002 93.5591 90.0674 93.5591C90.6885 93.5591 91.1836 93.3804 91.5527 93.0229C91.9277 92.6655 92.1152 92.1909 92.1152 91.5991V90.7905ZM102.227 93.3833C102.695 93.3833 103.258 93.2808 103.914 93.0757V95.0708C103.246 95.3696 102.426 95.519 101.453 95.519C100.381 95.519 99.5986 95.2495 99.1064 94.7104C98.6201 94.1655 98.3769 93.3511 98.3769 92.2671V87.5298H97.0937V86.396L98.5703 85.4995L99.3437 83.4253H101.058V85.5171H103.809V87.5298H101.058V92.2671C101.058 92.6479 101.163 92.9292 101.374 93.1108C101.591 93.2925 101.875 93.3833 102.227 93.3833ZM106.335 82.9771C106.335 82.104 106.821 81.6675 107.794 81.6675C108.767 81.6675 109.253 82.104 109.253 82.9771C109.253 83.3931 109.13 83.7183 108.884 83.9526C108.643 84.1812 108.28 84.2954 107.794 84.2954C106.821 84.2954 106.335 83.856 106.335 82.9771ZM109.13 95.3433H106.449V85.5171H109.13V95.3433ZM114.627 90.4126C114.627 91.3853 114.785 92.1206 115.101 92.6187C115.424 93.1167 115.945 93.3657 116.666 93.3657C117.381 93.3657 117.893 93.1196 118.204 92.6274C118.52 92.1294 118.679 91.3911 118.679 90.4126C118.679 89.4399 118.52 88.7104 118.204 88.2241C117.888 87.7378 117.369 87.4946 116.648 87.4946C115.933 87.4946 115.418 87.7378 115.101 88.2241C114.785 88.7046 114.627 89.4341 114.627 90.4126ZM121.421 90.4126C121.421 92.0122 120.999 93.2632 120.155 94.1655C119.311 95.0679 118.137 95.519 116.631 95.519C115.687 95.519 114.855 95.314 114.135 94.9038C113.414 94.4878 112.86 93.8931 112.473 93.1196C112.087 92.3462 111.893 91.4438 111.893 90.4126C111.893 88.8071 112.312 87.5591 113.15 86.6685C113.988 85.7778 115.166 85.3325 116.683 85.3325C117.627 85.3325 118.459 85.5376 119.18 85.9478C119.9 86.3579 120.454 86.9468 120.841 87.7144C121.227 88.4819 121.421 89.3813 121.421 90.4126ZM133.246 95.3433H130.565V89.604C130.565 88.895 130.439 88.3647 130.187 88.0132C129.935 87.6558 129.534 87.4771 128.983 87.4771C128.233 87.4771 127.691 87.729 127.357 88.2329C127.023 88.731 126.856 89.5601 126.856 90.7202V95.3433H124.176V85.5171H126.223L126.584 86.7739H126.733C127.032 86.2993 127.442 85.9419 127.964 85.7017C128.491 85.4556 129.089 85.3325 129.757 85.3325C130.899 85.3325 131.766 85.6431 132.358 86.2642C132.95 86.8794 133.246 87.77 133.246 88.936V95.3433Z" fill="black"/>
<defs>
<clipPath id="clip0_325_5937">
<rect width="126" height="28" fill="white" transform="translate(7.5 39.6616)"/>
</clipPath>
</defs>
</svg>
