<svg width="130" height="134" viewBox="0 0 130 134" fill="none" xmlns="http://www.w3.org/2000/svg">
<g clip-path="url(#clip0_320_4629)">
<g filter="url(#filter0_d_320_4629)">
<path d="M59.5933 46.2975C59.5933 50.362 58.2284 55 56.0277 59.8247C53.8299 64.6432 50.8152 69.6121 47.5537 74.3284C41.2323 83.4697 34.0107 91.6242 30.0925 95.841C26.16 91.6251 18.9381 83.4702 12.6205 74.3286C9.36108 69.6123 6.34944 64.6434 4.15421 59.825C1.95614 55.0002 0.593262 50.3621 0.593262 46.2975C0.593262 29.919 14.5026 16.6191 30.8076 16.6191C47.0816 16.6191 59.5933 29.8879 59.5933 46.2975Z" fill="#0080FF" stroke="#0080FF"/>
<ellipse cx="30.0932" cy="46.6363" rx="23.0471" ry="23.4444" fill="white"/>
</g>
<mask id="path-3-inside-1_320_4629" fill="white">
<path d="M29.8432 28.6035L47.8205 46.2471L44.5705 48.6806L29.8432 32.9554L15.116 48.6806L12.366 46.2471L29.8432 28.6035Z"/>
</mask>
<path d="M29.8432 28.6035L32.645 25.7487L29.8034 22.9599L27.0015 25.7885L29.8432 28.6035ZM47.8205 46.2471L50.218 49.4489L53.9478 46.656L50.6223 43.3923L47.8205 46.2471ZM12.366 46.2471L9.52418 43.4321L6.54626 46.4383L9.71512 49.2426L12.366 46.2471ZM15.116 48.6806L12.4651 51.6761L15.3773 54.2533L18.0355 51.4149L15.116 48.6806ZM44.5705 48.6806L41.651 51.4149L44.1001 54.03L46.968 51.8825L44.5705 48.6806ZM29.8432 32.9554L32.7628 30.2211L29.8432 27.1037L26.9237 30.2211L29.8432 32.9554ZM27.0414 31.4583L45.0187 49.1019L50.6223 43.3923L32.645 25.7487L27.0414 31.4583ZM15.2078 49.0621L32.685 31.4185L27.0015 25.7885L9.52418 43.4321L15.2078 49.0621ZM17.7668 45.6852L15.0168 43.2516L9.71512 49.2426L12.4651 51.6761L17.7668 45.6852ZM45.423 43.0452L42.173 45.4788L46.968 51.8825L50.218 49.4489L45.423 43.0452ZM47.4901 45.9464L32.7628 30.2211L26.9237 35.6896L41.651 51.4149L47.4901 45.9464ZM26.9237 30.2211L12.1964 45.9464L18.0355 51.4149L32.7628 35.6896L26.9237 30.2211Z" fill="#474747" mask="url(#path-3-inside-1_320_4629)"/>
<path fill-rule="evenodd" clip-rule="evenodd" d="M29.9334 29.9907L41.8433 41.399V60.0212H17.8433V41.399L29.9334 29.9907ZM37.8433 43.0145L29.9142 34.4921L21.8433 43.0301V55.3893H37.8433V43.0145Z" fill="#474747"/>
<rect x="28.2195" y="47.2935" width="3.74775" height="10.9832" fill="#474747"/>
<path d="M36.8384 111.56C36.8384 115.15 33.9282 118.06 30.3384 118.06C26.7485 118.06 23.8384 115.15 23.8384 111.56C23.8384 107.97 26.7485 105.06 30.3384 105.06C33.9282 105.06 36.8384 107.97 36.8384 111.56Z" fill="#196EC1" stroke="#196EC1"/>
<line x1="30.52" x2="30.52" y2="133.323" stroke="#53B453" stroke-width="2" stroke-dasharray="2 2"/>
<line x1="-37.1416" y1="94.6616" x2="96.1816" y2="94.6616" stroke="#53B453" stroke-width="2" stroke-dasharray="2 2"/>
<line x1="-37.1416" y1="105.662" x2="96.1816" y2="105.662" stroke="#53B453" stroke-width="2" stroke-dasharray="2 2"/>
</g>
<g clip-path="url(#clip1_320_4629)">
<g filter="url(#filter1_d_320_4629)">
<path d="M128.593 46.2975C128.593 50.362 127.228 55 125.028 59.8247C122.83 64.6432 119.815 69.6121 116.554 74.3284C110.232 83.4697 103.011 91.6242 99.0925 95.841C95.16 91.6251 87.9381 83.4702 81.6205 74.3286C78.3611 69.6123 75.3494 64.6434 73.1542 59.825C70.9561 55.0002 69.5933 50.3621 69.5933 46.2975C69.5933 29.919 83.5026 16.6191 99.8076 16.6191C116.082 16.6191 128.593 29.8879 128.593 46.2975Z" fill="#0080FF" stroke="#0080FF"/>
<ellipse cx="99.0932" cy="46.6363" rx="23.0471" ry="23.4444" fill="white"/>
</g>
<mask id="path-13-inside-2_320_4629" fill="white">
<path d="M98.8432 28.6035L116.821 46.2471L113.571 48.6806L98.8432 32.9554L84.116 48.6806L81.366 46.2471L98.8432 28.6035Z"/>
</mask>
<path d="M98.8432 28.6035L101.645 25.7487L98.8034 22.9599L96.0015 25.7885L98.8432 28.6035ZM116.821 46.2471L119.218 49.4489L122.948 46.656L119.622 43.3923L116.821 46.2471ZM81.366 46.2471L78.5242 43.4321L75.5463 46.4383L78.7151 49.2426L81.366 46.2471ZM84.116 48.6806L81.4651 51.6761L84.3773 54.2533L87.0355 51.4149L84.116 48.6806ZM113.571 48.6806L110.651 51.4149L113.1 54.03L115.968 51.8825L113.571 48.6806ZM98.8432 32.9554L101.763 30.2211L98.8432 27.1037L95.9237 30.2211L98.8432 32.9554ZM96.0414 31.4583L114.019 49.1019L119.622 43.3923L101.645 25.7487L96.0414 31.4583ZM84.2078 49.0621L101.685 31.4185L96.0015 25.7885L78.5242 43.4321L84.2078 49.0621ZM86.7668 45.6852L84.0168 43.2516L78.7151 49.2426L81.4651 51.6761L86.7668 45.6852ZM114.423 43.0452L111.173 45.4788L115.968 51.8825L119.218 49.4489L114.423 43.0452ZM116.49 45.9464L101.763 30.2211L95.9237 35.6896L110.651 51.4149L116.49 45.9464ZM95.9237 30.2211L81.1964 45.9464L87.0355 51.4149L101.763 35.6896L95.9237 30.2211Z" fill="#474747" mask="url(#path-13-inside-2_320_4629)"/>
<path fill-rule="evenodd" clip-rule="evenodd" d="M98.9334 29.9907L110.843 41.399V60.0212H86.8433V41.399L98.9334 29.9907ZM106.843 43.0145L98.9142 34.4921L90.8433 43.0301V55.3893H106.843V43.0145Z" fill="#474747"/>
<rect x="97.2195" y="47.2935" width="3.74775" height="10.9832" fill="#474747"/>
<path d="M101.838 106.784C101.838 110.374 98.9282 113.284 95.3384 113.284C91.7485 113.284 88.8384 110.374 88.8384 106.784C88.8384 103.194 91.7485 100.284 95.3384 100.284C98.9282 100.284 101.838 103.194 101.838 106.784Z" fill="#196EC1" stroke="#196EC1"/>
<g style="mix-blend-mode:darken">
<line x1="99.52" x2="99.52" y2="133.323" stroke="#DD4949" stroke-width="2" stroke-dasharray="2 2"/>
</g>
<line x1="31.8584" y1="95.6616" x2="165.182" y2="95.6616" stroke="#DD4949" stroke-width="2" stroke-dasharray="2 2"/>
<g style="mix-blend-mode:darken">
<line x1="31.8584" y1="106.662" x2="165.182" y2="106.662" stroke="#DD4949" stroke-width="2" stroke-dasharray="2 2"/>
</g>
</g>
<defs>
<filter id="filter0_d_320_4629" x="-3.90674" y="15.1191" width="68" height="88.4546" filterUnits="userSpaceOnUse" color-interpolation-filters="sRGB">
<feFlood flood-opacity="0" result="BackgroundImageFix"/>
<feColorMatrix in="SourceAlpha" type="matrix" values="0 0 0 0 0 0 0 0 0 0 0 0 0 0 0 0 0 0 127 0" result="hardAlpha"/>
<feOffset dy="3"/>
<feGaussianBlur stdDeviation="2"/>
<feComposite in2="hardAlpha" operator="out"/>
<feColorMatrix type="matrix" values="0 0 0 0 0.198969 0 0 0 0 0.198969 0 0 0 0 0.198969 0 0 0 0.4 0"/>
<feBlend mode="normal" in2="BackgroundImageFix" result="effect1_dropShadow_320_4629"/>
<feBlend mode="normal" in="SourceGraphic" in2="effect1_dropShadow_320_4629" result="shape"/>
</filter>
<filter id="filter1_d_320_4629" x="65.0933" y="15.1191" width="68" height="88.4546" filterUnits="userSpaceOnUse" color-interpolation-filters="sRGB">
<feFlood flood-opacity="0" result="BackgroundImageFix"/>
<feColorMatrix in="SourceAlpha" type="matrix" values="0 0 0 0 0 0 0 0 0 0 0 0 0 0 0 0 0 0 127 0" result="hardAlpha"/>
<feOffset dy="3"/>
<feGaussianBlur stdDeviation="2"/>
<feComposite in2="hardAlpha" operator="out"/>
<feColorMatrix type="matrix" values="0 0 0 0 0.198969 0 0 0 0 0.198969 0 0 0 0 0.198969 0 0 0 0.4 0"/>
<feBlend mode="normal" in2="BackgroundImageFix" result="effect1_dropShadow_320_4629"/>
<feBlend mode="normal" in="SourceGraphic" in2="effect1_dropShadow_320_4629" result="shape"/>
</filter>
<clipPath id="clip0_320_4629">
<rect width="61" height="133.323" fill="white"/>
</clipPath>
<clipPath id="clip1_320_4629">
<rect width="61" height="133.323" fill="white" transform="translate(69)"/>
</clipPath>
</defs>
</svg>
