<svg width="130" height="134" viewBox="0 0 130 134" fill="none" xmlns="http://www.w3.org/2000/svg">
<g clip-path="url(#clip0_403_2694)">
<path d="M59.5934 46.2976C59.5934 50.362 58.2285 55.0001 56.0279 59.8248C53.83 64.6433 50.8153 69.6122 47.5538 74.3285C41.2324 83.4697 34.0108 91.6243 30.0926 95.8411C26.1601 91.6251 18.9383 83.4703 12.6206 74.3286C9.36121 69.6123 6.34957 64.6435 4.15434 59.825C1.95626 55.0003 0.593384 50.3622 0.593384 46.2976C0.593384 29.919 14.5027 16.6192 30.8077 16.6192C47.0817 16.6192 59.5934 29.8879 59.5934 46.2976Z" fill="#0080FF" stroke="#0080FF"/>
<ellipse cx="30.0934" cy="46.6365" rx="23.0471" ry="23.4444" fill="white"/>
<mask id="path-3-inside-1_403_2694" fill="white">
<path d="M29.8434 28.6035L47.8207 46.2471L44.5707 48.6806L29.8434 32.9554L15.1161 48.6806L12.3661 46.2471L29.8434 28.6035Z"/>
</mask>
<path d="M29.8434 28.6035L32.6452 25.7487L29.8036 22.9599L27.0016 25.7885L29.8434 28.6035ZM47.8207 46.2471L50.2182 49.4489L53.948 46.656L50.6225 43.3923L47.8207 46.2471ZM12.3661 46.2471L9.52433 43.4321L6.54642 46.4383L9.71527 49.2426L12.3661 46.2471ZM15.1161 48.6806L12.4653 51.6761L15.3775 54.2533L18.0357 51.4149L15.1161 48.6806ZM44.5707 48.6806L41.6511 51.4149L44.1002 54.03L46.9682 51.8825L44.5707 48.6806ZM29.8434 32.9554L32.7629 30.2211L29.8434 27.1037L26.9238 30.2211L29.8434 32.9554ZM27.0416 31.4583L45.0189 49.1019L50.6225 43.3923L32.6452 25.7487L27.0416 31.4583ZM15.2079 49.0621L32.6852 31.4185L27.0016 25.7885L9.52433 43.4321L15.2079 49.0621ZM17.767 45.6851L15.017 43.2516L9.71527 49.2426L12.4653 51.6761L17.767 45.6851ZM45.4231 43.0452L42.1731 45.4788L46.9682 51.8825L50.2182 49.4489L45.4231 43.0452ZM47.4902 45.9464L32.7629 30.2211L26.9238 35.6896L41.6511 51.4149L47.4902 45.9464ZM26.9238 30.2211L12.1966 45.9464L18.0357 51.4149L32.7629 35.6896L26.9238 30.2211Z" fill="#474747" mask="url(#path-3-inside-1_403_2694)"/>
<path fill-rule="evenodd" clip-rule="evenodd" d="M29.9335 29.9907L41.8434 41.3989V60.0212H17.8434V41.3989L29.9335 29.9907ZM37.8434 43.0144L29.9143 34.492L21.8434 43.03V55.3892H37.8434V43.0144Z" fill="#474747"/>
<rect x="28.2195" y="47.2935" width="3.74775" height="10.9832" fill="#474747"/>
<path d="M36.8384 111.56C36.8384 115.15 33.9282 118.06 30.3384 118.06C26.7485 118.06 23.8384 115.15 23.8384 111.56C23.8384 107.97 26.7485 105.06 30.3384 105.06C33.9282 105.06 36.8384 107.97 36.8384 111.56Z" fill="#196EC1" stroke="#196EC1"/>
<line x1="30.52" x2="30.52" y2="133.323" stroke="#388038" stroke-width="2" stroke-dasharray="2 2"/>
<line x1="-37.1416" y1="94.6616" x2="96.1816" y2="94.6616" stroke="#388038" stroke-width="2" stroke-dasharray="2 2"/>
<line x1="-37.1416" y1="105.662" x2="96.1816" y2="105.662" stroke="#388038" stroke-width="2" stroke-dasharray="2 2"/>
</g>
<g clip-path="url(#clip1_403_2694)">
<path d="M128.593 46.2976C128.593 50.362 127.229 55.0001 125.028 59.8248C122.83 64.6433 119.815 69.6122 116.554 74.3285C110.232 83.4697 103.011 91.6243 99.0926 95.8411C95.1601 91.6251 87.9383 83.4703 81.6206 74.3286C78.3612 69.6123 75.3496 64.6435 73.1543 59.825C70.9563 55.0003 69.5934 50.3622 69.5934 46.2976C69.5934 29.919 83.5027 16.6192 99.8077 16.6192C116.082 16.6192 128.593 29.8879 128.593 46.2976Z" fill="#0080FF" stroke="#0080FF"/>
<ellipse cx="99.0934" cy="46.6365" rx="23.0471" ry="23.4444" fill="white"/>
<mask id="path-13-inside-2_403_2694" fill="white">
<path d="M98.8434 28.6035L116.821 46.2471L113.571 48.6806L98.8434 32.9554L84.1161 48.6806L81.3661 46.2471L98.8434 28.6035Z"/>
</mask>
<path d="M98.8434 28.6035L101.645 25.7487L98.8036 22.9599L96.0016 25.7885L98.8434 28.6035ZM116.821 46.2471L119.218 49.4489L122.948 46.656L119.622 43.3923L116.821 46.2471ZM81.3661 46.2471L78.5243 43.4321L75.5464 46.4383L78.7153 49.2426L81.3661 46.2471ZM84.1161 48.6806L81.4653 51.6761L84.3775 54.2533L87.0357 51.4149L84.1161 48.6806ZM113.571 48.6806L110.651 51.4149L113.1 54.03L115.968 51.8825L113.571 48.6806ZM98.8434 32.9554L101.763 30.2211L98.8434 27.1037L95.9238 30.2211L98.8434 32.9554ZM96.0416 31.4583L114.019 49.1019L119.622 43.3923L101.645 25.7487L96.0416 31.4583ZM84.2079 49.0621L101.685 31.4185L96.0016 25.7885L78.5243 43.4321L84.2079 49.0621ZM86.767 45.6851L84.017 43.2516L78.7153 49.2426L81.4653 51.6761L86.767 45.6851ZM114.423 43.0452L111.173 45.4788L115.968 51.8825L119.218 49.4489L114.423 43.0452ZM116.49 45.9464L101.763 30.2211L95.9238 35.6896L110.651 51.4149L116.49 45.9464ZM95.9238 30.2211L81.1966 45.9464L87.0357 51.4149L101.763 35.6896L95.9238 30.2211Z" fill="#474747" mask="url(#path-13-inside-2_403_2694)"/>
<path fill-rule="evenodd" clip-rule="evenodd" d="M98.9335 29.9907L110.843 41.3989V60.0212H86.8434V41.3989L98.9335 29.9907ZM106.843 43.0144L98.9143 34.492L90.8434 43.03V55.3892H106.843V43.0144Z" fill="#474747"/>
<rect x="97.2195" y="47.2935" width="3.74775" height="10.9832" fill="#474747"/>
<path d="M101.838 106.784C101.838 110.374 98.9282 113.284 95.3384 113.284C91.7485 113.284 88.8384 110.374 88.8384 106.784C88.8384 103.194 91.7485 100.284 95.3384 100.284C98.9282 100.284 101.838 103.194 101.838 106.784Z" fill="#196EC1" stroke="#196EC1"/>
<g style="mix-blend-mode:darken">
<line x1="99.52" x2="99.52" y2="133.323" stroke="#DD4949" stroke-width="2" stroke-dasharray="2 2"/>
</g>
<line x1="31.8584" y1="95.6616" x2="165.182" y2="95.6616" stroke="#DD4949" stroke-width="2" stroke-dasharray="2 2"/>
<g style="mix-blend-mode:darken">
<line x1="31.8584" y1="106.662" x2="165.182" y2="106.662" stroke="#DD4949" stroke-width="2" stroke-dasharray="2 2"/>
</g>
</g>
<defs>
<clipPath id="clip0_403_2694">
<rect width="61" height="133.323" fill="white"/>
</clipPath>
<clipPath id="clip1_403_2694">
<rect width="61" height="133.323" fill="white" transform="translate(69)"/>
</clipPath>
</defs>
</svg>
