<svg width="148" height="96" viewBox="0 -14 148 96" fill="none" xmlns="http://www.w3.org/2000/svg">
<ellipse cx="72.5659" cy="42.0273" rx="7.73684" ry="12.2143" fill="#474747"/>
<mask id="mask0_320_1735" style="mask-type:alpha" maskUnits="userSpaceOnUse" x="64" y="29" width="17" height="26">
<ellipse cx="72.5659" cy="42.0273" rx="7.73684" ry="12.2143" fill="#474747"/>
</mask>
<g mask="url(#mask0_320_1735)">
<rect x="61.1107" y="29.4732" width="22.9105" height="11.7613" fill="#0A427A" stroke="white" stroke-width="0.3"/>
</g>
<ellipse cx="72.566" cy="22.0985" rx="6.44737" ry="6.42857" fill="#474747"/>
<rect width="16.7628" height="6.42872" rx="3.21436" transform="matrix(0.99598 0.0895713 -0.0900917 0.995933 70.5662 29.813)" fill="#474747"/>
<mask id="mask1_320_1735" style="mask-type:alpha" maskUnits="userSpaceOnUse" x="70" y="30" width="17" height="8">
<rect width="16.7628" height="6.42872" rx="3.21436" transform="matrix(0.99598 0.0895713 -0.0900917 0.995933 70.5662 29.813)" fill="#474747"/>
</mask>
<g mask="url(#mask1_320_1735)">
<rect x="0.133574" y="0.164714" width="15.1732" height="11.2718" transform="matrix(0.994626 0.10353 -0.10413 0.994564 64.202 25.1731)" fill="#0A427A" stroke="white" stroke-width="0.3"/>
</g>
<path fill-rule="evenodd" clip-rule="evenodd" d="M10.0672 34.729C4.91256 34.729 0.733887 38.4508 0.733887 43.042V61.1303C0.733887 65.7215 4.91256 69.4433 10.0672 69.4433H14.4762C14.4614 69.1427 14.4539 68.8402 14.4539 68.5357C14.4539 58.9497 21.9128 51.1786 31.1139 51.1786C40.3149 51.1786 47.7739 58.9497 47.7739 68.5357C47.7739 68.8402 47.7663 69.1427 47.7515 69.4433H96.7962C96.7814 69.1427 96.7739 68.8402 96.7739 68.5357C96.7739 58.9497 104.233 51.1786 113.434 51.1786C122.635 51.1786 130.094 58.9497 130.094 68.5357C130.094 68.8402 130.086 69.1427 130.071 69.4433H138.401C143.555 69.4433 147.734 65.7215 147.734 61.1303V43.042C147.734 38.4508 143.555 34.729 138.401 34.729H10.0672Z" fill="#0080FF"/>
<path fill-rule="evenodd" clip-rule="evenodd" d="M31.1139 81.0714C38.0574 81.0714 43.6862 75.459 43.6862 68.5357C43.6862 61.6124 38.0574 56 31.1139 56C24.1703 56 18.5415 61.6124 18.5415 68.5357C18.5415 75.459 24.1703 81.0714 31.1139 81.0714ZM113.434 81.0714C120.377 81.0714 126.006 75.459 126.006 68.5357C126.006 61.6124 120.377 56 113.434 56C106.49 56 100.861 61.6124 100.861 68.5357C100.861 75.459 106.49 81.0714 113.434 81.0714Z" fill="#474747"/>
<path d="M33.6479 1.94336C28.2888 1.94336 23.9443 5.69749 23.9443 10.3285V39.6763C23.9443 44.3072 28.2888 48.0614 33.6479 48.0614H47.8004C42.462 48.0405 38.1418 44.2944 38.1418 39.6764V14.891C38.1418 13.7333 39.2279 12.7947 40.5677 12.7947H79.9553C80.5943 12.7947 81.2075 13.0126 81.6617 13.401L99.1108 33.7164C105.262 38.9764 100.97 48.0288 92.3319 48.0614H110.932C119.744 48.0614 123.994 38.73 117.545 33.5402L87.3861 4.19239C85.5901 2.74699 83.227 1.94336 80.7728 1.94336H33.6479Z" fill="#0080FF"/>
</svg>
