<svg width="148" height="96" viewBox="0 -14 148 96" fill="none" xmlns="http://www.w3.org/2000/svg">
<ellipse cx="50.5556" cy="42.0273" rx="7.73684" ry="12.2143" fill="#474747"/>
<ellipse cx="50.5555" cy="22.0985" rx="6.44737" ry="6.42857" fill="#474747"/>
<path d="M56.405 22.833C56.6708 23.5677 57.3352 23.5677 57.6009 22.833L58.1989 21.1799C58.4647 20.4452 58.1325 19.5269 57.6009 19.5269H56.405C55.8735 19.5269 55.5413 20.4452 55.807 21.1799L56.405 22.833Z" fill="#D3D2D2"/>
<path d="M43.5102 22.833C43.776 23.5677 44.4404 23.5677 44.7062 22.833L45.3041 21.1799C45.5699 20.4452 45.2377 19.5269 44.7062 19.5269H43.5102C42.9787 19.5269 42.6465 20.4452 42.9123 21.1799L43.5102 22.833Z" fill="#D3D2D2"/>
<path fill-rule="evenodd" clip-rule="evenodd" d="M51.8251 23.3843C51.7178 23.9864 51.1902 24.4436 50.5555 24.4436C49.9208 24.4436 49.3932 23.9864 49.286 23.3843C48.2311 23.8251 47.9766 24.8024 47.9766 25.3409C47.9766 25.7293 48.419 25.7293 50.5549 25.7293H50.5555H50.5562C52.6921 25.7293 53.1345 25.7293 53.1345 25.3409C53.1345 24.8024 52.88 23.8251 51.8251 23.3843Z" fill="#D3D2D2"/>
<ellipse cx="71.8319" cy="42.0273" rx="7.73684" ry="12.2143" fill="#474747"/>
<mask id="mask0_313_1450" style="mask-type:alpha" maskUnits="userSpaceOnUse" x="64" y="29" width="16" height="26">
<ellipse cx="71.8319" cy="42.0273" rx="7.73684" ry="12.2143" fill="#474747"/>
</mask>
<g mask="url(#mask0_313_1450)">
<rect x="60.3767" y="29.4732" width="22.9105" height="11.7613" fill="#0A427A" stroke="white" stroke-width="0.3"/>
</g>
<ellipse cx="71.8319" cy="22.0985" rx="6.44737" ry="6.42857" fill="#474747"/>
<rect width="16.7628" height="6.42872" rx="3.21436" transform="matrix(0.99598 0.0895713 -0.0900917 0.995933 69.8322 29.813)" fill="#474747"/>
<mask id="mask1_313_1450" style="mask-type:alpha" maskUnits="userSpaceOnUse" x="69" y="30" width="18" height="8">
<rect width="16.7628" height="6.42872" rx="3.21436" transform="matrix(0.99598 0.0895713 -0.0900917 0.995933 69.8322 29.813)" fill="#474747"/>
</mask>
<g mask="url(#mask1_313_1450)">
<rect x="0.133574" y="0.164714" width="15.1732" height="11.2718" transform="matrix(0.994626 0.10353 -0.10413 0.994564 63.4677 25.1731)" fill="#0A427A" stroke="white" stroke-width="0.3"/>
</g>
<path fill-rule="evenodd" clip-rule="evenodd" d="M9.33333 34.729C4.17868 34.729 0 38.4508 0 43.042V61.1303C0 65.7215 4.17868 69.4433 9.33333 69.4433H13.7424C13.7275 69.1427 13.72 68.8402 13.72 68.5357C13.72 58.9497 21.1789 51.1786 30.38 51.1786C39.581 51.1786 47.04 58.9497 47.04 68.5357C47.04 68.8402 47.0325 69.1427 47.0176 69.4433H96.0624C96.0475 69.1427 96.04 68.8402 96.04 68.5357C96.04 58.9497 103.499 51.1786 112.7 51.1786C121.901 51.1786 129.36 58.9497 129.36 68.5357C129.36 68.8402 129.352 69.1427 129.338 69.4433H137.667C142.821 69.4433 147 65.7215 147 61.1303V43.042C147 38.4508 142.821 34.729 137.667 34.729H9.33333Z" fill="#0080FF"/>
<path fill-rule="evenodd" clip-rule="evenodd" d="M30.38 81.0714C37.3235 81.0714 42.9524 75.459 42.9524 68.5357C42.9524 61.6124 37.3235 56 30.38 56C23.4365 56 17.8076 61.6124 17.8076 68.5357C17.8076 75.459 23.4365 81.0714 30.38 81.0714ZM112.7 81.0714C119.643 81.0714 125.272 75.459 125.272 68.5357C125.272 61.6124 119.643 56 112.7 56C105.756 56 100.127 61.6124 100.127 68.5357C100.127 75.459 105.756 81.0714 112.7 81.0714Z" fill="#474747"/>
<path d="M32.9141 1.94336C27.555 1.94336 23.2106 5.69749 23.2106 10.3285V39.6763C23.2106 44.3072 27.555 48.0614 32.9141 48.0614H47.0667C41.7282 48.0405 37.408 44.2944 37.408 39.6764V14.891C37.408 13.7333 38.4941 12.7947 39.8339 12.7947H79.2215C79.8605 12.7947 80.4737 13.0126 80.9279 13.401L98.377 33.7164C104.528 38.9764 100.236 48.0288 91.5982 48.0614H110.198C119.01 48.0614 123.26 38.73 116.811 33.5402L86.6523 4.19239C84.8564 2.74699 82.4933 1.94336 80.039 1.94336H32.9141Z" fill="#0080FF"/>
</svg>
