<svg width="148" height="96" viewBox="0 0 148 96" fill="none" xmlns="http://www.w3.org/2000/svg">
<ellipse cx="71.8319" cy="56.0273" rx="7.73684" ry="12.2143" fill="#474747"/>
<mask id="mask0_320_1976" style="mask-type:alpha" maskUnits="userSpaceOnUse" x="64" y="43" width="16" height="26">
<ellipse cx="71.8319" cy="56.0273" rx="7.73684" ry="12.2143" fill="#474747"/>
</mask>
<g mask="url(#mask0_320_1976)">
<rect x="60.3767" y="43.4732" width="22.9105" height="11.7613" fill="#0A427A" stroke="white" stroke-width="0.3"/>
</g>
<ellipse cx="71.8319" cy="36.0985" rx="6.44737" ry="6.42857" fill="#474747"/>
<rect width="16.7628" height="6.42872" rx="3.21436" transform="matrix(0.99598 0.0895713 -0.0900917 0.995933 69.8322 43.813)" fill="#474747"/>
<mask id="mask1_320_1976" style="mask-type:alpha" maskUnits="userSpaceOnUse" x="69" y="44" width="18" height="8">
<rect width="16.7628" height="6.42872" rx="3.21436" transform="matrix(0.99598 0.0895713 -0.0900917 0.995933 69.8322 43.813)" fill="#474747"/>
</mask>
<g mask="url(#mask1_320_1976)">
<rect x="0.133574" y="0.164714" width="15.1732" height="11.2718" transform="matrix(0.994626 0.10353 -0.10413 0.994564 63.4677 39.1731)" fill="#0A427A" stroke="white" stroke-width="0.3"/>
</g>
<path fill-rule="evenodd" clip-rule="evenodd" d="M30.38 93.1432C37.3235 93.1432 42.9524 87.5308 42.9524 80.6075C42.9524 73.6842 37.3235 68.0718 30.38 68.0718C23.4365 68.0718 17.8076 73.6842 17.8076 80.6075C17.8076 87.5308 23.4365 93.1432 30.38 93.1432ZM112.7 93.1432C119.643 93.1432 125.272 87.5308 125.272 80.6075C125.272 73.6842 119.643 68.0718 112.7 68.0718C105.756 68.0718 100.127 73.6842 100.127 80.6075C100.127 87.5308 105.756 93.1432 112.7 93.1432Z" fill="#474747"/>
<path fill-rule="evenodd" clip-rule="evenodd" d="M142.06 15.9273C144.066 14.3371 145.332 12.0111 145.332 9.41978C145.332 4.62674 141.002 0.741211 135.661 0.741211C130.32 0.741211 125.99 4.62674 125.99 9.41978C125.99 12.4371 127.706 15.0947 130.309 16.6498C128.831 18.0325 127.924 19.9001 127.924 21.9555C127.924 24.8211 129.687 27.3217 132.304 28.652C131.975 29.2566 131.792 29.9276 131.792 30.6341C131.792 32.8095 133.526 34.6483 135.908 35.2487C135.749 35.6067 135.661 36.0029 135.661 36.4198C135.661 37.0156 135.841 37.5693 136.151 38.0294C135.846 38.3703 135.661 38.8199 135.661 39.3126C135.661 40.3778 136.527 41.2412 137.595 41.2412C138.663 41.2412 139.529 40.3778 139.529 39.3126C139.529 39.258 139.527 39.2039 139.522 39.1504C140.653 38.7552 141.463 37.6819 141.463 36.4198C141.463 35.7443 141.231 35.1229 140.842 34.6305C142.384 33.7639 143.398 32.2973 143.398 30.6341C143.398 29.5788 142.99 28.6028 142.298 27.8088C144.155 26.3941 145.332 24.2966 145.332 21.9555C145.332 19.516 144.054 17.3409 142.06 15.9273Z" fill="#A1A1A1"/>
<path fill-rule="evenodd" clip-rule="evenodd" d="M79.0191 14.2412L72.7004 20.5265L83.3474 18.7143L87.7325 28.5563L89.5785 19.3377L116.811 45.8381C117.193 46.1453 117.537 46.4672 117.846 46.8007H137.667C138.247 46.8007 138.816 46.8479 139.367 46.9384L139.352 50.281L125.93 54.1309L139.312 59.0754L139.247 73.3051L147 62.912V73.202C147 77.7931 142.821 81.515 137.667 81.515H129.338C129.352 81.2144 129.36 80.9118 129.36 80.6074C129.36 71.0213 121.901 63.2503 112.7 63.2503C103.499 63.2503 96.04 71.0213 96.04 80.6074C96.04 80.9118 96.0475 81.2144 96.0624 81.515H47.0176C47.0325 81.2144 47.04 80.9118 47.04 80.6074C47.04 71.0213 39.581 63.2503 30.38 63.2503C21.1789 63.2503 13.72 71.0213 13.72 80.6074C13.72 80.9118 13.7275 81.2144 13.7424 81.515H9.33333C4.17868 81.515 0 77.7931 0 73.202V55.1136C0 50.5225 4.17868 46.8007 9.33333 46.8007H23.2105V22.6263C23.2105 17.9953 27.555 14.2412 32.9141 14.2412H79.0191ZM99.1951 46.8007H37.408V27.1889C37.408 26.0311 38.4941 25.0926 39.8339 25.0926H79.2215C79.8605 25.0926 80.4737 25.3105 80.9279 25.6989L98.377 46.0142C98.6738 46.268 98.9463 46.5307 99.1951 46.8007Z" fill="#0080FF"/>
</svg>
