<svg width="67" height="86" viewBox="0 0 67 86" fill="none" xmlns="http://www.w3.org/2000/svg">
<g clip-path="url(#clip0_320_4559)">
<path fill-rule="evenodd" clip-rule="evenodd" d="M15.8892 52.3647C13.7721 52.3647 12.0559 54.081 12.0559 56.1981V81.1893C12.0559 83.3064 13.7721 85.0226 15.8892 85.0226C18.0063 85.0226 19.7226 83.3064 19.7226 81.1893V56.1981C19.7226 54.081 18.0063 52.3647 15.8892 52.3647ZM31.2226 52.3647C29.1055 52.3647 27.3892 54.081 27.3892 56.1981V81.1893C27.3892 83.3064 29.1055 85.0226 31.2226 85.0226C33.3397 85.0226 35.0559 83.3064 35.0559 81.1893V56.1981C35.0559 54.081 33.3397 52.3647 31.2226 52.3647Z" fill="#474747"/>
<path fill-rule="evenodd" clip-rule="evenodd" d="M12.056 51.1808L9.48257 57.9002C8.72516 59.8779 6.50891 60.8646 4.53243 60.1042C2.55596 59.3437 1.56771 57.1241 2.32512 55.1465L9.03524 37.626C9.58403 36.1931 10.7455 35.1763 12.1062 34.7599C13.8715 33.9882 24.6186 32.9961 35.056 34.8076V61.9699H12.056V51.1808Z" fill="#474747"/>
<mask id="path-3-inside-1_320_4559" fill="white">
<path d="M9.9303 33.7967C10.0772 33.4075 10.4521 33.1499 10.8682 33.1499C19.7031 33.1499 24.5029 33.1499 34.1281 33.1499C34.6695 33.1499 35.1127 33.5809 35.1277 34.1221L35.4745 46.5972V61.9656H11.7078V46.5972L5.92285 44.4126L9.9303 33.7967Z"/>
</mask>
<path d="M9.9303 33.7967C10.0772 33.4075 10.4521 33.1499 10.8682 33.1499C19.7031 33.1499 24.5029 33.1499 34.1281 33.1499C34.6695 33.1499 35.1127 33.5809 35.1277 34.1221L35.4745 46.5972V61.9656H11.7078V46.5972L5.92285 44.4126L9.9303 33.7967Z" fill="#0A427A"/>
<path d="M35.4745 61.9656V62.2656H35.7745V61.9656H35.4745ZM11.7078 61.9656H11.4078V62.2656H11.7078V61.9656ZM5.92285 44.4126L5.64218 44.3066L5.53625 44.5873L5.81687 44.6933L5.92285 44.4126ZM11.7078 46.5972H12.0078V46.3898L11.8138 46.3166L11.7078 46.5972ZM35.4745 46.5972H35.7746L35.7744 46.5889L35.4745 46.5972ZM35.1277 34.1221L34.8278 34.1305L35.1277 34.1221ZM10.8682 33.1499V33.4499V33.1499ZM9.9303 33.7967L10.211 33.9027L9.9303 33.7967ZM10.8682 33.4499C19.7031 33.4499 24.5029 33.4499 34.1281 33.4499V32.8499C24.5029 32.8499 19.7031 32.8499 10.8682 32.8499L10.8682 33.4499ZM35.4745 61.6656H11.7078V62.2656H35.4745V61.6656ZM6.20352 44.5185L10.211 33.9027L9.64963 33.6908L5.64218 44.3066L6.20352 44.5185ZM12.0078 61.9656V46.5972H11.4078V61.9656H12.0078ZM11.8138 46.3166L6.02884 44.1319L5.81687 44.6933L11.6018 46.8779L11.8138 46.3166ZM35.1745 46.5972V61.9656H35.7745V46.5972H35.1745ZM34.8278 34.1305L35.1746 46.6056L35.7744 46.5889L35.4276 34.1138L34.8278 34.1305ZM34.1281 33.4499C34.5071 33.4499 34.8173 33.7516 34.8278 34.1305L35.4276 34.1138C35.408 33.4101 34.832 32.8499 34.1281 32.8499V33.4499ZM10.8682 32.8499C10.3281 32.8499 9.84093 33.184 9.64963 33.6908L10.211 33.9027C10.3135 33.631 10.5761 33.4499 10.8682 33.4499L10.8682 32.8499Z" fill="white" mask="url(#path-3-inside-1_320_4559)"/>
<path d="M17.0806 50.4395V43.7158H18.3264V49.3829H21.8339V50.4395H17.0806Z" fill="#A1A1A1"/>
<path d="M23.105 50.4395V43.7158H26.2483C27.0533 43.7158 27.6666 43.8759 28.0883 44.1961C28.51 44.5099 28.7208 44.9325 28.7208 45.464C28.7208 45.8226 28.6377 46.1299 28.4716 46.3861C28.3055 46.6358 28.0819 46.8311 27.8008 46.972C27.5261 47.1065 27.2258 47.1737 26.9 47.1737L27.0725 46.8279C27.4494 46.8279 27.788 46.8984 28.0883 47.0392C28.3886 47.1737 28.625 47.3722 28.7975 47.6348C28.9764 47.8973 29.0658 48.2239 29.0658 48.6145C29.0658 49.1908 28.8454 49.6391 28.4045 49.9592C27.9637 50.2794 27.3089 50.4395 26.44 50.4395H23.105ZM24.3508 49.4598H26.3633C26.8297 49.4598 27.1875 49.3829 27.4366 49.2292C27.6858 49.0756 27.8104 48.829 27.8104 48.4896C27.8104 48.1567 27.6858 47.9133 27.4366 47.7596C27.1875 47.5995 26.8297 47.5195 26.3633 47.5195H24.255V46.5494H26.1141C26.5486 46.5494 26.8808 46.4725 27.1108 46.3188C27.3472 46.1652 27.4654 45.9346 27.4654 45.6273C27.4654 45.3135 27.3472 45.0798 27.1108 44.9261C26.8808 44.7724 26.5486 44.6956 26.1141 44.6956H24.3508V49.4598Z" fill="#A1A1A1"/>
<path d="M31.7275 50.5356C31.2994 50.5356 30.9033 50.4523 30.5392 50.2858C30.1814 50.1193 29.8875 49.8792 29.6575 49.5654L30.3667 48.7106C30.5519 48.9667 30.7532 49.1588 30.9704 49.2869C31.194 49.4149 31.4368 49.479 31.6987 49.479C32.3951 49.479 32.7433 49.066 32.7433 48.2399V44.7628H30.3571V43.7158H33.9892V48.1727C33.9892 48.9667 33.7943 49.559 33.4046 49.9496C33.0212 50.3403 32.4622 50.5356 31.7275 50.5356Z" fill="#A1A1A1"/>
<path d="M19.7148 43.9717C22.7401 45.3256 24.2109 45.3671 27.3815 43.9717L25.9733 55.1721C24.0978 56.4152 23.0418 56.3736 21.0448 55.1721L19.7148 43.9717Z" fill="white"/>
<path d="M23.6343 43.1368C25.1665 39.6252 20.8357 38.4948 24.2238 36.2234C21.6381 38.8687 26.4809 39.3841 23.6343 43.1368Z" fill="white"/>
<path d="M23.5086 43.9935C22.1723 43.1939 24.8198 41.7978 23.1039 40.8918C24.3147 41.8527 21.6702 43.4107 23.5086 43.9935Z" fill="white"/>
<ellipse cx="23.556" cy="21.6277" rx="9.58333" ry="9.60526" fill="#474747"/>
<ellipse cx="24.0635" cy="23.923" rx="1.12433" ry="1.60072" fill="white"/>
<path d="M48.4985 19.3486L43.1229 21.5719L43.1229 24.9765C42.9881 24.9325 42.8439 24.9087 42.694 24.9087C41.9465 24.9087 41.3406 25.5003 41.3406 26.2301C41.3406 26.9599 41.9465 27.5515 42.694 27.5515C43.4415 27.5515 44.0474 26.9599 44.0474 26.2301C44.0474 24.8746 43.9928 23.4984 43.9928 22.1345L47.6286 20.6308V23.6708C47.481 23.6168 47.3211 23.5873 47.1541 23.5873C46.4067 23.5873 45.8007 24.1789 45.8007 24.9087C45.8007 25.6385 46.4067 26.2301 47.1541 26.2301C47.8236 26.2301 48.4848 25.7888 48.4883 25.1323C48.4985 23.2216 48.4985 21.2437 48.4985 19.3486Z" fill="#474747"/>
<path d="M40.6986 16.3069L41.5585 20.3926C41.6056 20.5268 41.6311 20.6709 41.6311 20.8207C41.6311 21.5505 41.0252 22.1421 40.2777 22.1421C39.5303 22.1421 38.9243 21.5505 38.9243 20.8207C38.9243 20.0909 39.5303 19.4993 40.2777 19.4993C40.3485 19.4993 40.4179 19.5046 40.4857 19.5148L39.3483 14.1104L40.2004 13.9395L40.227 14.0658C40.8291 15.0902 41.3297 15.7528 41.7138 16.169C42.1155 16.6041 42.361 16.7383 42.4363 16.7634L42.1551 17.5671C41.8683 17.4715 41.5015 17.2075 41.0676 16.7376C40.9516 16.6118 40.8285 16.4689 40.6986 16.3069Z" fill="#474747"/>
<path d="M34.2638 23.5009L38.203 22.5647" stroke="#474747" stroke-width="0.4"/>
<path d="M34.2773 24.6265L38.4873 25.0743" stroke="#474747" stroke-width="0.4"/>
<path fill-rule="evenodd" clip-rule="evenodd" d="M38.9245 46.5977L38.9245 48.4023C38.9245 51.5784 36.3631 54.1572 33.1943 54.1714L25.4726 54.2059C23.3754 54.2153 21.6681 52.5181 21.6602 50.4161C21.6523 48.3096 23.3539 46.5977 25.4556 46.5977L32.0588 46.5977C34.6015 46.5977 38.9076 46.5977 38.9245 46.5977Z" fill="#474747"/>
<g clip-path="url(#clip1_320_4559)">
<path fill-rule="evenodd" clip-rule="evenodd" d="M38.9245 41.3042L38.9242 46.6259C35.1647 46.6259 34.7257 46.6259 31.2578 46.6259L31.2582 36.8768C31.2578 35.4887 32.4543 33.7549 33.5329 33.7549C35.1378 33.7549 38.9246 37.5437 38.9245 41.3042Z" fill="#0A427A"/>
<line x1="29.4189" y1="46.4472" x2="48.0834" y2="46.4472" stroke="white" stroke-width="0.3"/>
</g>
<line x1="29.1897" y1="58.333" x2="68.6349" y2="58.333" stroke="#7BB2E6"/>
<line x1="25.1863" y1="43.9375" x2="71.572" y2="43.9375" stroke="#7BB2E6"/>
<line x1="40.5969" y1="13.333" x2="68.6351" y2="13.333" stroke="#7BB2E6"/>
</g>
<defs>
<clipPath id="clip0_320_4559">
<rect width="67" height="85" fill="white" transform="translate(0 0.0185547)"/>
</clipPath>
<clipPath id="clip1_320_4559">
<rect width="7.66667" height="13.0632" fill="white" transform="translate(31.2578 33.5342)"/>
</clipPath>
</defs>
</svg>
