<svg width="67" height="86" viewBox="0 0 67 86" fill="none" xmlns="http://www.w3.org/2000/svg">
<rect x="11.5623" y="50.5713" width="7.66667" height="34.4474" rx="3.83333" fill="#474747"/>
<rect x="26.8958" y="50.5713" width="7.66666" height="34.4474" rx="3.83333" fill="#474747"/>
<path fill-rule="evenodd" clip-rule="evenodd" d="M32.3912 31.7603C30.4147 32.5624 29.4026 34.8379 30.1306 36.8429L37.2901 56.5611C38.0181 58.5661 40.2105 59.5412 42.187 58.7391C44.1634 57.937 45.1755 55.6614 44.4475 53.6564L37.288 33.9382C36.56 31.9333 34.3676 30.9582 32.3912 31.7603ZM13.437 31.7603C11.4605 30.9582 9.26811 31.9333 8.54013 33.9382L1.3806 53.6564C0.652616 55.6614 1.66472 57.937 3.64119 58.7391C5.61767 59.5412 7.81007 58.5661 8.53805 56.5611L15.6976 36.8429C16.4256 34.8379 15.4135 32.5624 13.437 31.7603Z" fill="#474747"/>
<ellipse cx="23.0623" cy="18.1501" rx="9.58333" ry="10.1316" fill="#474747"/>
<path d="M9.4251 31.0074C9.55634 30.5912 9.94355 30.3081 10.38 30.3081C19.3563 30.3081 25.8891 30.3081 35.7464 30.3081C36.1815 30.3081 36.5688 30.5894 36.7011 31.0039L40.3123 42.3127L34.5623 44.4923V60.7028H11.5623V44.4923L5.81226 42.466L9.4251 31.0074Z" fill="#474747"/>
<path d="M11.485 51.7454C11.5288 51.2276 11.9618 50.8296 12.4815 50.8296H33.6442C34.1621 50.8296 34.5944 51.225 34.6403 51.7409L36.153 68.7324C36.2051 69.3173 35.7442 69.821 35.157 69.821H11.046C10.4606 69.821 10.0003 69.3203 10.0496 68.7369L11.485 51.7454Z" fill="#474747"/>
<path d="M15.8958 6.25953C15.8958 6.04855 16.0281 5.8635 16.2205 5.79657C18.7658 4.9113 20.814 4.47008 22.8977 4.46585C24.9829 4.46162 27.1377 4.89498 29.896 5.80592C30.0929 5.87098 30.2291 6.0583 30.2291 6.27231V11.3799C27.5532 10.5204 25.3532 10.0934 23.1212 10.1006C20.8846 10.1077 18.6459 10.5506 15.8958 11.3912V6.25953Z" fill="white" stroke="#474747"/>
<line x1="27.1897" y1="8.35938" x2="66.635" y2="8.35938" stroke="#7BB2E6"/>
<line x1="27.1897" y1="63.3594" x2="66.635" y2="63.3594" stroke="#7BB2E6"/>
</svg>
