<svg width="67" height="86" viewBox="0 0 67 86" fill="none" xmlns="http://www.w3.org/2000/svg">
<g clip-path="url(#clip0_320_4555)">
<g clip-path="url(#clip1_320_4555)">
<rect x="11.8921" y="52.3608" width="7.625" height="32.6579" rx="3.8125" fill="#474747"/>
<rect x="27.1421" y="52.3608" width="7.625" height="32.6579" rx="3.8125" fill="#474747"/>
<path fill-rule="evenodd" clip-rule="evenodd" d="M13.7564 34.5271C11.7906 33.7667 9.58889 34.7469 8.83864 36.7166L1.81298 55.1612C1.06273 57.1308 2.04807 59.344 4.01381 60.1044C5.97954 60.8649 8.18128 59.8846 8.93153 57.915L15.9572 39.4704C16.7074 37.5007 15.7221 35.2876 13.7564 34.5271ZM32.6075 34.5271C30.6418 35.2876 29.6564 37.5007 30.4067 39.4704L37.4324 57.915C38.1826 59.8846 40.3843 60.8649 42.3501 60.1044C44.3158 59.344 45.3012 57.1308 44.5509 55.1612L37.5252 36.7166C36.775 34.7469 34.5733 33.7667 32.6075 34.5271Z" fill="#474747"/>
<ellipse cx="23.3296" cy="21.6238" rx="9.53125" ry="9.60526" fill="#474747"/>
<path fill-rule="evenodd" clip-rule="evenodd" d="M25.2064 23.8833C25.0478 24.783 24.2679 25.4661 23.3296 25.4661C22.3913 25.4661 21.6114 24.783 21.4528 23.8833C19.8933 24.5419 19.5171 26.0021 19.5171 26.8068C19.5171 27.3871 20.1711 27.3871 23.3286 27.3871H23.3296H23.3305C26.4881 27.3871 27.1421 27.3871 27.1421 26.8068C27.1421 26.0021 26.7659 24.5419 25.2064 23.8833Z" fill="#D3D2D2"/>
<path d="M31.9769 22.7216C32.3697 23.8193 33.3519 23.8193 33.7448 22.7216L34.6288 20.2517C35.0217 19.1539 34.5306 17.7817 33.7448 17.7817H31.9769C31.1911 17.7817 30.7 19.1539 31.0929 20.2517L31.9769 22.7216Z" fill="#D3D2D2"/>
<path d="M12.9144 22.7216C13.3072 23.8193 14.2894 23.8193 14.6823 22.7216L15.5663 20.2517C15.9592 19.1539 15.4681 17.7817 14.6823 17.7817H12.9144C12.1286 17.7817 11.6375 19.1539 12.0304 20.2517L12.9144 22.7216Z" fill="#D3D2D2"/>
<path d="M9.75895 33.8359C9.89438 33.4264 10.2783 33.1499 10.7096 33.1499C19.6426 33.1499 26.1417 33.1499 35.9516 33.1499C36.3815 33.1499 36.7654 33.4246 36.9019 33.8323L40.4858 44.5309L34.7671 46.5972V61.9657H11.8921V46.5972L6.17334 44.6762L9.75895 33.8359Z" fill="#474747"/>
<path fill-rule="evenodd" clip-rule="evenodd" d="M42.2147 62.084C42.3833 59.8477 44.1426 58.124 46.2567 58.124H52.9618C55.0758 58.124 56.8351 59.8477 57.0037 62.084L58.4082 80.7156H55.3993L54.1037 63.8065C54.0464 62.7261 53.3427 61.887 52.4937 61.887H46.7247C45.8758 61.887 45.172 62.7261 45.1147 63.8065L43.4894 85.0188H40.4858L42.2147 62.084Z" fill="#474747"/>
<rect x="42.6326" y="65.6548" width="13.9534" height="3.22737" fill="#474747"/>
<ellipse cx="57.1226" cy="82.3291" rx="2.68335" ry="2.68947" fill="#0080FF"/>
</g>
<line x1="29.1897" y1="22.333" x2="68.6349" y2="22.333" stroke="#7BB2E6"/>
<path d="M48.5969 60.333H76.6351" stroke="#7BB2E6"/>
</g>
<defs>
<clipPath id="clip0_320_4555">
<rect width="67" height="85" fill="white" transform="translate(0 0.0185547)"/>
</clipPath>
<clipPath id="clip1_320_4555">
<rect width="61" height="73" fill="white" transform="translate(0.45459 12.0186)"/>
</clipPath>
</defs>
</svg>
