<svg width="67" height="86" viewBox="0 0 67 86" fill="none" xmlns="http://www.w3.org/2000/svg">
<g clip-path="url(#clip0_403_3028)">
<path fill-rule="evenodd" clip-rule="evenodd" d="M15.8893 52.3647C13.7722 52.3647 12.056 54.081 12.056 56.1981V81.1893C12.056 83.3064 13.7722 85.0226 15.8893 85.0226C18.0064 85.0226 19.7226 83.3064 19.7226 81.1893V56.1981C19.7226 54.081 18.0064 52.3647 15.8893 52.3647ZM31.2226 52.3647C29.1055 52.3647 27.3893 54.081 27.3893 56.1981V81.1893C27.3893 83.3064 29.1055 85.0226 31.2226 85.0226C33.3397 85.0226 35.056 83.3064 35.056 81.1893V56.1981C35.056 54.081 33.3397 52.3647 31.2226 52.3647Z" fill="#474747"/>
<path fill-rule="evenodd" clip-rule="evenodd" d="M12.056 51.1809L9.48251 57.9004C8.7251 59.878 6.50885 60.8647 4.53237 60.1043C2.5559 59.3439 1.56765 57.1242 2.32506 55.1466L9.03517 37.6261C9.58397 36.1932 10.7455 35.1764 12.1062 34.76C13.8714 33.9883 24.6185 32.9962 35.056 34.8078V61.97H12.056V51.1809Z" fill="#474747"/>
<path d="M35.8747 46.6261V61.7159H11.0463V46.5975V46.4189L10.8774 46.361L4.75754 44.2628L8.82215 34.4874C9.08973 33.8438 9.78097 33.4001 10.5693 33.4001H34.5088C35.2278 33.4001 35.902 33.7325 36.5195 34.2983C37.1378 34.8648 37.6839 35.652 38.1378 36.523C39.0488 38.2708 39.5572 40.2924 39.5571 41.3957V46.3761H36.1247H35.8747V46.6261Z" fill="#0A427A" stroke="white" stroke-width="0.5"/>
<path d="M15.1639 50.4396V43.7159H16.4097V49.383H19.9172V50.4396H15.1639Z" fill="#A1A1A1"/>
<path d="M21.1883 50.4396V43.7159H24.3316C25.1366 43.7159 25.7499 43.876 26.1716 44.1962C26.5933 44.51 26.8041 44.9326 26.8041 45.4641C26.8041 45.8227 26.7211 46.1301 26.5549 46.3862C26.3888 46.6359 26.1652 46.8312 25.8841 46.9721C25.6094 47.1066 25.3091 47.1738 24.9833 47.1738L25.1558 46.828C25.5327 46.828 25.8713 46.8985 26.1716 47.0394C26.4719 47.1738 26.7083 47.3723 26.8808 47.6349C27.0597 47.8974 27.1491 48.224 27.1491 48.6146C27.1491 49.1909 26.9287 49.6392 26.4879 49.9594C26.047 50.2795 25.3922 50.4396 24.5233 50.4396H21.1883ZM22.4341 49.4599H24.4466C24.913 49.4599 25.2708 49.383 25.5199 49.2294C25.7691 49.0757 25.8937 48.8291 25.8937 48.4898C25.8937 48.1568 25.7691 47.9134 25.5199 47.7598C25.2708 47.5997 24.913 47.5196 24.4466 47.5196H22.3383V46.5495H24.1974C24.6319 46.5495 24.9641 46.4727 25.1941 46.319C25.4305 46.1653 25.5487 45.9348 25.5487 45.6274C25.5487 45.3136 25.4305 45.0799 25.1941 44.9262C24.9641 44.7725 24.6319 44.6957 24.1974 44.6957H22.4341V49.4599Z" fill="#A1A1A1"/>
<path d="M29.8108 50.5357C29.3828 50.5357 28.9866 50.4524 28.6225 50.2859C28.2647 50.1195 27.9708 49.8793 27.7408 49.5655L28.45 48.7107C28.6353 48.9668 28.8365 49.1589 29.0537 49.287C29.2773 49.4151 29.5201 49.4791 29.7821 49.4791C30.4784 49.4791 30.8266 49.0661 30.8266 48.24V44.7629H28.4404V43.7159H32.0725V48.1728C32.0725 48.9668 31.8776 49.5591 31.4879 49.9498C31.1046 50.3404 30.5455 50.5357 29.8108 50.5357Z" fill="#A1A1A1"/>
<path d="M19.7148 43.9719C22.7401 45.3259 24.2109 45.3674 27.3815 43.9719L25.9733 55.1724C24.0977 56.4154 23.0418 56.3739 21.0447 55.1724L19.7148 43.9719Z" fill="white"/>
<path d="M23.6341 43.1371C25.1664 39.6256 20.8355 38.4951 24.2236 36.2238C21.6379 38.8691 26.4807 39.3844 23.6341 43.1371Z" fill="white"/>
<path d="M23.5086 43.9936C22.1722 43.194 24.8197 41.7979 23.1038 40.892C24.3147 41.8528 21.6702 43.4108 23.5086 43.9936Z" fill="white"/>
<ellipse cx="23.556" cy="21.628" rx="9.58333" ry="9.60526" fill="#474747"/>
<ellipse cx="24.0634" cy="23.9232" rx="1.12433" ry="1.60072" fill="white"/>
<path d="M48.4987 19.3489L43.123 21.5722L43.1231 24.9767C42.9883 24.9328 42.8441 24.909 42.6942 24.909C41.9467 24.909 41.3407 25.5006 41.3407 26.2304C41.3407 26.9602 41.9467 27.5518 42.6942 27.5518C43.4416 27.5518 44.0476 26.9602 44.0476 26.2304C44.0476 24.8748 43.993 23.4986 43.9929 22.1348L47.6288 20.631V23.671C47.4811 23.6171 47.3212 23.5876 47.1543 23.5876C46.4068 23.5876 45.8009 24.1792 45.8009 24.909C45.8009 25.6388 46.4068 26.2304 47.1543 26.2304C47.8237 26.2304 48.4849 25.7891 48.4884 25.1325C48.4987 23.2218 48.4987 21.244 48.4987 19.3489Z" fill="#474747"/>
<path d="M40.6987 16.307L41.5586 20.3927C41.6057 20.5269 41.6312 20.671 41.6312 20.8208C41.6312 21.5506 41.0253 22.1422 40.2778 22.1422C39.5303 22.1422 38.9244 21.5506 38.9244 20.8208C38.9244 20.091 39.5303 19.4994 40.2778 19.4994C40.3485 19.4994 40.418 19.5047 40.4858 19.5149L39.3484 14.1105L40.2005 13.9396L40.227 14.0659C40.8291 15.0903 41.3297 15.7529 41.7139 16.1691C42.1156 16.6042 42.3611 16.7384 42.4363 16.7635L42.1552 17.5673C41.8684 17.4716 41.5015 17.2077 41.0677 16.7377C40.9516 16.6119 40.8286 16.469 40.6987 16.307Z" fill="#474747"/>
<path d="M34.2638 23.5007L38.203 22.5646" stroke="#474747" stroke-width="0.4"/>
<path d="M34.2773 24.6268L38.4873 25.0747" stroke="#474747" stroke-width="0.4"/>
<path fill-rule="evenodd" clip-rule="evenodd" d="M38.9245 46.5976L38.9245 48.4022C38.9245 51.5783 36.3631 54.1571 33.1942 54.1712L25.4725 54.2058C23.3753 54.2152 21.6681 52.518 21.6602 50.416C21.6522 48.3094 23.3538 46.5975 25.4556 46.5975L32.0588 46.5976C34.6015 46.5976 38.9076 46.5976 38.9245 46.5976Z" fill="#474747"/>
<line x1="29.1897" y1="58.333" x2="68.6349" y2="58.333" stroke="#7BB2E6"/>
<line x1="25.1863" y1="43.9375" x2="71.5721" y2="43.9375" stroke="#7BB2E6"/>
<line x1="40.5969" y1="13.333" x2="68.6351" y2="13.333" stroke="#7BB2E6"/>
</g>
<defs>
<clipPath id="clip0_403_3028">
<rect width="67" height="85" fill="white" transform="translate(0 0.0185547)"/>
</clipPath>
</defs>
</svg>
