<svg width="67" height="86" viewBox="0 0 67 86" fill="none" xmlns="http://www.w3.org/2000/svg">
<g clip-path="url(#clip0_320_4564)">
<rect x="11.5159" y="52.0083" width="7.66667" height="32.6579" rx="3.83333" fill="#474747"/>
<rect x="26.8491" y="52.0083" width="7.66667" height="32.6579" rx="3.83333" fill="#474747"/>
<path fill-rule="evenodd" clip-rule="evenodd" d="M8.94253 57.544L11.516 50.8246V61.6136H34.516V50.4693L37.2255 57.544C37.9829 59.5216 40.1992 60.5084 42.1756 59.7479C44.1521 58.9875 45.1404 56.7679 44.3829 54.7902L37.33 36.3746C36.6802 34.6781 34.957 33.7108 33.2324 33.9501C24.1732 32.4198 20.9999 32.4138 12.7823 33.932C11.1099 33.7687 9.46853 34.7283 8.83805 36.3746L1.78508 54.7902C1.02767 56.7679 2.01592 58.9875 3.99239 59.7479C5.96887 60.5084 8.18512 59.5216 8.94253 57.544Z" fill="#474747"/>
<ellipse cx="23.016" cy="21.2713" rx="9.58333" ry="9.60526" fill="#474747"/>
<path d="M19.2178 23.188C19.2178 25.109 21.1344 27.0301 23.0511 27.0301C24.9678 27.0301 26.8844 25.109 26.8844 23.188H19.2178Z" fill="white"/>
<mask id="path-6-inside-1_320_4564" fill="white">
<path d="M9.39026 33.4403C9.53719 33.0511 9.91117 32.7935 10.3272 32.7935C19.3372 32.7935 25.8805 32.7935 35.7755 32.7935C36.1909 32.7935 36.5652 33.0502 36.7127 33.4386L40.743 44.0562L34.9344 46.2408V61.6092H11.1678V46.2408L5.38281 44.0562L9.39026 33.4403Z"/>
</mask>
<path d="M9.39026 33.4403C9.53719 33.0511 9.91117 32.7935 10.3272 32.7935C19.3372 32.7935 25.8805 32.7935 35.7755 32.7935C36.1909 32.7935 36.5652 33.0502 36.7127 33.4386L40.743 44.0562L34.9344 46.2408V61.6092H11.1678V46.2408L5.38281 44.0562L9.39026 33.4403Z" fill="#0A427A"/>
<path d="M34.9344 61.6092V61.9092H35.2344V61.6092H34.9344ZM11.1678 61.6092H10.8678V61.9092H11.1678V61.6092ZM5.38281 44.0562L5.10214 43.9502L4.99621 44.2308L5.27683 44.3368L5.38281 44.0562ZM11.1678 46.2408H11.4678V46.0334L11.2738 45.9601L11.1678 46.2408ZM40.743 44.0562L40.8486 44.337L41.1303 44.231L41.0235 43.9497L40.743 44.0562ZM34.9344 46.2408L34.8288 45.96L34.6344 46.0331V46.2408H34.9344ZM36.7127 33.4386L36.4322 33.545L36.7127 33.4386ZM9.39026 33.4403L9.67093 33.5462L9.39026 33.4403ZM10.3272 33.0935C19.3372 33.0935 25.8805 33.0935 35.7755 33.0935V32.4935C25.8805 32.4935 19.3372 32.4935 10.3272 32.4935L10.3272 33.0935ZM34.9344 61.3092H11.1678V61.9092H34.9344V61.3092ZM5.66348 44.1621L9.67093 33.5462L9.10959 33.3343L5.10214 43.9502L5.66348 44.1621ZM11.4678 61.6092V46.2408H10.8678V61.6092H11.4678ZM11.2738 45.9601L5.4888 43.7755L5.27683 44.3368L11.0618 46.5214L11.2738 45.9601ZM36.4322 33.545L40.4625 44.1626L41.0235 43.9497L36.9931 33.3321L36.4322 33.545ZM40.6374 43.7754L34.8288 45.96L35.04 46.5216L40.8486 44.337L40.6374 43.7754ZM34.6344 46.2408V61.6092H35.2344V46.2408H34.6344ZM35.7755 33.0935C36.067 33.0935 36.3293 33.2739 36.4322 33.545L36.9931 33.3321C36.8012 32.8265 36.3147 32.4935 35.7755 32.4935V33.0935ZM10.3272 32.4935C9.78685 32.4935 9.30078 32.8279 9.10959 33.3343L9.67093 33.5462C9.77361 33.2742 10.0355 33.0935 10.3272 33.0935L10.3272 32.4935Z" fill="white" mask="url(#path-6-inside-1_320_4564)"/>
<path d="M14.624 50.0831V43.3594H15.8699V49.0265H19.3774V50.0831H14.624Z" fill="white"/>
<path d="M20.6484 50.0831V43.3594H23.7918C24.5968 43.3594 25.2101 43.5195 25.6318 43.8396C26.0534 44.1534 26.2643 44.576 26.2643 45.1075C26.2643 45.4661 26.1812 45.7735 26.0151 46.0296C25.849 46.2794 25.6254 46.4747 25.3443 46.6156C25.0695 46.75 24.7693 46.8173 24.4434 46.8173L24.6159 46.4715C24.9929 46.4715 25.3315 46.5419 25.6318 46.6828C25.932 46.8173 26.1684 47.0158 26.3409 47.2783C26.5198 47.5409 26.6093 47.8674 26.6093 48.2581C26.6093 48.8344 26.3888 49.2826 25.948 49.6028C25.5072 49.923 24.8523 50.0831 23.9834 50.0831H20.6484ZM21.8943 49.1033H23.9068C24.3731 49.1033 24.7309 49.0265 24.9801 48.8728C25.2293 48.7191 25.3538 48.4726 25.3538 48.1332C25.3538 47.8002 25.2293 47.5569 24.9801 47.4032C24.7309 47.2431 24.3731 47.1631 23.9068 47.1631H21.7984V46.1929H23.6576C24.092 46.1929 24.4243 46.1161 24.6543 45.9624C24.8906 45.8087 25.0088 45.5782 25.0088 45.2708C25.0088 44.9571 24.8906 44.7233 24.6543 44.5696C24.4243 44.416 24.092 44.3391 23.6576 44.3391H21.8943V49.1033Z" fill="white"/>
<path d="M29.271 50.1791C28.8429 50.1791 28.4468 50.0959 28.0826 49.9294C27.7248 49.7629 27.431 49.5228 27.201 49.209L27.9101 48.3541C28.0954 48.6103 28.2966 48.8024 28.5139 48.9304C28.7375 49.0585 28.9803 49.1225 29.2422 49.1225C29.9386 49.1225 30.2868 48.7095 30.2868 47.8835V44.4063H27.9005V43.3594H31.5326V47.8162C31.5326 48.6103 31.3378 49.2026 30.948 49.5932C30.5647 49.9838 30.0057 50.1791 29.271 50.1791Z" fill="white"/>
<line x1="32.1897" y1="59.333" x2="71.635" y2="59.333" stroke="#7BB2E6"/>
<line x1="28.1897" y1="25.333" x2="67.635" y2="25.333" stroke="#7BB2E6"/>
</g>
<defs>
<clipPath id="clip0_320_4564">
<rect width="67" height="85" fill="white" transform="translate(0 0.0185547)"/>
</clipPath>
</defs>
</svg>
