<svg width="16" height="16" viewBox="0 -4 18 16" fill="none" xmlns="http://www.w3.org/2000/svg">
<path d="M3.14534 12.8594C2.46498 12.8594 2.32258 12.6341 2.71814 12.1837L6.64603 7.74058L3.18094 3.81586C2.78538 3.36538 2.92778 3.14014 3.60814 3.14014H5.85096C6.20696 3.14014 6.47594 3.26356 6.65789 3.51039L8.49724 6.00963L10.3366 3.51039C10.5185 3.26356 10.7875 3.14014 11.1435 3.14014H13.3863C14.0746 3.14014 14.217 3.36538 13.8135 3.81586L10.3247 7.74058L14.2763 12.1837C14.6798 12.6341 14.5374 12.8594 13.8491 12.8594H11.6063C11.2582 12.8594 10.9893 12.736 10.7994 12.4891L8.49724 9.47153L6.19509 12.4891C6.00522 12.736 5.73624 12.8594 5.38815 12.8594H3.14534Z" fill="#DD4949"/>
</svg>
