<svg width="685" height="89" viewBox="0 0 685 89" fill="none" xmlns="http://www.w3.org/2000/svg">
<g clip-path="url(#clip0_325_6011)">
<g clip-path="url(#clip1_325_6011)">
<path d="M106.655 80.4146H506.655" stroke="#D3D2D2" stroke-width="6" stroke-linecap="round" stroke-dasharray="10 10"/>
<path d="M136.379 80.3911L183.963 80.3911L229.671 80.3911" stroke="#196EC1" stroke-width="6" stroke-linecap="square"/>
<circle cx="138.208" cy="80.4146" r="6.5" fill="#196EC1" stroke="#196EC1"/>
</g>
<ellipse cx="219.678" cy="54.0653" rx="4.03653" ry="6.45397" fill="#474747"/>
<ellipse cx="219.678" cy="43.535" rx="3.36377" ry="3.39683" fill="#474747"/>
<path d="M222.73 43.9232C222.868 44.3114 223.215 44.3114 223.354 43.9232L223.666 43.0497C223.804 42.6615 223.631 42.1763 223.354 42.1763H222.73C222.452 42.1763 222.279 42.6615 222.418 43.0497L222.73 43.9232Z" fill="#D3D2D2"/>
<path d="M216.002 43.9232C216.141 44.3114 216.487 44.3114 216.626 43.9232L216.938 43.0497C217.077 42.6615 216.903 42.1763 216.626 42.1763H216.002C215.725 42.1763 215.552 42.6615 215.69 43.0497L216.002 43.9232Z" fill="#D3D2D2"/>
<path fill-rule="evenodd" clip-rule="evenodd" d="M220.34 44.2144C220.284 44.5325 220.009 44.7741 219.678 44.7741C219.347 44.7741 219.071 44.5325 219.015 44.2144C218.465 44.4473 218.332 44.9637 218.332 45.2482C218.332 45.4535 218.563 45.4535 219.677 45.4535H219.678H219.678C220.792 45.4535 221.023 45.4535 221.023 45.2482C221.023 44.9637 220.891 44.4473 220.34 44.2144Z" fill="#D3D2D2"/>
<ellipse cx="230.778" cy="54.0653" rx="4.03653" ry="6.45397" fill="#474747"/>
<mask id="mask0_325_6011" style="mask-type:alpha" maskUnits="userSpaceOnUse" x="226" y="47" width="9" height="14">
<ellipse cx="230.778" cy="54.0653" rx="4.03653" ry="6.45397" fill="#474747"/>
</mask>
<g mask="url(#mask0_325_6011)">
<rect x="224.873" y="47.5025" width="11.8096" height="6.07315" fill="#0A427A" stroke="white" stroke-width="0.3"/>
</g>
<ellipse cx="230.778" cy="43.535" rx="3.36377" ry="3.39683" fill="#474747"/>
<rect width="8.74651" height="3.39656" rx="1.69828" transform="matrix(0.995878 0.0907065 -0.088964 0.996035 229.735 47.6113)" fill="#474747"/>
<mask id="mask1_325_6011" style="mask-type:alpha" maskUnits="userSpaceOnUse" x="229" y="47" width="10" height="5">
<rect width="8.74651" height="3.39656" rx="1.69828" transform="matrix(0.995878 0.0907065 -0.088964 0.996035 229.735 47.6113)" fill="#474747"/>
</mask>
<g mask="url(#mask1_325_6011)">
<rect x="0.133749" y="0.164931" width="7.77392" height="5.81365" transform="matrix(0.994489 0.104839 -0.10283 0.994699 226.423 45.1534)" fill="#0A427A" stroke="white" stroke-width="0.3"/>
</g>
<path fill-rule="evenodd" clip-rule="evenodd" d="M198.171 50.209C195.482 50.209 193.302 52.1756 193.302 54.6015V64.1593C193.302 66.5852 195.482 68.5518 198.171 68.5518H200.471C200.464 68.393 200.46 68.2331 200.46 68.0723C200.46 63.0071 204.351 58.9009 209.152 58.9009C213.952 58.9009 217.844 63.0071 217.844 68.0723C217.844 68.2331 217.84 68.393 217.832 68.5518H243.42C243.412 68.393 243.408 68.2331 243.408 68.0723C243.408 63.0071 247.3 58.9009 252.1 58.9009C256.901 58.9009 260.792 63.0071 260.792 68.0723C260.792 68.2331 260.788 68.393 260.781 68.5518H265.126C267.815 68.5518 269.996 66.5852 269.996 64.1593V54.6015C269.996 52.1756 267.815 50.209 265.126 50.209H198.171Z" fill="#0080FF"/>
<path fill-rule="evenodd" clip-rule="evenodd" d="M209.152 74.6963C212.774 74.6963 215.711 71.7308 215.711 68.0725C215.711 64.4143 212.774 61.4487 209.152 61.4487C205.529 61.4487 202.592 64.4143 202.592 68.0725C202.592 71.7308 205.529 74.6963 209.152 74.6963ZM252.1 74.6963C255.723 74.6963 258.66 71.7308 258.66 68.0725C258.66 64.4143 255.723 61.4487 252.1 61.4487C248.478 61.4487 245.541 64.4143 245.541 68.0725C245.541 71.7308 248.478 74.6963 252.1 74.6963Z" fill="#474747"/>
<path d="M210.474 32.8853C207.678 32.8853 205.411 34.8689 205.411 37.3159V52.8231C205.411 55.2701 207.678 57.2538 210.474 57.2538H217.858C215.072 57.2427 212.818 55.2633 212.818 52.8232V39.7267C212.818 39.115 213.385 38.6191 214.084 38.6191H234.634C234.967 38.6191 235.287 38.7342 235.524 38.9394L244.628 49.6739C247.837 52.4533 245.598 57.2366 241.091 57.2538H250.795C255.393 57.2538 257.61 52.3231 254.245 49.5809L238.511 34.0736C237.573 33.3099 236.341 32.8853 235.06 32.8853H210.474Z" fill="#0080FF"/>
<g filter="url(#filter0_d_325_6011)">
<path d="M162.344 26.1909C162.344 29.6596 161.228 33.6216 159.426 37.7476C157.627 41.8676 155.158 46.1175 152.486 50.1525C147.346 57.9143 141.479 64.8452 138.253 68.4765C135.015 64.846 129.148 57.9149 124.012 50.1526C121.341 46.1176 118.875 41.8678 117.078 37.7478C115.278 33.6218 114.164 29.6597 114.164 26.1909C114.164 12.1921 125.543 0.858398 138.839 0.858398C152.106 0.858398 162.344 12.1604 162.344 26.1909Z" fill="#0080FF" stroke="#0080FF"/>
<ellipse cx="138.254" cy="26.4809" rx="18.891" ry="20.0683" fill="white"/>
</g>
<g clip-path="url(#clip2_325_6011)">
<rect x="131.478" y="27.043" width="2.93405" height="14.8736" rx="1.46703" fill="#474747"/>
<rect x="137.346" y="27.043" width="2.93405" height="14.8736" rx="1.46703" fill="#474747"/>
<path fill-rule="evenodd" clip-rule="evenodd" d="M139.449 18.9211C138.692 19.2674 138.286 20.1901 138.541 20.9821L141.367 29.7631C141.621 30.555 142.441 30.9162 143.198 30.5699C143.954 30.2236 144.361 29.3008 144.106 28.5089L141.28 19.7279C141.025 18.936 140.205 18.5747 139.449 18.9211ZM132.195 18.9211C131.439 18.5747 130.619 18.936 130.364 19.7279L127.538 28.5089C127.283 29.3008 127.69 30.2236 128.446 30.5699C129.202 30.9162 130.022 30.555 130.277 29.7631L133.103 20.9821C133.358 20.1901 132.951 19.2674 132.195 18.9211Z" fill="#474747"/>
<ellipse cx="135.879" cy="13.0445" rx="3.66757" ry="4.37459" fill="#474747"/>
<path fill-rule="evenodd" clip-rule="evenodd" d="M136.601 14.0732C136.54 14.483 136.24 14.7941 135.879 14.7941C135.518 14.7941 135.217 14.483 135.156 14.0732C134.556 14.3732 134.412 15.0382 134.412 15.4047C134.412 15.669 134.663 15.669 135.878 15.669H135.879H135.879C137.094 15.669 137.346 15.669 137.346 15.4047C137.346 15.0382 137.201 14.3732 136.601 14.0732Z" fill="#D3D2D2"/>
<path d="M139.206 13.5442C139.357 14.0442 139.735 14.0442 139.886 13.5442L140.227 12.4193C140.378 11.9194 140.189 11.2944 139.886 11.2944H139.206C138.904 11.2944 138.715 11.9194 138.866 12.4193L139.206 13.5442Z" fill="#D3D2D2"/>
<path d="M131.871 13.5442C132.022 14.0442 132.4 14.0442 132.551 13.5442L132.891 12.4193C133.043 11.9194 132.854 11.2944 132.551 11.2944H131.871C131.569 11.2944 131.38 11.9194 131.531 12.4193L131.871 13.5442Z" fill="#D3D2D2"/>
<path d="M130.54 19.0248C130.66 18.5927 131.055 18.2939 131.503 18.2939C134.555 18.2939 136.918 18.2939 140.257 18.2939C140.704 18.2939 141.097 18.5911 141.219 19.0216L142.48 23.4773L140.28 24.4183V31.4177H131.477V24.4183L129.277 23.5434L130.54 19.0248Z" fill="#474747"/>
<path fill-rule="evenodd" clip-rule="evenodd" d="M143.145 31.4715C143.21 30.453 143.887 29.668 144.701 29.668H147.281C148.094 29.668 148.771 30.453 148.836 31.4715L149.377 39.957H148.219L147.72 32.256C147.698 31.7639 147.427 31.3818 147.101 31.3818H144.881C144.554 31.3818 144.283 31.7639 144.261 32.256L143.636 41.9168H142.48L143.145 31.4715Z" fill="#474747"/>
<rect x="143.306" y="33.0977" width="5.36919" height="1.46986" fill="#474747"/>
<ellipse cx="148.882" cy="40.6922" rx="1.03254" ry="1.22488" fill="#0080FF"/>
</g>
<path d="M143.492 80.1023C143.492 83.0699 141.137 85.4581 138.254 85.4581C135.371 85.4581 133.016 83.0699 133.016 80.1023C133.016 77.1348 135.371 74.7466 138.254 74.7466C141.137 74.7466 143.492 77.1348 143.492 80.1023Z" fill="#196EC1" stroke="#196EC1"/>
</g>
<path d="M328.144 36.484H332.188L331.888 37.996H327.844L328.144 36.484ZM327.592 39.94H332.176L331.852 41.5H325.348L327.028 33.1H333.376L333.052 34.66H328.648L327.592 39.94ZM332.704 41.5L336.424 37.684L336.184 38.632L334.216 35.044H336.16L337.504 37.528L336.64 37.516L338.98 35.044H341.044L337.492 38.74L337.648 37.744L339.736 41.5H337.756L336.376 38.932H337.252L334.84 41.5H332.704ZM343.782 41.596C343.286 41.596 342.826 41.484 342.402 41.26C341.978 41.028 341.638 40.696 341.382 40.264C341.126 39.832 340.998 39.312 340.998 38.704C340.998 38.16 341.086 37.66 341.262 37.204C341.446 36.748 341.702 36.352 342.03 36.016C342.358 35.68 342.738 35.42 343.17 35.236C343.602 35.044 344.066 34.948 344.562 34.948C345.098 34.948 345.558 35.048 345.942 35.248C346.326 35.448 346.61 35.76 346.794 36.184C346.986 36.6 347.054 37.14 346.998 37.804C346.958 38.564 346.802 39.232 346.53 39.808C346.258 40.376 345.89 40.816 345.426 41.128C344.97 41.44 344.422 41.596 343.782 41.596ZM344.358 40.048C344.726 40.048 345.05 39.96 345.33 39.784C345.618 39.6 345.842 39.352 346.002 39.04C346.17 38.72 346.254 38.348 346.254 37.924C346.254 37.484 346.122 37.136 345.858 36.88C345.602 36.624 345.242 36.496 344.778 36.496C344.418 36.496 344.094 36.588 343.806 36.772C343.518 36.948 343.29 37.196 343.122 37.516C342.962 37.828 342.882 38.196 342.882 38.62C342.882 39.06 343.01 39.408 343.266 39.664C343.53 39.92 343.894 40.048 344.358 40.048ZM345.642 41.5L345.894 40.216L346.314 38.296L346.566 36.376L346.83 35.044H348.702L347.418 41.5H345.642ZM358.895 34.948C359.439 34.948 359.899 35.064 360.275 35.296C360.651 35.52 360.919 35.852 361.079 36.292C361.239 36.732 361.251 37.276 361.115 37.924L360.407 41.5H358.535L359.219 38.056C359.323 37.576 359.291 37.208 359.123 36.952C358.955 36.696 358.663 36.568 358.247 36.568C357.807 36.568 357.443 36.7 357.155 36.964C356.867 37.22 356.667 37.628 356.555 38.188L355.895 41.5H354.023L354.707 38.056C354.803 37.576 354.767 37.208 354.599 36.952C354.439 36.696 354.151 36.568 353.735 36.568C353.295 36.568 352.931 36.7 352.643 36.964C352.355 37.22 352.151 37.636 352.031 38.212L351.383 41.5H349.511L350.795 35.044H352.571L352.235 36.688L351.947 36.316C352.243 35.852 352.611 35.508 353.051 35.284C353.491 35.06 353.959 34.948 354.455 34.948C354.855 34.948 355.215 35.02 355.535 35.164C355.855 35.308 356.115 35.524 356.315 35.812C356.523 36.092 356.643 36.444 356.675 36.868L355.955 36.688C356.275 36.12 356.683 35.688 357.179 35.392C357.683 35.096 358.255 34.948 358.895 34.948ZM366.585 41.596C366.065 41.596 365.609 41.496 365.217 41.296C364.833 41.096 364.545 40.788 364.353 40.372C364.161 39.948 364.093 39.404 364.149 38.74C364.197 37.972 364.353 37.304 364.617 36.736C364.889 36.168 365.257 35.728 365.721 35.416C366.185 35.104 366.733 34.948 367.365 34.948C367.869 34.948 368.333 35.064 368.757 35.296C369.181 35.52 369.521 35.848 369.777 36.28C370.033 36.704 370.161 37.224 370.161 37.84C370.161 38.376 370.069 38.876 369.885 39.34C369.701 39.796 369.445 40.192 369.117 40.528C368.797 40.864 368.421 41.128 367.989 41.32C367.557 41.504 367.089 41.596 366.585 41.596ZM361.989 43.828L363.741 35.044H365.517L365.253 36.328L364.845 38.248L364.593 40.168L363.861 43.828H361.989ZM366.369 40.048C366.745 40.048 367.073 39.96 367.353 39.784C367.633 39.6 367.853 39.352 368.013 39.04C368.181 38.72 368.265 38.348 368.265 37.924C368.265 37.484 368.137 37.136 367.881 36.88C367.625 36.624 367.261 36.496 366.789 36.496C366.429 36.496 366.105 36.588 365.817 36.772C365.529 36.948 365.305 37.196 365.145 37.516C364.985 37.828 364.905 38.196 364.905 38.62C364.905 39.06 365.033 39.408 365.289 39.664C365.545 39.92 365.905 40.048 366.369 40.048ZM371.102 41.5L372.878 32.596H374.75L372.974 41.5H371.102ZM378.504 41.596C377.832 41.596 377.248 41.476 376.752 41.236C376.264 40.996 375.884 40.66 375.612 40.228C375.34 39.796 375.204 39.288 375.204 38.704C375.204 37.984 375.364 37.344 375.684 36.784C376.012 36.216 376.46 35.768 377.028 35.44C377.604 35.112 378.264 34.948 379.008 34.948C379.64 34.948 380.184 35.068 380.64 35.308C381.096 35.54 381.448 35.868 381.696 36.292C381.952 36.708 382.08 37.208 382.08 37.792C382.08 37.96 382.068 38.128 382.044 38.296C382.028 38.464 382.004 38.624 381.972 38.776H376.632L376.824 37.684H381.096L380.328 38.02C380.392 37.66 380.372 37.36 380.268 37.12C380.164 36.872 379.996 36.684 379.764 36.556C379.532 36.42 379.252 36.352 378.924 36.352C378.516 36.352 378.168 36.452 377.88 36.652C377.6 36.844 377.388 37.112 377.244 37.456C377.1 37.8 377.028 38.188 377.028 38.62C377.028 39.116 377.164 39.488 377.436 39.736C377.716 39.976 378.136 40.096 378.696 40.096C379.024 40.096 379.34 40.044 379.644 39.94C379.948 39.836 380.208 39.688 380.424 39.496L381.204 40.732C380.828 41.028 380.404 41.248 379.932 41.392C379.468 41.528 378.992 41.596 378.504 41.596ZM384.503 36.448C384.327 36.448 384.179 36.388 384.059 36.268C383.939 36.148 383.879 36 383.879 35.824C383.879 35.624 383.947 35.46 384.083 35.332C384.219 35.204 384.375 35.14 384.551 35.14C384.727 35.14 384.871 35.2 384.983 35.32C385.103 35.432 385.163 35.58 385.163 35.764C385.163 35.9 385.131 36.02 385.067 36.124C385.011 36.22 384.931 36.3 384.827 36.364C384.723 36.42 384.615 36.448 384.503 36.448ZM383.483 41.56C383.307 41.56 383.159 41.5 383.039 41.38C382.919 41.26 382.859 41.112 382.859 40.936C382.859 40.736 382.927 40.572 383.063 40.444C383.199 40.316 383.355 40.252 383.531 40.252C383.707 40.252 383.851 40.312 383.963 40.432C384.083 40.544 384.143 40.692 384.143 40.876C384.143 41.012 384.111 41.132 384.047 41.236C383.991 41.332 383.911 41.412 383.807 41.476C383.703 41.532 383.595 41.56 383.483 41.56ZM391.518 41.5L393.042 33.868H390.078L390.234 33.1H397.026L396.87 33.868H393.918L392.394 41.5H391.518ZM401.289 35.14C401.857 35.14 402.321 35.252 402.681 35.476C403.049 35.692 403.301 36.008 403.437 36.424C403.581 36.84 403.593 37.336 403.473 37.912L402.753 41.5H401.901L402.621 37.9C402.749 37.276 402.681 36.788 402.417 36.436C402.161 36.084 401.705 35.908 401.049 35.908C400.377 35.908 399.817 36.092 399.369 36.46C398.929 36.828 398.633 37.38 398.481 38.116L397.809 41.5H396.957L398.733 32.596H399.585L398.697 37.012L398.481 36.7C398.785 36.156 399.177 35.76 399.657 35.512C400.145 35.264 400.689 35.14 401.289 35.14ZM408.306 41.56C407.706 41.56 407.182 41.452 406.734 41.236C406.294 41.012 405.954 40.7 405.714 40.3C405.482 39.9 405.366 39.424 405.366 38.872C405.366 38.152 405.518 37.512 405.822 36.952C406.126 36.392 406.542 35.952 407.07 35.632C407.598 35.304 408.194 35.14 408.858 35.14C409.418 35.14 409.902 35.248 410.31 35.464C410.718 35.672 411.034 35.976 411.258 36.376C411.49 36.776 411.606 37.256 411.606 37.816C411.606 37.944 411.598 38.076 411.582 38.212C411.566 38.34 411.546 38.464 411.522 38.584H405.99L406.098 37.948H411.126L410.778 38.188C410.858 37.684 410.822 37.26 410.67 36.916C410.518 36.572 410.282 36.312 409.962 36.136C409.65 35.952 409.274 35.86 408.834 35.86C408.322 35.86 407.866 35.988 407.466 36.244C407.066 36.492 406.754 36.84 406.53 37.288C406.306 37.728 406.194 38.244 406.194 38.836C406.194 39.468 406.374 39.956 406.734 40.3C407.102 40.636 407.65 40.804 408.378 40.804C408.802 40.804 409.194 40.736 409.554 40.6C409.914 40.456 410.21 40.26 410.442 40.012L410.826 40.624C410.53 40.92 410.158 41.152 409.71 41.32C409.27 41.48 408.802 41.56 408.306 41.56ZM419.217 41.56C418.681 41.56 418.205 41.452 417.789 41.236C417.373 41.02 417.049 40.712 416.817 40.312C416.585 39.912 416.469 39.436 416.469 38.884C416.469 38.348 416.557 37.852 416.733 37.396C416.909 36.94 417.157 36.544 417.477 36.208C417.797 35.864 418.173 35.6 418.605 35.416C419.045 35.232 419.521 35.14 420.033 35.14C420.585 35.14 421.053 35.24 421.437 35.44C421.821 35.632 422.117 35.916 422.325 36.292C422.533 36.66 422.637 37.108 422.637 37.636C422.637 38.204 422.557 38.728 422.397 39.208C422.245 39.688 422.017 40.104 421.713 40.456C421.409 40.808 421.045 41.08 420.621 41.272C420.205 41.464 419.737 41.56 419.217 41.56ZM419.397 40.804C419.925 40.804 420.393 40.68 420.801 40.432C421.217 40.176 421.541 39.824 421.773 39.376C422.013 38.928 422.133 38.42 422.133 37.852C422.133 37.228 421.949 36.744 421.581 36.4C421.221 36.056 420.713 35.884 420.057 35.884C419.537 35.884 419.069 36.012 418.653 36.268C418.237 36.524 417.909 36.876 417.669 37.324C417.437 37.764 417.321 38.272 417.321 38.848C417.321 39.464 417.501 39.944 417.861 40.288C418.229 40.632 418.741 40.804 419.397 40.804ZM421.473 41.5L421.833 39.688L422.193 38.416L422.313 37.096L423.213 32.596H424.065L422.289 41.5H421.473ZM425.022 41.5L426.27 35.2H427.086L426.726 37.06L426.63 36.736C426.91 36.184 427.278 35.78 427.734 35.524C428.198 35.268 428.774 35.14 429.462 35.14L429.306 35.968C429.266 35.968 429.226 35.968 429.186 35.968C429.154 35.96 429.114 35.956 429.066 35.956C428.394 35.956 427.838 36.152 427.398 36.544C426.966 36.928 426.67 37.512 426.51 38.296L425.874 41.5H425.022ZM430.105 41.5L431.353 35.2H432.205L430.957 41.5H430.105ZM432.145 33.808C431.977 33.808 431.837 33.752 431.725 33.64C431.621 33.528 431.569 33.396 431.569 33.244C431.569 33.068 431.629 32.916 431.749 32.788C431.877 32.66 432.037 32.596 432.229 32.596C432.397 32.596 432.537 32.648 432.649 32.752C432.761 32.856 432.817 32.988 432.817 33.148C432.817 33.34 432.753 33.5 432.625 33.628C432.497 33.748 432.337 33.808 432.145 33.808ZM435.319 41.5L433.759 35.2H434.611L436.027 41.044H435.619L439.363 35.2H440.251L436.183 41.5H435.319ZM443.255 41.56C442.655 41.56 442.131 41.452 441.683 41.236C441.243 41.012 440.903 40.7 440.663 40.3C440.431 39.9 440.315 39.424 440.315 38.872C440.315 38.152 440.467 37.512 440.771 36.952C441.075 36.392 441.491 35.952 442.019 35.632C442.547 35.304 443.143 35.14 443.807 35.14C444.367 35.14 444.851 35.248 445.259 35.464C445.667 35.672 445.983 35.976 446.207 36.376C446.439 36.776 446.555 37.256 446.555 37.816C446.555 37.944 446.547 38.076 446.531 38.212C446.515 38.34 446.495 38.464 446.471 38.584H440.939L441.047 37.948H446.075L445.727 38.188C445.807 37.684 445.771 37.26 445.619 36.916C445.467 36.572 445.231 36.312 444.911 36.136C444.599 35.952 444.223 35.86 443.783 35.86C443.271 35.86 442.815 35.988 442.415 36.244C442.015 36.492 441.703 36.84 441.479 37.288C441.255 37.728 441.143 38.244 441.143 38.836C441.143 39.468 441.323 39.956 441.683 40.3C442.051 40.636 442.599 40.804 443.327 40.804C443.751 40.804 444.143 40.736 444.503 40.6C444.863 40.456 445.159 40.26 445.391 40.012L445.775 40.624C445.479 40.92 445.107 41.152 444.659 41.32C444.219 41.48 443.751 41.56 443.255 41.56ZM447.978 41.5L449.226 35.2H450.042L449.682 37.06L449.586 36.736C449.866 36.184 450.234 35.78 450.69 35.524C451.154 35.268 451.73 35.14 452.418 35.14L452.262 35.968C452.222 35.968 452.182 35.968 452.142 35.968C452.11 35.96 452.07 35.956 452.022 35.956C451.35 35.956 450.794 36.152 450.354 36.544C449.922 36.928 449.626 37.512 449.466 38.296L448.83 41.5H447.978ZM456.655 41.5L457.903 35.2H458.755L457.507 41.5H456.655ZM458.695 33.808C458.527 33.808 458.387 33.752 458.275 33.64C458.171 33.528 458.119 33.396 458.119 33.244C458.119 33.068 458.179 32.916 458.299 32.788C458.427 32.66 458.587 32.596 458.779 32.596C458.947 32.596 459.087 32.648 459.199 32.752C459.311 32.856 459.367 32.988 459.367 33.148C459.367 33.34 459.303 33.5 459.175 33.628C459.047 33.748 458.887 33.808 458.695 33.808ZM462.073 41.56C461.561 41.56 461.077 41.488 460.621 41.344C460.165 41.2 459.813 41.016 459.565 40.792L459.973 40.12C460.213 40.336 460.529 40.508 460.921 40.636C461.313 40.756 461.725 40.816 462.157 40.816C462.757 40.816 463.217 40.716 463.537 40.516C463.865 40.316 464.029 40.04 464.029 39.688C464.029 39.448 463.941 39.268 463.765 39.148C463.597 39.02 463.377 38.924 463.105 38.86C462.833 38.788 462.545 38.72 462.241 38.656C461.937 38.592 461.649 38.512 461.377 38.416C461.105 38.312 460.881 38.156 460.705 37.948C460.537 37.74 460.453 37.46 460.453 37.108C460.453 36.708 460.565 36.36 460.789 36.064C461.021 35.768 461.341 35.54 461.749 35.38C462.157 35.22 462.637 35.14 463.189 35.14C463.589 35.14 463.985 35.192 464.377 35.296C464.769 35.4 465.085 35.544 465.325 35.728L464.965 36.412C464.717 36.22 464.429 36.084 464.101 36.004C463.773 35.916 463.445 35.872 463.117 35.872C462.533 35.872 462.081 35.98 461.761 36.196C461.449 36.404 461.293 36.68 461.293 37.024C461.293 37.264 461.377 37.448 461.545 37.576C461.721 37.704 461.945 37.804 462.217 37.876C462.489 37.948 462.777 38.016 463.081 38.08C463.393 38.136 463.681 38.216 463.945 38.32C464.217 38.424 464.437 38.576 464.605 38.776C464.781 38.968 464.869 39.24 464.869 39.592C464.869 40.008 464.753 40.364 464.521 40.66C464.289 40.948 463.961 41.172 463.537 41.332C463.121 41.484 462.633 41.56 462.073 41.56ZM472.645 41.56C472.109 41.56 471.633 41.452 471.217 41.236C470.801 41.02 470.477 40.712 470.245 40.312C470.013 39.912 469.897 39.436 469.897 38.884C469.897 38.348 469.985 37.852 470.161 37.396C470.337 36.94 470.585 36.544 470.905 36.208C471.225 35.864 471.601 35.6 472.033 35.416C472.473 35.232 472.949 35.14 473.461 35.14C474.013 35.14 474.481 35.24 474.865 35.44C475.249 35.632 475.545 35.916 475.753 36.292C475.961 36.66 476.065 37.108 476.065 37.636C476.065 38.204 475.985 38.728 475.825 39.208C475.673 39.688 475.445 40.104 475.141 40.456C474.837 40.808 474.473 41.08 474.049 41.272C473.633 41.464 473.165 41.56 472.645 41.56ZM472.825 40.804C473.353 40.804 473.821 40.68 474.229 40.432C474.645 40.176 474.969 39.824 475.201 39.376C475.441 38.928 475.561 38.42 475.561 37.852C475.561 37.228 475.377 36.744 475.009 36.4C474.649 36.056 474.141 35.884 473.485 35.884C472.965 35.884 472.497 36.012 472.081 36.268C471.665 36.524 471.337 36.876 471.097 37.324C470.865 37.764 470.749 38.272 470.749 38.848C470.749 39.464 470.929 39.944 471.289 40.288C471.657 40.632 472.169 40.804 472.825 40.804ZM474.901 41.5L475.261 39.688L475.621 38.416L475.741 37.096L476.641 32.596H477.493L475.717 41.5H474.901ZM478.45 41.5L479.698 35.2H480.514L480.154 37.06L480.058 36.736C480.338 36.184 480.706 35.78 481.162 35.524C481.626 35.268 482.202 35.14 482.89 35.14L482.734 35.968C482.694 35.968 482.654 35.968 482.614 35.968C482.582 35.96 482.542 35.956 482.494 35.956C481.822 35.956 481.266 36.152 480.826 36.544C480.394 36.928 480.098 37.512 479.938 38.296L479.302 41.5H478.45ZM483.533 41.5L484.781 35.2H485.633L484.385 41.5H483.533ZM485.573 33.808C485.405 33.808 485.265 33.752 485.153 33.64C485.049 33.528 484.997 33.396 484.997 33.244C484.997 33.068 485.057 32.916 485.177 32.788C485.305 32.66 485.465 32.596 485.657 32.596C485.825 32.596 485.965 32.648 486.077 32.752C486.189 32.856 486.245 32.988 486.245 33.148C486.245 33.34 486.181 33.5 486.053 33.628C485.925 33.748 485.765 33.808 485.573 33.808ZM488.747 41.5L487.187 35.2H488.039L489.455 41.044H489.047L492.791 35.2H493.679L489.611 41.5H488.747ZM493.979 41.5L495.227 35.2H496.079L494.831 41.5H493.979ZM496.019 33.808C495.851 33.808 495.711 33.752 495.599 33.64C495.495 33.528 495.443 33.396 495.443 33.244C495.443 33.068 495.503 32.916 495.623 32.788C495.751 32.66 495.911 32.596 496.103 32.596C496.271 32.596 496.411 32.648 496.523 32.752C496.635 32.856 496.691 32.988 496.691 33.148C496.691 33.34 496.627 33.5 496.499 33.628C496.371 33.748 496.211 33.808 496.019 33.808ZM501.894 35.14C502.462 35.14 502.926 35.252 503.286 35.476C503.654 35.692 503.906 36.008 504.042 36.424C504.186 36.84 504.198 37.336 504.078 37.912L503.358 41.5H502.506L503.226 37.9C503.354 37.276 503.286 36.788 503.022 36.436C502.766 36.084 502.31 35.908 501.654 35.908C500.982 35.908 500.422 36.092 499.974 36.46C499.534 36.828 499.238 37.38 499.086 38.116L498.414 41.5H497.562L498.81 35.2H499.626L499.266 37.012L499.086 36.7C499.39 36.156 499.782 35.76 500.262 35.512C500.75 35.264 501.294 35.14 501.894 35.14ZM508.359 43.888C507.775 43.888 507.243 43.804 506.763 43.636C506.283 43.476 505.879 43.244 505.551 42.94L506.055 42.292C506.311 42.548 506.643 42.752 507.051 42.904C507.467 43.056 507.923 43.132 508.419 43.132C509.219 43.132 509.839 42.948 510.279 42.58C510.719 42.212 511.011 41.644 511.155 40.876L511.491 39.22L511.815 38.188L511.947 37.108L512.319 35.2H513.135L512.031 40.732C511.815 41.844 511.407 42.648 510.807 43.144C510.207 43.64 509.391 43.888 508.359 43.888ZM508.779 41.26C508.227 41.26 507.739 41.156 507.315 40.948C506.899 40.74 506.575 40.448 506.343 40.072C506.111 39.688 505.995 39.236 505.995 38.716C505.995 38.204 506.083 37.732 506.259 37.3C506.435 36.868 506.683 36.492 507.003 36.172C507.323 35.844 507.703 35.592 508.143 35.416C508.583 35.232 509.067 35.14 509.595 35.14C510.099 35.14 510.547 35.228 510.939 35.404C511.331 35.58 511.639 35.844 511.863 36.196C512.095 36.548 512.211 36.996 512.211 37.54C512.219 38.228 512.083 38.856 511.803 39.424C511.523 39.984 511.127 40.432 510.615 40.768C510.103 41.096 509.491 41.26 508.779 41.26ZM508.947 40.504C509.475 40.504 509.943 40.384 510.351 40.144C510.767 39.904 511.095 39.576 511.335 39.16C511.575 38.736 511.695 38.256 511.695 37.72C511.695 37.144 511.511 36.696 511.143 36.376C510.775 36.048 510.263 35.884 509.607 35.884C509.079 35.884 508.607 36.004 508.191 36.244C507.775 36.484 507.447 36.816 507.207 37.24C506.975 37.656 506.859 38.132 506.859 38.668C506.859 39.244 507.043 39.696 507.411 40.024C507.779 40.344 508.291 40.504 508.947 40.504ZM520.111 41.56C519.751 41.56 519.443 41.484 519.187 41.332C518.931 41.172 518.751 40.948 518.647 40.66C518.551 40.372 518.543 40.028 518.623 39.628L519.775 33.808H520.627L519.475 39.592C519.395 39.984 519.423 40.288 519.559 40.504C519.703 40.72 519.963 40.828 520.339 40.828C520.515 40.828 520.687 40.804 520.855 40.756C521.023 40.7 521.175 40.616 521.311 40.504L521.515 41.152C521.315 41.304 521.091 41.412 520.843 41.476C520.595 41.532 520.351 41.56 520.111 41.56ZM518.239 35.908L518.371 35.2H522.271L522.127 35.908H518.239ZM527.674 35.14C528.242 35.14 528.706 35.252 529.066 35.476C529.434 35.692 529.686 36.008 529.822 36.424C529.966 36.84 529.978 37.336 529.858 37.912L529.138 41.5H528.286L529.006 37.9C529.134 37.276 529.066 36.788 528.802 36.436C528.546 36.084 528.09 35.908 527.434 35.908C526.762 35.908 526.202 36.092 525.754 36.46C525.314 36.828 525.018 37.38 524.866 38.116L524.194 41.5H523.342L525.118 32.596H525.97L525.082 37.012L524.866 36.7C525.17 36.156 525.562 35.76 526.042 35.512C526.53 35.264 527.074 35.14 527.674 35.14ZM534.691 41.56C534.091 41.56 533.567 41.452 533.119 41.236C532.679 41.012 532.339 40.7 532.099 40.3C531.867 39.9 531.751 39.424 531.751 38.872C531.751 38.152 531.903 37.512 532.207 36.952C532.511 36.392 532.927 35.952 533.455 35.632C533.983 35.304 534.579 35.14 535.243 35.14C535.803 35.14 536.287 35.248 536.695 35.464C537.103 35.672 537.419 35.976 537.643 36.376C537.875 36.776 537.991 37.256 537.991 37.816C537.991 37.944 537.983 38.076 537.967 38.212C537.951 38.34 537.931 38.464 537.907 38.584H532.375L532.483 37.948H537.511L537.163 38.188C537.243 37.684 537.207 37.26 537.055 36.916C536.903 36.572 536.667 36.312 536.347 36.136C536.035 35.952 535.659 35.86 535.219 35.86C534.707 35.86 534.251 35.988 533.851 36.244C533.451 36.492 533.139 36.84 532.915 37.288C532.691 37.728 532.579 38.244 532.579 38.836C532.579 39.468 532.759 39.956 533.119 40.3C533.487 40.636 534.035 40.804 534.763 40.804C535.187 40.804 535.579 40.736 535.939 40.6C536.299 40.456 536.595 40.26 536.827 40.012L537.211 40.624C536.915 40.92 536.543 41.152 536.095 41.32C535.655 41.48 535.187 41.56 534.691 41.56ZM546.418 41.56C545.874 41.56 545.406 41.464 545.014 41.272C544.63 41.072 544.334 40.788 544.126 40.42C543.926 40.044 543.822 39.592 543.814 39.064C543.814 38.288 543.954 37.608 544.234 37.024C544.514 36.432 544.91 35.972 545.422 35.644C545.934 35.308 546.538 35.14 547.234 35.14C547.778 35.14 548.254 35.248 548.662 35.464C549.078 35.672 549.402 35.976 549.634 36.376C549.874 36.776 549.994 37.252 549.994 37.804C549.994 38.348 549.906 38.848 549.73 39.304C549.554 39.76 549.302 40.156 548.974 40.492C548.654 40.828 548.278 41.092 547.846 41.284C547.414 41.468 546.938 41.56 546.418 41.56ZM542.446 43.828L544.162 35.2H544.978L544.618 37.012L544.27 38.272L544.138 39.592L543.298 43.828H542.446ZM546.406 40.804C546.934 40.804 547.402 40.68 547.81 40.432C548.218 40.176 548.538 39.824 548.77 39.376C549.01 38.928 549.13 38.42 549.13 37.852C549.13 37.228 548.95 36.744 548.59 36.4C548.23 36.056 547.718 35.884 547.054 35.884C546.534 35.884 546.066 36.012 545.65 36.268C545.242 36.524 544.918 36.876 544.678 37.324C544.446 37.764 544.33 38.272 544.33 38.848C544.33 39.464 544.51 39.944 544.87 40.288C545.23 40.632 545.742 40.804 546.406 40.804ZM554.095 41.56C553.559 41.56 553.083 41.452 552.667 41.236C552.251 41.02 551.927 40.712 551.695 40.312C551.463 39.912 551.347 39.436 551.347 38.884C551.347 38.348 551.435 37.852 551.611 37.396C551.787 36.94 552.035 36.544 552.355 36.208C552.675 35.864 553.051 35.6 553.483 35.416C553.923 35.232 554.399 35.14 554.911 35.14C555.463 35.14 555.931 35.24 556.315 35.44C556.699 35.632 556.995 35.916 557.203 36.292C557.411 36.66 557.515 37.108 557.515 37.636C557.515 38.396 557.375 39.072 557.095 39.664C556.815 40.256 556.419 40.72 555.907 41.056C555.395 41.392 554.791 41.56 554.095 41.56ZM554.275 40.804C554.803 40.804 555.271 40.68 555.679 40.432C556.095 40.176 556.419 39.824 556.651 39.376C556.891 38.928 557.011 38.42 557.011 37.852C557.011 37.228 556.827 36.744 556.459 36.4C556.099 36.056 555.591 35.884 554.935 35.884C554.415 35.884 553.947 36.012 553.531 36.268C553.115 36.524 552.787 36.876 552.547 37.324C552.315 37.764 552.199 38.272 552.199 38.848C552.199 39.464 552.379 39.944 552.739 40.288C553.107 40.632 553.619 40.804 554.275 40.804ZM556.351 41.5L556.711 39.688L557.071 38.416L557.191 37.096L557.575 35.2H558.427L557.167 41.5H556.351ZM561.736 41.56C561.224 41.56 560.74 41.488 560.284 41.344C559.828 41.2 559.476 41.016 559.228 40.792L559.636 40.12C559.876 40.336 560.192 40.508 560.584 40.636C560.976 40.756 561.388 40.816 561.82 40.816C562.42 40.816 562.88 40.716 563.2 40.516C563.528 40.316 563.692 40.04 563.692 39.688C563.692 39.448 563.604 39.268 563.428 39.148C563.26 39.02 563.04 38.924 562.768 38.86C562.496 38.788 562.208 38.72 561.904 38.656C561.6 38.592 561.312 38.512 561.04 38.416C560.768 38.312 560.544 38.156 560.368 37.948C560.2 37.74 560.116 37.46 560.116 37.108C560.116 36.708 560.228 36.36 560.452 36.064C560.684 35.768 561.004 35.54 561.412 35.38C561.82 35.22 562.3 35.14 562.852 35.14C563.252 35.14 563.648 35.192 564.04 35.296C564.432 35.4 564.748 35.544 564.988 35.728L564.628 36.412C564.38 36.22 564.092 36.084 563.764 36.004C563.436 35.916 563.108 35.872 562.78 35.872C562.196 35.872 561.744 35.98 561.424 36.196C561.112 36.404 560.956 36.68 560.956 37.024C560.956 37.264 561.04 37.448 561.208 37.576C561.384 37.704 561.608 37.804 561.88 37.876C562.152 37.948 562.44 38.016 562.744 38.08C563.056 38.136 563.344 38.216 563.608 38.32C563.88 38.424 564.1 38.576 564.268 38.776C564.444 38.968 564.532 39.24 564.532 39.592C564.532 40.008 564.416 40.364 564.184 40.66C563.952 40.948 563.624 41.172 563.2 41.332C562.784 41.484 562.296 41.56 561.736 41.56ZM567.955 41.56C567.443 41.56 566.959 41.488 566.503 41.344C566.047 41.2 565.695 41.016 565.447 40.792L565.855 40.12C566.095 40.336 566.411 40.508 566.803 40.636C567.195 40.756 567.607 40.816 568.039 40.816C568.639 40.816 569.099 40.716 569.419 40.516C569.747 40.316 569.911 40.04 569.911 39.688C569.911 39.448 569.823 39.268 569.647 39.148C569.479 39.02 569.259 38.924 568.987 38.86C568.715 38.788 568.427 38.72 568.123 38.656C567.819 38.592 567.531 38.512 567.259 38.416C566.987 38.312 566.763 38.156 566.587 37.948C566.419 37.74 566.335 37.46 566.335 37.108C566.335 36.708 566.447 36.36 566.671 36.064C566.903 35.768 567.223 35.54 567.631 35.38C568.039 35.22 568.519 35.14 569.071 35.14C569.471 35.14 569.867 35.192 570.259 35.296C570.651 35.4 570.967 35.544 571.207 35.728L570.847 36.412C570.599 36.22 570.311 36.084 569.983 36.004C569.655 35.916 569.327 35.872 568.999 35.872C568.415 35.872 567.963 35.98 567.643 36.196C567.331 36.404 567.175 36.68 567.175 37.024C567.175 37.264 567.259 37.448 567.427 37.576C567.603 37.704 567.827 37.804 568.099 37.876C568.371 37.948 568.659 38.016 568.963 38.08C569.275 38.136 569.563 38.216 569.827 38.32C570.099 38.424 570.319 38.576 570.487 38.776C570.663 38.968 570.751 39.24 570.751 39.592C570.751 40.008 570.635 40.364 570.403 40.66C570.171 40.948 569.843 41.172 569.419 41.332C569.003 41.484 568.515 41.56 567.955 41.56ZM575.218 41.56C574.618 41.56 574.094 41.452 573.646 41.236C573.206 41.012 572.866 40.7 572.626 40.3C572.394 39.9 572.278 39.424 572.278 38.872C572.278 38.152 572.43 37.512 572.734 36.952C573.038 36.392 573.454 35.952 573.982 35.632C574.51 35.304 575.106 35.14 575.77 35.14C576.33 35.14 576.814 35.248 577.222 35.464C577.63 35.672 577.946 35.976 578.17 36.376C578.402 36.776 578.518 37.256 578.518 37.816C578.518 37.944 578.51 38.076 578.494 38.212C578.478 38.34 578.458 38.464 578.434 38.584H572.902L573.01 37.948H578.038L577.69 38.188C577.77 37.684 577.734 37.26 577.582 36.916C577.43 36.572 577.194 36.312 576.874 36.136C576.562 35.952 576.186 35.86 575.746 35.86C575.234 35.86 574.778 35.988 574.378 36.244C573.978 36.492 573.666 36.84 573.442 37.288C573.218 37.728 573.106 38.244 573.106 38.836C573.106 39.468 573.286 39.956 573.646 40.3C574.014 40.636 574.562 40.804 575.29 40.804C575.714 40.804 576.106 40.736 576.466 40.6C576.826 40.456 577.122 40.26 577.354 40.012L577.738 40.624C577.442 40.92 577.07 41.152 576.622 41.32C576.182 41.48 575.714 41.56 575.218 41.56ZM584.273 35.14C584.841 35.14 585.305 35.252 585.665 35.476C586.033 35.692 586.285 36.008 586.421 36.424C586.565 36.84 586.577 37.336 586.457 37.912L585.737 41.5H584.885L585.605 37.9C585.733 37.276 585.665 36.788 585.401 36.436C585.145 36.084 584.689 35.908 584.033 35.908C583.361 35.908 582.801 36.092 582.353 36.46C581.913 36.828 581.617 37.38 581.465 38.116L580.793 41.5H579.941L581.189 35.2H582.005L581.645 37.012L581.465 36.7C581.769 36.156 582.161 35.76 582.641 35.512C583.129 35.264 583.673 35.14 584.273 35.14ZM590.738 43.888C590.154 43.888 589.622 43.804 589.142 43.636C588.662 43.476 588.258 43.244 587.93 42.94L588.434 42.292C588.69 42.548 589.022 42.752 589.43 42.904C589.846 43.056 590.302 43.132 590.798 43.132C591.598 43.132 592.218 42.948 592.658 42.58C593.098 42.212 593.39 41.644 593.534 40.876L593.87 39.22L594.194 38.188L594.326 37.108L594.698 35.2H595.514L594.41 40.732C594.194 41.844 593.786 42.648 593.186 43.144C592.586 43.64 591.77 43.888 590.738 43.888ZM591.158 41.26C590.606 41.26 590.118 41.156 589.694 40.948C589.278 40.74 588.954 40.448 588.722 40.072C588.49 39.688 588.374 39.236 588.374 38.716C588.374 38.204 588.462 37.732 588.638 37.3C588.814 36.868 589.062 36.492 589.382 36.172C589.702 35.844 590.082 35.592 590.522 35.416C590.962 35.232 591.446 35.14 591.974 35.14C592.478 35.14 592.926 35.228 593.318 35.404C593.71 35.58 594.018 35.844 594.242 36.196C594.474 36.548 594.59 36.996 594.59 37.54C594.598 38.228 594.462 38.856 594.182 39.424C593.902 39.984 593.506 40.432 592.994 40.768C592.482 41.096 591.87 41.26 591.158 41.26ZM591.326 40.504C591.854 40.504 592.322 40.384 592.73 40.144C593.146 39.904 593.474 39.576 593.714 39.16C593.954 38.736 594.074 38.256 594.074 37.72C594.074 37.144 593.89 36.696 593.522 36.376C593.154 36.048 592.642 35.884 591.986 35.884C591.458 35.884 590.986 36.004 590.57 36.244C590.154 36.484 589.826 36.816 589.586 37.24C589.354 37.656 589.238 38.132 589.238 38.668C589.238 39.244 589.422 39.696 589.79 40.024C590.158 40.344 590.67 40.504 591.326 40.504ZM599.865 41.56C599.265 41.56 598.741 41.452 598.293 41.236C597.853 41.012 597.513 40.7 597.273 40.3C597.041 39.9 596.925 39.424 596.925 38.872C596.925 38.152 597.077 37.512 597.381 36.952C597.685 36.392 598.101 35.952 598.629 35.632C599.157 35.304 599.753 35.14 600.417 35.14C600.977 35.14 601.461 35.248 601.869 35.464C602.277 35.672 602.593 35.976 602.817 36.376C603.049 36.776 603.165 37.256 603.165 37.816C603.165 37.944 603.157 38.076 603.141 38.212C603.125 38.34 603.105 38.464 603.081 38.584H597.549L597.657 37.948H602.685L602.337 38.188C602.417 37.684 602.381 37.26 602.229 36.916C602.077 36.572 601.841 36.312 601.521 36.136C601.209 35.952 600.833 35.86 600.393 35.86C599.881 35.86 599.425 35.988 599.025 36.244C598.625 36.492 598.313 36.84 598.089 37.288C597.865 37.728 597.753 38.244 597.753 38.836C597.753 39.468 597.933 39.956 598.293 40.3C598.661 40.636 599.209 40.804 599.937 40.804C600.361 40.804 600.753 40.736 601.113 40.6C601.473 40.456 601.769 40.26 602.001 40.012L602.385 40.624C602.089 40.92 601.717 41.152 601.269 41.32C600.829 41.48 600.361 41.56 599.865 41.56ZM604.587 41.5L605.835 35.2H606.651L606.291 37.06L606.195 36.736C606.475 36.184 606.843 35.78 607.299 35.524C607.763 35.268 608.339 35.14 609.027 35.14L608.871 35.968C608.831 35.968 608.791 35.968 608.751 35.968C608.719 35.96 608.679 35.956 608.631 35.956C607.959 35.956 607.403 36.152 606.963 36.544C606.531 36.928 606.235 37.512 606.075 38.296L605.439 41.5H604.587ZM608.77 43.252L609.742 41.032L609.826 41.56C609.65 41.56 609.502 41.5 609.382 41.38C609.262 41.26 609.202 41.112 609.202 40.936C609.202 40.736 609.27 40.572 609.406 40.444C609.542 40.316 609.698 40.252 609.874 40.252C610.05 40.252 610.194 40.312 610.306 40.432C610.426 40.544 610.486 40.692 610.486 40.876C610.486 40.98 610.466 41.08 610.426 41.176C610.394 41.264 610.338 41.376 610.258 41.512L609.346 43.252H608.77ZM616.05 41.5L617.298 35.2H618.114L617.754 37.06L617.658 36.736C617.938 36.184 618.306 35.78 618.762 35.524C619.226 35.268 619.802 35.14 620.49 35.14L620.334 35.968C620.294 35.968 620.254 35.968 620.214 35.968C620.182 35.96 620.142 35.956 620.094 35.956C619.422 35.956 618.866 36.152 618.426 36.544C617.994 36.928 617.698 37.512 617.538 38.296L616.902 41.5H616.05ZM621.132 41.5L622.38 35.2H623.232L621.984 41.5H621.132ZM623.172 33.808C623.004 33.808 622.864 33.752 622.752 33.64C622.648 33.528 622.596 33.396 622.596 33.244C622.596 33.068 622.656 32.916 622.776 32.788C622.904 32.66 623.064 32.596 623.256 32.596C623.424 32.596 623.564 32.648 623.676 32.752C623.788 32.856 623.844 32.988 623.844 33.148C623.844 33.34 623.78 33.5 623.652 33.628C623.524 33.748 623.364 33.808 623.172 33.808ZM627.403 41.56C626.867 41.56 626.391 41.452 625.975 41.236C625.559 41.02 625.235 40.712 625.003 40.312C624.771 39.912 624.655 39.436 624.655 38.884C624.655 38.348 624.743 37.852 624.919 37.396C625.095 36.94 625.343 36.544 625.663 36.208C625.983 35.864 626.359 35.6 626.791 35.416C627.231 35.232 627.707 35.14 628.219 35.14C628.771 35.14 629.239 35.24 629.623 35.44C630.007 35.632 630.303 35.916 630.511 36.292C630.719 36.66 630.823 37.108 630.823 37.636C630.823 38.204 630.743 38.728 630.583 39.208C630.431 39.688 630.203 40.104 629.899 40.456C629.595 40.808 629.231 41.08 628.807 41.272C628.391 41.464 627.923 41.56 627.403 41.56ZM627.583 40.804C628.111 40.804 628.579 40.68 628.987 40.432C629.403 40.176 629.727 39.824 629.959 39.376C630.199 38.928 630.319 38.42 630.319 37.852C630.319 37.228 630.135 36.744 629.767 36.4C629.407 36.056 628.899 35.884 628.243 35.884C627.723 35.884 627.255 36.012 626.839 36.268C626.423 36.524 626.095 36.876 625.855 37.324C625.623 37.764 625.507 38.272 625.507 38.848C625.507 39.464 625.687 39.944 626.047 40.288C626.415 40.632 626.927 40.804 627.583 40.804ZM629.659 41.5L630.019 39.688L630.379 38.416L630.499 37.096L631.399 32.596H632.251L630.475 41.5H629.659ZM636.088 41.56C635.488 41.56 634.964 41.452 634.516 41.236C634.076 41.012 633.736 40.7 633.496 40.3C633.264 39.9 633.148 39.424 633.148 38.872C633.148 38.152 633.3 37.512 633.604 36.952C633.908 36.392 634.324 35.952 634.852 35.632C635.38 35.304 635.976 35.14 636.64 35.14C637.2 35.14 637.684 35.248 638.092 35.464C638.5 35.672 638.816 35.976 639.04 36.376C639.272 36.776 639.388 37.256 639.388 37.816C639.388 37.944 639.38 38.076 639.364 38.212C639.348 38.34 639.328 38.464 639.304 38.584H633.772L633.88 37.948H638.908L638.56 38.188C638.64 37.684 638.604 37.26 638.452 36.916C638.3 36.572 638.064 36.312 637.744 36.136C637.432 35.952 637.056 35.86 636.616 35.86C636.104 35.86 635.648 35.988 635.248 36.244C634.848 36.492 634.536 36.84 634.312 37.288C634.088 37.728 633.976 38.244 633.976 38.836C633.976 39.468 634.156 39.956 634.516 40.3C634.884 40.636 635.432 40.804 636.16 40.804C636.584 40.804 636.976 40.736 637.336 40.6C637.696 40.456 637.992 40.26 638.224 40.012L638.608 40.624C638.312 40.92 637.94 41.152 637.492 41.32C637.052 41.48 636.584 41.56 636.088 41.56ZM327.4 56.56C326.888 56.56 326.404 56.488 325.948 56.344C325.492 56.2 325.14 56.016 324.892 55.792L325.3 55.12C325.54 55.336 325.856 55.508 326.248 55.636C326.64 55.756 327.052 55.816 327.484 55.816C328.084 55.816 328.544 55.716 328.864 55.516C329.192 55.316 329.356 55.04 329.356 54.688C329.356 54.448 329.268 54.268 329.092 54.148C328.924 54.02 328.704 53.924 328.432 53.86C328.16 53.788 327.872 53.72 327.568 53.656C327.264 53.592 326.976 53.512 326.704 53.416C326.432 53.312 326.208 53.156 326.032 52.948C325.864 52.74 325.78 52.46 325.78 52.108C325.78 51.708 325.892 51.36 326.116 51.064C326.348 50.768 326.668 50.54 327.076 50.38C327.484 50.22 327.964 50.14 328.516 50.14C328.916 50.14 329.312 50.192 329.704 50.296C330.096 50.4 330.412 50.544 330.652 50.728L330.292 51.412C330.044 51.22 329.756 51.084 329.428 51.004C329.1 50.916 328.772 50.872 328.444 50.872C327.86 50.872 327.408 50.98 327.088 51.196C326.776 51.404 326.62 51.68 326.62 52.024C326.62 52.264 326.704 52.448 326.872 52.576C327.048 52.704 327.272 52.804 327.544 52.876C327.816 52.948 328.104 53.016 328.408 53.08C328.72 53.136 329.008 53.216 329.272 53.32C329.544 53.424 329.764 53.576 329.932 53.776C330.108 53.968 330.196 54.24 330.196 54.592C330.196 55.008 330.08 55.364 329.848 55.66C329.616 55.948 329.288 56.172 328.864 56.332C328.448 56.484 327.96 56.56 327.4 56.56ZM333.787 56.56C333.427 56.56 333.119 56.484 332.863 56.332C332.607 56.172 332.427 55.948 332.323 55.66C332.227 55.372 332.219 55.028 332.299 54.628L333.451 48.808H334.303L333.151 54.592C333.071 54.984 333.099 55.288 333.235 55.504C333.379 55.72 333.639 55.828 334.015 55.828C334.191 55.828 334.363 55.804 334.531 55.756C334.699 55.7 334.851 55.616 334.987 55.504L335.191 56.152C334.991 56.304 334.767 56.412 334.519 56.476C334.271 56.532 334.027 56.56 333.787 56.56ZM331.915 50.908L332.047 50.2H335.947L335.803 50.908H331.915ZM339.484 56.56C338.948 56.56 338.472 56.452 338.056 56.236C337.64 56.02 337.316 55.712 337.084 55.312C336.852 54.912 336.736 54.436 336.736 53.884C336.736 53.348 336.824 52.852 337 52.396C337.176 51.94 337.424 51.544 337.744 51.208C338.064 50.864 338.44 50.6 338.872 50.416C339.312 50.232 339.788 50.14 340.3 50.14C340.852 50.14 341.32 50.24 341.704 50.44C342.088 50.632 342.384 50.916 342.592 51.292C342.8 51.66 342.904 52.108 342.904 52.636C342.904 53.396 342.764 54.072 342.484 54.664C342.204 55.256 341.808 55.72 341.296 56.056C340.784 56.392 340.18 56.56 339.484 56.56ZM339.664 55.804C340.192 55.804 340.66 55.68 341.068 55.432C341.484 55.176 341.808 54.824 342.04 54.376C342.28 53.928 342.4 53.42 342.4 52.852C342.4 52.228 342.216 51.744 341.848 51.4C341.488 51.056 340.98 50.884 340.324 50.884C339.804 50.884 339.336 51.012 338.92 51.268C338.504 51.524 338.176 51.876 337.936 52.324C337.704 52.764 337.588 53.272 337.588 53.848C337.588 54.464 337.768 54.944 338.128 55.288C338.496 55.632 339.008 55.804 339.664 55.804ZM341.74 56.5L342.1 54.688L342.46 53.416L342.58 52.096L342.964 50.2H343.816L342.556 56.5H341.74ZM345.289 56.5L346.537 50.2H347.353L346.993 52.06L346.897 51.736C347.177 51.184 347.545 50.78 348.001 50.524C348.465 50.268 349.041 50.14 349.729 50.14L349.573 50.968C349.533 50.968 349.493 50.968 349.453 50.968C349.421 50.96 349.381 50.956 349.333 50.956C348.661 50.956 348.105 51.152 347.665 51.544C347.233 51.928 346.937 52.512 346.777 53.296L346.141 56.5H345.289ZM352.645 56.56C352.285 56.56 351.977 56.484 351.721 56.332C351.465 56.172 351.285 55.948 351.181 55.66C351.085 55.372 351.077 55.028 351.157 54.628L352.309 48.808H353.161L352.009 54.592C351.929 54.984 351.957 55.288 352.093 55.504C352.237 55.72 352.497 55.828 352.873 55.828C353.049 55.828 353.221 55.804 353.389 55.756C353.557 55.7 353.709 55.616 353.845 55.504L354.049 56.152C353.849 56.304 353.625 56.412 353.377 56.476C353.129 56.532 352.885 56.56 352.645 56.56ZM350.773 50.908L350.905 50.2H354.805L354.661 50.908H350.773ZM358.533 56.56C357.933 56.56 357.409 56.452 356.961 56.236C356.521 56.012 356.181 55.7 355.941 55.3C355.709 54.9 355.593 54.424 355.593 53.872C355.593 53.152 355.745 52.512 356.049 51.952C356.353 51.392 356.769 50.952 357.297 50.632C357.825 50.304 358.421 50.14 359.085 50.14C359.645 50.14 360.129 50.248 360.537 50.464C360.945 50.672 361.261 50.976 361.485 51.376C361.717 51.776 361.833 52.256 361.833 52.816C361.833 52.944 361.825 53.076 361.809 53.212C361.793 53.34 361.773 53.464 361.749 53.584H356.217L356.325 52.948H361.353L361.005 53.188C361.085 52.684 361.049 52.26 360.897 51.916C360.745 51.572 360.509 51.312 360.189 51.136C359.877 50.952 359.501 50.86 359.061 50.86C358.549 50.86 358.093 50.988 357.693 51.244C357.293 51.492 356.981 51.84 356.757 52.288C356.533 52.728 356.421 53.244 356.421 53.836C356.421 54.468 356.601 54.956 356.961 55.3C357.329 55.636 357.877 55.804 358.605 55.804C359.029 55.804 359.421 55.736 359.781 55.6C360.141 55.456 360.437 55.26 360.669 55.012L361.053 55.624C360.757 55.92 360.385 56.152 359.937 56.32C359.497 56.48 359.029 56.56 358.533 56.56ZM365.943 56.56C365.407 56.56 364.931 56.452 364.515 56.236C364.099 56.02 363.775 55.712 363.543 55.312C363.311 54.912 363.195 54.436 363.195 53.884C363.195 53.348 363.283 52.852 363.459 52.396C363.635 51.94 363.883 51.544 364.203 51.208C364.523 50.864 364.899 50.6 365.331 50.416C365.771 50.232 366.247 50.14 366.759 50.14C367.311 50.14 367.779 50.24 368.163 50.44C368.547 50.632 368.843 50.916 369.051 51.292C369.259 51.66 369.363 52.108 369.363 52.636C369.363 53.204 369.283 53.728 369.123 54.208C368.971 54.688 368.743 55.104 368.439 55.456C368.135 55.808 367.771 56.08 367.347 56.272C366.931 56.464 366.463 56.56 365.943 56.56ZM366.123 55.804C366.651 55.804 367.119 55.68 367.527 55.432C367.943 55.176 368.267 54.824 368.499 54.376C368.739 53.928 368.859 53.42 368.859 52.852C368.859 52.228 368.675 51.744 368.307 51.4C367.947 51.056 367.439 50.884 366.783 50.884C366.263 50.884 365.795 51.012 365.379 51.268C364.963 51.524 364.635 51.876 364.395 52.324C364.163 52.764 364.047 53.272 364.047 53.848C364.047 54.464 364.227 54.944 364.587 55.288C364.955 55.632 365.467 55.804 366.123 55.804ZM368.199 56.5L368.559 54.688L368.919 53.416L369.039 52.096L369.939 47.596H370.791L369.015 56.5H368.199ZM377.937 56.56C377.401 56.56 376.925 56.452 376.509 56.236C376.093 56.02 375.769 55.712 375.537 55.312C375.305 54.912 375.189 54.436 375.189 53.884C375.189 53.348 375.277 52.852 375.453 52.396C375.629 51.94 375.877 51.544 376.197 51.208C376.517 50.864 376.893 50.6 377.325 50.416C377.765 50.232 378.241 50.14 378.753 50.14C379.305 50.14 379.773 50.24 380.157 50.44C380.541 50.632 380.837 50.916 381.045 51.292C381.253 51.66 381.357 52.108 381.357 52.636C381.357 53.396 381.217 54.072 380.937 54.664C380.657 55.256 380.261 55.72 379.749 56.056C379.237 56.392 378.633 56.56 377.937 56.56ZM378.117 55.804C378.645 55.804 379.113 55.68 379.521 55.432C379.937 55.176 380.261 54.824 380.493 54.376C380.733 53.928 380.853 53.42 380.853 52.852C380.853 52.228 380.669 51.744 380.301 51.4C379.941 51.056 379.433 50.884 378.777 50.884C378.257 50.884 377.789 51.012 377.373 51.268C376.957 51.524 376.629 51.876 376.389 52.324C376.157 52.764 376.041 53.272 376.041 53.848C376.041 54.464 376.221 54.944 376.581 55.288C376.949 55.632 377.461 55.804 378.117 55.804ZM380.193 56.5L380.553 54.688L380.913 53.416L381.033 52.096L381.417 50.2H382.269L381.009 56.5H380.193ZM385.746 56.56C385.386 56.56 385.078 56.484 384.822 56.332C384.566 56.172 384.386 55.948 384.282 55.66C384.186 55.372 384.178 55.028 384.258 54.628L385.41 48.808H386.262L385.11 54.592C385.03 54.984 385.058 55.288 385.194 55.504C385.338 55.72 385.598 55.828 385.974 55.828C386.15 55.828 386.322 55.804 386.49 55.756C386.658 55.7 386.81 55.616 386.946 55.504L387.15 56.152C386.95 56.304 386.726 56.412 386.478 56.476C386.23 56.532 385.986 56.56 385.746 56.56ZM383.874 50.908L384.006 50.2H387.906L387.762 50.908H383.874ZM394.481 56.56C394.121 56.56 393.813 56.484 393.557 56.332C393.301 56.172 393.121 55.948 393.017 55.66C392.921 55.372 392.913 55.028 392.993 54.628L394.145 48.808H394.997L393.845 54.592C393.765 54.984 393.793 55.288 393.929 55.504C394.073 55.72 394.333 55.828 394.709 55.828C394.885 55.828 395.057 55.804 395.225 55.756C395.393 55.7 395.545 55.616 395.681 55.504L395.885 56.152C395.685 56.304 395.461 56.412 395.213 56.476C394.965 56.532 394.721 56.56 394.481 56.56ZM392.609 50.908L392.741 50.2H396.641L396.497 50.908H392.609ZM402.044 50.14C402.612 50.14 403.076 50.252 403.436 50.476C403.804 50.692 404.056 51.008 404.192 51.424C404.336 51.84 404.348 52.336 404.228 52.912L403.508 56.5H402.656L403.376 52.9C403.504 52.276 403.436 51.788 403.172 51.436C402.916 51.084 402.46 50.908 401.804 50.908C401.132 50.908 400.572 51.092 400.124 51.46C399.684 51.828 399.388 52.38 399.236 53.116L398.564 56.5H397.712L399.488 47.596H400.34L399.452 52.012L399.236 51.7C399.54 51.156 399.932 50.76 400.412 50.512C400.9 50.264 401.444 50.14 402.044 50.14ZM409.062 56.56C408.462 56.56 407.938 56.452 407.49 56.236C407.05 56.012 406.71 55.7 406.47 55.3C406.238 54.9 406.122 54.424 406.122 53.872C406.122 53.152 406.274 52.512 406.578 51.952C406.882 51.392 407.298 50.952 407.826 50.632C408.354 50.304 408.95 50.14 409.614 50.14C410.174 50.14 410.658 50.248 411.066 50.464C411.474 50.672 411.79 50.976 412.014 51.376C412.246 51.776 412.362 52.256 412.362 52.816C412.362 52.944 412.354 53.076 412.338 53.212C412.322 53.34 412.302 53.464 412.278 53.584H406.746L406.854 52.948H411.882L411.534 53.188C411.614 52.684 411.578 52.26 411.426 51.916C411.274 51.572 411.038 51.312 410.718 51.136C410.406 50.952 410.03 50.86 409.59 50.86C409.078 50.86 408.622 50.988 408.222 51.244C407.822 51.492 407.51 51.84 407.286 52.288C407.062 52.728 406.95 53.244 406.95 53.836C406.95 54.468 407.13 54.956 407.49 55.3C407.858 55.636 408.406 55.804 409.134 55.804C409.558 55.804 409.95 55.736 410.31 55.6C410.67 55.456 410.966 55.26 411.198 55.012L411.582 55.624C411.286 55.92 410.914 56.152 410.466 56.32C410.026 56.48 409.558 56.56 409.062 56.56ZM420.788 56.56C420.244 56.56 419.776 56.464 419.384 56.272C419 56.072 418.704 55.788 418.496 55.42C418.296 55.044 418.192 54.592 418.184 54.064C418.184 53.288 418.324 52.608 418.604 52.024C418.884 51.432 419.28 50.972 419.792 50.644C420.304 50.308 420.908 50.14 421.604 50.14C422.148 50.14 422.624 50.248 423.032 50.464C423.448 50.672 423.772 50.976 424.004 51.376C424.244 51.776 424.364 52.252 424.364 52.804C424.364 53.348 424.276 53.848 424.1 54.304C423.924 54.76 423.672 55.156 423.344 55.492C423.024 55.828 422.648 56.092 422.216 56.284C421.784 56.468 421.308 56.56 420.788 56.56ZM416.816 58.828L418.532 50.2H419.348L418.988 52.012L418.64 53.272L418.508 54.592L417.668 58.828H416.816ZM420.776 55.804C421.304 55.804 421.772 55.68 422.18 55.432C422.588 55.176 422.908 54.824 423.14 54.376C423.38 53.928 423.5 53.42 423.5 52.852C423.5 52.228 423.32 51.744 422.96 51.4C422.6 51.056 422.088 50.884 421.424 50.884C420.904 50.884 420.436 51.012 420.02 51.268C419.612 51.524 419.288 51.876 419.048 52.324C418.816 52.764 418.7 53.272 418.7 53.848C418.7 54.464 418.88 54.944 419.24 55.288C419.6 55.632 420.112 55.804 420.776 55.804ZM425.777 56.5L427.025 50.2H427.877L426.629 56.5H425.777ZM427.817 48.808C427.649 48.808 427.509 48.752 427.397 48.64C427.293 48.528 427.241 48.396 427.241 48.244C427.241 48.068 427.301 47.916 427.421 47.788C427.549 47.66 427.709 47.596 427.901 47.596C428.069 47.596 428.209 47.648 428.321 47.752C428.433 47.856 428.489 47.988 428.489 48.148C428.489 48.34 428.425 48.5 428.297 48.628C428.169 48.748 428.009 48.808 427.817 48.808ZM432.216 56.56C431.616 56.56 431.096 56.452 430.656 56.236C430.224 56.012 429.888 55.7 429.648 55.3C429.416 54.9 429.3 54.428 429.3 53.884C429.3 53.164 429.456 52.524 429.768 51.964C430.08 51.396 430.512 50.952 431.064 50.632C431.624 50.304 432.26 50.14 432.972 50.14C433.556 50.14 434.056 50.248 434.472 50.464C434.896 50.672 435.224 50.984 435.456 51.4L434.736 51.82C434.56 51.5 434.316 51.264 434.004 51.112C433.7 50.96 433.332 50.884 432.9 50.884C432.372 50.884 431.9 51.012 431.484 51.268C431.068 51.524 430.74 51.876 430.5 52.324C430.268 52.764 430.152 53.272 430.152 53.848C430.152 54.464 430.332 54.944 430.692 55.288C431.06 55.632 431.58 55.804 432.252 55.804C432.66 55.804 433.036 55.728 433.38 55.576C433.732 55.416 434.02 55.188 434.244 54.892L434.856 55.36C434.584 55.736 434.212 56.032 433.74 56.248C433.268 56.456 432.76 56.56 432.216 56.56ZM437.408 54.82L437.576 53.776L442.16 50.2H443.372L439.928 52.876L439.46 53.236L437.408 54.82ZM436.388 56.5L438.164 47.596H439.016L437.24 56.5H436.388ZM441.308 56.5L439.316 53.224L439.904 52.588L442.304 56.5H441.308ZM449.966 56.56C449.414 56.56 448.954 56.448 448.586 56.224C448.226 56 447.978 55.68 447.842 55.264C447.706 54.848 447.69 54.356 447.794 53.788L448.514 50.2H449.366L448.646 53.788C448.526 54.412 448.594 54.904 448.85 55.264C449.106 55.616 449.554 55.792 450.194 55.792C450.858 55.792 451.41 55.608 451.85 55.24C452.298 54.872 452.598 54.32 452.75 53.584L453.422 50.2H454.274L453.014 56.5H452.198L452.558 54.688L452.738 54.988C452.442 55.532 452.05 55.932 451.562 56.188C451.082 56.436 450.55 56.56 449.966 56.56ZM459.253 56.56C458.709 56.56 458.241 56.464 457.849 56.272C457.465 56.072 457.169 55.788 456.961 55.42C456.761 55.044 456.657 54.592 456.649 54.064C456.649 53.288 456.789 52.608 457.069 52.024C457.349 51.432 457.745 50.972 458.257 50.644C458.769 50.308 459.373 50.14 460.069 50.14C460.613 50.14 461.089 50.248 461.497 50.464C461.913 50.672 462.237 50.976 462.469 51.376C462.709 51.776 462.829 52.252 462.829 52.804C462.829 53.348 462.741 53.848 462.565 54.304C462.389 54.76 462.137 55.156 461.809 55.492C461.489 55.828 461.113 56.092 460.681 56.284C460.249 56.468 459.773 56.56 459.253 56.56ZM455.281 58.828L456.997 50.2H457.813L457.453 52.012L457.105 53.272L456.973 54.592L456.133 58.828H455.281ZM459.241 55.804C459.769 55.804 460.237 55.68 460.645 55.432C461.053 55.176 461.373 54.824 461.605 54.376C461.845 53.928 461.965 53.42 461.965 52.852C461.965 52.228 461.785 51.744 461.425 51.4C461.065 51.056 460.553 50.884 459.889 50.884C459.369 50.884 458.901 51.012 458.485 51.268C458.077 51.524 457.753 51.876 457.513 52.324C457.281 52.764 457.165 53.272 457.165 53.848C457.165 54.464 457.345 54.944 457.705 55.288C458.065 55.632 458.577 55.804 459.241 55.804ZM471.246 56.56C470.702 56.56 470.234 56.464 469.842 56.272C469.458 56.072 469.162 55.788 468.954 55.42C468.754 55.044 468.65 54.592 468.642 54.064C468.642 53.288 468.782 52.608 469.062 52.024C469.342 51.432 469.738 50.972 470.25 50.644C470.762 50.308 471.366 50.14 472.062 50.14C472.606 50.14 473.082 50.248 473.49 50.464C473.906 50.672 474.23 50.976 474.462 51.376C474.702 51.776 474.822 52.252 474.822 52.804C474.822 53.348 474.734 53.848 474.558 54.304C474.382 54.76 474.13 55.156 473.802 55.492C473.482 55.828 473.106 56.092 472.674 56.284C472.242 56.468 471.766 56.56 471.246 56.56ZM467.274 58.828L468.99 50.2H469.806L469.446 52.012L469.098 53.272L468.966 54.592L468.126 58.828H467.274ZM471.234 55.804C471.762 55.804 472.23 55.68 472.638 55.432C473.046 55.176 473.366 54.824 473.598 54.376C473.838 53.928 473.958 53.42 473.958 52.852C473.958 52.228 473.778 51.744 473.418 51.4C473.058 51.056 472.546 50.884 471.882 50.884C471.362 50.884 470.894 51.012 470.478 51.268C470.07 51.524 469.746 51.876 469.506 52.324C469.274 52.764 469.158 53.272 469.158 53.848C469.158 54.464 469.338 54.944 469.698 55.288C470.058 55.632 470.57 55.804 471.234 55.804ZM479.043 56.56C478.459 56.56 477.951 56.452 477.519 56.236C477.095 56.012 476.763 55.7 476.523 55.3C476.291 54.9 476.175 54.428 476.175 53.884C476.175 53.164 476.331 52.524 476.643 51.964C476.955 51.396 477.387 50.952 477.939 50.632C478.491 50.304 479.119 50.14 479.823 50.14C480.407 50.14 480.911 50.248 481.335 50.464C481.767 50.68 482.099 50.988 482.331 51.388C482.571 51.788 482.691 52.26 482.691 52.804C482.691 53.524 482.535 54.168 482.223 54.736C481.911 55.296 481.479 55.74 480.927 56.068C480.383 56.396 479.755 56.56 479.043 56.56ZM479.103 55.804C479.631 55.804 480.099 55.68 480.507 55.432C480.923 55.176 481.247 54.824 481.479 54.376C481.719 53.928 481.839 53.42 481.839 52.852C481.839 52.228 481.655 51.744 481.287 51.4C480.927 51.056 480.419 50.884 479.763 50.884C479.243 50.884 478.775 51.012 478.359 51.268C477.943 51.524 477.615 51.876 477.375 52.324C477.143 52.764 477.027 53.272 477.027 53.848C477.027 54.464 477.207 54.944 477.567 55.288C477.935 55.632 478.447 55.804 479.103 55.804ZM484.119 56.5L485.367 50.2H486.219L484.971 56.5H484.119ZM486.159 48.808C485.991 48.808 485.851 48.752 485.739 48.64C485.635 48.528 485.583 48.396 485.583 48.244C485.583 48.068 485.643 47.916 485.763 47.788C485.891 47.66 486.051 47.596 486.243 47.596C486.411 47.596 486.551 47.648 486.663 47.752C486.775 47.856 486.831 47.988 486.831 48.148C486.831 48.34 486.767 48.5 486.639 48.628C486.511 48.748 486.351 48.808 486.159 48.808ZM492.033 50.14C492.601 50.14 493.065 50.252 493.425 50.476C493.793 50.692 494.045 51.008 494.181 51.424C494.325 51.84 494.337 52.336 494.217 52.912L493.497 56.5H492.645L493.365 52.9C493.493 52.276 493.425 51.788 493.161 51.436C492.905 51.084 492.449 50.908 491.793 50.908C491.121 50.908 490.561 51.092 490.113 51.46C489.673 51.828 489.377 52.38 489.225 53.116L488.553 56.5H487.701L488.949 50.2H489.765L489.405 52.012L489.225 51.7C489.529 51.156 489.921 50.76 490.401 50.512C490.889 50.264 491.433 50.14 492.033 50.14ZM498.175 56.56C497.815 56.56 497.507 56.484 497.251 56.332C496.995 56.172 496.815 55.948 496.711 55.66C496.615 55.372 496.607 55.028 496.687 54.628L497.839 48.808H498.691L497.539 54.592C497.459 54.984 497.487 55.288 497.623 55.504C497.767 55.72 498.027 55.828 498.403 55.828C498.579 55.828 498.751 55.804 498.919 55.756C499.087 55.7 499.239 55.616 499.375 55.504L499.579 56.152C499.379 56.304 499.155 56.412 498.907 56.476C498.659 56.532 498.415 56.56 498.175 56.56ZM496.303 50.908L496.435 50.2H500.335L500.191 50.908H496.303ZM507.594 56.56C507.058 56.56 506.582 56.452 506.166 56.236C505.75 56.02 505.426 55.712 505.194 55.312C504.962 54.912 504.846 54.436 504.846 53.884C504.846 53.348 504.934 52.852 505.11 52.396C505.286 51.94 505.534 51.544 505.854 51.208C506.174 50.864 506.55 50.6 506.982 50.416C507.422 50.232 507.898 50.14 508.41 50.14C508.962 50.14 509.43 50.24 509.814 50.44C510.198 50.632 510.494 50.916 510.702 51.292C510.91 51.66 511.014 52.108 511.014 52.636C511.014 53.396 510.874 54.072 510.594 54.664C510.314 55.256 509.918 55.72 509.406 56.056C508.894 56.392 508.29 56.56 507.594 56.56ZM507.774 55.804C508.302 55.804 508.77 55.68 509.178 55.432C509.594 55.176 509.918 54.824 510.15 54.376C510.39 53.928 510.51 53.42 510.51 52.852C510.51 52.228 510.326 51.744 509.958 51.4C509.598 51.056 509.09 50.884 508.434 50.884C507.914 50.884 507.446 51.012 507.03 51.268C506.614 51.524 506.286 51.876 506.046 52.324C505.814 52.764 505.698 53.272 505.698 53.848C505.698 54.464 505.878 54.944 506.238 55.288C506.606 55.632 507.118 55.804 507.774 55.804ZM509.85 56.5L510.21 54.688L510.57 53.416L510.69 52.096L511.074 50.2H511.926L510.666 56.5H509.85ZM517.731 50.14C518.299 50.14 518.763 50.252 519.123 50.476C519.491 50.692 519.743 51.008 519.879 51.424C520.023 51.84 520.035 52.336 519.915 52.912L519.195 56.5H518.343L519.063 52.9C519.191 52.276 519.123 51.788 518.859 51.436C518.603 51.084 518.147 50.908 517.491 50.908C516.819 50.908 516.259 51.092 515.811 51.46C515.371 51.828 515.075 52.38 514.923 53.116L514.251 56.5H513.399L514.647 50.2H515.463L515.103 52.012L514.923 51.7C515.227 51.156 515.619 50.76 516.099 50.512C516.587 50.264 517.131 50.14 517.731 50.14ZM524.557 56.56C524.021 56.56 523.545 56.452 523.129 56.236C522.713 56.02 522.389 55.712 522.157 55.312C521.925 54.912 521.809 54.436 521.809 53.884C521.809 53.348 521.897 52.852 522.073 52.396C522.249 51.94 522.497 51.544 522.817 51.208C523.137 50.864 523.513 50.6 523.945 50.416C524.385 50.232 524.861 50.14 525.373 50.14C525.925 50.14 526.393 50.24 526.777 50.44C527.161 50.632 527.457 50.916 527.665 51.292C527.873 51.66 527.977 52.108 527.977 52.636C527.977 53.204 527.897 53.728 527.737 54.208C527.585 54.688 527.357 55.104 527.053 55.456C526.749 55.808 526.385 56.08 525.961 56.272C525.545 56.464 525.077 56.56 524.557 56.56ZM524.737 55.804C525.265 55.804 525.733 55.68 526.141 55.432C526.557 55.176 526.881 54.824 527.113 54.376C527.353 53.928 527.473 53.42 527.473 52.852C527.473 52.228 527.289 51.744 526.921 51.4C526.561 51.056 526.053 50.884 525.397 50.884C524.877 50.884 524.409 51.012 523.993 51.268C523.577 51.524 523.249 51.876 523.009 52.324C522.777 52.764 522.661 53.272 522.661 53.848C522.661 54.464 522.841 54.944 523.201 55.288C523.569 55.632 524.081 55.804 524.737 55.804ZM526.813 56.5L527.173 54.688L527.533 53.416L527.653 52.096L528.553 47.596H529.405L527.629 56.5H526.813ZM533.862 56.5L535.11 50.2H535.962L534.714 56.5H533.862ZM535.902 48.808C535.734 48.808 535.594 48.752 535.482 48.64C535.378 48.528 535.326 48.396 535.326 48.244C535.326 48.068 535.386 47.916 535.506 47.788C535.634 47.66 535.794 47.596 535.986 47.596C536.154 47.596 536.294 47.648 536.406 47.752C536.518 47.856 536.574 47.988 536.574 48.148C536.574 48.34 536.51 48.5 536.382 48.628C536.254 48.748 536.094 48.808 535.902 48.808ZM539.281 56.56C538.769 56.56 538.285 56.488 537.829 56.344C537.373 56.2 537.021 56.016 536.773 55.792L537.181 55.12C537.421 55.336 537.737 55.508 538.129 55.636C538.521 55.756 538.933 55.816 539.365 55.816C539.965 55.816 540.425 55.716 540.745 55.516C541.073 55.316 541.237 55.04 541.237 54.688C541.237 54.448 541.149 54.268 540.973 54.148C540.805 54.02 540.585 53.924 540.313 53.86C540.041 53.788 539.753 53.72 539.449 53.656C539.145 53.592 538.857 53.512 538.585 53.416C538.313 53.312 538.089 53.156 537.913 52.948C537.745 52.74 537.661 52.46 537.661 52.108C537.661 51.708 537.773 51.36 537.997 51.064C538.229 50.768 538.549 50.54 538.957 50.38C539.365 50.22 539.845 50.14 540.397 50.14C540.797 50.14 541.193 50.192 541.585 50.296C541.977 50.4 542.293 50.544 542.533 50.728L542.173 51.412C541.925 51.22 541.637 51.084 541.309 51.004C540.981 50.916 540.653 50.872 540.325 50.872C539.741 50.872 539.289 50.98 538.969 51.196C538.657 51.404 538.501 51.68 538.501 52.024C538.501 52.264 538.585 52.448 538.753 52.576C538.929 52.704 539.153 52.804 539.425 52.876C539.697 52.948 539.985 53.016 540.289 53.08C540.601 53.136 540.889 53.216 541.153 53.32C541.425 53.424 541.645 53.576 541.813 53.776C541.989 53.968 542.077 54.24 542.077 54.592C542.077 55.008 541.961 55.364 541.729 55.66C541.497 55.948 541.169 56.172 540.745 56.332C540.329 56.484 539.841 56.56 539.281 56.56ZM551.497 50.14C552.065 50.14 552.529 50.252 552.889 50.476C553.257 50.692 553.509 51.008 553.645 51.424C553.789 51.84 553.801 52.336 553.681 52.912L552.961 56.5H552.109L552.829 52.9C552.957 52.276 552.889 51.788 552.625 51.436C552.369 51.084 551.913 50.908 551.257 50.908C550.585 50.908 550.025 51.092 549.577 51.46C549.137 51.828 548.841 52.38 548.689 53.116L548.017 56.5H547.165L548.413 50.2H549.229L548.869 52.012L548.689 51.7C548.993 51.156 549.385 50.76 549.865 50.512C550.353 50.264 550.897 50.14 551.497 50.14ZM558.442 56.56C557.858 56.56 557.35 56.452 556.918 56.236C556.494 56.012 556.162 55.7 555.922 55.3C555.69 54.9 555.574 54.428 555.574 53.884C555.574 53.164 555.73 52.524 556.042 51.964C556.354 51.396 556.786 50.952 557.338 50.632C557.89 50.304 558.518 50.14 559.222 50.14C559.806 50.14 560.31 50.248 560.734 50.464C561.166 50.68 561.498 50.988 561.73 51.388C561.97 51.788 562.09 52.26 562.09 52.804C562.09 53.524 561.934 54.168 561.622 54.736C561.31 55.296 560.878 55.74 560.326 56.068C559.782 56.396 559.154 56.56 558.442 56.56ZM558.502 55.804C559.03 55.804 559.498 55.68 559.906 55.432C560.322 55.176 560.646 54.824 560.878 54.376C561.118 53.928 561.238 53.42 561.238 52.852C561.238 52.228 561.054 51.744 560.686 51.4C560.326 51.056 559.818 50.884 559.162 50.884C558.642 50.884 558.174 51.012 557.758 51.268C557.342 51.524 557.014 51.876 556.774 52.324C556.542 52.764 556.426 53.272 556.426 53.848C556.426 54.464 556.606 54.944 556.966 55.288C557.334 55.632 557.846 55.804 558.502 55.804ZM565.521 56.56C565.161 56.56 564.853 56.484 564.597 56.332C564.341 56.172 564.161 55.948 564.057 55.66C563.961 55.372 563.953 55.028 564.033 54.628L565.185 48.808H566.037L564.885 54.592C564.805 54.984 564.833 55.288 564.969 55.504C565.113 55.72 565.373 55.828 565.749 55.828C565.925 55.828 566.097 55.804 566.265 55.756C566.433 55.7 566.585 55.616 566.721 55.504L566.925 56.152C566.725 56.304 566.501 56.412 566.253 56.476C566.005 56.532 565.761 56.56 565.521 56.56ZM563.649 50.908L563.781 50.2H567.681L567.537 50.908H563.649ZM572.397 56.5L573.813 49.396C573.933 48.804 574.173 48.348 574.533 48.028C574.901 47.7 575.381 47.536 575.973 47.536C576.229 47.536 576.469 47.572 576.693 47.644C576.917 47.716 577.101 47.816 577.245 47.944L576.861 48.568C576.637 48.36 576.341 48.256 575.973 48.256C575.605 48.256 575.309 48.356 575.085 48.556C574.869 48.748 574.717 49.06 574.629 49.492L574.437 50.416L574.389 50.788L573.249 56.5H572.397ZM572.385 50.908L572.517 50.2H576.417L576.273 50.908H572.385ZM576.321 56.5L577.569 50.2H578.421L577.173 56.5H576.321ZM578.361 48.808C578.193 48.808 578.053 48.752 577.941 48.64C577.837 48.528 577.785 48.396 577.785 48.244C577.785 48.068 577.845 47.916 577.965 47.788C578.093 47.66 578.253 47.596 578.445 47.596C578.613 47.596 578.753 47.648 578.865 47.752C578.977 47.856 579.033 47.988 579.033 48.148C579.033 48.34 578.969 48.5 578.841 48.628C578.713 48.748 578.553 48.808 578.361 48.808ZM584.258 50.14C584.826 50.14 585.29 50.252 585.65 50.476C586.018 50.692 586.27 51.008 586.406 51.424C586.55 51.84 586.562 52.336 586.442 52.912L585.722 56.5H584.87L585.59 52.9C585.718 52.276 585.65 51.788 585.386 51.436C585.13 51.084 584.674 50.908 584.018 50.908C583.346 50.908 582.786 51.092 582.338 51.46C581.898 51.828 581.602 52.38 581.45 53.116L580.778 56.5H579.926L581.174 50.2H581.99L581.63 52.012L581.45 51.7C581.754 51.156 582.146 50.76 582.626 50.512C583.114 50.264 583.658 50.14 584.258 50.14ZM588.395 56.5L589.643 50.2H590.495L589.247 56.5H588.395ZM590.435 48.808C590.267 48.808 590.127 48.752 590.015 48.64C589.911 48.528 589.859 48.396 589.859 48.244C589.859 48.068 589.919 47.916 590.039 47.788C590.167 47.66 590.327 47.596 590.519 47.596C590.687 47.596 590.827 47.648 590.939 47.752C591.051 47.856 591.107 47.988 591.107 48.148C591.107 48.34 591.043 48.5 590.915 48.628C590.787 48.748 590.627 48.808 590.435 48.808ZM593.814 56.56C593.302 56.56 592.818 56.488 592.362 56.344C591.906 56.2 591.554 56.016 591.306 55.792L591.714 55.12C591.954 55.336 592.27 55.508 592.662 55.636C593.054 55.756 593.466 55.816 593.898 55.816C594.498 55.816 594.958 55.716 595.278 55.516C595.606 55.316 595.77 55.04 595.77 54.688C595.77 54.448 595.682 54.268 595.506 54.148C595.338 54.02 595.118 53.924 594.846 53.86C594.574 53.788 594.286 53.72 593.982 53.656C593.678 53.592 593.39 53.512 593.118 53.416C592.846 53.312 592.622 53.156 592.446 52.948C592.278 52.74 592.194 52.46 592.194 52.108C592.194 51.708 592.306 51.36 592.53 51.064C592.762 50.768 593.082 50.54 593.49 50.38C593.898 50.22 594.378 50.14 594.93 50.14C595.33 50.14 595.726 50.192 596.118 50.296C596.51 50.4 596.826 50.544 597.066 50.728L596.706 51.412C596.458 51.22 596.17 51.084 595.842 51.004C595.514 50.916 595.186 50.872 594.858 50.872C594.274 50.872 593.822 50.98 593.502 51.196C593.19 51.404 593.034 51.68 593.034 52.024C593.034 52.264 593.118 52.448 593.286 52.576C593.462 52.704 593.686 52.804 593.958 52.876C594.23 52.948 594.518 53.016 594.822 53.08C595.134 53.136 595.422 53.216 595.686 53.32C595.958 53.424 596.178 53.576 596.346 53.776C596.522 53.968 596.61 54.24 596.61 54.592C596.61 55.008 596.494 55.364 596.262 55.66C596.03 55.948 595.702 56.172 595.278 56.332C594.862 56.484 594.374 56.56 593.814 56.56ZM602.529 50.14C603.097 50.14 603.561 50.252 603.921 50.476C604.289 50.692 604.541 51.008 604.677 51.424C604.821 51.84 604.833 52.336 604.713 52.912L603.993 56.5H603.141L603.861 52.9C603.989 52.276 603.921 51.788 603.657 51.436C603.401 51.084 602.945 50.908 602.289 50.908C601.617 50.908 601.057 51.092 600.609 51.46C600.169 51.828 599.873 52.38 599.721 53.116L599.049 56.5H598.197L599.973 47.596H600.825L599.937 52.012L599.721 51.7C600.025 51.156 600.417 50.76 600.897 50.512C601.385 50.264 601.929 50.14 602.529 50.14ZM609.546 56.56C608.946 56.56 608.422 56.452 607.974 56.236C607.534 56.012 607.194 55.7 606.954 55.3C606.722 54.9 606.606 54.424 606.606 53.872C606.606 53.152 606.758 52.512 607.062 51.952C607.366 51.392 607.782 50.952 608.31 50.632C608.838 50.304 609.434 50.14 610.098 50.14C610.658 50.14 611.142 50.248 611.55 50.464C611.958 50.672 612.274 50.976 612.498 51.376C612.73 51.776 612.846 52.256 612.846 52.816C612.846 52.944 612.838 53.076 612.822 53.212C612.806 53.34 612.786 53.464 612.762 53.584H607.23L607.338 52.948H612.366L612.018 53.188C612.098 52.684 612.062 52.26 611.91 51.916C611.758 51.572 611.522 51.312 611.202 51.136C610.89 50.952 610.514 50.86 610.074 50.86C609.562 50.86 609.106 50.988 608.706 51.244C608.306 51.492 607.994 51.84 607.77 52.288C607.546 52.728 607.434 53.244 607.434 53.836C607.434 54.468 607.614 54.956 607.974 55.3C608.342 55.636 608.89 55.804 609.618 55.804C610.042 55.804 610.434 55.736 610.794 55.6C611.154 55.456 611.45 55.26 611.682 55.012L612.066 55.624C611.77 55.92 611.398 56.152 610.95 56.32C610.51 56.48 610.042 56.56 609.546 56.56ZM616.957 56.56C616.421 56.56 615.945 56.452 615.529 56.236C615.113 56.02 614.789 55.712 614.557 55.312C614.325 54.912 614.209 54.436 614.209 53.884C614.209 53.348 614.297 52.852 614.473 52.396C614.649 51.94 614.897 51.544 615.217 51.208C615.537 50.864 615.913 50.6 616.345 50.416C616.785 50.232 617.261 50.14 617.773 50.14C618.325 50.14 618.793 50.24 619.177 50.44C619.561 50.632 619.857 50.916 620.065 51.292C620.273 51.66 620.377 52.108 620.377 52.636C620.377 53.204 620.297 53.728 620.137 54.208C619.985 54.688 619.757 55.104 619.453 55.456C619.149 55.808 618.785 56.08 618.361 56.272C617.945 56.464 617.477 56.56 616.957 56.56ZM617.137 55.804C617.665 55.804 618.133 55.68 618.541 55.432C618.957 55.176 619.281 54.824 619.513 54.376C619.753 53.928 619.873 53.42 619.873 52.852C619.873 52.228 619.689 51.744 619.321 51.4C618.961 51.056 618.453 50.884 617.797 50.884C617.277 50.884 616.809 51.012 616.393 51.268C615.977 51.524 615.649 51.876 615.409 52.324C615.177 52.764 615.061 53.272 615.061 53.848C615.061 54.464 615.241 54.944 615.601 55.288C615.969 55.632 616.481 55.804 617.137 55.804ZM619.213 56.5L619.573 54.688L619.933 53.416L620.053 52.096L620.953 47.596H621.805L620.029 56.5H619.213ZM625.938 58.888C625.642 58.888 625.358 58.836 625.086 58.732C624.814 58.636 624.598 58.5 624.438 58.324L624.894 57.7C625.03 57.844 625.19 57.956 625.374 58.036C625.558 58.116 625.766 58.156 625.998 58.156C626.27 58.156 626.518 58.08 626.742 57.928C626.974 57.784 627.214 57.52 627.462 57.136L628.098 56.164L628.206 56.044L631.95 50.2H632.826L628.218 57.316C627.954 57.716 627.706 58.028 627.474 58.252C627.242 58.484 627.002 58.648 626.754 58.744C626.514 58.84 626.242 58.888 625.938 58.888ZM627.954 56.68L626.334 50.2H627.198L628.614 55.984L627.954 56.68ZM635.83 56.56C635.23 56.56 634.706 56.452 634.258 56.236C633.818 56.012 633.478 55.7 633.238 55.3C633.006 54.9 632.89 54.424 632.89 53.872C632.89 53.152 633.042 52.512 633.346 51.952C633.65 51.392 634.066 50.952 634.594 50.632C635.122 50.304 635.718 50.14 636.382 50.14C636.942 50.14 637.426 50.248 637.834 50.464C638.242 50.672 638.558 50.976 638.782 51.376C639.014 51.776 639.13 52.256 639.13 52.816C639.13 52.944 639.122 53.076 639.106 53.212C639.09 53.34 639.07 53.464 639.046 53.584H633.514L633.622 52.948H638.65L638.302 53.188C638.382 52.684 638.346 52.26 638.194 51.916C638.042 51.572 637.806 51.312 637.486 51.136C637.174 50.952 636.798 50.86 636.358 50.86C635.846 50.86 635.39 50.988 634.99 51.244C634.59 51.492 634.278 51.84 634.054 52.288C633.83 52.728 633.718 53.244 633.718 53.836C633.718 54.468 633.898 54.956 634.258 55.3C634.626 55.636 635.174 55.804 635.902 55.804C636.326 55.804 636.718 55.736 637.078 55.6C637.438 55.456 637.734 55.26 637.966 55.012L638.35 55.624C638.054 55.92 637.682 56.152 637.234 56.32C636.794 56.48 636.326 56.56 635.83 56.56ZM642.556 56.56C642.196 56.56 641.888 56.484 641.632 56.332C641.376 56.172 641.196 55.948 641.092 55.66C640.996 55.372 640.988 55.028 641.068 54.628L642.22 48.808H643.072L641.92 54.592C641.84 54.984 641.868 55.288 642.004 55.504C642.148 55.72 642.408 55.828 642.784 55.828C642.96 55.828 643.132 55.804 643.3 55.756C643.468 55.7 643.62 55.616 643.756 55.504L643.96 56.152C643.76 56.304 643.536 56.412 643.288 56.476C643.04 56.532 642.796 56.56 642.556 56.56ZM640.684 50.908L640.816 50.2H644.716L644.572 50.908H640.684ZM646.084 56.56C645.908 56.56 645.76 56.5 645.64 56.38C645.52 56.26 645.46 56.112 645.46 55.936C645.46 55.736 645.528 55.572 645.664 55.444C645.8 55.316 645.956 55.252 646.132 55.252C646.308 55.252 646.452 55.312 646.564 55.432C646.684 55.544 646.744 55.692 646.744 55.876C646.744 56.012 646.712 56.132 646.648 56.236C646.592 56.332 646.512 56.412 646.408 56.476C646.304 56.532 646.196 56.56 646.084 56.56Z" fill="black"/>
<defs>
<filter id="filter0_d_325_6011" x="109.664" y="-0.641602" width="57.1804" height="76.8687" filterUnits="userSpaceOnUse" color-interpolation-filters="sRGB">
<feFlood flood-opacity="0" result="BackgroundImageFix"/>
<feColorMatrix in="SourceAlpha" type="matrix" values="0 0 0 0 0 0 0 0 0 0 0 0 0 0 0 0 0 0 127 0" result="hardAlpha"/>
<feOffset dy="3"/>
<feGaussianBlur stdDeviation="2"/>
<feComposite in2="hardAlpha" operator="out"/>
<feColorMatrix type="matrix" values="0 0 0 0 0.198969 0 0 0 0 0.198969 0 0 0 0 0.198969 0 0 0 0.4 0"/>
<feBlend mode="normal" in2="BackgroundImageFix" result="effect1_dropShadow_325_6011"/>
<feBlend mode="normal" in="SourceGraphic" in2="effect1_dropShadow_325_6011" result="shape"/>
</filter>
<clipPath id="clip0_325_6011">
<rect width="317" height="89" fill="white"/>
</clipPath>
<clipPath id="clip1_325_6011">
<rect width="209.9" height="15.2857" fill="white" transform="translate(106.655 72.748)"/>
</clipPath>
<clipPath id="clip2_325_6011">
<rect width="23.4724" height="33.2469" fill="white" transform="translate(127.076 8.66992)"/>
</clipPath>
</defs>
</svg>
