<svg width="211" height="89" viewBox="0 0 211 89" fill="none" xmlns="http://www.w3.org/2000/svg">
<g clip-path="url(#clip0_325_6061)">
<path d="M0.655273 80.4146H400.655" stroke="#D3D2D2" stroke-width="6" stroke-linecap="round" stroke-dasharray="10 10"/>
<path d="M30.3792 80.3911L77.9627 80.3911L123.671 80.3911" stroke="#196EC1" stroke-width="6" stroke-linecap="square"/>
<circle cx="32.2075" cy="80.4146" r="6.5" fill="#196EC1" stroke="#196EC1"/>
</g>
<ellipse cx="113.678" cy="54.0653" rx="4.03653" ry="6.45397" fill="#474747"/>
<ellipse cx="113.678" cy="43.535" rx="3.36377" ry="3.39683" fill="#474747"/>
<path d="M116.73 43.9232C116.868 44.3114 117.215 44.3114 117.354 43.9232L117.666 43.0497C117.804 42.6615 117.631 42.1763 117.354 42.1763H116.73C116.452 42.1763 116.279 42.6615 116.418 43.0497L116.73 43.9232Z" fill="#D3D2D2"/>
<path d="M110.002 43.9232C110.141 44.3114 110.487 44.3114 110.626 43.9232L110.938 43.0497C111.077 42.6615 110.903 42.1763 110.626 42.1763H110.002C109.725 42.1763 109.552 42.6615 109.69 43.0497L110.002 43.9232Z" fill="#D3D2D2"/>
<path fill-rule="evenodd" clip-rule="evenodd" d="M114.34 44.2144C114.284 44.5325 114.009 44.7741 113.678 44.7741C113.347 44.7741 113.071 44.5325 113.015 44.2144C112.465 44.4473 112.332 44.9637 112.332 45.2482C112.332 45.4535 112.563 45.4535 113.677 45.4535H113.678H113.678C114.792 45.4535 115.023 45.4535 115.023 45.2482C115.023 44.9637 114.891 44.4473 114.34 44.2144Z" fill="#D3D2D2"/>
<ellipse cx="124.778" cy="54.0653" rx="4.03653" ry="6.45397" fill="#474747"/>
<mask id="mask0_325_6061" style="mask-type:alpha" maskUnits="userSpaceOnUse" x="120" y="47" width="9" height="14">
<ellipse cx="124.778" cy="54.0653" rx="4.03653" ry="6.45397" fill="#474747"/>
</mask>
<g mask="url(#mask0_325_6061)">
<rect x="118.873" y="47.5025" width="11.8096" height="6.07315" fill="#0A427A" stroke="white" stroke-width="0.3"/>
</g>
<ellipse cx="124.778" cy="43.535" rx="3.36377" ry="3.39683" fill="#474747"/>
<rect width="8.74651" height="3.39656" rx="1.69828" transform="matrix(0.995878 0.0907065 -0.088964 0.996035 123.735 47.6113)" fill="#474747"/>
<mask id="mask1_325_6061" style="mask-type:alpha" maskUnits="userSpaceOnUse" x="123" y="47" width="10" height="5">
<rect width="8.74651" height="3.39656" rx="1.69828" transform="matrix(0.995878 0.0907065 -0.088964 0.996035 123.735 47.6113)" fill="#474747"/>
</mask>
<g mask="url(#mask1_325_6061)">
<rect x="0.133749" y="0.164931" width="7.77392" height="5.81365" transform="matrix(0.994489 0.104839 -0.10283 0.994699 120.423 45.1534)" fill="#0A427A" stroke="white" stroke-width="0.3"/>
</g>
<path fill-rule="evenodd" clip-rule="evenodd" d="M92.171 50.209C89.4816 50.209 87.3015 52.1756 87.3015 54.6015V64.1593C87.3015 66.5852 89.4816 68.5518 92.171 68.5518H94.4713C94.4635 68.393 94.4596 68.2331 94.4596 68.0723C94.4596 63.0071 98.3512 58.9009 103.152 58.9009C107.952 58.9009 111.844 63.0071 111.844 68.0723C111.844 68.2331 111.84 68.393 111.832 68.5518H137.42C137.412 68.393 137.408 68.2331 137.408 68.0723C137.408 63.0071 141.3 58.9009 146.1 58.9009C150.901 58.9009 154.792 63.0071 154.792 68.0723C154.792 68.2331 154.788 68.393 154.781 68.5518H159.126C161.815 68.5518 163.996 66.5852 163.996 64.1593V54.6015C163.996 52.1756 161.815 50.209 159.126 50.209H92.171Z" fill="#0080FF"/>
<path fill-rule="evenodd" clip-rule="evenodd" d="M103.152 74.6963C106.774 74.6963 109.711 71.7308 109.711 68.0725C109.711 64.4143 106.774 61.4487 103.152 61.4487C99.529 61.4487 96.5923 64.4143 96.5923 68.0725C96.5923 71.7308 99.529 74.6963 103.152 74.6963ZM146.1 74.6963C149.723 74.6963 152.66 71.7308 152.66 68.0725C152.66 64.4143 149.723 61.4487 146.1 61.4487C142.478 61.4487 139.541 64.4143 139.541 68.0725C139.541 71.7308 142.478 74.6963 146.1 74.6963Z" fill="#474747"/>
<path d="M104.474 32.8853C101.678 32.8853 99.4111 34.8689 99.4111 37.3159V52.8231C99.4111 55.2701 101.678 57.2538 104.474 57.2538H111.858C109.072 57.2427 106.818 55.2633 106.818 52.8232V39.7267C106.818 39.115 107.385 38.6191 108.084 38.6191H128.634C128.967 38.6191 129.287 38.7342 129.524 38.9394L138.628 49.6739C141.837 52.4533 139.598 57.2366 135.091 57.2538H144.795C149.393 57.2538 151.61 52.3231 148.245 49.5809L132.511 34.0736C131.573 33.3099 130.341 32.8853 129.06 32.8853H104.474Z" fill="#0080FF"/>
<g filter="url(#filter0_d_325_6061)">
<path d="M56.3439 26.1909C56.3439 29.6596 55.2283 33.6216 53.4262 37.7476C51.6267 41.8676 49.1577 46.1175 46.4858 50.1525C41.346 57.9143 35.4794 64.8452 32.253 68.4765C29.0152 64.846 23.1483 57.9149 18.0116 50.1526C15.3414 46.1176 12.875 41.8678 11.0776 37.7478C9.2776 33.6218 8.16357 29.6597 8.16357 26.1909C8.16357 12.1921 19.5425 0.858398 32.8392 0.858398C46.1057 0.858398 56.3439 12.1604 56.3439 26.1909Z" fill="#0080FF" stroke="#0080FF"/>
<ellipse cx="32.2538" cy="26.4809" rx="18.891" ry="20.0683" fill="white"/>
</g>
<g clip-path="url(#clip1_325_6061)">
<rect x="25.4775" y="27.043" width="2.93405" height="14.8736" rx="1.46703" fill="#474747"/>
<rect x="31.3457" y="27.043" width="2.93405" height="14.8736" rx="1.46703" fill="#474747"/>
<path fill-rule="evenodd" clip-rule="evenodd" d="M33.4488 18.9211C32.6924 19.2674 32.2858 20.1901 32.5406 20.9821L35.3666 29.7631C35.6215 30.555 36.4412 30.9162 37.1976 30.5699C37.954 30.2236 38.3606 29.3008 38.1058 28.5089L35.2798 19.7279C35.025 18.936 34.2052 18.5747 33.4488 18.9211ZM26.195 18.9211C25.4386 18.5747 24.6188 18.936 24.3639 19.7279L21.538 28.5089C21.2831 29.3008 21.6897 30.2236 22.4461 30.5699C23.2025 30.9162 24.0223 30.555 24.2771 29.7631L27.1031 20.9821C27.3579 20.1901 26.9514 19.2674 26.195 18.9211Z" fill="#474747"/>
<ellipse cx="29.8785" cy="13.0445" rx="3.66757" ry="4.37459" fill="#474747"/>
<path fill-rule="evenodd" clip-rule="evenodd" d="M30.6008 14.0732C30.5398 14.483 30.2397 14.7941 29.8786 14.7941C29.5176 14.7941 29.2175 14.483 29.1565 14.0732C28.5564 14.3732 28.4116 15.0382 28.4116 15.4047C28.4116 15.669 28.6633 15.669 29.8783 15.669H29.8786H29.879C31.094 15.669 31.3457 15.669 31.3457 15.4047C31.3457 15.0382 31.2009 14.3732 30.6008 14.0732Z" fill="#D3D2D2"/>
<path d="M33.2061 13.5442C33.3573 14.0442 33.7352 14.0442 33.8864 13.5442L34.2266 12.4193C34.3777 11.9194 34.1888 11.2944 33.8864 11.2944H33.2061C32.9037 11.2944 32.7148 11.9194 32.866 12.4193L33.2061 13.5442Z" fill="#D3D2D2"/>
<path d="M25.8709 13.5442C26.0221 14.0442 26.4 14.0442 26.5512 13.5442L26.8914 12.4193C27.0425 11.9194 26.8536 11.2944 26.5512 11.2944H25.8709C25.5685 11.2944 25.3796 11.9194 25.5307 12.4193L25.8709 13.5442Z" fill="#D3D2D2"/>
<path d="M24.5396 19.0248C24.6604 18.5927 25.0546 18.2939 25.5032 18.2939C28.5549 18.2939 30.9176 18.2939 34.2567 18.2939C34.7041 18.2939 35.0972 18.5911 35.219 19.0216L36.4801 23.4773L34.2796 24.4183V31.4177H25.4774V24.4183L23.2769 23.5434L24.5396 19.0248Z" fill="#474747"/>
<path fill-rule="evenodd" clip-rule="evenodd" d="M37.1455 31.4715C37.2104 30.453 37.8873 29.668 38.7008 29.668H41.2809C42.0944 29.668 42.7713 30.453 42.8362 31.4715L43.3766 39.957H42.2188L41.7203 32.256C41.6983 31.7639 41.4275 31.3818 41.1008 31.3818H38.8809C38.5542 31.3818 38.2834 31.7639 38.2614 32.256L37.636 41.9168H36.4802L37.1455 31.4715Z" fill="#474747"/>
<rect x="37.3062" y="33.0977" width="5.36919" height="1.46986" fill="#474747"/>
<ellipse cx="42.8819" cy="40.6922" rx="1.03254" ry="1.22488" fill="#0080FF"/>
</g>
<path d="M37.4915 80.1023C37.4915 83.0699 35.137 85.4581 32.2538 85.4581C29.3707 85.4581 27.0161 83.0699 27.0161 80.1023C27.0161 77.1348 29.3707 74.7466 32.2538 74.7466C35.137 74.7466 37.4915 77.1348 37.4915 80.1023Z" fill="#196EC1" stroke="#196EC1"/>
<defs>
<filter id="filter0_d_325_6061" x="3.66357" y="-0.641602" width="57.1804" height="76.8687" filterUnits="userSpaceOnUse" color-interpolation-filters="sRGB">
<feFlood flood-opacity="0" result="BackgroundImageFix"/>
<feColorMatrix in="SourceAlpha" type="matrix" values="0 0 0 0 0 0 0 0 0 0 0 0 0 0 0 0 0 0 127 0" result="hardAlpha"/>
<feOffset dy="3"/>
<feGaussianBlur stdDeviation="2"/>
<feComposite in2="hardAlpha" operator="out"/>
<feColorMatrix type="matrix" values="0 0 0 0 0.198969 0 0 0 0 0.198969 0 0 0 0 0.198969 0 0 0 0.4 0"/>
<feBlend mode="normal" in2="BackgroundImageFix" result="effect1_dropShadow_325_6061"/>
<feBlend mode="normal" in="SourceGraphic" in2="effect1_dropShadow_325_6061" result="shape"/>
</filter>
<clipPath id="clip0_325_6061">
<rect width="209.9" height="15.2857" fill="white" transform="translate(0.655273 72.748)"/>
</clipPath>
<clipPath id="clip1_325_6061">
<rect width="23.4724" height="33.2469" fill="white" transform="translate(21.0764 8.66992)"/>
</clipPath>
</defs>
</svg>
