<svg width="481" height="761" viewBox="0 0 481 761" fill="none" xmlns="http://www.w3.org/2000/svg">
<g clip-path="url(#clip0_403_3163)">
<rect x="0.5" width="480" height="761" fill="white"/>
<path d="M-109.5 87.7291H490.5" stroke="#D3D2D2" stroke-width="6" stroke-linecap="round" stroke-dasharray="10 10"/>
<path d="M53.5 87.7291L104.505 87.7291L153.5 87.7291" stroke="#196EC1" stroke-width="6" stroke-linecap="square"/>
<circle cx="50.0522" cy="87.7291" r="6.5" fill="#196EC1" stroke="#196EC1"/>
<ellipse cx="154.795" cy="46.5356" rx="7.36842" ry="11.1548" fill="#474747"/>
<mask id="mask0_403_3163" style="mask-type:alpha" maskUnits="userSpaceOnUse" x="147" y="35" width="16" height="23">
<ellipse cx="154.795" cy="46.5356" rx="7.36842" ry="11.1548" fill="#474747"/>
</mask>
<g mask="url(#mask0_403_3163)">
<rect x="143.892" y="35.0835" width="21.8053" height="10.7151" fill="#0A427A" stroke="white" stroke-width="0.3"/>
</g>
<ellipse cx="154.795" cy="28.3358" rx="6.14035" ry="5.87093" fill="#474747"/>
<rect width="15.9594" height="5.87315" rx="2.93658" transform="matrix(0.996302 0.0859194 -0.0939179 0.99558 152.89 35.3809)" fill="#474747"/>
<mask id="mask1_403_3163" style="mask-type:alpha" maskUnits="userSpaceOnUse" x="152" y="35" width="17" height="8">
<rect width="15.9594" height="5.87315" rx="2.93658" transform="matrix(0.996302 0.0859194 -0.0939179 0.99558 152.89 35.3809)" fill="#474747"/>
</mask>
<g mask="url(#mask1_403_3163)">
<rect x="0.132977" y="0.164012" width="14.43" height="10.273" transform="matrix(0.995056 0.09932 -0.10854 0.994092 146.83 31.1432)" fill="#0A427A" stroke="white" stroke-width="0.3"/>
</g>
<path fill-rule="evenodd" clip-rule="evenodd" d="M95.2722 39.8711C90.363 39.8711 86.3833 43.2701 86.3833 47.463V63.9823C86.3833 68.1751 90.363 71.5741 95.2722 71.5741H99.4713C99.4571 71.2996 99.4499 71.0233 99.4499 70.7453C99.4499 61.9907 106.554 54.8938 115.317 54.8938C124.08 54.8938 131.183 61.9907 131.183 70.7453C131.183 71.0233 131.176 71.2996 131.162 71.5741H177.871C177.857 71.2996 177.85 71.0233 177.85 70.7453C177.85 61.9907 184.954 54.8938 193.717 54.8938C202.48 54.8938 209.583 61.9907 209.583 70.7453C209.583 71.0233 209.576 71.2996 209.562 71.5741H217.494C222.404 71.5741 226.383 68.1751 226.383 63.9823V47.4629C226.383 43.2701 222.404 39.8711 217.494 39.8711H95.2722Z" fill="#0080FF"/>
<path fill-rule="evenodd" clip-rule="evenodd" d="M115.317 82.1936C121.93 82.1936 127.29 77.068 127.29 70.7453C127.29 64.4226 121.93 59.297 115.317 59.297C108.704 59.297 103.343 64.4226 103.343 70.7453C103.343 77.068 108.704 82.1936 115.317 82.1936ZM193.717 82.1936C200.329 82.1936 205.69 77.068 205.69 70.7453C205.69 64.4226 200.329 59.297 193.717 59.297C187.104 59.297 181.743 64.4226 181.743 70.7453C181.743 77.068 187.104 82.1936 193.717 82.1936Z" fill="#474747"/>
<path d="M117.73 9.92932C112.626 9.92932 108.489 13.3578 108.489 17.5871V44.3891C108.489 48.6184 112.626 52.0469 117.73 52.0469H131.209C126.124 52.0278 122.01 48.6066 122.01 44.3892V21.7538C122.01 20.6965 123.044 19.8394 124.32 19.8394H161.832C162.441 19.8394 163.025 20.0384 163.457 20.3931L180.076 38.9462C185.934 43.75 181.846 52.0172 173.62 52.0469H191.334C199.726 52.0469 203.774 43.525 197.632 38.7853L168.909 11.9833C167.199 10.6632 164.948 9.92932 162.611 9.92932H117.73Z" fill="#0080FF"/>
<path d="M338.81 22.0862C338.81 26.21 337.444 30.9146 335.243 35.8071C333.045 40.6933 330.03 45.7319 326.768 50.5141C320.448 59.7812 313.228 68.0481 309.309 72.3245C305.376 68.049 298.155 59.7818 291.839 50.5143C288.579 45.7321 285.567 40.6935 283.372 35.8073C281.173 30.9149 279.81 26.2102 279.81 22.0862C279.81 5.46901 293.725 -8.01257 310.024 -8.01257C326.291 -8.01257 338.81 5.43769 338.81 22.0862Z" fill="#0080FF" stroke="#0080FF"/>
<ellipse cx="309.31" cy="22.4297" rx="23.0471" ry="23.771" fill="white"/>
<g clip-path="url(#clip1_403_3163)">
<rect x="301.043" y="23.0961" width="3.57955" height="17.6179" rx="1.78977" fill="#474747"/>
<rect x="308.202" y="23.0961" width="3.57955" height="17.6179" rx="1.78977" fill="#474747"/>
<path fill-rule="evenodd" clip-rule="evenodd" d="M310.767 13.4754C309.845 13.8856 309.354 14.9953 309.672 15.9539L313.095 26.2806C313.413 27.2392 314.418 27.6837 315.341 27.2735C316.264 26.8633 316.754 25.7536 316.437 24.795L313.014 14.4683C312.696 13.5097 311.69 13.0651 310.767 13.4754ZM301.918 13.4754C300.995 13.0651 299.989 13.5097 299.671 14.4683L296.249 24.795C295.931 25.7536 296.421 26.8633 297.344 27.2735C298.267 27.6837 299.273 27.2392 299.59 26.2806L303.013 15.9539C303.331 14.9953 302.841 13.8856 301.918 13.4754Z" fill="#474747"/>
<ellipse cx="306.412" cy="6.51449" rx="4.47443" ry="5.18173" fill="#474747"/>
<path fill-rule="evenodd" clip-rule="evenodd" d="M307.293 7.73328C307.218 8.21862 306.852 8.58717 306.412 8.58717C305.971 8.58717 305.605 8.21862 305.531 7.73328C304.799 8.08858 304.622 8.87631 304.622 9.31038C304.622 9.62347 304.929 9.62347 306.411 9.62347H306.412H306.412C307.895 9.62347 308.202 9.62347 308.202 9.31038C308.202 8.87631 308.025 8.08858 307.293 7.73328Z" fill="#D3D2D2"/>
<path d="M310.471 7.10666C310.656 7.69886 311.117 7.69886 311.301 7.10666L311.716 5.77422C311.901 5.18202 311.67 4.44177 311.301 4.44177H310.471C310.102 4.44177 309.872 5.18202 310.056 5.77422L310.471 7.10666Z" fill="#D3D2D2"/>
<path d="M301.522 7.10666C301.707 7.69886 302.168 7.69886 302.352 7.10666L302.767 5.77422C302.952 5.18202 302.721 4.44177 302.352 4.44177H301.522C301.154 4.44177 300.923 5.18202 301.107 5.77422L301.522 7.10666Z" fill="#D3D2D2"/>
<path d="M299.939 13.4559C300.063 13.0276 300.455 12.7325 300.901 12.7325C304.761 12.7325 307.697 12.7325 311.925 12.7325C312.369 12.7325 312.762 13.0259 312.886 13.4527L314.466 18.8722L311.781 19.9869V28.2777H301.043V19.9869L298.358 18.9506L299.939 13.4559Z" fill="#474747"/>
<path fill-rule="evenodd" clip-rule="evenodd" d="M315.277 28.3414C315.357 27.1349 316.182 26.2051 317.175 26.2051H320.323C321.315 26.2051 322.141 27.1349 322.22 28.3414L322.879 38.3925H321.467L320.859 29.2706C320.832 28.6877 320.501 28.2351 320.103 28.2351H317.395C316.996 28.2351 316.666 28.6877 316.639 29.2706L315.876 40.7139H314.466L315.277 28.3414Z" fill="#474747"/>
<rect x="315.474" y="30.2676" width="6.55041" height="1.74106" fill="#474747"/>
<ellipse cx="322.276" cy="39.263" rx="1.25969" ry="1.45088" fill="#0080FF"/>
</g>
<path d="M315.81 85.9443C315.81 89.4946 312.904 92.3804 309.31 92.3804C305.715 92.3804 302.81 89.4946 302.81 85.9443C302.81 82.3939 305.715 79.5081 309.31 79.5081C312.904 79.5081 315.81 82.3939 315.81 85.9443Z" fill="#196EC1" stroke="#196EC1"/>
<path d="M53.5059 105.724C51.9108 105.724 50.6758 106.326 49.8008 107.529C48.9258 108.723 48.4883 110.391 48.4883 112.533C48.4883 116.99 50.1608 119.218 53.5059 119.218C54.9095 119.218 56.6094 118.867 58.6055 118.165V121.72C56.9648 122.404 55.1328 122.745 53.1094 122.745C50.2018 122.745 47.9779 121.866 46.4375 120.107C44.8971 118.339 44.127 115.805 44.127 112.505C44.127 110.427 44.5052 108.609 45.2617 107.05C46.0182 105.482 47.1029 104.284 48.5156 103.454C49.9375 102.616 51.6009 102.197 53.5059 102.197C55.4473 102.197 57.3978 102.666 59.3574 103.605L57.9902 107.05C57.2428 106.695 56.4909 106.385 55.7344 106.12C54.9779 105.856 54.235 105.724 53.5059 105.724ZM66.7129 122.472H62.543V101.199H66.7129V122.472ZM74.4238 114.802C74.4238 116.315 74.6699 117.459 75.1621 118.234C75.6634 119.009 76.4746 119.396 77.5957 119.396C78.7077 119.396 79.5052 119.013 79.9883 118.247C80.4805 117.473 80.7266 116.324 80.7266 114.802C80.7266 113.289 80.4805 112.154 79.9883 111.398C79.4961 110.641 78.6895 110.263 77.5684 110.263C76.4564 110.263 75.6543 110.641 75.1621 111.398C74.6699 112.145 74.4238 113.28 74.4238 114.802ZM84.9922 114.802C84.9922 117.29 84.3359 119.236 83.0234 120.64C81.7109 122.044 79.8835 122.745 77.541 122.745C76.0736 122.745 74.7793 122.426 73.6582 121.788C72.5371 121.141 71.6758 120.216 71.0742 119.013C70.4727 117.81 70.1719 116.406 70.1719 114.802C70.1719 112.305 70.8236 110.363 72.127 108.978C73.4303 107.592 75.2624 106.9 77.623 106.9C79.0905 106.9 80.3848 107.219 81.5059 107.857C82.627 108.495 83.4883 109.411 84.0898 110.605C84.6914 111.799 84.9922 113.198 84.9922 114.802ZM94.6445 122.745C89.8867 122.745 87.5078 120.134 87.5078 114.911C87.5078 112.314 88.1549 110.331 89.4492 108.964C90.7435 107.588 92.5983 106.9 95.0137 106.9C96.7819 106.9 98.3678 107.246 99.7715 107.939L98.541 111.165C97.8848 110.901 97.2741 110.687 96.709 110.523C96.1439 110.35 95.5788 110.263 95.0137 110.263C92.8444 110.263 91.7598 111.803 91.7598 114.884C91.7598 117.874 92.8444 119.369 95.0137 119.369C95.8158 119.369 96.5586 119.264 97.2422 119.054C97.9258 118.835 98.6094 118.498 99.293 118.042V121.611C98.6185 122.039 97.9349 122.335 97.2422 122.499C96.5586 122.663 95.6927 122.745 94.6445 122.745ZM106.854 114.16L108.672 111.835L112.951 107.187H117.654L111.584 113.818L118.023 122.472H113.211L108.809 116.279L107.018 117.714V122.472H102.848V101.199H107.018V110.687L106.799 114.16H106.854ZM127.307 103.236C127.307 101.878 128.063 101.199 129.576 101.199C131.089 101.199 131.846 101.878 131.846 103.236C131.846 103.883 131.654 104.389 131.271 104.753C130.898 105.109 130.333 105.286 129.576 105.286C128.063 105.286 127.307 104.603 127.307 103.236ZM131.654 122.472H127.484V107.187H131.654V122.472ZM150.152 122.472H145.982V113.544C145.982 112.441 145.786 111.617 145.395 111.07C145.003 110.514 144.378 110.236 143.521 110.236C142.355 110.236 141.512 110.628 140.992 111.411C140.473 112.186 140.213 113.476 140.213 115.281V122.472H136.043V107.187H139.229L139.789 109.142H140.021C140.486 108.404 141.124 107.848 141.936 107.474C142.756 107.091 143.686 106.9 144.725 106.9C146.502 106.9 147.851 107.383 148.771 108.349C149.692 109.306 150.152 110.691 150.152 112.505V122.472Z" fill="black"/>
<path d="M52.999 141.575C50.9593 141.575 49.347 142.256 48.1621 143.619C46.9857 144.973 46.3975 146.83 46.3975 149.192C46.3975 151.621 46.9645 153.5 48.0986 154.828C49.2412 156.149 50.8662 156.809 52.9736 156.809C54.2686 156.809 55.7454 156.576 57.4043 156.111V158.002C56.1178 158.485 54.5309 158.726 52.6436 158.726C49.9098 158.726 47.7982 157.897 46.3086 156.238C44.8275 154.579 44.0869 152.222 44.0869 149.166C44.0869 147.254 44.4424 145.578 45.1533 144.139C45.8727 142.7 46.9053 141.592 48.251 140.813C49.6051 140.034 51.1963 139.645 53.0244 139.645C54.971 139.645 56.6722 140 58.1279 140.711L57.2139 142.565C55.8089 141.905 54.404 141.575 52.999 141.575ZM63.2441 158.472H61.1367V138.718H63.2441V158.472ZM79.7227 151.502C79.7227 153.771 79.1514 155.544 78.0088 156.822C76.8662 158.091 75.2878 158.726 73.2734 158.726C72.0293 158.726 70.9248 158.434 69.96 157.85C68.9951 157.266 68.2503 156.428 67.7256 155.336C67.2008 154.245 66.9385 152.967 66.9385 151.502C66.9385 149.234 67.5055 147.469 68.6396 146.208C69.7738 144.939 71.348 144.304 73.3623 144.304C75.3089 144.304 76.8535 144.952 77.9961 146.246C79.1471 147.541 79.7227 149.293 79.7227 151.502ZM69.1221 151.502C69.1221 153.28 69.4775 154.634 70.1885 155.565C70.8994 156.496 71.9447 156.961 73.3242 156.961C74.7038 156.961 75.749 156.5 76.46 155.578C77.1794 154.647 77.5391 153.288 77.5391 151.502C77.5391 149.733 77.1794 148.392 76.46 147.478C75.749 146.555 74.6953 146.094 73.2988 146.094C71.9193 146.094 70.8783 146.547 70.1758 147.453C69.4733 148.358 69.1221 149.708 69.1221 151.502ZM88.9902 158.726C86.9759 158.726 85.4144 158.108 84.3057 156.872C83.2054 155.628 82.6553 153.872 82.6553 151.604C82.6553 149.276 83.2139 147.478 84.3311 146.208C85.4567 144.939 87.0563 144.304 89.1299 144.304C89.7985 144.304 90.4671 144.376 91.1357 144.52C91.8044 144.664 92.3291 144.833 92.71 145.028L92.0625 146.818C91.597 146.632 91.0892 146.479 90.5391 146.361C89.9889 146.234 89.5023 146.17 89.0791 146.17C86.2523 146.17 84.8389 147.973 84.8389 151.578C84.8389 153.288 85.1816 154.6 85.8672 155.514C86.5612 156.428 87.5853 156.885 88.9395 156.885C90.099 156.885 91.2881 156.635 92.5068 156.136V158.002C91.5758 158.485 90.4036 158.726 88.9902 158.726ZM97.9023 151.35C98.2663 150.834 98.8206 150.157 99.5654 149.319L104.06 144.558H106.561L100.924 150.487L106.954 158.472H104.402L99.4893 151.896L97.9023 153.267V158.472H95.8203V138.718H97.9023V149.192C97.9023 149.657 97.8685 150.377 97.8008 151.35H97.9023ZM118.342 158.472H116.234V144.558H118.342V158.472ZM116.057 140.787C116.057 140.305 116.175 139.954 116.412 139.734C116.649 139.505 116.945 139.391 117.301 139.391C117.639 139.391 117.931 139.505 118.177 139.734C118.422 139.962 118.545 140.314 118.545 140.787C118.545 141.261 118.422 141.617 118.177 141.854C117.931 142.082 117.639 142.197 117.301 142.197C116.945 142.197 116.649 142.082 116.412 141.854C116.175 141.617 116.057 141.261 116.057 140.787ZM132.332 158.472V149.471C132.332 148.337 132.074 147.491 131.558 146.932C131.041 146.373 130.233 146.094 129.133 146.094C127.677 146.094 126.611 146.488 125.934 147.275C125.257 148.062 124.918 149.361 124.918 151.172V158.472H122.811V144.558H124.524L124.867 146.462H124.969C125.4 145.777 126.006 145.248 126.784 144.875C127.563 144.495 128.43 144.304 129.387 144.304C131.062 144.304 132.324 144.71 133.17 145.523C134.016 146.327 134.439 147.618 134.439 149.395V158.472H132.332ZM154.092 158.472L153.673 156.492H153.571C152.877 157.363 152.183 157.956 151.489 158.269C150.804 158.574 149.945 158.726 148.912 158.726C147.533 158.726 146.449 158.37 145.662 157.66C144.883 156.949 144.494 155.937 144.494 154.625C144.494 151.815 146.741 150.343 151.235 150.207L153.597 150.131V149.268C153.597 148.176 153.36 147.372 152.886 146.856C152.42 146.331 151.671 146.069 150.639 146.069C149.479 146.069 148.167 146.424 146.703 147.135L146.056 145.523C146.741 145.15 147.49 144.858 148.303 144.647C149.124 144.435 149.945 144.329 150.766 144.329C152.424 144.329 153.652 144.698 154.447 145.434C155.251 146.17 155.653 147.351 155.653 148.976V158.472H154.092ZM149.331 156.987C150.643 156.987 151.671 156.627 152.416 155.908C153.169 155.188 153.546 154.181 153.546 152.886V151.629L151.438 151.718C149.763 151.777 148.552 152.04 147.808 152.505C147.071 152.962 146.703 153.677 146.703 154.651C146.703 155.412 146.932 155.992 147.389 156.39C147.854 156.788 148.502 156.987 149.331 156.987ZM168.983 154.676C168.983 155.971 168.501 156.97 167.536 157.672C166.571 158.375 165.217 158.726 163.474 158.726C161.629 158.726 160.19 158.434 159.157 157.85V155.895C159.826 156.233 160.541 156.5 161.303 156.695C162.073 156.889 162.813 156.987 163.524 156.987C164.625 156.987 165.471 156.813 166.063 156.466C166.656 156.111 166.952 155.573 166.952 154.854C166.952 154.312 166.715 153.851 166.241 153.47C165.776 153.081 164.862 152.624 163.499 152.099C162.204 151.617 161.282 151.198 160.731 150.842C160.19 150.478 159.784 150.068 159.513 149.611C159.25 149.154 159.119 148.608 159.119 147.973C159.119 146.839 159.58 145.946 160.503 145.294C161.425 144.634 162.691 144.304 164.299 144.304C165.797 144.304 167.261 144.609 168.691 145.218L167.942 146.932C166.546 146.356 165.281 146.069 164.146 146.069C163.148 146.069 162.395 146.225 161.887 146.538C161.379 146.852 161.125 147.283 161.125 147.833C161.125 148.206 161.218 148.523 161.404 148.786C161.599 149.048 161.908 149.298 162.331 149.535C162.754 149.772 163.567 150.114 164.769 150.563C166.419 151.164 167.532 151.769 168.107 152.378C168.691 152.988 168.983 153.754 168.983 154.676ZM188.153 154.676C188.153 155.971 187.671 156.97 186.706 157.672C185.741 158.375 184.387 158.726 182.644 158.726C180.799 158.726 179.36 158.434 178.327 157.85V155.895C178.996 156.233 179.711 156.5 180.473 156.695C181.243 156.889 181.983 156.987 182.694 156.987C183.795 156.987 184.641 156.813 185.233 156.466C185.826 156.111 186.122 155.573 186.122 154.854C186.122 154.312 185.885 153.851 185.411 153.47C184.946 153.081 184.032 152.624 182.669 152.099C181.374 151.617 180.451 151.198 179.901 150.842C179.36 150.478 178.953 150.068 178.683 149.611C178.42 149.154 178.289 148.608 178.289 147.973C178.289 146.839 178.75 145.946 179.673 145.294C180.595 144.634 181.861 144.304 183.469 144.304C184.967 144.304 186.431 144.609 187.861 145.218L187.112 146.932C185.716 146.356 184.451 146.069 183.316 146.069C182.318 146.069 181.564 146.225 181.057 146.538C180.549 146.852 180.295 147.283 180.295 147.833C180.295 148.206 180.388 148.523 180.574 148.786C180.769 149.048 181.078 149.298 181.501 149.535C181.924 149.772 182.737 150.114 183.938 150.563C185.589 151.164 186.702 151.769 187.277 152.378C187.861 152.988 188.153 153.754 188.153 154.676ZM203.604 151.502C203.604 153.771 203.032 155.544 201.89 156.822C200.747 158.091 199.169 158.726 197.154 158.726C195.91 158.726 194.806 158.434 193.841 157.85C192.876 157.266 192.131 156.428 191.606 155.336C191.082 154.245 190.819 152.967 190.819 151.502C190.819 149.234 191.386 147.469 192.521 146.208C193.655 144.939 195.229 144.304 197.243 144.304C199.19 144.304 200.734 144.952 201.877 146.246C203.028 147.541 203.604 149.293 203.604 151.502ZM193.003 151.502C193.003 153.28 193.358 154.634 194.069 155.565C194.78 156.496 195.826 156.961 197.205 156.961C198.585 156.961 199.63 156.5 200.341 155.578C201.06 154.647 201.42 153.288 201.42 151.502C201.42 149.733 201.06 148.392 200.341 147.478C199.63 146.555 198.576 146.094 197.18 146.094C195.8 146.094 194.759 146.547 194.057 147.453C193.354 148.358 193.003 149.708 193.003 151.502ZM219.32 151.502C219.32 153.771 218.749 155.544 217.606 156.822C216.464 158.091 214.885 158.726 212.871 158.726C211.627 158.726 210.522 158.434 209.558 157.85C208.593 157.266 207.848 156.428 207.323 155.336C206.799 154.245 206.536 152.967 206.536 151.502C206.536 149.234 207.103 147.469 208.237 146.208C209.371 144.939 210.946 144.304 212.96 144.304C214.907 144.304 216.451 144.952 217.594 146.246C218.745 147.541 219.32 149.293 219.32 151.502ZM208.72 151.502C208.72 153.28 209.075 154.634 209.786 155.565C210.497 156.496 211.542 156.961 212.922 156.961C214.301 156.961 215.347 156.5 216.058 155.578C216.777 154.647 217.137 153.288 217.137 151.502C217.137 149.733 216.777 148.392 216.058 147.478C215.347 146.555 214.293 146.094 212.896 146.094C211.517 146.094 210.476 146.547 209.773 147.453C209.071 148.358 208.72 149.708 208.72 151.502ZM232.549 158.472V149.471C232.549 148.337 232.291 147.491 231.774 146.932C231.258 146.373 230.45 146.094 229.35 146.094C227.894 146.094 226.827 146.488 226.15 147.275C225.473 148.062 225.135 149.361 225.135 151.172V158.472H223.027V144.558H224.741L225.084 146.462H225.186C225.617 145.777 226.222 145.248 227.001 144.875C227.78 144.495 228.647 144.304 229.604 144.304C231.279 144.304 232.54 144.71 233.387 145.523C234.233 146.327 234.656 147.618 234.656 149.395V158.472H232.549ZM254.309 158.472L253.89 156.492H253.788C253.094 157.363 252.4 157.956 251.706 158.269C251.021 158.574 250.161 158.726 249.129 158.726C247.749 158.726 246.666 158.37 245.879 157.66C245.1 156.949 244.711 155.937 244.711 154.625C244.711 151.815 246.958 150.343 251.452 150.207L253.813 150.131V149.268C253.813 148.176 253.576 147.372 253.103 146.856C252.637 146.331 251.888 146.069 250.855 146.069C249.696 146.069 248.384 146.424 246.92 147.135L246.272 145.523C246.958 145.15 247.707 144.858 248.52 144.647C249.34 144.435 250.161 144.329 250.982 144.329C252.641 144.329 253.868 144.698 254.664 145.434C255.468 146.17 255.87 147.351 255.87 148.976V158.472H254.309ZM249.548 156.987C250.86 156.987 251.888 156.627 252.633 155.908C253.386 155.188 253.763 154.181 253.763 152.886V151.629L251.655 151.718C249.979 151.777 248.769 152.04 248.024 152.505C247.288 152.962 246.92 153.677 246.92 154.651C246.92 155.412 247.148 155.992 247.605 156.39C248.071 156.788 248.718 156.987 249.548 156.987ZM269.2 154.676C269.2 155.971 268.718 156.97 267.753 157.672C266.788 158.375 265.434 158.726 263.69 158.726C261.845 158.726 260.407 158.434 259.374 157.85V155.895C260.043 156.233 260.758 156.5 261.52 156.695C262.29 156.889 263.03 156.987 263.741 156.987C264.841 156.987 265.688 156.813 266.28 156.466C266.873 156.111 267.169 155.573 267.169 154.854C267.169 154.312 266.932 153.851 266.458 153.47C265.993 153.081 265.078 152.624 263.716 152.099C262.421 151.617 261.498 151.198 260.948 150.842C260.407 150.478 260 150.068 259.729 149.611C259.467 149.154 259.336 148.608 259.336 147.973C259.336 146.839 259.797 145.946 260.72 145.294C261.642 144.634 262.908 144.304 264.516 144.304C266.014 144.304 267.478 144.609 268.908 145.218L268.159 146.932C266.763 146.356 265.497 146.069 264.363 146.069C263.365 146.069 262.611 146.225 262.104 146.538C261.596 146.852 261.342 147.283 261.342 147.833C261.342 148.206 261.435 148.523 261.621 148.786C261.816 149.048 262.125 149.298 262.548 149.535C262.971 149.772 263.784 150.114 264.985 150.563C266.636 151.164 267.749 151.769 268.324 152.378C268.908 152.988 269.2 153.754 269.2 154.676ZM277.186 144.558H279.445L282.492 152.493C283.161 154.304 283.576 155.611 283.736 156.415H283.838C283.948 155.984 284.176 155.247 284.523 154.206C284.879 153.157 286.03 149.941 287.977 144.558H290.236L284.257 160.402C283.664 161.967 282.97 163.076 282.175 163.728C281.388 164.388 280.419 164.718 279.268 164.718C278.624 164.718 277.99 164.646 277.363 164.502V162.814C277.829 162.915 278.349 162.966 278.925 162.966C280.372 162.966 281.405 162.154 282.022 160.529L282.797 158.548L277.186 144.558ZM304.506 151.502C304.506 153.771 303.935 155.544 302.792 156.822C301.649 158.091 300.071 158.726 298.057 158.726C296.812 158.726 295.708 158.434 294.743 157.85C293.778 157.266 293.034 156.428 292.509 155.336C291.984 154.245 291.722 152.967 291.722 151.502C291.722 149.234 292.289 147.469 293.423 146.208C294.557 144.939 296.131 144.304 298.146 144.304C300.092 144.304 301.637 144.952 302.779 146.246C303.93 147.541 304.506 149.293 304.506 151.502ZM293.905 151.502C293.905 153.28 294.261 154.634 294.972 155.565C295.683 156.496 296.728 156.961 298.107 156.961C299.487 156.961 300.532 156.5 301.243 155.578C301.963 154.647 302.322 153.288 302.322 151.502C302.322 149.733 301.963 148.392 301.243 147.478C300.532 146.555 299.479 146.094 298.082 146.094C296.702 146.094 295.661 146.547 294.959 147.453C294.257 148.358 293.905 149.708 293.905 151.502ZM310.193 144.558V153.584C310.193 154.718 310.451 155.565 310.968 156.123C311.484 156.682 312.292 156.961 313.393 156.961C314.848 156.961 315.91 156.564 316.579 155.768C317.256 154.972 317.595 153.673 317.595 151.87V144.558H319.702V158.472H317.963L317.658 156.606H317.544C317.112 157.291 316.511 157.816 315.741 158.18C314.979 158.544 314.108 158.726 313.126 158.726C311.433 158.726 310.164 158.324 309.317 157.52C308.479 156.716 308.061 155.429 308.061 153.661V144.558H310.193ZM51.209 179.329C53.0371 179.329 54.4548 179.956 55.4619 181.208C56.4775 182.453 56.9854 184.217 56.9854 186.502C56.9854 188.787 56.4733 190.565 55.4492 191.834C54.4336 193.095 53.0202 193.726 51.209 193.726C50.3034 193.726 49.474 193.561 48.7207 193.231C47.9759 192.892 47.3496 192.376 46.8418 191.682H46.6895L46.2451 193.472H44.7344V173.718H46.8418V178.517C46.8418 179.592 46.8079 180.557 46.7402 181.411H46.8418C47.8236 180.023 49.2793 179.329 51.209 179.329ZM50.9043 181.094C49.4655 181.094 48.4287 181.509 47.7939 182.338C47.1592 183.159 46.8418 184.547 46.8418 186.502C46.8418 188.457 47.1676 189.858 47.8193 190.704C48.471 191.542 49.5163 191.961 50.9551 191.961C52.25 191.961 53.2148 191.492 53.8496 190.552C54.4844 189.604 54.8018 188.246 54.8018 186.477C54.8018 184.666 54.4844 183.316 53.8496 182.427C53.2148 181.538 52.2331 181.094 50.9043 181.094ZM66.5576 193.726C64.501 193.726 62.876 193.1 61.6826 191.847C60.4977 190.594 59.9053 188.855 59.9053 186.629C59.9053 184.386 60.4554 182.605 61.5557 181.285C62.6644 179.964 64.1497 179.304 66.0117 179.304C67.7552 179.304 69.1348 179.88 70.1504 181.031C71.166 182.173 71.6738 183.684 71.6738 185.563V186.896H62.0889C62.1312 188.529 62.5417 189.769 63.3203 190.616C64.1074 191.462 65.2119 191.885 66.6338 191.885C68.1318 191.885 69.613 191.572 71.0771 190.946V192.825C70.3324 193.146 69.6257 193.375 68.957 193.51C68.2969 193.654 67.4971 193.726 66.5576 193.726ZM65.9863 181.069C64.8691 181.069 63.9762 181.433 63.3076 182.161C62.6475 182.888 62.2581 183.896 62.1396 185.182H69.4141C69.4141 183.853 69.1178 182.838 68.5254 182.135C67.9329 181.424 67.0866 181.069 65.9863 181.069ZM86.667 179.558V180.891L84.0898 181.196C84.3268 181.492 84.5384 181.881 84.7246 182.364C84.9108 182.838 85.0039 183.375 85.0039 183.976C85.0039 185.339 84.5384 186.426 83.6074 187.239C82.6764 188.051 81.3984 188.457 79.7734 188.457C79.3587 188.457 78.9694 188.424 78.6055 188.356C77.7083 188.83 77.2598 189.426 77.2598 190.146C77.2598 190.527 77.4163 190.81 77.7295 190.996C78.0426 191.174 78.5801 191.263 79.3418 191.263H81.8047C83.3112 191.263 84.4665 191.58 85.2705 192.215C86.083 192.85 86.4893 193.773 86.4893 194.983C86.4893 196.523 85.8714 197.695 84.6357 198.499C83.4001 199.312 81.5973 199.718 79.2275 199.718C77.4079 199.718 76.0029 199.38 75.0127 198.703C74.0309 198.025 73.54 197.069 73.54 195.833C73.54 194.987 73.8109 194.255 74.3525 193.637C74.8942 193.019 75.6559 192.6 76.6377 192.38C76.2822 192.219 75.9818 191.97 75.7363 191.631C75.4993 191.293 75.3809 190.899 75.3809 190.451C75.3809 189.943 75.5163 189.498 75.7871 189.118C76.0579 188.737 76.4854 188.369 77.0693 188.013C76.3499 187.717 75.7617 187.213 75.3047 186.502C74.8561 185.791 74.6318 184.979 74.6318 184.065C74.6318 182.541 75.0889 181.369 76.0029 180.548C76.917 179.719 78.2119 179.304 79.8877 179.304C80.6156 179.304 81.2715 179.389 81.8555 179.558H86.667ZM75.5713 195.808C75.5713 196.561 75.8887 197.133 76.5234 197.522C77.1582 197.911 78.068 198.106 79.2529 198.106C81.0218 198.106 82.3294 197.839 83.1758 197.306C84.0306 196.781 84.458 196.066 84.458 195.161C84.458 194.407 84.2253 193.883 83.7598 193.586C83.2943 193.299 82.4183 193.155 81.1318 193.155H78.6055C77.6491 193.155 76.9043 193.383 76.3711 193.84C75.8379 194.297 75.5713 194.953 75.5713 195.808ZM76.7139 184.014C76.7139 184.987 76.9889 185.724 77.5391 186.223C78.0892 186.722 78.8551 186.972 79.8369 186.972C81.8936 186.972 82.9219 185.973 82.9219 183.976C82.9219 181.885 81.8809 180.84 79.7988 180.84C78.8086 180.84 78.0469 181.107 77.5137 181.64C76.9805 182.173 76.7139 182.965 76.7139 184.014ZM91.6309 193.472H89.5234V179.558H91.6309V193.472ZM89.3457 175.787C89.3457 175.305 89.4642 174.954 89.7012 174.734C89.9382 174.505 90.2344 174.391 90.5898 174.391C90.9284 174.391 91.2204 174.505 91.4658 174.734C91.7113 174.962 91.834 175.314 91.834 175.787C91.834 176.261 91.7113 176.617 91.4658 176.854C91.2204 177.082 90.9284 177.197 90.5898 177.197C90.2344 177.197 89.9382 177.082 89.7012 176.854C89.4642 176.617 89.3457 176.261 89.3457 175.787ZM105.621 193.472V184.471C105.621 183.337 105.363 182.491 104.847 181.932C104.33 181.373 103.522 181.094 102.422 181.094C100.966 181.094 99.8997 181.488 99.2227 182.275C98.5456 183.062 98.207 184.361 98.207 186.172V193.472H96.0996V179.558H97.8135L98.1562 181.462H98.2578C98.6895 180.777 99.2946 180.248 100.073 179.875C100.852 179.495 101.719 179.304 102.676 179.304C104.352 179.304 105.613 179.71 106.459 180.523C107.305 181.327 107.729 182.618 107.729 184.395V193.472H105.621ZM123.318 191.987C123.691 191.987 124.05 191.961 124.397 191.911C124.744 191.851 125.02 191.792 125.223 191.733V193.345C124.994 193.455 124.656 193.544 124.207 193.612C123.767 193.688 123.369 193.726 123.014 193.726C120.322 193.726 118.977 192.308 118.977 189.473V181.196H116.983V180.18L118.977 179.304L119.865 176.333H121.084V179.558H125.121V181.196H121.084V189.384C121.084 190.222 121.283 190.865 121.681 191.314C122.078 191.762 122.624 191.987 123.318 191.987ZM137.537 193.472V184.471C137.537 183.337 137.279 182.491 136.763 181.932C136.246 181.373 135.438 181.094 134.338 181.094C132.874 181.094 131.803 181.492 131.126 182.287C130.457 183.083 130.123 184.386 130.123 186.198V193.472H128.016V173.718H130.123V179.698C130.123 180.417 130.089 181.014 130.021 181.488H130.148C130.563 180.819 131.151 180.294 131.913 179.913C132.683 179.524 133.559 179.329 134.541 179.329C136.242 179.329 137.516 179.736 138.362 180.548C139.217 181.352 139.645 182.634 139.645 184.395V193.472H137.537ZM149.864 193.726C147.808 193.726 146.183 193.1 144.989 191.847C143.804 190.594 143.212 188.855 143.212 186.629C143.212 184.386 143.762 182.605 144.862 181.285C145.971 179.964 147.456 179.304 149.318 179.304C151.062 179.304 152.441 179.88 153.457 181.031C154.473 182.173 154.98 183.684 154.98 185.563V186.896H145.396C145.438 188.529 145.848 189.769 146.627 190.616C147.414 191.462 148.519 191.885 149.94 191.885C151.438 191.885 152.92 191.572 154.384 190.946V192.825C153.639 193.146 152.932 193.375 152.264 193.51C151.604 193.654 150.804 193.726 149.864 193.726ZM149.293 181.069C148.176 181.069 147.283 181.433 146.614 182.161C145.954 182.888 145.565 183.896 145.446 185.182H152.721C152.721 183.853 152.424 182.838 151.832 182.135C151.24 181.424 150.393 181.069 149.293 181.069ZM171.688 179.304C172.305 179.304 172.86 179.355 173.351 179.456L173.059 181.411C172.483 181.285 171.975 181.221 171.535 181.221C170.41 181.221 169.445 181.678 168.641 182.592C167.845 183.506 167.447 184.645 167.447 186.007V193.472H165.34V179.558H167.079L167.32 182.135H167.422C167.938 181.23 168.56 180.531 169.288 180.04C170.016 179.55 170.816 179.304 171.688 179.304ZM178.061 193.472H175.953V179.558H178.061V193.472ZM175.775 175.787C175.775 175.305 175.894 174.954 176.131 174.734C176.368 174.505 176.664 174.391 177.02 174.391C177.358 174.391 177.65 174.505 177.896 174.734C178.141 174.962 178.264 175.314 178.264 175.787C178.264 176.261 178.141 176.617 177.896 176.854C177.65 177.082 177.358 177.197 177.02 177.197C176.664 177.197 176.368 177.082 176.131 176.854C175.894 176.617 175.775 176.261 175.775 175.787ZM192 191.606H191.886C190.912 193.019 189.457 193.726 187.519 193.726C185.699 193.726 184.281 193.104 183.266 191.86C182.258 190.616 181.755 188.847 181.755 186.553C181.755 184.259 182.263 182.478 183.278 181.208C184.294 179.939 185.707 179.304 187.519 179.304C189.406 179.304 190.853 179.99 191.86 181.361H192.025L191.937 180.358L191.886 179.38V173.718H193.993V193.472H192.279L192 191.606ZM187.785 191.961C189.224 191.961 190.265 191.572 190.908 190.793C191.56 190.006 191.886 188.741 191.886 186.997V186.553C191.886 184.581 191.556 183.176 190.896 182.338C190.244 181.492 189.199 181.069 187.76 181.069C186.524 181.069 185.576 181.551 184.916 182.516C184.264 183.472 183.938 184.827 183.938 186.578C183.938 188.356 184.264 189.697 184.916 190.603C185.568 191.509 186.524 191.961 187.785 191.961ZM204.353 193.726C202.296 193.726 200.671 193.1 199.478 191.847C198.293 190.594 197.7 188.855 197.7 186.629C197.7 184.386 198.25 182.605 199.351 181.285C200.459 179.964 201.945 179.304 203.807 179.304C205.55 179.304 206.93 179.88 207.945 181.031C208.961 182.173 209.469 183.684 209.469 185.563V186.896H199.884C199.926 188.529 200.337 189.769 201.115 190.616C201.902 191.462 203.007 191.885 204.429 191.885C205.927 191.885 207.408 191.572 208.872 190.946V192.825C208.127 193.146 207.421 193.375 206.752 193.51C206.092 193.654 205.292 193.726 204.353 193.726ZM203.781 181.069C202.664 181.069 201.771 181.433 201.103 182.161C200.442 182.888 200.053 183.896 199.935 185.182H207.209C207.209 183.853 206.913 182.838 206.32 182.135C205.728 181.424 204.882 181.069 203.781 181.069ZM224.322 191.987C224.695 191.987 225.054 191.961 225.401 191.911C225.748 191.851 226.023 191.792 226.227 191.733V193.345C225.998 193.455 225.66 193.544 225.211 193.612C224.771 193.688 224.373 193.726 224.018 193.726C221.326 193.726 219.98 192.308 219.98 189.473V181.196H217.987V180.18L219.98 179.304L220.869 176.333H222.088V179.558H226.125V181.196H222.088V189.384C222.088 190.222 222.287 190.865 222.685 191.314C223.082 191.762 223.628 191.987 224.322 191.987ZM241.029 186.502C241.029 188.771 240.458 190.544 239.315 191.822C238.173 193.091 236.594 193.726 234.58 193.726C233.336 193.726 232.231 193.434 231.267 192.85C230.302 192.266 229.557 191.428 229.032 190.336C228.507 189.245 228.245 187.967 228.245 186.502C228.245 184.234 228.812 182.469 229.946 181.208C231.08 179.939 232.655 179.304 234.669 179.304C236.616 179.304 238.16 179.952 239.303 181.246C240.454 182.541 241.029 184.293 241.029 186.502ZM230.429 186.502C230.429 188.28 230.784 189.634 231.495 190.565C232.206 191.496 233.251 191.961 234.631 191.961C236.01 191.961 237.056 191.5 237.767 190.578C238.486 189.647 238.846 188.288 238.846 186.502C238.846 184.733 238.486 183.392 237.767 182.478C237.056 181.555 236.002 181.094 234.605 181.094C233.226 181.094 232.185 181.547 231.482 182.453C230.78 183.358 230.429 184.708 230.429 186.502ZM257.965 193.726C257.059 193.726 256.23 193.561 255.477 193.231C254.732 192.892 254.105 192.376 253.598 191.682H253.445C253.547 192.495 253.598 193.265 253.598 193.993V199.718H251.49V179.558H253.204L253.496 181.462H253.598C254.139 180.701 254.77 180.15 255.489 179.812C256.209 179.473 257.034 179.304 257.965 179.304C259.81 179.304 261.232 179.935 262.23 181.196C263.238 182.457 263.741 184.226 263.741 186.502C263.741 188.787 263.229 190.565 262.205 191.834C261.189 193.095 259.776 193.726 257.965 193.726ZM257.66 181.094C256.238 181.094 255.21 181.488 254.575 182.275C253.94 183.062 253.615 184.314 253.598 186.033V186.502C253.598 188.457 253.924 189.858 254.575 190.704C255.227 191.542 256.272 191.961 257.711 191.961C258.913 191.961 259.852 191.475 260.529 190.501C261.215 189.528 261.558 188.187 261.558 186.477C261.558 184.742 261.215 183.413 260.529 182.491C259.852 181.56 258.896 181.094 257.66 181.094ZM269.543 193.472H267.436V179.558H269.543V193.472ZM267.258 175.787C267.258 175.305 267.376 174.954 267.613 174.734C267.85 174.505 268.146 174.391 268.502 174.391C268.84 174.391 269.132 174.505 269.378 174.734C269.623 174.962 269.746 175.314 269.746 175.787C269.746 176.261 269.623 176.617 269.378 176.854C269.132 177.082 268.84 177.197 268.502 177.197C268.146 177.197 267.85 177.082 267.613 176.854C267.376 176.617 267.258 176.261 267.258 175.787ZM279.572 193.726C277.558 193.726 275.996 193.108 274.888 191.872C273.787 190.628 273.237 188.872 273.237 186.604C273.237 184.276 273.796 182.478 274.913 181.208C276.039 179.939 277.638 179.304 279.712 179.304C280.381 179.304 281.049 179.376 281.718 179.52C282.386 179.664 282.911 179.833 283.292 180.028L282.645 181.818C282.179 181.632 281.671 181.479 281.121 181.361C280.571 181.234 280.084 181.17 279.661 181.17C276.834 181.17 275.421 182.973 275.421 186.578C275.421 188.288 275.764 189.6 276.449 190.514C277.143 191.428 278.167 191.885 279.521 191.885C280.681 191.885 281.87 191.635 283.089 191.136V193.002C282.158 193.485 280.986 193.726 279.572 193.726ZM288.484 186.35C288.848 185.834 289.403 185.157 290.147 184.319L294.642 179.558H297.143L291.506 185.487L297.536 193.472H294.984L290.071 186.896L288.484 188.267V193.472H286.402V173.718H288.484V184.192C288.484 184.657 288.451 185.377 288.383 186.35H288.484ZM46.7148 214.558V223.584C46.7148 224.718 46.973 225.565 47.4893 226.123C48.0055 226.682 48.8138 226.961 49.9141 226.961C51.3698 226.961 52.432 226.564 53.1006 225.768C53.7777 224.972 54.1162 223.673 54.1162 221.87V214.558H56.2236V228.472H54.4844L54.1797 226.606H54.0654C53.6338 227.291 53.0329 227.816 52.2627 228.18C51.501 228.544 50.6292 228.726 49.6475 228.726C47.9548 228.726 46.6852 228.324 45.8389 227.52C45.001 226.716 44.582 225.429 44.582 223.661V214.558H46.7148ZM67.1797 228.726C66.2741 228.726 65.4447 228.561 64.6914 228.231C63.9466 227.892 63.3203 227.376 62.8125 226.682H62.6602C62.7617 227.495 62.8125 228.265 62.8125 228.993V234.718H60.7051V214.558H62.4189L62.7109 216.462H62.8125C63.3542 215.701 63.9847 215.15 64.7041 214.812C65.4235 214.473 66.2487 214.304 67.1797 214.304C69.0247 214.304 70.4466 214.935 71.4453 216.196C72.4525 217.457 72.9561 219.226 72.9561 221.502C72.9561 223.787 72.444 225.565 71.4199 226.834C70.4043 228.095 68.9909 228.726 67.1797 228.726ZM66.875 216.094C65.4531 216.094 64.4248 216.488 63.79 217.275C63.1553 218.062 62.8294 219.314 62.8125 221.033V221.502C62.8125 223.457 63.1383 224.858 63.79 225.704C64.4417 226.542 65.487 226.961 66.9258 226.961C68.1276 226.961 69.0671 226.475 69.7441 225.501C70.4297 224.528 70.7725 223.187 70.7725 221.477C70.7725 219.742 70.4297 218.413 69.7441 217.491C69.0671 216.56 68.1107 216.094 66.875 216.094ZM87.8984 226.987C88.2708 226.987 88.6305 226.961 88.9775 226.911C89.3245 226.851 89.5996 226.792 89.8027 226.733V228.345C89.5742 228.455 89.2357 228.544 88.7871 228.612C88.347 228.688 87.9492 228.726 87.5938 228.726C84.9023 228.726 83.5566 227.308 83.5566 224.473V216.196H81.5635V215.18L83.5566 214.304L84.4453 211.333H85.6641V214.558H89.7012V216.196H85.6641V224.384C85.6641 225.222 85.863 225.865 86.2607 226.314C86.6585 226.762 87.2044 226.987 87.8984 226.987ZM102.117 228.472V219.471C102.117 218.337 101.859 217.491 101.343 216.932C100.826 216.373 100.018 216.094 98.918 216.094C97.4538 216.094 96.3831 216.492 95.7061 217.287C95.0374 218.083 94.7031 219.386 94.7031 221.198V228.472H92.5957V208.718H94.7031V214.698C94.7031 215.417 94.6693 216.014 94.6016 216.488H94.7285C95.1432 215.819 95.7314 215.294 96.4932 214.913C97.2633 214.524 98.1393 214.329 99.1211 214.329C100.822 214.329 102.096 214.736 102.942 215.548C103.797 216.352 104.225 217.634 104.225 219.395V228.472H102.117ZM114.444 228.726C112.388 228.726 110.763 228.1 109.569 226.847C108.384 225.594 107.792 223.855 107.792 221.629C107.792 219.386 108.342 217.605 109.442 216.285C110.551 214.964 112.036 214.304 113.898 214.304C115.642 214.304 117.021 214.88 118.037 216.031C119.053 217.173 119.561 218.684 119.561 220.563V221.896H109.976C110.018 223.529 110.428 224.769 111.207 225.616C111.994 226.462 113.099 226.885 114.521 226.885C116.019 226.885 117.5 226.572 118.964 225.946V227.825C118.219 228.146 117.512 228.375 116.844 228.51C116.184 228.654 115.384 228.726 114.444 228.726ZM113.873 216.069C112.756 216.069 111.863 216.433 111.194 217.161C110.534 217.888 110.145 218.896 110.026 220.182H117.301C117.301 218.853 117.005 217.838 116.412 217.135C115.82 216.424 114.973 216.069 113.873 216.069ZM136.395 228.726C135.489 228.726 134.66 228.561 133.906 228.231C133.161 227.892 132.535 227.376 132.027 226.682H131.875C131.977 227.495 132.027 228.265 132.027 228.993V234.718H129.92V214.558H131.634L131.926 216.462H132.027C132.569 215.701 133.2 215.15 133.919 214.812C134.638 214.473 135.464 214.304 136.395 214.304C138.24 214.304 139.661 214.935 140.66 216.196C141.667 217.457 142.171 219.226 142.171 221.502C142.171 223.787 141.659 225.565 140.635 226.834C139.619 228.095 138.206 228.726 136.395 228.726ZM136.09 216.094C134.668 216.094 133.64 216.488 133.005 217.275C132.37 218.062 132.044 219.314 132.027 221.033V221.502C132.027 223.457 132.353 224.858 133.005 225.704C133.657 226.542 134.702 226.961 136.141 226.961C137.342 226.961 138.282 226.475 138.959 225.501C139.645 224.528 139.987 223.187 139.987 221.477C139.987 219.742 139.645 218.413 138.959 217.491C138.282 216.56 137.326 216.094 136.09 216.094ZM154.422 228.472L154.003 226.492H153.901C153.207 227.363 152.513 227.956 151.819 228.269C151.134 228.574 150.275 228.726 149.242 228.726C147.863 228.726 146.779 228.37 145.992 227.66C145.214 226.949 144.824 225.937 144.824 224.625C144.824 221.815 147.071 220.343 151.565 220.207L153.927 220.131V219.268C153.927 218.176 153.69 217.372 153.216 216.856C152.75 216.331 152.001 216.069 150.969 216.069C149.809 216.069 148.497 216.424 147.033 217.135L146.386 215.523C147.071 215.15 147.82 214.858 148.633 214.647C149.454 214.435 150.275 214.329 151.096 214.329C152.755 214.329 153.982 214.698 154.777 215.434C155.581 216.17 155.983 217.351 155.983 218.976V228.472H154.422ZM149.661 226.987C150.973 226.987 152.001 226.627 152.746 225.908C153.499 225.188 153.876 224.181 153.876 222.886V221.629L151.769 221.718C150.093 221.777 148.882 222.04 148.138 222.505C147.401 222.962 147.033 223.677 147.033 224.651C147.033 225.412 147.262 225.992 147.719 226.39C148.184 226.788 148.832 226.987 149.661 226.987ZM169.313 224.676C169.313 225.971 168.831 226.97 167.866 227.672C166.901 228.375 165.547 228.726 163.804 228.726C161.959 228.726 160.52 228.434 159.487 227.85V225.895C160.156 226.233 160.871 226.5 161.633 226.695C162.403 226.889 163.144 226.987 163.854 226.987C164.955 226.987 165.801 226.813 166.394 226.466C166.986 226.111 167.282 225.573 167.282 224.854C167.282 224.312 167.045 223.851 166.571 223.47C166.106 223.081 165.192 222.624 163.829 222.099C162.534 221.617 161.612 221.198 161.062 220.842C160.52 220.478 160.114 220.068 159.843 219.611C159.58 219.154 159.449 218.608 159.449 217.973C159.449 216.839 159.91 215.946 160.833 215.294C161.756 214.634 163.021 214.304 164.629 214.304C166.127 214.304 167.591 214.609 169.021 215.218L168.272 216.932C166.876 216.356 165.611 216.069 164.477 216.069C163.478 216.069 162.725 216.225 162.217 216.538C161.709 216.852 161.455 217.283 161.455 217.833C161.455 218.206 161.548 218.523 161.734 218.786C161.929 219.048 162.238 219.298 162.661 219.535C163.084 219.772 163.897 220.114 165.099 220.563C166.749 221.164 167.862 221.769 168.438 222.378C169.021 222.988 169.313 223.754 169.313 224.676ZM181.729 224.676C181.729 225.971 181.247 226.97 180.282 227.672C179.317 228.375 177.963 228.726 176.22 228.726C174.375 228.726 172.936 228.434 171.903 227.85V225.895C172.572 226.233 173.287 226.5 174.049 226.695C174.819 226.889 175.56 226.987 176.271 226.987C177.371 226.987 178.217 226.813 178.81 226.466C179.402 226.111 179.698 225.573 179.698 224.854C179.698 224.312 179.461 223.851 178.987 223.47C178.522 223.081 177.608 222.624 176.245 222.099C174.95 221.617 174.028 221.198 173.478 220.842C172.936 220.478 172.53 220.068 172.259 219.611C171.996 219.154 171.865 218.608 171.865 217.973C171.865 216.839 172.326 215.946 173.249 215.294C174.172 214.634 175.437 214.304 177.045 214.304C178.543 214.304 180.007 214.609 181.438 215.218L180.688 216.932C179.292 216.356 178.027 216.069 176.893 216.069C175.894 216.069 175.141 216.225 174.633 216.538C174.125 216.852 173.871 217.283 173.871 217.833C173.871 218.206 173.964 218.523 174.15 218.786C174.345 219.048 174.654 219.298 175.077 219.535C175.5 219.772 176.313 220.114 177.515 220.563C179.165 221.164 180.278 221.769 180.854 222.378C181.438 222.988 181.729 223.754 181.729 224.676ZM191.048 228.726C188.991 228.726 187.366 228.1 186.173 226.847C184.988 225.594 184.396 223.855 184.396 221.629C184.396 219.386 184.946 217.605 186.046 216.285C187.155 214.964 188.64 214.304 190.502 214.304C192.245 214.304 193.625 214.88 194.641 216.031C195.656 217.173 196.164 218.684 196.164 220.563V221.896H186.579C186.621 223.529 187.032 224.769 187.811 225.616C188.598 226.462 189.702 226.885 191.124 226.885C192.622 226.885 194.103 226.572 195.567 225.946V227.825C194.823 228.146 194.116 228.375 193.447 228.51C192.787 228.654 191.987 228.726 191.048 228.726ZM190.477 216.069C189.359 216.069 188.466 216.433 187.798 217.161C187.138 217.888 186.748 218.896 186.63 220.182H193.904C193.904 218.853 193.608 217.838 193.016 217.135C192.423 216.424 191.577 216.069 190.477 216.069ZM209.291 228.472V219.471C209.291 218.337 209.033 217.491 208.517 216.932C208 216.373 207.192 216.094 206.092 216.094C204.636 216.094 203.57 216.488 202.893 217.275C202.215 218.062 201.877 219.361 201.877 221.172V228.472H199.77V214.558H201.483L201.826 216.462H201.928C202.359 215.777 202.965 215.248 203.743 214.875C204.522 214.495 205.389 214.304 206.346 214.304C208.021 214.304 209.283 214.71 210.129 215.523C210.975 216.327 211.398 217.618 211.398 219.395V228.472H209.291ZM227.128 214.558V215.891L224.551 216.196C224.788 216.492 224.999 216.881 225.186 217.364C225.372 217.838 225.465 218.375 225.465 218.976C225.465 220.339 224.999 221.426 224.068 222.239C223.137 223.051 221.859 223.457 220.234 223.457C219.82 223.457 219.43 223.424 219.066 223.356C218.169 223.83 217.721 224.426 217.721 225.146C217.721 225.527 217.877 225.81 218.19 225.996C218.504 226.174 219.041 226.263 219.803 226.263H222.266C223.772 226.263 224.927 226.58 225.731 227.215C226.544 227.85 226.95 228.773 226.95 229.983C226.95 231.523 226.332 232.695 225.097 233.499C223.861 234.312 222.058 234.718 219.688 234.718C217.869 234.718 216.464 234.38 215.474 233.703C214.492 233.025 214.001 232.069 214.001 230.833C214.001 229.987 214.272 229.255 214.813 228.637C215.355 228.019 216.117 227.6 217.099 227.38C216.743 227.219 216.443 226.97 216.197 226.631C215.96 226.293 215.842 225.899 215.842 225.451C215.842 224.943 215.977 224.498 216.248 224.118C216.519 223.737 216.946 223.369 217.53 223.013C216.811 222.717 216.223 222.213 215.766 221.502C215.317 220.791 215.093 219.979 215.093 219.065C215.093 217.541 215.55 216.369 216.464 215.548C217.378 214.719 218.673 214.304 220.349 214.304C221.076 214.304 221.732 214.389 222.316 214.558H227.128ZM216.032 230.808C216.032 231.561 216.35 232.133 216.984 232.522C217.619 232.911 218.529 233.106 219.714 233.106C221.483 233.106 222.79 232.839 223.637 232.306C224.492 231.781 224.919 231.066 224.919 230.161C224.919 229.407 224.686 228.883 224.221 228.586C223.755 228.299 222.879 228.155 221.593 228.155H219.066C218.11 228.155 217.365 228.383 216.832 228.84C216.299 229.297 216.032 229.953 216.032 230.808ZM217.175 219.014C217.175 219.987 217.45 220.724 218 221.223C218.55 221.722 219.316 221.972 220.298 221.972C222.354 221.972 223.383 220.973 223.383 218.976C223.383 216.885 222.342 215.84 220.26 215.84C219.27 215.84 218.508 216.107 217.975 216.64C217.441 217.173 217.175 217.965 217.175 219.014ZM235.862 228.726C233.806 228.726 232.181 228.1 230.987 226.847C229.802 225.594 229.21 223.855 229.21 221.629C229.21 219.386 229.76 217.605 230.86 216.285C231.969 214.964 233.454 214.304 235.316 214.304C237.06 214.304 238.439 214.88 239.455 216.031C240.471 217.173 240.979 218.684 240.979 220.563V221.896H231.394C231.436 223.529 231.846 224.769 232.625 225.616C233.412 226.462 234.517 226.885 235.938 226.885C237.437 226.885 238.918 226.572 240.382 225.946V227.825C239.637 228.146 238.93 228.375 238.262 228.51C237.602 228.654 236.802 228.726 235.862 228.726ZM235.291 216.069C234.174 216.069 233.281 216.433 232.612 217.161C231.952 217.888 231.563 218.896 231.444 220.182H238.719C238.719 218.853 238.423 217.838 237.83 217.135C237.238 216.424 236.391 216.069 235.291 216.069ZM250.932 214.304C251.549 214.304 252.104 214.355 252.595 214.456L252.303 216.411C251.727 216.285 251.219 216.221 250.779 216.221C249.654 216.221 248.689 216.678 247.885 217.592C247.089 218.506 246.691 219.645 246.691 221.007V228.472H244.584V214.558H246.323L246.564 217.135H246.666C247.182 216.23 247.804 215.531 248.532 215.04C249.26 214.55 250.06 214.304 250.932 214.304Z" fill="black"/>
<g clip-path="url(#clip2_403_3163)">
<path d="M1.56543 363.962L486.099 363.77" stroke="#D3D2D2" stroke-width="6" stroke-linecap="round" stroke-dasharray="10 10"/>
<path d="M-190.302 363.962L13.7183 363.962L209.698 363.962" stroke="#196EC1" stroke-width="6" stroke-linecap="square"/>
<circle cx="209.651" cy="363.962" r="6.5" fill="#196EC1" stroke="#196EC1"/>
<ellipse cx="410.458" cy="320.688" rx="7.36842" ry="11.143" fill="#474747"/>
<mask id="mask2_403_3163" style="mask-type:alpha" maskUnits="userSpaceOnUse" x="403" y="309" width="15" height="23">
<ellipse cx="410.458" cy="320.688" rx="7.36842" ry="11.143" fill="#474747"/>
</mask>
<g mask="url(#mask2_403_3163)">
<rect x="399.555" y="309.248" width="21.8053" height="10.7035" fill="#0A427A" stroke="white" stroke-width="0.3"/>
</g>
<ellipse cx="410.458" cy="302.507" rx="6.14035" ry="5.86475" fill="#474747"/>
<rect width="15.9593" height="5.86703" rx="2.93351" transform="matrix(0.99631 0.0858296 -0.094016 0.995571 408.553 309.545)" fill="#474747"/>
<mask id="mask3_403_3163" style="mask-type:alpha" maskUnits="userSpaceOnUse" x="408" y="309" width="17" height="8">
<rect width="15.9593" height="5.86703" rx="2.93351" transform="matrix(0.99631 0.0858296 -0.094016 0.995571 408.553 309.545)" fill="#474747"/>
</mask>
<g mask="url(#mask3_403_3163)">
<rect x="0.132962" y="0.163994" width="14.4299" height="10.262" transform="matrix(0.995066 0.0992165 -0.108653 0.99408 402.493 305.311)" fill="#0A427A" stroke="white" stroke-width="0.3"/>
</g>
<path fill-rule="evenodd" clip-rule="evenodd" d="M350.935 314.03C346.026 314.03 342.046 317.426 342.046 321.614V338.116C342.046 342.304 346.026 345.7 350.935 345.7H355.134C355.12 345.426 355.113 345.15 355.113 344.872C355.113 336.127 362.217 329.037 370.98 329.037C379.743 329.037 386.846 336.127 386.846 344.872C386.846 345.15 386.839 345.426 386.825 345.7H433.534C433.52 345.426 433.513 345.15 433.513 344.872C433.513 336.127 440.617 329.037 449.38 329.037C458.143 329.037 465.246 336.127 465.246 344.872C465.246 345.15 465.239 345.426 465.225 345.7H473.158C478.067 345.7 482.046 342.304 482.046 338.116V321.614C482.046 317.426 478.067 314.03 473.158 314.03H350.935Z" fill="#0080FF"/>
<path fill-rule="evenodd" clip-rule="evenodd" d="M370.98 356.308C377.593 356.308 382.953 351.188 382.953 344.872C382.953 338.556 377.593 333.436 370.98 333.436C364.367 333.436 359.006 338.556 359.006 344.872C359.006 351.188 364.367 356.308 370.98 356.308ZM449.38 356.308C455.992 356.308 461.353 351.188 461.353 344.872C461.353 338.556 455.992 333.436 449.38 333.436C442.767 333.436 437.406 338.556 437.406 344.872C437.406 351.188 442.767 356.308 449.38 356.308Z" fill="#474747"/>
<path d="M373.393 284.12C368.289 284.12 364.152 287.545 364.152 291.77V318.543C364.152 322.768 368.289 326.193 373.393 326.193H386.872C381.788 326.174 377.673 322.756 377.673 318.543V295.932C377.673 294.876 378.707 294.02 379.983 294.02H417.495C418.104 294.02 418.688 294.218 419.121 294.573L435.739 313.106C441.597 317.905 437.51 326.163 429.283 326.193H446.997C455.389 326.193 459.437 317.68 453.295 312.946L424.572 286.172C422.862 284.853 420.611 284.12 418.274 284.12H373.393Z" fill="#0080FF"/>
<path d="M233.28 253.963C233.28 256.891 232.234 260.247 230.533 263.755C228.835 267.256 226.505 270.87 223.982 274.303C219.128 280.906 213.588 286.803 210.539 289.894C207.479 286.803 201.939 280.906 197.089 274.303C194.566 270.87 192.239 267.256 190.543 263.755C188.844 260.247 187.8 256.891 187.8 253.963C187.8 242.133 198.492 232.469 211.093 232.469C223.662 232.469 233.28 242.102 233.28 253.963Z" fill="#0080FF" stroke="#0080FF"/>
<ellipse cx="210.54" cy="254.21" rx="17.8538" ry="17.0863" fill="white"/>
<mask id="path-47-inside-1_403_3163" fill="white">
<path d="M210.346 241.068L224.273 253.926L221.755 255.7L210.346 244.239L198.937 255.7L196.807 253.926L210.346 241.068Z"/>
</mask>
<path d="M210.346 241.068L213.06 238.129L210.308 235.588L207.592 238.167L210.346 241.068ZM224.273 253.926L226.576 257.196L230.623 254.346L226.986 250.987L224.273 253.926ZM196.807 253.926L194.052 251.026L190.792 254.123L194.248 257L196.807 253.926ZM198.937 255.7L196.378 258.774L199.19 261.115L201.772 258.522L198.937 255.7ZM221.755 255.7L218.92 258.522L221.3 260.913L224.058 258.97L221.755 255.7ZM210.346 244.239L213.181 241.417L210.346 238.57L207.511 241.417L210.346 244.239ZM207.633 244.007L221.559 256.865L226.986 250.987L213.06 238.129L207.633 244.007ZM199.562 256.827L213.101 243.968L207.592 238.167L194.052 251.026L199.562 256.827ZM201.497 252.626L199.366 250.852L194.248 257L196.378 258.774L201.497 252.626ZM221.969 250.656L219.451 252.43L224.058 258.97L226.576 257.196L221.969 250.656ZM224.59 252.878L213.181 241.417L207.511 247.061L218.92 258.522L224.59 252.878ZM207.511 241.417L196.103 252.878L201.772 258.522L213.181 247.061L207.511 241.417Z" fill="#474747" mask="url(#path-47-inside-1_403_3163)"/>
<path fill-rule="evenodd" clip-rule="evenodd" d="M210.416 242.079L219.642 250.393V263.965H201.05V250.393L210.416 242.079ZM216.543 251.57L210.401 245.359L204.149 251.582V260.589H216.543V251.57Z" fill="#474747"/>
<rect x="209.088" y="254.689" width="2.90326" height="8.00455" fill="#474747"/>
<g clip-path="url(#clip3_403_3163)">
<rect x="219.55" y="328.654" width="6" height="25.4668" rx="3" fill="#474747"/>
<rect x="231.55" y="328.654" width="6" height="25.4668" rx="3" fill="#474747"/>
<path fill-rule="evenodd" clip-rule="evenodd" d="M221.017 314.747C219.47 314.154 217.735 314.927 217.14 316.473L211.626 330.819C211.032 332.365 211.804 334.099 213.351 334.692C214.898 335.285 216.633 334.512 217.228 332.966L222.742 318.62C223.336 317.074 222.564 315.34 221.017 314.747ZM235.851 314.747C234.304 315.34 233.532 317.074 234.126 318.62L239.64 332.966C240.235 334.512 241.97 335.285 243.517 334.692C245.064 334.099 245.836 332.365 245.242 330.819L239.728 316.473C239.133 314.927 237.398 314.154 235.851 314.747Z" fill="#474747"/>
<ellipse cx="228.55" cy="304.685" rx="7.5" ry="7.49023" fill="#474747"/>
<path fill-rule="evenodd" clip-rule="evenodd" d="M230.027 306.447C229.902 307.148 229.288 307.681 228.55 307.681C227.812 307.681 227.198 307.148 227.073 306.447C225.846 306.96 225.55 308.099 225.55 308.726C225.55 309.179 226.065 309.179 228.549 309.179H228.55H228.551C231.035 309.179 231.55 309.179 231.55 308.726C231.55 308.099 231.254 306.96 230.027 306.447Z" fill="#A1A1A1"/>
<path d="M235.354 305.541C235.664 306.397 236.436 306.397 236.746 305.541L237.441 303.615C237.75 302.759 237.364 301.689 236.746 301.689H235.354C234.736 301.689 234.35 302.759 234.659 303.615L235.354 305.541Z" fill="#A1A1A1"/>
<path d="M220.354 305.541C220.664 306.397 221.436 306.397 221.746 305.541L222.441 303.615C222.75 302.759 222.364 301.689 221.746 301.689H220.354C219.736 301.689 219.35 302.759 219.659 303.615L220.354 305.541Z" fill="#A1A1A1"/>
<path d="M217.708 314.698C217.912 314.086 218.487 313.673 219.132 313.673C225.747 313.673 230.721 313.673 237.972 313.673C238.615 313.673 239.189 314.083 239.395 314.693L242.05 322.548L237.55 324.159V336.144H219.55V324.159L215.05 322.661L217.708 314.698Z" fill="#474747"/>
<path fill-rule="evenodd" clip-rule="evenodd" d="M243.41 336.236C243.543 334.492 244.928 333.148 246.591 333.148H251.867C253.531 333.148 254.915 334.492 255.048 336.236L256.153 350.765H253.785L252.766 337.579C252.721 336.736 252.167 336.082 251.499 336.082H246.959C246.291 336.082 245.738 336.736 245.692 337.579L244.414 354.12H242.05L243.41 336.236ZM254.045 354.12L254.045 354.12H256.408L256.408 354.12H254.045Z" fill="#474747"/>
<rect x="243.739" y="339.02" width="10.9797" height="2.51672" fill="#474747"/>
<ellipse cx="255.141" cy="352.023" rx="2.11149" ry="2.09727" fill="#0080FF"/>
</g>
<rect x="184.55" y="327.313" width="6" height="26.8071" rx="3" fill="#474747"/>
<rect x="196.55" y="327.313" width="6" height="26.8071" rx="3" fill="#474747"/>
<path fill-rule="evenodd" clip-rule="evenodd" d="M186.017 312.674C184.47 312.05 182.753 312.814 182.18 314.381L176.586 329.702C176.014 331.269 176.804 333.045 178.351 333.67C179.898 334.294 181.615 333.53 182.187 331.963L187.782 316.642C188.354 315.075 187.564 313.299 186.017 312.674ZM200.851 312.674C199.304 313.299 198.514 315.075 199.086 316.642L204.68 331.963C205.253 333.53 206.97 334.294 208.517 333.67C210.064 333.045 210.854 331.269 210.282 329.702L204.687 314.381C204.115 312.814 202.398 312.05 200.851 312.674Z" fill="#474747"/>
<ellipse cx="193.55" cy="302.083" rx="7.5" ry="7.88446" fill="#474747"/>
<path d="M182.718 312.591C182.916 311.968 183.496 311.544 184.149 311.544C190.75 311.544 195.719 311.544 202.954 311.544C203.606 311.544 204.185 311.965 204.384 312.586L207.05 320.886L202.55 322.582V335.198H184.55V322.582L180.05 321.006L182.718 312.591Z" fill="#474747"/>
<path d="M184.433 328.887C184.499 328.111 185.149 327.514 185.928 327.514H201.176C201.952 327.514 202.601 328.107 202.67 328.881L203.725 340.66C203.803 341.538 203.112 342.294 202.23 342.294H184.927C184.049 342.294 183.358 341.542 183.433 340.667L184.433 328.887Z" fill="#474747"/>
<path d="M188.3 293.337C188.3 293.016 188.5 292.745 188.779 292.653C190.537 292.077 191.977 291.796 193.432 291.795C194.888 291.793 196.403 292.071 198.308 292.666C198.595 292.756 198.8 293.031 198.8 293.356V296.325C196.889 295.745 195.257 295.453 193.595 295.458C191.926 295.463 190.265 295.769 188.3 296.34V293.337Z" fill="white" stroke="#474747" stroke-width="1.5"/>
<path d="M211.506 390.881C209.911 390.881 208.676 391.482 207.801 392.686C206.926 393.88 206.488 395.548 206.488 397.689C206.488 402.146 208.161 404.375 211.506 404.375C212.91 404.375 214.609 404.024 216.605 403.322V406.877C214.965 407.561 213.133 407.902 211.109 407.902C208.202 407.902 205.978 407.023 204.438 405.264C202.897 403.495 202.127 400.962 202.127 397.662C202.127 395.584 202.505 393.766 203.262 392.207C204.018 390.639 205.103 389.441 206.516 388.611C207.938 387.773 209.601 387.354 211.506 387.354C213.447 387.354 215.398 387.823 217.357 388.762L215.99 392.207C215.243 391.852 214.491 391.542 213.734 391.277C212.978 391.013 212.235 390.881 211.506 390.881ZM224.713 407.629H220.543V386.355H224.713V407.629ZM232.424 399.959C232.424 401.472 232.67 402.616 233.162 403.391C233.663 404.165 234.475 404.553 235.596 404.553C236.708 404.553 237.505 404.17 237.988 403.404C238.48 402.63 238.727 401.481 238.727 399.959C238.727 398.446 238.48 397.311 237.988 396.555C237.496 395.798 236.689 395.42 235.568 395.42C234.456 395.42 233.654 395.798 233.162 396.555C232.67 397.302 232.424 398.437 232.424 399.959ZM242.992 399.959C242.992 402.447 242.336 404.393 241.023 405.797C239.711 407.201 237.883 407.902 235.541 407.902C234.074 407.902 232.779 407.583 231.658 406.945C230.537 406.298 229.676 405.373 229.074 404.17C228.473 402.967 228.172 401.563 228.172 399.959C228.172 397.462 228.824 395.52 230.127 394.135C231.43 392.749 233.262 392.057 235.623 392.057C237.09 392.057 238.385 392.376 239.506 393.014C240.627 393.652 241.488 394.568 242.09 395.762C242.691 396.956 242.992 398.355 242.992 399.959ZM252.645 407.902C247.887 407.902 245.508 405.291 245.508 400.068C245.508 397.471 246.155 395.488 247.449 394.121C248.743 392.745 250.598 392.057 253.014 392.057C254.782 392.057 256.368 392.403 257.771 393.096L256.541 396.322C255.885 396.058 255.274 395.844 254.709 395.68C254.144 395.507 253.579 395.42 253.014 395.42C250.844 395.42 249.76 396.96 249.76 400.041C249.76 403.031 250.844 404.525 253.014 404.525C253.816 404.525 254.559 404.421 255.242 404.211C255.926 403.992 256.609 403.655 257.293 403.199V406.768C256.618 407.196 255.935 407.492 255.242 407.656C254.559 407.82 253.693 407.902 252.645 407.902ZM264.854 399.316L266.672 396.992L270.951 392.344H275.654L269.584 398.975L276.023 407.629H271.211L266.809 401.436L265.018 402.871V407.629H260.848V386.355H265.018V395.844L264.799 399.316H264.854ZM303.955 397.607C303.955 400.916 303.135 403.459 301.494 405.236C299.854 407.014 297.502 407.902 294.439 407.902C291.377 407.902 289.025 407.014 287.385 405.236C285.744 403.459 284.924 400.907 284.924 397.58C284.924 394.253 285.744 391.715 287.385 389.965C289.035 388.206 291.395 387.326 294.467 387.326C297.538 387.326 299.885 388.21 301.508 389.979C303.139 391.747 303.955 394.29 303.955 397.607ZM289.367 397.607C289.367 399.84 289.791 401.522 290.639 402.652C291.486 403.783 292.753 404.348 294.439 404.348C297.821 404.348 299.512 402.101 299.512 397.607C299.512 393.105 297.83 390.854 294.467 390.854C292.781 390.854 291.509 391.423 290.652 392.562C289.796 393.693 289.367 395.374 289.367 397.607ZM318.598 407.629L318.037 405.674H317.818C317.372 406.385 316.738 406.936 315.918 407.328C315.098 407.711 314.163 407.902 313.115 407.902C311.32 407.902 309.966 407.424 309.055 406.467C308.143 405.501 307.688 404.115 307.688 402.311V392.344H311.857V401.271C311.857 402.374 312.053 403.204 312.445 403.76C312.837 404.307 313.462 404.58 314.318 404.58C315.485 404.58 316.328 404.193 316.848 403.418C317.367 402.634 317.627 401.34 317.627 399.535V392.344H321.797V407.629H318.598ZM332.611 404.58C333.34 404.58 334.215 404.421 335.236 404.102V407.205C334.197 407.67 332.921 407.902 331.408 407.902C329.74 407.902 328.523 407.483 327.758 406.645C327.001 405.797 326.623 404.53 326.623 402.844V395.475H324.627V393.711L326.924 392.316L328.127 389.09H330.793V392.344H335.072V395.475H330.793V402.844C330.793 403.436 330.957 403.874 331.285 404.156C331.622 404.439 332.064 404.58 332.611 404.58Z" fill="black"/>
<path d="M210.999 426.731C208.959 426.731 207.347 427.413 206.162 428.775C204.986 430.13 204.397 431.987 204.397 434.349C204.397 436.778 204.965 438.657 206.099 439.985C207.241 441.306 208.866 441.966 210.974 441.966C212.269 441.966 213.745 441.733 215.404 441.268V443.159C214.118 443.642 212.531 443.883 210.644 443.883C207.91 443.883 205.798 443.053 204.309 441.395C202.827 439.736 202.087 437.379 202.087 434.323C202.087 432.41 202.442 430.735 203.153 429.296C203.873 427.857 204.905 426.748 206.251 425.97C207.605 425.191 209.196 424.802 211.024 424.802C212.971 424.802 214.672 425.157 216.128 425.868L215.214 427.722C213.809 427.062 212.404 426.731 210.999 426.731ZM221.244 443.629H219.137V423.875H221.244V443.629ZM237.723 436.659C237.723 438.927 237.151 440.701 236.009 441.979C234.866 443.248 233.288 443.883 231.273 443.883C230.029 443.883 228.925 443.591 227.96 443.007C226.995 442.423 226.25 441.585 225.726 440.493C225.201 439.401 224.938 438.123 224.938 436.659C224.938 434.391 225.506 432.626 226.64 431.365C227.774 430.096 229.348 429.461 231.362 429.461C233.309 429.461 234.854 430.108 235.996 431.403C237.147 432.698 237.723 434.45 237.723 436.659ZM227.122 436.659C227.122 438.437 227.478 439.791 228.188 440.722C228.899 441.653 229.945 442.118 231.324 442.118C232.704 442.118 233.749 441.657 234.46 440.734C235.179 439.803 235.539 438.445 235.539 436.659C235.539 434.89 235.179 433.549 234.46 432.635C233.749 431.712 232.695 431.251 231.299 431.251C229.919 431.251 228.878 431.704 228.176 432.609C227.473 433.515 227.122 434.865 227.122 436.659ZM246.99 443.883C244.976 443.883 243.414 443.265 242.306 442.029C241.205 440.785 240.655 439.029 240.655 436.761C240.655 434.433 241.214 432.635 242.331 431.365C243.457 430.096 245.056 429.461 247.13 429.461C247.799 429.461 248.467 429.533 249.136 429.677C249.804 429.821 250.329 429.99 250.71 430.185L250.062 431.975C249.597 431.788 249.089 431.636 248.539 431.518C247.989 431.391 247.502 431.327 247.079 431.327C244.252 431.327 242.839 433.13 242.839 436.735C242.839 438.445 243.182 439.757 243.867 440.671C244.561 441.585 245.585 442.042 246.939 442.042C248.099 442.042 249.288 441.792 250.507 441.293V443.159C249.576 443.642 248.404 443.883 246.99 443.883ZM255.902 436.507C256.266 435.991 256.821 435.313 257.565 434.476L262.06 429.715H264.561L258.924 435.644L264.954 443.629H262.402L257.489 437.053L255.902 438.424V443.629H253.82V423.875H255.902V434.349C255.902 434.814 255.868 435.534 255.801 436.507H255.902ZM286.244 436.659C286.244 438.927 285.673 440.701 284.53 441.979C283.388 443.248 281.809 443.883 279.795 443.883C278.551 443.883 277.446 443.591 276.481 443.007C275.517 442.423 274.772 441.585 274.247 440.493C273.722 439.401 273.46 438.123 273.46 436.659C273.46 434.391 274.027 432.626 275.161 431.365C276.295 430.096 277.869 429.461 279.884 429.461C281.83 429.461 283.375 430.108 284.518 431.403C285.669 432.698 286.244 434.45 286.244 436.659ZM275.644 436.659C275.644 438.437 275.999 439.791 276.71 440.722C277.421 441.653 278.466 442.118 279.846 442.118C281.225 442.118 282.271 441.657 282.981 440.734C283.701 439.803 284.061 438.445 284.061 436.659C284.061 434.89 283.701 433.549 282.981 432.635C282.271 431.712 281.217 431.251 279.82 431.251C278.441 431.251 277.4 431.704 276.697 432.609C275.995 433.515 275.644 434.865 275.644 436.659ZM291.932 429.715V438.741C291.932 439.875 292.19 440.722 292.706 441.28C293.222 441.839 294.031 442.118 295.131 442.118C296.587 442.118 297.649 441.72 298.317 440.925C298.994 440.129 299.333 438.83 299.333 437.027V429.715H301.44V443.629H299.701L299.396 441.763H299.282C298.851 442.448 298.25 442.973 297.479 443.337C296.718 443.701 295.846 443.883 294.864 443.883C293.172 443.883 291.902 443.481 291.056 442.677C290.218 441.873 289.799 440.586 289.799 438.817V429.715H291.932ZM310.416 442.144C310.788 442.144 311.148 442.118 311.495 442.067C311.842 442.008 312.117 441.949 312.32 441.89V443.502C312.092 443.612 311.753 443.701 311.305 443.769C310.865 443.845 310.467 443.883 310.111 443.883C307.42 443.883 306.074 442.465 306.074 439.63V431.353H304.081V430.337L306.074 429.461L306.963 426.49H308.182V429.715H312.219V431.353H308.182V439.541C308.182 440.379 308.381 441.022 308.778 441.471C309.176 441.919 309.722 442.144 310.416 442.144ZM333.229 443.629L330.678 435.466C330.517 434.966 330.216 433.832 329.776 432.063H329.675C329.336 433.545 329.04 434.687 328.786 435.491L326.158 443.629H323.721L319.925 429.715H322.134C323.031 433.21 323.712 435.872 324.178 437.7C324.652 439.528 324.923 440.76 324.99 441.395H325.092C325.185 440.912 325.333 440.29 325.536 439.528C325.748 438.758 325.93 438.149 326.082 437.7L328.634 429.715H330.919L333.407 437.7C333.881 439.156 334.203 440.379 334.372 441.369H334.474C334.507 441.064 334.596 440.595 334.74 439.96C334.893 439.325 335.777 435.91 337.394 429.715H339.577L335.73 443.629H333.229ZM351.625 443.629V434.628C351.625 433.494 351.367 432.647 350.851 432.089C350.334 431.53 349.526 431.251 348.426 431.251C346.962 431.251 345.891 431.649 345.214 432.444C344.545 433.24 344.211 434.543 344.211 436.354V443.629H342.104V423.875H344.211V429.854C344.211 430.574 344.177 431.171 344.109 431.645H344.236C344.651 430.976 345.239 430.451 346.001 430.07C346.771 429.681 347.647 429.486 348.629 429.486C350.33 429.486 351.604 429.893 352.45 430.705C353.305 431.509 353.732 432.791 353.732 434.552V443.629H351.625ZM363.952 443.883C361.896 443.883 360.271 443.257 359.077 442.004C357.892 440.751 357.3 439.012 357.3 436.786C357.3 434.543 357.85 432.762 358.95 431.441C360.059 430.121 361.544 429.461 363.406 429.461C365.15 429.461 366.529 430.036 367.545 431.188C368.561 432.33 369.068 433.841 369.068 435.72V437.053H359.483C359.526 438.686 359.936 439.926 360.715 440.772C361.502 441.619 362.606 442.042 364.028 442.042C365.526 442.042 367.007 441.729 368.472 441.103V442.981C367.727 443.303 367.02 443.532 366.352 443.667C365.691 443.811 364.892 443.883 363.952 443.883ZM363.381 431.226C362.264 431.226 361.371 431.59 360.702 432.317C360.042 433.045 359.653 434.052 359.534 435.339H366.809C366.809 434.01 366.512 432.994 365.92 432.292C365.327 431.581 364.481 431.226 363.381 431.226ZM382.195 443.629V434.628C382.195 433.494 381.937 432.647 381.421 432.089C380.905 431.53 380.096 431.251 378.996 431.251C377.54 431.251 376.474 431.645 375.797 432.432C375.12 433.219 374.781 434.518 374.781 436.329V443.629H372.674V429.715H374.388L374.73 431.619H374.832C375.264 430.934 375.869 430.405 376.647 430.032C377.426 429.651 378.294 429.461 379.25 429.461C380.926 429.461 382.187 429.867 383.033 430.68C383.88 431.484 384.303 432.774 384.303 434.552V443.629H382.195ZM393.189 429.715H395.449L398.496 437.649C399.165 439.461 399.579 440.768 399.74 441.572H399.842C399.952 441.141 400.18 440.404 400.527 439.363C400.883 438.314 402.034 435.098 403.98 429.715H406.24L400.261 445.559C399.668 447.124 398.974 448.233 398.179 448.885C397.392 449.545 396.423 449.875 395.271 449.875C394.628 449.875 393.993 449.803 393.367 449.659V447.971C393.833 448.072 394.353 448.123 394.929 448.123C396.376 448.123 397.409 447.311 398.026 445.686L398.801 443.705L393.189 429.715ZM420.51 436.659C420.51 438.927 419.938 440.701 418.796 441.979C417.653 443.248 416.075 443.883 414.061 443.883C412.816 443.883 411.712 443.591 410.747 443.007C409.782 442.423 409.037 441.585 408.513 440.493C407.988 439.401 407.726 438.123 407.726 436.659C407.726 434.391 408.293 432.626 409.427 431.365C410.561 430.096 412.135 429.461 414.149 429.461C416.096 429.461 417.641 430.108 418.783 431.403C419.934 432.698 420.51 434.45 420.51 436.659ZM409.909 436.659C409.909 438.437 410.265 439.791 410.976 440.722C411.687 441.653 412.732 442.118 414.111 442.118C415.491 442.118 416.536 441.657 417.247 440.734C417.966 439.803 418.326 438.445 418.326 436.659C418.326 434.89 417.966 433.549 417.247 432.635C416.536 431.712 415.482 431.251 414.086 431.251C412.706 431.251 411.665 431.704 410.963 432.609C410.26 433.515 409.909 434.865 409.909 436.659ZM426.197 429.715V438.741C426.197 439.875 426.455 440.722 426.972 441.28C427.488 441.839 428.296 442.118 429.396 442.118C430.852 442.118 431.914 441.72 432.583 440.925C433.26 440.129 433.599 438.83 433.599 437.027V429.715H435.706V443.629H433.967L433.662 441.763H433.548C433.116 442.448 432.515 442.973 431.745 443.337C430.983 443.701 430.112 443.883 429.13 443.883C427.437 443.883 426.168 443.481 425.321 442.677C424.483 441.873 424.064 440.586 424.064 438.817V429.715H426.197ZM204.842 478.629H202.734V458.875H204.842V478.629ZM215.188 478.883C213.132 478.883 211.507 478.257 210.313 477.004C209.129 475.751 208.536 474.012 208.536 471.786C208.536 469.543 209.086 467.762 210.187 466.441C211.295 465.121 212.781 464.461 214.643 464.461C216.386 464.461 217.766 465.036 218.781 466.188C219.797 467.33 220.305 468.841 220.305 470.72V472.053H210.72C210.762 473.686 211.173 474.926 211.951 475.772C212.738 476.619 213.843 477.042 215.265 477.042C216.763 477.042 218.244 476.729 219.708 476.103V477.981C218.963 478.303 218.257 478.532 217.588 478.667C216.928 478.811 216.128 478.883 215.188 478.883ZM214.617 466.226C213.5 466.226 212.607 466.59 211.938 467.317C211.278 468.045 210.889 469.052 210.771 470.339H218.045C218.045 469.01 217.749 467.994 217.156 467.292C216.564 466.581 215.717 466.226 214.617 466.226ZM232.467 478.629L232.048 476.648H231.946C231.252 477.52 230.558 478.113 229.864 478.426C229.179 478.73 228.32 478.883 227.287 478.883C225.908 478.883 224.824 478.527 224.037 477.816C223.258 477.105 222.869 476.094 222.869 474.782C222.869 471.972 225.116 470.5 229.61 470.364L231.972 470.288V469.425C231.972 468.333 231.735 467.529 231.261 467.013C230.795 466.488 230.046 466.226 229.014 466.226C227.854 466.226 226.542 466.581 225.078 467.292L224.431 465.68C225.116 465.307 225.865 465.015 226.678 464.804C227.499 464.592 228.32 464.486 229.141 464.486C230.799 464.486 232.027 464.854 232.822 465.591C233.626 466.327 234.028 467.508 234.028 469.133V478.629H232.467ZM227.706 477.144C229.018 477.144 230.046 476.784 230.791 476.064C231.544 475.345 231.921 474.338 231.921 473.043V471.786L229.813 471.875C228.138 471.934 226.927 472.197 226.183 472.662C225.446 473.119 225.078 473.834 225.078 474.808C225.078 475.569 225.307 476.149 225.764 476.547C226.229 476.945 226.877 477.144 227.706 477.144ZM241.43 478.629L236.148 464.715H238.408L241.404 472.967C242.081 474.896 242.479 476.149 242.598 476.725H242.699C242.792 476.276 243.084 475.349 243.575 473.944C244.075 472.531 245.188 469.454 246.914 464.715H249.174L243.893 478.629H241.43ZM257.286 478.883C255.229 478.883 253.604 478.257 252.411 477.004C251.226 475.751 250.634 474.012 250.634 471.786C250.634 469.543 251.184 467.762 252.284 466.441C253.393 465.121 254.878 464.461 256.74 464.461C258.484 464.461 259.863 465.036 260.879 466.188C261.895 467.33 262.402 468.841 262.402 470.72V472.053H252.817C252.86 473.686 253.27 474.926 254.049 475.772C254.836 476.619 255.94 477.042 257.362 477.042C258.86 477.042 260.341 476.729 261.806 476.103V477.981C261.061 478.303 260.354 478.532 259.686 478.667C259.025 478.811 258.226 478.883 257.286 478.883ZM256.715 466.226C255.598 466.226 254.705 466.59 254.036 467.317C253.376 468.045 252.987 469.052 252.868 470.339H260.143C260.143 469.01 259.846 467.994 259.254 467.292C258.661 466.581 257.815 466.226 256.715 466.226ZM270.553 464.715H272.812L275.859 472.649C276.528 474.461 276.943 475.768 277.104 476.572H277.205C277.315 476.141 277.544 475.404 277.891 474.363C278.246 473.314 279.397 470.098 281.344 464.715H283.604L277.624 480.559C277.032 482.124 276.338 483.233 275.542 483.885C274.755 484.545 273.786 484.875 272.635 484.875C271.992 484.875 271.357 484.803 270.73 484.659V482.971C271.196 483.072 271.716 483.123 272.292 483.123C273.739 483.123 274.772 482.311 275.39 480.686L276.164 478.705L270.553 464.715ZM297.873 471.659C297.873 473.927 297.302 475.701 296.159 476.979C295.017 478.248 293.438 478.883 291.424 478.883C290.18 478.883 289.075 478.591 288.11 478.007C287.146 477.423 286.401 476.585 285.876 475.493C285.351 474.401 285.089 473.123 285.089 471.659C285.089 469.391 285.656 467.626 286.79 466.365C287.924 465.096 289.498 464.461 291.513 464.461C293.459 464.461 295.004 465.108 296.146 466.403C297.298 467.698 297.873 469.45 297.873 471.659ZM287.272 471.659C287.272 473.437 287.628 474.791 288.339 475.722C289.05 476.653 290.095 477.118 291.475 477.118C292.854 477.118 293.899 476.657 294.61 475.734C295.33 474.803 295.689 473.445 295.689 471.659C295.689 469.89 295.33 468.549 294.61 467.635C293.899 466.712 292.846 466.251 291.449 466.251C290.07 466.251 289.029 466.704 288.326 467.609C287.624 468.515 287.272 469.865 287.272 471.659ZM303.561 464.715V473.741C303.561 474.875 303.819 475.722 304.335 476.28C304.851 476.839 305.66 477.118 306.76 477.118C308.215 477.118 309.278 476.72 309.946 475.925C310.623 475.129 310.962 473.83 310.962 472.027V464.715H313.069V478.629H311.33L311.025 476.763H310.911C310.479 477.448 309.879 477.973 309.108 478.337C308.347 478.701 307.475 478.883 306.493 478.883C304.8 478.883 303.531 478.481 302.685 477.677C301.847 476.873 301.428 475.586 301.428 473.817V464.715H303.561ZM323.898 464.461C324.516 464.461 325.071 464.512 325.562 464.613L325.27 466.568C324.694 466.441 324.186 466.378 323.746 466.378C322.62 466.378 321.656 466.835 320.852 467.749C320.056 468.663 319.658 469.801 319.658 471.164V478.629H317.551V464.715H319.29L319.531 467.292H319.633C320.149 466.386 320.771 465.688 321.499 465.197C322.227 464.706 323.027 464.461 323.898 464.461ZM341.393 478.883C340.487 478.883 339.658 478.718 338.904 478.388C338.16 478.049 337.533 477.533 337.025 476.839H336.873C336.975 477.651 337.025 478.422 337.025 479.149V484.875H334.918V464.715H336.632L336.924 466.619H337.025C337.567 465.857 338.198 465.307 338.917 464.969C339.636 464.63 340.462 464.461 341.393 464.461C343.238 464.461 344.66 465.091 345.658 466.353C346.665 467.614 347.169 469.382 347.169 471.659C347.169 473.944 346.657 475.722 345.633 476.991C344.617 478.252 343.204 478.883 341.393 478.883ZM341.088 466.251C339.666 466.251 338.638 466.645 338.003 467.432C337.368 468.219 337.042 469.471 337.025 471.189V471.659C337.025 473.614 337.351 475.015 338.003 475.861C338.655 476.699 339.7 477.118 341.139 477.118C342.34 477.118 343.28 476.632 343.957 475.658C344.643 474.685 344.985 473.343 344.985 471.634C344.985 469.899 344.643 468.57 343.957 467.647C343.28 466.716 342.324 466.251 341.088 466.251ZM359.42 478.629L359.001 476.648H358.899C358.205 477.52 357.511 478.113 356.817 478.426C356.132 478.73 355.273 478.883 354.24 478.883C352.861 478.883 351.777 478.527 350.99 477.816C350.212 477.105 349.822 476.094 349.822 474.782C349.822 471.972 352.069 470.5 356.563 470.364L358.925 470.288V469.425C358.925 468.333 358.688 467.529 358.214 467.013C357.748 466.488 356.999 466.226 355.967 466.226C354.807 466.226 353.495 466.581 352.031 467.292L351.384 465.68C352.069 465.307 352.818 465.015 353.631 464.804C354.452 464.592 355.273 464.486 356.094 464.486C357.753 464.486 358.98 464.854 359.775 465.591C360.579 466.327 360.981 467.508 360.981 469.133V478.629H359.42ZM354.659 477.144C355.971 477.144 356.999 476.784 357.744 476.064C358.497 475.345 358.874 474.338 358.874 473.043V471.786L356.767 471.875C355.091 471.934 353.881 472.197 353.136 472.662C352.399 473.119 352.031 473.834 352.031 474.808C352.031 475.569 352.26 476.149 352.717 476.547C353.182 476.945 353.83 477.144 354.659 477.144ZM374.312 474.833C374.312 476.128 373.829 477.127 372.864 477.829C371.899 478.532 370.545 478.883 368.802 478.883C366.957 478.883 365.518 478.591 364.485 478.007V476.052C365.154 476.39 365.869 476.657 366.631 476.852C367.401 477.046 368.142 477.144 368.853 477.144C369.953 477.144 370.799 476.97 371.392 476.623C371.984 476.268 372.28 475.73 372.28 475.011C372.28 474.469 372.043 474.008 371.569 473.627C371.104 473.238 370.19 472.781 368.827 472.256C367.532 471.773 366.61 471.354 366.06 470.999C365.518 470.635 365.112 470.225 364.841 469.768C364.578 469.311 364.447 468.765 364.447 468.13C364.447 466.996 364.909 466.103 365.831 465.451C366.754 464.791 368.019 464.461 369.627 464.461C371.125 464.461 372.589 464.766 374.02 465.375L373.271 467.089C371.874 466.513 370.609 466.226 369.475 466.226C368.476 466.226 367.723 466.382 367.215 466.695C366.707 467.008 366.453 467.44 366.453 467.99C366.453 468.363 366.546 468.68 366.732 468.942C366.927 469.205 367.236 469.454 367.659 469.691C368.082 469.928 368.895 470.271 370.097 470.72C371.747 471.321 372.86 471.926 373.436 472.535C374.02 473.145 374.312 473.91 374.312 474.833ZM386.728 474.833C386.728 476.128 386.245 477.127 385.28 477.829C384.315 478.532 382.961 478.883 381.218 478.883C379.373 478.883 377.934 478.591 376.901 478.007V476.052C377.57 476.39 378.285 476.657 379.047 476.852C379.817 477.046 380.558 477.144 381.269 477.144C382.369 477.144 383.215 476.97 383.808 476.623C384.4 476.268 384.696 475.73 384.696 475.011C384.696 474.469 384.459 474.008 383.985 473.627C383.52 473.238 382.606 472.781 381.243 472.256C379.948 471.773 379.026 471.354 378.476 470.999C377.934 470.635 377.528 470.225 377.257 469.768C376.994 469.311 376.863 468.765 376.863 468.13C376.863 466.996 377.325 466.103 378.247 465.451C379.17 464.791 380.435 464.461 382.043 464.461C383.541 464.461 385.005 464.766 386.436 465.375L385.687 467.089C384.29 466.513 383.025 466.226 381.891 466.226C380.892 466.226 380.139 466.382 379.631 466.695C379.123 467.008 378.869 467.44 378.869 467.99C378.869 468.363 378.962 468.68 379.148 468.942C379.343 469.205 379.652 469.454 380.075 469.691C380.498 469.928 381.311 470.271 382.513 470.72C384.163 471.321 385.276 471.926 385.852 472.535C386.436 473.145 386.728 473.91 386.728 474.833ZM396.046 478.883C393.989 478.883 392.364 478.257 391.171 477.004C389.986 475.751 389.394 474.012 389.394 471.786C389.394 469.543 389.944 467.762 391.044 466.441C392.153 465.121 393.638 464.461 395.5 464.461C397.243 464.461 398.623 465.036 399.639 466.188C400.654 467.33 401.162 468.841 401.162 470.72V472.053H391.577C391.619 473.686 392.03 474.926 392.809 475.772C393.596 476.619 394.7 477.042 396.122 477.042C397.62 477.042 399.101 476.729 400.565 476.103V477.981C399.821 478.303 399.114 478.532 398.445 478.667C397.785 478.811 396.985 478.883 396.046 478.883ZM395.475 466.226C394.357 466.226 393.465 466.59 392.796 467.317C392.136 468.045 391.746 469.052 391.628 470.339H398.902C398.902 469.01 398.606 467.994 398.014 467.292C397.421 466.581 396.575 466.226 395.475 466.226ZM414.289 478.629V469.628C414.289 468.494 414.031 467.647 413.515 467.089C412.998 466.53 412.19 466.251 411.09 466.251C409.634 466.251 408.568 466.645 407.891 467.432C407.214 468.219 406.875 469.518 406.875 471.329V478.629H404.768V464.715H406.481L406.824 466.619H406.926C407.357 465.934 407.963 465.405 408.741 465.032C409.52 464.651 410.387 464.461 411.344 464.461C413.02 464.461 414.281 464.867 415.127 465.68C415.973 466.484 416.396 467.774 416.396 469.552V478.629H414.289ZM432.126 464.715V466.048L429.549 466.353C429.786 466.649 429.997 467.038 430.184 467.521C430.37 467.994 430.463 468.532 430.463 469.133C430.463 470.495 429.997 471.583 429.066 472.396C428.135 473.208 426.857 473.614 425.232 473.614C424.818 473.614 424.428 473.58 424.064 473.513C423.167 473.987 422.719 474.583 422.719 475.303C422.719 475.684 422.875 475.967 423.188 476.153C423.502 476.331 424.039 476.42 424.801 476.42H427.264C428.77 476.42 429.925 476.737 430.729 477.372C431.542 478.007 431.948 478.929 431.948 480.14C431.948 481.68 431.33 482.852 430.095 483.656C428.859 484.469 427.056 484.875 424.687 484.875C422.867 484.875 421.462 484.536 420.472 483.859C419.49 483.182 418.999 482.226 418.999 480.99C418.999 480.144 419.27 479.412 419.812 478.794C420.353 478.176 421.115 477.757 422.097 477.537C421.741 477.376 421.441 477.127 421.195 476.788C420.958 476.45 420.84 476.056 420.84 475.607C420.84 475.1 420.975 474.655 421.246 474.274C421.517 473.894 421.944 473.525 422.528 473.17C421.809 472.874 421.221 472.37 420.764 471.659C420.315 470.948 420.091 470.136 420.091 469.222C420.091 467.698 420.548 466.526 421.462 465.705C422.376 464.876 423.671 464.461 425.347 464.461C426.075 464.461 426.73 464.546 427.314 464.715H432.126ZM421.03 480.965C421.03 481.718 421.348 482.289 421.982 482.679C422.617 483.068 423.527 483.263 424.712 483.263C426.481 483.263 427.788 482.996 428.635 482.463C429.49 481.938 429.917 481.223 429.917 480.317C429.917 479.564 429.684 479.039 429.219 478.743C428.753 478.455 427.877 478.312 426.591 478.312H424.064C423.108 478.312 422.363 478.54 421.83 478.997C421.297 479.454 421.03 480.11 421.03 480.965ZM422.173 469.171C422.173 470.144 422.448 470.881 422.998 471.38C423.548 471.879 424.314 472.129 425.296 472.129C427.353 472.129 428.381 471.13 428.381 469.133C428.381 467.042 427.34 465.997 425.258 465.997C424.268 465.997 423.506 466.264 422.973 466.797C422.439 467.33 422.173 468.121 422.173 469.171ZM440.86 478.883C438.804 478.883 437.179 478.257 435.985 477.004C434.8 475.751 434.208 474.012 434.208 471.786C434.208 469.543 434.758 467.762 435.858 466.441C436.967 465.121 438.452 464.461 440.314 464.461C442.058 464.461 443.438 465.036 444.453 466.188C445.469 467.33 445.977 468.841 445.977 470.72V472.053H436.392C436.434 473.686 436.844 474.926 437.623 475.772C438.41 476.619 439.515 477.042 440.937 477.042C442.435 477.042 443.916 476.729 445.38 476.103V477.981C444.635 478.303 443.928 478.532 443.26 478.667C442.6 478.811 441.8 478.883 440.86 478.883ZM440.289 466.226C439.172 466.226 438.279 466.59 437.61 467.317C436.95 468.045 436.561 469.052 436.442 470.339H443.717C443.717 469.01 443.421 467.994 442.828 467.292C442.236 466.581 441.389 466.226 440.289 466.226ZM455.93 464.461C456.548 464.461 457.102 464.512 457.593 464.613L457.301 466.568C456.725 466.441 456.217 466.378 455.777 466.378C454.652 466.378 453.687 466.835 452.883 467.749C452.087 468.663 451.689 469.801 451.689 471.164V478.629H449.582V464.715H451.321L451.562 467.292H451.664C452.18 466.386 452.802 465.688 453.53 465.197C454.258 464.706 455.058 464.461 455.93 464.461Z" fill="black"/>
</g>
<g clip-path="url(#clip4_403_3163)">
<path d="M228.838 586.632H1002.17" stroke="#D3D2D2" stroke-width="6" stroke-linecap="square" stroke-dasharray="10 10"/>
<path d="M-370.196 586.632L231.217 586.632" stroke="#196EC1" stroke-width="6" stroke-linecap="square"/>
<ellipse cx="213.111" cy="546.696" rx="7.36842" ry="11.143" fill="#474747"/>
<ellipse cx="213.111" cy="528.515" rx="6.14035" ry="5.86475" fill="#474747"/>
<path d="M218.682 529.185C218.935 529.855 219.568 529.855 219.821 529.185L220.391 527.677C220.644 527.007 220.328 526.169 219.821 526.169H218.682C218.176 526.169 217.86 527.007 218.113 527.677L218.682 529.185Z" fill="#D3D2D2"/>
<path d="M206.402 529.185C206.655 529.855 207.287 529.855 207.541 529.185L208.11 527.677C208.363 527.007 208.047 526.169 207.541 526.169H206.402C205.895 526.169 205.579 527.007 205.832 527.677L206.402 529.185Z" fill="#D3D2D2"/>
<path fill-rule="evenodd" clip-rule="evenodd" d="M214.321 529.688C214.218 530.237 213.716 530.654 213.111 530.654C212.507 530.654 212.005 530.237 211.902 529.688C210.898 530.09 210.655 530.982 210.655 531.473C210.655 531.827 211.077 531.827 213.111 531.827H213.111H213.112C215.146 531.827 215.568 531.827 215.568 531.473C215.568 530.982 215.325 530.09 214.321 529.688Z" fill="#D3D2D2"/>
<ellipse cx="233.375" cy="546.696" rx="7.36842" ry="11.143" fill="#474747"/>
<mask id="mask4_403_3163" style="mask-type:alpha" maskUnits="userSpaceOnUse" x="226" y="535" width="15" height="23">
<ellipse cx="233.375" cy="546.696" rx="7.36842" ry="11.143" fill="#474747"/>
</mask>
<g mask="url(#mask4_403_3163)">
<rect x="222.472" y="535.256" width="21.8053" height="10.7035" fill="#0A427A" stroke="white" stroke-width="0.3"/>
</g>
<ellipse cx="233.375" cy="528.515" rx="6.14035" ry="5.86475" fill="#474747"/>
<rect width="15.9593" height="5.86703" rx="2.93351" transform="matrix(0.99631 0.0858296 -0.094016 0.995571 231.47 535.553)" fill="#474747"/>
<mask id="mask5_403_3163" style="mask-type:alpha" maskUnits="userSpaceOnUse" x="231" y="535" width="17" height="8">
<rect width="15.9593" height="5.86703" rx="2.93351" transform="matrix(0.99631 0.0858296 -0.094016 0.995571 231.47 535.553)" fill="#474747"/>
</mask>
<g mask="url(#mask5_403_3163)">
<rect x="0.132962" y="0.163994" width="14.4299" height="10.262" transform="matrix(0.995066 0.0992165 -0.108653 0.99408 225.41 531.319)" fill="#0A427A" stroke="white" stroke-width="0.3"/>
</g>
<path fill-rule="evenodd" clip-rule="evenodd" d="M173.852 540.038C168.943 540.038 164.963 543.434 164.963 547.622V564.124C164.963 568.313 168.943 571.708 173.852 571.708H178.051C178.037 571.434 178.03 571.158 178.03 570.88C178.03 562.135 185.134 555.045 193.897 555.045C202.66 555.045 209.763 562.135 209.763 570.88C209.763 571.158 209.756 571.434 209.742 571.708H256.451C256.437 571.434 256.43 571.158 256.43 570.88C256.43 562.135 263.534 555.045 272.297 555.045C281.06 555.045 288.163 562.135 288.163 570.88C288.163 571.158 288.156 571.434 288.142 571.708H296.074C300.984 571.708 304.963 568.313 304.963 564.124V547.622C304.963 543.434 300.984 540.038 296.074 540.038H173.852Z" fill="#0080FF"/>
<path fill-rule="evenodd" clip-rule="evenodd" d="M193.897 582.316C200.51 582.316 205.87 577.196 205.87 570.88C205.87 564.564 200.51 559.444 193.897 559.444C187.284 559.444 181.923 564.564 181.923 570.88C181.923 577.196 187.284 582.316 193.897 582.316ZM272.297 582.316C278.909 582.316 284.27 577.196 284.27 570.88C284.27 564.564 278.909 559.444 272.297 559.444C265.684 559.444 260.323 564.564 260.323 570.88C260.323 577.196 265.684 582.316 272.297 582.316Z" fill="#474747"/>
<path d="M196.31 510.128C191.206 510.128 187.069 513.553 187.069 517.778V544.552C187.069 548.776 191.206 552.201 196.31 552.201H209.789C204.704 552.182 200.59 548.765 200.59 544.552V521.94C200.59 520.884 201.624 520.028 202.9 520.028H240.412C241.021 520.028 241.605 520.226 242.037 520.581L258.656 539.114C264.514 543.913 260.426 552.172 252.2 552.201H269.914C278.306 552.201 282.354 543.688 276.212 538.954L247.489 512.18C245.779 510.861 243.528 510.128 241.191 510.128H196.31Z" fill="#0080FF"/>
<path d="M143.495 621.328C143.495 624.637 142.675 627.18 141.034 628.957C139.394 630.735 137.042 631.623 133.98 631.623C130.917 631.623 128.566 630.735 126.925 628.957C125.284 627.18 124.464 624.628 124.464 621.301C124.464 617.974 125.284 615.436 126.925 613.686C128.575 611.927 130.935 611.047 134.007 611.047C137.079 611.047 139.426 611.931 141.048 613.699C142.68 615.468 143.495 618.011 143.495 621.328ZM128.907 621.328C128.907 623.561 129.331 625.243 130.179 626.373C131.027 627.503 132.294 628.069 133.98 628.069C137.361 628.069 139.052 625.822 139.052 621.328C139.052 616.826 137.37 614.574 134.007 614.574C132.321 614.574 131.049 615.144 130.193 616.283C129.336 617.414 128.907 619.095 128.907 621.328ZM161.419 631.35H157.249V622.422C157.249 621.319 157.053 620.494 156.661 619.948C156.269 619.392 155.645 619.114 154.788 619.114C153.622 619.114 152.779 619.505 152.259 620.289C151.74 621.064 151.48 622.354 151.48 624.158V631.35H147.31V616.065H150.495L151.056 618.02H151.288C151.753 617.281 152.391 616.726 153.202 616.352C154.023 615.969 154.952 615.778 155.991 615.778C157.769 615.778 159.118 616.261 160.038 617.227C160.959 618.184 161.419 619.569 161.419 621.383V631.35ZM179.425 628.301C180.154 628.301 181.029 628.142 182.05 627.823V630.926C181.011 631.391 179.735 631.623 178.222 631.623C176.554 631.623 175.337 631.204 174.572 630.365C173.815 629.518 173.437 628.251 173.437 626.565V619.196H171.441V617.432L173.738 616.037L174.941 612.811H177.607V616.065H181.886V619.196H177.607V626.565C177.607 627.157 177.771 627.595 178.099 627.877C178.436 628.16 178.878 628.301 179.425 628.301ZM199.263 631.35H195.093V622.422C195.093 620.216 194.273 619.114 192.632 619.114C191.465 619.114 190.622 619.51 190.103 620.303C189.583 621.096 189.323 622.381 189.323 624.158V631.35H185.154V610.076H189.323V614.41C189.323 614.748 189.292 615.541 189.228 616.789L189.132 618.02H189.351C190.281 616.525 191.757 615.778 193.781 615.778C195.576 615.778 196.939 616.261 197.868 617.227C198.798 618.193 199.263 619.578 199.263 621.383V631.35ZM209.886 618.744C209.002 618.744 208.309 619.027 207.808 619.592C207.307 620.148 207.019 620.941 206.947 621.971H212.798C212.78 620.941 212.511 620.148 211.991 619.592C211.472 619.027 210.77 618.744 209.886 618.744ZM210.474 631.623C208.013 631.623 206.09 630.944 204.704 629.586C203.319 628.228 202.626 626.305 202.626 623.817C202.626 621.255 203.264 619.278 204.54 617.883C205.825 616.479 207.598 615.778 209.859 615.778C212.019 615.778 213.7 616.393 214.904 617.623C216.107 618.854 216.708 620.554 216.708 622.723V624.746H206.851C206.896 625.931 207.247 626.856 207.904 627.522C208.56 628.187 209.48 628.52 210.665 628.52C211.586 628.52 212.456 628.424 213.277 628.233C214.097 628.041 214.954 627.736 215.847 627.317V630.543C215.118 630.908 214.338 631.177 213.509 631.35C212.68 631.532 211.668 631.623 210.474 631.623ZM233.579 631.623C228.822 631.623 226.443 629.012 226.443 623.789C226.443 621.192 227.09 619.209 228.384 617.842C229.678 616.466 231.533 615.778 233.948 615.778C235.717 615.778 237.303 616.124 238.706 616.817L237.476 620.043C236.82 619.779 236.209 619.565 235.644 619.401C235.079 619.227 234.514 619.141 233.948 619.141C231.779 619.141 230.695 620.681 230.695 623.762C230.695 626.752 231.779 628.246 233.948 628.246C234.751 628.246 235.493 628.142 236.177 627.932C236.861 627.713 237.544 627.376 238.228 626.92V630.489C237.553 630.917 236.87 631.213 236.177 631.377C235.493 631.541 234.628 631.623 233.579 631.623ZM245.952 631.35H241.782V610.076H245.952V631.35ZM253.663 623.68C253.663 625.193 253.909 626.337 254.402 627.112C254.903 627.886 255.714 628.274 256.835 628.274C257.947 628.274 258.745 627.891 259.228 627.125C259.72 626.351 259.966 625.202 259.966 623.68C259.966 622.167 259.72 621.032 259.228 620.276C258.736 619.519 257.929 619.141 256.808 619.141C255.696 619.141 254.894 619.519 254.402 620.276C253.909 621.023 253.663 622.158 253.663 623.68ZM264.232 623.68C264.232 626.168 263.575 628.114 262.263 629.518C260.95 630.921 259.123 631.623 256.781 631.623C255.313 631.623 254.019 631.304 252.898 630.666C251.777 630.019 250.915 629.094 250.314 627.891C249.712 626.688 249.411 625.284 249.411 623.68C249.411 621.183 250.063 619.241 251.366 617.856C252.67 616.47 254.502 615.778 256.863 615.778C258.33 615.778 259.624 616.097 260.745 616.735C261.866 617.373 262.728 618.289 263.329 619.483C263.931 620.677 264.232 622.076 264.232 623.68ZM273.884 631.623C269.126 631.623 266.747 629.012 266.747 623.789C266.747 621.192 267.394 619.209 268.689 617.842C269.983 616.466 271.838 615.778 274.253 615.778C276.021 615.778 277.607 616.124 279.011 616.817L277.781 620.043C277.124 619.779 276.514 619.565 275.948 619.401C275.383 619.227 274.818 619.141 274.253 619.141C272.084 619.141 270.999 620.681 270.999 623.762C270.999 626.752 272.084 628.246 274.253 628.246C275.055 628.246 275.798 628.142 276.482 627.932C277.165 627.713 277.849 627.376 278.532 626.92V630.489C277.858 630.917 277.174 631.213 276.482 631.377C275.798 631.541 274.932 631.623 273.884 631.623ZM286.093 623.037L287.911 620.713L292.191 616.065H296.894L290.823 622.696L297.263 631.35H292.45L288.048 625.156L286.257 626.592V631.35H282.087V610.076H286.257V619.565L286.038 623.037H286.093Z" fill="black"/>
<path d="M437.143 522.527C437.143 526.552 435.779 531.147 433.579 535.927C431.381 540.701 428.366 545.624 425.105 550.298C418.783 559.357 411.56 567.438 407.643 571.615C403.711 567.438 396.488 559.357 390.169 550.298C386.91 545.625 383.899 540.701 381.704 535.927C379.506 531.147 378.143 526.552 378.143 522.527C378.143 506.304 392.048 493.123 408.358 493.123C424.636 493.123 437.143 506.273 437.143 522.527Z" fill="#0080FF" stroke="#0080FF"/>
<ellipse cx="407.643" cy="522.862" rx="23.0471" ry="23.2307" fill="white"/>
<mask id="path-91-inside-2_403_3163" fill="white">
<path d="M407.393 504.994L425.371 522.477L422.121 524.888L407.393 509.306L392.666 524.888L389.916 522.477L407.393 504.994Z"/>
</mask>
<path d="M407.393 504.994L410.182 502.126L407.354 499.376L404.565 502.166L407.393 504.994ZM425.371 522.477L427.754 525.689L431.53 522.887L428.159 519.609L425.371 522.477ZM389.916 522.477L387.087 519.649L384.068 522.669L387.279 525.484L389.916 522.477ZM392.666 524.888L390.029 527.896L392.926 530.436L395.573 527.636L392.666 524.888ZM422.121 524.888L419.214 527.636L421.653 530.216L424.504 528.1L422.121 524.888ZM407.393 509.306L410.3 506.558L407.393 503.483L404.486 506.558L407.393 509.306ZM404.605 507.861L422.582 525.344L428.159 519.609L410.182 502.126L404.605 507.861ZM392.745 525.305L410.222 507.822L404.565 502.166L387.087 519.649L392.745 525.305ZM395.303 521.881L392.553 519.469L387.279 525.484L390.029 527.896L395.303 521.881ZM422.987 519.264L419.737 521.676L424.504 528.1L427.754 525.689L422.987 519.264ZM425.028 522.14L410.3 506.558L404.486 512.054L419.214 527.636L425.028 522.14ZM404.486 506.558L389.759 522.14L395.573 527.636L410.3 512.054L404.486 506.558Z" fill="#474747" mask="url(#path-91-inside-2_403_3163)"/>
<path fill-rule="evenodd" clip-rule="evenodd" d="M407.484 506.368L419.393 517.673V536.125H395.393V517.673L407.484 506.368ZM415.393 519.273L407.464 510.829L399.393 519.289V531.535H415.393V519.273Z" fill="#474747"/>
<rect x="405.77" y="523.514" width="3.74775" height="10.8831" fill="#474747"/>
<path d="M414.388 586.424C414.388 589.974 411.482 592.86 407.888 592.86C404.294 592.86 401.388 589.974 401.388 586.424C401.388 582.874 404.294 579.988 407.888 579.988C411.482 579.988 414.388 582.874 414.388 586.424Z" fill="#196EC1" stroke="#196EC1"/>
</g>
</g>
<rect x="1" y="0.5" width="479" height="760" stroke="#DD4949"/>
<defs>
<clipPath id="clip0_403_3163">
<rect x="0.5" width="480" height="761" fill="white"/>
</clipPath>
<clipPath id="clip1_403_3163">
<rect width="28.6364" height="39.3811" fill="white" transform="translate(295.673 1.33276)"/>
</clipPath>
<clipPath id="clip2_403_3163">
<rect width="480" height="292.311" fill="white" transform="translate(1.5 216.629)"/>
</clipPath>
<clipPath id="clip3_403_3163">
<rect width="48" height="56.9258" fill="white" transform="translate(210.55 297.195)"/>
</clipPath>
<clipPath id="clip4_403_3163">
<rect width="480" height="154.578" fill="white" transform="translate(-0.449951 490.517)"/>
</clipPath>
</defs>
</svg>
