<svg width="481" height="761" viewBox="0 0 481 761" fill="none" xmlns="http://www.w3.org/2000/svg">
<g clip-path="url(#clip0_403_3117)">
<rect x="0.5" width="480" height="761" fill="white"/>
<path d="M-121.5 101.62H478.5" stroke="#D3D2D2" stroke-width="6" stroke-linecap="round" stroke-dasharray="10 10"/>
<path d="M41.5 101.62L92.5051 101.62L141.5 101.62" stroke="#196EC1" stroke-width="6" stroke-linecap="square"/>
<circle cx="38.0522" cy="101.62" r="6.5" fill="#196EC1" stroke="#196EC1"/>
<ellipse cx="142.795" cy="60.4261" rx="7.36842" ry="11.1548" fill="#474747"/>
<mask id="mask0_403_3117" style="mask-type:alpha" maskUnits="userSpaceOnUse" x="135" y="49" width="16" height="23">
<ellipse cx="142.795" cy="60.4261" rx="7.36842" ry="11.1548" fill="#474747"/>
</mask>
<g mask="url(#mask0_403_3117)">
<rect x="131.892" y="48.974" width="21.8053" height="10.7151" fill="#0A427A" stroke="white" stroke-width="0.3"/>
</g>
<ellipse cx="142.795" cy="42.2263" rx="6.14035" ry="5.87093" fill="#474747"/>
<rect width="15.9594" height="5.87315" rx="2.93658" transform="matrix(0.996302 0.0859194 -0.0939179 0.99558 140.89 49.2714)" fill="#474747"/>
<mask id="mask1_403_3117" style="mask-type:alpha" maskUnits="userSpaceOnUse" x="140" y="49" width="17" height="8">
<rect width="15.9594" height="5.87315" rx="2.93658" transform="matrix(0.996302 0.0859194 -0.0939179 0.99558 140.89 49.2714)" fill="#474747"/>
</mask>
<g mask="url(#mask1_403_3117)">
<rect x="0.132977" y="0.164012" width="14.43" height="10.273" transform="matrix(0.995056 0.09932 -0.10854 0.994092 134.83 45.0337)" fill="#0A427A" stroke="white" stroke-width="0.3"/>
</g>
<path fill-rule="evenodd" clip-rule="evenodd" d="M83.2722 53.7616C78.363 53.7616 74.3833 57.1606 74.3833 61.3535V77.8728C74.3833 82.0656 78.363 85.4646 83.2722 85.4646H87.4713C87.4571 85.1901 87.4499 84.9138 87.4499 84.6358C87.4499 75.8812 94.5537 68.7843 103.317 68.7843C112.08 68.7843 119.183 75.8812 119.183 84.6358C119.183 84.9138 119.176 85.1901 119.162 85.4646H165.871C165.857 85.1901 165.85 84.9138 165.85 84.6358C165.85 75.8812 172.954 68.7843 181.717 68.7843C190.48 68.7843 197.583 75.8812 197.583 84.6358C197.583 84.9138 197.576 85.1901 197.562 85.4646H205.494C210.404 85.4646 214.383 82.0656 214.383 77.8728V61.3535C214.383 57.1606 210.404 53.7616 205.494 53.7616H83.2722Z" fill="#0080FF"/>
<path fill-rule="evenodd" clip-rule="evenodd" d="M103.317 96.0841C109.93 96.0841 115.29 90.9585 115.29 84.6358C115.29 78.3131 109.93 73.1875 103.317 73.1875C96.7037 73.1875 91.3429 78.3131 91.3429 84.6358C91.3429 90.9585 96.7037 96.0841 103.317 96.0841ZM181.717 96.0841C188.329 96.0841 193.69 90.9585 193.69 84.6358C193.69 78.3131 188.329 73.1875 181.717 73.1875C175.104 73.1875 169.743 78.3131 169.743 84.6358C169.743 90.9585 175.104 96.0841 181.717 96.0841Z" fill="#474747"/>
<path d="M105.73 23.8198C100.626 23.8198 96.4886 27.2483 96.4886 31.4776V58.2796C96.4886 62.5089 100.626 65.9374 105.73 65.9374H119.209C114.124 65.9183 110.01 62.4971 110.01 58.2797V35.6444C110.01 34.587 111.044 33.7299 112.32 33.7299H149.832C150.441 33.7299 151.025 33.9289 151.457 34.2836L168.076 52.8367C173.934 57.6405 169.846 65.9077 161.62 65.9374H179.334C187.726 65.9374 191.774 57.4155 185.632 52.6758L156.909 25.8738C155.199 24.5537 152.948 23.8198 150.611 23.8198H105.73Z" fill="#0080FF"/>
<path d="M326.81 35.9767C326.81 40.1005 325.444 44.8051 323.243 49.6976C321.045 54.5839 318.03 59.6224 314.768 64.4046C308.448 73.6717 301.228 81.9386 297.309 86.215C293.376 81.9395 286.155 73.6723 279.839 64.4048C276.579 59.6226 273.567 54.584 271.372 49.6978C269.173 44.8054 267.81 40.1007 267.81 35.9767C267.81 19.3595 281.725 5.87793 298.024 5.87793C314.291 5.87793 326.81 19.3282 326.81 35.9767Z" fill="#0080FF" stroke="#0080FF"/>
<ellipse cx="297.31" cy="36.3202" rx="23.0471" ry="23.771" fill="white"/>
<g clip-path="url(#clip1_403_3117)">
<rect x="289.042" y="36.9866" width="3.57955" height="17.6179" rx="1.78977" fill="#474747"/>
<rect x="296.202" y="36.9866" width="3.57955" height="17.6179" rx="1.78977" fill="#474747"/>
<path fill-rule="evenodd" clip-rule="evenodd" d="M298.767 27.3659C297.845 27.7761 297.354 28.8858 297.672 29.8444L301.095 40.1711C301.413 41.1297 302.418 41.5742 303.341 41.164C304.264 40.7538 304.754 39.6441 304.437 38.6855L301.014 28.3588C300.696 27.4002 299.69 26.9556 298.767 27.3659ZM289.918 27.3659C288.995 26.9556 287.989 27.4002 287.671 28.3588L284.249 38.6855C283.931 39.6441 284.421 40.7538 285.344 41.164C286.267 41.5742 287.273 41.1297 287.59 40.1711L291.013 29.8444C291.331 28.8858 290.841 27.7761 289.918 27.3659Z" fill="#474747"/>
<ellipse cx="294.412" cy="20.405" rx="4.47443" ry="5.18173" fill="#474747"/>
<path fill-rule="evenodd" clip-rule="evenodd" d="M295.293 21.6238C295.218 22.1091 294.852 22.4777 294.412 22.4777C293.971 22.4777 293.605 22.1091 293.531 21.6238C292.799 21.9791 292.622 22.7668 292.622 23.2009C292.622 23.514 292.929 23.514 294.411 23.514H294.412H294.412C295.895 23.514 296.202 23.514 296.202 23.2009C296.202 22.7668 296.025 21.9791 295.293 21.6238Z" fill="#D3D2D2"/>
<path d="M298.471 20.9972C298.656 21.5894 299.117 21.5894 299.301 20.9972L299.716 19.6647C299.901 19.0725 299.67 18.3323 299.301 18.3323H298.471C298.102 18.3323 297.872 19.0725 298.056 19.6647L298.471 20.9972Z" fill="#D3D2D2"/>
<path d="M289.522 20.9972C289.707 21.5894 290.168 21.5894 290.352 20.9972L290.767 19.6647C290.952 19.0725 290.721 18.3323 290.352 18.3323H289.522C289.154 18.3323 288.923 19.0725 289.107 19.6647L289.522 20.9972Z" fill="#D3D2D2"/>
<path d="M287.939 27.3464C288.063 26.9181 288.455 26.623 288.901 26.623C292.761 26.6231 295.697 26.623 299.925 26.623C300.369 26.623 300.762 26.9164 300.886 27.3432L302.466 32.7627L299.781 33.8774V42.1682H289.042V33.8774L286.358 32.8411L287.939 27.3464Z" fill="#474747"/>
<path fill-rule="evenodd" clip-rule="evenodd" d="M303.277 42.2319C303.357 41.0254 304.182 40.0956 305.175 40.0956H308.323C309.315 40.0956 310.141 41.0254 310.22 42.2319L310.879 52.283H309.467L308.859 43.1611C308.832 42.5782 308.501 42.1256 308.103 42.1256H305.395C304.996 42.1256 304.666 42.5782 304.639 43.1611L303.876 54.6044H302.466L303.277 42.2319Z" fill="#474747"/>
<rect x="303.474" y="44.1581" width="6.55041" height="1.74106" fill="#474747"/>
<ellipse cx="310.276" cy="53.1535" rx="1.25969" ry="1.45088" fill="#0080FF"/>
</g>
<path d="M303.81 99.8348C303.81 103.385 300.904 106.271 297.31 106.271C293.715 106.271 290.81 103.385 290.81 99.8348C290.81 96.2844 293.715 93.3986 297.31 93.3986C300.904 93.3986 303.81 96.2844 303.81 99.8348Z" fill="#196EC1" stroke="#196EC1"/>
<path d="M41.5059 123.583C39.9108 123.583 38.6758 124.185 37.8008 125.388C36.9258 126.582 36.4883 128.25 36.4883 130.392C36.4883 134.849 38.1608 137.077 41.5059 137.077C42.9095 137.077 44.6094 136.726 46.6055 136.025V139.579C44.9648 140.263 43.1328 140.605 41.1094 140.605C38.2018 140.605 35.9779 139.725 34.4375 137.966C32.8971 136.198 32.127 133.664 32.127 130.364C32.127 128.286 32.5052 126.468 33.2617 124.909C34.0182 123.342 35.1029 122.143 36.5156 121.314C37.9375 120.475 39.6009 120.056 41.5059 120.056C43.4473 120.056 45.3978 120.525 47.3574 121.464L45.9902 124.909C45.2428 124.554 44.4909 124.244 43.7344 123.98C42.9779 123.715 42.235 123.583 41.5059 123.583ZM54.7129 140.331H50.543V119.058H54.7129V140.331ZM62.4238 132.661C62.4238 134.174 62.6699 135.318 63.1621 136.093C63.6634 136.868 64.4746 137.255 65.5957 137.255C66.7077 137.255 67.5052 136.872 67.9883 136.107C68.4805 135.332 68.7266 134.183 68.7266 132.661C68.7266 131.148 68.4805 130.013 67.9883 129.257C67.4961 128.5 66.6895 128.122 65.5684 128.122C64.4564 128.122 63.6543 128.5 63.1621 129.257C62.6699 130.004 62.4238 131.139 62.4238 132.661ZM72.9922 132.661C72.9922 135.15 72.3359 137.095 71.0234 138.499C69.7109 139.903 67.8835 140.605 65.541 140.605C64.0736 140.605 62.7793 140.286 61.6582 139.648C60.5371 139 59.6758 138.075 59.0742 136.872C58.4727 135.669 58.1719 134.265 58.1719 132.661C58.1719 130.164 58.8236 128.222 60.127 126.837C61.4303 125.452 63.2624 124.759 65.623 124.759C67.0905 124.759 68.3848 125.078 69.5059 125.716C70.627 126.354 71.4883 127.27 72.0898 128.464C72.6914 129.658 72.9922 131.057 72.9922 132.661ZM82.6445 140.605C77.8867 140.605 75.5078 137.993 75.5078 132.771C75.5078 130.173 76.1549 128.191 77.4492 126.823C78.7435 125.447 80.5983 124.759 83.0137 124.759C84.7819 124.759 86.3678 125.105 87.7715 125.798L86.541 129.025C85.8848 128.76 85.2741 128.546 84.709 128.382C84.1439 128.209 83.5788 128.122 83.0137 128.122C80.8444 128.122 79.7598 129.663 79.7598 132.743C79.7598 135.733 80.8444 137.228 83.0137 137.228C83.8158 137.228 84.5586 137.123 85.2422 136.913C85.9258 136.694 86.6094 136.357 87.293 135.901V139.47C86.6185 139.898 85.9349 140.194 85.2422 140.359C84.5586 140.523 83.6927 140.605 82.6445 140.605ZM94.8535 132.019L96.6719 129.694L100.951 125.046H105.654L99.584 131.677L106.023 140.331H101.211L96.8086 134.138L95.0176 135.573V140.331H90.8477V119.058H95.0176V128.546L94.7988 132.019H94.8535ZM115.307 121.095C115.307 119.737 116.063 119.058 117.576 119.058C119.089 119.058 119.846 119.737 119.846 121.095C119.846 121.742 119.654 122.248 119.271 122.612C118.898 122.968 118.333 123.146 117.576 123.146C116.063 123.146 115.307 122.462 115.307 121.095ZM119.654 140.331H115.484V125.046H119.654V140.331ZM138.152 140.331H133.982V131.403C133.982 130.301 133.786 129.476 133.395 128.929C133.003 128.373 132.378 128.095 131.521 128.095C130.355 128.095 129.512 128.487 128.992 129.271C128.473 130.045 128.213 131.335 128.213 133.14V140.331H124.043V125.046H127.229L127.789 127.001H128.021C128.486 126.263 129.124 125.707 129.936 125.333C130.756 124.95 131.686 124.759 132.725 124.759C134.502 124.759 135.851 125.242 136.771 126.208C137.692 127.165 138.152 128.551 138.152 130.364V140.331Z" fill="black"/>
<path d="M40.999 159.434C38.9593 159.434 37.347 160.115 36.1621 161.478C34.9857 162.832 34.3975 164.69 34.3975 167.051C34.3975 169.48 34.9645 171.359 36.0986 172.688C37.2412 174.008 38.8662 174.668 40.9736 174.668C42.2686 174.668 43.7454 174.435 45.4043 173.97V175.861C44.1178 176.344 42.5309 176.585 40.6436 176.585C37.9098 176.585 35.7982 175.756 34.3086 174.097C32.8275 172.438 32.0869 170.081 32.0869 167.026C32.0869 165.113 32.4424 163.437 33.1533 161.998C33.8727 160.559 34.9053 159.451 36.251 158.672C37.6051 157.893 39.1963 157.504 41.0244 157.504C42.971 157.504 44.6722 157.859 46.1279 158.57L45.2139 160.424C43.8089 159.764 42.404 159.434 40.999 159.434ZM51.2441 176.331H49.1367V156.577H51.2441V176.331ZM67.7227 169.361C67.7227 171.63 67.1514 173.403 66.0088 174.681C64.8662 175.95 63.2878 176.585 61.2734 176.585C60.0293 176.585 58.9248 176.293 57.96 175.709C56.9951 175.125 56.2503 174.287 55.7256 173.195C55.2008 172.104 54.9385 170.826 54.9385 169.361C54.9385 167.093 55.5055 165.329 56.6396 164.068C57.7738 162.798 59.348 162.163 61.3623 162.163C63.3089 162.163 64.8535 162.811 65.9961 164.106C67.1471 165.401 67.7227 167.152 67.7227 169.361ZM57.1221 169.361C57.1221 171.139 57.4775 172.493 58.1885 173.424C58.8994 174.355 59.9447 174.82 61.3242 174.82C62.7038 174.82 63.749 174.359 64.46 173.437C65.1794 172.506 65.5391 171.147 65.5391 169.361C65.5391 167.593 65.1794 166.251 64.46 165.337C63.749 164.415 62.6953 163.953 61.2988 163.953C59.9193 163.953 58.8783 164.406 58.1758 165.312C57.4733 166.217 57.1221 167.567 57.1221 169.361ZM76.9902 176.585C74.9759 176.585 73.4144 175.967 72.3057 174.732C71.2054 173.487 70.6553 171.731 70.6553 169.463C70.6553 167.136 71.2139 165.337 72.3311 164.068C73.4567 162.798 75.0563 162.163 77.1299 162.163C77.7985 162.163 78.4671 162.235 79.1357 162.379C79.8044 162.523 80.3291 162.692 80.71 162.887L80.0625 164.677C79.597 164.491 79.0892 164.338 78.5391 164.22C77.9889 164.093 77.5023 164.029 77.0791 164.029C74.2523 164.029 72.8389 165.832 72.8389 169.438C72.8389 171.147 73.1816 172.459 73.8672 173.373C74.5612 174.287 75.5853 174.744 76.9395 174.744C78.099 174.744 79.2881 174.495 80.5068 173.995V175.861C79.5758 176.344 78.4036 176.585 76.9902 176.585ZM85.9023 169.209C86.2663 168.693 86.8206 168.016 87.5654 167.178L92.0596 162.417H94.5605L88.9238 168.346L94.9541 176.331H92.4023L87.4893 169.755L85.9023 171.126V176.331H83.8203V156.577H85.9023V167.051C85.9023 167.516 85.8685 168.236 85.8008 169.209H85.9023ZM106.342 176.331H104.234V162.417H106.342V176.331ZM104.057 158.647C104.057 158.164 104.175 157.813 104.412 157.593C104.649 157.364 104.945 157.25 105.301 157.25C105.639 157.25 105.931 157.364 106.177 157.593C106.422 157.821 106.545 158.173 106.545 158.647C106.545 159.121 106.422 159.476 106.177 159.713C105.931 159.942 105.639 160.056 105.301 160.056C104.945 160.056 104.649 159.942 104.412 159.713C104.175 159.476 104.057 159.121 104.057 158.647ZM120.332 176.331V167.33C120.332 166.196 120.074 165.35 119.558 164.791C119.041 164.233 118.233 163.953 117.133 163.953C115.677 163.953 114.611 164.347 113.934 165.134C113.257 165.921 112.918 167.22 112.918 169.031V176.331H110.811V162.417H112.524L112.867 164.321H112.969C113.4 163.636 114.006 163.107 114.784 162.734C115.563 162.354 116.43 162.163 117.387 162.163C119.062 162.163 120.324 162.569 121.17 163.382C122.016 164.186 122.439 165.477 122.439 167.254V176.331H120.332ZM142.092 176.331L141.673 174.351H141.571C140.877 175.222 140.183 175.815 139.489 176.128C138.804 176.433 137.945 176.585 136.912 176.585C135.533 176.585 134.449 176.23 133.662 175.519C132.883 174.808 132.494 173.796 132.494 172.484C132.494 169.675 134.741 168.202 139.235 168.067L141.597 167.99V167.127C141.597 166.035 141.36 165.231 140.886 164.715C140.42 164.19 139.671 163.928 138.639 163.928C137.479 163.928 136.167 164.283 134.703 164.994L134.056 163.382C134.741 163.01 135.49 162.718 136.303 162.506C137.124 162.294 137.945 162.189 138.766 162.189C140.424 162.189 141.652 162.557 142.447 163.293C143.251 164.029 143.653 165.21 143.653 166.835V176.331H142.092ZM137.331 174.846C138.643 174.846 139.671 174.486 140.416 173.767C141.169 173.047 141.546 172.04 141.546 170.745V169.488L139.438 169.577C137.763 169.637 136.552 169.899 135.808 170.364C135.071 170.821 134.703 171.537 134.703 172.51C134.703 173.272 134.932 173.851 135.389 174.249C135.854 174.647 136.502 174.846 137.331 174.846ZM156.983 172.535C156.983 173.83 156.501 174.829 155.536 175.531C154.571 176.234 153.217 176.585 151.474 176.585C149.629 176.585 148.19 176.293 147.157 175.709V173.754C147.826 174.093 148.541 174.359 149.303 174.554C150.073 174.748 150.813 174.846 151.524 174.846C152.625 174.846 153.471 174.672 154.063 174.325C154.656 173.97 154.952 173.432 154.952 172.713C154.952 172.171 154.715 171.71 154.241 171.329C153.776 170.94 152.862 170.483 151.499 169.958C150.204 169.476 149.282 169.057 148.731 168.701C148.19 168.337 147.784 167.927 147.513 167.47C147.25 167.013 147.119 166.467 147.119 165.832C147.119 164.698 147.58 163.805 148.503 163.153C149.425 162.493 150.691 162.163 152.299 162.163C153.797 162.163 155.261 162.468 156.691 163.077L155.942 164.791C154.546 164.216 153.281 163.928 152.146 163.928C151.148 163.928 150.395 164.084 149.887 164.398C149.379 164.711 149.125 165.142 149.125 165.693C149.125 166.065 149.218 166.382 149.404 166.645C149.599 166.907 149.908 167.157 150.331 167.394C150.754 167.631 151.567 167.973 152.769 168.422C154.419 169.023 155.532 169.628 156.107 170.237C156.691 170.847 156.983 171.613 156.983 172.535ZM176.153 172.535C176.153 173.83 175.671 174.829 174.706 175.531C173.741 176.234 172.387 176.585 170.644 176.585C168.799 176.585 167.36 176.293 166.327 175.709V173.754C166.996 174.093 167.711 174.359 168.473 174.554C169.243 174.748 169.983 174.846 170.694 174.846C171.795 174.846 172.641 174.672 173.233 174.325C173.826 173.97 174.122 173.432 174.122 172.713C174.122 172.171 173.885 171.71 173.411 171.329C172.946 170.94 172.032 170.483 170.669 169.958C169.374 169.476 168.451 169.057 167.901 168.701C167.36 168.337 166.953 167.927 166.683 167.47C166.42 167.013 166.289 166.467 166.289 165.832C166.289 164.698 166.75 163.805 167.673 163.153C168.595 162.493 169.861 162.163 171.469 162.163C172.967 162.163 174.431 162.468 175.861 163.077L175.112 164.791C173.716 164.216 172.451 163.928 171.316 163.928C170.318 163.928 169.564 164.084 169.057 164.398C168.549 164.711 168.295 165.142 168.295 165.693C168.295 166.065 168.388 166.382 168.574 166.645C168.769 166.907 169.078 167.157 169.501 167.394C169.924 167.631 170.737 167.973 171.938 168.422C173.589 169.023 174.702 169.628 175.277 170.237C175.861 170.847 176.153 171.613 176.153 172.535ZM191.604 169.361C191.604 171.63 191.032 173.403 189.89 174.681C188.747 175.95 187.169 176.585 185.154 176.585C183.91 176.585 182.806 176.293 181.841 175.709C180.876 175.125 180.131 174.287 179.606 173.195C179.082 172.104 178.819 170.826 178.819 169.361C178.819 167.093 179.386 165.329 180.521 164.068C181.655 162.798 183.229 162.163 185.243 162.163C187.19 162.163 188.734 162.811 189.877 164.106C191.028 165.401 191.604 167.152 191.604 169.361ZM181.003 169.361C181.003 171.139 181.358 172.493 182.069 173.424C182.78 174.355 183.826 174.82 185.205 174.82C186.585 174.82 187.63 174.359 188.341 173.437C189.06 172.506 189.42 171.147 189.42 169.361C189.42 167.593 189.06 166.251 188.341 165.337C187.63 164.415 186.576 163.953 185.18 163.953C183.8 163.953 182.759 164.406 182.057 165.312C181.354 166.217 181.003 167.567 181.003 169.361ZM207.32 169.361C207.32 171.63 206.749 173.403 205.606 174.681C204.464 175.95 202.885 176.585 200.871 176.585C199.627 176.585 198.522 176.293 197.558 175.709C196.593 175.125 195.848 174.287 195.323 173.195C194.799 172.104 194.536 170.826 194.536 169.361C194.536 167.093 195.103 165.329 196.237 164.068C197.371 162.798 198.946 162.163 200.96 162.163C202.907 162.163 204.451 162.811 205.594 164.106C206.745 165.401 207.32 167.152 207.32 169.361ZM196.72 169.361C196.72 171.139 197.075 172.493 197.786 173.424C198.497 174.355 199.542 174.82 200.922 174.82C202.301 174.82 203.347 174.359 204.058 173.437C204.777 172.506 205.137 171.147 205.137 169.361C205.137 167.593 204.777 166.251 204.058 165.337C203.347 164.415 202.293 163.953 200.896 163.953C199.517 163.953 198.476 164.406 197.773 165.312C197.071 166.217 196.72 167.567 196.72 169.361ZM220.549 176.331V167.33C220.549 166.196 220.291 165.35 219.774 164.791C219.258 164.233 218.45 163.953 217.35 163.953C215.894 163.953 214.827 164.347 214.15 165.134C213.473 165.921 213.135 167.22 213.135 169.031V176.331H211.027V162.417H212.741L213.084 164.321H213.186C213.617 163.636 214.222 163.107 215.001 162.734C215.78 162.354 216.647 162.163 217.604 162.163C219.279 162.163 220.54 162.569 221.387 163.382C222.233 164.186 222.656 165.477 222.656 167.254V176.331H220.549ZM242.309 176.331L241.89 174.351H241.788C241.094 175.222 240.4 175.815 239.706 176.128C239.021 176.433 238.161 176.585 237.129 176.585C235.749 176.585 234.666 176.23 233.879 175.519C233.1 174.808 232.711 173.796 232.711 172.484C232.711 169.675 234.958 168.202 239.452 168.067L241.813 167.99V167.127C241.813 166.035 241.576 165.231 241.103 164.715C240.637 164.19 239.888 163.928 238.855 163.928C237.696 163.928 236.384 164.283 234.92 164.994L234.272 163.382C234.958 163.01 235.707 162.718 236.52 162.506C237.34 162.294 238.161 162.189 238.982 162.189C240.641 162.189 241.868 162.557 242.664 163.293C243.468 164.029 243.87 165.21 243.87 166.835V176.331H242.309ZM237.548 174.846C238.86 174.846 239.888 174.486 240.633 173.767C241.386 173.047 241.763 172.04 241.763 170.745V169.488L239.655 169.577C237.979 169.637 236.769 169.899 236.024 170.364C235.288 170.821 234.92 171.537 234.92 172.51C234.92 173.272 235.148 173.851 235.605 174.249C236.071 174.647 236.718 174.846 237.548 174.846ZM257.2 172.535C257.2 173.83 256.718 174.829 255.753 175.531C254.788 176.234 253.434 176.585 251.69 176.585C249.845 176.585 248.407 176.293 247.374 175.709V173.754C248.043 174.093 248.758 174.359 249.52 174.554C250.29 174.748 251.03 174.846 251.741 174.846C252.841 174.846 253.688 174.672 254.28 174.325C254.873 173.97 255.169 173.432 255.169 172.713C255.169 172.171 254.932 171.71 254.458 171.329C253.993 170.94 253.078 170.483 251.716 169.958C250.421 169.476 249.498 169.057 248.948 168.701C248.407 168.337 248 167.927 247.729 167.47C247.467 167.013 247.336 166.467 247.336 165.832C247.336 164.698 247.797 163.805 248.72 163.153C249.642 162.493 250.908 162.163 252.516 162.163C254.014 162.163 255.478 162.468 256.908 163.077L256.159 164.791C254.763 164.216 253.497 163.928 252.363 163.928C251.365 163.928 250.611 164.084 250.104 164.398C249.596 164.711 249.342 165.142 249.342 165.693C249.342 166.065 249.435 166.382 249.621 166.645C249.816 166.907 250.125 167.157 250.548 167.394C250.971 167.631 251.784 167.973 252.985 168.422C254.636 169.023 255.749 169.628 256.324 170.237C256.908 170.847 257.2 171.613 257.2 172.535ZM265.186 162.417H267.445L270.492 170.352C271.161 172.163 271.576 173.47 271.736 174.275H271.838C271.948 173.843 272.176 173.107 272.523 172.066C272.879 171.016 274.03 167.8 275.977 162.417H278.236L272.257 178.261C271.664 179.827 270.97 180.935 270.175 181.587C269.388 182.247 268.419 182.577 267.268 182.577C266.624 182.577 265.99 182.505 265.363 182.361V180.673C265.829 180.775 266.349 180.825 266.925 180.825C268.372 180.825 269.405 180.013 270.022 178.388L270.797 176.407L265.186 162.417ZM292.506 169.361C292.506 171.63 291.935 173.403 290.792 174.681C289.649 175.95 288.071 176.585 286.057 176.585C284.812 176.585 283.708 176.293 282.743 175.709C281.778 175.125 281.034 174.287 280.509 173.195C279.984 172.104 279.722 170.826 279.722 169.361C279.722 167.093 280.289 165.329 281.423 164.068C282.557 162.798 284.131 162.163 286.146 162.163C288.092 162.163 289.637 162.811 290.779 164.106C291.93 165.401 292.506 167.152 292.506 169.361ZM281.905 169.361C281.905 171.139 282.261 172.493 282.972 173.424C283.683 174.355 284.728 174.82 286.107 174.82C287.487 174.82 288.532 174.359 289.243 173.437C289.963 172.506 290.322 171.147 290.322 169.361C290.322 167.593 289.963 166.251 289.243 165.337C288.532 164.415 287.479 163.953 286.082 163.953C284.702 163.953 283.661 164.406 282.959 165.312C282.257 166.217 281.905 167.567 281.905 169.361ZM298.193 162.417V171.443C298.193 172.578 298.451 173.424 298.968 173.983C299.484 174.541 300.292 174.82 301.393 174.82C302.848 174.82 303.91 174.423 304.579 173.627C305.256 172.832 305.595 171.532 305.595 169.73V162.417H307.702V176.331H305.963L305.658 174.465H305.544C305.112 175.151 304.511 175.675 303.741 176.039C302.979 176.403 302.108 176.585 301.126 176.585C299.433 176.585 298.164 176.183 297.317 175.379C296.479 174.575 296.061 173.289 296.061 171.52V162.417H298.193ZM39.209 197.189C41.0371 197.189 42.4548 197.815 43.4619 199.068C44.4775 200.312 44.9854 202.076 44.9854 204.361C44.9854 206.647 44.4733 208.424 43.4492 209.693C42.4336 210.955 41.0202 211.585 39.209 211.585C38.3034 211.585 37.474 211.42 36.7207 211.09C35.9759 210.751 35.3496 210.235 34.8418 209.541H34.6895L34.2451 211.331H32.7344V191.577H34.8418V196.376C34.8418 197.451 34.8079 198.416 34.7402 199.271H34.8418C35.8236 197.883 37.2793 197.189 39.209 197.189ZM38.9043 198.953C37.4655 198.953 36.4287 199.368 35.7939 200.197C35.1592 201.018 34.8418 202.406 34.8418 204.361C34.8418 206.317 35.1676 207.717 35.8193 208.564C36.471 209.401 37.5163 209.82 38.9551 209.82C40.25 209.82 41.2148 209.351 41.8496 208.411C42.4844 207.463 42.8018 206.105 42.8018 204.336C42.8018 202.525 42.4844 201.175 41.8496 200.286C41.2148 199.398 40.2331 198.953 38.9043 198.953ZM54.5576 211.585C52.501 211.585 50.876 210.959 49.6826 209.706C48.4977 208.454 47.9053 206.714 47.9053 204.488C47.9053 202.246 48.4554 200.464 49.5557 199.144C50.6644 197.823 52.1497 197.163 54.0117 197.163C55.7552 197.163 57.1348 197.739 58.1504 198.89C59.166 200.032 59.6738 201.543 59.6738 203.422V204.755H50.0889C50.1312 206.388 50.5417 207.628 51.3203 208.475C52.1074 209.321 53.2119 209.744 54.6338 209.744C56.1318 209.744 57.613 209.431 59.0771 208.805V210.684C58.3324 211.005 57.6257 211.234 56.957 211.369C56.2969 211.513 55.4971 211.585 54.5576 211.585ZM53.9863 198.928C52.8691 198.928 51.9762 199.292 51.3076 200.02C50.6475 200.748 50.2581 201.755 50.1396 203.041H57.4141C57.4141 201.712 57.1178 200.697 56.5254 199.994C55.9329 199.283 55.0866 198.928 53.9863 198.928ZM74.667 197.417V198.75L72.0898 199.055C72.3268 199.351 72.5384 199.74 72.7246 200.223C72.9108 200.697 73.0039 201.234 73.0039 201.835C73.0039 203.198 72.5384 204.285 71.6074 205.098C70.6764 205.91 69.3984 206.317 67.7734 206.317C67.3587 206.317 66.9694 206.283 66.6055 206.215C65.7083 206.689 65.2598 207.286 65.2598 208.005C65.2598 208.386 65.4163 208.669 65.7295 208.856C66.0426 209.033 66.5801 209.122 67.3418 209.122H69.8047C71.3112 209.122 72.4665 209.44 73.2705 210.074C74.083 210.709 74.4893 211.632 74.4893 212.842C74.4893 214.382 73.8714 215.554 72.6357 216.359C71.4001 217.171 69.5973 217.577 67.2275 217.577C65.4079 217.577 64.0029 217.239 63.0127 216.562C62.0309 215.885 61.54 214.928 61.54 213.693C61.54 212.846 61.8109 212.114 62.3525 211.496C62.8942 210.878 63.6559 210.459 64.6377 210.239C64.2822 210.079 63.9818 209.829 63.7363 209.49C63.4993 209.152 63.3809 208.758 63.3809 208.31C63.3809 207.802 63.5163 207.358 63.7871 206.977C64.0579 206.596 64.4854 206.228 65.0693 205.872C64.3499 205.576 63.7617 205.072 63.3047 204.361C62.8561 203.651 62.6318 202.838 62.6318 201.924C62.6318 200.401 63.0889 199.228 64.0029 198.407C64.917 197.578 66.2119 197.163 67.8877 197.163C68.6156 197.163 69.2715 197.248 69.8555 197.417H74.667ZM63.5713 213.667C63.5713 214.42 63.8887 214.992 64.5234 215.381C65.1582 215.77 66.068 215.965 67.2529 215.965C69.0218 215.965 70.3294 215.698 71.1758 215.165C72.0306 214.64 72.458 213.925 72.458 213.02C72.458 212.266 72.2253 211.742 71.7598 211.445C71.2943 211.158 70.4183 211.014 69.1318 211.014H66.6055C65.6491 211.014 64.9043 211.242 64.3711 211.699C63.8379 212.156 63.5713 212.812 63.5713 213.667ZM64.7139 201.873C64.7139 202.846 64.9889 203.583 65.5391 204.082C66.0892 204.582 66.8551 204.831 67.8369 204.831C69.8936 204.831 70.9219 203.832 70.9219 201.835C70.9219 199.745 69.8809 198.699 67.7988 198.699C66.8086 198.699 66.0469 198.966 65.5137 199.499C64.9805 200.032 64.7139 200.824 64.7139 201.873ZM79.6309 211.331H77.5234V197.417H79.6309V211.331ZM77.3457 193.647C77.3457 193.164 77.4642 192.813 77.7012 192.593C77.9382 192.364 78.2344 192.25 78.5898 192.25C78.9284 192.25 79.2204 192.364 79.4658 192.593C79.7113 192.821 79.834 193.173 79.834 193.647C79.834 194.121 79.7113 194.476 79.4658 194.713C79.2204 194.942 78.9284 195.056 78.5898 195.056C78.2344 195.056 77.9382 194.942 77.7012 194.713C77.4642 194.476 77.3457 194.121 77.3457 193.647ZM93.6211 211.331V202.33C93.6211 201.196 93.363 200.35 92.8467 199.791C92.3304 199.233 91.5221 198.953 90.4219 198.953C88.9661 198.953 87.8997 199.347 87.2227 200.134C86.5456 200.921 86.207 202.22 86.207 204.031V211.331H84.0996V197.417H85.8135L86.1562 199.321H86.2578C86.6895 198.636 87.2946 198.107 88.0732 197.734C88.8519 197.354 89.7194 197.163 90.6758 197.163C92.3516 197.163 93.6126 197.569 94.459 198.382C95.3053 199.186 95.7285 200.477 95.7285 202.254V211.331H93.6211ZM111.318 209.846C111.691 209.846 112.05 209.82 112.397 209.77C112.744 209.71 113.02 209.651 113.223 209.592V211.204C112.994 211.314 112.656 211.403 112.207 211.471C111.767 211.547 111.369 211.585 111.014 211.585C108.322 211.585 106.977 210.167 106.977 207.332V199.055H104.983V198.039L106.977 197.163L107.865 194.193H109.084V197.417H113.121V199.055H109.084V207.243C109.084 208.081 109.283 208.724 109.681 209.173C110.078 209.622 110.624 209.846 111.318 209.846ZM125.537 211.331V202.33C125.537 201.196 125.279 200.35 124.763 199.791C124.246 199.233 123.438 198.953 122.338 198.953C120.874 198.953 119.803 199.351 119.126 200.147C118.457 200.942 118.123 202.246 118.123 204.057V211.331H116.016V191.577H118.123V197.557C118.123 198.276 118.089 198.873 118.021 199.347H118.148C118.563 198.678 119.151 198.153 119.913 197.773C120.683 197.383 121.559 197.189 122.541 197.189C124.242 197.189 125.516 197.595 126.362 198.407C127.217 199.211 127.645 200.494 127.645 202.254V211.331H125.537ZM137.864 211.585C135.808 211.585 134.183 210.959 132.989 209.706C131.804 208.454 131.212 206.714 131.212 204.488C131.212 202.246 131.762 200.464 132.862 199.144C133.971 197.823 135.456 197.163 137.318 197.163C139.062 197.163 140.441 197.739 141.457 198.89C142.473 200.032 142.98 201.543 142.98 203.422V204.755H133.396C133.438 206.388 133.848 207.628 134.627 208.475C135.414 209.321 136.519 209.744 137.94 209.744C139.438 209.744 140.92 209.431 142.384 208.805V210.684C141.639 211.005 140.932 211.234 140.264 211.369C139.604 211.513 138.804 211.585 137.864 211.585ZM137.293 198.928C136.176 198.928 135.283 199.292 134.614 200.02C133.954 200.748 133.565 201.755 133.446 203.041H140.721C140.721 201.712 140.424 200.697 139.832 199.994C139.24 199.283 138.393 198.928 137.293 198.928ZM159.688 197.163C160.305 197.163 160.86 197.214 161.351 197.316L161.059 199.271C160.483 199.144 159.975 199.08 159.535 199.08C158.41 199.08 157.445 199.537 156.641 200.451C155.845 201.365 155.447 202.504 155.447 203.866V211.331H153.34V197.417H155.079L155.32 199.994H155.422C155.938 199.089 156.56 198.39 157.288 197.9C158.016 197.409 158.816 197.163 159.688 197.163ZM166.061 211.331H163.953V197.417H166.061V211.331ZM163.775 193.647C163.775 193.164 163.894 192.813 164.131 192.593C164.368 192.364 164.664 192.25 165.02 192.25C165.358 192.25 165.65 192.364 165.896 192.593C166.141 192.821 166.264 193.173 166.264 193.647C166.264 194.121 166.141 194.476 165.896 194.713C165.65 194.942 165.358 195.056 165.02 195.056C164.664 195.056 164.368 194.942 164.131 194.713C163.894 194.476 163.775 194.121 163.775 193.647ZM180 209.465H179.886C178.912 210.878 177.457 211.585 175.519 211.585C173.699 211.585 172.281 210.963 171.266 209.719C170.258 208.475 169.755 206.706 169.755 204.412C169.755 202.119 170.263 200.337 171.278 199.068C172.294 197.798 173.707 197.163 175.519 197.163C177.406 197.163 178.853 197.849 179.86 199.22H180.025L179.937 198.217L179.886 197.239V191.577H181.993V211.331H180.279L180 209.465ZM175.785 209.82C177.224 209.82 178.265 209.431 178.908 208.652C179.56 207.865 179.886 206.6 179.886 204.857V204.412C179.886 202.44 179.556 201.035 178.896 200.197C178.244 199.351 177.199 198.928 175.76 198.928C174.524 198.928 173.576 199.41 172.916 200.375C172.264 201.332 171.938 202.686 171.938 204.438C171.938 206.215 172.264 207.556 172.916 208.462C173.568 209.368 174.524 209.82 175.785 209.82ZM192.353 211.585C190.296 211.585 188.671 210.959 187.478 209.706C186.293 208.454 185.7 206.714 185.7 204.488C185.7 202.246 186.25 200.464 187.351 199.144C188.459 197.823 189.945 197.163 191.807 197.163C193.55 197.163 194.93 197.739 195.945 198.89C196.961 200.032 197.469 201.543 197.469 203.422V204.755H187.884C187.926 206.388 188.337 207.628 189.115 208.475C189.902 209.321 191.007 209.744 192.429 209.744C193.927 209.744 195.408 209.431 196.872 208.805V210.684C196.127 211.005 195.421 211.234 194.752 211.369C194.092 211.513 193.292 211.585 192.353 211.585ZM191.781 198.928C190.664 198.928 189.771 199.292 189.103 200.02C188.442 200.748 188.053 201.755 187.935 203.041H195.209C195.209 201.712 194.913 200.697 194.32 199.994C193.728 199.283 192.882 198.928 191.781 198.928ZM212.322 209.846C212.695 209.846 213.054 209.82 213.401 209.77C213.748 209.71 214.023 209.651 214.227 209.592V211.204C213.998 211.314 213.66 211.403 213.211 211.471C212.771 211.547 212.373 211.585 212.018 211.585C209.326 211.585 207.98 210.167 207.98 207.332V199.055H205.987V198.039L207.98 197.163L208.869 194.193H210.088V197.417H214.125V199.055H210.088V207.243C210.088 208.081 210.287 208.724 210.685 209.173C211.082 209.622 211.628 209.846 212.322 209.846ZM229.029 204.361C229.029 206.63 228.458 208.403 227.315 209.681C226.173 210.95 224.594 211.585 222.58 211.585C221.336 211.585 220.231 211.293 219.267 210.709C218.302 210.125 217.557 209.287 217.032 208.195C216.507 207.104 216.245 205.826 216.245 204.361C216.245 202.093 216.812 200.329 217.946 199.068C219.08 197.798 220.655 197.163 222.669 197.163C224.616 197.163 226.16 197.811 227.303 199.106C228.454 200.401 229.029 202.152 229.029 204.361ZM218.429 204.361C218.429 206.139 218.784 207.493 219.495 208.424C220.206 209.355 221.251 209.82 222.631 209.82C224.01 209.82 225.056 209.359 225.767 208.437C226.486 207.506 226.846 206.147 226.846 204.361C226.846 202.593 226.486 201.251 225.767 200.337C225.056 199.415 224.002 198.953 222.605 198.953C221.226 198.953 220.185 199.406 219.482 200.312C218.78 201.217 218.429 202.567 218.429 204.361ZM245.965 211.585C245.059 211.585 244.23 211.42 243.477 211.09C242.732 210.751 242.105 210.235 241.598 209.541H241.445C241.547 210.354 241.598 211.124 241.598 211.852V217.577H239.49V197.417H241.204L241.496 199.321H241.598C242.139 198.56 242.77 198.01 243.489 197.671C244.209 197.332 245.034 197.163 245.965 197.163C247.81 197.163 249.232 197.794 250.23 199.055C251.238 200.316 251.741 202.085 251.741 204.361C251.741 206.647 251.229 208.424 250.205 209.693C249.189 210.955 247.776 211.585 245.965 211.585ZM245.66 198.953C244.238 198.953 243.21 199.347 242.575 200.134C241.94 200.921 241.615 202.174 241.598 203.892V204.361C241.598 206.317 241.924 207.717 242.575 208.564C243.227 209.401 244.272 209.82 245.711 209.82C246.913 209.82 247.852 209.334 248.529 208.36C249.215 207.387 249.558 206.046 249.558 204.336C249.558 202.601 249.215 201.272 248.529 200.35C247.852 199.419 246.896 198.953 245.66 198.953ZM257.543 211.331H255.436V197.417H257.543V211.331ZM255.258 193.647C255.258 193.164 255.376 192.813 255.613 192.593C255.85 192.364 256.146 192.25 256.502 192.25C256.84 192.25 257.132 192.364 257.378 192.593C257.623 192.821 257.746 193.173 257.746 193.647C257.746 194.121 257.623 194.476 257.378 194.713C257.132 194.942 256.84 195.056 256.502 195.056C256.146 195.056 255.85 194.942 255.613 194.713C255.376 194.476 255.258 194.121 255.258 193.647ZM267.572 211.585C265.558 211.585 263.996 210.967 262.888 209.732C261.787 208.487 261.237 206.731 261.237 204.463C261.237 202.136 261.796 200.337 262.913 199.068C264.039 197.798 265.638 197.163 267.712 197.163C268.381 197.163 269.049 197.235 269.718 197.379C270.386 197.523 270.911 197.692 271.292 197.887L270.645 199.677C270.179 199.491 269.671 199.338 269.121 199.22C268.571 199.093 268.084 199.029 267.661 199.029C264.834 199.029 263.421 200.832 263.421 204.438C263.421 206.147 263.764 207.459 264.449 208.373C265.143 209.287 266.167 209.744 267.521 209.744C268.681 209.744 269.87 209.495 271.089 208.995V210.861C270.158 211.344 268.986 211.585 267.572 211.585ZM276.484 204.209C276.848 203.693 277.403 203.016 278.147 202.178L282.642 197.417H285.143L279.506 203.346L285.536 211.331H282.984L278.071 204.755L276.484 206.126V211.331H274.402V191.577H276.484V202.051C276.484 202.516 276.451 203.236 276.383 204.209H276.484ZM34.7148 232.417V241.443C34.7148 242.578 34.973 243.424 35.4893 243.983C36.0055 244.541 36.8138 244.82 37.9141 244.82C39.3698 244.82 40.432 244.423 41.1006 243.627C41.7777 242.832 42.1162 241.532 42.1162 239.73V232.417H44.2236V246.331H42.4844L42.1797 244.465H42.0654C41.6338 245.151 41.0329 245.675 40.2627 246.039C39.501 246.403 38.6292 246.585 37.6475 246.585C35.9548 246.585 34.6852 246.183 33.8389 245.379C33.001 244.575 32.582 243.289 32.582 241.52V232.417H34.7148ZM55.1797 246.585C54.2741 246.585 53.4447 246.42 52.6914 246.09C51.9466 245.751 51.3203 245.235 50.8125 244.541H50.6602C50.7617 245.354 50.8125 246.124 50.8125 246.852V252.577H48.7051V232.417H50.4189L50.7109 234.321H50.8125C51.3542 233.56 51.9847 233.01 52.7041 232.671C53.4235 232.332 54.2487 232.163 55.1797 232.163C57.0247 232.163 58.4466 232.794 59.4453 234.055C60.4525 235.316 60.9561 237.085 60.9561 239.361C60.9561 241.647 60.444 243.424 59.4199 244.693C58.4043 245.955 56.9909 246.585 55.1797 246.585ZM54.875 233.953C53.4531 233.953 52.4248 234.347 51.79 235.134C51.1553 235.921 50.8294 237.174 50.8125 238.892V239.361C50.8125 241.317 51.1383 242.717 51.79 243.564C52.4417 244.401 53.487 244.82 54.9258 244.82C56.1276 244.82 57.0671 244.334 57.7441 243.36C58.4297 242.387 58.7725 241.046 58.7725 239.336C58.7725 237.601 58.4297 236.272 57.7441 235.35C57.0671 234.419 56.1107 233.953 54.875 233.953ZM75.8984 244.846C76.2708 244.846 76.6305 244.82 76.9775 244.77C77.3245 244.71 77.5996 244.651 77.8027 244.592V246.204C77.5742 246.314 77.2357 246.403 76.7871 246.471C76.347 246.547 75.9492 246.585 75.5938 246.585C72.9023 246.585 71.5566 245.167 71.5566 242.332V234.055H69.5635V233.039L71.5566 232.163L72.4453 229.193H73.6641V232.417H77.7012V234.055H73.6641V242.243C73.6641 243.081 73.863 243.724 74.2607 244.173C74.6585 244.622 75.2044 244.846 75.8984 244.846ZM90.1172 246.331V237.33C90.1172 236.196 89.859 235.35 89.3428 234.791C88.8265 234.233 88.0182 233.953 86.918 233.953C85.4538 233.953 84.3831 234.351 83.7061 235.147C83.0374 235.942 82.7031 237.246 82.7031 239.057V246.331H80.5957V226.577H82.7031V232.557C82.7031 233.276 82.6693 233.873 82.6016 234.347H82.7285C83.1432 233.678 83.7314 233.153 84.4932 232.773C85.2633 232.383 86.1393 232.189 87.1211 232.189C88.8223 232.189 90.096 232.595 90.9424 233.407C91.7972 234.211 92.2246 235.494 92.2246 237.254V246.331H90.1172ZM102.444 246.585C100.388 246.585 98.7627 245.959 97.5693 244.706C96.3844 243.454 95.792 241.714 95.792 239.488C95.792 237.246 96.3421 235.464 97.4424 234.144C98.5511 232.823 100.036 232.163 101.898 232.163C103.642 232.163 105.021 232.739 106.037 233.89C107.053 235.032 107.561 236.543 107.561 238.422V239.755H97.9756C98.0179 241.388 98.4284 242.628 99.207 243.475C99.9941 244.321 101.099 244.744 102.521 244.744C104.019 244.744 105.5 244.431 106.964 243.805V245.684C106.219 246.005 105.512 246.234 104.844 246.369C104.184 246.513 103.384 246.585 102.444 246.585ZM101.873 233.928C100.756 233.928 99.863 234.292 99.1943 235.02C98.5342 235.748 98.1449 236.755 98.0264 238.041H105.301C105.301 236.712 105.005 235.697 104.412 234.994C103.82 234.283 102.973 233.928 101.873 233.928ZM124.395 246.585C123.489 246.585 122.66 246.42 121.906 246.09C121.161 245.751 120.535 245.235 120.027 244.541H119.875C119.977 245.354 120.027 246.124 120.027 246.852V252.577H117.92V232.417H119.634L119.926 234.321H120.027C120.569 233.56 121.2 233.01 121.919 232.671C122.638 232.332 123.464 232.163 124.395 232.163C126.24 232.163 127.661 232.794 128.66 234.055C129.667 235.316 130.171 237.085 130.171 239.361C130.171 241.647 129.659 243.424 128.635 244.693C127.619 245.955 126.206 246.585 124.395 246.585ZM124.09 233.953C122.668 233.953 121.64 234.347 121.005 235.134C120.37 235.921 120.044 237.174 120.027 238.892V239.361C120.027 241.317 120.353 242.717 121.005 243.564C121.657 244.401 122.702 244.82 124.141 244.82C125.342 244.82 126.282 244.334 126.959 243.36C127.645 242.387 127.987 241.046 127.987 239.336C127.987 237.601 127.645 236.272 126.959 235.35C126.282 234.419 125.326 233.953 124.09 233.953ZM142.422 246.331L142.003 244.351H141.901C141.207 245.222 140.513 245.815 139.819 246.128C139.134 246.433 138.275 246.585 137.242 246.585C135.863 246.585 134.779 246.23 133.992 245.519C133.214 244.808 132.824 243.796 132.824 242.484C132.824 239.675 135.071 238.202 139.565 238.067L141.927 237.99V237.127C141.927 236.035 141.69 235.231 141.216 234.715C140.75 234.19 140.001 233.928 138.969 233.928C137.809 233.928 136.497 234.283 135.033 234.994L134.386 233.382C135.071 233.01 135.82 232.718 136.633 232.506C137.454 232.294 138.275 232.189 139.096 232.189C140.755 232.189 141.982 232.557 142.777 233.293C143.581 234.029 143.983 235.21 143.983 236.835V246.331H142.422ZM137.661 244.846C138.973 244.846 140.001 244.486 140.746 243.767C141.499 243.047 141.876 242.04 141.876 240.745V239.488L139.769 239.577C138.093 239.637 136.882 239.899 136.138 240.364C135.401 240.821 135.033 241.537 135.033 242.51C135.033 243.272 135.262 243.851 135.719 244.249C136.184 244.647 136.832 244.846 137.661 244.846ZM157.313 242.535C157.313 243.83 156.831 244.829 155.866 245.531C154.901 246.234 153.547 246.585 151.804 246.585C149.959 246.585 148.52 246.293 147.487 245.709V243.754C148.156 244.093 148.871 244.359 149.633 244.554C150.403 244.748 151.144 244.846 151.854 244.846C152.955 244.846 153.801 244.672 154.394 244.325C154.986 243.97 155.282 243.432 155.282 242.713C155.282 242.171 155.045 241.71 154.571 241.329C154.106 240.94 153.192 240.483 151.829 239.958C150.534 239.476 149.612 239.057 149.062 238.701C148.52 238.337 148.114 237.927 147.843 237.47C147.58 237.013 147.449 236.467 147.449 235.832C147.449 234.698 147.91 233.805 148.833 233.153C149.756 232.493 151.021 232.163 152.629 232.163C154.127 232.163 155.591 232.468 157.021 233.077L156.272 234.791C154.876 234.216 153.611 233.928 152.477 233.928C151.478 233.928 150.725 234.084 150.217 234.398C149.709 234.711 149.455 235.142 149.455 235.693C149.455 236.065 149.548 236.382 149.734 236.645C149.929 236.907 150.238 237.157 150.661 237.394C151.084 237.631 151.897 237.973 153.099 238.422C154.749 239.023 155.862 239.628 156.438 240.237C157.021 240.847 157.313 241.613 157.313 242.535ZM169.729 242.535C169.729 243.83 169.247 244.829 168.282 245.531C167.317 246.234 165.963 246.585 164.22 246.585C162.375 246.585 160.936 246.293 159.903 245.709V243.754C160.572 244.093 161.287 244.359 162.049 244.554C162.819 244.748 163.56 244.846 164.271 244.846C165.371 244.846 166.217 244.672 166.81 244.325C167.402 243.97 167.698 243.432 167.698 242.713C167.698 242.171 167.461 241.71 166.987 241.329C166.522 240.94 165.608 240.483 164.245 239.958C162.95 239.476 162.028 239.057 161.478 238.701C160.936 238.337 160.53 237.927 160.259 237.47C159.996 237.013 159.865 236.467 159.865 235.832C159.865 234.698 160.326 233.805 161.249 233.153C162.172 232.493 163.437 232.163 165.045 232.163C166.543 232.163 168.007 232.468 169.438 233.077L168.688 234.791C167.292 234.216 166.027 233.928 164.893 233.928C163.894 233.928 163.141 234.084 162.633 234.398C162.125 234.711 161.871 235.142 161.871 235.693C161.871 236.065 161.964 236.382 162.15 236.645C162.345 236.907 162.654 237.157 163.077 237.394C163.5 237.631 164.313 237.973 165.515 238.422C167.165 239.023 168.278 239.628 168.854 240.237C169.438 240.847 169.729 241.613 169.729 242.535ZM179.048 246.585C176.991 246.585 175.366 245.959 174.173 244.706C172.988 243.454 172.396 241.714 172.396 239.488C172.396 237.246 172.946 235.464 174.046 234.144C175.155 232.823 176.64 232.163 178.502 232.163C180.245 232.163 181.625 232.739 182.641 233.89C183.656 235.032 184.164 236.543 184.164 238.422V239.755H174.579C174.621 241.388 175.032 242.628 175.811 243.475C176.598 244.321 177.702 244.744 179.124 244.744C180.622 244.744 182.103 244.431 183.567 243.805V245.684C182.823 246.005 182.116 246.234 181.447 246.369C180.787 246.513 179.987 246.585 179.048 246.585ZM178.477 233.928C177.359 233.928 176.466 234.292 175.798 235.02C175.138 235.748 174.748 236.755 174.63 238.041H181.904C181.904 236.712 181.608 235.697 181.016 234.994C180.423 234.283 179.577 233.928 178.477 233.928ZM197.291 246.331V237.33C197.291 236.196 197.033 235.35 196.517 234.791C196 234.233 195.192 233.953 194.092 233.953C192.636 233.953 191.57 234.347 190.893 235.134C190.215 235.921 189.877 237.22 189.877 239.031V246.331H187.77V232.417H189.483L189.826 234.321H189.928C190.359 233.636 190.965 233.107 191.743 232.734C192.522 232.354 193.389 232.163 194.346 232.163C196.021 232.163 197.283 232.569 198.129 233.382C198.975 234.186 199.398 235.477 199.398 237.254V246.331H197.291ZM215.128 232.417V233.75L212.551 234.055C212.788 234.351 212.999 234.74 213.186 235.223C213.372 235.697 213.465 236.234 213.465 236.835C213.465 238.198 212.999 239.285 212.068 240.098C211.137 240.91 209.859 241.317 208.234 241.317C207.82 241.317 207.43 241.283 207.066 241.215C206.169 241.689 205.721 242.286 205.721 243.005C205.721 243.386 205.877 243.669 206.19 243.856C206.504 244.033 207.041 244.122 207.803 244.122H210.266C211.772 244.122 212.927 244.44 213.731 245.074C214.544 245.709 214.95 246.632 214.95 247.842C214.95 249.382 214.332 250.554 213.097 251.359C211.861 252.171 210.058 252.577 207.688 252.577C205.869 252.577 204.464 252.239 203.474 251.562C202.492 250.885 202.001 249.928 202.001 248.693C202.001 247.846 202.272 247.114 202.813 246.496C203.355 245.878 204.117 245.459 205.099 245.239C204.743 245.079 204.443 244.829 204.197 244.49C203.96 244.152 203.842 243.758 203.842 243.31C203.842 242.802 203.977 242.358 204.248 241.977C204.519 241.596 204.946 241.228 205.53 240.872C204.811 240.576 204.223 240.072 203.766 239.361C203.317 238.651 203.093 237.838 203.093 236.924C203.093 235.401 203.55 234.228 204.464 233.407C205.378 232.578 206.673 232.163 208.349 232.163C209.076 232.163 209.732 232.248 210.316 232.417H215.128ZM204.032 248.667C204.032 249.42 204.35 249.992 204.984 250.381C205.619 250.77 206.529 250.965 207.714 250.965C209.483 250.965 210.79 250.698 211.637 250.165C212.492 249.64 212.919 248.925 212.919 248.02C212.919 247.266 212.686 246.742 212.221 246.445C211.755 246.158 210.879 246.014 209.593 246.014H207.066C206.11 246.014 205.365 246.242 204.832 246.699C204.299 247.156 204.032 247.812 204.032 248.667ZM205.175 236.873C205.175 237.846 205.45 238.583 206 239.082C206.55 239.582 207.316 239.831 208.298 239.831C210.354 239.831 211.383 238.832 211.383 236.835C211.383 234.745 210.342 233.699 208.26 233.699C207.27 233.699 206.508 233.966 205.975 234.499C205.441 235.032 205.175 235.824 205.175 236.873ZM223.862 246.585C221.806 246.585 220.181 245.959 218.987 244.706C217.802 243.454 217.21 241.714 217.21 239.488C217.21 237.246 217.76 235.464 218.86 234.144C219.969 232.823 221.454 232.163 223.316 232.163C225.06 232.163 226.439 232.739 227.455 233.89C228.471 235.032 228.979 236.543 228.979 238.422V239.755H219.394C219.436 241.388 219.846 242.628 220.625 243.475C221.412 244.321 222.517 244.744 223.938 244.744C225.437 244.744 226.918 244.431 228.382 243.805V245.684C227.637 246.005 226.93 246.234 226.262 246.369C225.602 246.513 224.802 246.585 223.862 246.585ZM223.291 233.928C222.174 233.928 221.281 234.292 220.612 235.02C219.952 235.748 219.563 236.755 219.444 238.041H226.719C226.719 236.712 226.423 235.697 225.83 234.994C225.238 234.283 224.391 233.928 223.291 233.928ZM238.932 232.163C239.549 232.163 240.104 232.214 240.595 232.316L240.303 234.271C239.727 234.144 239.219 234.08 238.779 234.08C237.654 234.08 236.689 234.537 235.885 235.451C235.089 236.365 234.691 237.504 234.691 238.866V246.331H232.584V232.417H234.323L234.564 234.994H234.666C235.182 234.089 235.804 233.39 236.532 232.9C237.26 232.409 238.06 232.163 238.932 232.163Z" fill="black"/>
<g clip-path="url(#clip2_403_3117)">
<path d="M159.788 385.484H933.121" stroke="#D3D2D2" stroke-width="6" stroke-linecap="square" stroke-dasharray="10 10"/>
<path d="M-439.246 385.484L162.167 385.484" stroke="#196EC1" stroke-width="6" stroke-linecap="square"/>
<ellipse cx="144.061" cy="345.547" rx="7.36842" ry="11.143" fill="#474747"/>
<ellipse cx="144.061" cy="327.367" rx="6.14035" ry="5.86475" fill="#474747"/>
<path d="M149.632 328.037C149.885 328.707 150.518 328.707 150.771 328.037L151.341 326.529C151.594 325.859 151.278 325.021 150.771 325.021H149.632C149.126 325.021 148.81 325.859 149.063 326.529L149.632 328.037Z" fill="#D3D2D2"/>
<path d="M137.352 328.037C137.605 328.707 138.238 328.707 138.491 328.037L139.06 326.529C139.313 325.859 138.997 325.021 138.491 325.021H137.352C136.845 325.021 136.529 325.859 136.782 326.529L137.352 328.037Z" fill="#D3D2D2"/>
<path fill-rule="evenodd" clip-rule="evenodd" d="M145.271 328.54C145.168 329.089 144.666 329.506 144.061 329.506C143.457 329.506 142.955 329.089 142.852 328.54C141.848 328.942 141.605 329.833 141.605 330.325C141.605 330.679 142.027 330.679 144.061 330.679H144.061H144.062C146.096 330.679 146.518 330.679 146.518 330.325C146.518 329.833 146.275 328.942 145.271 328.54Z" fill="#D3D2D2"/>
<ellipse cx="164.325" cy="345.547" rx="7.36842" ry="11.143" fill="#474747"/>
<mask id="mask2_403_3117" style="mask-type:alpha" maskUnits="userSpaceOnUse" x="156" y="334" width="16" height="23">
<ellipse cx="164.325" cy="345.547" rx="7.36842" ry="11.143" fill="#474747"/>
</mask>
<g mask="url(#mask2_403_3117)">
<rect x="153.422" y="334.108" width="21.8053" height="10.7035" fill="#0A427A" stroke="white" stroke-width="0.3"/>
</g>
<ellipse cx="164.325" cy="327.367" rx="6.14035" ry="5.86475" fill="#474747"/>
<rect width="15.9593" height="5.86703" rx="2.93351" transform="matrix(0.99631 0.0858296 -0.094016 0.995571 162.42 334.404)" fill="#474747"/>
<mask id="mask3_403_3117" style="mask-type:alpha" maskUnits="userSpaceOnUse" x="162" y="334" width="17" height="8">
<rect width="15.9593" height="5.86703" rx="2.93351" transform="matrix(0.99631 0.0858296 -0.094016 0.995571 162.42 334.404)" fill="#474747"/>
</mask>
<g mask="url(#mask3_403_3117)">
<rect x="0.132962" y="0.163994" width="14.4299" height="10.262" transform="matrix(0.995066 0.0992165 -0.108653 0.99408 156.36 330.171)" fill="#0A427A" stroke="white" stroke-width="0.3"/>
</g>
<path fill-rule="evenodd" clip-rule="evenodd" d="M104.802 338.89C99.893 338.89 95.9133 342.285 95.9133 346.474V362.976C95.9133 367.164 99.893 370.56 104.802 370.56H109.001C108.987 370.285 108.98 370.009 108.98 369.732C108.98 360.986 116.084 353.897 124.847 353.897C133.61 353.897 140.713 360.986 140.713 369.732C140.713 370.009 140.706 370.285 140.692 370.56H187.401C187.387 370.285 187.38 370.009 187.38 369.732C187.38 360.986 194.484 353.897 203.247 353.897C212.01 353.897 219.113 360.986 219.113 369.732C219.113 370.009 219.106 370.285 219.092 370.56H227.024C231.934 370.56 235.913 367.164 235.913 362.976V346.474C235.913 342.285 231.934 338.89 227.024 338.89H104.802Z" fill="#0080FF"/>
<path fill-rule="evenodd" clip-rule="evenodd" d="M124.847 381.168C131.46 381.168 136.82 376.048 136.82 369.732C136.82 363.416 131.46 358.295 124.847 358.295C118.234 358.295 112.873 363.416 112.873 369.732C112.873 376.048 118.234 381.168 124.847 381.168ZM203.247 381.168C209.859 381.168 215.22 376.048 215.22 369.732C215.22 363.416 209.859 358.295 203.247 358.295C196.634 358.295 191.273 363.416 191.273 369.732C191.273 376.048 196.634 381.168 203.247 381.168Z" fill="#474747"/>
<path d="M127.26 308.98C122.156 308.98 118.019 312.405 118.019 316.629V343.403C118.019 347.628 122.156 351.053 127.26 351.053H140.739C135.654 351.034 131.54 347.616 131.54 343.403V320.792C131.54 319.736 132.574 318.879 133.85 318.879H171.362C171.971 318.879 172.555 319.078 172.987 319.432L189.606 337.966C195.464 342.765 191.376 351.023 183.15 351.053H200.864C209.256 351.053 213.304 342.54 207.162 337.805L178.439 311.032C176.729 309.713 174.478 308.98 172.141 308.98H127.26Z" fill="#0080FF"/>
<path d="M101.445 419.18C101.445 422.488 100.625 425.031 98.9844 426.809C97.3438 428.586 94.9922 429.475 91.9297 429.475C88.8672 429.475 86.5156 428.586 84.875 426.809C83.2344 425.031 82.4141 422.479 82.4141 419.152C82.4141 415.826 83.2344 413.287 84.875 411.537C86.5247 409.778 88.8854 408.898 91.957 408.898C95.0286 408.898 97.3757 409.783 98.998 411.551C100.63 413.319 101.445 415.862 101.445 419.18ZM86.8574 419.18C86.8574 421.413 87.2812 423.094 88.1289 424.225C88.9766 425.355 90.2435 425.92 91.9297 425.92C95.3112 425.92 97.002 423.673 97.002 419.18C97.002 414.677 95.3203 412.426 91.957 412.426C90.2708 412.426 88.9993 412.995 88.1426 414.135C87.2858 415.265 86.8574 416.947 86.8574 419.18ZM119.369 429.201H115.199V420.273C115.199 419.171 115.003 418.346 114.611 417.799C114.219 417.243 113.595 416.965 112.738 416.965C111.572 416.965 110.729 417.357 110.209 418.141C109.689 418.915 109.43 420.205 109.43 422.01V429.201H105.26V413.916H108.445L109.006 415.871H109.238C109.703 415.133 110.341 414.577 111.152 414.203C111.973 413.82 112.902 413.629 113.941 413.629C115.719 413.629 117.068 414.112 117.988 415.078C118.909 416.035 119.369 417.421 119.369 419.234V429.201ZM137.375 426.152C138.104 426.152 138.979 425.993 140 425.674V428.777C138.961 429.242 137.685 429.475 136.172 429.475C134.504 429.475 133.287 429.055 132.521 428.217C131.765 427.369 131.387 426.102 131.387 424.416V417.047H129.391V415.283L131.688 413.889L132.891 410.662H135.557V413.916H139.836V417.047H135.557V424.416C135.557 425.008 135.721 425.446 136.049 425.729C136.386 426.011 136.828 426.152 137.375 426.152ZM157.213 429.201H153.043V420.273C153.043 418.068 152.223 416.965 150.582 416.965C149.415 416.965 148.572 417.361 148.053 418.154C147.533 418.947 147.273 420.232 147.273 422.01V429.201H143.104V407.928H147.273V412.262C147.273 412.599 147.242 413.392 147.178 414.641L147.082 415.871H147.301C148.23 414.376 149.707 413.629 151.73 413.629C153.526 413.629 154.889 414.112 155.818 415.078C156.748 416.044 157.213 417.43 157.213 419.234V429.201ZM167.836 416.596C166.952 416.596 166.259 416.878 165.758 417.443C165.257 417.999 164.969 418.792 164.896 419.822H170.748C170.73 418.792 170.461 417.999 169.941 417.443C169.422 416.878 168.72 416.596 167.836 416.596ZM168.424 429.475C165.963 429.475 164.04 428.796 162.654 427.438C161.269 426.079 160.576 424.156 160.576 421.668C160.576 419.107 161.214 417.129 162.49 415.734C163.775 414.331 165.548 413.629 167.809 413.629C169.969 413.629 171.65 414.244 172.854 415.475C174.057 416.705 174.658 418.405 174.658 420.574V422.598H164.801C164.846 423.783 165.197 424.708 165.854 425.373C166.51 426.038 167.43 426.371 168.615 426.371C169.536 426.371 170.406 426.275 171.227 426.084C172.047 425.893 172.904 425.587 173.797 425.168V428.395C173.068 428.759 172.288 429.028 171.459 429.201C170.63 429.383 169.618 429.475 168.424 429.475ZM191.529 429.475C186.771 429.475 184.393 426.863 184.393 421.641C184.393 419.043 185.04 417.061 186.334 415.693C187.628 414.317 189.483 413.629 191.898 413.629C193.667 413.629 195.253 413.975 196.656 414.668L195.426 417.895C194.77 417.63 194.159 417.416 193.594 417.252C193.029 417.079 192.464 416.992 191.898 416.992C189.729 416.992 188.645 418.533 188.645 421.613C188.645 424.603 189.729 426.098 191.898 426.098C192.701 426.098 193.443 425.993 194.127 425.783C194.811 425.564 195.494 425.227 196.178 424.771V428.34C195.503 428.768 194.82 429.064 194.127 429.229C193.443 429.393 192.577 429.475 191.529 429.475ZM203.902 429.201H199.732V407.928H203.902V429.201ZM211.613 421.531C211.613 423.044 211.859 424.188 212.352 424.963C212.853 425.738 213.664 426.125 214.785 426.125C215.897 426.125 216.695 425.742 217.178 424.977C217.67 424.202 217.916 423.053 217.916 421.531C217.916 420.018 217.67 418.883 217.178 418.127C216.686 417.37 215.879 416.992 214.758 416.992C213.646 416.992 212.844 417.37 212.352 418.127C211.859 418.874 211.613 420.009 211.613 421.531ZM222.182 421.531C222.182 424.02 221.525 425.965 220.213 427.369C218.9 428.773 217.073 429.475 214.73 429.475C213.263 429.475 211.969 429.156 210.848 428.518C209.727 427.87 208.865 426.945 208.264 425.742C207.662 424.539 207.361 423.135 207.361 421.531C207.361 419.034 208.013 417.092 209.316 415.707C210.62 414.322 212.452 413.629 214.812 413.629C216.28 413.629 217.574 413.948 218.695 414.586C219.816 415.224 220.678 416.14 221.279 417.334C221.881 418.528 222.182 419.927 222.182 421.531ZM231.834 429.475C227.076 429.475 224.697 426.863 224.697 421.641C224.697 419.043 225.344 417.061 226.639 415.693C227.933 414.317 229.788 413.629 232.203 413.629C233.971 413.629 235.557 413.975 236.961 414.668L235.73 417.895C235.074 417.63 234.464 417.416 233.898 417.252C233.333 417.079 232.768 416.992 232.203 416.992C230.034 416.992 228.949 418.533 228.949 421.613C228.949 424.603 230.034 426.098 232.203 426.098C233.005 426.098 233.748 425.993 234.432 425.783C235.115 425.564 235.799 425.227 236.482 424.771V428.34C235.808 428.768 235.124 429.064 234.432 429.229C233.748 429.393 232.882 429.475 231.834 429.475ZM244.043 420.889L245.861 418.564L250.141 413.916H254.844L248.773 420.547L255.213 429.201H250.4L245.998 423.008L244.207 424.443V429.201H240.037V407.928H244.207V417.416L243.988 420.889H244.043Z" fill="black"/>
<path d="M368.093 321.378C368.093 325.404 366.729 329.998 364.529 334.779C362.331 339.553 359.316 344.476 356.055 349.149C349.733 358.208 342.51 366.289 338.593 370.467C334.661 366.29 327.438 358.209 321.119 349.149C317.86 344.476 314.849 339.553 312.654 334.779C310.456 329.999 309.093 325.404 309.093 321.378C309.093 305.156 322.998 291.975 339.308 291.975C355.586 291.975 368.093 305.125 368.093 321.378Z" fill="#0080FF" stroke="#0080FF"/>
<ellipse cx="338.593" cy="321.714" rx="23.0471" ry="23.2307" fill="white"/>
<mask id="path-52-inside-1_403_3117" fill="white">
<path d="M338.343 303.846L356.321 321.328L353.071 323.74L338.343 308.158L323.616 323.74L320.866 321.328L338.343 303.846Z"/>
</mask>
<path d="M338.343 303.846L341.132 300.978L338.304 298.227L335.515 301.018L338.343 303.846ZM356.321 321.328L358.704 324.541L362.48 321.739L359.109 318.461L356.321 321.328ZM320.866 321.328L318.037 318.5L315.018 321.52L318.229 324.336L320.866 321.328ZM323.616 323.74L320.979 326.747L323.876 329.288L326.523 326.487L323.616 323.74ZM353.071 323.74L350.164 326.487L352.603 329.068L355.454 326.952L353.071 323.74ZM338.343 308.158L341.25 305.41L338.343 302.334L335.436 305.41L338.343 308.158ZM335.555 306.713L353.532 324.196L359.109 318.461L341.132 300.978L335.555 306.713ZM323.695 324.156L341.172 306.674L335.515 301.018L318.037 318.5L323.695 324.156ZM326.253 320.732L323.503 318.321L318.229 324.336L320.979 326.747L326.253 320.732ZM353.937 318.116L350.687 320.527L355.454 326.952L358.704 324.541L353.937 318.116ZM355.978 320.992L341.25 305.41L335.436 310.905L350.164 326.487L355.978 320.992ZM335.436 305.41L320.709 320.992L326.523 326.487L341.25 310.905L335.436 305.41Z" fill="#474747" mask="url(#path-52-inside-1_403_3117)"/>
<path fill-rule="evenodd" clip-rule="evenodd" d="M338.434 305.22L350.343 316.524V334.977H326.343V316.524L338.434 305.22ZM346.343 318.125L338.414 309.68L330.343 318.141V330.387H346.343V318.125Z" fill="#474747"/>
<rect x="336.72" y="322.365" width="3.74775" height="10.8831" fill="#474747"/>
<path d="M345.338 385.276C345.338 388.826 342.432 391.712 338.838 391.712C335.244 391.712 332.338 388.826 332.338 385.276C332.338 381.725 335.244 378.839 338.838 378.839C342.432 378.839 345.338 381.725 345.338 385.276Z" fill="#196EC1" stroke="#196EC1"/>
</g>
<g clip-path="url(#clip3_403_3117)">
<path d="M14.5654 629.904L499.099 629.713" stroke="#D3D2D2" stroke-width="6" stroke-linecap="round" stroke-dasharray="10 10"/>
<path d="M-177.302 629.904L26.7183 629.904L222.698 629.904" stroke="#196EC1" stroke-width="6" stroke-linecap="square"/>
<circle cx="220.651" cy="629.904" r="6.5" fill="#196EC1" stroke="#196EC1"/>
<ellipse cx="378.458" cy="586.63" rx="7.36842" ry="11.143" fill="#474747"/>
<mask id="mask4_403_3117" style="mask-type:alpha" maskUnits="userSpaceOnUse" x="371" y="575" width="15" height="23">
<ellipse cx="378.458" cy="586.63" rx="7.36842" ry="11.143" fill="#474747"/>
</mask>
<g mask="url(#mask4_403_3117)">
<rect x="367.555" y="575.19" width="21.8053" height="10.7035" fill="#0A427A" stroke="white" stroke-width="0.3"/>
</g>
<ellipse cx="378.458" cy="568.449" rx="6.14035" ry="5.86475" fill="#474747"/>
<rect width="15.9593" height="5.86703" rx="2.93351" transform="matrix(0.99631 0.0858296 -0.094016 0.995571 376.553 575.487)" fill="#474747"/>
<mask id="mask5_403_3117" style="mask-type:alpha" maskUnits="userSpaceOnUse" x="376" y="575" width="17" height="8">
<rect width="15.9593" height="5.86703" rx="2.93351" transform="matrix(0.99631 0.0858296 -0.094016 0.995571 376.553 575.487)" fill="#474747"/>
</mask>
<g mask="url(#mask5_403_3117)">
<rect x="0.132962" y="0.163994" width="14.4299" height="10.262" transform="matrix(0.995066 0.0992165 -0.108653 0.99408 370.493 571.254)" fill="#0A427A" stroke="white" stroke-width="0.3"/>
</g>
<path fill-rule="evenodd" clip-rule="evenodd" d="M318.935 579.973C314.026 579.973 310.046 583.368 310.046 587.556V604.058C310.046 608.247 314.026 611.642 318.935 611.642H323.134C323.12 611.368 323.113 611.092 323.113 610.814C323.113 602.069 330.217 594.979 338.98 594.979C347.743 594.979 354.846 602.069 354.846 610.814C354.846 611.092 354.839 611.368 354.825 611.642H401.534C401.52 611.368 401.513 611.092 401.513 610.814C401.513 602.069 408.617 594.979 417.38 594.979C426.143 594.979 433.246 602.069 433.246 610.814C433.246 611.092 433.239 611.368 433.225 611.642H441.157C446.067 611.642 450.046 608.247 450.046 604.058V587.556C450.046 583.368 446.067 579.973 441.157 579.973H318.935Z" fill="#0080FF"/>
<path fill-rule="evenodd" clip-rule="evenodd" d="M338.98 622.25C345.593 622.25 350.953 617.13 350.953 610.814C350.953 604.498 345.593 599.378 338.98 599.378C332.367 599.378 327.006 604.498 327.006 610.814C327.006 617.13 332.367 622.25 338.98 622.25ZM417.38 622.25C423.992 622.25 429.353 617.13 429.353 610.814C429.353 604.498 423.992 599.378 417.38 599.378C410.767 599.378 405.406 604.498 405.406 610.814C405.406 617.13 410.767 622.25 417.38 622.25Z" fill="#474747"/>
<path d="M341.393 550.062C336.289 550.062 332.152 553.487 332.152 557.712V584.486C332.152 588.711 336.289 592.135 341.393 592.135H354.872C349.787 592.116 345.673 588.699 345.673 584.486V561.874C345.673 560.818 346.707 559.962 347.983 559.962H385.495C386.104 559.962 386.688 560.161 387.121 560.515L403.739 579.049C409.597 583.847 405.51 592.106 397.283 592.135H414.997C423.389 592.135 427.437 583.623 421.295 578.888L392.572 552.114C390.862 550.795 388.611 550.062 386.274 550.062H341.393Z" fill="#0080FF"/>
<path d="M244.28 519.905C244.28 522.833 243.234 526.189 241.533 529.697C239.835 533.198 237.505 536.812 234.982 540.245C230.128 546.848 224.588 552.745 221.539 555.837C218.479 552.746 212.939 546.849 208.089 540.246C205.566 536.812 203.239 533.198 201.543 529.697C199.844 526.189 198.8 522.834 198.8 519.905C198.8 508.075 209.492 498.411 222.093 498.411C234.662 498.411 244.28 508.045 244.28 519.905Z" fill="#0080FF" stroke="#0080FF"/>
<ellipse cx="221.54" cy="520.152" rx="17.8538" ry="17.0863" fill="white"/>
<mask id="path-72-inside-2_403_3117" fill="white">
<path d="M221.346 507.01L235.273 519.869L232.755 521.642L221.346 510.182L209.937 521.642L207.807 519.869L221.346 507.01Z"/>
</mask>
<path d="M221.346 507.01L224.06 504.071L221.308 501.53L218.592 504.11L221.346 507.01ZM235.273 519.869L237.576 523.139L241.623 520.288L237.986 516.93L235.273 519.869ZM207.807 519.869L205.052 516.968L201.792 520.065L205.248 522.943L207.807 519.869ZM209.937 521.642L207.378 524.716L210.19 527.058L212.772 524.464L209.937 521.642ZM232.755 521.642L229.92 524.464L232.3 526.855L235.058 524.912L232.755 521.642ZM221.346 510.182L224.181 507.36L221.346 504.512L218.511 507.36L221.346 510.182ZM218.633 509.949L232.559 522.808L237.986 516.93L224.06 504.071L218.633 509.949ZM210.562 522.769L224.101 509.911L218.592 504.11L205.052 516.968L210.562 522.769ZM212.497 518.568L210.366 516.795L205.248 522.943L207.378 524.716L212.497 518.568ZM232.969 516.599L230.451 518.372L235.058 524.912L237.576 523.139L232.969 516.599ZM235.59 518.82L224.181 507.36L218.511 513.004L229.92 524.464L235.59 518.82ZM218.511 507.36L207.103 518.82L212.772 524.464L224.181 513.004L218.511 507.36Z" fill="#474747" mask="url(#path-72-inside-2_403_3117)"/>
<path fill-rule="evenodd" clip-rule="evenodd" d="M221.416 508.021L230.642 516.335V529.907H212.05V516.335L221.416 508.021ZM227.543 517.513L221.401 511.302L215.149 517.524V526.532H227.543V517.513Z" fill="#474747"/>
<rect x="220.088" y="520.631" width="2.90326" height="8.00455" fill="#474747"/>
<g clip-path="url(#clip4_403_3117)">
<rect x="230.55" y="594.596" width="6" height="25.4668" rx="3" fill="#474747"/>
<rect x="242.55" y="594.596" width="6" height="25.4668" rx="3" fill="#474747"/>
<path fill-rule="evenodd" clip-rule="evenodd" d="M232.017 580.689C230.47 580.096 228.735 580.869 228.14 582.415L222.626 596.761C222.032 598.307 222.804 600.042 224.351 600.635C225.898 601.228 227.633 600.455 228.228 598.908L233.742 584.563C234.336 583.016 233.564 581.282 232.017 580.689ZM246.851 580.689C245.304 581.282 244.532 583.017 245.126 584.563L250.64 598.909C251.234 600.455 252.97 601.228 254.517 600.635C256.064 600.042 256.836 598.307 256.242 596.761L250.728 582.415C250.133 580.869 248.398 580.096 246.851 580.689Z" fill="#474747"/>
<ellipse cx="239.55" cy="570.627" rx="7.5" ry="7.49023" fill="#474747"/>
<path fill-rule="evenodd" clip-rule="evenodd" d="M241.027 572.389C240.902 573.09 240.288 573.623 239.55 573.623C238.812 573.623 238.198 573.09 238.073 572.389C236.846 572.903 236.55 574.041 236.55 574.669C236.55 575.121 237.065 575.121 239.549 575.121H239.55H239.551C242.035 575.121 242.55 575.121 242.55 574.669C242.55 574.041 242.254 572.903 241.027 572.389Z" fill="#A1A1A1"/>
<path d="M246.354 571.483C246.664 572.339 247.436 572.339 247.746 571.483L248.441 569.557C248.75 568.701 248.364 567.631 247.746 567.631H246.354C245.736 567.631 245.35 568.701 245.659 569.557L246.354 571.483Z" fill="#A1A1A1"/>
<path d="M231.354 571.483C231.664 572.339 232.436 572.339 232.746 571.483L233.441 569.557C233.75 568.701 233.364 567.631 232.746 567.631H231.354C230.736 567.631 230.35 568.701 230.659 569.557L231.354 571.483Z" fill="#A1A1A1"/>
<path d="M228.708 580.641C228.912 580.028 229.487 579.615 230.132 579.615C236.747 579.615 241.721 579.615 248.972 579.615C249.615 579.615 250.189 580.026 250.395 580.635L253.05 588.49L248.55 590.102V602.086H230.55V590.102L226.05 588.604L228.708 580.641Z" fill="#474747"/>
<path fill-rule="evenodd" clip-rule="evenodd" d="M254.41 602.178C254.543 600.434 255.928 599.09 257.591 599.09H262.867C264.531 599.09 265.915 600.434 266.048 602.178L267.153 616.707H264.785L263.766 603.521C263.721 602.679 263.167 602.025 262.499 602.025H257.959C257.291 602.025 256.738 602.679 256.692 603.521L255.414 620.063H253.05L254.41 602.178ZM265.045 620.063L265.045 620.063H267.408L267.408 620.063H265.045Z" fill="#474747"/>
<rect x="254.739" y="604.962" width="10.9797" height="2.51672" fill="#474747"/>
<ellipse cx="266.141" cy="617.965" rx="2.11149" ry="2.09727" fill="#0080FF"/>
</g>
<rect x="195.55" y="593.256" width="6" height="26.8071" rx="3" fill="#474747"/>
<rect x="207.55" y="593.256" width="6" height="26.8071" rx="3" fill="#474747"/>
<path fill-rule="evenodd" clip-rule="evenodd" d="M197.017 578.617C195.47 577.993 193.752 578.757 193.18 580.324L187.586 595.645C187.014 597.212 187.804 598.988 189.351 599.612C190.898 600.236 192.615 599.472 193.187 597.905L198.782 582.584C199.354 581.017 198.564 579.241 197.017 578.617ZM211.851 578.617C210.304 579.241 209.514 581.017 210.086 582.584L215.68 597.905C216.252 599.472 217.97 600.236 219.517 599.612C221.064 598.988 221.854 597.212 221.282 595.645L215.687 580.324C215.115 578.757 213.398 577.993 211.851 578.617Z" fill="#474747"/>
<ellipse cx="204.55" cy="568.025" rx="7.5" ry="7.88446" fill="#474747"/>
<path d="M193.718 578.533C193.916 577.91 194.496 577.487 195.149 577.487C201.75 577.487 206.719 577.487 213.954 577.487C214.606 577.487 215.185 577.907 215.384 578.528L218.05 586.829L213.55 588.525V601.14H195.55V588.525L191.05 586.948L193.718 578.533Z" fill="#474747"/>
<path d="M195.433 594.83C195.499 594.053 196.149 593.457 196.928 593.457H212.176C212.952 593.457 213.601 594.05 213.67 594.823L214.724 606.602C214.803 607.48 214.112 608.236 213.23 608.236H195.927C195.049 608.236 194.358 607.484 194.433 606.609L195.433 594.83Z" fill="#474747"/>
<path d="M199.3 559.279C199.3 558.958 199.5 558.687 199.779 558.596C201.537 558.019 202.977 557.739 204.432 557.737C205.888 557.735 207.403 558.013 209.308 558.609C209.595 558.698 209.8 558.973 209.8 559.298V562.267C207.889 561.688 206.257 561.395 204.595 561.4C202.926 561.406 201.265 561.711 199.3 562.282V559.279Z" fill="white" stroke="#474747" stroke-width="1.5"/>
<path d="M224.506 653.823C222.911 653.823 221.676 654.425 220.801 655.628C219.926 656.822 219.488 658.49 219.488 660.632C219.488 665.089 221.161 667.317 224.506 667.317C225.91 667.317 227.609 666.966 229.605 666.265V669.819C227.965 670.503 226.133 670.845 224.109 670.845C221.202 670.845 218.978 669.965 217.438 668.206C215.897 666.438 215.127 663.904 215.127 660.604C215.127 658.526 215.505 656.708 216.262 655.149C217.018 653.582 218.103 652.383 219.516 651.554C220.938 650.715 222.601 650.296 224.506 650.296C226.447 650.296 228.398 650.765 230.357 651.704L228.99 655.149C228.243 654.794 227.491 654.484 226.734 654.22C225.978 653.955 225.235 653.823 224.506 653.823ZM237.713 670.571H233.543V649.298H237.713V670.571ZM245.424 662.901C245.424 664.414 245.67 665.558 246.162 666.333C246.663 667.108 247.475 667.495 248.596 667.495C249.708 667.495 250.505 667.112 250.988 666.347C251.48 665.572 251.727 664.424 251.727 662.901C251.727 661.388 251.48 660.254 250.988 659.497C250.496 658.741 249.689 658.362 248.568 658.362C247.456 658.362 246.654 658.741 246.162 659.497C245.67 660.244 245.424 661.379 245.424 662.901ZM255.992 662.901C255.992 665.39 255.336 667.336 254.023 668.739C252.711 670.143 250.883 670.845 248.541 670.845C247.074 670.845 245.779 670.526 244.658 669.888C243.537 669.241 242.676 668.315 242.074 667.112C241.473 665.909 241.172 664.506 241.172 662.901C241.172 660.404 241.824 658.463 243.127 657.077C244.43 655.692 246.262 654.999 248.623 654.999C250.09 654.999 251.385 655.318 252.506 655.956C253.627 656.594 254.488 657.51 255.09 658.704C255.691 659.898 255.992 661.297 255.992 662.901ZM265.645 670.845C260.887 670.845 258.508 668.233 258.508 663.011C258.508 660.413 259.155 658.431 260.449 657.063C261.743 655.687 263.598 654.999 266.014 654.999C267.782 654.999 269.368 655.345 270.771 656.038L269.541 659.265C268.885 659 268.274 658.786 267.709 658.622C267.144 658.449 266.579 658.362 266.014 658.362C263.844 658.362 262.76 659.903 262.76 662.983C262.76 665.973 263.844 667.468 266.014 667.468C266.816 667.468 267.559 667.363 268.242 667.153C268.926 666.935 269.609 666.597 270.293 666.142V669.71C269.618 670.138 268.935 670.435 268.242 670.599C267.559 670.763 266.693 670.845 265.645 670.845ZM277.854 662.259L279.672 659.935L283.951 655.286H288.654L282.584 661.917L289.023 670.571H284.211L279.809 664.378L278.018 665.813V670.571H273.848V649.298H278.018V658.786L277.799 662.259H277.854ZM316.955 660.55C316.955 663.858 316.135 666.401 314.494 668.179C312.854 669.956 310.502 670.845 307.439 670.845C304.377 670.845 302.025 669.956 300.385 668.179C298.744 666.401 297.924 663.849 297.924 660.522C297.924 657.196 298.744 654.657 300.385 652.907C302.035 651.148 304.395 650.269 307.467 650.269C310.538 650.269 312.885 651.153 314.508 652.921C316.139 654.689 316.955 657.232 316.955 660.55ZM302.367 660.55C302.367 662.783 302.791 664.465 303.639 665.595C304.486 666.725 305.753 667.29 307.439 667.29C310.821 667.29 312.512 665.043 312.512 660.55C312.512 656.047 310.83 653.796 307.467 653.796C305.781 653.796 304.509 654.366 303.652 655.505C302.796 656.635 302.367 658.317 302.367 660.55ZM331.598 670.571L331.037 668.616H330.818C330.372 669.327 329.738 669.879 328.918 670.271C328.098 670.653 327.163 670.845 326.115 670.845C324.32 670.845 322.966 670.366 322.055 669.409C321.143 668.443 320.688 667.058 320.688 665.253V655.286H324.857V664.214C324.857 665.317 325.053 666.146 325.445 666.702C325.837 667.249 326.462 667.522 327.318 667.522C328.485 667.522 329.328 667.135 329.848 666.36C330.367 665.576 330.627 664.282 330.627 662.478V655.286H334.797V670.571H331.598ZM345.611 667.522C346.34 667.522 347.215 667.363 348.236 667.044V670.147C347.197 670.612 345.921 670.845 344.408 670.845C342.74 670.845 341.523 670.425 340.758 669.587C340.001 668.739 339.623 667.472 339.623 665.786V658.417H337.627V656.653L339.924 655.259L341.127 652.032H343.793V655.286H348.072V658.417H343.793V665.786C343.793 666.379 343.957 666.816 344.285 667.099C344.622 667.381 345.064 667.522 345.611 667.522Z" fill="black"/>
<path d="M223.999 689.674C221.959 689.674 220.347 690.355 219.162 691.718C217.986 693.072 217.397 694.93 217.397 697.291C217.397 699.72 217.965 701.599 219.099 702.928C220.241 704.248 221.866 704.908 223.974 704.908C225.269 704.908 226.745 704.675 228.404 704.21V706.102C227.118 706.584 225.531 706.825 223.644 706.825C220.91 706.825 218.798 705.996 217.309 704.337C215.827 702.678 215.087 700.321 215.087 697.266C215.087 695.353 215.442 693.677 216.153 692.238C216.873 690.799 217.905 689.691 219.251 688.912C220.605 688.133 222.196 687.744 224.024 687.744C225.971 687.744 227.672 688.1 229.128 688.811L228.214 690.664C226.809 690.004 225.404 689.674 223.999 689.674ZM234.244 706.571H232.137V686.817H234.244V706.571ZM250.723 699.602C250.723 701.87 250.151 703.643 249.009 704.921C247.866 706.19 246.288 706.825 244.273 706.825C243.029 706.825 241.925 706.533 240.96 705.949C239.995 705.365 239.25 704.527 238.726 703.436C238.201 702.344 237.938 701.066 237.938 699.602C237.938 697.333 238.506 695.569 239.64 694.308C240.774 693.038 242.348 692.403 244.362 692.403C246.309 692.403 247.854 693.051 248.996 694.346C250.147 695.641 250.723 697.393 250.723 699.602ZM240.122 699.602C240.122 701.379 240.478 702.733 241.188 703.664C241.899 704.595 242.945 705.061 244.324 705.061C245.704 705.061 246.749 704.599 247.46 703.677C248.179 702.746 248.539 701.387 248.539 699.602C248.539 697.833 248.179 696.491 247.46 695.577C246.749 694.655 245.695 694.193 244.299 694.193C242.919 694.193 241.878 694.646 241.176 695.552C240.473 696.457 240.122 697.807 240.122 699.602ZM259.99 706.825C257.976 706.825 256.414 706.207 255.306 704.972C254.205 703.728 253.655 701.971 253.655 699.703C253.655 697.376 254.214 695.577 255.331 694.308C256.457 693.038 258.056 692.403 260.13 692.403C260.799 692.403 261.467 692.475 262.136 692.619C262.804 692.763 263.329 692.932 263.71 693.127L263.062 694.917C262.597 694.731 262.089 694.578 261.539 694.46C260.989 694.333 260.502 694.27 260.079 694.27C257.252 694.27 255.839 696.072 255.839 699.678C255.839 701.387 256.182 702.699 256.867 703.613C257.561 704.527 258.585 704.984 259.939 704.984C261.099 704.984 262.288 704.735 263.507 704.235V706.102C262.576 706.584 261.404 706.825 259.99 706.825ZM268.902 699.449C269.266 698.933 269.821 698.256 270.565 697.418L275.06 692.657H277.561L271.924 698.586L277.954 706.571H275.402L270.489 699.995L268.902 701.366V706.571H266.82V686.817H268.902V697.291C268.902 697.757 268.868 698.476 268.801 699.449H268.902ZM299.244 699.602C299.244 701.87 298.673 703.643 297.53 704.921C296.388 706.19 294.809 706.825 292.795 706.825C291.551 706.825 290.446 706.533 289.481 705.949C288.517 705.365 287.772 704.527 287.247 703.436C286.722 702.344 286.46 701.066 286.46 699.602C286.46 697.333 287.027 695.569 288.161 694.308C289.295 693.038 290.869 692.403 292.884 692.403C294.83 692.403 296.375 693.051 297.518 694.346C298.669 695.641 299.244 697.393 299.244 699.602ZM288.644 699.602C288.644 701.379 288.999 702.733 289.71 703.664C290.421 704.595 291.466 705.061 292.846 705.061C294.225 705.061 295.271 704.599 295.981 703.677C296.701 702.746 297.061 701.387 297.061 699.602C297.061 697.833 296.701 696.491 295.981 695.577C295.271 694.655 294.217 694.193 292.82 694.193C291.441 694.193 290.4 694.646 289.697 695.552C288.995 696.457 288.644 697.807 288.644 699.602ZM304.932 692.657V701.684C304.932 702.818 305.19 703.664 305.706 704.223C306.222 704.781 307.031 705.061 308.131 705.061C309.587 705.061 310.649 704.663 311.317 703.867C311.994 703.072 312.333 701.772 312.333 699.97V692.657H314.44V706.571H312.701L312.396 704.705H312.282C311.851 705.391 311.25 705.915 310.479 706.279C309.718 706.643 308.846 706.825 307.864 706.825C306.172 706.825 304.902 706.423 304.056 705.619C303.218 704.815 302.799 703.529 302.799 701.76V692.657H304.932ZM323.416 705.086C323.788 705.086 324.148 705.061 324.495 705.01C324.842 704.951 325.117 704.891 325.32 704.832V706.444C325.092 706.554 324.753 706.643 324.305 706.711C323.865 706.787 323.467 706.825 323.111 706.825C320.42 706.825 319.074 705.408 319.074 702.572V694.295H317.081V693.279L319.074 692.403L319.963 689.433H321.182V692.657H325.219V694.295H321.182V702.483C321.182 703.321 321.381 703.965 321.778 704.413C322.176 704.862 322.722 705.086 323.416 705.086ZM346.229 706.571L343.678 698.408C343.517 697.909 343.216 696.775 342.776 695.006H342.675C342.336 696.487 342.04 697.63 341.786 698.434L339.158 706.571H336.721L332.925 692.657H335.134C336.031 696.153 336.712 698.814 337.178 700.643C337.652 702.471 337.923 703.702 337.99 704.337H338.092C338.185 703.854 338.333 703.232 338.536 702.471C338.748 701.701 338.93 701.091 339.082 700.643L341.634 692.657H343.919L346.407 700.643C346.881 702.098 347.203 703.321 347.372 704.312H347.474C347.507 704.007 347.596 703.537 347.74 702.902C347.893 702.268 348.777 698.853 350.394 692.657H352.577L348.73 706.571H346.229ZM364.625 706.571V697.57C364.625 696.436 364.367 695.59 363.851 695.031C363.334 694.473 362.526 694.193 361.426 694.193C359.962 694.193 358.891 694.591 358.214 695.387C357.545 696.182 357.211 697.486 357.211 699.297V706.571H355.104V686.817H357.211V692.797C357.211 693.516 357.177 694.113 357.109 694.587H357.236C357.651 693.918 358.239 693.394 359.001 693.013C359.771 692.623 360.647 692.429 361.629 692.429C363.33 692.429 364.604 692.835 365.45 693.647C366.305 694.451 366.732 695.734 366.732 697.494V706.571H364.625ZM376.952 706.825C374.896 706.825 373.271 706.199 372.077 704.946C370.892 703.694 370.3 701.954 370.3 699.729C370.3 697.486 370.85 695.704 371.95 694.384C373.059 693.063 374.544 692.403 376.406 692.403C378.15 692.403 379.529 692.979 380.545 694.13C381.561 695.272 382.068 696.783 382.068 698.662V699.995H372.483C372.526 701.629 372.936 702.868 373.715 703.715C374.502 704.561 375.606 704.984 377.028 704.984C378.526 704.984 380.007 704.671 381.472 704.045V705.924C380.727 706.245 380.02 706.474 379.352 706.609C378.691 706.753 377.892 706.825 376.952 706.825ZM376.381 694.168C375.264 694.168 374.371 694.532 373.702 695.26C373.042 695.988 372.653 696.995 372.534 698.281H379.809C379.809 696.952 379.512 695.937 378.92 695.234C378.327 694.523 377.481 694.168 376.381 694.168ZM395.195 706.571V697.57C395.195 696.436 394.937 695.59 394.421 695.031C393.905 694.473 393.096 694.193 391.996 694.193C390.54 694.193 389.474 694.587 388.797 695.374C388.12 696.161 387.781 697.46 387.781 699.271V706.571H385.674V692.657H387.388L387.73 694.562H387.832C388.264 693.876 388.869 693.347 389.647 692.975C390.426 692.594 391.294 692.403 392.25 692.403C393.926 692.403 395.187 692.81 396.033 693.622C396.88 694.426 397.303 695.717 397.303 697.494V706.571H395.195ZM406.189 692.657H408.449L411.496 700.592C412.165 702.403 412.579 703.711 412.74 704.515H412.842C412.952 704.083 413.18 703.347 413.527 702.306C413.883 701.256 415.034 698.04 416.98 692.657H419.24L413.261 708.501C412.668 710.067 411.974 711.175 411.179 711.827C410.392 712.487 409.423 712.817 408.271 712.817C407.628 712.817 406.993 712.745 406.367 712.602V710.913C406.833 711.015 407.353 711.065 407.929 711.065C409.376 711.065 410.409 710.253 411.026 708.628L411.801 706.647L406.189 692.657ZM433.51 699.602C433.51 701.87 432.938 703.643 431.796 704.921C430.653 706.19 429.075 706.825 427.061 706.825C425.816 706.825 424.712 706.533 423.747 705.949C422.782 705.365 422.037 704.527 421.513 703.436C420.988 702.344 420.726 701.066 420.726 699.602C420.726 697.333 421.293 695.569 422.427 694.308C423.561 693.038 425.135 692.403 427.149 692.403C429.096 692.403 430.641 693.051 431.783 694.346C432.934 695.641 433.51 697.393 433.51 699.602ZM422.909 699.602C422.909 701.379 423.265 702.733 423.976 703.664C424.687 704.595 425.732 705.061 427.111 705.061C428.491 705.061 429.536 704.599 430.247 703.677C430.966 702.746 431.326 701.387 431.326 699.602C431.326 697.833 430.966 696.491 430.247 695.577C429.536 694.655 428.482 694.193 427.086 694.193C425.706 694.193 424.665 694.646 423.963 695.552C423.26 696.457 422.909 697.807 422.909 699.602ZM439.197 692.657V701.684C439.197 702.818 439.455 703.664 439.972 704.223C440.488 704.781 441.296 705.061 442.396 705.061C443.852 705.061 444.914 704.663 445.583 703.867C446.26 703.072 446.599 701.772 446.599 699.97V692.657H448.706V706.571H446.967L446.662 704.705H446.548C446.116 705.391 445.515 705.915 444.745 706.279C443.983 706.643 443.112 706.825 442.13 706.825C440.437 706.825 439.168 706.423 438.321 705.619C437.483 704.815 437.064 703.529 437.064 701.76V692.657H439.197ZM217.842 741.571H215.734V721.817H217.842V741.571ZM228.188 741.825C226.132 741.825 224.507 741.199 223.313 739.946C222.129 738.694 221.536 736.954 221.536 734.729C221.536 732.486 222.086 730.704 223.187 729.384C224.295 728.063 225.781 727.403 227.643 727.403C229.386 727.403 230.766 727.979 231.781 729.13C232.797 730.272 233.305 731.783 233.305 733.662V734.995H223.72C223.762 736.629 224.173 737.868 224.951 738.715C225.738 739.561 226.843 739.984 228.265 739.984C229.763 739.984 231.244 739.671 232.708 739.045V740.924C231.963 741.245 231.257 741.474 230.588 741.609C229.928 741.753 229.128 741.825 228.188 741.825ZM227.617 729.168C226.5 729.168 225.607 729.532 224.938 730.26C224.278 730.988 223.889 731.995 223.771 733.281H231.045C231.045 731.952 230.749 730.937 230.156 730.234C229.564 729.523 228.717 729.168 227.617 729.168ZM245.467 741.571L245.048 739.591H244.946C244.252 740.463 243.558 741.055 242.864 741.368C242.179 741.673 241.32 741.825 240.287 741.825C238.908 741.825 237.824 741.47 237.037 740.759C236.258 740.048 235.869 739.036 235.869 737.725C235.869 734.915 238.116 733.442 242.61 733.307L244.972 733.23V732.367C244.972 731.275 244.735 730.471 244.261 729.955C243.795 729.43 243.046 729.168 242.014 729.168C240.854 729.168 239.542 729.523 238.078 730.234L237.431 728.622C238.116 728.25 238.865 727.958 239.678 727.746C240.499 727.535 241.32 727.429 242.141 727.429C243.799 727.429 245.027 727.797 245.822 728.533C246.626 729.27 247.028 730.45 247.028 732.075V741.571H245.467ZM240.706 740.086C242.018 740.086 243.046 739.726 243.791 739.007C244.544 738.287 244.921 737.28 244.921 735.985V734.729L242.813 734.817C241.138 734.877 239.927 735.139 239.183 735.604C238.446 736.062 238.078 736.777 238.078 737.75C238.078 738.512 238.307 739.091 238.764 739.489C239.229 739.887 239.877 740.086 240.706 740.086ZM254.43 741.571L249.148 727.657H251.408L254.404 735.909C255.081 737.839 255.479 739.091 255.598 739.667H255.699C255.792 739.218 256.084 738.292 256.575 736.887C257.075 735.473 258.188 732.397 259.914 727.657H262.174L256.893 741.571H254.43ZM270.286 741.825C268.229 741.825 266.604 741.199 265.411 739.946C264.226 738.694 263.634 736.954 263.634 734.729C263.634 732.486 264.184 730.704 265.284 729.384C266.393 728.063 267.878 727.403 269.74 727.403C271.484 727.403 272.863 727.979 273.879 729.13C274.895 730.272 275.402 731.783 275.402 733.662V734.995H265.817C265.86 736.629 266.27 737.868 267.049 738.715C267.836 739.561 268.94 739.984 270.362 739.984C271.86 739.984 273.341 739.671 274.806 739.045V740.924C274.061 741.245 273.354 741.474 272.686 741.609C272.025 741.753 271.226 741.825 270.286 741.825ZM269.715 729.168C268.598 729.168 267.705 729.532 267.036 730.26C266.376 730.988 265.987 731.995 265.868 733.281H273.143C273.143 731.952 272.846 730.937 272.254 730.234C271.661 729.523 270.815 729.168 269.715 729.168ZM283.553 727.657H285.812L288.859 735.592C289.528 737.403 289.943 738.711 290.104 739.515H290.205C290.315 739.083 290.544 738.347 290.891 737.306C291.246 736.256 292.397 733.04 294.344 727.657H296.604L290.624 743.501C290.032 745.067 289.338 746.175 288.542 746.827C287.755 747.487 286.786 747.817 285.635 747.817C284.992 747.817 284.357 747.745 283.73 747.602V745.913C284.196 746.015 284.716 746.065 285.292 746.065C286.739 746.065 287.772 745.253 288.39 743.628L289.164 741.647L283.553 727.657ZM310.873 734.602C310.873 736.87 310.302 738.643 309.159 739.921C308.017 741.19 306.438 741.825 304.424 741.825C303.18 741.825 302.075 741.533 301.11 740.949C300.146 740.365 299.401 739.527 298.876 738.436C298.351 737.344 298.089 736.066 298.089 734.602C298.089 732.333 298.656 730.569 299.79 729.308C300.924 728.038 302.498 727.403 304.513 727.403C306.459 727.403 308.004 728.051 309.146 729.346C310.298 730.641 310.873 732.393 310.873 734.602ZM300.272 734.602C300.272 736.379 300.628 737.733 301.339 738.664C302.05 739.595 303.095 740.061 304.475 740.061C305.854 740.061 306.899 739.599 307.61 738.677C308.33 737.746 308.689 736.387 308.689 734.602C308.689 732.833 308.33 731.491 307.61 730.577C306.899 729.655 305.846 729.193 304.449 729.193C303.07 729.193 302.029 729.646 301.326 730.552C300.624 731.457 300.272 732.807 300.272 734.602ZM316.561 727.657V736.684C316.561 737.818 316.819 738.664 317.335 739.223C317.851 739.781 318.66 740.061 319.76 740.061C321.215 740.061 322.278 739.663 322.946 738.867C323.623 738.072 323.962 736.772 323.962 734.97V727.657H326.069V741.571H324.33L324.025 739.705H323.911C323.479 740.391 322.879 740.915 322.108 741.279C321.347 741.643 320.475 741.825 319.493 741.825C317.8 741.825 316.531 741.423 315.685 740.619C314.847 739.815 314.428 738.529 314.428 736.76V727.657H316.561ZM336.898 727.403C337.516 727.403 338.071 727.454 338.562 727.556L338.27 729.511C337.694 729.384 337.186 729.32 336.746 729.32C335.62 729.32 334.656 729.777 333.852 730.691C333.056 731.605 332.658 732.744 332.658 734.106V741.571H330.551V727.657H332.29L332.531 730.234H332.633C333.149 729.329 333.771 728.631 334.499 728.14C335.227 727.649 336.027 727.403 336.898 727.403ZM354.393 741.825C353.487 741.825 352.658 741.66 351.904 741.33C351.16 740.992 350.533 740.475 350.025 739.781H349.873C349.975 740.594 350.025 741.364 350.025 742.092V747.817H347.918V727.657H349.632L349.924 729.562H350.025C350.567 728.8 351.198 728.25 351.917 727.911C352.636 727.573 353.462 727.403 354.393 727.403C356.238 727.403 357.66 728.034 358.658 729.295C359.665 730.556 360.169 732.325 360.169 734.602C360.169 736.887 359.657 738.664 358.633 739.934C357.617 741.195 356.204 741.825 354.393 741.825ZM354.088 729.193C352.666 729.193 351.638 729.587 351.003 730.374C350.368 731.161 350.042 732.414 350.025 734.132V734.602C350.025 736.557 350.351 737.957 351.003 738.804C351.655 739.642 352.7 740.061 354.139 740.061C355.34 740.061 356.28 739.574 356.957 738.601C357.643 737.627 357.985 736.286 357.985 734.576C357.985 732.841 357.643 731.512 356.957 730.59C356.28 729.659 355.324 729.193 354.088 729.193ZM372.42 741.571L372.001 739.591H371.899C371.205 740.463 370.511 741.055 369.817 741.368C369.132 741.673 368.273 741.825 367.24 741.825C365.861 741.825 364.777 741.47 363.99 740.759C363.212 740.048 362.822 739.036 362.822 737.725C362.822 734.915 365.069 733.442 369.563 733.307L371.925 733.23V732.367C371.925 731.275 371.688 730.471 371.214 729.955C370.748 729.43 369.999 729.168 368.967 729.168C367.807 729.168 366.495 729.523 365.031 730.234L364.384 728.622C365.069 728.25 365.818 727.958 366.631 727.746C367.452 727.535 368.273 727.429 369.094 727.429C370.753 727.429 371.98 727.797 372.775 728.533C373.579 729.27 373.981 730.45 373.981 732.075V741.571H372.42ZM367.659 740.086C368.971 740.086 369.999 739.726 370.744 739.007C371.497 738.287 371.874 737.28 371.874 735.985V734.729L369.767 734.817C368.091 734.877 366.881 735.139 366.136 735.604C365.399 736.062 365.031 736.777 365.031 737.75C365.031 738.512 365.26 739.091 365.717 739.489C366.182 739.887 366.83 740.086 367.659 740.086ZM387.312 737.775C387.312 739.07 386.829 740.069 385.864 740.771C384.899 741.474 383.545 741.825 381.802 741.825C379.957 741.825 378.518 741.533 377.485 740.949V738.994C378.154 739.333 378.869 739.599 379.631 739.794C380.401 739.989 381.142 740.086 381.853 740.086C382.953 740.086 383.799 739.912 384.392 739.565C384.984 739.21 385.28 738.673 385.28 737.953C385.28 737.411 385.043 736.95 384.569 736.569C384.104 736.18 383.19 735.723 381.827 735.198C380.532 734.716 379.61 734.297 379.06 733.941C378.518 733.577 378.112 733.167 377.841 732.71C377.578 732.253 377.447 731.707 377.447 731.072C377.447 729.938 377.909 729.045 378.831 728.394C379.754 727.733 381.019 727.403 382.627 727.403C384.125 727.403 385.589 727.708 387.02 728.317L386.271 730.031C384.874 729.456 383.609 729.168 382.475 729.168C381.476 729.168 380.723 729.325 380.215 729.638C379.707 729.951 379.453 730.382 379.453 730.933C379.453 731.305 379.546 731.622 379.732 731.885C379.927 732.147 380.236 732.397 380.659 732.634C381.082 732.871 381.895 733.214 383.097 733.662C384.747 734.263 385.86 734.868 386.436 735.478C387.02 736.087 387.312 736.853 387.312 737.775ZM399.728 737.775C399.728 739.07 399.245 740.069 398.28 740.771C397.315 741.474 395.961 741.825 394.218 741.825C392.373 741.825 390.934 741.533 389.901 740.949V738.994C390.57 739.333 391.285 739.599 392.047 739.794C392.817 739.989 393.558 740.086 394.269 740.086C395.369 740.086 396.215 739.912 396.808 739.565C397.4 739.21 397.696 738.673 397.696 737.953C397.696 737.411 397.459 736.95 396.985 736.569C396.52 736.18 395.606 735.723 394.243 735.198C392.948 734.716 392.026 734.297 391.476 733.941C390.934 733.577 390.528 733.167 390.257 732.71C389.994 732.253 389.863 731.707 389.863 731.072C389.863 729.938 390.325 729.045 391.247 728.394C392.17 727.733 393.435 727.403 395.043 727.403C396.541 727.403 398.005 727.708 399.436 728.317L398.687 730.031C397.29 729.456 396.025 729.168 394.891 729.168C393.892 729.168 393.139 729.325 392.631 729.638C392.123 729.951 391.869 730.382 391.869 730.933C391.869 731.305 391.962 731.622 392.148 731.885C392.343 732.147 392.652 732.397 393.075 732.634C393.498 732.871 394.311 733.214 395.513 733.662C397.163 734.263 398.276 734.868 398.852 735.478C399.436 736.087 399.728 736.853 399.728 737.775ZM409.046 741.825C406.989 741.825 405.364 741.199 404.171 739.946C402.986 738.694 402.394 736.954 402.394 734.729C402.394 732.486 402.944 730.704 404.044 729.384C405.153 728.063 406.638 727.403 408.5 727.403C410.243 727.403 411.623 727.979 412.639 729.13C413.654 730.272 414.162 731.783 414.162 733.662V734.995H404.577C404.619 736.629 405.03 737.868 405.809 738.715C406.596 739.561 407.7 739.984 409.122 739.984C410.62 739.984 412.101 739.671 413.565 739.045V740.924C412.821 741.245 412.114 741.474 411.445 741.609C410.785 741.753 409.985 741.825 409.046 741.825ZM408.475 729.168C407.357 729.168 406.465 729.532 405.796 730.26C405.136 730.988 404.746 731.995 404.628 733.281H411.902C411.902 731.952 411.606 730.937 411.014 730.234C410.421 729.523 409.575 729.168 408.475 729.168ZM427.289 741.571V732.57C427.289 731.436 427.031 730.59 426.515 730.031C425.998 729.473 425.19 729.193 424.09 729.193C422.634 729.193 421.568 729.587 420.891 730.374C420.214 731.161 419.875 732.46 419.875 734.271V741.571H417.768V727.657H419.481L419.824 729.562H419.926C420.357 728.876 420.963 728.347 421.741 727.975C422.52 727.594 423.387 727.403 424.344 727.403C426.02 727.403 427.281 727.81 428.127 728.622C428.973 729.426 429.396 730.717 429.396 732.494V741.571H427.289ZM445.126 727.657V728.99L442.549 729.295C442.786 729.591 442.997 729.98 443.184 730.463C443.37 730.937 443.463 731.474 443.463 732.075C443.463 733.438 442.997 734.525 442.066 735.338C441.135 736.15 439.857 736.557 438.232 736.557C437.818 736.557 437.428 736.523 437.064 736.455C436.167 736.929 435.719 737.526 435.719 738.245C435.719 738.626 435.875 738.91 436.188 739.096C436.502 739.273 437.039 739.362 437.801 739.362H440.264C441.77 739.362 442.925 739.68 443.729 740.314C444.542 740.949 444.948 741.872 444.948 743.082C444.948 744.622 444.33 745.795 443.095 746.599C441.859 747.411 440.056 747.817 437.687 747.817C435.867 747.817 434.462 747.479 433.472 746.802C432.49 746.125 431.999 745.168 431.999 743.933C431.999 743.086 432.27 742.354 432.812 741.736C433.353 741.118 434.115 740.7 435.097 740.479C434.741 740.319 434.441 740.069 434.195 739.73C433.958 739.392 433.84 738.998 433.84 738.55C433.84 738.042 433.975 737.598 434.246 737.217C434.517 736.836 434.944 736.468 435.528 736.112C434.809 735.816 434.221 735.312 433.764 734.602C433.315 733.891 433.091 733.078 433.091 732.164C433.091 730.641 433.548 729.468 434.462 728.647C435.376 727.818 436.671 727.403 438.347 727.403C439.075 727.403 439.73 727.488 440.314 727.657H445.126ZM434.03 743.907C434.03 744.66 434.348 745.232 434.982 745.621C435.617 746.01 436.527 746.205 437.712 746.205C439.481 746.205 440.788 745.938 441.635 745.405C442.49 744.881 442.917 744.165 442.917 743.26C442.917 742.507 442.684 741.982 442.219 741.686C441.753 741.398 440.877 741.254 439.591 741.254H437.064C436.108 741.254 435.363 741.482 434.83 741.939C434.297 742.396 434.03 743.052 434.03 743.907ZM435.173 732.113C435.173 733.087 435.448 733.823 435.998 734.322C436.548 734.822 437.314 735.071 438.296 735.071C440.353 735.071 441.381 734.073 441.381 732.075C441.381 729.985 440.34 728.939 438.258 728.939C437.268 728.939 436.506 729.206 435.973 729.739C435.439 730.272 435.173 731.064 435.173 732.113ZM453.86 741.825C451.804 741.825 450.179 741.199 448.985 739.946C447.8 738.694 447.208 736.954 447.208 734.729C447.208 732.486 447.758 730.704 448.858 729.384C449.967 728.063 451.452 727.403 453.314 727.403C455.058 727.403 456.438 727.979 457.453 729.13C458.469 730.272 458.977 731.783 458.977 733.662V734.995H449.392C449.434 736.629 449.844 737.868 450.623 738.715C451.41 739.561 452.515 739.984 453.937 739.984C455.435 739.984 456.916 739.671 458.38 739.045V740.924C457.635 741.245 456.928 741.474 456.26 741.609C455.6 741.753 454.8 741.825 453.86 741.825ZM453.289 729.168C452.172 729.168 451.279 729.532 450.61 730.26C449.95 730.988 449.561 731.995 449.442 733.281H456.717C456.717 731.952 456.421 730.937 455.828 730.234C455.236 729.523 454.389 729.168 453.289 729.168ZM468.93 727.403C469.548 727.403 470.102 727.454 470.593 727.556L470.301 729.511C469.725 729.384 469.217 729.32 468.777 729.32C467.652 729.32 466.687 729.777 465.883 730.691C465.087 731.605 464.689 732.744 464.689 734.106V741.571H462.582V727.657H464.321L464.562 730.234H464.664C465.18 729.329 465.802 728.631 466.53 728.14C467.258 727.649 468.058 727.403 468.93 727.403Z" fill="black"/>
</g>
</g>
<rect x="1" y="0.5" width="479" height="760" stroke="#388038"/>
<defs>
<clipPath id="clip0_403_3117">
<rect x="0.5" width="480" height="761" fill="white"/>
</clipPath>
<clipPath id="clip1_403_3117">
<rect width="28.6364" height="39.3811" fill="white" transform="translate(283.673 15.2233)"/>
</clipPath>
<clipPath id="clip2_403_3117">
<rect width="565" height="155" fill="white" transform="translate(-69.5 289)"/>
</clipPath>
<clipPath id="clip3_403_3117">
<rect width="480" height="292.311" fill="white" transform="translate(14.5 482.571)"/>
</clipPath>
<clipPath id="clip4_403_3117">
<rect width="48" height="56.9258" fill="white" transform="translate(221.55 563.137)"/>
</clipPath>
</defs>
</svg>
