<svg width="152" height="92" viewBox="0 0 152 92" fill="none" xmlns="http://www.w3.org/2000/svg">
<g clip-path="url(#clip0_301_1323)">
<path d="M72.6455 19.8594C71.9651 19.8594 71.8227 19.6341 72.2183 19.1837L76.1461 14.7406L72.6811 10.8159C72.2855 10.3654 72.4279 10.1401 73.1083 10.1401H75.3511C75.7071 10.1401 75.9761 10.2636 76.158 10.5104L77.9974 13.0096L79.8367 10.5104C80.0187 10.2636 80.2876 10.1401 80.6436 10.1401H82.8865C83.5747 10.1401 83.7171 10.3654 83.3137 10.8159L79.8248 14.7406L83.7765 19.1837C84.1799 19.6341 84.0375 19.8594 83.3493 19.8594H81.1064C80.7584 19.8594 80.4894 19.736 80.2995 19.4891L77.9974 16.4715L75.6952 19.4891C75.5053 19.736 75.2364 19.8594 74.8883 19.8594H72.6455Z" fill="#DD4949"/>
<path d="M-24.7456 50H175.254" stroke="#D3D2D2" stroke-width="6" stroke-linecap="square" stroke-dasharray="10 10"/>
<rect width="40" height="40" transform="translate(56.4292 29.4893)" fill="white"/>
<mask id="mask0_301_1323" style="mask-type:alpha" maskUnits="userSpaceOnUse" x="52" y="25" width="49" height="49">
<circle cx="76.4292" cy="49.4893" r="23.5" fill="#D9D9D9" stroke="black"/>
</mask>
<g mask="url(#mask0_301_1323)">
<rect width="200" height="7.44394e-08" transform="translate(-73.7456 50)" fill="white"/>
<path d="M-67.7456 50H132.254" stroke="#D3D2D2" stroke-width="14" stroke-linecap="square" stroke-dasharray="18 10"/>
</g>
<circle cx="76" cy="50" r="5" fill="#196EC1" stroke="#196EC1"/>
<circle cx="76" cy="49.4893" r="23.5" stroke="#808080"/>
</g>
<rect x="0.5" y="0.5" width="151" height="91" stroke="#808080"/>
<defs>
<clipPath id="clip0_301_1323">
<rect x="1" y="1" width="150" height="90" fill="white"/>
</clipPath>
</defs>
</svg>
