<svg width="152" height="92" viewBox="0 0 152 92" fill="none" xmlns="http://www.w3.org/2000/svg">
<g clip-path="url(#clip0_301_1311)">
<path d="M70.3249 14.4491C69.9544 13.9081 70.0878 13.6377 70.7251 13.6377H72.8261C73.1595 13.6377 73.4115 13.7859 73.582 14.0823L75.305 17.0836L78.6541 9.20392C78.8245 8.90749 79.0765 8.75928 79.41 8.75928H81.5109C82.1556 8.75928 82.289 9.02977 81.9111 9.57075C78.8439 15.5817 78.4698 16.9099 75.921 20.4091C75.5883 20.8659 74.9577 20.9255 74.6033 20.4853C73.8289 19.5236 72.558 17.6916 70.3249 14.4491Z" fill="#53B453"/>
<path d="M-17.7456 50H182.254" stroke="#D3D2D2" stroke-width="6" stroke-linecap="square" stroke-dasharray="10 10"/>
<rect width="40" height="40" transform="translate(56.4292 29.4893)" fill="white"/>
<mask id="mask0_301_1311" style="mask-type:alpha" maskUnits="userSpaceOnUse" x="51" y="25" width="49" height="49">
<circle cx="75.0293" cy="49.4893" r="23.5" fill="#D9D9D9" stroke="black"/>
</mask>
<g mask="url(#mask0_301_1311)">
<rect width="200" height="7.44394e-08" transform="translate(-72.7456 50)" fill="white"/>
<path d="M-67.6455 50H132.354" stroke="#D3D2D2" stroke-width="14" stroke-linecap="square" stroke-dasharray="18 10"/>
</g>
<circle cx="75" cy="49.4893" r="11.5" fill="#196EC1" stroke="#196EC1"/>
<circle cx="75" cy="49.4893" r="23.5" stroke="#808080"/>
</g>
<rect x="0.5" y="0.5" width="151" height="91" stroke="#808080"/>
<defs>
<clipPath id="clip0_301_1311">
<rect x="1" y="1" width="150" height="90" fill="white"/>
</clipPath>
</defs>
</svg>
