<svg width="53" height="67" viewBox="0 0 53 67" fill="none" xmlns="http://www.w3.org/2000/svg">
<g filter="url(#filter0_d_322_5009)">
<path d="M47.8669 22.7743C47.8669 25.674 46.8755 28.9955 45.2656 32.4652C43.6587 35.9286 41.4528 39.5031 39.0639 42.8992C34.484 49.4098 29.2578 55.2268 26.3662 58.2921C23.4646 55.2276 18.2382 49.4104 13.6609 42.8993C11.2735 39.5033 9.07001 35.9288 7.46496 32.4654C5.85693 28.9957 4.86694 25.6742 4.86694 22.7743C4.86694 11.0554 14.9959 1.51855 26.8908 1.51855C38.7544 1.51855 47.8669 11.0245 47.8669 22.7743Z" fill="#0080FF" stroke="#0080FF"/>
<circle cx="26.367" cy="23.0184" r="16.9012" fill="white"/>
</g>
<g clip-path="url(#clip0_322_5009)">
<rect x="20.3044" y="23.4922" width="2.625" height="12.5263" rx="1.3125" fill="#474747"/>
<rect x="25.5544" y="23.4922" width="2.625" height="12.5263" rx="1.3125" fill="#474747"/>
<path fill-rule="evenodd" clip-rule="evenodd" d="M27.4359 16.6518C26.7592 16.9434 26.4039 17.7452 26.6423 18.4424L29.133 25.7278C29.3714 26.4251 30.1132 26.7539 30.7899 26.4622C31.4667 26.1706 31.822 25.3689 31.5836 24.6716L29.0929 17.3862C28.8545 16.6889 28.1127 16.3601 27.4359 16.6518ZM20.9462 16.6518C20.2695 16.3601 19.5276 16.6889 19.2892 17.3862L16.7985 24.6716C16.5601 25.3689 16.9155 26.1706 17.5922 26.4622C18.2689 26.7539 19.0108 26.4251 19.2492 25.7278L21.7399 18.4424C21.9783 17.7452 21.6229 16.9434 20.9462 16.6518Z" fill="#474747"/>
<ellipse cx="24.2419" cy="11.7028" rx="3.28125" ry="3.68421" fill="#474747"/>
<path fill-rule="evenodd" clip-rule="evenodd" d="M24.8881 12.5693C24.8335 12.9144 24.565 13.1765 24.2419 13.1765C23.9189 13.1765 23.6504 12.9144 23.5958 12.5693C23.059 12.822 22.9294 13.382 22.9294 13.6907C22.9294 13.9133 23.1546 13.9133 24.2416 13.9133H24.2419H24.2423C25.3293 13.9133 25.5544 13.9133 25.5544 13.6907C25.5544 13.382 25.4249 12.822 24.8881 12.5693Z" fill="#D3D2D2"/>
<path d="M27.2189 12.1237C27.3541 12.5448 27.6923 12.5448 27.8275 12.1237L28.1318 11.1764C28.2671 10.7553 28.098 10.229 27.8275 10.229H27.2189C26.9484 10.229 26.7793 10.7553 26.9145 11.1764L27.2189 12.1237Z" fill="#D3D2D2"/>
<path d="M20.6564 12.1237C20.7916 12.5448 21.1298 12.5448 21.265 12.1237L21.5693 11.1764C21.7046 10.7553 21.5355 10.229 21.265 10.229H20.6564C20.3859 10.229 20.2168 10.7553 20.352 11.1764L20.6564 12.1237Z" fill="#D3D2D2"/>
<path d="M19.4358 16.8394C19.5618 16.4151 19.9524 16.124 20.395 16.124C23.0723 16.124 25.1643 16.124 28.0915 16.124C28.5329 16.124 28.9227 16.4134 29.0498 16.8361L30.1482 20.4893L28.1794 21.2819V27.1766H20.3044V21.2819L18.3357 20.5451L19.4358 16.8394Z" fill="#474747"/>
<path fill-rule="evenodd" clip-rule="evenodd" d="M30.7434 27.2215C30.8014 26.3638 31.4071 25.7026 32.1349 25.7026H34.4432C35.171 25.7026 35.7766 26.3638 35.8347 27.2215L36.3182 34.3679H35.2823L34.8363 27.8822C34.8166 27.4678 34.5743 27.146 34.2821 27.146H32.296C32.0037 27.146 31.7615 27.4678 31.7417 27.8822L31.1822 36.0184H30.1482L30.7434 27.2215Z" fill="#474747"/>
<rect x="30.8872" y="28.5908" width="4.80363" height="1.23789" fill="#474747"/>
<ellipse cx="35.8757" cy="34.9867" rx="0.923775" ry="1.03158" fill="#0080FF"/>
</g>
<defs>
<filter id="filter0_d_322_5009" x="0.366943" y="0.0185547" width="52" height="66" filterUnits="userSpaceOnUse" color-interpolation-filters="sRGB">
<feFlood flood-opacity="0" result="BackgroundImageFix"/>
<feColorMatrix in="SourceAlpha" type="matrix" values="0 0 0 0 0 0 0 0 0 0 0 0 0 0 0 0 0 0 127 0" result="hardAlpha"/>
<feOffset dy="3"/>
<feGaussianBlur stdDeviation="2"/>
<feComposite in2="hardAlpha" operator="out"/>
<feColorMatrix type="matrix" values="0 0 0 0 0.198969 0 0 0 0 0.198969 0 0 0 0 0.198969 0 0 0 0.4 0"/>
<feBlend mode="normal" in2="BackgroundImageFix" result="effect1_dropShadow_322_5009"/>
<feBlend mode="normal" in="SourceGraphic" in2="effect1_dropShadow_322_5009" result="shape"/>
</filter>
<clipPath id="clip0_322_5009">
<rect width="21" height="28" fill="white" transform="translate(16.3669 8.01855)"/>
</clipPath>
</defs>
</svg>
