<svg width="53" height="67" viewBox="0 0 53 67" fill="none" xmlns="http://www.w3.org/2000/svg">
<g filter="url(#filter0_d_322_5206)">
<path d="M47.8669 22.784C47.8669 25.6838 46.8755 29.0052 45.2656 32.475C43.6587 35.9383 41.4528 39.5129 39.0639 42.909C34.484 49.4196 29.2578 55.2365 26.3662 58.3019C23.4646 55.2374 18.2382 49.4201 13.6609 42.9091C11.2735 39.5131 9.07001 35.9385 7.46496 32.4752C5.85693 29.0055 4.86694 25.6839 4.86694 22.784C4.86694 11.0651 14.9959 1.52832 26.8908 1.52832C38.7544 1.52832 47.8669 11.0343 47.8669 22.784Z" fill="#0080FF" stroke="#0080FF"/>
<circle cx="26.367" cy="23.0281" r="16.9012" fill="white"/>
</g>
<mask id="path-3-inside-1_322_5206" fill="white">
<path d="M26.1836 10.0283L39.3669 22.7476L36.9836 24.502L26.1836 13.1656L15.3836 24.502L13.3669 22.7476L26.1836 10.0283Z"/>
</mask>
<path d="M26.1836 10.0283L28.9609 7.14968L26.1442 4.43207L23.366 7.18913L26.1836 10.0283ZM39.3669 22.7476L41.7382 25.969L45.5548 23.1595L42.1443 19.869L39.3669 22.7476ZM13.3669 22.7476L10.5493 19.9084L7.49415 22.9404L10.7416 25.7655L13.3669 22.7476ZM15.3836 24.502L12.7582 27.5199L15.6427 30.0291L18.2797 27.2611L15.3836 24.502ZM36.9836 24.502L34.0875 27.2611L36.5176 29.8119L39.3549 27.7234L36.9836 24.502ZM26.1836 13.1656L29.0797 10.4065L26.1836 7.36653L23.2875 10.4065L26.1836 13.1656ZM23.4063 12.907L36.5896 25.6263L42.1443 19.869L28.9609 7.14968L23.4063 12.907ZM16.1846 25.5868L29.0012 12.8675L23.366 7.18913L10.5493 19.9084L16.1846 25.5868ZM18.009 21.4841L15.9923 19.7298L10.7416 25.7655L12.7582 27.5199L18.009 21.4841ZM36.9957 19.5263L34.6124 21.2806L39.3549 27.7234L41.7382 25.969L36.9957 19.5263ZM39.8797 21.7429L29.0797 10.4065L23.2875 15.9247L34.0875 27.2611L39.8797 21.7429ZM23.2875 10.4065L12.4875 21.7429L18.2797 27.2611L29.0797 15.9247L23.2875 10.4065Z" fill="#474747" mask="url(#path-3-inside-1_322_5206)"/>
<path fill-rule="evenodd" clip-rule="evenodd" d="M26.2497 11.0283L34.9835 19.2526V32.6774H17.3835V19.2526L26.2497 11.0283ZM32.0502 20.4172L26.2356 14.2734L20.3169 20.4285V29.3383H32.0502V20.4172Z" fill="#474747"/>
<rect x="24.9927" y="23.502" width="2.74835" height="7.91785" fill="#474747"/>
<defs>
<filter id="filter0_d_322_5206" x="0.366943" y="0.0283203" width="52" height="66" filterUnits="userSpaceOnUse" color-interpolation-filters="sRGB">
<feFlood flood-opacity="0" result="BackgroundImageFix"/>
<feColorMatrix in="SourceAlpha" type="matrix" values="0 0 0 0 0 0 0 0 0 0 0 0 0 0 0 0 0 0 127 0" result="hardAlpha"/>
<feOffset dy="3"/>
<feGaussianBlur stdDeviation="2"/>
<feComposite in2="hardAlpha" operator="out"/>
<feColorMatrix type="matrix" values="0 0 0 0 0.198969 0 0 0 0 0.198969 0 0 0 0 0.198969 0 0 0 0.4 0"/>
<feBlend mode="normal" in2="BackgroundImageFix" result="effect1_dropShadow_322_5206"/>
<feBlend mode="normal" in="SourceGraphic" in2="effect1_dropShadow_322_5206" result="shape"/>
</filter>
</defs>
</svg>
