<svg width="53" height="67" viewBox="0 0 53 67" fill="none" xmlns="http://www.w3.org/2000/svg">
<g filter="url(#filter0_d_322_5261)">
<path d="M47.8669 22.7743C47.8669 25.674 46.8755 28.9955 45.2656 32.4652C43.6587 35.9286 41.4528 39.5031 39.0639 42.8992C34.484 49.4098 29.2578 55.2268 26.3662 58.2921C23.4646 55.2276 18.2382 49.4104 13.6609 42.8993C11.2735 39.5033 9.07001 35.9288 7.46496 32.4654C5.85693 28.9957 4.86694 25.6742 4.86694 22.7743C4.86694 11.0554 14.9959 1.51855 26.8908 1.51855C38.7544 1.51855 47.8669 11.0245 47.8669 22.7743Z" fill="#0080FF" stroke="#0080FF"/>
<circle cx="26.367" cy="23.0184" r="16.9012" fill="white"/>
</g>
<mask id="mask0_322_5261" style="mask-type:alpha" maskUnits="userSpaceOnUse" x="14" y="11" width="25" height="25">
<rect x="14.1042" y="11.0186" width="24" height="24" fill="#D9D9D9"/>
</mask>
<g mask="url(#mask0_322_5261)">
<path d="M24.8923 28.2306H27.3163V22.0186H24.8923V28.2306ZM26.1043 20.3011C26.4676 20.3011 26.7722 20.1782 27.018 19.9323C27.2639 19.6865 27.3868 19.3819 27.3868 19.0186C27.3868 18.6553 27.2639 18.3507 27.018 18.1048C26.7722 17.859 26.4676 17.7361 26.1043 17.7361C25.7409 17.7361 25.4364 17.859 25.1905 18.1048C24.9447 18.3507 24.8218 18.6553 24.8218 19.0186C24.8218 19.3819 24.9447 19.6865 25.1905 19.9323C25.4364 20.1782 25.7409 20.3011 26.1043 20.3011ZM26.1043 33.4991C24.6456 33.4991 23.2797 33.2244 22.0065 32.6751C20.7335 32.1258 19.6262 31.3802 18.6845 30.4383C17.7427 29.4967 16.9971 28.3893 16.4478 27.1163C15.8984 25.8432 15.6238 24.4773 15.6238 23.0186C15.6238 21.5599 15.8984 20.194 16.4478 18.9208C16.9971 17.6478 17.7427 16.5405 18.6845 15.5988C19.6262 14.657 20.7335 13.9114 22.0065 13.3621C23.2797 12.8128 24.6456 12.5381 26.1043 12.5381C27.5629 12.5381 28.9289 12.8128 30.202 13.3621C31.475 13.9114 32.5824 14.657 33.524 15.5988C34.4659 16.5405 35.2114 17.6478 35.7608 18.9208C36.3101 20.194 36.5848 21.5599 36.5848 23.0186C36.5848 24.4773 36.3101 25.8432 35.7608 27.1163C35.2114 28.3893 34.4659 29.4967 33.524 30.4383C32.5824 31.3802 31.475 32.1258 30.202 32.6751C28.9289 33.2244 27.5629 33.4991 26.1043 33.4991ZM26.1043 30.8491C28.2999 30.8491 30.1539 30.0929 31.6663 28.5806C33.1786 27.0683 33.9348 25.2143 33.9348 23.0186C33.9348 20.8229 33.1786 18.9689 31.6663 17.4566C30.1539 15.9443 28.2999 15.1881 26.1043 15.1881C23.9086 15.1881 22.0546 15.9443 20.5423 17.4566C19.0299 18.9689 18.2738 20.8229 18.2738 23.0186C18.2738 25.2143 19.0299 27.0683 20.5423 28.5806C22.0546 30.0929 23.9086 30.8491 26.1043 30.8491Z" fill="#474747"/>
</g>
<defs>
<filter id="filter0_d_322_5261" x="0.366943" y="0.0185547" width="52" height="66" filterUnits="userSpaceOnUse" color-interpolation-filters="sRGB">
<feFlood flood-opacity="0" result="BackgroundImageFix"/>
<feColorMatrix in="SourceAlpha" type="matrix" values="0 0 0 0 0 0 0 0 0 0 0 0 0 0 0 0 0 0 127 0" result="hardAlpha"/>
<feOffset dy="3"/>
<feGaussianBlur stdDeviation="2"/>
<feComposite in2="hardAlpha" operator="out"/>
<feColorMatrix type="matrix" values="0 0 0 0 0.198969 0 0 0 0 0.198969 0 0 0 0 0.198969 0 0 0 0.4 0"/>
<feBlend mode="normal" in2="BackgroundImageFix" result="effect1_dropShadow_322_5261"/>
<feBlend mode="normal" in="SourceGraphic" in2="effect1_dropShadow_322_5261" result="shape"/>
</filter>
</defs>
</svg>
