<svg width="53" height="67" viewBox="0 0 53 67" fill="none" xmlns="http://www.w3.org/2000/svg">
<g filter="url(#filter0_d_322_5264)">
<path d="M47.8669 22.7743C47.8669 25.674 46.8755 28.9955 45.2656 32.4652C43.6587 35.9286 41.4528 39.5031 39.0639 42.8992C34.484 49.4098 29.2578 55.2268 26.3662 58.2921C23.4646 55.2276 18.2382 49.4104 13.6609 42.8993C11.2735 39.5033 9.07001 35.9288 7.46496 32.4654C5.85693 28.9957 4.86694 25.6742 4.86694 22.7743C4.86694 11.0554 14.9959 1.51855 26.8908 1.51855C38.7544 1.51855 47.8669 11.0245 47.8669 22.7743Z" fill="#0080FF" stroke="#0080FF"/>
<circle cx="26.367" cy="23.0184" r="16.9012" fill="white"/>
</g>
<path d="M26.3674 34.0186C4.35842 23.5228 21.3826 7.53694 26.3673 18.3531C32.3666 7.56423 48.379 22.6611 26.3674 34.0186Z" fill="#474747"/>
<defs>
<filter id="filter0_d_322_5264" x="0.366943" y="0.0185547" width="52" height="66" filterUnits="userSpaceOnUse" color-interpolation-filters="sRGB">
<feFlood flood-opacity="0" result="BackgroundImageFix"/>
<feColorMatrix in="SourceAlpha" type="matrix" values="0 0 0 0 0 0 0 0 0 0 0 0 0 0 0 0 0 0 127 0" result="hardAlpha"/>
<feOffset dy="3"/>
<feGaussianBlur stdDeviation="2"/>
<feComposite in2="hardAlpha" operator="out"/>
<feColorMatrix type="matrix" values="0 0 0 0 0.198969 0 0 0 0 0.198969 0 0 0 0 0.198969 0 0 0 0.4 0"/>
<feBlend mode="normal" in2="BackgroundImageFix" result="effect1_dropShadow_322_5264"/>
<feBlend mode="normal" in="SourceGraphic" in2="effect1_dropShadow_322_5264" result="shape"/>
</filter>
</defs>
</svg>
