<svg width="53" height="67" viewBox="0 0 53 67" fill="none" xmlns="http://www.w3.org/2000/svg">
<g filter="url(#filter0_d_322_5267)">
<path d="M48.1169 22.7743C48.1169 25.674 47.1255 28.9955 45.5156 32.4652C43.9087 35.9286 41.7028 39.5031 39.3139 42.8992C34.734 49.4098 29.5078 55.2268 26.6162 58.2921C23.7146 55.2276 18.4882 49.4104 13.9109 42.8993C11.5235 39.5033 9.32001 35.9288 7.71496 32.4654C6.10693 28.9957 5.11694 25.6742 5.11694 22.7743C5.11694 11.0554 15.2459 1.51855 27.1408 1.51855C39.0044 1.51855 48.1169 11.0245 48.1169 22.7743Z" fill="#0080FF" stroke="#0080FF"/>
<circle cx="26.617" cy="23.0184" r="16.9012" fill="white"/>
</g>
<mask id="mask0_322_5267" style="mask-type:alpha" maskUnits="userSpaceOnUse" x="12" y="9" width="29" height="29">
<rect x="12.3669" y="9.01855" width="28" height="28" fill="#D9D9D9"/>
</mask>
<g mask="url(#mask0_322_5267)">
<path d="M18.582 22.7714L18.2154 20.9392C18.0101 20.8521 17.8176 20.7608 17.6379 20.6653C17.4582 20.5696 17.2779 20.455 17.0969 20.3214L15.3393 20.863L13.9749 18.5335L15.3824 17.3173C15.3435 17.1057 15.3241 16.8941 15.3241 16.6826C15.3241 16.471 15.3435 16.2595 15.3824 16.0479L13.9749 14.8317L15.3393 12.4858L17.0969 13.0438C17.2779 12.9102 17.4582 12.7955 17.6379 12.6999C17.8176 12.6042 18.0101 12.5129 18.2154 12.426L18.582 10.5938H21.3275L21.6938 12.426C21.8991 12.5129 22.0916 12.6042 22.2713 12.6999C22.4512 12.7955 22.6315 12.9102 22.8124 13.0438L24.5699 12.4858L25.9344 14.8317L24.5268 16.0479C24.5657 16.2595 24.5851 16.471 24.5851 16.6826C24.5851 16.8941 24.5657 17.1057 24.5268 17.3173L25.9344 18.5335L24.5699 20.863L22.8124 20.3214C22.6315 20.455 22.4512 20.5696 22.2713 20.6653C22.0916 20.7608 21.8991 20.8521 21.6938 20.9392L21.3275 22.7714H18.582ZM19.9499 18.8923C20.5562 18.8923 21.0768 18.6753 21.5118 18.2413C21.9468 17.8071 22.1643 17.2852 22.1643 16.6756C22.1643 16.066 21.9473 15.5465 21.5133 15.1172C21.0791 14.6877 20.5572 14.4729 19.9476 14.4729C19.338 14.4729 18.8186 14.6888 18.3892 15.1207C17.9597 15.5524 17.7449 16.0714 17.7449 16.6779C17.7449 17.2842 17.9609 17.8048 18.3927 18.2398C18.8244 18.6748 19.3435 18.8923 19.9499 18.8923ZM29.7654 36.3631L29.2404 33.9131C28.833 33.7855 28.4472 33.6171 28.0828 33.4079C27.7184 33.1987 27.3835 32.9486 27.0783 32.6577L24.7449 33.449L23.1116 30.649L24.9783 29.0157C24.8954 28.5887 24.854 28.1618 24.854 27.735C24.854 27.308 24.8954 26.881 24.9783 26.454L23.1116 24.8207L24.7449 22.0207L27.0783 22.812C27.3835 22.5213 27.7184 22.2713 28.0828 22.0621C28.4472 21.8527 28.833 21.6842 29.2404 21.5566L29.7654 19.1066H33.0321L33.5571 21.5566C33.9646 21.6842 34.3479 21.8527 34.7068 22.0621C35.0656 22.2713 35.3976 22.5213 35.7029 22.812L38.0362 22.0207L39.6695 24.8207L37.8029 26.454C37.8857 26.881 37.9271 27.308 37.9271 27.735C37.9271 28.1618 37.8857 28.5887 37.8029 29.0157L39.6695 30.649L38.0362 33.449L35.7029 32.6577C35.3976 32.9486 35.0656 33.1987 34.7068 33.4079C34.3479 33.6171 33.9646 33.7855 33.5571 33.9131L33.0321 36.3631H29.7654ZM31.3987 31.037C32.3161 31.037 33.093 30.7159 33.7294 30.0739C34.3661 29.4318 34.6844 28.6522 34.6844 27.735C34.6844 26.8176 34.365 26.0379 33.7262 25.3958C33.0873 24.7538 32.3115 24.4327 31.3987 24.4327C30.4815 24.4327 29.7019 24.7538 29.0599 25.3958C28.4176 26.0379 28.0965 26.8176 28.0965 27.735C28.0965 28.6522 28.4176 29.4318 29.0599 30.0739C29.7019 30.7159 30.4815 31.037 31.3987 31.037Z" fill="#474747"/>
</g>
<defs>
<filter id="filter0_d_322_5267" x="0.616943" y="0.0185547" width="52" height="66" filterUnits="userSpaceOnUse" color-interpolation-filters="sRGB">
<feFlood flood-opacity="0" result="BackgroundImageFix"/>
<feColorMatrix in="SourceAlpha" type="matrix" values="0 0 0 0 0 0 0 0 0 0 0 0 0 0 0 0 0 0 127 0" result="hardAlpha"/>
<feOffset dy="3"/>
<feGaussianBlur stdDeviation="2"/>
<feComposite in2="hardAlpha" operator="out"/>
<feColorMatrix type="matrix" values="0 0 0 0 0.198969 0 0 0 0 0.198969 0 0 0 0 0.198969 0 0 0 0.4 0"/>
<feBlend mode="normal" in2="BackgroundImageFix" result="effect1_dropShadow_322_5267"/>
<feBlend mode="normal" in="SourceGraphic" in2="effect1_dropShadow_322_5267" result="shape"/>
</filter>
</defs>
</svg>
