<svg xmlns="http://www.w3.org/2000/svg" style="display: none;">

<symbol id="pin1" viewBox="0 0 53 67">
<path d="M43.8669 21.7743C43.8669 24.674 42.8755 27.9955 41.2656 31.4652C39.6587 34.9286 37.4528 38.5031 35.0639 41.8992C30.484 48.4098 25.2578 54.2268 22.3662 57.2921C19.4646 54.2276 14.2382 48.4104 9.66095 41.8993C7.27354 38.5033 5.07001 34.9288 3.46496 31.4654C1.85693 27.9957 0.866943 24.6742 0.866943 21.7743C0.866943 10.0554 10.9959 0.518555 22.8908 0.518555C34.7544 0.518555 43.8669 10.0245 43.8669 21.7743Z" fill="#0080FF" stroke="#0080FF"/>
<circle cx="22.3669" cy="22.0186" r="16.9012" fill="white"/>
<g clip-path="url(#clip0_403_3065)">
<path fill-rule="evenodd" clip-rule="evenodd" d="M23.436 15.6519C22.7593 15.9436 22.404 16.7453 22.6423 17.4426L25.1331 24.7279C25.3714 25.4252 26.1133 25.754 26.79 25.4624C27.4667 25.1707 27.8221 24.369 27.5837 23.6717L25.093 16.3863C24.8546 15.689 24.1128 15.3602 23.436 15.6519ZM16.9463 15.6519C16.2696 15.3602 15.5277 15.689 15.2893 16.3863L12.7986 23.6717C12.5602 24.369 12.9156 25.1707 13.5923 25.4624C14.269 25.754 15.0109 25.4252 15.2492 24.7279L17.74 17.4426C17.9784 16.7453 17.623 15.9436 16.9463 15.6519Z" fill="#474747"/>
<rect x="16.3045" y="22.4922" width="2.625" height="12.5263" rx="1.3125" fill="#474747"/>
<rect x="21.5544" y="22.4922" width="2.625" height="12.5263" rx="1.3125" fill="#474747"/>
<ellipse cx="20.2419" cy="10.7028" rx="3.28125" ry="3.68421" fill="#474747"/>
<path fill-rule="evenodd" clip-rule="evenodd" d="M20.8881 11.5693C20.8335 11.9144 20.565 12.1765 20.2419 12.1765C19.9189 12.1765 19.6504 11.9144 19.5958 11.5693C19.059 11.822 18.9294 12.382 18.9294 12.6907C18.9294 12.9133 19.1546 12.9133 20.2416 12.9133H20.2419H20.2423C21.3293 12.9133 21.5544 12.9133 21.5544 12.6907C21.5544 12.382 21.4249 11.822 20.8881 11.5693Z" fill="#D3D2D2"/>
<path d="M23.2189 11.1239C23.3541 11.5449 23.6923 11.5449 23.8275 11.1239L24.1318 10.1765C24.2671 9.75544 24.098 9.22913 23.8275 9.22913H23.2189C22.9484 9.22913 22.7793 9.75544 22.9145 10.1765L23.2189 11.1239Z" fill="#D3D2D2"/>
<path d="M16.6564 11.1239C16.7916 11.5449 17.1298 11.5449 17.265 11.1239L17.5693 10.1765C17.7046 9.75544 17.5355 9.22913 17.265 9.22913H16.6564C16.3859 9.22913 16.2168 9.75544 16.352 10.1765L16.6564 11.1239Z" fill="#D3D2D2"/>
<path d="M15.4358 15.8392C15.5618 15.4148 15.9524 15.1238 16.395 15.1238C19.0723 15.1238 21.1643 15.1238 24.0915 15.1238C24.5329 15.1238 24.9227 15.4132 25.0498 15.8358L26.1482 19.4891L24.1794 20.2817V26.1764H16.3044V20.2817L14.3357 19.5448L15.4358 15.8392Z" fill="#474747"/>
<path fill-rule="evenodd" clip-rule="evenodd" d="M26.7434 26.2217C26.8014 25.3639 27.4071 24.7028 28.1349 24.7028H30.4432C31.171 24.7028 31.7766 25.3639 31.8347 26.2217L32.3182 33.368H31.2823L30.8363 26.8824C30.8166 26.4679 30.5743 26.1461 30.2821 26.1461H28.296C28.0037 26.1461 27.7615 26.4679 27.7417 26.8824L27.1822 35.0185H26.1482L26.7434 26.2217Z" fill="#474747"/>
<rect x="26.8872" y="27.5912" width="4.80363" height="1.23789" fill="#474747"/>
<ellipse cx="31.8756" cy="33.987" rx="0.923775" ry="1.03158" fill="#0080FF"/>
</g>
<defs>
<clipPath id="clip0_403_3065">
<rect width="21" height="28" fill="white" transform="translate(12.3669 7.01855)"/>
</clipPath>
</defs>
</symbol>
<symbol id="pin2" viewBox="0 0 53 67">
<path d="M44.3669 21.7842C44.3669 33.7995 27.9827 52.121 22.3669 58.0284C16.7269 52.121 0.366943 33.7995 0.366943 21.7842C0.366943 9.76881 10.7405 0.0284424 22.8908 0.0284424C35.041 0.0284424 44.3669 9.76881 44.3669 21.7842Z" fill="#0080FF"/>
<circle cx="22.3669" cy="22.0284" r="16.9012" fill="white"/>
<path fill-rule="evenodd" clip-rule="evenodd" d="M32.9836 23.5021L30.9836 21.4028V31.6776H13.3836V21.4028L11.3836 23.5021L9.36694 21.7477L22.1836 9.02844L35.3669 21.7477L32.9836 23.5021ZM28.0503 19.4173L22.2356 13.2735L16.3169 19.4286V28.3384H20.9928V22.5021H23.7411V28.3384H28.0503V19.4173Z" fill="#474747"/>
</symbol>
<symbol id="pin3" viewBox="0 0 53 67">
<path d="M43.8669 21.7743C43.8669 24.674 42.8755 27.9955 41.2656 31.4652C39.6587 34.9286 37.4528 38.5031 35.0639 41.8992C30.484 48.4098 25.2578 54.2268 22.3662 57.2921C19.4646 54.2276 14.2382 48.4104 9.66095 41.8993C7.27354 38.5033 5.07001 34.9288 3.46496 31.4654C1.85693 27.9957 0.866943 24.6742 0.866943 21.7743C0.866943 10.0554 10.9959 0.518555 22.8908 0.518555C34.7544 0.518555 43.8669 10.0245 43.8669 21.7743Z" fill="#0080FF" stroke="#0080FF"/>
<circle cx="22.3669" cy="22.0186" r="16.9012" fill="white"/>
<path d="M24.1746 30.274H25.1746V29.274V25.0817H29.3669H30.3669V24.0817V19.4664V18.4664H29.3669H25.1746V14.274V13.274H24.1746H19.5593H18.5593V14.274V18.4664H14.3669H13.3669V19.4664V24.0817V25.0817H14.3669H18.5593V29.274V30.274H19.5593H24.1746Z" fill="white" stroke="#474747" stroke-width="2"/>
</symbol>
<symbol id="pin4" viewBox="0 0 53 67">
<path d="M43.8669 21.7743C43.8669 24.674 42.8755 27.9955 41.2656 31.4652C39.6587 34.9286 37.4528 38.5031 35.0639 41.8992C30.484 48.4098 25.2578 54.2268 22.3662 57.2921C19.4646 54.2276 14.2382 48.4104 9.66095 41.8993C7.27354 38.5033 5.07001 34.9288 3.46496 31.4654C1.85693 27.9957 0.866943 24.6742 0.866943 21.7743C0.866943 10.0554 10.9959 0.518555 22.8908 0.518555C34.7544 0.518555 43.8669 10.0245 43.8669 21.7743Z" fill="#0080FF" stroke="#0080FF"/>
<circle cx="22.3669" cy="22.0186" r="16.9012" fill="white"/>
<mask id="mask0_403_3080" style="mask-type:alpha" maskUnits="userSpaceOnUse" x="10" y="10" width="25" height="25">
<rect x="10.1043" y="10.0186" width="24" height="24" fill="#D9D9D9"/>
</mask>
<g mask="url(#mask0_403_3080)">
<path d="M20.8923 27.2306H23.3163V21.0186H20.8923V27.2306ZM22.1043 19.3011C22.4676 19.3011 22.7722 19.1782 23.0181 18.9323C23.2639 18.6865 23.3868 18.3819 23.3868 18.0186C23.3868 17.6553 23.2639 17.3507 23.0181 17.1048C22.7722 16.859 22.4676 16.7361 22.1043 16.7361C21.741 16.7361 21.4364 16.859 21.1906 17.1048C20.9447 17.3507 20.8218 17.6553 20.8218 18.0186C20.8218 18.3819 20.9447 18.6865 21.1906 18.9323C21.4364 19.1782 21.741 19.3011 22.1043 19.3011ZM22.1043 32.4991C20.6456 32.4991 19.2797 32.2244 18.0066 31.6751C16.7336 31.1258 15.6262 30.3802 14.6846 29.4383C13.7427 28.4967 12.9971 27.3893 12.4478 26.1163C11.8985 24.8432 11.6238 23.4773 11.6238 22.0186C11.6238 20.5599 11.8985 19.194 12.4478 17.9208C12.9971 16.6478 13.7427 15.5405 14.6846 14.5988C15.6262 13.657 16.7336 12.9114 18.0066 12.3621C19.2797 11.8128 20.6456 11.5381 22.1043 11.5381C23.563 11.5381 24.9289 11.8128 26.2021 12.3621C27.4751 12.9114 28.5824 13.657 29.5241 14.5988C30.4659 15.5405 31.2115 16.6478 31.7608 17.9208C32.3101 19.194 32.5848 20.5599 32.5848 22.0186C32.5848 23.4773 32.3101 24.8432 31.7608 26.1163C31.2115 27.3893 30.4659 28.4967 29.5241 29.4383C28.5824 30.3802 27.4751 31.1258 26.2021 31.6751C24.9289 32.2244 23.563 32.4991 22.1043 32.4991ZM22.1043 29.8491C24.3 29.8491 26.154 29.0929 27.6663 27.5806C29.1786 26.0683 29.9348 24.2143 29.9348 22.0186C29.9348 19.8229 29.1786 17.9689 27.6663 16.4566C26.154 14.9443 24.3 14.1881 22.1043 14.1881C19.9086 14.1881 18.0546 14.9443 16.5423 16.4566C15.03 17.9689 14.2738 19.8229 14.2738 22.0186C14.2738 24.2143 15.03 26.0683 16.5423 27.5806C18.0546 29.0929 19.9086 29.8491 22.1043 29.8491Z" fill="#474747"/>
</g>
</symbol>
<symbol id="pin5" viewBox="0 0 53 67">
<path d="M43.8669 21.7743C43.8669 24.674 42.8755 27.9955 41.2656 31.4652C39.6587 34.9286 37.4528 38.5031 35.0639 41.8992C30.484 48.4098 25.2578 54.2268 22.3662 57.2921C19.4646 54.2276 14.2382 48.4104 9.66095 41.8993C7.27354 38.5033 5.07001 34.9288 3.46496 31.4654C1.85693 27.9957 0.866943 24.6742 0.866943 21.7743C0.866943 10.0554 10.9959 0.518555 22.8908 0.518555C34.7544 0.518555 43.8669 10.0245 43.8669 21.7743Z" fill="#0080FF" stroke="#0080FF"/>
<circle cx="22.3669" cy="22.0186" r="16.9012" fill="white"/>
<path d="M22.3674 33.0186C0.358418 22.5228 17.3826 6.53694 22.3673 17.3531C28.3666 6.56423 44.379 21.6611 22.3674 33.0186Z" fill="#474747"/>
</symbol>
<symbol id="pin6" viewBox="0 0 53 67">
<path d="M44.1169 21.7743C44.1169 24.674 43.1255 27.9955 41.5156 31.4652C39.9087 34.9286 37.7028 38.5031 35.3139 41.8992C30.734 48.4098 25.5078 54.2268 22.6162 57.2921C19.7146 54.2276 14.4882 48.4104 9.91095 41.8993C7.52354 38.5033 5.32001 34.9288 3.71496 31.4654C2.10693 27.9957 1.11694 24.6742 1.11694 21.7743C1.11694 10.0554 11.2459 0.518555 23.1408 0.518555C35.0044 0.518555 44.1169 10.0245 44.1169 21.7743Z" fill="#0080FF" stroke="#0080FF"/>
<circle cx="22.6169" cy="22.0186" r="16.9012" fill="white"/>
<mask id="mask0_403_3086" style="mask-type:alpha" maskUnits="userSpaceOnUse" x="8" y="8" width="29" height="29">
<rect x="8.36694" y="8.01855" width="28" height="28" fill="#D9D9D9"/>
</mask>
<g mask="url(#mask0_403_3086)">
<path d="M14.5821 21.7712L14.2155 19.9389C14.0101 19.8518 13.8176 19.7605 13.638 19.665C13.4583 19.5694 13.2779 19.4548 13.0969 19.3212L11.3393 19.8628L9.97491 17.5333L11.3825 16.317C11.3436 16.1055 11.3242 15.8939 11.3242 15.6823C11.3242 15.4708 11.3436 15.2592 11.3825 15.0477L9.97491 13.8314L11.3393 11.4855L13.0969 12.0435C13.2779 11.9099 13.4583 11.7953 13.638 11.6996C13.8176 11.604 14.0101 11.5127 14.2155 11.4258L14.5821 9.59351H17.3275L17.6939 11.4258C17.8992 11.5127 18.0917 11.604 18.2714 11.6996C18.4512 11.7953 18.6316 11.9099 18.8124 12.0435L20.57 11.4855L21.9344 13.8314L20.5268 15.0477C20.5657 15.2592 20.5852 15.4708 20.5852 15.6823C20.5852 15.8939 20.5657 16.1055 20.5268 16.317L21.9344 17.5333L20.57 19.8628L18.8124 19.3212C18.6316 19.4548 18.4512 19.5694 18.2714 19.665C18.0917 19.7605 17.8992 19.8518 17.6939 19.9389L17.3275 21.7712H14.5821ZM15.95 17.892C16.5563 17.892 17.0769 17.675 17.5119 17.241C17.9468 16.8068 18.1643 16.2849 18.1643 15.6753C18.1643 15.0658 17.9473 14.5463 17.5133 14.117C17.0791 13.6874 16.5572 13.4727 15.9477 13.4727C15.3381 13.4727 14.8186 13.6886 14.3893 14.1205C13.9598 14.5521 13.745 15.0712 13.745 15.6777C13.745 16.2839 13.9609 16.8046 14.3928 17.2395C14.8245 17.6745 15.3435 17.892 15.95 17.892ZM25.7655 35.3628L25.2405 32.9128C24.8331 32.7853 24.4472 32.6169 24.0828 32.4077C23.7184 32.1985 23.3836 31.9484 23.0783 31.6575L20.745 32.4488L19.1117 29.6488L20.9783 28.0155C20.8955 27.5885 20.8541 27.1616 20.8541 26.7348C20.8541 26.3078 20.8955 25.8808 20.9783 25.4538L19.1117 23.8204L20.745 21.0204L23.0783 21.8117C23.3836 21.521 23.7184 21.2711 24.0828 21.0618C24.4472 20.8524 24.8331 20.6839 25.2405 20.5564L25.7655 18.1064H29.0321L29.5571 20.5564C29.9647 20.6839 30.3479 20.8524 30.7069 21.0618C31.0656 21.2711 31.3976 21.521 31.7029 21.8117L34.0363 21.0204L35.6696 23.8204L33.8029 25.4538C33.8858 25.8808 33.9272 26.3078 33.9272 26.7348C33.9272 27.1616 33.8858 27.5885 33.8029 28.0155L35.6696 29.6488L34.0363 32.4488L31.7029 31.6575C31.3976 31.9484 31.0656 32.1985 30.7069 32.4077C30.3479 32.6169 29.9647 32.7853 29.5571 32.9128L29.0321 35.3628H25.7655ZM27.3988 30.0367C28.3162 30.0367 29.0931 29.7157 29.7295 29.0736C30.3661 28.4316 30.6844 27.6519 30.6844 26.7348C30.6844 25.8174 30.365 25.0376 29.7263 24.3956C29.0873 23.7535 28.3115 23.4325 27.3988 23.4325C26.4816 23.4325 25.702 23.7535 25.0599 24.3956C24.4177 25.0376 24.0965 25.8174 24.0965 26.7348C24.0965 27.6519 24.4177 28.4316 25.0599 29.0736C25.702 29.7157 26.4816 30.0367 27.3988 30.0367Z" fill="#474747"/>
</g>
</symbol>
</svg>