<svg width="36" height="32" viewBox="0 0 36 32" fill="none" xmlns="http://www.w3.org/2000/svg">
<path fill-rule="evenodd" clip-rule="evenodd" d="M16.1262 5.57618C17.1559 4.86878 18.5162 4.87357 19.5409 5.58819L28.6468 11.9384C29.4513 12.4995 29.9308 13.4184 29.9308 14.3992V28.5119C29.9308 30.1688 28.5876 31.5119 26.9308 31.5119H8.56152C6.90467 31.5119 5.56152 30.1688 5.56152 28.5119V14.4126C5.56152 13.4243 6.04824 12.4995 6.86281 11.9399L16.1262 5.57618ZM25.8692 16.0317C25.8692 15.0441 25.3832 14.1198 24.5696 13.5601L19.506 10.0764C18.4881 9.37615 17.1451 9.37149 16.1224 10.0647L10.9399 13.5773C10.1163 14.1355 9.62306 15.0657 9.62306 16.0606V24.8691C9.62306 26.5259 10.9662 27.8691 12.6231 27.8691H22.8692C24.5261 27.8691 25.8692 26.526 25.8692 24.8691V16.0317Z" fill="#474747"/>
</svg>
