<svg fill="none" xmlns="http://www.w3.org/2000/svg">
<symbol id="shape1" viewBox="0 0 36 36">
<path fill-rule="evenodd" clip-rule="evenodd" d="M32.7045 20.0771L35.9545 17.6435L17.9773 0L0.5 17.6435L3.25 20.0771L5.97727 17.165V31.4177H29.9773V17.165L32.7045 20.0771ZM25.9773 14.4109L18.0482 5.8885L9.97727 14.4265V26.7857H16.3534V18.69H20.1011V26.7857H25.9773V14.4109Z" fill="#474747"/>
</symbol>
<symbol id="shape2" viewBox="0 0 36 36">
<path fill-rule="evenodd" clip-rule="evenodd" d="M18.0675 2.87402L29.9773 14.2823V32.9045H5.97729V14.2823L18.0675 2.87402ZM25.9773 15.8978L18.0482 7.3754L9.97729 15.9134V28.2726H25.9773V15.8978Z" fill="#BABABA"/>
<path d="M16.3534 20.749H20.1011V31.7652H16.3534V20.749Z" fill="#D3D2D2"/>
<path d="M17.7908 7.18836L31.5418 22.8932L34.6967 19.9432L17.7908 0.800187L0.773132 19.9278L3.91627 22.8932L17.7908 7.18836Z" fill="#474747"/>
</symbol>
<symbol id="shape3" viewBox="0 0 36 36">
<path fill-rule="evenodd" clip-rule="evenodd" d="M16.6262 5.99382C17.6559 5.28643 19.0162 5.29121 20.0409 6.00583L29.1468 12.3561C29.9513 12.9171 30.4308 13.836 30.4308 14.8168V28.9296C30.4308 30.5864 29.0876 31.9296 27.4308 31.9296H9.06152C7.40467 31.9296 6.06152 30.5864 6.06152 28.9296V14.8303C6.06152 13.842 6.54824 12.9171 7.36281 12.3575L16.6262 5.99382ZM26.3692 16.4493C26.3692 15.4618 25.8832 14.5375 25.0696 13.9778L20.006 10.4941C18.9881 9.7938 17.6451 9.78913 16.6224 10.4823L11.4399 13.995C10.6163 14.5532 10.1231 15.4834 10.1231 16.4783V25.2867C10.1231 26.9436 11.4662 28.2867 13.1231 28.2867H23.3692C25.0261 28.2867 26.3692 26.9436 26.3692 25.2867V16.4493Z" fill="#474747"/>
</symbol>
</svg>