<svg width="36" height="32" viewBox="0 0 36 32" fill="none" xmlns="http://www.w3.org/2000/svg">
<mask id="path-1-inside-1_325_6132" fill="white">
<path d="M17.4773 0L35.4545 17.6435L32.2045 20.0771L17.4773 4.35183L2.75 20.0771L0 17.6435L17.4773 0Z"/>
</mask>
<path d="M17.4773 0L20.2791 -2.8548L17.4375 -5.64365L14.6355 -2.81501L17.4773 0ZM35.4545 17.6435L37.8521 20.8454L41.5819 18.0525L38.2563 14.7887L35.4545 17.6435ZM0 17.6435L-2.84179 14.8285L-5.8197 17.8348L-2.65085 20.639L0 17.6435ZM2.75 20.0771L0.0991544 23.0726L3.01134 25.6498L5.66956 22.8114L2.75 20.0771ZM32.2045 20.0771L29.285 22.8114L31.7341 25.4265L34.6021 23.279L32.2045 20.0771ZM17.4773 4.35183L20.3968 1.61757L17.4773 -1.49983L14.5577 1.61757L17.4773 4.35183ZM14.6755 2.8548L32.6527 20.4983L38.2563 14.7887L20.2791 -2.8548L14.6755 2.8548ZM2.84179 20.4585L20.3191 2.81501L14.6355 -2.81501L-2.84179 14.8285L2.84179 20.4585ZM5.40085 17.0816L2.65085 14.648L-2.65085 20.639L0.0991544 23.0726L5.40085 17.0816ZM33.057 14.4417L29.807 16.8753L34.6021 23.279L37.8521 20.8454L33.057 14.4417ZM35.1241 17.3429L20.3968 1.61757L14.5577 7.0861L29.285 22.8114L35.1241 17.3429ZM14.5577 1.61757L-0.169556 17.3429L5.66956 22.8114L20.3968 7.0861L14.5577 1.61757Z" fill="#474747" mask="url(#path-1-inside-1_325_6132)"/>
<path fill-rule="evenodd" clip-rule="evenodd" d="M17.5675 1.38721L29.4773 12.7955V31.4177H5.47729V12.7955L17.5675 1.38721ZM25.4773 14.411L17.5482 5.88858L9.47729 14.4266V26.7858H25.4773V14.411Z" fill="#474747"/>
<rect x="15.8535" y="18.6899" width="3.74775" height="10.9832" fill="#474747"/>
</svg>
