<svg width="26" height="40" viewBox="0 0 26 40" fill="none" xmlns="http://www.w3.org/2000/svg">
<rect x="7.0603" y="22.1074" width="4.20455" height="17.8947" rx="2.10227" fill="#474747"/>
<rect x="15.4695" y="22.1074" width="4.20455" height="17.8947" rx="2.10227" fill="#474747"/>
<path fill-rule="evenodd" clip-rule="evenodd" d="M5.64943 25.1393L7.06027 21.4587V27.3705H19.6739V21.2641L21.1594 25.1393C21.575 26.2237 22.7907 26.7649 23.8746 26.3482C24.9585 25.9316 25.5003 24.7147 25.0846 23.6304L21.2176 13.5422C20.8611 12.612 19.9159 12.0815 18.9701 12.2124C14.0017 11.3739 12.2614 11.3706 7.7546 12.2025C6.83739 12.1133 5.93713 12.6396 5.59116 13.5422L1.72414 23.6304C1.3085 24.7147 1.85026 25.9316 2.93419 26.3482C4.01813 26.7649 5.23378 26.2237 5.64943 25.1393Z" fill="#474747"/>
<ellipse cx="13.367" cy="5.2656" rx="5.25568" ry="5.26316" fill="#474747"/>
<path d="M11.2839 6.31592C11.2839 7.36855 12.3351 8.42118 13.3862 8.42118C14.4373 8.42118 15.4885 7.36855 15.4885 6.31592H11.2839Z" fill="white"/>
<mask id="path-6-inside-1_327_1553" fill="white">
<path d="M5.78416 12.2257C5.93117 11.8366 6.30469 11.5791 6.72063 11.5791C11.4085 11.5791 14.9129 11.5791 20.0534 11.5791C20.4686 11.5791 20.8419 11.8358 20.9893 12.2239L23.089 17.7504L19.9035 18.9475V27.3686H6.86936V18.9475L3.69678 17.7504L5.78416 12.2257Z"/>
</mask>
<path d="M5.78416 12.2257C5.93117 11.8366 6.30469 11.5791 6.72063 11.5791C11.4085 11.5791 14.9129 11.5791 20.0534 11.5791C20.4686 11.5791 20.8419 11.8358 20.9893 12.2239L23.089 17.7504L19.9035 18.9475V27.3686H6.86936V18.9475L3.69678 17.7504L5.78416 12.2257Z" fill="#0A427A"/>
<path d="M19.9035 27.3686V27.6686H20.2034V27.3686H19.9035ZM6.86936 27.3686H6.56936V27.6686H6.86936V27.3686ZM3.69678 17.7504L3.41614 17.6444L3.31006 17.9252L3.59087 18.0311L3.69678 17.7504ZM6.86936 18.9475H7.16936V18.74L6.97526 18.6668L6.86936 18.9475ZM23.089 17.7504L23.1945 18.0313L23.4763 17.9254L23.3694 17.6439L23.089 17.7504ZM19.9035 18.9475L19.7979 18.6667L19.6034 18.7398V18.9475H19.9035ZM20.0534 11.5791V11.2791V11.5791ZM20.9893 12.2239L21.2698 12.1174L20.9893 12.2239ZM5.78416 12.2257L6.0648 12.3317L5.78416 12.2257ZM6.72063 11.8791C11.4085 11.8791 14.9129 11.8791 20.0534 11.8791V11.2791C14.9129 11.2791 11.4085 11.2791 6.72063 11.2791L6.72063 11.8791ZM19.9035 27.0686H6.86936V27.6686H19.9035V27.0686ZM3.97741 17.8565L6.0648 12.3317L5.50353 12.1196L3.41614 17.6444L3.97741 17.8565ZM7.16936 27.3686V18.9475H6.56936V27.3686H7.16936ZM6.97526 18.6668L3.80268 17.4698L3.59087 18.0311L6.76345 19.2282L6.97526 18.6668ZM20.7089 12.3305L22.8085 17.857L23.3694 17.6439L21.2698 12.1174L20.7089 12.3305ZM22.9834 17.4696L19.7979 18.6667L20.009 19.2283L23.1945 18.0313L22.9834 17.4696ZM19.6034 18.9475V27.3686H20.2034V18.9475H19.6034ZM20.0534 11.8791C20.3445 11.8791 20.6058 12.0591 20.7089 12.3305L21.2698 12.1174C21.0779 11.6124 20.5928 11.2791 20.0534 11.2791V11.8791ZM6.72063 11.2791C6.18026 11.2791 5.69476 11.6135 5.50353 12.1196L6.0648 12.3317C6.16758 12.0597 6.42912 11.8791 6.72063 11.8791L6.72063 11.2791Z" fill="white" mask="url(#path-6-inside-1_327_1553)"/>
<path d="M8.76489 21.0529V17.3687H9.44813V20.4739H11.3717V21.0529H8.76489Z" fill="white"/>
<path d="M12.0688 21.0529V17.3687H13.7926C14.2341 17.3687 14.5705 17.4564 14.8017 17.6318C15.033 17.8037 15.1486 18.0353 15.1486 18.3265C15.1486 18.523 15.1031 18.6915 15.012 18.8318C14.9209 18.9687 14.7982 19.0757 14.6441 19.1529C14.4934 19.2265 14.3287 19.2634 14.15 19.2634L14.2446 19.0739C14.4514 19.0739 14.6371 19.1125 14.8017 19.1897C14.9664 19.2634 15.0961 19.3722 15.1907 19.516C15.2888 19.6599 15.3378 19.8388 15.3378 20.0529C15.3378 20.3687 15.2169 20.6143 14.9752 20.7897C14.7334 20.9651 14.3743 21.0529 13.8978 21.0529H12.0688ZM12.752 20.516H13.8557C14.1115 20.516 14.3077 20.4739 14.4444 20.3897C14.581 20.3055 14.6493 20.1704 14.6493 19.9844C14.6493 19.802 14.581 19.6687 14.4444 19.5844C14.3077 19.4967 14.1115 19.4529 13.8557 19.4529H12.6995V18.9213H13.7191C13.9573 18.9213 14.1395 18.8792 14.2657 18.795C14.3953 18.7108 14.4601 18.5844 14.4601 18.416C14.4601 18.2441 14.3953 18.116 14.2657 18.0318C14.1395 17.9476 13.9573 17.9055 13.7191 17.9055H12.752V20.516Z" fill="white"/>
<path d="M16.7975 21.1055C16.5628 21.1055 16.3456 21.0599 16.1458 20.9687C15.9496 20.8774 15.7885 20.7458 15.6623 20.5739L16.0512 20.1055C16.1528 20.2458 16.2632 20.3511 16.3823 20.4213C16.505 20.4915 16.6381 20.5265 16.7818 20.5265C17.1637 20.5265 17.3546 20.3002 17.3546 19.8476V17.9423H16.046V17.3687H18.0379V19.8108C18.0379 20.2458 17.931 20.5704 17.7173 20.7844C17.5071 20.9985 17.2005 21.1055 16.7975 21.1055Z" fill="white"/>
</svg>
