<svg width="103" height="43" viewBox="0 0 103 43" fill="none" xmlns="http://www.w3.org/2000/svg">
<g clip-path="url(#clip0_327_1503)">
<ellipse cx="52.5434" cy="22.0795" rx="4.03653" ry="6.45397" fill="#474747"/>
<ellipse cx="52.5435" cy="11.5492" rx="3.36377" ry="3.39683" fill="#474747"/>
<path d="M55.5952 11.9374C55.7338 12.3256 56.0805 12.3256 56.2191 11.9374L56.5311 11.0639C56.6697 10.6757 56.4964 10.1904 56.2191 10.1904H55.5952C55.3178 10.1904 55.1445 10.6757 55.2832 11.0639L55.5952 11.9374Z" fill="#D3D2D2"/>
<path d="M48.8676 11.9374C49.0063 12.3256 49.3529 12.3256 49.4916 11.9374L49.8035 11.0639C49.9422 10.6757 49.7689 10.1904 49.4916 10.1904H48.8676C48.5903 10.1904 48.417 10.6757 48.5556 11.0639L48.8676 11.9374Z" fill="#D3D2D2"/>
<path fill-rule="evenodd" clip-rule="evenodd" d="M53.2056 12.2285C53.1497 12.5467 52.8744 12.7883 52.5433 12.7883C52.2121 12.7883 51.9369 12.5467 51.8809 12.2285C51.3305 12.4614 51.1978 12.9778 51.1978 13.2624C51.1978 13.4676 51.4286 13.4676 52.5429 13.4676H52.5433H52.5436C53.658 13.4676 53.8888 13.4676 53.8888 13.2624C53.8888 12.9778 53.756 12.4614 53.2056 12.2285Z" fill="#D3D2D2"/>
<ellipse cx="63.6437" cy="22.0795" rx="4.03653" ry="6.45397" fill="#474747"/>
<mask id="mask0_327_1503" style="mask-type:alpha" maskUnits="userSpaceOnUse" x="59" y="15" width="9" height="14">
<ellipse cx="63.6437" cy="22.0795" rx="4.03653" ry="6.45397" fill="#474747"/>
</mask>
<g mask="url(#mask0_327_1503)">
<rect x="57.7389" y="15.5167" width="11.8096" height="6.07315" fill="#0A427A" stroke="white" stroke-width="0.3"/>
</g>
<ellipse cx="63.6438" cy="11.5492" rx="3.36377" ry="3.39683" fill="#474747"/>
<rect width="8.74651" height="3.39656" rx="1.69828" transform="matrix(0.995878 0.0907065 -0.088964 0.996035 62.6003 15.6255)" fill="#474747"/>
<mask id="mask1_327_1503" style="mask-type:alpha" maskUnits="userSpaceOnUse" x="62" y="15" width="10" height="5">
<rect width="8.74651" height="3.39656" rx="1.69828" transform="matrix(0.995878 0.0907065 -0.088964 0.996035 62.6003 15.6255)" fill="#474747"/>
</mask>
<g mask="url(#mask1_327_1503)">
<rect x="0.133749" y="0.164931" width="7.77392" height="5.81365" transform="matrix(0.994489 0.104839 -0.10283 0.994699 59.2882 13.1675)" fill="#0A427A" stroke="white" stroke-width="0.3"/>
</g>
<path fill-rule="evenodd" clip-rule="evenodd" d="M31.0365 18.2231C28.3471 18.2231 26.167 20.1897 26.167 22.6157V32.1735C26.167 34.5994 28.3471 36.566 31.0365 36.566H33.3368C33.329 36.4072 33.3251 36.2473 33.3251 36.0865C33.3251 31.0212 37.2166 26.915 42.0171 26.915C46.8175 26.915 50.7091 31.0212 50.7091 36.0865C50.7091 36.2473 50.7052 36.4072 50.6974 36.566H76.2854C76.2777 36.4072 76.2738 36.2473 76.2738 36.0865C76.2738 31.0212 80.1653 26.915 84.9658 26.915C89.7662 26.915 93.6578 31.0212 93.6578 36.0865C93.6578 36.2473 93.6538 36.4072 93.6461 36.566H97.9916C100.681 36.566 102.861 34.5994 102.861 32.1735V22.6157C102.861 20.1897 100.681 18.2231 97.9916 18.2231H31.0365Z" fill="#0080FF"/>
<path fill-rule="evenodd" clip-rule="evenodd" d="M42.0171 42.7105C45.6398 42.7105 48.5765 39.7449 48.5765 36.0867C48.5765 32.4285 45.6398 29.4629 42.0171 29.4629C38.3945 29.4629 35.4578 32.4285 35.4578 36.0867C35.4578 39.7449 38.3945 42.7105 42.0171 42.7105ZM84.9657 42.7105C88.5884 42.7105 91.5251 39.7449 91.5251 36.0867C91.5251 32.4285 88.5884 29.4629 84.9657 29.4629C81.3431 29.4629 78.4064 32.4285 78.4064 36.0867C78.4064 39.7449 81.3431 42.7105 84.9657 42.7105Z" fill="#474747"/>
<path d="M43.3392 0.899414C40.5432 0.899414 38.2766 2.88308 38.2766 5.33006V20.8373C38.2766 23.2843 40.5432 25.2679 43.3392 25.2679H50.723C47.9378 25.2569 45.6838 23.2775 45.6838 20.8373V7.74089C45.6838 7.12915 46.2505 6.63323 46.9495 6.63323H67.4991C67.8325 6.63323 68.1524 6.74835 68.3894 6.95358L77.4931 17.6881C80.7022 20.4675 78.4631 25.2507 73.9564 25.2679H83.6604C88.258 25.2679 90.4752 20.3373 87.1108 17.595L71.376 2.08779C70.439 1.32405 69.2061 0.899414 67.9256 0.899414H43.3392Z" fill="#0080FF"/>
</g>
<defs>
<clipPath id="clip0_327_1503">
<rect width="103" height="42.8" fill="white"/>
</clipPath>
</defs>
</svg>
