<svg width="37" height="46" viewBox="0 0 37 46" fill="none" xmlns="http://www.w3.org/2000/svg">
<g filter="url(#filter0_d_325_5596)">
<path d="M32.4999 15.2544C32.4999 17.1192 31.868 19.2694 30.829 21.5322C29.7929 23.7888 28.3689 26.1214 26.8236 28.3412C23.9282 32.5006 20.6322 36.2284 18.7369 38.2671C16.8359 36.2292 13.5396 32.5011 10.6458 28.3413C9.10152 26.1215 7.679 23.789 6.64413 21.5324C5.60636 19.2696 4.97534 17.1193 4.97534 15.2544C4.97534 7.67456 11.4608 1.50195 19.0772 1.50195C26.6626 1.50195 32.4999 7.64355 32.4999 15.2544Z" fill="#0080FF" stroke="#0080FF"/>
<ellipse cx="18.7376" cy="15.4144" rx="10.9568" ry="11.0721" fill="white"/>
</g>
<g clip-path="url(#clip0_325_5596)">
<rect x="14.8076" y="15.7251" width="1.70175" height="8.20612" rx="0.850875" fill="#474747"/>
<rect x="18.2109" y="15.7251" width="1.70175" height="8.20612" rx="0.850876" fill="#474747"/>
<path fill-rule="evenodd" clip-rule="evenodd" d="M15.2235 11.2435C14.7848 11.0524 14.3048 11.265 14.1515 11.7183L12.5325 16.5037C12.3791 16.957 12.6104 17.4794 13.0492 17.6705C13.4879 17.8615 13.9678 17.649 14.1212 17.1957L15.7402 12.4102C15.8936 11.9569 15.6622 11.4346 15.2235 11.2435ZM19.4307 11.2435C18.992 11.4346 18.7607 11.9569 18.914 12.4102L20.533 17.1957C20.6864 17.649 21.1664 17.8615 21.6051 17.6705C22.0438 17.4794 22.2751 16.957 22.1218 16.5037L20.5027 11.7183C20.3494 11.265 19.8694 11.0524 19.4307 11.2435Z" fill="#474747"/>
<ellipse cx="17.3603" cy="8.00146" rx="2.12719" ry="2.41357" fill="#474747"/>
<path fill-rule="evenodd" clip-rule="evenodd" d="M17.779 8.56934C17.7436 8.7954 17.5696 8.96706 17.3602 8.96706C17.1507 8.96706 16.9767 8.7954 16.9413 8.56934C16.5932 8.73483 16.5093 9.10174 16.5093 9.30393C16.5093 9.44976 16.6552 9.44976 17.3599 9.44976H17.3602H17.3604C18.0651 9.44976 18.211 9.44976 18.211 9.30393C18.211 9.10174 18.1271 8.73483 17.779 8.56934Z" fill="#D3D2D2"/>
<path d="M19.2902 8.2774C19.3778 8.55323 19.5971 8.55323 19.6847 8.2774L19.882 7.65676C19.9697 7.38093 19.8601 7.03613 19.6847 7.03613H19.2902C19.1148 7.03613 19.0052 7.38093 19.0929 7.65676L19.2902 8.2774Z" fill="#D3D2D2"/>
<path d="M15.0358 8.2774C15.1235 8.55323 15.3427 8.55323 15.4303 8.2774L15.6276 7.65676C15.7153 7.38093 15.6057 7.03613 15.4303 7.03613H15.0358C14.8604 7.03613 14.7508 7.38093 14.8385 7.65676L15.0358 8.2774Z" fill="#D3D2D2"/>
<path d="M14.1712 11.6161C14.2962 11.1903 14.687 10.898 15.1307 10.898C16.6628 10.898 17.9248 10.8979 19.592 10.8979C20.0344 10.8979 20.4248 11.1887 20.5509 11.6128L21.1891 13.7577L19.9128 14.2769V18.1386H14.8076V14.2769L13.5312 13.7942L14.1712 11.6161Z" fill="#474747"/>
<path fill-rule="evenodd" clip-rule="evenodd" d="M21.5748 18.1679C21.6124 17.606 22.0051 17.1729 22.4769 17.1729H23.9734C24.4452 17.1729 24.8378 17.606 24.8754 18.1679L25.1889 22.8496H24.5174L24.2282 18.6007C24.2154 18.3292 24.0584 18.1184 23.8689 18.1184H22.5814C22.3919 18.1184 22.2348 18.3292 22.222 18.6007L21.8593 23.9308H21.189L21.5748 18.1679Z" fill="#474747"/>
<rect x="21.668" y="19.0649" width="3.11413" height="0.810958" fill="#474747"/>
<ellipse cx="24.9018" cy="23.2549" rx="0.598871" ry="0.675798" fill="#0080FF"/>
</g>
<defs>
<filter id="filter0_d_325_5596" x="0.475342" y="0.00195312" width="36.5247" height="45.9966" filterUnits="userSpaceOnUse" color-interpolation-filters="sRGB">
<feFlood flood-opacity="0" result="BackgroundImageFix"/>
<feColorMatrix in="SourceAlpha" type="matrix" values="0 0 0 0 0 0 0 0 0 0 0 0 0 0 0 0 0 0 127 0" result="hardAlpha"/>
<feOffset dy="3"/>
<feGaussianBlur stdDeviation="2"/>
<feComposite in2="hardAlpha" operator="out"/>
<feColorMatrix type="matrix" values="0 0 0 0 0.198969 0 0 0 0 0.198969 0 0 0 0 0.198969 0 0 0 0.4 0"/>
<feBlend mode="normal" in2="BackgroundImageFix" result="effect1_dropShadow_325_5596"/>
<feBlend mode="normal" in="SourceGraphic" in2="effect1_dropShadow_325_5596" result="shape"/>
</filter>
<clipPath id="clip0_325_5596">
<rect width="13.614" height="18.3431" fill="white" transform="translate(12.2549 5.58789)"/>
</clipPath>
</defs>
</svg>
