<svg width="30" height="38" viewBox="0 0 30 38" fill="none" xmlns="http://www.w3.org/2000/svg">
<path d="M29 14.2541C29 16.119 28.3681 18.2691 27.3291 20.532C26.293 22.7885 24.869 25.1211 23.3237 27.341C20.4283 31.5004 17.1322 35.2282 15.237 37.2668C13.336 35.2289 10.0397 31.5009 7.14585 27.3411C5.60158 25.1213 4.17906 22.7887 3.14419 20.5322C2.10642 18.2694 1.4754 16.1191 1.4754 14.2541C1.4754 6.67432 7.96086 0.501709 15.5773 0.501709C23.1627 0.501709 29 6.64331 29 14.2541Z" fill="#0080FF" stroke="#0080FF"/>
<ellipse cx="15.2377" cy="14.4142" rx="10.9568" ry="11.0721" fill="white"/>
<g clip-path="url(#clip0_403_2940)">
<rect x="11.3075" y="14.7244" width="1.70175" height="8.20612" rx="0.850875" fill="#474747"/>
<rect x="14.711" y="14.7244" width="1.70175" height="8.20612" rx="0.850876" fill="#474747"/>
<path fill-rule="evenodd" clip-rule="evenodd" d="M11.7236 10.2433C11.2848 10.0522 10.8049 10.2647 10.6515 10.718L9.03251 15.5035C8.87916 15.9568 9.11049 16.4791 9.54921 16.6702C9.98792 16.8613 10.4679 16.6487 10.6212 16.1955L12.2402 11.41C12.3936 10.9567 12.1623 10.4343 11.7236 10.2433ZM15.9308 10.2433C15.4921 10.4343 15.2607 10.9567 15.4141 11.41L17.0331 16.1955C17.1864 16.6487 17.6664 16.8613 18.1051 16.6702C18.5438 16.4791 18.7752 15.9568 18.6218 15.5035L17.0028 10.718C16.8494 10.2647 16.3695 10.0522 15.9308 10.2433Z" fill="#474747"/>
<ellipse cx="13.8601" cy="7.00097" rx="2.12719" ry="2.41357" fill="#474747"/>
<path fill-rule="evenodd" clip-rule="evenodd" d="M14.279 7.5686C14.2436 7.79467 14.0695 7.96633 13.8601 7.96633C13.6507 7.96633 13.4766 7.79467 13.4412 7.5686C13.0932 7.7341 13.0092 8.10101 13.0092 8.3032C13.0092 8.44903 13.1552 8.44903 13.8599 8.44903H13.8601H13.8603C14.565 8.44903 14.711 8.44903 14.711 8.3032C14.711 8.10101 14.627 7.7341 14.279 7.5686Z" fill="#D3D2D2"/>
<path d="M15.79 7.27691C15.8777 7.55274 16.0969 7.55274 16.1846 7.27691L16.3819 6.65628C16.4695 6.38044 16.3599 6.03564 16.1846 6.03564H15.79C15.6146 6.03564 15.505 6.38044 15.5927 6.65628L15.79 7.27691Z" fill="#D3D2D2"/>
<path d="M11.5356 7.27691C11.6233 7.55274 11.8425 7.55274 11.9302 7.27691L12.1275 6.65628C12.2152 6.38044 12.1056 6.03564 11.9302 6.03564H11.5356C11.3602 6.03564 11.2506 6.38044 11.3383 6.65628L11.5356 7.27691Z" fill="#D3D2D2"/>
<path d="M10.6711 10.6153C10.7961 10.1896 11.1869 9.89722 11.6307 9.89722C13.1627 9.89722 14.4247 9.89722 16.0919 9.89722C16.5343 9.89722 16.9247 10.188 17.0508 10.612L17.689 12.757L16.4127 13.2762V17.1379H11.3075V13.2762L10.0312 12.7935L10.6711 10.6153Z" fill="#474747"/>
<path fill-rule="evenodd" clip-rule="evenodd" d="M18.0749 17.1677C18.1125 16.6057 18.5051 16.1726 18.977 16.1726H20.4734C20.9452 16.1726 21.3379 16.6057 21.3755 17.1677L21.689 21.8493H21.0174L20.7283 17.6005C20.7155 17.329 20.5584 17.1182 20.369 17.1182H19.0814C18.892 17.1182 18.7349 17.329 18.7221 17.6005L18.3594 22.9306H17.689L18.0749 17.1677Z" fill="#474747"/>
<rect x="18.1681" y="18.0649" width="3.11413" height="0.810958" fill="#474747"/>
<ellipse cx="21.402" cy="22.2549" rx="0.598871" ry="0.675798" fill="#0080FF"/>
</g>
<defs>
<clipPath id="clip0_403_2940">
<rect width="13.614" height="18.3431" fill="white" transform="translate(8.75484 4.5874)"/>
</clipPath>
</defs>
</svg>
